<svg xmlns="http://www.w3.org/2000/svg" viewBox="0 0 43 33" xml:space="preserve"><path d="M17 8.6c-4.5 0-8.2 3.7-8.2 8.2S12.4 25 17 25c4.5 0 8.2-3.7 8.2-8.2S21.5 8.6 17 8.6zm0 13.6c-2.9 0-5.3-2.4-5.3-5.3s2.4-5.3 5.3-5.3 5.3 2.4 5.3 5.3-2.4 5.3-5.3 5.3zM27.4 8.3c0 1.1-.9 1.9-1.9 1.9-1.1 0-1.9-.9-1.9-1.9 0-1.1.9-1.9 1.9-1.9 1.1 0 1.9.8 1.9 1.9zm5.5 1.9c-.1-2.6-.7-4.8-2.6-6.7C28.4 1.6 26.2 1 23.6.9 20.9.8 13 .8 10.4 1c-2.6.1-4.9.7-6.7 2.5-1.9 1.9-2.5 4.1-2.6 6.7-.1 2.6-.1 10.6 0 13.2.1 2.6.7 4.8 2.6 6.7 1.9 1.9 4.1 2.5 6.7 2.6 2.6.1 10.6.1 13.2 0 2.6-.1 4.8-.7 6.7-2.6 1.9-1.9 2.5-4.1 2.6-6.7.1-2.6.1-10.5 0-13.2zm-3.5 16.1c-.6 1.4-1.6 2.5-3 3-2.1.8-7.1.7-9.4.7-2.3 0-7.3.2-9.4-.6-1.4-.6-2.5-1.6-3-3-.8-2.1-.6-7.1-.6-9.4s-.3-7.5.5-9.6c.6-1.4 1.6-2.5 3-3 2.1-.8 7.1-.6 9.4-.6 2.3 0 7.3-.2 9.4.6 1.4.6 2.5 1.6 3 3 .8 2.1.6 7.1.6 9.4s.4 7.4-.5 9.5z"/></svg>