<svg xmlns="http://www.w3.org/2000/svg" viewBox="0 0 33 27" xml:space="preserve"><path d="M29.1 7.3v.9c0 8.7-6.6 18.7-18.7 18.7-3.7 0-7.2-1.1-10.1-2.9.5.1 1 .1 1.6.1 3.1 0 5.9-1 8.1-2.8-2.9-.1-5.3-1.9-6.1-4.5.4.1.8.1 1.2.1.6 0 1.2-.1 1.7-.2-3-.6-5.3-3.2-5.3-6.4V10c.9.5 1.9.8 3 .8-1.6-1.2-2.8-3.2-2.8-5.5 0-1.2.3-2.3.9-3.3 3.2 4 8.1 6.6 13.5 6.9-.1-.5-.1-1-.1-1.5C16 3.8 18.9.8 22.6.8c1.9 0 3.6.8 4.8 2.1 1.5-.3 2.9-.8 4.2-1.6-.5 1.5-1.5 2.8-2.9 3.6 1.3-.1 2.6-.5 3.8-1-1 1.3-2.1 2.5-3.4 3.4z"/></svg>