<svg fill="none" height="116" width="114" xmlns="http://www.w3.org/2000/svg" xmlns:xlink="http://www.w3.org/1999/xlink"><clipPath id="a"><path d="m0 .773h113.56v114.57h-113.56z"/></clipPath><g clip-path="url(#a)" fill="#fcdcd9"><path d="m40.72 90.173c-1.19 3.83.3 4.64 3.56 4.61 11.15-.11 22.3-.04 33.45.16 1.12.02 3.24.77 3.33 2.09.09 1.38-2.03 2.52-3.14 2.6-6.97.53-13.96.85-20.94.99-5.82.12-11.65-.15-17.48-.17-3.18-.01-4.76-.86-4.61-4.66.23-5.79-.31-11.61-.64-17.41-.16-2.88.93-4.37 3.9-4.38 12.65-.05 25.3-.2 37.95-.09 1.75.02 5.14.17 5.22 2.04.09 2.1-3.7 2.69-5.61 2.78-10.81.52-21.64.65-32.47.92-.98.02-1.95.14-3.17.24v4.17c.63.17 1.24.49 1.85.49 9.99-.03 19.99-.12 29.98-.15 2.33-.01 4.71-.09 6.95.42 1.18.27 3.26 1.26 3.13 2.64-.12 1.33-2.26 1.97-3.42 2-10.82.36-21.65.51-32.47.7-1.82.04-3.63.01-5.37.01zm44.93-15.83c.09-1.56.59-4.47 2.31-4.55 1.81-.08 2.76 2.98 2.86 4.55.56 8.97.73 17.96 1.03 26.94.05 1.5-.34 3.16.2 4.45.59 1.43 1.46 3.92 3.08 3.75 1.51-.16 2.08-2.65 2.1-3.99.11-9.81-.05-19.62-.11-29.42-.01-1-.28-2.14.11-2.96.57-1.19 1.12-3.23 2.47-3.21 1.34.01 2.28 2.08 2.34 3.19.51 8.97.72 17.95 1.14 26.93.11 2.27.49 4.55 1.08 6.75.23.87 1.05 2.36 2.07 2.25 1.05-.11 1.61-1.8 1.61-2.7-.03-10.65-.29-21.3-.26-31.95.01-1.61.16-4.6 1.88-4.84 1.83-.25 3.18 2.87 3.25 4.39.43 8.47.39 16.96.52 25.45.03 2 .01 4 .19 5.98.63 6.88-3.88 10.64-10.51 8.96-1.51-.39-3.41-.23-4.88.34-6.03 2.34-11.57-1.26-11.73-7.87-.07-2.83 0-5.66 0-8.49-.01-2.85-1.04-18.81-.75-23.95zm-33.98-14.22h21.57c-4.68-3.96-9.08-7.65-13.44-11.38-1.52-1.3-3.14-2.54-4.36-4.09-.54-.68-.62-2.43-.12-3.03.49-.58 2.41-.83 2.99-.35 7.45 6.11 14.84 12.3 22.04 18.69 1 .89 1.66 3.33 1.14 4.42-.45.94-2.78 1.35-4.29 1.37-8.5.1-17-.01-25.5.01-3.59.01-5.27-1.18-5.41-5.26-.64-17.97-1.68-35.93-2.44-53.9-.05-1.28.24-3.71 1.66-3.92s2.58 2.1 2.69 3.26c.83 8.43 1.43 16.89 1.96 25.35.57 9.44.99 18.87 1.51 28.83zm-48.24 28.78c-.79-5-2.2-8.52-1.63-11.69.76-4.22 5.04-4.92 8.75-5.17 4.14-.28 8.33-.34 12.47-.05 1.37.1 3.97.88 3.96 2.45-.01 1.67-2.73 2.37-4.23 2.57-3.77.5-7.64.28-11.43.68-1.4.15-3.71.43-4.06 1.89-.39 1.66 1.85 3.59 3.13 3.9 3.99.96 8.2.97 12.23 1.82 1.96.42 5.52.81 5.52 2.9 0 2.22-3.82 2.79-5.87 3.05-3.08.39-6.33-.64-9.43-.31-1.88.2-4.99.77-5.41 2.77-.45 2.12 2.34 4.36 4.05 4.95 3.2 1.09 6.81 1 10.26 1.35 1.49.15 3.1-.16 4.45.33 1.05.38 2.47 1.7 2.44 2.56-.03.92-1.62 2.62-2.42 2.56-6.22-.5-12.87-.16-18.5-2.35-7.63-2.99-8.3-9.22-4.28-14.21zm29.82-83.66c-.03-1.47.25-4.32 1.87-4.46 1.7-.15 2.65 2.79 2.75 4.26.78 11.79 1.27 23.61 1.81 35.41.35 7.65.78 15.3.81 22.95.01 1.69-.5 5.01-2.39 5.09-1.88.08-2.75-3.2-2.78-4.83-.25-11.15-1.88-50.1-2.07-58.42zm-15.73 45.89c3.02 3.17 5.8 5.78 8.15 8.73.89 1.11 2.26 3.5 1.1 4.58-1.2 1.13-3.44-.51-4.69-1.43-2.94-2.15-5.57-4.71-8.41-7.16-2.93 2.31-5.52 4.7-8.47 6.5-1.16.72-3.8 1.42-4.74.12-.87-1.21.58-3.17 1.51-4.17 2.12-2.27 4.64-4.16 7.33-6.5-2.89-2.77-5.67-5.12-8.04-7.85-.83-.95-1.82-3.12-.88-4.24.97-1.15 3.45-.56 4.44.16 2.8 2.05 5.2 4.63 8.13 7.34 2.63-2.26 5.08-4.75 7.92-6.63 1.45-.96 4.15-2.58 5.44-1.22 1.3 1.37-.42 4.09-1.52 5.38-2 2.38-4.67 4.18-7.27 6.39z"/><path d="m81.66 48.633c.04 1.21-1.06 2.32-1.7 2.45-1.11.23-2.76.17-3.51-.51-6.64-5.97-13.2-12.02-19.59-18.25-1-.97-2.51-3.25-1.48-4.46.94-1.11 3.28-.09 4.26.69 6.32 5.08 12.5 10.35 18.62 15.68 1.32 1.15 3.33 2.41 3.4 4.4zm-24.59-36.05c.9.55 1.67.9 2.28 1.41 6.34 5.31 12.7 10.61 18.96 16.02 1.09.95 2.05 2.26 2.56 3.6.32.85 0 2.64-.59 2.96-.94.51-2.83.68-3.5.07-7-6.29-13.89-12.71-20.67-19.23-.73-.71-.87-2.26-.85-3.42 0-.46 1.14-.91 1.81-1.41zm53.28 45.89c2.18.16 2.46 3.01 2.34 3.99-.13 1.05-1.18 2.88-2.48 2.89-1.45.02-2.54-1.95-2.84-3.17-.19-.74.69-3.87 2.98-3.71zm-10.02 7.89c-2.16.2-3.21-2.74-3.06-3.52.23-1.2 1.3-3.16 2.73-3.2 1.31-.03 2.5 1.75 2.63 2.76s-.23 3.77-2.3 3.96zm-11.07-9.85c-2.22-.15-2.92-2.82-2.64-4.12.29-1.32 2.24-1.88 3.43-2 .68-.07 2.28 1.72 2.13 2.4-.23 1.15-.75 3.87-2.92 3.72zm4.32 6.04c-.03 2.28-3.05 2.77-3.93 2.6-1.12-.21-3-1.31-2.99-2.68s1.9-2.44 3.02-2.63c.89-.14 3.93.4 3.9 2.71zm10.47-10.18c.23 2.47-3.11 2.9-4.15 2.86-.99-.04-2.87-1.24-2.86-2.56.01-1.18 1.68-2.22 2.59-2.28 1.11-.08 4.21-.35 4.42 1.98zm5.93-3.15c1.96-.07 2.88 2.52 2.72 3.13-.31 1.16-1.53 2.76-2.52 2.86-.91.1-2.61-1.39-2.83-2.42-.17-.81.61-3.49 2.63-3.57z"/></g></svg>