<svg xmlns="http://www.w3.org/2000/svg" fill="none" viewBox="0 0 107 135"><g clip-path="url(#a)" fill="#FCDCD9"><path d="M94.2 46.91c1.83-1.85 3.52-3.97 5.64-5.51 1.07-.78 3.35-1.77 4.39-.7 1.02 1.05-.07 3.14-.8 4.27-1.43 2.2-3.36 4.08-5.22 6.25 2.45 2.2 4.91 3.98 6.76 6.26.97 1.19 2.44 3.71 1.24 4.93-1.26 1.29-3.83-.28-5.24-1.2-2.45-1.59-4.5-3.8-6.65-5.69-5.57 4.41-11.33 8.29-7.72 17.06 4.99 0 10.46-.16 15.9.1 1.52.07 4.38.45 4.48 2.11.1 1.78-2.97 2.72-4.49 2.77-13.32.41-26.64.59-39.96.58-1.38 0-4.15-1.03-4.15-2.71.01-1.61 2.64-2.51 4.02-2.58 5.79-.29 11.61-.12 17.26-.12 2.46-8.49 1.7-10.09-7.9-17.07-2.75 2.47-5.41 5.22-8.46 7.41-1.09.78-3.71 1.51-4.76.28-.98-1.15.08-3.4.94-4.36 2.41-2.66 5.26-4.92 8.23-7.6-2.82-2.2-5.34-3.86-7.46-5.93-1.09-1.07-3.08-2.99-2.16-4.33.99-1.45 3.76-.23 5.2.51 2.91 1.5 5.5 3.6 8.16 5.41 5.52-3.85 8.9-8.43 7.73-15.46-.19-1.13.52-3.68 1.97-3.82 1.6-.16 3.03 2.57 2.91 3.69-.78 7.72 2.61 12.61 10.14 15.45zm-18.1 4.57 7.72 6.41c2.09-2.15 4.01-4.13 5.94-6.11-7.83-7.62-8.15-7.62-13.66-.3zm-64.69 14.2c3.08.33 5.29.25 7.28.88 1.58.5 3.7 1.62 4.09 2.91.38 1.25-.79 3.41-1.9 4.59-3.11 3.33-6.54 6.37-10.38 10.04 10.13 0 19.22-.02 28.31.01 3.48.01 6.98-.12 10.42.28 1.27.15 3.48 1.06 3.57 2.54.09 1.53-2.09 2.75-3.36 3.01-2.22.46-4.62-.01-6.95-.01-12.84.01-25.66.09-38.49.03-1.29-.01-3.3-.09-3.86-1.34-.55-1.24.7-2.83 1.58-3.72 4.1-4.11 8.4-8.02 13.63-12.95-3.73-.46-6.11-.6-8.41-1.07-3.94-.82-4.64-2.83-1.99-5.85 3.03-3.44 6.25-6.72 9.76-10.47-3.38-.6-6.33-.91-9.15-1.67-3.53-.94-4.19-3.24-1.56-5.81 4.51-4.41 9.2-8.65 14-12.75.82-.7 2.99-1.4 3.88-.42.95 1.05-.04 3.26-.87 4.11-3.29 3.38-6.9 6.45-11.06 10.24 3.85.64 6.62.93 9.3 1.58 4.55 1.11 5.16 3.16 1.91 6.51-2.97 3.04-6.13 5.88-9.75 9.33z"/><path d="M81.5 17.11c5.45-4.18 10.74-8.45 16.3-12.34 1.68-1.18 4.17-1.79 6.19-1.6.72.07 1.56 3.27 1.62 5.07.21 6.81.16 13.62.14 20.44-.01 4.1-1.88 5.53-5.62 3.95-5.19-2.19-10.15-4.94-15.39-7.01-1.86-.73-4.48-.78-6.33-.05-5.09 1.98-9.91 4.64-14.92 6.83-4.38 1.91-6.19.57-6.14-4.11.08-6.97.01-13.95.18-20.92.04-1.49.64-4.04 1.41-4.22 1.68-.38 4.02-.1 5.41.88 5.8 4.13 11.36 8.61 17.15 13.08zm18.99-7.52c-4.78 3.72-8.9 6.94-13.36 10.42 4.92 2.45 9.01 4.49 13.36 6.66V9.59zM76.03 19.96c-4.56-3.45-8.65-6.54-13.31-10.07v16.73c4.47-2.24 8.46-4.23 13.31-6.66zm-14.62 99c-2.83-3.28-3.6-6.35-1.2-9.82.46-.67.47-2.17.02-2.84-2.58-3.86-1.65-7.23 1.18-10.33-4.65-7.35-1.66-12.93 7.03-13.26 2.16-.08 4.41-.14 6.46.41 1.46.39 4.08 1.18 3.94 2.8-.12 1.49-2.6 1.78-4 1.97-3.28.44-6.62.44-9.94.62-.17.85-.93 1.79-.51 2.55 1.48 2.65 5.75 1.98 8.52 3.22 1.63.73 4.62 1.15 4.53 2.96-.1 1.91-3.29 2.06-5.09 2.6-1.37.42-3.02-.17-4.46.12-1.09.22-2.86.53-3.08 1.69-.23 1.22 1.4 2.49 2.39 2.79 2.35.71 4.91.67 7.3 1.28 1.23.32 3.24.79 3.38 2.11.15 1.45-1.93 2.71-3.13 2.96-3.25.69-6.62.78-9.95 1.11l-.3 2.25c2.77.9 5.65 1.57 8.28 2.77 1.74.8 4.94 1.64 4.67 3.59-.25 1.81-3.31 1.71-5.07 2.08-2.64.55-5.36.67-8.05.97l-.42 2.09c2.55 1.04 5.06 2.22 7.68 3.07 1.55.5 3.36.22 4.89.77.89.32 2.18 1.78 2.01 2.36-.3 1.05-1.52 2.55-2.42 2.59-5.94.27-11.79-.43-15.98-5.28-3.08-3.59-2.91-7.29 1.32-10.2zM43.8 16.43c3.04 3.32 5.76 6.01 8.1 9.01.77.99 1.86 3.18.81 4.14-1.11 1.02-3.2-.38-4.3-1.22-2.87-2.19-5.46-4.75-8.28-7.26-2.93 2.39-5.35 4.68-8.11 6.46-1.06.68-3.42 1.38-4.34.24-.92-1.14.26-3.22 1.11-4.19 2.04-2.33 4.53-4.28 7.51-7.01-2.88-2.62-5.62-4.79-7.92-7.36-.86-.97-1.98-3.21-.98-4.33 1.08-1.22 3.82-.36 4.76.51 2.41 2.22 4.26 5.05 6.44 7.77 3.51-3.16 5.67-5.51 8.25-7.26 1.46-.99 4.09-2.77 5.41-1.43 1.34 1.36-.44 4.09-1.53 5.45-1.93 2.42-4.53 4.31-6.93 6.48zm-6.03 40.48c0-6-.15-12.01.11-17.99.06-1.42.77-4.15 2.38-4.16 1.63-.01 2.44 2.77 2.46 4.17.16 11.83.12 23.66-.12 35.49-.03 1.59-.61 4.77-2.39 4.73-1.75-.04-2.08-3.14-2.16-4.75-.26-5.82-.22-17.49-.28-17.49zm15.28 18.41c-.05 1.3-.63 3.72-2.1 3.82-1.43.1-2.5-2.27-2.51-3.42-.11-12.13-.04-24.26.23-36.38.03-1.51.69-4.62 2.39-4.49 1.79.13 1.76 3.34 1.83 5.04.23 5.82.38 29.45.16 35.43zM33.17 57.36c0 5.82.14 11.64-.1 17.45-.06 1.47-.46 4.26-2.07 4.33-1.55.07-2.33-2.63-2.34-3.97-.15-12.12-.1-24.24.08-36.36.02-1.34.41-3.94 1.9-3.99 1.58-.05 2.23 2.7 2.28 4.09.25 6.14.11 12.29.11 18.44.04.01.09.01.14.01zm64.59 42.52c0 3.97.23 7.97-.13 11.9-.12 1.34-1.12 3.85-2.7 3.81-1.46-.03-2.33-2.41-2.35-3.64-.15-8.1-.11-16.21.19-24.31.05-1.31 1.03-3.94 2.6-3.85 1.58.09 2.07 2.74 2.18 4.17.3 3.95.1 7.94.1 11.91.04.01.08.01.11.01zm-9.95 11.57c-.15 1.51-1.17 4.4-2.93 4.3-1.59-.1-2.14-2.78-2.2-4.21-.28-7.78-.25-15.58-.29-23.36 0-.98-.05-2.15.43-2.91.62-.97 1.48-2.55 2.67-2.38 1.27.19 1.92 2.14 1.98 3.25.25 4.29.75 21.21.34 25.31zm19.03-12.02c0 4.15.19 8.32-.12 12.44-.1 1.26-.98 3.59-2.46 3.61-1.49.02-2.56-2.37-2.58-3.58-.18-8.63-.11-17.27.14-25.89.03-1.05 1.07-3.07 2.39-3.09 1.35-.02 2.45 1.99 2.51 3.06.29 4.47.12 8.96.12 13.45zM22.13 24.22c-.17 1.31-.84 3.65-2.31 3.69-1.42.04-2.34-2.25-2.42-3.45-.4-5.77-.59-11.58-.45-17.36.03-1.34.97-3.98 2.56-3.95 1.46.03 2.05 2.41 2.2 3.72.34 2.95.78 14.59.42 17.35z"/><path d="M81.54 0c2.42-.09 3.62 3.17 3.4 3.81-.46 1.34-2 3.01-3.26 3.16-1.09.13-3.44-1.06-3.62-2.58C77.87 2.82 79.11.1 81.54 0z"/></g><defs><clipPath id="a"><path fill="#fff" d="M0 0h106.97v134.48H0z"/></clipPath></defs></svg>