<svg xmlns="http://www.w3.org/2000/svg" xmlns:xlink="http://www.w3.org/1999/xlink" id="css-conf-colombia-logo" x="0" y="0" enable-background="new 0 0 215 217" version="1.1" viewBox="0 0 215 217" xml:space="preserve"><style type="text/css">.st0{fill:#fbf4a0}.st1{fill:#fcdcd9}.st2{fill:#204183}.st3{fill:#f04c39}.st4{fill:#204182}</style><path id="circle-yellow" d="M170,193.9l-64.8-49.8l-64.8,49.8C58,208.3,80.6,217,105.2,217	C129.8,217,152.3,208.4,170,193.9z" class="st0"/><path id="circle-pink" d="M167,182.7c1.7-1.4,3.3-2.8,5-4.3c20-18.6,32.5-45.2,32.5-74.6c0-26.1-9.8-50-26.1-68.1	c-18.8-20.8-46-33.9-76.2-33.9C45.8,1.8,0,47.5,0,103.8c0,30.6,13.5,58,34.8,76.7c0.9,0.8,1.7,1.5,2.6,2.2l64.8-49.8L167,182.7z" class="st1"/><path id="circle-border" d="M188.7,34.2c-9.6-10.7-21-19.1-34-25C141.3,3.1,126.9,0,112,0C98.1,0,84.6,2.7,71.9,8.1	c-12.3,5.2-23.3,12.6-32.8,22C29.6,39.6,22.2,50.6,17,62.8c-5.4,12.7-8.1,26.1-8.1,40c0,15.1,3.2,29.5,9.5,43.1	c6.1,13.1,14.7,24.6,25.6,34.2c0.8,0.7,1.7,1.4,2.7,2.2l0.5,0.4l0,0c8.9,7.2,18.8,12.8,29.5,16.7c11.3,4.1,23.1,6.2,35.3,6.2	c12.1,0,24-2.1,35.3-6.1c10.9-4,21-9.7,30-17.1l0.8-0.6l0,0c1.5-1.2,2.9-2.5,4.2-3.7c10.2-9.5,18.3-20.8,24-33.5	c5.9-13.2,8.8-27.2,8.8-41.7C215,77.4,205.7,53.1,188.7,34.2z M146.7,197.9c-11.1,4.1-22.8,6.1-34.7,6.1c-11.9,0-23.6-2.1-34.7-6.1	c-10.4-3.8-20.1-9.2-28.8-16.2L112,133l63.5,48.8C166.8,188.7,157.1,194.2,146.7,197.9z M204.7,143.8c-5.6,12.5-13.5,23.6-23.6,33	c-1.4,1.3-2.9,2.6-4.4,3.9L112,131l-64.8,49.7c-0.8-0.7-1.4-1.2-2.1-1.8c-10.8-9.4-19.3-20.7-25.2-33.6c-6.2-13.3-9.3-27.6-9.3-42.5	c0-13.7,2.7-26.9,8-39.4c5.1-12.1,12.4-22.9,21.7-32.2c9.3-9.3,20.2-16.6,32.3-21.7C85,4.3,98.3,1.6,112,1.6	c14.7,0,28.8,3.1,42.1,9.1c12.8,5.8,24.1,14.1,33.5,24.6c16.7,18.6,25.9,42.6,25.9,67.5C213.4,117.1,210.5,130.9,204.7,143.8z" class="st2"/><path id="circle" d="M117.4,154.6c0,3-2.4,5.4-5.4,5.4c-3,0-5.4-2.4-5.4-5.4c0-3,2.4-5.4,5.4-5.4	C115,149.2,117.4,151.7,117.4,154.6z" class="st3"/><path id="conf" d="M196.5,87.8c-0.5-0.4-1.3-0.4-1.9-0.1l-0.2,0.1c-1.9,1.7-4.2,3.1-6.9,4.3c-2.7,1.2-5.5,2-8.6,2.5	c-3,0.5-6.1,0.7-9.2,0.5c-2.8-0.2-5.5-0.7-8-1.6c0.4-1,0.8-1.9,1.3-2.8c0.5-1.1,1.1-2.1,1.7-3.1c5.6-1.8,10.5-4.3,14.9-7.5	c4.5-3.2,8-7,10.5-11.2c0.3-0.5,0.7-1.1,1-1.8c0.3-0.7,0.6-1.4,0.8-2.1c0.2-0.8,0.3-1.5,0.3-2.2c0-0.8-0.3-1.6-0.9-2.3	c-0.6-0.8-1.4-1.2-2.4-1.4c-0.9-0.1-1.7,0-2.6,0.2c-0.8,0.3-1.6,0.6-2.3,1c-0.7,0.4-1.3,0.8-1.9,1.2c-1.6,1.2-3.2,2.5-4.7,3.9	c-1.5,1.4-2.9,2.8-4.3,4.1c-2.3,2.3-4.4,4.6-6.4,7.1c-2,2.4-3.8,5-5.4,7.7c-0.6,1.1-1.3,2.4-2,3.7c-2.1,1.6-4.2,3.1-6.3,4.6	c-2.3,1.6-4.9,3.1-7.5,4.4c-1,0.5-2.1,0.7-3.2,0.7c-0.6,0-1.2-0.2-1.4-1.1c-0.1-0.6-0.1-1.2,0.1-1.9c0.2-0.8,0.5-1.5,0.7-2.2	c0.3-1.2,0.6-2.3,0.9-3.4c0.3-1.1,0.5-2.3,0.7-3.5c0.1-0.7,0.1-1.4,0.1-2.1c0-0.7-0.4-1.6-1.9-2.2c-1-0.4-2-0.4-3.1-0.1	c-0.8,0.3-1.6,0.6-2.4,1c-1.8,1.1-3.6,2.5-5.2,4.1c-0.4,0.3-0.7,0.7-1.1,1.1c0.3-0.6,0.4-1.3,0.5-1.9c0.2-0.7-0.3-1.3-1.2-1.5	c-0.8-0.3-1.7-0.1-2.2,0.3c-0.9,0.7-1.5,1.5-2,2.4c-0.3,0.6-0.5,1.2-0.6,1.8c-1.7,1.1-3.6,1.9-5.7,2.4c-2.5,0.5-5.1,0.9-7.8,1.1	c-1.2,0.1-2.6,0-4-0.1c-1-0.1-1.9-0.2-2.9-0.4c0.1-0.1,0.2-0.3,0.3-0.4l0.7-1.2c0.7-1.1,1.2-2.3,1.5-3.6c0.4-1.5,0.1-2.8-1-4	c-0.8-1-1.9-1.7-3.3-2c-1.3-0.3-2.6-0.3-3.9-0.1c-1.2,0.3-2.4,0.7-3.4,1.4c-1.1,0.7-1.8,1.5-2.2,2.5c-0.4,1-0.5,2-0.4,2.8	c-0.4,0.4-0.8,1-1.1,1.5c-1.1,1.1-2.4,2.2-3.8,3.2c-1.6,1.2-3.4,2.2-5.3,3.1c-1.9,0.9-3.9,1.5-6,2c-2.1,0.4-4.2,0.6-6.3,0.4	c-1.2-0.1-2.3-0.4-3.2-0.8c-0.9-0.4-1.7-1-2.2-1.7c-0.6-0.6-1-1.4-1.2-2.2c-0.2-0.8-0.2-1.6,0.1-2.5c0.5-1.5,1.6-2.9,3.3-4	c0.5-0.3,1-0.6,1.6-0.8c0.1,0.1,0.2,0.2,0.4,0.5c0.2,0.2,0.3,0.6-0.2,1.4c-0.5,0.8-1,1.3-1.4,1.6l-0.2,0.1l-0.1,0.1	c-0.3,0.5-0.1,1,0.2,1.2c0.3,0.2,0.8,0.4,1.5,0.1l0.2-0.1c1-0.7,2-1.6,2.8-2.6c0.9-1.1,1.2-2.3,0.9-3.5c-0.4-1.7-1.8-2.2-2.8-2.4	c-1.3-0.2-2.6-0.1-3.9,0.3c-1.5,0.6-2.9,1.4-4,2.4c-1.1,1-2,2.2-2.6,3.5c-0.3,0.6-0.5,1.2-0.6,1.8c-1,1.8-2.2,3.3-3.7,4.5	c-2.8,2.3-10,5.8-27.4,3.2c-0.7-0.1-1.3,0.3-1.4,1c-0.1,0.3,0,0.6,0.2,0.8c0.2,0.3,0.5,0.4,0.8,0.5c4.1,0.6,7.9,0.9,11.4,0.9	c8,0,15.5-1.9,19.5-4.9c0.4-0.3,0.7-0.6,1.1-0.9c0.1,0.3,0.2,0.5,0.4,0.7c0.9,1.4,2,2.4,3.5,3.2c1.4,0.7,2.9,1.2,4.7,1.4	c1.7,0.2,3.4,0.2,5.2,0c1.7-0.2,3.4-0.5,5-0.9c3.5-0.9,6.6-2.2,9.4-3.9c1.1-0.6,2.2-1.4,3.2-2.2c0.2,0.4,0.4,0.7,0.7,1.1	c0.8,1,1.8,1.7,3.1,2c1.3,0.3,2.6,0.3,4,0c0.8-0.3,1.5-0.6,2.2-1c0.5-0.3,1-0.6,1.4-1c0.3,0.1,0.7,0.1,1.1,0.2	c0.6,0.1,1.1,0.2,1.6,0.2c4.2,0.4,8.3,0.3,12.3-0.5c2.6-0.5,4.9-1.3,7.1-2.4c0,0.8,0.4,1.7,1.1,2.4c0.4,0.4,0.8,0.6,1.2,0.6	c0.1,0,0.1,0,0.2,0h0.2c0.2,0.1,0.4,0.1,0.6,0.1c0.5,0,0.9-0.2,1.2-0.5c1.1-0.8,2-1.8,2.9-2.7c0.8-0.9,1.8-1.8,2.7-2.7	c0.8-0.9,1.9-1.8,3.2-2.7l0.1-0.1c0.1-0.1,0.3-0.3,0.7-0.6c0.3-0.3,0.6-0.5,1-0.7c0.2-0.1,0.3-0.2,0.4-0.2c0,0,0,0,0.1,0.1	c0.1,0.1,0.1,0.3,0.1,0.5c-0.1,0.4-0.1,0.7-0.2,1.1c-0.1,0.4-0.3,0.8-0.4,1.2c-0.1,0.4-0.2,0.7-0.3,1c-0.2,0.6-0.4,1.3-0.6,1.9	c-0.2,0.7-0.4,1.4-0.6,2c-0.3,0.9-0.6,1.9-0.8,2.8c-0.2,1.1,0,2.2,0.8,3.2c0.6,1.1,1.5,1.8,2.5,2.1c1,0.3,2,0.4,3.1,0.3	c1-0.1,2-0.4,3-0.8c0.9-0.4,1.8-0.8,2.6-1.2c2.5-1.3,4.9-2.7,7.2-4.3c0.3-0.2,0.6-0.4,1-0.6c0,0.1,0,0.1,0.1,0.2	c-0.8,2-1.4,4.1-1.7,6c-0.2,0.9-0.3,2-0.4,3.2c-0.1,1.3,0,2.5,0.3,3.8c0.3,1.3,0.9,2.5,1.6,3.6c0.8,1.2,2.1,2,3.8,2.5	c0.8,0.3,1.7,0.4,2.4,0.4c0.9,0,1.8-0.2,2.5-0.7c1.2-0.6,2.1-1.5,2.8-2.7c0.6-1.1,1.1-2.2,1.3-3.5c0.3-1.2,0.4-2.2,0.4-3.1	c-0.2-1.3-0.6-2.6-1.2-3.8c-0.3-0.6-0.6-1.2-1.1-1.7c1.3,0.1,2.5,0.2,3.8,0.3c2.2,0.1,4.2,0,6.1-0.3c3.8-0.7,7.3-1.7,10.5-3	c3.3-1.3,6.2-3.2,8.8-5.4l0.1-0.1c0.2-0.3,0.3-0.5,0.3-0.8C196.9,88.4,196.9,88.1,196.5,87.8z M165.8,104.1c0,0.4,0,1-0.1,1.7	c-0.1,0.7-0.3,1.4-0.5,2c-0.3,0.6-0.6,1.2-1,1.7c-0.3,0.3-0.6,0.5-1.1,0.5c-0.6,0-1.1-0.1-1.5-0.4c-0.4-0.4-0.8-0.8-1-1.3	c-0.3-0.6-0.4-1.2-0.6-1.8l-0.3-1.8c-0.2-1.5-0.1-3,0.1-4.4c0.2-1.1,0.4-2.3,0.8-3.5c1.5,0.7,2.6,1.7,3.5,2.8	C165.3,100.8,165.8,102.4,165.8,104.1z M188.2,62.3c0.1,0.1,0.1,0.3,0.1,0.8c0.1,1.2-0.2,2.4-0.9,3.6c-0.7,1.3-1.4,2.5-2.1,3.6	c-2.2,3.4-5.3,6.5-9,9.2c-3,2.2-6.3,4-9.9,5.5c0.2-0.3,0.3-0.5,0.5-0.8c0.6-0.9,1.2-1.8,1.9-2.7c2-2.9,4.2-5.7,6.6-8.3	c2.4-2.6,5.1-5.2,8-7.7c0.4-0.3,0.8-0.7,1.5-1.3c0.6-0.6,1.3-1,2-1.4C187.5,62.5,187.9,62.3,188.2,62.3z M96.9,84.7	c0.4-0.8,1.2-1.3,2.4-1.5c0.8-0.1,1.4-0.1,1.8,0.1c0.4,0.2,0.8,0.4,1,0.8c0.2,0.4,0.4,0.9,0.4,1.4c0.1,0.5-0.1,1-0.3,1.6	c-0.2,0.6-0.5,1.3-0.9,1.9c-0.3,0.4-0.6,0.9-0.9,1.3c-0.7-0.3-1.4-0.7-2-1.1c-0.8-0.5-1.3-1.1-1.6-1.9	C96.5,86.4,96.5,85.6,96.9,84.7z M97.9,92.6c-0.4,0.2-0.8,0.4-1.2,0.5c-0.5,0.1-0.9,0.1-1.3,0c-0.4-0.1-0.8-0.2-1.1-0.5	c-0.3-0.2-0.4-0.5-0.5-0.9c-0.1-0.6,0-1,0.2-1.5c0-0.1,0.1-0.2,0.1-0.3c0.4,0.4,0.9,0.8,1.5,1.3C96.4,91.8,97.1,92.3,97.9,92.6z" class="st2"/><g id="colombia"><path d="M66.4,117.1c-1,0-1.8-0.3-2.3-0.8c-0.5-0.5-0.8-1.3-0.8-2.4c0-1.2,0.2-2,0.7-2.6c0.5-0.6,1.3-0.8,2.4-0.8 c0.9,0,1.8,0.2,2.6,0.5l0.2,0.1v-1.7l-0.1,0c-0.9-0.3-1.8-0.4-2.8-0.4c-1.6,0-2.8,0.4-3.6,1.3c-0.8,0.9-1.2,2.2-1.2,3.8 c0,1.5,0.4,2.7,1.3,3.6c0.8,0.9,2,1.3,3.6,1.3c1,0,2-0.1,2.8-0.5l0.1,0v-1.7l-0.2,0.1C68.2,116.9,67.3,117.1,66.4,117.1z" class="st3"/><path d="M77,108.8c-1.5,0-2.7,0.4-3.5,1.2c-0.7,0.8-1.1,2.1-1.1,3.8c0,1.7,0.4,2.9,1.1,3.7c0.8,0.8,1.9,1.2,3.5,1.2 c1.5,0,2.7-0.4,3.4-1.2c0.8-0.8,1.1-2,1.1-3.7c0-1.7-0.4-3-1.1-3.8C79.7,109.2,78.5,108.8,77,108.8z M79.1,116.4 c-0.4,0.5-1.1,0.8-2.1,0.8c-0.9,0-1.6-0.3-2-0.8c-0.4-0.5-0.6-1.4-0.6-2.5c0-1.2,0.2-2.1,0.6-2.6c0.4-0.5,1.1-0.8,2.1-0.8 c1,0,1.7,0.3,2,0.8c0.4,0.5,0.6,1.4,0.6,2.6C79.7,115,79.5,115.9,79.1,116.4z" class="st3"/><polygon points="87.7 109 85.8 109 85.8 118.6 92.5 118.6 92.5 117.1 87.7 117.1" class="st3"/><path d="M99.7,108.8c-1.5,0-2.7,0.4-3.5,1.2c-0.7,0.8-1.1,2.1-1.1,3.8c0,1.7,0.4,2.9,1.1,3.7c0.8,0.8,1.9,1.2,3.5,1.2 c1.5,0,2.7-0.4,3.4-1.2c0.8-0.8,1.2-2,1.2-3.7c0-1.7-0.4-3-1.1-3.8C102.4,109.2,101.3,108.8,99.7,108.8z M101.8,116.4 c-0.4,0.5-1.1,0.8-2.1,0.8c-0.9,0-1.6-0.3-2-0.8c-0.4-0.5-0.6-1.4-0.6-2.5c0-1.2,0.2-2.1,0.6-2.6c0.4-0.5,1.1-0.8,2.1-0.8 c1,0,1.7,0.3,2,0.8c0.4,0.5,0.6,1.4,0.6,2.6C102.4,115,102.2,115.9,101.8,116.4z" class="st3"/><polygon points="112.8 114.9 109.9 109 108 109 108 118.6 109.9 118.6 109.9 112.3 112.2 117 113.4 117 115.7 112.3 115.7 118.6 117.5 118.6 117.5 109 115.7 109" class="st3"/><path d="M128.7,113.7c0.3-0.2,0.4-0.4,0.6-0.7c0.2-0.4,0.3-0.8,0.3-1.3c0-0.8-0.3-1.5-0.7-2c-0.5-0.5-1.2-0.7-2.2-0.7 H122v9.7h4.9c1,0,1.7-0.2,2.3-0.7c0.5-0.5,0.8-1.2,0.8-2.1c0-0.6-0.1-1.1-0.4-1.5C129.3,114,129,113.8,128.7,113.7z M123.9,110.4 h2.4c0.6,0,1,0.1,1.2,0.3c0.2,0.2,0.3,0.5,0.3,1c0,0.8-0.4,1.2-1.3,1.2h-2.6V110.4z M127.7,116.9c-0.2,0.2-0.6,0.3-1.1,0.3h-2.7 v-2.8h2.5c0.6,0,1,0.1,1.3,0.3c0.3,0.2,0.4,0.5,0.4,1C128.1,116.3,128,116.6,127.7,116.9z" class="st3"/><rect width="1.9" height="9.7" x="134.2" y="109" class="st3"/><path d="M145.8,109h-2l-3.7,9.7h2l0.9-2.4h3.6l0.9,2.4h1.9L145.8,109z M143.4,114.7l1.4-3.8l1.4,3.8H143.4z" class="st3"/></g><path id="c" d="M89.6,65.7c-2.1,0.8-4.4,1.2-6.9,1.2c-2.8,0-5-0.7-6.3-2.2c-1.4-1.4-2.1-3.6-2.1-6.5	c0-3.1,0.6-5.5,1.9-7.1c1.3-1.5,3.4-2.3,6.4-2.3c2.4,0,4.8,0.4,7,1.3l0.3,0.1v-4.1l-0.1-0.1c-2.3-0.8-4.8-1.2-7.4-1.2	c-3.8,0-6.7,1-8.8,2.8c-0.2,0.2-0.4,0.4-0.6,0.5c0,0.1-0.1,0.1-0.2,0.2c0,0,0,0,0,0c0,0-0.1,0.1-0.1,0.1c-2.1,2.3-3.1,5.6-3.1,9.8	c0,3.9,1.1,7,3.3,9.2c1.1,1.1,2.5,2,4.1,2.5c1.6,0.6,3.4,0.9,5.5,0.9c2.7,0,5.2-0.3,7.5-1.1l0.1-0.1v-4.1L89.6,65.7z M76.1,65.1	c0.4,0.4,0.8,0.7,1.2,1C76.8,65.7,76.4,65.4,76.1,65.1c-1.5-1.6-2.2-3.8-2.2-6.7c0-3.2,0.7-5.7,2-7.2c0,0,0,0,0,0	c-1.3,1.6-1.9,4-1.9,7.2C73.9,61.3,74.6,63.5,76.1,65.1z" class="st4"/><path id="s_1_" d="M109.7,58.9c-1.1-1.2-3.3-2.2-6.2-2.9c-1.7-0.4-2.9-0.8-3.8-1.1c-0.8-0.3-1.4-0.7-1.7-1.1	c-0.3-0.4-0.5-1-0.5-1.7c0-1.2,0.4-2,1.4-2.5c1-0.5,2.4-0.8,4.3-0.8c2.3,0,4.5,0.4,6.5,1.1l0.3,0.1v-4.1l-0.1-0.1	c-0.8-0.3-1.9-0.5-3.2-0.7c-1.3-0.2-2.6-0.3-4-0.3c-3.2,0-5.6,0.6-7.3,1.9c-1.7,1.3-2.5,3-2.5,5.3c0,0,0,0,0,0c0,0,0,0,0,0	c0,0.6,0.1,1.1,0.2,1.6c0.2,1.2,0.7,2.2,1.5,2.9c1.1,1.1,3.1,2,5.8,2.7c1.8,0.5,3.2,0.9,4.1,1.2c0.9,0.3,1.5,0.8,1.9,1.2	c0.4,0.5,0.6,1.1,0.6,1.9c0,1.3-0.4,2.1-1.3,2.6c-0.9,0.4-2.4,0.7-4.5,0.7c-2.5,0-5-0.4-7.3-1.4l-0.3-0.1v4.1l0.1,0.1	c2,0.8,4.6,1.3,7.9,1.3c3.3,0,5.8-0.6,7.5-1.9c1.7-1.3,2.6-3.1,2.6-5.3C111.5,61.7,110.9,60.1,109.7,58.9z" class="st4"/><path id="s" d="M129.9,58.9c-1.2-1.2-3.3-2.2-6.2-2.9c-1.7-0.4-2.9-0.8-3.8-1.1c-0.8-0.3-1.4-0.7-1.7-1.1	c-0.3-0.4-0.5-1-0.5-1.7c0-1.2,0.4-2,1.4-2.5c1-0.5,2.4-0.8,4.3-0.8c2.3,0,4.5,0.4,6.5,1.1l0.3,0.1v-4.1l-0.1-0.1	c-0.8-0.3-1.9-0.5-3.2-0.7c-1.3-0.2-2.6-0.3-4-0.3c-3.2,0-5.6,0.6-7.3,1.9c-1.7,1.3-2.5,3-2.5,5.3c0,1.9,0.6,3.5,1.7,4.6	c1.1,1.1,3.1,2,5.8,2.7c1.8,0.5,3.2,0.9,4.1,1.2c0.9,0.3,1.5,0.8,1.9,1.2c0.4,0.5,0.6,1.1,0.6,1.9c0,1.3-0.4,2.1-1.3,2.6	c-0.9,0.4-2.4,0.7-4.5,0.7c-2.5,0-5-0.4-7.3-1.4l-0.3-0.1v4.1l0.1,0.1c2,0.8,4.6,1.3,7.9,1.3c3.3,0,5.8-0.6,7.5-1.9	c1.7-1.3,2.6-3.1,2.6-5.3C131.7,61.7,131.1,60.1,129.9,58.9z" class="st4"/></svg>