<?xml version="1.0" encoding="utf-8"?>
<!-- Generator: Adobe Illustrator 21.0.2, SVG Export Plug-In . SVG Version: 6.00 Build 0)  -->
<svg version="1.1" id="code-of-conduct-bird" xmlns="http://www.w3.org/2000/svg" xmlns:xlink="http://www.w3.org/1999/xlink"
	 x="0px" y="0px" viewBox="0 0 835 469" style="enable-background:new 0 0 835 469;" xml:space="preserve">
<path d="M330,468.4c9.5-14.7,24-14.6,38-15.7c0.2-0.6,0.5-1.3,0.7-1.9c-10.1-10.3-20.2-20.7-31.4-32.1c16.2-1.9,17.5-15.2,22.9-24.8
	c1.7-3.1-1-4.4-3.6-5.2c-7.3-2.4-14.7-4.5-21.9-7.1c-17.9-6.4-33.5-16.3-46-30.8c-3.2-3.7-6.1-4.1-10.5-2.3
	c-47.4,19.7-94.8,39.2-142.2,58.7c-18.1,7.4-36.3,14.8-54.5,22.1c-2.9,1.2-5.6,2.4-7.9-1.4c-11.7-19-23-38.2-29.7-59.7
	c-7.3-23.6-11.7-47.7-12.9-72.4c-2.2-43.9,6-86,20.8-127.1c1.2-3.5,2.8-3.7,6-3c44.1,9.6,88.2,19,132.3,28.5
	c30.4,6.6,60.8,13.2,91.2,19.9c3.8,0.8,6.7,0.2,9.3-2.8c16.5-18.9,37.3-31.2,61.2-38.3c1.9-0.6,3.7-1.5,7.2-3
	c-3.1-1.3-4.6-1.8-6-2.5c-6.4-3.3-13.3-6-19.1-10.1c-4.2-3-6.1-2.9-9.2,1c-15,18.7-35.3,24.2-57.5,16.3c-7.5-2.7-13.3-7.5-18.3-13.6
	c-4.7-5.8-4.9-6-10.7-0.8c-16.6,14.6-35.4,14.8-54.4,6.7c-6.6-2.8-11.9-9.4-17-15c-2.9-3.2-4.5-3.7-7.7-0.7
	c-17.9,16.7-54.7,15.6-69.5-4.7c-2.2-3.1-4.5-6.1-7.1-9.7c-2.2,1.7-4,3.1-5.7,4.5C56,158.4,21.3,153.2,7,131c-4.5-7-7.1-14.7-7-23.3
	C0.6,73.9,0.9,40,1.2,6.2C1.2,1.4,2.8,0,7.5,0c79.8,0.1,159.6-0.3,239.4,0.5c13.4,0.1,26.8,4.4,40,7.8
	C340,21.9,391.4,39.8,438.4,68.7c34.7,21.4,65.6,47,89,80.9c1.1,1.6,2.7,2.9,5,5.4c3.3-10.1,3.2-19.2,1.6-27.9
	c-1.5-7.9-3.7-15.8-7.3-22.9c-23.7-47.7,12.2-90.7,54.6-97.3c25.1-3.9,47.7,1.5,67.6,17.5c19.2,15.4,41,21.7,65.5,23.3
	c38.7,2.6,74.3,14.2,101.8,43.5c12.3,13.1,18.4,28.9,18.8,48c-8.2-6.6-15.4-12.8-23-18.5c-22.6-17-47-30.7-74.7-37.6
	c-21.3-5.3-42-2.2-61.7,7.3c-4.7,2.3-8.1,5.6-8,12.4c9.4-1.4,18.4-2.9,27.4-4.2c49-7,88.5,9.8,119.2,48.4c-0.8-0.4-1.7-0.8-2.5-1.2
	c-0.8-0.5-1.6-1-2.4-1.6c-22-15.6-46.8-23.1-73.4-26.4c-26.8-3.3-53.3-1.7-79.7,2.7c-2.9,0.5-5.5,2.5-8.2,3.8
	c-8.6,4.5-16.9,10.1-25.9,13.3c-16.7,5.9-22.8,13.4-21.3,31.3c3.3,38.1-4.1,74.6-16.9,110.1c-11.2,31-27.2,59.1-52.7,80.7
	c-7.4,6.2-8.2,11.6-4.7,19.6c2.4,5.4,3.9,11.2,5.7,16.9c1,3.3,3,4.5,6.5,3.9c12.3-1.9,24.6-3.7,37-5.4c6.1-0.8,10.2-4.1,13.2-9.2
	c9.7-16.6,19.5-33.2,29.3-49.7c6-10.2,14.6-12.3,24.1-5.4c4.3,3.1,7.8,7.2,11,12c-3.2-0.8-6.4-1.6-9.6-2.3c-6.9-1.3-10.7,1-10.9,8
	c-0.8,23.4-13.8,40.2-29.1,55.8c-3.2,3.3-7,6.1-11,8.3c-9.4,5.2-15.5,13.2-19.4,22.8c-3.6,8.9-6.4,18.1-9.5,27.1
	c-0.6,1.7-1.1,3.5-1.9,6.1c-19.1-17.8-9.7-34.7,1.3-52.9c-16,2.4-30.3,4.5-45.3,6.8c6.4-17.5-4.6-28.2-12.8-39.6c-0.8-1.1-5-1-6.9,0
	c-13.6,6.6-27.7,11.2-42.6,13.6c-22.6,3.7-45.1,2.8-67.7-0.4c-2.5-0.3-6.1,0.9-7.7,2.7c-4.4,5-8,10.8-12.1,16.1
	c-2.6,3.3-2.4,6.1,0.6,9.1c8.5,8.6,16.9,17.4,25.3,26.1c6.4,6.6,14.3,6.4,22.6,5.5c17.6-1.9,35.1-3.9,52.7-5.1
	c9.6-0.7,13.4,3.2,15.5,12.5c1.1,4.9-0.6,6.5-5.2,6c-15.8-1.8-31.5,0.7-47.3,0.1c-16.1-0.6-32.3-0.1-48.5-0.1c-16,0-31.9,0-47.9,0
	C334.4,468.8,332.8,468.6,330,468.4z M422.8,385.5c35.1-0.6,65.2-8.8,91.4-28.8c23.1-17.6,38.5-41.1,50.7-66.9
	c3.9-8.2,5.1-16.8,3.8-25.8c-3.6-24.8-16.2-43.7-37.1-57c-14.8-9.4-29.4-18.2-48.9-17c-14.2,0.9-29-2.7-43.2-5.9
	c-33.4-7.7-66.2-7.1-97.7,6.9c-50.3,22.3-68.7,59.2-61.6,110c4.4,31.3,23.4,52.8,52,65C361.8,378.5,393.1,384.7,422.8,385.5z
	 M280.3,223.2c-1.5-0.8-2-1.2-2.5-1.3c-33.6-8-67.2-15.9-100.7-23.8c-3.4-0.8-4.7,0.5-4.5,3.8c0.3,5.9,0.7,11.7,1.1,18.1
	c-3.1-0.4-5.4-0.5-7.6-0.9c-23.6-4.1-47.2-8.1-70.8-12.5c-4.9-0.9-5.8,1-5.7,5c0.3,8.8,0.4,17.7,1,26.5c0.3,5.2-2.1,6.8-6.7,6.9
	c-7.5,0.3-15,0.8-22.4,1.2c-3.6,0.2-6.6,1-6.7,5.4c-0.4,15.1-0.9,30.3-1,45.5c0,1.6,1.8,4.4,3,4.6c3.9,0.5,7.9,0.1,11.9,0
	c-0.1-3.1,0.2-6.3-0.4-9.3c-1.1-5.7-2.7-11.2-3.9-16.8c-0.4-2-0.6-4-0.9-5.7c13.9,0,27.1-0.1,40.3,0c13.5,0.2,13.5,0.3,10.1-12.8
	c-2.1-8-3.9-16.2-5.9-24.9c16.8,1.9,32.4,3.7,48,5.3c12.4,1.3,24.8,2.5,37.2,3.9c4.2,0.5,6-1.1,5.7-5.4c-0.3-4.9-0.1-9.8-0.1-15.2
	c3.4,0.7,5.6,1,7.8,1.5c20.4,4.6,40.7,9.3,61.1,13.7c2.2,0.5,5.7-0.3,6.9-1.8C277,231.1,278.3,227.1,280.3,223.2z M210.6,328.9
	c-3.2,0.1-5.4,0.3-7.7,0.3c-16.7,0.3-33.4,0.8-50.1,0.9c-5.1,0-6.6,2.1-5.6,6.6c1.3,6.2,2.7,12.4,4.2,18.5c0.9,3.9,0.4,6.1-4.3,6.5
	c-19.3,1.6-38.6,3.5-57.8,5.4c-7.2,0.7-14.4,1.7-22.6,2.7c3.4,8.2,5.7,14.9,9,21.1c0.9,1.8,4.7,3.5,6.9,3.2c25.2-4,50.4-8,75.4-12.7
	c17.8-3.3,14.8,0.1,15.1-17.5c0-0.4,0-0.8,0-1.2c-0.2-3.6,1.4-5,5.1-5.2c13.4-1,26.8-2.3,40.1-3.5c6.7-0.6,13.5-1.5,20.9-2.4
	c-2.1-6.5-3.9-11.9-5.9-18.2c14.1-1.2,27.3-2.4,41.2-3.6c-0.9-3.2-1.6-5.3-2.1-7.5c-1.3-5.4-4-8.3-10.2-8.9
	c-14.5-1.2-28.9-3.5-43.3-5.1c-4.5-0.5-9-0.6-14.8-1C206.2,315,208.2,321.4,210.6,328.9z M168.6,279.4c9.7,1,18.3,1.8,26.8,2.7
	c21.6,2.4,43.1,4.9,64.7,7.4c3.3,0.4,5.2-0.9,5.5-4.3c0.5-6.5,0.8-13,1.3-19.5c0.4-4.2-1.7-5.9-5.4-6.7c-8.8-1.9-17.6-4-26.4-5.9
	c-12.2-2.7-12.4-2.6-12.8,10.1c-0.1,3.8-1.4,5.3-5.2,4.8c-7.8-1-15.6-1.9-23.4-2.8c-15.7-1.7-31.3-3.5-46.9-5.1
	c-6.7-0.7-7.3,0.2-5.7,7c1.5,6.5,3.1,13.1,4.8,19.6c2,7.6,1.4,8.1-6.4,7.8c-13.2-0.5-26.5-0.6-39.7-1.2c-5.3-0.2-6.4,2-5.1,6.6
	c1.7,6.3,3.1,12.7,4.6,19c1.4,6.1,0.9,6.8-5.2,6.8c-10.6,0.1-21.1,0.1-31.7,0c-4,0-5.5,1.6-5.2,5.6c1.1,13.1,2.5,14.5,15.2,13.7
	c0.4,0,0.8,0,1.2,0c15.3-1.5,30.5-3.1,45.8-4.5c3.5-0.3,4.3-1.9,3.5-5c-0.4-1.5-0.6-3-0.9-4.5c-1.6-7.8-3.2-15.6-4.9-23.8
	c20.5-0.6,39.9-1.2,60.1-1.8c-1.6-5.1-2.9-9.1-4.2-13C171.6,288.4,170.3,284.4,168.6,279.4z M659.4,74.3c-0.1-11.4-3.1-20.1-9.5-29
	c-23.4-32.5-71.1-32.3-96.3-12c-26.6,21.5-28.5,55.5-4.4,77.6c22.6,20.7,58.9,23.9,84.5,7C649.2,107.7,659,93.7,659.4,74.3z
	 M332.8,95.9c0,9,0,18.1,0,27.1c0.1,18.4,9.5,30,27.6,32.3c19.2,2.5,36.2-6.5,38.5-27.7c1.3-12.2,0.6-24.5,0.2-36.8
	c-0.1-2.2-2.6-5.4-4.8-6.4c-18-8.2-36.1-16.1-54.3-23.8c-6-2.6-7.1-1.7-7.2,4.7C332.8,75.5,332.8,85.7,332.8,95.9z M502.1,174.5
	c-3.2-4.8-5.1-9.1-8.2-12.3c-13.6-13.8-27.1-27.8-41.6-40.7c-10-8.8-21.4-16.2-32.7-23.5c-5.3-3.5-7.1-2-7.2,4.3
	c-0.1,6.7-0.3,13.5,0,20.2c0.7,15.6-5.3,28-17.4,37.7c-1.5,1.2-2.6,2.8-5.1,5.4c3.8,0.2,5.8,0.3,7.9,0.4c6.5,0.3,13.1,0,19.5,1
	c17.4,2.7,34.7,6.4,52.2,8.9C479.8,177.4,490.3,177.8,502.1,174.5z M174,134.2c2.6-2,4.4-3.1,5.8-4.5c17.8-18.4,35.6-36.7,53.1-55.3
	c2.9-3.1,5.1-7.2,6.4-11.3c2.1-6.9-0.3-9.7-7.5-9.7c-16.9,0-33.8,0-50.7,0c-7.1,0-8.4,1.3-8.4,8.4c0,20.8,0,41.5,0.1,62.3
	C172.8,127,173.5,130,174,134.2z M46.3,64.5L46.3,64.5c6.2,0,12.3,0,18.5,0c18.1,0.1,14.7-0.1,15.2-15.2c0.2-5.6-2.2-7.5-7.5-7.4
	c-14.8,0.2-29.6,0.1-44.4,0.1c-15.5,0-15.4,0-14.8,15.7c0.2,4.9,2.4,6.9,7.1,6.9C29,64.5,37.6,64.5,46.3,64.5z M253.2,77.1
	c0,11,0,21.9,0,32.9c0,8,0.6,8.6,8.3,8.9c10.1,0.4,10.1,0.4,10.1,10.5c0,9.2,0.1,18.4,0.1,27.7c0,5.4,3.7,6.6,8.1,6.9
	c5.3,0.3,3.9-3.8,3.9-6.5c0.1-15.2-0.1-30.4,0.1-45.5c0.1-5.2-2.1-7.4-7.2-7.3c-3.6,0.1-7.3-0.2-10.9,0c-4.4,0.2-6.3-1.3-6.1-6
	c0.5-12.7,0.6-25.3,0.9-38c0.1-6.3,0.4-12.7-0.1-19c-0.1-1.6-3-3.1-4.6-4.6c-0.9,1.6-2.5,3.2-2.5,4.9
	C253.1,53.6,253.2,65.4,253.2,77.1z M276.3,65.7c0,5.4,0,10.8,0,16.1c0,7.7,0.5,8.1,8.2,8.2c11.3,0.1,11.3,0.1,11.7,11.1
	c0.1,3.2,0.3,6.8,4.5,6.7c6-0.2,12.6,2.7,18-2.3c0.5-0.4,0.6-1.4,0.6-2.2c0-7.3-0.1-14.5-0.1-21.8c0-4.1-2.4-5.1-6-5.1
	c-5.2,0.1-10.4,0-15.6,0c-9.2,0-9.2,0-9.2-9.1c0-5.9,0-11.9-0.2-17.9c-0.2-5.2-4-7-8.3-7c-4.7,0-3.5,4.2-3.5,7
	C276.2,55,276.3,60.3,276.3,65.7z M125.9,88.8c6.9,0,13.8,0,20.7,0c12.9,0,12.9,0,12.9-13.1c0-7.9-0.5-8.2-8.6-8
	c-15,0.3-29.9,0.5-44.9,0.6C92.6,68.4,92.7,68.4,93,81.9c0.1,4.8,2,7.1,6.9,7C108.6,88.7,117.3,88.8,125.9,88.8z M580.6,234.8
	c0.6-0.2,1.2-0.3,1.8-0.5c0.5-2,1.3-4,1.6-6c1.3-11.2,2.1-22.5,3.9-33.7c1.1-7-1.9-11.3-6.7-15.2c-7.6-6.4-16.5-9-26.1-11
	c-13.7-2.9-20.7,5.7-29.3,14.3c2.4,1.4,4,2.6,5.8,3.5c8.5,4.4,9.2,4,13.1-4.5c1.2-2.5,3.7-5.5,6.1-6c12.3-2.1,22.4,10.1,18.8,21.9
	c-1.4,4.4-3.2,10-1.7,13.9C571,219.7,576.2,227.1,580.6,234.8z M159.5,111.5c0-6.9-0.7-8.1-5.2-8.3c-5.9-0.2-11.9-0.3-17.9,0.1
	c-2.3,0.2-5.1,1.3-6.5,3c-8.6,9.8-17,19.9-25.3,30c-1,1.2-1.6,3.9-0.9,5.1c3.6,6.8,14.8,8.2,20.1,2.8c7-7.2,13.8-14.5,20.9-21.4
	c1.9-1.8,4.9-3.6,7.4-3.6C158.2,119,160.2,116.4,159.5,111.5z M753.7,81.7c-0.1,0.8-0.3,1.6-0.4,2.3c2.8,1.2,5.6,2.7,8.5,3.4
	c22.1,5.6,41.3,16.2,58.2,31.4c1.2,1.1,2.9,1.6,5,2.7c-3.1-20.4-48.4-60.1-64.4-56.8c4.2,3,8.2,5.6,11.8,8.6c1.8,1.5,3,3.6,4.5,5.5
	c-2.1,0.9-4.2,2.5-6.4,2.7C765,82,759.3,81.7,753.7,81.7z M67,91.9c3.1,0,6.3,0.6,9.1-0.2c1.7-0.5,3.4-3.4,3.6-5.3
	c0.1-1.6-2.1-4.9-3.2-4.8c-12.1,0.1-24.8-3.7-35.2,6.9c-7.4,7.5-16.1,13.6-24.1,20.5c-3.5,3.1-3.5,8.8,0.1,12.2
	c3.6,3.5,5.5-0.5,7.5-2.2c7.7-6.4,15.4-12.7,22.7-19.5C53,94.1,59,90.7,67,91.9z M31.3,133.6c5.7,4.6,9.1,4.6,14.5-0.4
	c2.2-2.1,4.6-4.1,6.6-6.4c6.1-6.9,12.2-13,22.8-11.7c4.6,0.6,4.6-4.1,4.7-7.6c0.1-3.7-1.7-5.1-5.2-5.4c-8.2-0.7-15.4,0.3-21.2,7.3
	C46.7,117.7,38.9,125.4,31.3,133.6z M548.5,128.5c0,5.5,0.4,9.5-0.1,13.4c-0.6,5.3,1,7.6,6.6,6.9c8.4-1,15.8,1.9,22.7,6.6
	c2.5,1.7,5.1,3.1,8.4,5.2c1.2-3.6,2.1-6.5,2.9-9.4c2.6-9,2.5-8.4-6.4-10.4c-8.5-1.9-16.8-5-25.1-7.8
	C555,132.2,552.5,130.6,548.5,128.5z M221.3,123.7c-4,0-8.1-0.4-12.1,0.1c-2.7,0.3-5.7,1.3-7.6,3.1c-6,5.6-11.6,11.7-17.4,17.6
	c-1.8,1.9-3.8,4.3-0.6,6.1c1.5,0.8,4.8,0.3,6.2-0.9c4.1-3.4,7.9-7.3,11.4-11.3c3.1-3.5,6.5-4.9,11.1-4.5c6.9,0.6,13.8,0.8,20.6,1.2
	c4.8,0.3,6.3-2,6.4-6.6c0.1-4.7-2.6-4.8-6-4.7C229.3,123.7,225.3,123.7,221.3,123.7z M701.7,59.8c2.2,2,3.1,3.4,4.3,3.7
	c13.2,3.8,26.4,7.4,39.7,10.9c1.3,0.3,3.1-0.3,4.5-0.7c3.4-1.1,5-3.8,2.5-6.5c-2.6-2.8-6-6.1-9.4-6.7c-9.8-1.6-19.7-2-29.6-2.4
	C710.2,57.9,706.7,59,701.7,59.8z M307.2,123.8c0-0.1,0-0.2,0-0.3c-1.9,0-3.9,0.2-5.7,0c-3.5-0.4-5.2,1.3-5.2,4.5
	c-0.1,9.8-0.1,19.6,0.2,29.3c0.1,1.6,1.3,4.2,2.5,4.5c1.4,0.4,3.9-0.6,5-1.9c1.4-1.8,2.5-4.3,2.8-6.6c0.5-3.4,0.4-6.9,0.1-10.3
	c-0.4-5.5,0.7-9,7.3-8.2c3.5,0.4,5.2-1.9,5.1-5.4c-0.1-3.3-1.5-5.5-5.2-5.5C311.8,123.8,309.5,123.8,307.2,123.8z M220,107.6
	c0.3,0.7,0.7,1.3,1,2c5.8-0.9,12.9,3,17-2.2c3.5-4.5,2.5-11.4,0.5-19.2C231.5,95.6,225.8,101.6,220,107.6z M93.4,123.9
	c1,0.2,2,0.4,3,0.7c4.2-6.5,8.4-13,13.6-21.1c-5.8,0-9.7-0.2-13.6,0.1c-1.1,0.1-2.8,1.9-2.9,3C93.2,112.3,93.4,118.1,93.4,123.9z
	 M13.2,93.9c0.7,0.2,1.3,0.4,2,0.6c4-3.9,7.9-7.9,11.9-11.8c-0.2-0.6-0.4-1.3-0.6-1.9c-3.9,0.7-8.9,0.1-11.4,2.3
	C12.9,85,13.7,90.2,13.2,93.9z"/>
<path d="M655.6,313.6c-3.9,2.9-7.4,5.6-10.9,8.2c-5-1-10.6-2.1-15.9-3.2C634.8,306.8,649,304,655.6,313.6z"/>
<path d="M506.5,467.1c-3.8-1.1-7.2-1.9-10.5-3.1c-1.4-0.5-2.9-1.7-3.6-3c-1.1-2.2-1.4-4.8-2.5-7c-1-2-2.5-3.8-3.9-5.8
	C505.7,450.1,509.8,457.4,506.5,467.1z"/>
<path d="M430.1,288.6c1.6,39.8-34.7,70.2-69.3,69.8c-39-0.5-71.2-31.5-70.7-70.2c0.5-43.8,36.7-70.2,70.5-70.4
	C395.7,217.6,432.1,248.3,430.1,288.6z M362.5,288.7c-11.1,13.1-21.9,26.1-32.9,38.9c-3.3,3.8-3.6,7.1,1.3,9
	c8.4,3.2,16.8,6.1,25.5,8.3c6.7,1.7,11.9-1.1,15.2-7.4c1.5-2.9,4.1-5.2,5.4-8.1c5-11.3,13.5-15.2,25.3-13.1c6.1,1.1,9.1-2.1,11-7.5
	c7.9-21.7,4.2-41.5-10.9-58.5c-15.1-17-34.6-21.6-56.6-16.8c-4.5,1-6.4,3.6-6.1,8.2c0.6,10.2,0.7,20.3,1.3,30.5
	c0.3,4.8-1.2,8.4-4.7,11.7c-8.2,7.8-16,16.1-24.1,24c-3.9,3.9-2.5,7.4,0.5,10.5c3.3,3.4,5.5,0,7.5-2.1c9.5-9.5,18.9-19.1,28.4-28.7
	C354.8,281.4,355.3,281.4,362.5,288.7z"/>
<path d="M492.6,347.9c-32.4,0-58.5-25.9-58.4-58.1c0.1-31.9,26.4-57.9,58.7-57.9c32.4,0,58.1,25.7,58.1,58.2
	C551,322.5,525.3,347.9,492.6,347.9z M526.9,265c-2.3-7.8-4.8-9.5-12.2-9.7c-2.8-0.1-6.2,1.1-7-3.8c-0.3-1.7-3-3.1-4.6-4.6
	c-0.9,1.9-2.4,3.8-2.5,5.7c-0.3,8.3,0.3,16.5-0.2,24.8c-0.5,8.6,0.8,16.1,9,20.8c0.7,0.4,1.1,1.4,1.7,2.1c-0.1,0.5-0.2,1.1-0.3,1.6
	c-2.7-0.2-5.4-0.5-8.3-0.7c-4.3,5.5-15.3,5.5-20-0.4c-0.5,0.1-1.1,0.2-1.6,0.2c-1.9-0.1-3.8-0.3-5.7-0.4c1.1-1.6,2.1-3.2,3.3-4.8
	c2-2.7,5.6-5.3,5.8-8.1c0.7-12.3,0.4-24.6,0.2-36.9c0-1.3-2-3.6-3.2-3.7c-1.4-0.1-4.1,1.6-4.3,2.8c-0.7,5.3-4,5.4-8.2,5.5
	c-6.5,0.2-10.5,4.1-11,10.4c1.6,0.2,3.3,0.5,4.9,0.5c14,0.4,14,0.4,14.4,14.2c0.3,12.3-1.5,15.1-13.1,19.7c-2.7,1-5.7,1.3-8.2,2.5
	c-1.6,0.8-2.8,2.6-4.1,4c1.9,0.8,3.8,2.3,5.6,2.2c2.7-0.1,5.4-1.4,8.9-2.4c-2.7,4.7-4.8,8.4-6.9,12.1c0.5,0.4,1,0.9,1.5,1.3
	c7-3.2,13.7-7.6,21.1-9.4c7.5-1.8,15.8-2.3,23.4-0.9c7.1,1.3,13.7,5.8,20.5,8.9c0.3-0.4,0.6-0.8,0.9-1.1c-2-4-3.9-8.1-6.2-12.6
	c3.8,0.8,6.9,1.7,10.1,2c1.2,0.1,2.6-1.5,3.8-2.3c-1-1-1.8-2.4-3-2.9c-2.1-0.8-4.5-0.8-6.7-1.4c-12.5-3.5-16.5-8.7-16.5-21.5
	c0-2.7,0.2-5.4,0-8.1c-0.3-4.3,1.5-5.9,5.7-5.7C517.9,265.2,522.2,265,526.9,265z M522.6,329.8c0.3-0.5,0.5-1,0.8-1.6
	c-10.1-14.4-25.3-13.7-40.4-12.8c-5.7,0.4-20.3,12-21.3,17.5c4.6-2.8,8.5-5.2,12.8-7.9c0.5,3.7,0.3,7.1,1.4,10
	c0.9,2.4,3.1,5.7,5.1,5.9c7.9,0.8,15.9,0.9,23.9,0.7c4.8-0.2,6.8-3.7,6.8-8.4c0-2.7,0-5.5,0-8.6
	C515.9,326.6,519.2,328.2,522.6,329.8z M525.6,274.9c-5.4-0.3-9.6,2.4-12.5,7.1c-0.9,1.4-0.9,4.2-0.1,5.6c3.2,5.9,12.3,10,18.7,8.6
	c1.8-0.4,4.2-1.6,5-3.2C541.1,284.8,535.1,274.9,525.6,274.9z M448,288.2c0.2,2.3,0,4.7,0.7,6.8c1.2,3.2,8.6,3.9,14.4,1.6
	c5.8-2.2,10.8-8,9.9-11.3c-1.5-5.3-8.7-9.8-14.6-9C449.8,277.4,448.2,279.3,448,288.2z"/>
<path d="M436.8,248.1c-6.6-8.4-11.7-17.2-18.9-23.7c-10.1-9.1-23.2-13.5-36.4-16.4c-8.4-1.8-16.9-3.1-26.2-4.7
	c23-11.6,45.7-18.1,70.7-12.5c14.2,3.2,28.7,5.5,43,8.1c3.6,0.6,7.4,1.3,10.9,0.7c18.1-3,32.4,5.8,46.7,14.4
	c4.4,2.7,8.2,6.6,11.9,10.6C498.9,210.6,463.7,214.2,436.8,248.1z M462.5,210.3c-0.2-0.7-0.4-1.4-0.6-2.1c-17-5.7-34.3-9.2-53.9-7.9
	c2,2.2,2.7,3.2,3.7,3.9c8.3,6.4,16.6,12.8,25,19.1c1.1,0.8,3.2,1.8,4,1.3C447.9,220,455.2,215.1,462.5,210.3z"/>
<path d="M358.5,367.9c10.5-1.4,21.9-2.3,33-4.6c6.6-1.4,13.1-4.4,19.2-7.6c9.5-5.1,15.9-13.2,18.2-24c0.8-3.5,1.9-7,3.2-11.8
	c15.7,29.3,37.7,44.3,72.3,35C477.7,375.1,421.9,392.1,358.5,367.9z M458.4,366.6c0.1-0.5,0.2-1,0.3-1.5c-1.6-0.9-3.2-1.6-4.8-2.6
	c-5.2-3.2-10.6-6.1-15.4-9.9c-3.2-2.4-5.2-2.4-8.5-0.2c-8,5.2-16.3,9.8-24.5,14.7c-1.3,0.8-2.5,1.7-3.8,2.6
	C421.4,374.7,440,371.9,458.4,366.6z"/>
<path d="M639.7,68.9c0,24.3-11.5,41.6-32.8,46.8c-24.1,5.9-51.5-6.9-54.9-37.9c-2-18.4,2.7-34.7,19.1-45.9
	c16.5-11.2,42.2-9.4,56.9,3.9C637.7,44.8,640,56.4,639.7,68.9z M577.5,69.1c0,4.4,0.1,8.8,0,13.2c-0.2,4.2,1.9,6,5.8,6.1
	c9,0.1,18,0.1,27,0c3.6,0,5.8-1.7,5.8-5.6c0-9.2,0-18.4-0.1-27.6c0-3.7-1.8-5.5-5.8-5.5c-9,0.2-18,0.1-27,0.1c-4.2,0-5.9,2-5.8,6
	C577.6,60.3,577.5,64.7,577.5,69.1z"/>
<path d="M344.4,126.8c0-18,0-35,0-52.8c14.7,6.2,28.8,12.1,43.8,18.4C373.2,104.1,359.1,115.2,344.4,126.8z"/>
<path d="M348.9,135c13.7-9.5,26.5-18.3,39.3-27.2c0.6,0.3,1.2,0.7,1.9,1c-2.8,9.2-4.8,18.8-8.5,27.6c-4.7,11-12.3,12.7-22.2,6.2
	C356,140.5,352.9,138,348.9,135z"/>
<path d="M418.6,154.9c1.8-7.5,4-14,4.9-20.8c0.8-6.5,0.2-13.3,0.2-19.9c13.4,2.7,41.3,28.4,53.1,49.8
	C456.2,164.4,437.2,158.8,418.6,154.9z"/>
<path d="M219,70.5c-12.5,11.8-24.9,23.6-38.7,36.6c0-10.1,0-18.6,0-27.2c0-10.9,0-10.9,10.9-10.9c9,0,18,0,27,0
	C218.5,69.5,218.8,70,219,70.5z"/>
<path d="M343.2,327.1c9-10.7,17.5-21.1,26.3-31.1c1.4-1.6,4.3-2.6,6.6-2.7c7.1-0.3,14.2,0,21.3-0.2c3.8-0.1,5.3,0.9,4,5.1
	c-2.8,9.1-5.3,11.1-14.8,9.7c-5.5-0.8-9.3,0.6-11.9,5.6c-1.3,2.5-3.1,4.9-4.7,7.3C362.3,332.5,357.2,333.8,343.2,327.1z"/>
<path d="M398.9,272.6c-10.9,0-21.2,0.2-31.5-0.2c-1.6-0.1-4.3-2.7-4.6-4.4c-0.9-5.8-0.9-11.8-1.4-17.7c-0.3-3.6,1.3-4.9,4.7-4.4
	C378.8,247.4,394.1,257.3,398.9,272.6z"/>
<path d="M494.5,327.8c0.6-0.5,1.3-0.7,1.5-1.2c1.5-3.2,4-6.5,7.3-4.2c2.5,1.7,4.2,5.8,4.5,9.1c0.5,3.7-2.8,5.6-6.5,5.8
	c-5.2,0.3-10.3,1-15.5,0.9c-4.7-0.2-7.2-4.2-6.5-9c0.8-5.1,4.3-8.4,8.6-6.9C490.3,323.1,492.1,325.7,494.5,327.8z"/>
<path d="M533.2,285.2c-2.6,2.2-4.1,4.4-5.4,4.3c-1.3,0-3.5-2.3-3.6-3.7c0-1.4,1.9-3.7,3.3-4C528.7,281.5,530.5,283.5,533.2,285.2z"
	/>
<path d="M463.7,286.7c-2.5,2-4,4.1-5.5,4c-1.5-0.1-2.9-2.2-4.4-3.4c1.3-1.5,2.4-3.9,4.1-4.3C459.1,282.7,461,284.9,463.7,286.7z"/>
<path d="M590.7,58.4c0.3-0.3,0.5-0.6,0.6-0.5c4.6,0.5,9.2,1,13.8,1.5c0.3,6.5,0.7,12.9,0.9,19.3c0,0.7-1,2-1.6,2
	c-5.1,0.1-10.3,0.2-15.4-0.2c-0.6-0.1-1.6-2.9-1.4-4.3c0.2-1.3,1.6-2.8,2.8-3.4c1.3-0.6,3.2,0.2,4.5-0.4c2-0.9,5.3-2.4,5.3-3.7
	c0.1-2.4-1.3-5.3-3-7.1C595.8,60,593,59.5,590.7,58.4z"/>
</svg>
