<svg width="835" height="469" viewBox="0 0 835 469" fill="none" xmlns="http://www.w3.org/2000/svg">
<mask id="mask0" mask-type="alpha" maskUnits="userSpaceOnUse" x="0" y="0" width="835" height="469">
<g clip-path="url(#clip0)">
<path fill-rule="evenodd" clip-rule="evenodd" d="M329.953 468.425C339.41 453.698 353.944 453.821 367.938 452.687C368.182 452.058 368.427 451.43 368.653 450.785C358.533 440.438 348.431 430.091 337.263 418.663C353.508 416.744 354.764 403.483 360.173 393.835C361.918 390.729 359.144 389.473 356.614 388.653C349.32 386.297 341.922 384.151 334.716 381.551C316.866 375.113 301.18 365.29 288.757 350.756C285.581 347.057 282.632 346.673 278.218 348.505C230.862 368.186 183.437 387.693 136.012 407.2C117.883 414.65 99.6842 421.961 81.5377 429.341C78.6063 430.528 75.9716 431.766 73.6335 427.98C61.8906 408.979 50.6014 389.787 43.9361 368.273C36.6251 344.666 32.263 320.571 31.0416 295.865C28.878 252.001 37.009 209.881 51.8228 168.791C53.0616 165.337 54.632 165.075 57.8251 165.773C101.9 175.352 146.01 184.774 190.102 194.3C220.498 200.861 250.893 207.491 281.271 214.191C285.057 215.028 287.954 214.383 290.554 211.417C307.095 192.486 327.841 180.237 351.798 173.136C353.717 172.56 355.515 171.635 359.022 170.17C355.933 168.896 354.45 168.373 353.054 167.675C346.616 164.395 339.759 161.708 333.948 157.538C329.743 154.519 327.859 154.676 324.735 158.567C309.747 177.271 289.454 182.802 267.225 174.846C259.687 172.141 253.912 167.361 248.974 161.271C244.245 155.444 244.106 155.304 238.243 160.434C221.597 175.003 202.822 175.265 183.856 167.116C177.225 164.272 171.991 157.695 166.826 152.146C163.877 148.971 162.29 148.482 159.079 151.483C141.177 168.216 104.36 167.099 89.5465 146.807C87.3131 143.736 85.0623 140.665 82.4624 137.141C80.2639 138.886 78.5016 140.264 76.7393 141.677C56.0104 158.445 21.2704 153.228 6.98004 131.034C2.44342 124.003 -0.138967 116.378 0.000621053 107.689C0.61132 73.8573 0.942842 40.0258 1.15222 6.19431C1.18712 1.36124 2.77494 0.000300197 7.50349 0.000300197C87.3131 0.122436 167.123 -0.278866 246.932 0.453946C260.298 0.576081 273.768 4.88572 286.924 8.27061C340.003 21.88 391.424 39.8339 438.36 68.7451C473.048 90.1013 503.967 115.75 527.348 149.616C528.465 151.221 530 152.53 532.321 155.042C535.619 144.905 535.496 135.885 533.874 127.178C532.391 119.327 530.14 111.335 526.598 104.234C502.868 56.549 538.794 13.5224 581.229 6.94457C606.32 3.07113 628.968 8.47999 648.86 24.4099C668.053 39.7816 689.899 46.1151 714.379 47.7378C753.045 50.3201 788.71 61.9404 816.209 91.2704C828.475 104.356 834.634 120.147 835.001 139.235C826.817 132.604 819.594 126.428 812.003 120.705C789.39 103.658 764.962 89.9967 737.306 83.1222C716.002 77.8355 695.343 80.8888 675.626 90.4678C670.915 92.7709 667.495 96.0685 667.599 102.821C676.987 101.373 685.99 99.8722 695.011 98.581C744.041 91.5495 783.527 108.334 814.237 147.016C813.399 146.615 812.527 146.249 811.724 145.778C810.904 145.307 810.119 144.731 809.334 144.172C787.314 128.522 762.485 121.037 735.91 117.774C709.144 114.494 682.657 116.081 656.223 120.426C653.361 120.897 650.727 122.886 648.039 124.264C639.402 128.748 631.167 134.349 622.094 137.56C605.378 143.475 599.288 150.995 600.841 168.861C604.156 206.985 596.723 243.451 583.916 278.992C572.749 309.963 556.679 338.141 531.222 359.689C523.858 365.935 522.986 371.275 526.563 379.248C528.988 384.657 530.454 390.485 532.251 396.155C533.298 399.47 535.287 400.622 538.794 400.081C551.095 398.162 563.432 396.365 575.768 394.707C581.822 393.887 585.958 390.624 588.959 385.529C598.695 368.954 608.431 352.378 618.22 335.838C624.24 325.648 632.807 323.572 642.369 330.429C646.644 333.5 650.203 337.6 653.379 342.416C650.186 341.648 646.993 340.793 643.765 340.147C636.907 338.804 633.069 341.125 632.842 348.156C632.074 371.519 619.023 388.321 603.79 403.972C600.614 407.235 596.776 410.079 592.797 412.295C583.375 417.512 577.251 425.45 573.395 435.116C569.835 444.015 566.991 453.192 563.85 462.248C563.24 463.993 562.734 465.772 561.931 468.302C542.877 450.54 552.212 433.599 563.24 415.435C547.204 417.843 532.966 419.972 517.978 422.222C524.417 404.705 513.354 394.044 505.136 382.598C504.316 381.464 500.146 381.621 498.226 382.563C484.669 389.194 470.518 393.782 455.617 396.208C433.021 399.872 410.512 399.017 387.952 395.789C385.491 395.44 381.827 396.696 380.204 398.511C375.755 403.501 372.178 409.276 368.06 414.598C365.478 417.93 365.635 420.67 368.619 423.706C377.133 432.325 385.491 441.101 393.919 449.79C400.288 456.368 408.227 456.159 416.48 455.286C434.033 453.419 451.586 451.43 469.192 450.209C478.841 449.528 482.627 453.454 484.686 462.736C485.768 467.604 484.076 469.245 479.487 468.704C463.713 466.872 447.975 469.384 432.184 468.843C416.044 468.285 399.886 468.721 383.729 468.721C367.764 468.721 351.798 468.739 335.833 468.704C334.35 468.773 332.849 468.599 329.953 468.425ZM422.796 385.529C457.903 384.936 487.949 376.771 514.227 356.688C537.311 339.048 552.718 315.633 564.967 289.81C568.858 281.627 570.062 272.99 568.771 263.97C565.211 239.194 552.596 220.245 531.623 206.967C516.774 197.563 502.222 188.734 482.767 189.991C468.546 190.898 453.75 187.304 439.582 184.041C406.168 176.329 373.399 176.94 341.887 190.915C291.618 213.196 273.175 250.099 280.242 300.907C284.604 332.174 303.658 353.687 332.238 365.883C361.849 378.533 393.081 384.744 422.796 385.529ZM280.277 223.212C278.741 222.391 278.27 222.025 277.747 221.885C244.158 213.929 210.57 206.025 176.999 198.052C173.596 197.249 172.305 198.54 172.497 201.82C172.846 207.683 173.195 213.528 173.579 219.896C170.49 219.53 168.222 219.356 165.989 218.954C142.381 214.854 118.773 210.858 95.2173 206.479C90.2968 205.572 89.407 207.526 89.5465 211.487C89.8432 220.315 89.9304 229.161 90.5237 237.972C90.8726 243.189 88.4647 244.725 83.8409 244.882C76.3554 245.144 68.8875 245.702 61.402 246.068C57.8251 246.243 54.8065 247.028 54.6844 251.425C54.283 266.57 53.8119 281.732 53.6723 296.894C53.6549 298.499 55.4521 301.326 56.6909 301.5C60.582 302.024 64.6126 301.553 68.5909 301.465C68.4862 298.377 68.7653 295.202 68.1895 292.183C67.1252 286.53 65.5199 280.999 64.2462 275.381C63.8099 273.427 63.6529 271.42 63.3912 269.693C77.2977 269.693 90.5062 269.571 103.732 269.728C117.272 269.902 117.22 269.989 113.783 256.886C111.671 248.842 109.926 240.712 107.885 232.023C124.705 233.907 140.287 235.687 155.868 237.362C168.257 238.705 180.663 239.892 193.034 241.253C197.274 241.724 199.019 240.153 198.774 235.809C198.513 230.941 198.722 226.038 198.722 220.647C202.09 221.31 204.323 221.676 206.539 222.165C226.919 226.771 247.264 231.499 267.679 235.861C269.842 236.332 273.384 235.6 274.623 234.082C277.049 231.098 278.34 227.137 280.277 223.212ZM210.587 328.928C207.429 329.068 205.161 329.225 202.91 329.26C186.211 329.609 169.496 330.097 152.78 330.167C147.703 330.202 146.202 332.261 147.162 336.78C148.47 342.974 149.831 349.168 151.332 355.327C152.274 359.218 151.733 361.399 146.987 361.8C127.689 363.44 108.408 365.342 89.1452 367.244C81.9215 367.959 74.7153 368.919 66.5145 369.896C69.882 378.062 72.2027 384.797 75.4656 391.043C76.4078 392.858 80.1941 394.55 82.3403 394.201C107.519 390.24 132.697 386.192 157.753 381.499C175.516 378.166 172.567 381.569 172.898 364.016C172.898 363.632 172.933 363.248 172.916 362.865C172.671 359.235 174.294 357.892 177.976 357.63C191.359 356.653 204.742 355.379 218.107 354.106C224.843 353.46 231.56 352.605 239.046 351.75C236.917 345.225 235.172 339.851 233.113 333.535C247.194 332.296 260.438 331.144 274.292 329.923C273.402 326.765 272.704 324.601 272.163 322.403C270.837 317.046 268.185 314.08 261.99 313.539C247.508 312.301 233.096 310.085 218.648 308.392C214.181 307.869 209.662 307.747 203.835 307.345C206.19 314.953 208.214 321.408 210.587 328.928ZM168.623 279.359C178.342 280.336 186.892 281.121 195.424 282.081C216.991 284.489 238.54 286.966 260.106 289.444C263.421 289.828 265.323 288.502 265.567 285.134C266.039 278.626 266.318 272.101 266.911 265.592C267.277 261.422 265.184 259.73 261.484 258.927C252.656 257.026 243.879 254.932 235.05 253.013C222.801 250.343 222.661 250.378 222.26 263.115C222.138 266.884 220.864 268.384 217.095 267.913C209.296 266.936 201.479 266.029 193.645 265.156C177.993 263.429 162.359 261.632 146.708 260.061C139.99 259.381 139.432 260.236 141.037 267.076C142.573 273.619 144.108 280.144 145.801 286.652C147.772 294.242 147.214 294.783 139.362 294.486C126.119 293.963 112.858 293.841 99.6144 293.3C94.3449 293.09 93.2631 295.254 94.5019 299.93C96.1944 306.229 97.6252 312.615 99.1083 318.966C100.539 325.055 100.033 325.718 93.9087 325.753C83.3349 325.805 72.7611 325.84 62.1698 325.77C58.1915 325.735 56.6735 327.393 57.005 331.389C58.0868 344.527 59.4827 345.853 72.2201 345.138C72.604 345.12 72.9879 345.138 73.3717 345.103C88.6392 343.567 103.907 341.979 119.192 340.566C122.664 340.252 123.449 338.647 122.681 335.611C122.315 334.128 122.088 332.592 121.774 331.092C120.186 323.31 118.581 315.528 116.888 307.276C137.373 306.665 156.793 306.072 177.016 305.461C175.393 300.384 174.12 296.406 172.828 292.427C171.572 288.414 170.264 284.436 168.623 279.359ZM659.364 74.2935C659.259 62.8826 656.275 54.211 649.837 45.2602C626.473 12.7373 578.734 12.9641 553.556 33.2909C526.964 54.7693 525.08 88.8277 549.124 110.899C571.702 131.627 607.978 134.785 633.592 117.913C649.209 107.654 659.05 93.6956 659.364 74.2935ZM332.832 95.8592C332.832 104.88 332.814 113.918 332.832 122.938C332.884 141.294 342.289 152.896 360.453 155.269C379.646 157.764 396.658 148.761 398.909 127.562C400.2 115.401 399.502 103.013 399.101 90.7295C399.031 88.5136 396.484 85.373 394.303 84.3784C376.331 76.1954 358.202 68.3263 340.038 60.562C334.018 57.9972 332.901 58.8696 332.849 65.3079C332.762 75.4974 332.832 85.687 332.832 95.8592ZM502.135 174.497C498.977 169.664 497.075 165.354 493.969 162.214C480.342 148.412 466.871 134.384 452.354 121.56C442.339 112.714 430.91 105.386 419.69 98.0401C414.386 94.5506 412.589 96.0162 412.519 102.315C412.449 109.05 412.257 115.785 412.554 122.502C413.234 138.101 407.285 150.523 395.193 160.207C393.71 161.394 392.558 162.981 390.115 165.616C393.919 165.79 395.943 165.895 397.967 165.982C404.475 166.279 411.088 165.982 417.492 166.977C434.923 169.699 452.197 173.398 469.646 175.893C479.818 177.358 490.252 177.777 502.135 174.497ZM173.98 134.175C176.615 132.151 178.395 131.104 179.773 129.673C197.553 111.318 215.385 92.9977 232.921 74.4157C235.818 71.3448 238.051 67.1748 239.307 63.1094C241.454 56.2 238.976 53.3735 231.822 53.3735C214.914 53.3386 197.989 53.3386 181.082 53.3735C173.98 53.3909 172.689 54.6995 172.689 61.8008C172.689 82.5638 172.689 103.327 172.811 124.072C172.794 127.004 173.457 129.952 173.98 134.175ZM46.2742 64.4878V64.5053C52.4335 64.5053 58.5754 64.4704 64.7347 64.5053C82.8812 64.6448 79.4438 64.418 79.9847 49.2558C80.1941 43.6201 77.8037 41.7881 72.4819 41.8579C57.6855 42.0323 42.8717 41.9102 28.0753 41.9102C12.5461 41.9102 12.6683 41.9102 13.2441 57.6133C13.4186 62.5511 15.6171 64.5402 20.3282 64.5053C28.9827 64.4529 37.6371 64.4878 46.2742 64.4878ZM253.162 77.0852C253.162 88.0425 253.144 98.9823 253.162 109.94C253.179 117.913 253.755 118.524 261.502 118.856C271.605 119.292 271.587 119.292 271.605 129.394C271.622 138.607 271.657 147.837 271.709 157.049C271.744 162.44 275.408 163.679 279.805 163.923C285.11 164.238 283.696 160.12 283.731 157.45C283.871 142.271 283.679 127.091 283.854 111.929C283.923 106.729 281.707 104.531 276.7 104.601C273.053 104.653 269.389 104.409 265.759 104.601C261.397 104.827 259.495 103.257 259.67 98.6334C260.141 85.9662 260.298 73.299 260.525 60.6318C260.63 54.2982 260.926 47.9297 260.403 41.6485C260.263 40.0084 257.402 38.5951 255.796 37.0597C254.924 38.6823 253.319 40.2875 253.284 41.9276C253.074 53.6352 253.179 65.3602 253.162 77.0852ZM276.333 65.7266C276.333 71.1006 276.316 76.492 276.333 81.8659C276.368 89.6128 276.787 90.0141 284.517 90.0665C295.771 90.1362 295.788 90.1362 296.172 101.163C296.277 104.391 296.486 108.003 300.622 107.863C306.659 107.671 313.219 110.603 318.628 105.595C319.1 105.159 319.222 104.147 319.222 103.414C319.222 96.1383 319.117 88.88 319.117 81.6217C319.117 77.504 316.727 76.4745 313.132 76.5443C307.95 76.649 302.75 76.5618 297.568 76.5618C288.373 76.5618 288.39 76.5618 288.355 67.4888C288.338 61.5391 288.373 55.5719 288.163 49.6222C287.971 44.4576 284.15 42.5907 279.91 42.5732C275.234 42.5558 276.455 46.7607 276.368 49.5698C276.211 54.9612 276.333 60.3352 276.333 65.7266ZM125.892 88.8451C132.801 88.8451 139.729 88.8451 146.638 88.8451C159.533 88.8276 159.533 88.8277 159.498 75.7243C159.48 67.8727 159.044 67.5237 150.896 67.6808C135.925 67.9425 120.954 68.2042 105.983 68.3263C92.6175 68.431 92.6524 68.431 93.0363 81.8659C93.1758 86.6467 95.0603 88.9323 99.9633 88.8625C108.6 88.7404 117.255 88.8276 125.892 88.8451ZM580.601 234.832C581.194 234.675 581.77 234.518 582.363 234.361C582.887 232.372 583.672 230.4 583.916 228.359C585.242 217.14 586.01 205.833 587.825 194.702C588.959 187.688 585.905 183.448 581.089 179.452C573.464 173.101 564.566 170.449 554.952 168.425C541.237 165.529 534.205 174.113 525.673 182.68C528.028 184.128 529.721 185.28 531.518 186.222C540.016 190.671 540.679 190.235 544.622 181.755C545.774 179.295 548.356 176.207 550.694 175.788C563.03 173.642 573.081 185.925 569.469 197.685C568.09 202.134 566.276 207.683 567.776 211.539C571.004 219.722 576.221 227.12 580.601 234.832ZM159.515 111.493C159.533 104.618 158.835 103.344 154.333 103.187C148.383 102.96 142.398 102.891 136.466 103.309C134.197 103.466 131.406 104.635 129.94 106.31C121.32 116.134 112.945 126.166 104.674 136.303C103.697 137.507 103.104 140.159 103.75 141.398C107.362 148.22 118.546 149.616 123.868 144.155C130.847 137.001 137.635 129.673 144.806 122.712C146.708 120.862 149.674 119.135 152.169 119.1C158.172 119.047 160.161 116.36 159.515 111.493ZM753.69 81.7263C753.551 82.5115 753.411 83.2792 753.272 84.0644C756.116 85.2159 758.873 86.7165 761.821 87.4667C783.876 93.0326 803.14 103.676 819.977 118.89C821.181 119.99 822.926 120.513 825.02 121.612C821.914 101.181 776.653 61.5042 760.618 64.8368C764.823 67.8553 768.801 70.455 772.448 73.456C774.245 74.9217 775.466 77.1026 776.967 78.9696C774.838 79.8943 772.744 81.4646 770.563 81.6217C764.962 81.9881 759.309 81.7263 753.69 81.7263ZM66.9507 91.8985C70.0216 91.8985 73.2845 92.5441 76.0763 91.6542C77.7339 91.1308 79.4962 88.2868 79.6358 86.3675C79.7579 84.7623 77.5769 81.517 76.4427 81.5344C64.3509 81.674 51.6483 77.8355 41.1966 88.4089C33.8159 95.8766 25.1091 102.018 17.1002 108.91C13.5581 111.964 13.6454 117.704 17.17 121.159C20.7818 124.701 22.6314 120.618 24.6729 118.925C32.3677 112.574 40.1148 106.258 47.356 99.4185C53.0093 94.0795 58.9593 90.6771 66.9507 91.8985ZM31.3033 133.599C36.9566 138.188 40.4463 138.188 45.803 133.18C48.0365 131.087 50.392 129.063 52.3986 126.777C58.4881 119.85 64.63 113.778 75.2387 115.052C79.8277 115.61 79.7928 110.987 79.9324 107.41C80.072 103.676 78.205 102.35 74.7676 102.053C66.6017 101.355 59.4129 102.35 53.6025 109.346C46.658 117.721 38.9109 125.398 31.3033 133.599ZM548.548 128.539C548.548 134 548.914 138.013 548.461 141.957C547.833 147.261 549.508 149.546 555.039 148.901C563.484 147.906 570.865 150.803 577.722 155.496C580.182 157.189 582.817 158.637 586.167 160.661C587.319 157.032 588.261 154.188 589.116 151.309C591.751 142.323 591.611 142.864 582.695 140.875C574.18 138.973 565.909 135.867 557.604 133.058C554.952 132.151 552.544 130.563 548.548 128.539ZM221.266 123.671C217.235 123.671 213.152 123.305 209.191 123.811C206.539 124.142 203.468 125.119 201.584 126.864C195.546 132.465 189.945 138.554 184.222 144.486C182.425 146.353 180.471 148.796 183.594 150.593C185.06 151.431 188.358 150.855 189.788 149.669C193.889 146.249 197.675 142.375 201.2 138.327C204.253 134.82 207.708 133.425 212.314 133.808C219.172 134.402 226.081 134.559 232.956 134.96C237.737 135.239 239.255 132.936 239.325 128.347C239.377 123.671 236.69 123.566 233.357 123.636C229.327 123.741 225.296 123.671 221.266 123.671ZM701.694 59.7769C703.927 61.7485 704.835 63.1443 706.021 63.4933C719.212 67.262 732.438 70.9086 745.716 74.4157C747.06 74.7646 748.77 74.154 750.218 73.6829C753.638 72.5487 755.226 69.9316 752.696 67.1748C750.114 64.3482 746.711 61.0331 743.256 60.4748C733.503 58.9219 723.557 58.4857 713.681 58.0321C710.209 57.8925 706.702 59.0092 701.694 59.7769ZM307.2 123.846C307.2 123.758 307.2 123.671 307.2 123.584C305.28 123.584 303.344 123.776 301.459 123.549C297.935 123.113 296.294 124.858 296.277 128.051C296.207 137.839 296.207 147.61 296.486 157.398C296.539 159.003 297.795 161.551 299.016 161.917C300.395 162.336 302.96 161.271 303.972 160.015C305.42 158.201 306.432 155.723 306.746 153.402C307.217 150.017 307.147 146.493 306.868 143.056C306.432 137.577 307.531 134.105 314.214 134.855C317.669 135.239 319.449 132.919 319.292 129.411C319.152 126.114 317.791 123.881 314.127 123.863C311.806 123.828 309.503 123.846 307.2 123.846ZM220.009 107.619C220.358 108.3 220.707 108.963 221.056 109.643C226.832 108.753 233.968 112.679 238.051 107.427C241.576 102.908 240.546 96.0336 238.505 88.2693C231.525 95.58 225.767 101.6 220.009 107.619ZM93.3503 123.898C94.3623 124.125 95.3744 124.334 96.3864 124.561C100.574 118.035 104.762 111.527 109.961 103.432C104.134 103.432 100.243 103.205 96.3864 103.571C95.2871 103.676 93.5423 105.473 93.4899 106.555C93.1933 112.33 93.3503 118.105 93.3503 123.898ZM13.1743 93.8701C13.8373 94.062 14.4829 94.2714 15.146 94.4808C19.1068 90.5376 23.0676 86.5943 27.0284 82.6511C26.819 82.023 26.6096 81.3948 26.4003 80.7842C22.4918 81.4472 17.4841 80.8714 15.0413 83.1222C12.9125 85.024 13.6803 90.1537 13.1743 93.8701Z" fill="#F04C39"/>
<path fill-rule="evenodd" clip-rule="evenodd" d="M655.594 313.556C651.686 316.505 648.161 319.157 644.741 321.757C639.733 320.745 634.15 319.611 628.863 318.529C634.83 306.787 649.016 304.047 655.594 313.556Z" fill="#F04C39"/>
<path fill-rule="evenodd" clip-rule="evenodd" d="M506.461 467.133C502.64 466.034 499.238 465.249 495.992 464.027C494.596 463.504 493.096 462.317 492.415 461.026C491.281 458.863 490.967 456.263 489.903 454.047C488.943 452.041 487.425 450.296 486.029 448.289C505.746 450.104 509.829 457.449 506.461 467.133Z" fill="#F04C39"/>
<path fill-rule="evenodd" clip-rule="evenodd" d="M430.089 288.554C431.729 328.387 395.419 358.781 360.766 358.328C321.716 357.804 289.611 326.869 290.082 288.117C290.623 244.341 326.829 217.89 360.626 217.733C395.681 217.576 432.096 248.301 430.089 288.554ZM362.459 288.658C351.361 301.779 340.526 314.743 329.516 327.55C326.253 331.336 325.869 334.651 330.824 336.535C339.182 339.693 347.662 342.642 356.317 344.876C362.982 346.603 368.234 343.811 371.567 337.495C373.085 334.616 375.667 332.278 376.976 329.347C381.966 318.058 390.516 314.132 402.311 316.243C408.383 317.325 411.367 314.132 413.339 308.741C421.26 287.036 417.561 267.232 402.468 250.221C387.375 233.226 367.868 228.603 345.9 233.383C341.363 234.378 339.549 236.978 339.793 241.601C340.351 251.773 340.491 261.946 341.119 272.1C341.416 276.916 339.898 280.458 336.39 283.808C328.172 291.624 320.373 299.86 312.277 307.799C308.333 311.655 309.764 315.197 312.817 318.32C316.133 321.705 318.279 318.285 320.338 316.226C329.83 306.699 339.252 297.086 348.727 287.524C354.799 281.365 355.322 281.417 362.459 288.658Z" fill="#F04C39"/>
<path fill-rule="evenodd" clip-rule="evenodd" d="M492.555 347.894C460.17 347.894 434.102 321.949 434.189 289.792C434.277 257.863 460.589 231.9 492.886 231.865C525.323 231.83 550.99 257.531 550.973 290.054C550.955 322.507 525.323 347.894 492.555 347.894ZM526.928 264.999C524.66 257.165 522.095 255.472 514.68 255.28C511.836 255.211 508.45 256.397 507.683 251.494C507.421 249.767 504.682 248.423 503.076 246.905C502.204 248.807 500.651 250.674 500.599 252.594C500.337 260.846 500.895 269.134 500.442 277.387C499.971 286.006 501.244 293.457 509.445 298.15C510.178 298.569 510.579 299.546 511.138 300.279C511.033 300.802 510.928 301.343 510.824 301.866C508.102 301.64 505.38 301.413 502.57 301.169C498.226 306.717 487.303 306.63 482.522 300.802C482.016 300.872 481.44 301.046 480.899 301.029C479.015 300.924 477.113 300.75 475.228 300.593C476.328 298.988 477.375 297.347 478.509 295.777C480.48 293.073 484.11 290.49 484.267 287.716C484.93 275.45 484.703 263.15 484.494 250.849C484.476 249.505 482.487 247.202 481.301 247.132C479.87 247.045 477.2 248.72 477.043 249.907C476.345 255.211 472.995 255.298 468.842 255.438C462.317 255.647 458.338 259.538 457.815 265.871C459.455 266.046 461.095 266.325 462.753 266.377C476.764 266.761 476.764 266.761 477.113 280.545C477.427 292.881 475.647 295.638 463.992 300.244C461.339 301.291 458.338 301.517 455.773 302.721C454.133 303.489 453.016 305.356 451.655 306.734C453.54 307.537 455.442 309.02 457.291 308.95C459.996 308.846 462.648 307.589 466.19 306.577C463.503 311.288 461.392 314.987 459.263 318.686C459.769 319.122 460.258 319.541 460.764 319.977C467.778 316.749 474.496 312.37 481.859 310.625C489.344 308.846 497.702 308.34 505.222 309.735C512.359 311.061 518.902 315.563 525.69 318.651C525.986 318.267 526.283 317.901 526.562 317.535C524.59 313.504 522.619 309.456 520.385 304.885C524.189 305.67 527.295 306.63 530.453 306.839C531.675 306.926 533.018 305.356 534.292 304.519C533.297 303.524 532.46 302.093 531.273 301.657C529.144 300.889 526.737 300.907 524.538 300.296C511.993 296.807 508.014 291.572 508.014 278.783C508.014 276.096 508.206 273.391 507.979 270.722C507.63 266.447 509.445 264.772 513.65 264.982C517.925 265.156 522.217 264.999 526.928 264.999ZM522.584 329.783C522.863 329.26 523.125 328.736 523.404 328.213C513.284 313.766 498.121 314.464 482.993 315.423C477.27 315.79 462.683 327.375 461.741 332.924C466.33 330.115 470.203 327.724 474.548 325.055C475.002 328.771 474.862 332.139 475.961 335.035C476.869 337.408 479.102 340.775 481.021 340.985C488.908 341.822 496.934 341.927 504.874 341.648C509.672 341.473 511.679 337.931 511.644 333.255C511.609 330.516 511.644 327.794 511.644 324.653C515.901 326.642 519.234 328.213 522.584 329.783ZM525.602 274.909C520.193 274.578 515.971 277.352 513.144 282.028C512.289 283.441 512.289 286.181 513.092 287.646C516.302 293.526 525.376 297.661 531.779 296.283C533.611 295.882 535.949 294.643 536.752 293.108C541.114 284.82 535.094 274.909 525.602 274.909ZM448.009 288.17C448.218 290.455 447.974 292.898 448.742 294.974C449.946 298.15 457.344 298.83 463.119 296.615C468.877 294.399 473.955 288.606 473.047 285.273C471.582 279.987 464.306 275.503 458.426 276.253C449.823 277.352 448.183 279.254 448.009 288.17Z" fill="#F04C39"/>
<path fill-rule="evenodd" clip-rule="evenodd" d="M436.824 248.092C430.229 239.665 425.099 230.888 417.893 224.398C407.772 215.272 394.738 210.91 381.46 208.032C373.085 206.217 364.587 204.961 355.235 203.286C378.197 191.7 400.898 185.227 425.936 190.81C440.174 193.986 454.587 196.341 468.947 198.889C472.524 199.517 476.328 200.163 479.817 199.569C497.877 196.568 512.237 205.327 526.562 213.999C531.011 216.686 534.728 220.594 538.497 224.555C498.854 210.561 463.712 214.208 436.824 248.092ZM462.456 210.317C462.247 209.602 462.037 208.904 461.828 208.189C444.868 202.518 427.576 198.994 407.895 200.25C409.901 202.413 410.634 203.443 411.576 204.158C419.882 210.561 428.187 216.982 436.58 223.264C437.662 224.084 439.756 225.026 440.541 224.537C447.939 219.966 455.18 215.098 462.456 210.317Z" fill="#F04C39"/>
<path fill-rule="evenodd" clip-rule="evenodd" d="M358.533 367.924C369.037 366.528 380.448 365.586 391.58 363.283C398.228 361.905 404.719 358.921 410.739 355.693C420.283 350.546 426.617 342.538 428.937 331.667C429.688 328.126 430.822 324.653 432.131 319.89C447.817 349.203 469.872 364.173 504.437 354.856C477.724 375.095 421.923 392.09 358.533 367.924ZM458.408 366.581C458.495 366.075 458.583 365.551 458.67 365.045C457.082 364.19 455.442 363.405 453.906 362.463C448.707 359.253 443.298 356.321 438.464 352.605C435.271 350.162 433.247 350.232 429.95 352.396C421.976 357.613 413.618 362.236 405.434 367.122C404.126 367.907 402.904 368.866 401.648 369.739C421.4 374.729 440 371.92 458.408 366.581Z" fill="#F04C39"/>
<path fill-rule="evenodd" clip-rule="evenodd" d="M639.733 68.9368C639.768 93.2417 628.2 110.55 606.895 115.767C582.746 121.682 555.405 108.823 552.019 77.8701C549.995 59.4626 554.672 43.1313 571.073 31.9996C587.527 20.8329 613.299 22.5777 627.956 35.9253C637.709 44.8412 640.047 56.4266 639.733 68.9368ZM577.494 69.1287C577.494 73.543 577.617 77.9574 577.46 82.3542C577.302 86.5417 579.361 88.3912 583.287 88.4261C592.291 88.4959 601.312 88.4785 610.315 88.461C613.962 88.4436 616.108 86.7162 616.108 82.8777C616.108 73.6826 616.143 64.4701 616.056 55.2751C616.021 51.5936 614.224 49.7615 610.298 49.8139C601.294 49.9709 592.273 49.936 583.27 49.8837C579.1 49.8488 577.39 51.8727 577.477 55.9032C577.564 60.3001 577.494 64.7144 577.494 69.1287Z" fill="#F04C39"/>
<path fill-rule="evenodd" clip-rule="evenodd" d="M344.382 126.794C344.382 108.77 344.382 91.8283 344.382 73.9442C359.126 80.1382 373.155 86.0182 388.178 92.3518C373.207 104.129 359.108 115.209 344.382 126.794Z" fill="#F04C39"/>
<path fill-rule="evenodd" clip-rule="evenodd" d="M348.866 135.047C362.563 125.573 375.37 116.709 388.16 107.846C388.788 108.195 389.399 108.543 390.027 108.892C387.253 118.105 385.246 127.649 381.495 136.443C376.819 147.435 369.229 149.145 359.283 142.672C355.968 140.526 352.897 138.013 348.866 135.047Z" fill="#F04C39"/>
<path fill-rule="evenodd" clip-rule="evenodd" d="M418.643 154.85C420.475 147.348 422.691 140.805 423.528 134.087C424.331 127.544 423.703 120.809 423.703 114.232C437.086 116.901 464.986 142.619 476.799 164.028C456.192 164.359 437.208 158.794 418.643 154.85Z" fill="#F04C39"/>
<path fill-rule="evenodd" clip-rule="evenodd" d="M219.049 70.4896C206.573 82.2844 194.115 94.0617 180.313 107.13C180.313 97.0104 180.313 88.4958 180.313 79.9638C180.313 69.0588 180.313 69.0588 191.201 69.0588C200.222 69.0588 209.225 69.0588 218.246 69.0588C218.508 69.5299 218.787 70.0185 219.049 70.4896Z" fill="#F04C39"/>
<path fill-rule="evenodd" clip-rule="evenodd" d="M343.213 327.114C352.199 316.401 360.714 306.036 369.56 295.986C370.973 294.381 373.87 293.422 376.121 293.317C383.205 292.985 390.324 293.282 397.408 293.16C401.194 293.108 402.677 294.067 401.386 298.237C398.612 307.293 396.134 309.369 386.555 307.973C381.059 307.171 377.255 308.601 374.638 313.539C373.294 316.069 371.567 318.407 369.979 320.797C362.284 332.488 357.189 333.814 343.213 327.114Z" fill="#F04C39"/>
<path fill-rule="evenodd" clip-rule="evenodd" d="M398.943 272.571C388.038 272.571 377.709 272.763 367.396 272.362C365.756 272.292 363.122 269.71 362.842 268C361.935 262.172 361.935 256.188 361.447 250.273C361.15 246.661 362.703 245.388 366.175 245.841C378.773 247.446 394.145 257.27 398.943 272.571Z" fill="#F04C39"/>
<path fill-rule="evenodd" clip-rule="evenodd" d="M494.492 327.777C495.102 327.305 495.748 327.061 495.957 326.625C497.423 323.38 499.971 320.169 503.233 322.403C505.729 324.095 507.386 328.23 507.77 331.476C508.224 335.209 504.996 337.041 501.314 337.286C496.149 337.635 490.985 338.333 485.837 338.176C481.178 338.019 478.613 333.971 479.329 329.172C480.114 324.025 483.656 320.78 487.896 322.263C490.287 323.066 492.066 325.665 494.492 327.777Z" fill="#F04C39"/>
<path fill-rule="evenodd" clip-rule="evenodd" d="M533.193 285.221C530.558 287.437 529.127 289.583 527.766 289.548C526.457 289.513 524.224 287.21 524.207 285.884C524.189 284.471 526.074 282.22 527.522 281.836C528.691 281.522 530.453 283.459 533.193 285.221Z" fill="#F04C39"/>
<path fill-rule="evenodd" clip-rule="evenodd" d="M463.695 286.739C461.147 288.746 459.647 290.839 458.234 290.787C456.733 290.735 455.32 288.606 453.871 287.385C455.198 285.849 456.297 283.494 457.937 283.04C459.106 282.709 460.99 284.907 463.695 286.739Z" fill="#F04C39"/>
<path fill-rule="evenodd" clip-rule="evenodd" d="M590.72 58.3983C591.069 58.0668 591.209 57.8399 591.296 57.8574C595.903 58.3459 600.509 58.8519 605.133 59.3405C605.482 65.7962 605.866 72.2345 606.075 78.6902C606.092 79.3707 605.028 80.6967 604.452 80.7142C599.322 80.8363 594.175 80.8886 589.063 80.4873C588.452 80.435 587.492 77.5561 587.702 76.1428C587.911 74.8517 589.29 73.3337 590.546 72.7405C591.802 72.1298 593.739 72.9498 595.03 72.3741C597.054 71.4842 600.282 70.0011 600.317 68.6925C600.404 66.3196 598.991 63.4233 597.298 61.5912C595.798 59.9511 593.041 59.4626 590.72 58.3983Z" fill="#F04C39"/>
</g>
</mask>
<g mask="url(#mask0)">
<rect x="222" y="-30" width="647" height="628.167" fill="#F04C39"/>
</g>
<defs>
<clipPath id="clip0">
<rect width="835" height="469" fill="white"/>
</clipPath>
</defs>
</svg>
