<svg width="835" height="469" viewBox="0 0 835 469" fill="none" xmlns="http://www.w3.org/2000/svg">
<mask id="mask0" mask-type="alpha" maskUnits="userSpaceOnUse" x="0" y="0" width="835" height="469">
<g clip-path="url(#clip0)">
<path fill-rule="evenodd" clip-rule="evenodd" d="M505.047 468.425C495.59 453.698 481.056 453.821 467.062 452.687C466.818 452.058 466.573 451.43 466.347 450.785C476.467 440.438 486.569 430.091 497.737 418.663C481.492 416.744 480.236 403.483 474.827 393.835C473.082 390.729 475.856 389.473 478.386 388.653C485.68 386.297 493.078 384.151 500.284 381.551C518.134 375.113 533.82 365.29 546.243 350.756C549.419 347.057 552.368 346.673 556.782 348.505C604.138 368.186 651.563 387.693 698.988 407.2C717.117 414.65 735.316 421.961 753.462 429.341C756.394 430.528 759.028 431.766 761.367 427.98C773.109 408.979 784.399 389.787 791.064 368.273C798.375 344.666 802.737 320.571 803.958 295.865C806.122 252.001 797.991 209.881 783.177 168.791C781.938 165.337 780.368 165.075 777.175 165.773C733.1 175.352 688.99 184.774 644.898 194.3C614.502 200.861 584.107 207.491 553.729 214.191C549.943 215.028 547.046 214.383 544.446 211.417C527.905 192.486 507.159 180.237 483.202 173.136C481.283 172.56 479.485 171.635 475.978 170.17C479.067 168.896 480.55 168.373 481.946 167.675C488.384 164.395 495.241 161.708 501.052 157.538C505.257 154.519 507.141 154.676 510.265 158.567C525.253 177.271 545.546 182.802 567.775 174.846C575.313 172.141 581.088 167.361 586.026 161.271C590.755 155.444 590.894 155.304 596.757 160.434C613.403 175.003 632.178 175.265 651.144 167.116C657.775 164.272 663.009 157.695 668.174 152.146C671.123 148.971 672.71 148.482 675.921 151.483C693.823 168.216 730.64 167.099 745.453 146.807C747.687 143.736 749.938 140.665 752.538 137.141C754.736 138.886 756.498 140.264 758.261 141.677C778.99 158.445 813.73 153.228 828.02 131.034C832.557 124.003 835.139 116.378 834.999 107.689C834.389 73.8573 834.057 40.0258 833.848 6.19431C833.813 1.36124 832.225 0.000300197 827.497 0.000300197C747.687 0.122436 667.877 -0.278866 588.068 0.453946C574.702 0.576081 561.232 4.88572 548.076 8.27061C494.997 21.88 443.576 39.8339 396.64 68.7451C361.952 90.1013 331.033 115.75 307.652 149.616C306.535 151.221 305 152.53 302.679 155.042C299.381 144.905 299.504 135.885 301.126 127.178C302.609 119.327 304.86 111.335 308.402 104.234C332.132 56.549 296.206 13.5224 253.771 6.94457C228.68 3.07113 206.032 8.47999 186.14 24.4099C166.947 39.7816 145.101 46.1151 120.621 47.7378C81.9551 50.3201 46.2903 61.9404 18.7914 91.2704C6.52509 104.356 0.365784 120.147 -0.000610352 139.235C8.18274 132.604 15.4064 126.428 22.9965 120.705C45.6099 103.658 70.0378 89.9967 97.6937 83.1222C118.998 77.8355 139.657 80.8888 159.374 90.4678C164.085 92.7709 167.505 96.0685 167.401 102.821C158.013 101.373 149.01 99.8722 139.989 98.581C90.9586 91.5495 51.4725 108.334 20.7631 147.016C21.6006 146.615 22.4731 146.249 23.2757 145.778C24.0958 145.307 24.881 144.731 25.6661 144.172C47.6862 128.522 72.5154 121.037 99.0896 117.774C125.856 114.494 152.343 116.081 178.777 120.426C181.639 120.897 184.273 122.886 186.961 124.264C195.598 128.748 203.833 134.349 212.906 137.56C229.622 143.475 235.712 150.995 234.159 168.861C230.844 206.985 238.277 243.451 251.084 278.992C262.251 309.963 278.321 338.141 303.778 359.689C311.142 365.935 312.014 371.275 308.437 379.248C306.012 384.657 304.546 390.485 302.749 396.155C301.702 399.47 299.713 400.622 296.206 400.081C283.905 398.162 271.568 396.365 259.232 394.707C253.178 393.887 249.042 390.624 246.041 385.529C236.305 368.954 226.569 352.378 216.78 335.838C210.76 325.648 202.193 323.572 192.631 330.429C188.356 333.5 184.797 337.6 181.621 342.416C184.814 341.648 188.007 340.793 191.235 340.147C198.093 338.804 201.931 341.125 202.158 348.156C202.926 371.519 215.977 388.321 231.21 403.972C234.386 407.235 238.224 410.079 242.203 412.295C251.625 417.512 257.749 425.45 261.605 435.116C265.165 444.015 268.009 453.192 271.15 462.248C271.76 463.993 272.266 465.772 273.069 468.302C292.123 450.54 282.788 433.599 271.76 415.435C287.796 417.843 302.034 419.972 317.022 422.222C310.583 404.705 321.646 394.044 329.864 382.598C330.684 381.464 334.854 381.621 336.774 382.563C350.331 389.194 364.482 393.782 379.383 396.208C401.979 399.872 424.488 399.017 447.048 395.789C449.509 395.44 453.173 396.696 454.796 398.511C459.245 403.501 462.822 409.276 466.94 414.598C469.522 417.93 469.365 420.67 466.381 423.706C457.867 432.325 449.509 441.101 441.081 449.79C434.712 456.368 426.773 456.159 418.52 455.286C400.967 453.419 383.414 451.43 365.808 450.209C356.159 449.528 352.373 453.454 350.314 462.736C349.232 467.604 350.924 469.245 355.513 468.704C371.287 466.872 387.025 469.384 402.816 468.843C418.956 468.285 435.114 468.721 451.271 468.721C467.236 468.721 483.202 468.739 499.167 468.704C500.65 468.773 502.151 468.599 505.047 468.425ZM412.204 385.529C377.097 384.936 347.051 376.771 320.773 356.688C297.689 339.048 282.282 315.633 270.033 289.81C266.142 281.627 264.938 272.99 266.229 263.97C269.789 239.194 282.404 220.245 303.377 206.967C318.226 197.563 332.778 188.734 352.233 189.991C366.454 190.898 381.25 187.304 395.418 184.041C428.832 176.329 461.601 176.94 493.113 190.915C543.382 213.196 561.825 250.099 554.758 300.907C550.396 332.174 531.342 353.687 502.762 365.883C473.151 378.533 441.919 384.744 412.204 385.529ZM554.723 223.212C556.259 222.391 556.73 222.025 557.253 221.885C590.842 213.929 624.43 206.025 658.001 198.052C661.404 197.249 662.695 198.54 662.503 201.82C662.154 207.683 661.805 213.528 661.421 219.896C664.51 219.53 666.778 219.356 669.011 218.954C692.619 214.854 716.227 210.858 739.783 206.479C744.703 205.572 745.593 207.526 745.453 211.487C745.157 220.315 745.07 229.161 744.476 237.972C744.127 243.189 746.535 244.725 751.159 244.882C758.645 245.144 766.113 245.702 773.598 246.068C777.175 246.243 780.194 247.028 780.316 251.425C780.717 266.57 781.188 281.732 781.328 296.894C781.345 298.499 779.548 301.326 778.309 301.5C774.418 302.024 770.387 301.553 766.409 301.465C766.514 298.377 766.235 295.202 766.81 292.183C767.875 286.53 769.48 280.999 770.754 275.381C771.19 273.427 771.347 271.42 771.609 269.693C757.702 269.693 744.494 269.571 731.268 269.728C717.728 269.902 717.78 269.989 721.217 256.886C723.329 248.842 725.074 240.712 727.115 232.023C710.295 233.907 694.713 235.687 679.132 237.362C666.743 238.705 654.337 239.892 641.966 241.253C637.726 241.724 635.981 240.153 636.226 235.809C636.487 230.941 636.278 226.038 636.278 220.647C632.91 221.31 630.677 221.676 628.461 222.165C608.081 226.771 587.736 231.499 567.321 235.861C565.158 236.332 561.616 235.6 560.377 234.082C557.951 231.098 556.66 227.137 554.723 223.212ZM624.413 328.928C627.571 329.068 629.839 329.225 632.09 329.26C648.789 329.609 665.504 330.097 682.22 330.167C687.297 330.202 688.798 332.261 687.838 336.78C686.53 342.974 685.169 349.168 683.668 355.327C682.726 359.218 683.267 361.399 688.013 361.8C707.311 363.44 726.592 365.342 745.855 367.244C753.078 367.959 760.285 368.919 768.486 369.896C765.118 378.062 762.797 384.797 759.534 391.043C758.592 392.858 754.806 394.55 752.66 394.201C727.481 390.24 702.303 386.192 677.247 381.499C659.484 378.166 662.433 381.569 662.102 364.016C662.102 363.632 662.067 363.248 662.084 362.865C662.329 359.235 660.706 357.892 657.024 357.63C643.641 356.653 630.258 355.379 616.893 354.106C610.157 353.46 603.44 352.605 595.954 351.75C598.083 345.225 599.828 339.851 601.887 333.535C587.806 332.296 574.562 331.144 560.708 329.923C561.598 326.765 562.296 324.601 562.837 322.403C564.163 317.046 566.815 314.08 573.01 313.539C587.492 312.301 601.904 310.085 616.352 308.392C620.819 307.869 625.338 307.747 631.165 307.345C628.81 314.953 626.786 321.408 624.413 328.928ZM666.377 279.359C656.658 280.336 648.108 281.121 639.576 282.081C618.009 284.489 596.46 286.966 574.894 289.444C571.579 289.828 569.677 288.502 569.433 285.134C568.961 278.626 568.682 272.101 568.089 265.592C567.723 261.422 569.816 259.73 573.516 258.927C582.344 257.026 591.121 254.932 599.95 253.013C612.199 250.343 612.339 250.378 612.74 263.115C612.862 266.884 614.136 268.384 617.905 267.913C625.704 266.936 633.521 266.029 641.355 265.156C657.007 263.429 672.641 261.632 688.292 260.061C695.01 259.381 695.568 260.236 693.963 267.076C692.427 273.619 690.892 280.144 689.199 286.652C687.228 294.242 687.786 294.783 695.638 294.486C708.881 293.963 722.142 293.841 735.386 293.3C740.655 293.09 741.737 295.254 740.498 299.93C738.806 306.229 737.375 312.615 735.892 318.966C734.461 325.055 734.967 325.718 741.091 325.753C751.665 325.805 762.239 325.84 772.83 325.77C776.808 325.735 778.327 327.393 777.995 331.389C776.913 344.527 775.517 345.853 762.78 345.138C762.396 345.12 762.012 345.138 761.628 345.103C746.361 343.567 731.093 341.979 715.808 340.566C712.336 340.252 711.551 338.647 712.319 335.611C712.685 334.128 712.912 332.592 713.226 331.092C714.814 323.31 716.419 315.528 718.112 307.276C697.627 306.665 678.207 306.072 657.984 305.461C659.607 300.384 660.88 296.406 662.172 292.427C663.428 288.414 664.736 284.436 666.377 279.359ZM175.636 74.2935C175.741 62.8826 178.725 54.211 185.163 45.2602C208.527 12.7373 256.266 12.9641 281.444 33.2909C308.036 54.7693 309.92 88.8277 285.876 110.899C263.298 131.627 227.022 134.785 201.408 117.913C185.791 107.654 175.95 93.6956 175.636 74.2935ZM502.168 95.8592C502.168 104.88 502.186 113.918 502.168 122.938C502.116 141.294 492.711 152.896 474.547 155.269C455.354 157.764 438.342 148.761 436.091 127.562C434.8 115.401 435.498 103.013 435.899 90.7295C435.969 88.5136 438.516 85.373 440.697 84.3784C458.669 76.1954 476.798 68.3263 494.962 60.562C500.982 57.9972 502.099 58.8696 502.151 65.3079C502.238 75.4974 502.168 85.687 502.168 95.8592ZM332.865 174.497C336.023 169.664 337.925 165.354 341.031 162.214C354.658 148.412 368.129 134.384 382.646 121.56C392.661 112.714 404.09 105.386 415.31 98.0401C420.614 94.5506 422.411 96.0162 422.481 102.315C422.551 109.05 422.743 115.785 422.446 122.502C421.766 138.101 427.715 150.523 439.807 160.207C441.29 161.394 442.442 162.981 444.885 165.616C441.081 165.79 439.057 165.895 437.033 165.982C430.525 166.279 423.912 165.982 417.508 166.977C400.077 169.699 382.803 173.398 365.354 175.893C355.182 177.358 344.748 177.777 332.865 174.497ZM661.02 134.175C658.385 132.151 656.605 131.104 655.227 129.673C637.447 111.318 619.615 92.9977 602.079 74.4157C599.182 71.3448 596.949 67.1748 595.693 63.1094C593.546 56.2 596.024 53.3735 603.178 53.3735C620.086 53.3386 637.011 53.3386 653.918 53.3735C661.02 53.3909 662.311 54.6995 662.311 61.8008C662.311 82.5638 662.311 103.327 662.189 124.072C662.206 127.004 661.543 129.952 661.02 134.175ZM788.726 64.4878V64.5053C782.567 64.5053 776.425 64.4704 770.265 64.5053C752.119 64.6448 755.556 64.418 755.015 49.2558C754.806 43.6201 757.196 41.7881 762.518 41.8579C777.314 42.0323 792.128 41.9102 806.925 41.9102C822.454 41.9102 822.332 41.9102 821.756 57.6133C821.581 62.5511 819.383 64.5402 814.672 64.5053C806.017 64.4529 797.363 64.4878 788.726 64.4878ZM581.838 77.0852C581.838 88.0425 581.856 98.9823 581.838 109.94C581.821 117.913 581.245 118.524 573.498 118.856C563.395 119.292 563.413 119.292 563.395 129.394C563.378 138.607 563.343 147.837 563.291 157.049C563.256 162.44 559.592 163.679 555.195 163.923C549.89 164.238 551.304 160.12 551.269 157.45C551.129 142.271 551.321 127.091 551.146 111.929C551.077 106.729 553.293 104.531 558.3 104.601C561.947 104.653 565.611 104.409 569.241 104.601C573.603 104.827 575.505 103.257 575.33 98.6334C574.859 85.9662 574.702 73.299 574.475 60.6318C574.37 54.2982 574.074 47.9297 574.597 41.6485C574.737 40.0084 577.598 38.5951 579.204 37.0597C580.076 38.6823 581.681 40.2875 581.716 41.9276C581.926 53.6352 581.821 65.3602 581.838 77.0852ZM558.667 65.7266C558.667 71.1006 558.684 76.492 558.667 81.8659C558.632 89.6128 558.213 90.0141 550.483 90.0665C539.229 90.1362 539.212 90.1362 538.828 101.163C538.723 104.391 538.514 108.003 534.378 107.863C528.341 107.671 521.781 110.603 516.372 105.595C515.9 105.159 515.778 104.147 515.778 103.414C515.778 96.1383 515.883 88.88 515.883 81.6217C515.883 77.504 518.273 76.4745 521.868 76.5443C527.05 76.649 532.25 76.5618 537.432 76.5618C546.627 76.5618 546.61 76.5618 546.645 67.4888C546.662 61.5391 546.627 55.5719 546.837 49.6222C547.029 44.4576 550.85 42.5907 555.09 42.5732C559.766 42.5558 558.545 46.7607 558.632 49.5698C558.789 54.9612 558.667 60.3352 558.667 65.7266ZM709.108 88.8451C702.199 88.8451 695.271 88.8451 688.362 88.8451C675.467 88.8276 675.467 88.8277 675.502 75.7243C675.52 67.8727 675.956 67.5237 684.104 67.6808C699.075 67.9425 714.046 68.2042 729.017 68.3263C742.383 68.431 742.348 68.431 741.964 81.8659C741.824 86.6467 739.94 88.9323 735.037 88.8625C726.4 88.7404 717.745 88.8276 709.108 88.8451ZM254.399 234.832C253.806 234.675 253.23 234.518 252.637 234.361C252.113 232.372 251.328 230.4 251.084 228.359C249.758 217.14 248.99 205.833 247.175 194.702C246.041 187.688 249.095 183.448 253.911 179.452C261.536 173.101 270.434 170.449 280.048 168.425C293.763 165.529 300.795 174.113 309.327 182.68C306.972 184.128 305.279 185.28 303.482 186.222C294.984 190.671 294.321 190.235 290.378 181.755C289.226 179.295 286.644 176.207 284.306 175.788C271.97 173.642 261.919 185.925 265.531 197.685C266.91 202.134 268.724 207.683 267.224 211.539C263.996 219.722 258.779 227.12 254.399 234.832ZM675.485 111.493C675.467 104.618 676.165 103.344 680.667 103.187C686.617 102.96 692.602 102.891 698.534 103.309C700.803 103.466 703.594 104.635 705.06 106.31C713.68 116.134 722.055 126.166 730.326 136.303C731.303 137.507 731.896 140.159 731.25 141.398C727.638 148.22 716.454 149.616 711.132 144.155C704.153 137.001 697.365 129.673 690.194 122.712C688.292 120.862 685.326 119.135 682.831 119.1C676.828 119.047 674.839 116.36 675.485 111.493ZM81.3095 81.7263C81.4491 82.5115 81.5887 83.2792 81.7283 84.0644C78.8842 85.2159 76.1274 86.7165 73.1786 87.4667C51.1236 93.0326 31.8604 103.676 15.0225 118.89C13.8186 119.99 12.0737 120.513 9.97992 121.612C13.0858 101.181 58.3472 61.5042 74.3824 64.8368C70.1774 67.8553 66.1991 70.455 62.5524 73.456C60.7551 74.9217 59.5338 77.1026 58.0332 78.9696C60.1619 79.8943 62.2557 81.4646 64.4368 81.6217C70.0378 81.9881 75.6911 81.7263 81.3095 81.7263ZM768.049 91.8985C764.978 91.8985 761.715 92.5441 758.924 91.6542C757.266 91.1308 755.504 88.2868 755.364 86.3675C755.242 84.7623 757.423 81.517 758.557 81.5344C770.649 81.674 783.352 77.8355 793.803 88.4089C801.184 95.8766 809.891 102.018 817.9 108.91C821.442 111.964 821.355 117.704 817.83 121.159C814.218 124.701 812.369 120.618 810.327 118.925C802.632 112.574 794.885 106.258 787.644 99.4185C781.991 94.0795 776.041 90.6771 768.049 91.8985ZM803.697 133.599C798.043 138.188 794.554 138.188 789.197 133.18C786.964 131.087 784.608 129.063 782.601 126.777C776.512 119.85 770.37 113.778 759.761 115.052C755.172 115.61 755.207 110.987 755.068 107.41C754.928 103.676 756.795 102.35 760.232 102.053C768.398 101.355 775.587 102.35 781.397 109.346C788.342 117.721 796.089 125.398 803.697 133.599ZM286.452 128.539C286.452 134 286.086 138.013 286.539 141.957C287.167 147.261 285.492 149.546 279.961 148.901C271.516 147.906 264.135 150.803 257.278 155.496C254.818 157.189 252.183 158.637 248.833 160.661C247.681 157.032 246.739 154.188 245.884 151.309C243.249 142.323 243.389 142.864 252.305 140.875C260.82 138.973 269.091 135.867 277.396 133.058C280.048 132.151 282.456 130.563 286.452 128.539ZM613.734 123.671C617.765 123.671 621.848 123.305 625.809 123.811C628.461 124.142 631.532 125.119 633.416 126.864C639.454 132.465 645.055 138.554 650.778 144.486C652.575 146.353 654.529 148.796 651.406 150.593C649.94 151.431 646.642 150.855 645.212 149.669C641.111 146.249 637.325 142.375 633.8 138.327C630.747 134.82 627.292 133.425 622.686 133.808C615.828 134.402 608.919 134.559 602.044 134.96C597.263 135.239 595.745 132.936 595.675 128.347C595.623 123.671 598.31 123.566 601.643 123.636C605.673 123.741 609.704 123.671 613.734 123.671ZM133.306 59.7769C131.073 61.7485 130.165 63.1443 128.979 63.4933C115.788 67.262 102.562 70.9086 89.2835 74.4157C87.94 74.7646 86.23 74.154 84.7818 73.6829C81.3619 72.5487 79.774 69.9316 82.3041 67.1748C84.8865 64.3482 88.2889 61.0331 91.7438 60.4748C101.497 58.9219 111.443 58.4857 121.319 58.0321C124.791 57.8925 128.298 59.0092 133.306 59.7769ZM527.8 123.846C527.8 123.758 527.8 123.671 527.8 123.584C529.72 123.584 531.656 123.776 533.541 123.549C537.065 123.113 538.706 124.858 538.723 128.051C538.793 137.839 538.793 147.61 538.514 157.398C538.461 159.003 537.205 161.551 535.984 161.917C534.605 162.336 532.04 161.271 531.028 160.015C529.58 158.201 528.568 155.723 528.254 153.402C527.783 150.017 527.853 146.493 528.132 143.056C528.568 137.577 527.469 134.105 520.786 134.855C517.331 135.239 515.551 132.919 515.708 129.411C515.848 126.114 517.209 123.881 520.873 123.863C523.194 123.828 525.497 123.846 527.8 123.846ZM614.991 107.619C614.642 108.3 614.293 108.963 613.944 109.643C608.168 108.753 601.032 112.679 596.949 107.427C593.424 102.908 594.454 96.0336 596.495 88.2693C603.475 95.58 609.233 101.6 614.991 107.619ZM741.65 123.898C740.638 124.125 739.626 124.334 738.614 124.561C734.426 118.035 730.238 111.527 725.039 103.432C730.866 103.432 734.757 103.205 738.614 103.571C739.713 103.676 741.458 105.473 741.51 106.555C741.807 112.33 741.65 118.105 741.65 123.898ZM821.826 93.8701C821.163 94.062 820.517 94.2714 819.854 94.4808C815.893 90.5376 811.932 86.5943 807.972 82.6511C808.181 82.023 808.39 81.3948 808.6 80.7842C812.508 81.4472 817.516 80.8714 819.959 83.1222C822.087 85.024 821.32 90.1537 821.826 93.8701Z" fill="#F04C39"/>
<path fill-rule="evenodd" clip-rule="evenodd" d="M179.406 313.556C183.314 316.505 186.839 319.157 190.259 321.757C195.267 320.745 200.85 319.611 206.137 318.529C200.17 306.787 185.984 304.047 179.406 313.556Z" fill="#F04C39"/>
<path fill-rule="evenodd" clip-rule="evenodd" d="M328.539 467.133C332.36 466.034 335.762 465.249 339.008 464.027C340.404 463.504 341.904 462.317 342.585 461.026C343.719 458.863 344.033 456.263 345.097 454.047C346.057 452.041 347.575 450.296 348.971 448.289C329.254 450.104 325.171 457.449 328.539 467.133Z" fill="#F04C39"/>
<path fill-rule="evenodd" clip-rule="evenodd" d="M404.911 288.554C403.271 328.387 439.581 358.781 474.234 358.328C513.284 357.804 545.389 326.869 544.918 288.117C544.377 244.341 508.171 217.89 474.374 217.733C439.319 217.576 402.904 248.301 404.911 288.554ZM472.541 288.658C483.639 301.779 494.474 314.743 505.484 327.55C508.747 331.336 509.131 334.651 504.176 336.535C495.818 339.693 487.338 342.642 478.683 344.876C472.018 346.603 466.766 343.811 463.433 337.495C461.915 334.616 459.333 332.278 458.024 329.347C453.034 318.058 444.484 314.132 432.689 316.243C426.617 317.325 423.633 314.132 421.661 308.741C413.74 287.036 417.439 267.232 432.532 250.221C447.625 233.226 467.132 228.603 489.1 233.383C493.637 234.378 495.451 236.978 495.207 241.601C494.649 251.773 494.509 261.946 493.881 272.1C493.584 276.916 495.102 280.458 498.61 283.808C506.828 291.624 514.627 299.86 522.723 307.799C526.667 311.655 525.236 315.197 522.183 318.32C518.867 321.705 516.721 318.285 514.662 316.226C505.17 306.699 495.748 297.086 486.273 287.524C480.201 281.365 479.678 281.417 472.541 288.658Z" fill="#F04C39"/>
<path fill-rule="evenodd" clip-rule="evenodd" d="M342.445 347.894C374.83 347.894 400.898 321.949 400.811 289.792C400.723 257.863 374.411 231.9 342.114 231.865C309.677 231.83 284.01 257.531 284.027 290.054C284.045 322.507 309.677 347.894 342.445 347.894ZM308.072 264.999C310.34 257.165 312.905 255.472 320.32 255.28C323.164 255.211 326.55 256.397 327.317 251.494C327.579 249.767 330.318 248.423 331.924 246.905C332.796 248.807 334.349 250.674 334.401 252.594C334.663 260.846 334.105 269.134 334.558 277.387C335.029 286.006 333.756 293.457 325.555 298.15C324.822 298.569 324.421 299.546 323.862 300.279C323.967 300.802 324.072 301.343 324.176 301.866C326.898 301.64 329.62 301.413 332.43 301.169C336.774 306.717 347.697 306.63 352.478 300.802C352.984 300.872 353.56 301.046 354.101 301.029C355.985 300.924 357.887 300.75 359.772 300.593C358.672 298.988 357.625 297.347 356.491 295.777C354.52 293.073 350.89 290.49 350.733 287.716C350.07 275.45 350.297 263.15 350.506 250.849C350.524 249.505 352.513 247.202 353.699 247.132C355.13 247.045 357.8 248.72 357.957 249.907C358.655 255.211 362.005 255.298 366.158 255.438C372.683 255.647 376.662 259.538 377.185 265.871C375.545 266.046 373.905 266.325 372.247 266.377C358.236 266.761 358.236 266.761 357.887 280.545C357.573 292.881 359.353 295.638 371.008 300.244C373.661 301.291 376.662 301.517 379.227 302.721C380.867 303.489 381.984 305.356 383.345 306.734C381.46 307.537 379.558 309.02 377.709 308.95C375.004 308.846 372.352 307.589 368.81 306.577C371.497 311.288 373.608 314.987 375.737 318.686C375.231 319.122 374.742 319.541 374.236 319.977C367.222 316.749 360.504 312.37 353.141 310.625C345.656 308.846 337.298 308.34 329.778 309.735C322.641 311.061 316.098 315.563 309.31 318.651C309.014 318.267 308.717 317.901 308.438 317.535C310.41 313.504 312.381 309.456 314.615 304.885C310.811 305.67 307.705 306.63 304.547 306.839C303.325 306.926 301.982 305.356 300.708 304.519C301.703 303.524 302.54 302.093 303.727 301.657C305.856 300.889 308.263 300.907 310.462 300.296C323.007 296.807 326.986 291.572 326.986 278.783C326.986 276.096 326.794 273.391 327.021 270.722C327.37 266.447 325.555 264.772 321.35 264.982C317.075 265.156 312.783 264.999 308.072 264.999ZM312.416 329.783C312.137 329.26 311.875 328.736 311.596 328.213C321.716 313.766 336.879 314.464 352.007 315.423C357.73 315.79 372.317 327.375 373.259 332.924C368.67 330.115 364.797 327.724 360.452 325.055C359.998 328.771 360.138 332.139 359.039 335.035C358.131 337.408 355.898 340.775 353.979 340.985C346.092 341.822 338.066 341.927 330.126 341.648C325.328 341.473 323.321 337.931 323.356 333.255C323.391 330.516 323.356 327.794 323.356 324.653C319.099 326.642 315.766 328.213 312.416 329.783ZM309.398 274.909C314.807 274.578 319.029 277.352 321.856 282.028C322.711 283.441 322.711 286.181 321.908 287.646C318.698 293.526 309.624 297.661 303.221 296.283C301.389 295.882 299.051 294.643 298.248 293.108C293.886 284.82 299.906 274.909 309.398 274.909ZM386.991 288.17C386.782 290.455 387.026 292.898 386.258 294.974C385.054 298.15 377.656 298.83 371.881 296.615C366.123 294.399 361.045 288.606 361.953 285.273C363.418 279.987 370.694 275.503 376.574 276.253C385.177 277.352 386.817 279.254 386.991 288.17Z" fill="#F04C39"/>
<path fill-rule="evenodd" clip-rule="evenodd" d="M398.176 248.092C404.771 239.665 409.901 230.888 417.107 224.398C427.228 215.272 440.262 210.91 453.54 208.032C461.915 206.217 470.413 204.961 479.765 203.286C456.803 191.7 434.102 185.227 409.064 190.81C394.826 193.986 380.413 196.341 366.053 198.889C362.476 199.517 358.672 200.163 355.183 199.569C337.123 196.568 322.763 205.327 308.438 213.999C303.989 216.686 300.272 220.594 296.503 224.555C336.146 210.561 371.288 214.208 398.176 248.092ZM372.544 210.317C372.753 209.602 372.963 208.904 373.172 208.189C390.132 202.518 407.424 198.994 427.105 200.25C425.099 202.413 424.366 203.443 423.424 204.158C415.118 210.561 406.813 216.982 398.42 223.264C397.338 224.084 395.244 225.026 394.459 224.537C387.061 219.966 379.82 215.098 372.544 210.317Z" fill="#F04C39"/>
<path fill-rule="evenodd" clip-rule="evenodd" d="M476.467 367.924C465.963 366.528 454.552 365.586 443.42 363.283C436.772 361.905 430.281 358.921 424.261 355.693C414.717 350.546 408.383 342.538 406.063 331.667C405.312 328.126 404.178 324.653 402.869 319.89C387.183 349.203 365.128 364.173 330.563 354.856C357.276 375.095 413.077 392.09 476.467 367.924ZM376.592 366.581C376.505 366.075 376.417 365.551 376.33 365.045C377.918 364.19 379.558 363.405 381.094 362.463C386.293 359.253 391.702 356.321 396.536 352.605C399.729 350.162 401.753 350.232 405.05 352.396C413.024 357.613 421.382 362.236 429.566 367.122C430.874 367.907 432.096 368.866 433.352 369.739C413.6 374.729 395 371.92 376.592 366.581Z" fill="#F04C39"/>
<path fill-rule="evenodd" clip-rule="evenodd" d="M195.267 68.9368C195.232 93.2417 206.8 110.55 228.105 115.767C252.254 121.682 279.595 108.823 282.981 77.8701C285.005 59.4626 280.328 43.1313 263.927 31.9996C247.473 20.8329 221.701 22.5777 207.044 35.9253C197.291 44.8412 194.953 56.4266 195.267 68.9368ZM257.506 69.1287C257.506 73.543 257.383 77.9574 257.54 82.3542C257.698 86.5417 255.639 88.3912 251.713 88.4261C242.709 88.4959 233.688 88.4785 224.685 88.461C221.038 88.4436 218.892 86.7162 218.892 82.8777C218.892 73.6826 218.857 64.4701 218.944 55.2751C218.979 51.5936 220.776 49.7615 224.702 49.8139C233.706 49.9709 242.727 49.936 251.73 49.8837C255.9 49.8488 257.61 51.8727 257.523 55.9032C257.436 60.3001 257.506 64.7144 257.506 69.1287Z" fill="#F04C39"/>
<path fill-rule="evenodd" clip-rule="evenodd" d="M490.618 126.794C490.618 108.77 490.618 91.8283 490.618 73.9442C475.874 80.1382 461.845 86.0182 446.822 92.3518C461.793 104.129 475.892 115.209 490.618 126.794Z" fill="#F04C39"/>
<path fill-rule="evenodd" clip-rule="evenodd" d="M486.134 135.047C472.437 125.573 459.63 116.709 446.84 107.846C446.212 108.195 445.601 108.543 444.973 108.892C447.747 118.105 449.754 127.649 453.505 136.443C458.181 147.435 465.771 149.145 475.717 142.672C479.032 140.526 482.103 138.013 486.134 135.047Z" fill="#F04C39"/>
<path fill-rule="evenodd" clip-rule="evenodd" d="M416.357 154.85C414.525 147.348 412.309 140.805 411.472 134.087C410.669 127.544 411.297 120.809 411.297 114.232C397.914 116.901 370.014 142.619 358.201 164.028C378.808 164.359 397.792 158.794 416.357 154.85Z" fill="#F04C39"/>
<path fill-rule="evenodd" clip-rule="evenodd" d="M615.951 70.4896C628.427 82.2844 640.885 94.0617 654.687 107.13C654.687 97.0104 654.687 88.4958 654.687 79.9638C654.687 69.0588 654.687 69.0588 643.799 69.0588C634.778 69.0588 625.775 69.0588 616.754 69.0588C616.492 69.5299 616.213 70.0185 615.951 70.4896Z" fill="#F04C39"/>
<path fill-rule="evenodd" clip-rule="evenodd" d="M491.787 327.114C482.801 316.401 474.286 306.036 465.44 295.986C464.027 294.381 461.13 293.422 458.879 293.317C451.795 292.985 444.676 293.282 437.592 293.16C433.806 293.108 432.323 294.067 433.614 298.237C436.388 307.293 438.866 309.369 448.445 307.973C453.941 307.171 457.745 308.601 460.362 313.539C461.706 316.069 463.433 318.407 465.021 320.797C472.716 332.488 477.811 333.814 491.787 327.114Z" fill="#F04C39"/>
<path fill-rule="evenodd" clip-rule="evenodd" d="M436.057 272.571C446.962 272.571 457.291 272.763 467.604 272.362C469.244 272.292 471.878 269.71 472.158 268C473.065 262.172 473.065 256.188 473.553 250.273C473.85 246.661 472.297 245.388 468.825 245.841C456.227 247.446 440.855 257.27 436.057 272.571Z" fill="#F04C39"/>
<path fill-rule="evenodd" clip-rule="evenodd" d="M340.508 327.777C339.898 327.305 339.252 327.061 339.043 326.625C337.577 323.38 335.029 320.169 331.767 322.403C329.271 324.095 327.614 328.23 327.23 331.476C326.776 335.209 330.004 337.041 333.686 337.286C338.851 337.635 344.015 338.333 349.163 338.176C353.822 338.019 356.387 333.971 355.671 329.172C354.886 324.025 351.344 320.78 347.104 322.263C344.713 323.066 342.934 325.665 340.508 327.777Z" fill="#F04C39"/>
<path fill-rule="evenodd" clip-rule="evenodd" d="M301.807 285.221C304.442 287.437 305.873 289.583 307.234 289.548C308.543 289.513 310.776 287.21 310.793 285.884C310.811 284.471 308.926 282.22 307.478 281.836C306.309 281.522 304.547 283.459 301.807 285.221Z" fill="#F04C39"/>
<path fill-rule="evenodd" clip-rule="evenodd" d="M371.305 286.739C373.853 288.746 375.353 290.839 376.766 290.787C378.267 290.735 379.68 288.606 381.129 287.385C379.802 285.849 378.703 283.494 377.063 283.04C375.894 282.709 374.01 284.907 371.305 286.739Z" fill="#F04C39"/>
<path fill-rule="evenodd" clip-rule="evenodd" d="M244.28 58.3983C243.931 58.0668 243.791 57.8399 243.704 57.8574C239.097 58.3459 234.491 58.8519 229.867 59.3405C229.518 65.7962 229.134 72.2345 228.925 78.6902C228.908 79.3707 229.972 80.6967 230.548 80.7142C235.678 80.8363 240.825 80.8886 245.937 80.4873C246.548 80.435 247.508 77.5561 247.298 76.1428C247.089 74.8517 245.71 73.3337 244.454 72.7405C243.198 72.1298 241.261 72.9498 239.97 72.3741C237.946 71.4842 234.718 70.0011 234.683 68.6925C234.596 66.3196 236.009 63.4233 237.702 61.5912C239.202 59.9511 241.959 59.4626 244.28 58.3983Z" fill="#F04C39"/>
</g>
</mask>
<g mask="url(#mask0)">
<rect width="647" height="628.167" transform="matrix(-1 0 0 1 613 -30)" fill="#F04C39"/>
</g>
<defs>
<clipPath id="clip0">
<rect width="835" height="469" fill="white" transform="matrix(-1 0 0 1 835 0)"/>
</clipPath>
</defs>
</svg>
