<svg xmlns="http://www.w3.org/2000/svg" id="code-of-conduct-bird" x="0" y="0" version="1.1" viewBox="0 0 835 469" xml:space="preserve"><style>.st0{fill:#f04c39}</style><path d="M695 98.6c-9 1.3-18 2.8-27.4 4.2-.1-6.8 3.3-10.1 8-12.4 19.7-9.5 40.4-12.6 61.7-7.3 27.7 6.9 52.1 20.6 74.7 37.6 7.6 5.7 14.8 11.9 23 18.5-.4-19.1-6.5-34.9-18.8-48-27.5-29.3-63.1-40.9-101.8-43.5-24.5-1.6-46.3-7.9-65.5-23.3C629 8.4 606.4 3 581.3 6.9c-42.4 6.6-78.3 49.6-54.6 97.3 3.6 7.1 5.8 15 7.3 22.9 1.6 8.7 1.7 17.8-1.6 27.9-2.3-2.5-3.9-3.8-5-5.4-23.4-33.9-54.3-59.5-89-80.9-47-28.9-98.4-46.8-151.5-60.4-13.2-3.4-26.6-7.7-40-7.8C167.1-.3 87.3.1 7.5 0 2.8 0 1.2 1.4 1.2 6.2.9 40 .6 73.9 0 107.7c-.1 8.6 2.5 16.3 7 23.3 14.3 22.2 49 27.4 69.8 10.4 1.7-1.4 3.5-2.8 5.7-4.5 2.6 3.6 4.9 6.6 7.1 9.7 14.8 20.3 51.6 21.4 69.5 4.7 3.2-3 4.8-2.5 7.7.7 5.1 5.6 10.4 12.2 17 15 19 8.1 37.8 7.9 54.4-6.7 5.8-5.2 6-5 10.7.8 5 6.1 10.8 10.9 18.3 13.6 22.2 7.9 42.5 2.4 57.5-16.3 3.1-3.9 5-4 9.2-1 5.8 4.1 12.7 6.8 19.1 10.1 1.4.7 2.9 1.2 6 2.5-3.5 1.5-5.3 2.4-7.2 3-23.9 7.1-44.7 19.4-61.2 38.3-2.6 3-5.5 3.6-9.3 2.8-30.4-6.7-60.8-13.3-91.2-19.9-44.1-9.5-88.2-18.9-132.3-28.5-3.2-.7-4.8-.5-6 3-14.8 41.1-23 83.2-20.8 127.1 1.2 24.7 5.6 48.8 12.9 72.4 6.7 21.5 18 40.7 29.7 59.7 2.3 3.8 5 2.6 7.9 1.4 18.2-7.3 36.4-14.7 54.5-22.1 47.4-19.5 94.8-39 142.2-58.7 4.4-1.8 7.3-1.4 10.5 2.3 12.5 14.5 28.1 24.4 46 30.8 7.2 2.6 14.6 4.7 21.9 7.1 2.6.8 5.3 2.1 3.6 5.2-5.4 9.6-6.7 22.9-22.9 24.8 11.2 11.4 21.3 21.8 31.4 32.1-.2.6-.5 1.3-.7 1.9-14 1.1-28.5 1-38 15.7 2.8.2 4.4.4 5.9.2h47.9c16.2 0 32.4-.5 48.5.1 15.8.6 31.5-1.9 47.3-.1 4.6.5 6.3-1.1 5.2-6-2.1-9.3-5.9-13.2-15.5-12.5-17.6 1.2-35.1 3.2-52.7 5.1-8.3.9-16.2 1.1-22.6-5.5-8.4-8.7-16.8-17.5-25.3-26.1-3-3-3.2-5.8-.6-9.1 4.1-5.3 7.7-11.1 12.1-16.1 1.6-1.8 5.2-3 7.7-2.7 22.6 3.2 45.1 4.1 67.7.4 14.9-2.4 29-7 42.6-13.6 1.9-1 6.1-1.1 6.9 0 8.2 11.4 19.2 22.1 12.8 39.6 15-2.3 29.3-4.4 45.3-6.8-11 18.2-20.4 35.1-1.3 52.9.8-2.6 1.3-4.4 1.9-6.1 3.1-9 5.9-18.2 9.5-27.1 3.9-9.6 10-17.6 19.4-22.8 4-2.2 7.8-5 11-8.3 15.3-15.6 28.3-32.4 29.1-55.8.2-7 4-9.3 10.9-8 3.2.7 6.4 1.5 9.6 2.3-3.2-4.8-6.7-8.9-11-12-9.5-6.9-18.1-4.8-24.1 5.4-9.8 16.5-19.6 33.1-29.3 49.7-3 5.1-7.1 8.4-13.2 9.2-12.4 1.7-24.7 3.5-37 5.4-3.5.6-5.5-.6-6.5-3.9-1.8-5.7-3.3-11.5-5.7-16.9-3.5-8-2.7-13.4 4.7-19.6 25.5-21.6 41.5-49.7 52.7-80.7 12.8-35.5 20.2-72 16.9-110.1-1.5-17.9 4.6-25.4 21.3-31.3 9-3.2 17.3-8.8 25.9-13.3 2.7-1.3 5.3-3.3 8.2-3.8 26.4-4.4 52.9-6 79.7-2.7 26.6 3.3 51.4 10.8 73.4 26.4.8.6 1.6 1.1 2.4 1.6.8.4 1.7.8 2.5 1.2C783.5 108.4 744 91.6 695 98.6zm130 22.9c-2.1-1.1-3.8-1.6-5-2.7-16.9-15.2-36.1-25.8-58.2-31.4-2.9-.7-5.7-2.2-8.5-3.4.1-.7.3-1.5.4-2.3 5.6 0 11.3.3 16.8-.2 2.2-.2 4.3-1.8 6.4-2.7-1.5-1.9-2.7-4-4.5-5.5-3.6-3-7.6-5.6-11.8-8.6 16-3.3 61.3 36.4 64.4 56.8zM713.7 58.1c9.9.4 19.8.8 29.6 2.4 3.4.6 6.8 3.9 9.4 6.7 2.5 2.7.9 5.4-2.5 6.5-1.4.4-3.2 1-4.5.7-13.3-3.5-26.5-7.1-39.7-10.9-1.2-.3-2.1-1.7-4.3-3.7 5-.8 8.5-1.9 12-1.7zM13.2 93.9c.5-3.7-.3-8.9 1.9-10.8 2.5-2.2 7.5-1.6 11.4-2.3.2.6.4 1.3.6 1.9-4 3.9-7.9 7.9-11.9 11.8-.7-.2-1.3-.4-2-.6zm4.1 27.3c-3.6-3.4-3.6-9.1-.1-12.2 8-6.9 16.7-13 24.1-20.5 10.4-10.6 23.1-6.8 35.2-6.9 1.1-.1 3.3 3.2 3.2 4.8-.2 1.9-1.9 4.8-3.6 5.3-2.8.8-6 .2-9.1.2-8-1.2-14 2.2-19.5 7.6-7.3 6.8-15 13.1-22.7 19.5-2 1.7-3.9 5.7-7.5 2.2zm57.9-6.1c-10.6-1.3-16.7 4.8-22.8 11.7-2 2.3-4.4 4.3-6.6 6.4-5.4 5-8.8 5-14.5.4 7.6-8.2 15.4-15.9 22.2-24.2 5.8-7 13-8 21.2-7.3 3.5.3 5.3 1.7 5.2 5.4-.1 3.5-.1 8.2-4.7 7.6zM80 49.3c-.5 15.1 2.9 15.3-15.2 15.2H46.3c-8.7 0-17.3 0-25.9.1-4.7 0-6.9-2-7.1-6.9C12.7 42 12.6 42 28.1 42c14.8 0 29.6.1 44.4-.1 5.3-.1 7.7 1.8 7.5 7.4zm26 19c15-.1 29.9-.3 44.9-.6 8.1-.2 8.6.1 8.6 8 0 13.1 0 13.1-12.9 13.1h-20.7c-8.6 0-17.3-.1-26 .1-4.9.1-6.8-2.2-6.9-7-.3-13.5-.4-13.5 13-13.6zm-12.6 55.6c0-5.8-.2-11.6.1-17.3.1-1.1 1.8-2.9 2.9-3 3.9-.3 7.8-.1 13.6-.1-5.2 8.1-9.4 14.6-13.6 21.1-1-.3-2-.5-3-.7zm58.7-4.7c-2.5 0-5.5 1.8-7.4 3.6-7.1 6.9-13.9 14.2-20.9 21.4-5.3 5.4-16.5 4-20.1-2.8-.7-1.2-.1-3.9.9-5.1 8.3-10.1 16.7-20.2 25.3-30 1.4-1.7 4.2-2.8 6.5-3 6-.4 12-.3 17.9-.1 4.5.2 5.2 1.4 5.2 8.3.7 4.9-1.3 7.5-7.4 7.7zm21.9 15c-.5-4.2-1.2-7.2-1.2-10.1-.1-20.8-.1-41.5-.1-62.3 0-7.1 1.3-8.4 8.4-8.4h50.7c7.2 0 9.6 2.8 7.5 9.7-1.3 4.1-3.5 8.2-6.4 11.3-17.5 18.6-35.3 36.9-53.1 55.3-1.4 1.4-3.2 2.5-5.8 4.5zm58.9.9c-6.8-.4-13.7-.6-20.6-1.2-4.6-.4-8 1-11.1 4.5-3.5 4-7.3 7.9-11.4 11.3-1.4 1.2-4.7 1.7-6.2.9-3.2-1.8-1.2-4.2.6-6.1 5.8-5.9 11.4-12 17.4-17.6 1.9-1.8 4.9-2.8 7.6-3.1 4-.5 8.1-.1 12.1-.1s8 0 12 .1c3.4-.1 6.1 0 6 4.7-.1 4.6-1.6 6.9-6.4 6.6zm5.1-27.7c-4.1 5.2-11.2 1.3-17 2.2-.3-.7-.7-1.3-1-2 5.8-6 11.5-12 18.5-19.4 2 7.8 3 14.7-.5 19.2zm41.8 56.6c-4.4-.3-8.1-1.5-8.1-6.9 0-9.3-.1-18.5-.1-27.7 0-10.1 0-10.1-10.1-10.5-7.7-.3-8.3-.9-8.3-8.9V77.1c0-11.7-.1-23.5.1-35.1 0-1.7 1.6-3.3 2.5-4.9 1.6 1.5 4.5 3 4.6 4.6.5 6.3.2 12.7.1 19-.3 12.7-.4 25.3-.9 38-.2 4.7 1.7 6.2 6.1 6 3.6-.2 7.3.1 10.9 0 5.1-.1 7.3 2.1 7.2 7.3-.2 15.1 0 30.3-.1 45.5 0 2.7 1.4 6.8-3.9 6.5zm34.4-29.2c-6.6-.8-7.7 2.7-7.3 8.2.3 3.4.4 6.9-.1 10.3-.3 2.3-1.4 4.8-2.8 6.6-1.1 1.3-3.6 2.3-5 1.9-1.2-.3-2.4-2.9-2.5-4.5-.3-9.7-.3-19.5-.2-29.3 0-3.2 1.7-4.9 5.2-4.5 1.8.2 3.8 0 5.7 0v.3c2.3 0 4.6 0 6.9.1 3.7 0 5.1 2.2 5.2 5.5.1 3.5-1.6 5.8-5.1 5.4zm4.5-29.3c-5.4 5-12 2.1-18 2.3-4.2.1-4.4-3.5-4.5-6.7-.4-11-.4-11-11.7-11.1-7.7-.1-8.2-.5-8.2-8.2V65.7c0-5.4-.1-10.7.1-16.3 0-2.8-1.2-7 3.5-7 4.3 0 8.1 1.8 8.3 7 .2 6 .2 12 .2 17.9 0 9.1 0 9.1 9.2 9.1 5.2 0 10.4.1 15.6 0 3.6 0 6 1 6 5.1 0 7.3.1 14.5.1 21.8 0 .8-.1 1.8-.6 2.2zm93.7-3.2c.1-6.3 1.9-7.8 7.2-4.3 11.3 7.3 22.7 14.7 32.7 23.5 14.5 12.9 28 26.9 41.6 40.7 3.1 3.2 5 7.5 8.2 12.3-11.8 3.3-22.3 2.9-32.6 1.4-17.5-2.5-34.8-6.2-52.2-8.9-6.4-1-13-.7-19.5-1-2.1-.1-4.1-.2-7.9-.4 2.5-2.6 3.6-4.2 5.1-5.4 12.1-9.7 18.1-22.1 17.4-37.7-.3-6.7-.1-13.5 0-20.2zM332.8 123V65.3c.1-6.4 1.2-7.3 7.2-4.7 18.2 7.7 36.3 15.6 54.3 23.8 2.2 1 4.7 4.2 4.8 6.4.4 12.3 1.1 24.6-.2 36.8-2.3 21.2-19.3 30.2-38.5 27.7-18.1-2.3-27.5-13.9-27.6-32.3zM57.2 331.3c-.3-4 1.2-5.6 5.2-5.6 10.6.1 21.1.1 31.7 0 6.1 0 6.6-.7 5.2-6.8-1.5-6.3-2.9-12.7-4.6-19-1.3-4.6-.2-6.8 5.1-6.6 13.2.6 26.5.7 39.7 1.2 7.8.3 8.4-.2 6.4-7.8-1.7-6.5-3.3-13.1-4.8-19.6-1.6-6.8-1-7.7 5.7-7 15.6 1.6 31.2 3.4 46.9 5.1 7.8.9 15.6 1.8 23.4 2.8 3.8.5 5.1-1 5.2-4.8.4-12.7.6-12.8 12.8-10.1 8.8 1.9 17.6 4 26.4 5.9 3.7.8 5.8 2.5 5.4 6.7-.5 6.5-.8 13-1.3 19.5-.3 3.4-2.2 4.7-5.5 4.3-21.6-2.5-43.1-5-64.7-7.4-8.5-.9-17.1-1.7-26.8-2.7 1.7 5 3 9 4.4 13 1.3 3.9 2.6 7.9 4.2 13-20.2.6-39.6 1.2-60.1 1.8 1.7 8.2 3.3 16 4.9 23.8.3 1.5.5 3 .9 4.5.8 3.1 0 4.7-3.5 5-15.3 1.4-30.5 3-45.8 4.5h-1.2c-12.7.8-14.1-.6-15.2-13.7zm182 20.3c-7.4.9-14.2 1.8-20.9 2.4-13.3 1.2-26.7 2.5-40.1 3.5-3.7.2-5.3 1.6-5.1 5.2v1.2c-.3 17.6 2.7 14.2-15.1 17.5-25 4.7-50.2 8.7-75.4 12.7-2.2.3-6-1.4-6.9-3.2-3.3-6.2-5.6-12.9-9-21.1 8.2-1 15.4-2 22.6-2.7 19.2-1.9 38.5-3.8 57.8-5.4 4.7-.4 5.2-2.6 4.3-6.5-1.5-6.1-2.9-12.3-4.2-18.5-1-4.5.5-6.6 5.6-6.6 16.7-.1 33.4-.6 50.1-.9 2.3 0 4.5-.2 7.7-.3-2.4-7.5-4.4-13.9-6.5-21.6 5.8.4 10.3.5 14.8 1 14.4 1.6 28.8 3.9 43.3 5.1 6.2.6 8.9 3.5 10.2 8.9.5 2.2 1.2 4.3 2.1 7.5-13.9 1.2-27.1 2.4-41.2 3.6 2 6.3 3.8 11.7 5.9 18.2zm35.4-117.4c-1.2 1.5-4.7 2.3-6.9 1.8-20.4-4.4-40.7-9.1-61.1-13.7-2.2-.5-4.4-.8-7.8-1.5 0 5.4-.2 10.3.1 15.2.3 4.3-1.5 5.9-5.7 5.4-12.4-1.4-24.8-2.6-37.2-3.9-15.6-1.6-31.2-3.4-48-5.3 2 8.7 3.8 16.9 5.9 24.9 3.4 13.1 3.4 13-10.1 12.8-13.2-.1-26.4 0-40.3 0 .3 1.7.5 3.7.9 5.7 1.2 5.6 2.8 11.1 3.9 16.8.6 3 .3 6.2.4 9.3-4 .1-8 .5-11.9 0-1.2-.2-3-3-3-4.6.1-15.2.6-30.4 1-45.5.1-4.4 3.1-5.2 6.7-5.4 7.4-.4 14.9-.9 22.4-1.2 4.6-.1 7-1.7 6.7-6.9-.6-8.8-.7-17.7-1-26.5-.1-4 .8-5.9 5.7-5 23.6 4.4 47.2 8.4 70.8 12.5 2.2.4 4.5.5 7.6.9-.4-6.4-.8-12.2-1.1-18.1-.2-3.3 1.1-4.6 4.5-3.8 33.5 7.9 67.1 15.8 100.7 23.8.5.1 1 .5 2.5 1.3-2 3.9-3.3 7.9-5.7 11zm290.3 55.6c-12.2 25.8-27.6 49.3-50.7 66.9-26.2 20-56.3 28.2-91.4 28.8-29.7-.8-61-7-90.6-19.5-28.6-12.2-47.6-33.7-52-65-7.1-50.8 11.3-87.7 61.6-110 31.5-14 64.3-14.6 97.7-6.9 14.2 3.2 29 6.8 43.2 5.9 19.5-1.2 34.1 7.6 48.9 17 20.9 13.3 33.5 32.2 37.1 57 1.3 9 .1 17.6-3.8 25.8zm23-95.2c-1.8 11.2-2.6 22.5-3.9 33.7-.3 2-1.1 4-1.6 6-.6.2-1.2.3-1.8.5-4.4-7.7-9.6-15.1-12.7-23.3-1.5-3.9.3-9.5 1.7-13.9 3.6-11.8-6.5-24-18.8-21.9-2.4.5-4.9 3.5-6.1 6-3.9 8.5-4.6 8.9-13.1 4.5-1.8-.9-3.4-2.1-5.8-3.5 8.6-8.6 15.6-17.2 29.3-14.3 9.6 2 18.5 4.6 26.1 11 4.8 3.9 7.8 8.2 6.7 15.2zm1.1-43.4c-.8 2.9-1.7 5.8-2.9 9.4-3.3-2.1-5.9-3.5-8.4-5.2-6.9-4.7-14.3-7.6-22.7-6.6-5.6.7-7.2-1.6-6.6-6.9.5-3.9.1-7.9.1-13.4 4 2.1 6.5 3.7 9 4.5 8.3 2.8 16.6 5.9 25.1 7.8 8.9 2 9 1.4 6.4 10.4zm44.7-33.3c-25.6 16.9-61.9 13.7-84.5-7-24.1-22.1-22.2-56.1 4.4-77.6 25.2-20.3 72.9-20.5 96.3 12 6.4 8.9 9.4 17.6 9.5 29-.4 19.4-10.2 33.4-25.7 43.6z" class="st0"/><path d="M628.8 318.6c5.3 1.1 10.9 2.2 15.9 3.2 3.5-2.6 7-5.3 10.9-8.2-6.6-9.6-20.8-6.8-26.8 5zM486 448.2c1.4 2 2.9 3.8 3.9 5.8 1.1 2.2 1.4 4.8 2.5 7 .7 1.3 2.2 2.5 3.6 3 3.3 1.2 6.7 2 10.5 3.1 3.3-9.7-.8-17-20.5-18.9zm-55.9-159.6c2-40.3-34.4-71-69.5-70.8-33.8.2-70 26.6-70.5 70.4-.5 38.7 31.7 69.7 70.7 70.2 34.6.4 70.9-30 69.3-69.8zm-73.7 56.3c-8.7-2.2-17.1-5.1-25.5-8.3-4.9-1.9-4.6-5.2-1.3-9 11-12.8 21.8-25.8 32.9-38.9-7.2-7.3-7.7-7.3-13.9-1.1-9.5 9.6-18.9 19.2-28.4 28.7-2 2.1-4.2 5.5-7.5 2.1-3-3.1-4.4-6.6-.5-10.5 8.1-7.9 15.9-16.2 24.1-24 3.5-3.3 5-6.9 4.7-11.7-.6-10.2-.7-20.3-1.3-30.5-.3-4.6 1.6-7.2 6.1-8.2 22-4.8 41.5-.2 56.6 16.8 15.1 17 18.8 36.8 10.9 58.5-1.9 5.4-4.9 8.6-11 7.5-11.8-2.1-20.3 1.8-25.3 13.1-1.3 2.9-3.9 5.2-5.4 8.1-3.3 6.3-8.5 9.1-15.2 7.4zm136.5-113c-32.3 0-58.6 26-58.7 57.9-.1 32.2 26 58.1 58.4 58.1 32.7 0 58.4-25.4 58.4-57.8 0-32.5-25.7-58.2-58.1-58.2zM448.7 295c-.7-2.1-.5-4.5-.7-6.8.2-8.9 1.8-10.8 10.4-11.9 5.9-.8 13.1 3.7 14.6 9 .9 3.3-4.1 9.1-9.9 11.3-5.8 2.3-13.2 1.6-14.4-1.6zm73.9 34.8c-3.4-1.6-6.7-3.2-10.9-5.2v8.6c0 4.7-2 8.2-6.8 8.4-8 .2-16 .1-23.9-.7-2-.2-4.2-3.5-5.1-5.9-1.1-2.9-.9-6.3-1.4-10-4.3 2.7-8.2 5.1-12.8 7.9 1-5.5 15.6-17.1 21.3-17.5 15.1-.9 30.3-1.6 40.4 12.8-.3.6-.5 1.1-.8 1.6zm8-23c-3.2-.3-6.3-1.2-10.1-2 2.3 4.5 4.2 8.6 6.2 12.6-.3.3-.6.7-.9 1.1-6.8-3.1-13.4-7.6-20.5-8.9-7.6-1.4-15.9-.9-23.4.9-7.4 1.8-14.1 6.2-21.1 9.4-.5-.4-1-.9-1.5-1.3 2.1-3.7 4.2-7.4 6.9-12.1-3.5 1-6.2 2.3-8.9 2.4-1.8.1-3.7-1.4-5.6-2.2 1.3-1.4 2.5-3.2 4.1-4 2.5-1.2 5.5-1.5 8.2-2.5 11.6-4.6 13.4-7.4 13.1-19.7-.4-13.8-.4-13.8-14.4-14.2-1.6 0-3.3-.3-4.9-.5.5-6.3 4.5-10.2 11-10.4 4.2-.1 7.5-.2 8.2-5.5.2-1.2 2.9-2.9 4.3-2.8 1.2.1 3.2 2.4 3.2 3.7.2 12.3.5 24.6-.2 36.9-.2 2.8-3.8 5.4-5.8 8.1-1.2 1.6-2.2 3.2-3.3 4.8 1.9.1 3.8.3 5.7.4.5 0 1.1-.1 1.6-.2 4.7 5.9 15.7 5.9 20 .4 2.9.2 5.6.5 8.3.7.1-.5.2-1.1.3-1.6-.6-.7-1-1.7-1.7-2.1-8.2-4.7-9.5-12.2-9-20.8.5-8.3-.1-16.5.2-24.8.1-1.9 1.6-3.8 2.5-5.7 1.6 1.5 4.3 2.9 4.6 4.6.8 4.9 4.2 3.7 7 3.8 7.4.2 9.9 1.9 12.2 9.7-4.7 0-9 .2-13-.1-4.2-.2-6 1.4-5.7 5.7.2 2.7 0 5.4 0 8.1 0 12.8 4 18 16.5 21.5 2.2.6 4.6.6 6.7 1.4 1.2.5 2 1.9 3 2.9-1.2.8-2.6 2.4-3.8 2.3zm6.1-13.8c-.8 1.6-3.2 2.8-5 3.2-6.4 1.4-15.5-2.7-18.7-8.6-.8-1.4-.8-4.2.1-5.6 2.9-4.7 7.1-7.4 12.5-7.1 9.5 0 15.5 9.9 11.1 18.1z" class="st0"/><path d="M417.9 224.4c7.2 6.5 12.3 15.3 18.9 23.7 26.9-33.9 62.1-37.5 101.7-23.5-3.7-4-7.5-7.9-11.9-10.6-14.3-8.6-28.6-17.4-46.7-14.4-3.5.6-7.3-.1-10.9-.7-14.3-2.6-28.8-4.9-43-8.1-25-5.6-47.7.9-70.7 12.5 9.3 1.6 17.8 2.9 26.2 4.7 13.2 2.9 26.3 7.3 36.4 16.4zm44-16.2.6 2.1c-7.3 4.8-14.6 9.7-21.8 14.3-.8.5-2.9-.5-4-1.3-8.4-6.3-16.7-12.7-25-19.1-1-.7-1.7-1.7-3.7-3.9 19.6-1.3 36.9 2.2 53.9 7.9zm-29.8 111.7c-1.3 4.8-2.4 8.3-3.2 11.8-2.3 10.8-8.7 18.9-18.2 24-6.1 3.2-12.6 6.2-19.2 7.6-11.1 2.3-22.5 3.2-33 4.6 63.4 24.2 119.2 7.2 145.9-13-34.6 9.3-56.6-5.7-72.3-35zm26.3 46.7c-18.4 5.3-37 8.1-56.7 3.1 1.3-.9 2.5-1.8 3.8-2.6 8.2-4.9 16.5-9.5 24.5-14.7 3.3-2.2 5.3-2.2 8.5.2 4.8 3.8 10.2 6.7 15.4 9.9 1.6 1 3.2 1.7 4.8 2.6l-.3 1.5zM628 35.8c-14.7-13.3-40.4-15.1-56.9-3.9C554.7 43.1 550 59.4 552 77.8c3.4 31 30.8 43.8 54.9 37.9 21.3-5.2 32.8-22.5 32.8-46.8.3-12.5-2-24.1-11.7-33.1zm-17.7 52.6c-9 .1-18 .1-27 0-3.9-.1-6-1.9-5.8-6.1.1-4.4 0-8.8 0-13.2 0-4.4.1-8.8-.1-13.3-.1-4 1.6-6 5.8-6 9 0 18 .1 27-.1 4 0 5.8 1.8 5.8 5.5.1 9.2.1 18.4.1 27.6 0 3.9-2.2 5.6-5.8 5.6zM344.4 74v52.8c14.7-11.6 28.8-22.7 43.8-34.4-15-6.3-29.1-12.2-43.8-18.4zm37.2 62.4c3.7-8.8 5.7-18.4 8.5-27.6-.7-.3-1.3-.7-1.9-1-12.8 8.9-25.6 17.7-39.3 27.2 4 3 7.1 5.5 10.5 7.6 9.9 6.5 17.5 4.8 22.2-6.2zm95.2 27.6c-11.8-21.4-39.7-47.1-53.1-49.8 0 6.6.6 13.4-.2 19.9-.9 6.8-3.1 13.3-4.9 20.8 18.6 3.9 37.6 9.5 58.2 9.1zM191.2 69c-10.9 0-10.9 0-10.9 10.9v27.2c13.8-13 26.2-24.8 38.7-36.6-.2-.5-.5-1-.8-1.5h-27zm183.5 244.5c2.6-5 6.4-6.4 11.9-5.6 9.5 1.4 12-.6 14.8-9.7 1.3-4.2-.2-5.2-4-5.1-7.1.2-14.2-.1-21.3.2-2.3.1-5.2 1.1-6.6 2.7-8.8 10-17.3 20.4-26.3 31.1 14 6.7 19.1 5.4 26.8-6.3 1.6-2.4 3.4-4.8 4.7-7.3zm-7.3-41.1c10.3.4 20.6.2 31.5.2-4.8-15.3-20.1-25.2-32.8-26.7-3.4-.5-5 .8-4.7 4.4.5 5.9.5 11.9 1.4 17.7.3 1.7 3 4.3 4.6 4.4zm135.9 50c-3.3-2.3-5.8 1-7.3 4.2-.2.5-.9.7-1.5 1.2-2.4-2.1-4.2-4.7-6.6-5.5-4.3-1.5-7.8 1.8-8.6 6.9-.7 4.8 1.8 8.8 6.5 9 5.2.1 10.3-.6 15.5-.9 3.7-.2 7-2.1 6.5-5.8-.3-3.3-2-7.4-4.5-9.1zm24.5-32.9c1.3.1 2.8-2.1 5.4-4.3-2.7-1.7-4.5-3.7-5.7-3.4-1.4.3-3.3 2.6-3.3 4 .1 1.4 2.3 3.7 3.6 3.7zm-64.1-2.8c-2.7-1.8-4.6-4-5.8-3.7-1.7.4-2.8 2.8-4.1 4.3 1.5 1.2 2.9 3.3 4.4 3.4 1.5.1 3-2 5.5-4z" class="st0"/><path d="M591.3 57.9c-.1-.1-.3.2-.6.5 2.3 1.1 5.1 1.6 6.5 3.2 1.7 1.8 3.1 4.7 3 7.1 0 1.3-3.3 2.8-5.3 3.7-1.3.6-3.2-.2-4.5.4-1.2.6-2.6 2.1-2.8 3.4-.2 1.4.8 4.2 1.4 4.3 5.1.4 10.3.3 15.4.2.6 0 1.6-1.3 1.6-2-.2-6.4-.6-12.8-.9-19.3l-13.8-1.5z" class="st0"/></svg>