<?xml version="1.0" encoding="utf-8"?>
<!-- Generator: Adobe Illustrator 21.0.2, SVG Export Plug-In . SVG Version: 6.00 Build 0)  -->
<svg version="1.1" id="css-lovers-text" xmlns="http://www.w3.org/2000/svg" xmlns:xlink="http://www.w3.org/1999/xlink" x="0px"
	 y="0px" viewBox="0 0 428 384" style="enable-background:new 0 0 428 384;" xml:space="preserve">
<g id="css-text">
	<path id="c" d="M129,61.5c-7.8-20.4-22.1-30.7-43.5-30.7c-14.3,0-26.4,5-35.9,15.3c-9.3,10.3-14.1,25.1-14.1,44.5
		c0,19.3,4.8,34.2,14.1,44.5c9.5,10.3,21.6,15.3,35.9,15.3c21.4,0,35.7-10.3,43.5-30.7l29.4,7.5c-8.3,33.9-34.7,53.3-72.9,53.3
		c-23.4,0-43-8-59-23.9c-16.1-15.7-24.1-37.8-24.1-66s8-50.3,24.1-66.1S62.2,0.7,85.6,0.7c38.2,0,64.6,19.3,72.9,53.3L129,61.5z"/>
	<path id="s" d="M257.9,49.4c-6.3-12.3-14.6-18.6-24.4-18.6s-16.8,6.8-16.8,16.1c0,11.1,12.1,19.3,26.4,26.1
		c21.1,9.3,49,22.4,48.7,52.8c0,34.2-22.1,54.8-56.3,54.8c-15.3,0-28.6-4.8-39.7-14.1c-11.1-9.5-18.1-21.4-20.9-35.2l26.4-16.6
		c6.8,23.9,18.3,35.7,34.9,35.7c15.3,0,22.9-7.5,22.9-22.9c0-10.3-11.3-18.3-26.1-24.6c-20.9-8.8-48-22.1-47.5-54.5
		c0-13.3,4.5-24.6,13.6-33.9c9.3-9.3,20.6-13.8,34.4-13.8c23.9,0,40.7,10.6,50.8,31.9L257.9,49.4z"/>
	<path id="s_1_" d="M392.8,49.4c-6.3-12.3-14.6-18.6-24.4-18.6s-16.8,6.8-16.8,16.1c0,11.1,12.1,19.3,26.4,26.1
		c21.1,9.3,49,22.4,48.7,52.8c0,34.2-22.1,54.8-56.3,54.8c-15.3,0-28.6-4.8-39.7-14.1c-11.1-9.5-18.1-21.4-20.9-35.2l26.4-16.6
		c6.8,23.9,18.3,35.7,34.9,35.7c15.3,0,22.9-7.5,22.9-22.9c0-10.3-11.3-18.3-26.1-24.6c-20.9-8.8-48-22.1-47.5-54.5
		c0-13.3,4.5-24.6,13.6-33.9c9.3-9.3,20.6-13.8,34.4-13.8c23.9,0,40.7,10.6,50.8,31.9L392.8,49.4z"/>
</g>
<g id="lovers">
	<path id="l" d="M1.1,188.8h19.2v85.6h43.8v17.7h-63C1.1,292.1,1.1,188.8,1.1,188.8z"/>
	<path id="o" d="M73.3,254.9c0-11.1,3.4-20.2,10.2-27.4c6.8-7.2,15.9-10.9,27.6-10.9s20.8,3.7,27.6,10.9s10.2,16.4,10.2,27.4
		s-3.4,20.4-10.2,27.6s-15.9,10.8-27.6,10.8s-20.8-3.5-27.6-10.8C76.7,275.3,73.3,266,73.3,254.9z M92.5,254.9
		c0,6.3,1.6,11.8,5,16.2c3.4,4.3,7.8,6.5,13.6,6.5c5.8,0,10.2-2.2,13.6-6.5c3.4-4.4,5-9.9,5-16.2s-1.6-11.8-5-16.1
		c-3.4-4.4-7.8-6.6-13.6-6.6c-5.8,0-10.2,2.2-13.6,6.6C94.1,243.1,92.5,248.5,92.5,254.9z"/>
	<path id="v" d="M154.6,217.7H173l15,51.8l15.1-51.8h18.4l-25.2,74.4h-16.5L154.6,217.7z"/>
	<path id="e" d="M297.7,260.8h-51.2c0.4,9,6.9,16.8,17.6,16.8c7.5,0,13.6-3.8,18-11.5l14.8,5.5c-6.3,14.5-17.6,21.7-33.8,21.7
		c-25.5,0-35.7-20.7-35.7-38.4s10.2-38.4,35.7-38.4c11.8,0,21.4,4.9,26.7,12.4c5.3,7.2,8,15.9,8,24.3v7.6H297.7z M247,246.3h32
		c-2.1-9.4-7.4-14.2-15.9-14.2C254.3,232.2,248.3,238.5,247,246.3z"/>
	<path id="r" d="M332.5,292.1h-18.3v-74.4h18.3v12.1c5.3-8.4,13.3-13.3,22-13.3c2.8,0,5.8,0.4,9,1.5l-3.4,17
		c-2.2-1.3-4.9-2.1-7.7-2.1c-11.7,0-19.9,10.2-19.9,32.8V292.1z"/>
	<path id="s_2_" d="M422.1,228.6l-10.9,10c-3.4-4.3-7.5-6.5-12.4-6.5c-3.7,0-6.8,2.2-6.8,6.2c0,3.1,2.4,5.5,7.1,7.2l5.3,1.9l6.3,2.2
		c1.2,0.4,3,1.5,5.3,2.8c2.5,1.3,4.3,2.5,5.3,3.8c2.2,2.5,4.6,6.9,4.6,12.1c0,6.9-2.5,12.7-7.4,17.6s-11.2,7.2-19,7.2
		c-7.1,0-13.3-2.1-18.4-6s-8.9-8.7-11.1-14l14.6-7.8c3,8.1,8,12.2,14.9,12.2c6,0,9.1-2.7,9.1-8c0-2.4-1.2-4.3-4-5.6
		c-1.3-0.7-2.8-1.3-4.1-1.8c-2.5-1.2-7.7-2.8-10.5-4c-9.4-4-15.1-9.4-15.1-20.1c0-6,2.2-11.1,6.6-15.3c4.4-4.3,10.2-6.3,17.1-6.3
		C408.7,216.5,417.4,221.4,422.1,228.6z"/>
</g>
<g id="conference">
	<path d="M49.6,356.1c-2.9,10.2-10.8,16.4-21.6,16.4c-7,0-12.9-2.5-17.9-7.6c-4.9-5.1-7.4-12.3-7.4-21.7c0-9.6,3-17.5,7.9-22.1
		c4.8-4.7,10.9-7.2,17.4-7.2c10.8,0,18.7,6.2,21.6,16.4l-5.3,1.6C42.1,323.6,36.5,319,28,319c-5.9,0-10.6,2.1-14.2,6.4
		s-5.4,10.2-5.4,17.8s1.8,13.6,5.4,17.8s8.4,6.4,14.2,6.4c8.5,0,14.1-4.7,16.3-12.9L49.6,356.1z"/>
	<path d="M57.5,351.2c0-5.6,1.8-10.6,5.3-14.9c3.5-4.3,8.2-6.4,14-6.4s10.5,2.1,14,6.4s5.3,9.3,5.3,14.9s-1.8,10.6-5.3,14.9
		s-8.2,6.4-14,6.4s-10.5-2.1-14-6.4C59.3,361.9,57.5,356.9,57.5,351.2z M62.9,351.2c0,4.5,1.2,8.4,3.7,11.6c2.5,3.3,6,4.9,10.3,4.9
		s7.8-1.6,10.2-4.9c2.5-3.3,3.8-7.1,3.8-11.6s-1.2-8.4-3.8-11.6c-2.5-3.3-5.9-4.9-10.2-4.9s-7.8,1.6-10.3,4.9S62.9,346.7,62.9,351.2
		z"/>
	<path d="M139.9,371.9h-5.1v-27.7c0-6.3-2.8-9.5-8.4-9.5c-3.8,0-7,1.7-9.6,5.2c-2.5,3.5-3.8,8.1-3.8,13.8v18.1h-5v-41.3h5.1v8.6
		c2.9-5.6,8.3-9.3,14.2-9.3c7.9,0,12.7,5,12.7,13.6v28.5H139.9z"/>
	<path d="M148.8,335.4v-4.7h6.5V328c0-9.4,4.3-14.1,12.8-14.1c2,0,3.6,0.3,4.9,1.1l-1.1,4.7c-1.4-0.7-2.9-1-4.3-1
		c-4.8,0-7.3,2.9-7.3,8.5v3.4h10v4.7h-10v36.5h-5.1v-36.5L148.8,335.4L148.8,335.4z"/>
	<path d="M212.8,351.2h-31.1c0,9.8,4.9,16.5,13,16.5c6.2,0,9.7-2.5,12.7-8.8l4.5,2.2c-4.2,8.2-9.3,11.4-17.2,11.4
		c-5.5,0-9.9-2-13.3-6s-5.1-9.2-5.1-15.3c0-6.1,1.7-11.2,5.1-15.2c3.4-4,7.8-6.1,13.3-6.1c5.3,0,9.7,1.7,13,5.2
		c3.4,3.5,5.1,8.1,5.1,13.8V351.2z M182,346.5h25.5c-1-7.3-5.6-11.8-12.9-11.8C188.1,334.7,183.4,339.5,182,346.5z"/>
	<path d="M246.4,336.2c-1.8-1-3.8-1.5-5.8-1.5c-6.6,0-11.4,7.7-11.4,21.2v16h-5.1v-41.3h5.1v7.4c2.5-5.3,6.6-8,12.1-8
		c1.9,0,3.9,0.5,6.2,1.4L246.4,336.2z"/>
	<path d="M289.1,351.2H258c0,9.8,4.9,16.5,13,16.5c6.2,0,9.7-2.5,12.7-8.8l4.5,2.2c-4.2,8.2-9.3,11.4-17.2,11.4c-5.5,0-9.9-2-13.3-6
		s-5.1-9.2-5.1-15.3c0-6.1,1.7-11.2,5.1-15.2c3.4-4,7.8-6.1,13.3-6.1c5.3,0,9.7,1.7,13,5.2c3.4,3.5,5.1,8.1,5.1,13.8V351.2z
		 M258.3,346.5h25.5c-1-7.3-5.6-11.8-12.9-11.8C264.4,334.7,259.7,339.5,258.3,346.5z"/>
	<path d="M332.3,371.9h-5.1v-27.7c0-6.3-2.8-9.5-8.4-9.5c-3.8,0-7,1.7-9.6,5.2c-2.5,3.5-3.8,8.1-3.8,13.8v18.1h-5.1v-41.3h5.1v8.6
		c2.9-5.6,8.3-9.3,14.2-9.3c7.9,0,12.7,5,12.7,13.6L332.3,371.9L332.3,371.9z"/>
	<path d="M378.4,361.1c-2.9,7.6-8.4,11.4-16.6,11.4c-5.7,0-10.2-2-13.4-6.2c-3.2-4.2-4.8-9.3-4.8-15.1s1.6-10.8,4.8-15
		c3.2-4.2,7.7-6.3,13.4-6.3c8.2,0,13.8,3.8,16.6,11.4l-4.6,1.8c-2.3-5.6-6.3-8.4-12-8.4c-4.2,0-7.5,1.6-9.7,4.7s-3.3,7-3.3,11.8
		s1.1,8.7,3.3,11.9c2.2,3.1,5.5,4.7,9.7,4.7c5.7,0,9.7-2.8,12-8.4L378.4,361.1z"/>
	<path d="M422.8,351.2h-31.1c0,9.8,4.9,16.5,13,16.5c6.2,0,9.7-2.5,12.7-8.8l4.5,2.2c-4.2,8.2-9.3,11.4-17.2,11.4
		c-5.5,0-9.9-2-13.3-6s-5.1-9.2-5.1-15.3c0-6.1,1.7-11.2,5.1-15.2s7.8-6.1,13.3-6.1c5.3,0,9.7,1.7,13,5.2c3.4,3.5,5.1,8.1,5.1,13.8
		V351.2z M392,346.5h25.5c-1-7.3-5.6-11.8-12.9-11.8C398.1,334.7,393.4,339.5,392,346.5z"/>
</g>
</svg>
