<svg xmlns="http://www.w3.org/2000/svg" fill="none" viewBox="0 0 425 376"><g clip-path="url(#a)" fill="#204282"><path d="M126.818 61.35c-7.8-20.4-22.1-30.7-43.5-30.7-14.3 0-26.4 5-35.9 15.3-9.3 10.3-14.1 25.1-14.1 44.5 0 19.3 4.8 34.2 14.1 44.5 9.5 10.3 21.6 15.3 35.9 15.3 21.4 0 35.7-10.3 43.5-30.7l29.4 7.5c-8.3 33.9-34.7 53.3-72.9 53.3-23.4 0-43-8-59-23.9-16.1-15.7-24.1-37.8-24.1-66 0-28.2 8-50.3 24.1-66.1 16.1-15.8 35.7-23.8 59.1-23.8 38.2 0 64.6 19.3 72.9 53.3l-29.5 7.5zm128.9-12.1c-6.3-12.3-14.6-18.6-24.4-18.6-9.8 0-16.8 6.8-16.8 16.1 0 11.1 12.1 19.3 26.4 26.1 21.1 9.3 49 22.4 48.7 52.8 0 34.2-22.1 54.8-56.3 54.8-15.3 0-28.6-4.8-39.7-14.1-11.1-9.5-18.1-21.4-20.9-35.2l26.4-16.6c6.8 23.9 18.3 35.7 34.9 35.7 15.3 0 22.9-7.5 22.9-22.9 0-10.3-11.3-18.3-26.1-24.6-20.9-8.8-48-22.1-47.5-54.5 0-13.3 4.5-24.6 13.6-33.9 9.3-9.3 20.6-13.8 34.4-13.8 23.9 0 40.7 10.6 50.8 31.9l-26.4 16.8zm134.9 0c-6.3-12.3-14.6-18.6-24.4-18.6-9.8 0-16.8 6.8-16.8 16.1 0 11.1 12.1 19.3 26.4 26.1 21.1 9.3 49 22.4 48.7 52.8 0 34.2-22.1 54.8-56.3 54.8-15.3 0-28.6-4.8-39.7-14.1-11.1-9.5-18.1-21.4-20.9-35.2l26.4-16.6c6.8 23.9 18.3 35.7 34.9 35.7 15.3 0 22.9-7.5 22.9-22.9 0-10.3-11.3-18.3-26.1-24.6-20.9-8.8-48-22.1-47.5-54.5 0-13.3 4.5-24.6 13.6-33.9 9.3-9.3 20.6-13.8 34.4-13.8 23.9 0 40.7 10.6 50.8 31.9l-26.4 16.8zm-334.9 310c-2.9 10.1-10.7 16.2-21.3 16.2-6.9 0-12.7-2.5-17.7-7.5-4.8-5-7.3-12.1-7.3-21.4 0-9.5 3-17.3 7.8-21.8 4.7-4.6 10.8-7.1 17.2-7.1 10.7 0 18.5 6.1 21.3 16.2l-5.2 1.6c-2.2-8.2-7.7-12.7-16.1-12.7-5.8 0-10.5 2.1-14 6.3-3.6 4.2-5.3 10.1-5.3 17.6 0 7.5 1.8 13.4 5.3 17.6 3.5 4.2 8.3 6.3 14 6.3 8.4 0 13.9-4.6 16.1-12.7l5.2 1.4zm7.8-4.8c0-5.5 1.8-10.5 5.2-14.7 3.5-4.2 8.1-6.3 13.8-6.3 5.7 0 10.4 2.1 13.8 6.3 3.5 4.2 5.2 9.2 5.2 14.7s-1.8 10.5-5.2 14.7c-3.4 4.2-8.1 6.3-13.8 6.3-5.7 0-10.4-2.1-13.8-6.3-3.4-4.2-5.2-9.1-5.2-14.7zm5.3 0c0 4.4 1.2 8.3 3.7 11.5 2.5 3.3 5.9 4.8 10.2 4.8 4.2 0 7.7-1.6 10.1-4.8 2.5-3.3 3.8-7 3.8-11.5 0-4.4-1.2-8.3-3.8-11.5-2.5-3.3-5.8-4.8-10.1-4.8-4.2 0-7.7 1.6-10.2 4.8-2.5 3.3-3.7 7-3.7 11.5zm76 20.4h-5v-27.3c0-6.2-2.8-9.4-8.3-9.4-3.8 0-6.9 1.7-9.5 5.1-2.5 3.5-3.8 8-3.8 13.6v17.9h-4.9v-40.8h5v8.5c2.9-5.5 8.2-9.2 14-9.2 7.8 0 12.5 4.9 12.5 13.4v28.2zm8.8-36v-4.6h6.4v-2.7c0-9.3 4.2-13.9 12.6-13.9 2 0 3.6.3 4.8 1.1l-1.1 4.6c-1.4-.7-2.9-1-4.2-1-4.7 0-7.2 2.9-7.2 8.4v3.4h9.9v4.6h-9.9v36h-5v-36l-6.3.1zm63.2 15.6h-30.7c0 9.7 4.8 16.3 12.8 16.3 6.1 0 9.6-2.5 12.5-8.7l4.4 2.2c-4.1 8.1-9.2 11.3-17 11.3-5.4 0-9.8-2-13.1-5.9-3.4-3.9-5-9.1-5-15.1s1.7-11.1 5-15c3.4-3.9 7.7-6 13.1-6 5.2 0 9.6 1.7 12.8 5.1 3.4 3.5 5 8 5 13.6v2.2h.2zm-30.4-4.7h25.2c-1-7.2-5.5-11.7-12.7-11.7-6.5.1-11.1 4.8-12.5 11.7zm63.6-10.1c-1.8-1-3.8-1.5-5.7-1.5-6.5 0-11.3 7.6-11.3 20.9v15.8h-5v-40.8h5v7.3c2.5-5.2 6.5-7.9 11.9-7.9 1.9 0 3.9.5 6.1 1.4l-1 4.8zm42.2 14.8h-30.7c0 9.7 4.8 16.3 12.8 16.3 6.1 0 9.6-2.5 12.5-8.7l4.4 2.2c-4.1 8.1-9.2 11.3-17 11.3-5.4 0-9.8-2-13.1-5.9-3.4-3.9-5-9.1-5-15.1s1.7-11.1 5-15c3.3-3.9 7.7-6 13.1-6 5.2 0 9.6 1.7 12.8 5.1 3.4 3.5 5 8 5 13.6v2.2h.2zm-30.4-4.7h25.2c-1-7.2-5.5-11.7-12.7-11.7-6.5.1-11.2 4.8-12.5 11.7zm73 25.1h-5v-27.3c0-6.2-2.8-9.4-8.3-9.4-3.8 0-6.9 1.7-9.5 5.1-2.5 3.5-3.8 8-3.8 13.6v17.9h-5v-40.8h5v8.5c2.9-5.5 8.2-9.2 14-9.2 7.8 0 12.5 4.9 12.5 13.4l.1 28.2zm45.6-10.7c-2.9 7.5-8.3 11.3-16.4 11.3-5.6 0-10.1-2-13.2-6.1-3.2-4.1-4.7-9.2-4.7-14.9 0-5.7 1.6-10.7 4.7-14.8 3.2-4.1 7.6-6.2 13.2-6.2 8.1 0 13.6 3.8 16.4 11.3l-4.5 1.8c-2.3-5.5-6.2-8.3-11.8-8.3-4.1 0-7.4 1.6-9.6 4.6-2.2 3.1-3.3 6.9-3.3 11.7 0 4.7 1.1 8.6 3.3 11.8 2.2 3.1 5.4 4.6 9.6 4.6 5.6 0 9.6-2.8 11.8-8.3l4.5 1.5zm43.8-9.7h-30.7c0 9.7 4.8 16.3 12.8 16.3 6.1 0 9.6-2.5 12.5-8.7l4.4 2.2c-4.1 8.1-9.2 11.3-17 11.3-5.4 0-9.8-2-13.1-5.9-3.4-3.9-5-9.1-5-15.1s1.7-11.1 5-15c3.4-3.9 7.7-6 13.1-6 5.2 0 9.6 1.7 12.8 5.1 3.4 3.5 5 8 5 13.6v2.2h.2zm-30.4-4.7h25.2c-1-7.2-5.5-11.7-12.7-11.7-6.5.1-11.1 4.8-12.5 11.7zm-379.7-160.4h16.3v88.2h44.7v15.4h-61v-103.6zm70.2 66.3c0-10.8 3.3-20 9.9-27.4 6.7-7.4 15.7-11.1 26.8-11.1 11.1 0 20 3.7 26.7 11.1 6.7 7.4 10.1 16.6 10.1 27.4 0 10.8-3.4 20-10.1 27.4-6.7 7.4-15.5 11.1-26.7 11.1-11.1 0-20.1-3.7-26.8-11.1-6.6-7.4-9.9-16.6-9.9-27.4zm16.3 0c0 6.8 1.8 12.7 5.3 17.6 3.7 4.9 8.7 7.3 15.1 7.3s11.4-2.4 15-7.3c3.7-4.9 5.5-10.8 5.5-17.6 0-6.8-1.8-12.6-5.5-17.5-3.6-4.9-8.6-7.4-15-7.4s-11.4 2.5-15.1 7.4c-3.5 4.9-5.3 10.7-5.3 17.5zm64-37.3h15.7l16.3 53.6 16.3-53.6h15.7l-24.7 74.6h-14.5l-24.8-74.6zm138.9 41.6h-52.9c0 11.7 6.8 20.6 18.5 20.6 8.3 0 15.8-4.7 19.5-12.6l13.2 5.2c-7.6 14.7-16.3 21-32.7 21-24.6 0-34.8-20.7-34.8-38.5s10.2-38.5 34.8-38.5c23.8 0 34.4 19.4 34.4 36.1v6.7zm-52.6-12.9h36.3c-1.3-9.3-7.6-16.3-18.1-16.3-9.9.1-16.4 6.7-18.2 16.3zm83.8 46h-15.4v-74.6h15.4v12.4c4.9-8.7 13.8-13.6 22.1-13.6 3.4 0 6.5.6 9.5 1.8l-2.7 14.1c-2.4-1.5-5.3-2.2-8.7-2.2-5.5 0-10.2 3-14.2 9-4 5.9-5.9 14.4-5.9 25.5v27.6h-.1zm85.5-64-9.8 8.6c-3.6-4.6-7.8-6.8-13-6.8-4.1 0-7.4 2.7-7.4 7.4 0 1.6.6 3.3 1.9 4.6 2.5 2.5 5 3.7 11.4 6.1 5.2 1.9 7.4 2.7 11.6 5.5 5.9 3.6 8.7 8 9.3 16.1 0 6.7-2.4 12.3-7.1 16.9-4.7 4.6-11 6.8-18.8 6.8-14.2 0-24.3-9.2-28.9-20l13-7.1c4 9 9.5 13.5 16.4 13.5 6.7 0 10.1-3.3 10.1-9.8 0-2.5-1-4.3-3.9-5.9-1.3-.9-2.7-1.6-3.9-2.1-2.2-1-7.7-3-10.1-4-10.7-4.4-16-11.3-16-20.4 0-5.9 2.2-11 6.5-15 4.3-4.1 9.8-6.2 16.4-6.2 9.3-.1 17.5 4.5 22.3 11.8z"/></g><defs><clipPath id="a"><path fill="#fff" transform="translate(.218 .55)" d="M0 0h424.3v374.9H0z"/></clipPath></defs></svg>