<svg xmlns="http://www.w3.org/2000/svg" viewBox="0 0 841.89 595.28" xml:space="preserve"><path d="M323.424 205.547c-9.042-23.625-25.668-35.584-50.46-35.584-16.625 0-30.625 5.834-41.709 17.792-10.792 11.958-16.333 29.167-16.333 51.626s5.542 39.668 16.333 51.626c11.083 11.958 25.083 17.792 41.709 17.792 24.792 0 41.418-11.959 50.46-35.584l34.125 8.75c-9.625 39.375-40.251 61.835-84.586 61.835-27.125 0-49.876-9.335-68.543-27.709-18.667-18.375-28-44.043-28-76.71 0-32.668 9.333-58.334 28-76.71 18.667-18.375 41.418-27.709 68.543-27.709 44.335 0 74.96 22.459 84.586 61.835l-34.125 8.75zm149.626-14c-7.292-14.292-16.917-21.584-28.292-21.584-11.376 0-19.542 7.875-19.542 18.667 0 12.833 14 22.458 30.625 30.334 24.5 10.792 56.876 25.958 56.585 61.251 0 39.667-25.667 63.585-65.336 63.585-17.791 0-33.25-5.542-46.084-16.333-12.833-11.085-21-24.793-24.208-40.835l30.625-19.25c7.875 27.709 21.292 41.417 40.543 41.417 17.792 0 26.543-8.751 26.543-26.542 0-11.959-13.126-21.293-30.335-28.584-24.209-10.209-55.709-25.667-55.126-63.293 0-15.458 5.25-28.584 15.751-39.376 10.792-10.792 23.917-16.042 39.959-16.042 27.709 0 47.25 12.25 58.917 37.043l-30.625 19.542zm156.623 0c-7.291-14.292-16.915-21.584-28.292-21.584-11.376 0-19.541 7.875-19.541 18.667 0 12.833 14 22.458 30.626 30.334 24.5 10.792 56.876 25.958 56.584 61.251 0 39.667-25.668 63.585-65.335 63.585-17.792 0-33.251-5.542-46.084-16.333-12.835-11.085-21.002-24.793-24.21-40.835l30.626-19.25c7.876 27.709 21.292 41.417 40.544 41.417 17.791 0 26.542-8.751 26.542-26.542 0-11.959-13.127-21.293-30.335-28.584-24.209-10.209-55.71-25.667-55.126-63.293 0-15.458 5.25-28.584 15.75-39.376 10.793-10.792 23.917-16.042 39.959-16.042 27.71 0 47.252 12.25 58.919 37.043l-30.627 19.542zM236.022 427.083c-3.92-10.019-9.474-14.592-19.492-14.592-13.503 0-23.086 9.8-23.086 27.658 0 17.86 9.583 27.661 23.086 27.661 10.018 0 15.571-4.574 19.492-14.594l11.326 2.832c-3.92 14.701-14.81 23.086-30.817 23.086-9.801 0-18.186-3.375-25.046-10.235-6.86-6.861-10.235-16.443-10.235-28.75 0-12.304 3.375-21.778 10.235-28.639 6.861-6.86 15.246-10.345 25.046-10.345 16.007 0 26.897 8.385 30.817 23.086l-11.326 2.832zm20.251 23.739c0-7.95 2.396-14.701 7.296-20.146 4.901-5.445 11.543-8.168 19.71-8.168 8.167 0 14.7 2.723 19.601 8.168 4.9 5.444 7.405 12.195 7.405 20.146s-2.504 14.701-7.405 20.145c-4.901 5.446-11.435 8.168-19.601 8.168-8.167 0-14.81-2.722-19.71-8.168-4.901-5.444-7.296-12.195-7.296-20.145zm11.978 0c0 5.009 1.307 9.365 3.92 12.958 2.722 3.595 6.425 5.336 11.107 5.336s8.385-1.741 10.998-5.336c2.723-3.593 4.029-7.949 4.029-12.958 0-5.01-1.307-9.257-4.029-12.851-2.613-3.593-6.315-5.444-10.998-5.444s-8.385 1.852-11.107 5.444c-2.613 3.594-3.92 7.842-3.92 12.851zm54.555-27.441h11.325v9.364c3.92-6.534 10.454-10.236 17.75-10.236 9.692 0 16.117 5.99 16.117 16.443v39.312h-11.325v-35.717c0-6.644-2.831-10.02-8.494-10.02-3.812 0-7.078 2.179-9.91 6.425-2.722 4.247-4.138 9.909-4.138 17.097v22.215h-11.325v-54.883zm55.424 10.017V423.38h7.078v-2.831c0-12.959 6.969-19.384 18.403-19.384 3.594 0 6.534.653 9.039 1.96l-2.287 9.583a14.315 14.315 0 0 0-6.424-1.524c-4.9 0-7.405 2.831-7.405 8.603v3.594h12.087v10.018h-12.087v44.865h-11.326v-44.865h-7.078zm73.61-31.361h27.007c13.066 0 21.343 7.187 21.343 19.928 0 5.989-3.267 12.414-7.731 14.701 7.296 3.049 11.652 10.345 11.652 19.165 0 14.265-8.821 22.433-23.958 22.433H451.84v-76.227zm11.978 11.325v18.729h13.938c6.97 0 10.454-3.158 10.454-9.364 0-6.208-3.484-9.365-10.454-9.365h-13.938zm0 30.055v23.521h14.701c8.929 0 13.394-3.919 13.394-11.761 0-7.841-4.465-11.761-13.394-11.761h-14.701zm54.77-42.251h11.326v77.098h-11.326v-77.098zm23.521 49.656c0-7.95 2.397-14.701 7.297-20.146s11.543-8.168 19.71-8.168 14.7 2.723 19.602 8.168c4.9 5.444 7.404 12.195 7.404 20.146s-2.504 14.701-7.404 20.145c-4.901 5.446-11.435 8.168-19.602 8.168s-14.81-2.722-19.71-8.168c-4.899-5.444-7.297-12.195-7.297-20.145zm11.98 0c0 5.009 1.306 9.365 3.92 12.958 2.723 3.595 6.425 5.336 11.107 5.336s8.385-1.741 10.998-5.336c2.723-3.593 4.029-7.949 4.029-12.958 0-5.01-1.307-9.257-4.029-12.851-2.613-3.593-6.315-5.444-10.998-5.444s-8.385 1.852-11.107 5.444c-2.614 3.594-3.92 7.842-3.92 12.851zm60.761-23.303c3.702-3.376 8.385-5.01 14.047-5.01 3.594 0 6.97.763 10.019 2.396l10.128-5.445 4.573 8.167-7.404 4.139c1.632 2.723 2.395 5.771 2.395 9.146 0 5.663-1.851 10.127-5.553 13.503-3.702 3.267-8.386 4.901-14.157 4.901-3.157 0-6.098-.544-8.82-1.635-1.96 1.091-2.94 2.723-2.94 4.793 0 2.831 1.852 4.247 5.663 4.247h12.088c10.998 0 18.185 5.553 18.185 15.681 0 6.425-2.287 11.106-6.969 14.265-4.573 3.158-10.236 4.683-17.097 4.683-14.374 0-24.174-6.425-24.174-18.076 0-4.466 1.524-8.168 4.682-11.107-2.069-2.07-3.157-5.01-3.157-8.604 0-4.899 2.178-8.602 6.642-11.106-2.505-3.049-3.702-6.86-3.702-11.544-.003-5.554 1.847-10.018 5.551-13.394zm8.82 48.785c-1.96 0-3.812-.108-5.554-.327-1.634 1.635-2.396 3.921-2.396 6.643 0 5.555 5.01 8.93 13.286 8.93 7.841 0 12.523-3.049 12.523-8.275 0-4.683-3.05-6.97-9.039-6.97h-8.82zm13.938-35.392c0-5.336-3.485-8.93-8.712-8.93-5.118 0-8.602 3.594-8.602 8.93 0 5.337 3.483 8.93 8.602 8.93 5.227 0 8.712-3.593 8.712-8.93z" fill="#224283"/></svg>