<svg xmlns="http://www.w3.org/2000/svg" fill="none" viewBox="0 0 592 654"><path fill="#fff" d="M0 0h592v654H0z"/><g opacity=".5" fill="#B6C1D6"><path d="M0 0h46.737l250.376 277.394L546.376 0H592L296 327 0 0z" opacity=".5"/><path d="M106.271 46.38c8.902 0 16.135-6.895 16.135-15.348 0-8.454-7.233-15.35-16.135-15.35-8.903 0-16.136 6.896-16.136 15.35 0 8.564 7.233 15.349 16.136 15.349zm37.834 42.266c8.903 0 16.136-6.896 16.136-15.349s-7.233-15.349-16.136-15.349c-8.902 0-16.135 6.896-16.135 15.349s7.233 15.349 16.135 15.349zM181.94 130.8c8.902 0 16.135-6.896 16.135-15.349s-7.233-15.349-16.135-15.349c-8.902 0-16.135 6.896-16.135 15.349s7.233 15.349 16.135 15.349zm37.834 42.154c8.903 0 16.136-6.896 16.136-15.349s-7.233-15.349-16.136-15.349c-8.902 0-16.135 6.896-16.135 15.349 0 8.564 7.233 15.349 16.135 15.349zm37.835 42.265c8.902 0 16.135-6.895 16.135-15.349 0-8.453-7.233-15.349-16.135-15.349-8.902 0-16.135 6.896-16.135 15.349 0 8.454 7.233 15.349 16.135 15.349zm38.947 30.587c8.903 0 16.136-6.896 16.136-15.349s-7.233-15.349-16.136-15.349c-8.902 0-16.135 6.896-16.135 15.349s7.233 15.349 16.135 15.349zm38.948-33.812c8.902 0 16.135-6.896 16.135-15.349s-7.233-15.349-16.135-15.349c-8.903 0-16.136 6.896-16.136 15.349 0 8.564 7.233 15.349 16.136 15.349zm38.947-40.041c8.902 0 16.135-6.896 16.135-15.349s-7.233-15.349-16.135-15.349c-8.902 0-16.135 6.896-16.135 15.349s7.233 15.349 16.135 15.349zm38.948-41.153c8.902 0 16.135-6.896 16.135-15.349s-7.233-15.349-16.135-15.349c-8.903 0-16.136 7.007-16.136 15.349 0 8.453 7.233 15.349 16.136 15.349zm37.834-42.154c8.902 0 16.135-6.896 16.135-15.349s-7.233-15.349-16.135-15.349c-8.902 0-16.135 6.896-16.135 15.349s7.233 15.349 16.135 15.349zm37.835-43.266c8.902 0 16.135-6.896 16.135-15.35 0-8.452-7.233-15.348-16.135-15.348-8.903 0-16.136 6.896-16.136 15.349s7.233 15.349 16.136 15.349zM112.391 1.001h47.85l136.872 151.933L432.872 0h45.624L296 201.428 112.391 1.001z" opacity=".5"/><path d="m202.526 0 94.587 104.44L390.586 0h-188.06zM0 654h46.737l250.376-277.394L546.376 654H592L296 327 0 654z" opacity=".5"/><path d="M106.271 638.206c8.902 0 16.135-6.896 16.135-15.349s-7.233-15.349-16.135-15.349c-8.903 0-16.136 6.896-16.136 15.349s7.233 15.349 16.136 15.349zm37.834-42.265c8.903 0 16.136-6.896 16.136-15.349s-7.233-15.349-16.136-15.349c-8.902 0-16.135 6.896-16.135 15.349 0 8.564 7.233 15.349 16.135 15.349zm37.835-42.154c8.902 0 16.135-6.896 16.135-15.349s-7.233-15.349-16.135-15.349c-8.902 0-16.135 6.896-16.135 15.349s7.233 15.349 16.135 15.349zm37.834-42.154c8.903 0 16.136-6.896 16.136-15.349s-7.233-15.349-16.136-15.349c-8.902 0-16.135 6.896-16.135 15.349s7.233 15.349 16.135 15.349zm37.835-42.266c8.902 0 16.135-6.896 16.135-15.349s-7.233-15.349-16.135-15.349c-8.902 0-16.135 6.896-16.135 15.349 0 8.565 7.233 15.349 16.135 15.349zm38.947-30.586c8.903 0 16.136-6.896 16.136-15.349s-7.233-15.349-16.136-15.349c-8.902 0-16.135 6.896-16.135 15.349 0 8.564 7.233 15.349 16.135 15.349zm38.948 33.812c8.902 0 16.135-6.896 16.135-15.349s-7.233-15.349-16.135-15.349c-8.903 0-16.136 6.896-16.136 15.349s7.233 15.349 16.136 15.349zm38.947 40.041c8.902 0 16.135-6.896 16.135-15.349s-7.233-15.349-16.135-15.349c-8.902 0-16.135 6.896-16.135 15.349 0 8.564 7.233 15.349 16.135 15.349zm38.948 41.153c8.902 0 16.135-6.896 16.135-15.349s-7.233-15.349-16.135-15.349c-8.903 0-16.136 6.896-16.136 15.349s7.233 15.349 16.136 15.349zm37.834 42.154c8.902 0 16.135-6.896 16.135-15.349s-7.233-15.349-16.135-15.349c-8.902 0-16.135 6.896-16.135 15.349 0 8.564 7.233 15.349 16.135 15.349zm37.835 43.266c8.902 0 16.135-6.896 16.135-15.349s-7.233-15.349-16.135-15.349c-8.903 0-16.136 7.007-16.136 15.46 0 8.453 7.233 15.238 16.136 15.238zm-376.677 13.681h47.85l136.872-151.933L432.872 654h45.624L296 452.572 112.391 652.888z" opacity=".5"/><path d="m202.526 654 94.587-104.44L390.586 654h-188.06zM0 52.72v51.72l200.301 219.446L0 544.333v50.607l248.15-271.054L0 52.72z" opacity=".5"/><path d="M0 144.481V196.2l116.842 125.572L0 453.573v49.607l164.692-179.294L0 144.481z" opacity=".5"/><path d="m0 244.694 71.218 76.967L0 403.967V244.694zM592 594.94v-51.72L391.699 323.886 592 103.328V52.72L343.85 323.887 592 594.94z" opacity=".5"/><path d="M592 503.18v-51.72L475.158 325.888 592 194.087v-49.606L427.308 323.886 592 503.18z" opacity=".5"/><path d="m592 402.966-71.218-77.078L592 243.582v159.384z" opacity=".5"/></g></svg>