<?xml version="1.0" encoding="utf-8"?>
<!-- Generator: Adobe Illustrator 21.0.2, SVG Export Plug-In . SVG Version: 6.00 Build 0)  -->
<svg version="1.1" id="date-tribal-vector" xmlns="http://www.w3.org/2000/svg" xmlns:xlink="http://www.w3.org/1999/xlink" x="0px"
	 y="0px" viewBox="0 0 592 654" style="enable-background:new 0 0 592 654;" xml:space="preserve">
<style type="text/css">
	.st0{opacity:0.5;fill:#020202;enable-background:new    ;}
</style>
<path id="circletop11" class="st0" d="M106.3,46.4c8.9,0,16.1-6.9,16.1-15.3s-7.2-15.3-16.1-15.3c-8.9,0-16.1,6.9-16.1,15.3
	C90.1,39.6,97.4,46.4,106.3,46.4z"/>
<path id="circletop10" class="st0" d="M144.1,88.6c8.9,0,16.1-6.9,16.1-15.3c0-8.5-7.2-15.3-16.1-15.3c-8.9,0-16.1,6.9-16.1,15.3
	C128,81.8,135.2,88.6,144.1,88.6z"/>
<path id="circletop9" class="st0" d="M181.9,130.8c8.9,0,16.1-6.9,16.1-15.3s-7.2-15.3-16.1-15.3c-8.9,0-16.1,6.9-16.1,15.3
	S173,130.8,181.9,130.8z"/>
<path id="circletop8" class="st0" d="M219.8,173c8.9,0,16.1-6.9,16.1-15.3s-7.2-15.3-16.1-15.3c-8.9,0-16.1,6.9-16.1,15.3
	C203.6,166.2,210.9,173,219.8,173z"/>
<path id="circletop7" class="st0" d="M257.6,215.2c8.9,0,16.1-6.9,16.1-15.3c0-8.5-7.2-15.3-16.1-15.3c-8.9,0-16.1,6.9-16.1,15.3
	C241.5,208.3,248.7,215.2,257.6,215.2z"/>
<path id="circletop6" class="st0" d="M296.6,245.8c8.9,0,16.1-6.9,16.1-15.3s-7.2-15.3-16.1-15.3c-8.9,0-16.1,6.9-16.1,15.3
	S287.7,245.8,296.6,245.8z"/>
<path id="circletop5" class="st0" d="M335.5,212c8.9,0,16.1-6.9,16.1-15.3s-7.2-15.3-16.1-15.3c-8.9,0-16.1,6.9-16.1,15.3
	C319.4,205.2,326.6,212,335.5,212z"/>
<path id="circletop4" class="st0" d="M374.5,172c8.9,0,16.1-6.9,16.1-15.3s-7.2-15.3-16.1-15.3c-8.9,0-16.1,6.9-16.1,15.3
	S365.5,172,374.5,172z"/>
<path id="circletop3" class="st0" d="M413.4,130.8c8.9,0,16.1-6.9,16.1-15.3s-7.2-15.3-16.1-15.3c-8.9,0-16.1,7-16.1,15.3
	C397.3,123.9,404.5,130.8,413.4,130.8z"/>
<path id="circletop2" class="st0" d="M451.2,88.6c8.9,0,16.1-6.9,16.1-15.3c0-8.5-7.2-15.3-16.1-15.3s-16.1,6.9-16.1,15.3
	C435.1,81.8,442.3,88.6,451.2,88.6z"/>
<path id="circletop1" class="st0" d="M489.1,45.4c8.9,0,16.1-6.9,16.1-15.3c0-8.5-7.2-15.3-16.1-15.3c-8.9,0-16.1,6.9-16.1,15.3
	C472.9,38.5,480.2,45.4,489.1,45.4z"/>
<path id="arrowtop-3" class="st0" d="M0,0h46.7l250.4,277.4L546.4,0H592L296,327L0,0z"/>
<path id="arrowtop-2" class="st0" d="M112.4,1h47.8l136.9,151.9L432.9,0h45.6L296,201.4L112.4,1z"/>
<path id="arrowtop-1" class="st0" d="M202.5,0l94.6,104.4L390.6,0H202.5z"/>
<path id="arrowbtm-3" class="st0" d="M0,654h46.7l250.4-277.4L546.4,654H592L296,327L0,654z"/>
<path id="circle11" class="st0" d="M106.3,638.2c8.9,0,16.1-6.9,16.1-15.3s-7.2-15.3-16.1-15.3c-8.9,0-16.1,6.9-16.1,15.3
	S97.4,638.2,106.3,638.2z"/>
<path id="circle10" class="st0" d="M144.1,595.9c8.9,0,16.1-6.9,16.1-15.3s-7.2-15.3-16.1-15.3c-8.9,0-16.1,6.9-16.1,15.3
	C128,589.2,135.2,595.9,144.1,595.9z"/>
<path id="circle9" class="st0" d="M181.9,553.8c8.9,0,16.1-6.9,16.1-15.3s-7.2-15.3-16.1-15.3c-8.9,0-16.1,6.9-16.1,15.3
	S173,553.8,181.9,553.8z"/>
<path id="circle8" class="st0" d="M219.8,511.6c8.9,0,16.1-6.9,16.1-15.3s-7.2-15.3-16.1-15.3c-8.9,0-16.1,6.9-16.1,15.3
	S210.9,511.6,219.8,511.6z"/>
<path id="circle7" class="st0" d="M257.6,469.4c8.9,0,16.1-6.9,16.1-15.3s-7.2-15.3-16.1-15.3c-8.9,0-16.1,6.9-16.1,15.3
	C241.5,462.6,248.7,469.4,257.6,469.4z"/>
<path id="circle6" class="st0" d="M296.6,438.8c8.9,0,16.1-6.9,16.1-15.3s-7.2-15.3-16.1-15.3c-8.9,0-16.1,6.9-16.1,15.3
	C280.4,432,287.7,438.8,296.6,438.8z"/>
<path id="circle5" class="st0" d="M335.5,472.6c8.9,0,16.1-6.9,16.1-15.3s-7.2-15.3-16.1-15.3c-8.9,0-16.1,6.9-16.1,15.3
	S326.6,472.6,335.5,472.6z"/>
<path id="circle4" class="st0" d="M374.5,512.6c8.9,0,16.1-6.9,16.1-15.3s-7.2-15.3-16.1-15.3c-8.9,0-16.1,6.9-16.1,15.3
	C358.3,505.8,365.5,512.6,374.5,512.6z"/>
<path id="circle3" class="st0" d="M413.4,553.8c8.9,0,16.1-6.9,16.1-15.3s-7.2-15.3-16.1-15.3c-8.9,0-16.1,6.9-16.1,15.3
	S404.5,553.8,413.4,553.8z"/>
<path id="circle2" class="st0" d="M451.2,595.9c8.9,0,16.1-6.9,16.1-15.3s-7.2-15.3-16.1-15.3s-16.1,6.9-16.1,15.3
	C435.1,589.2,442.3,595.9,451.2,595.9z"/>
<path id="circle1" class="st0" d="M489.1,639.2c8.9,0,16.1-6.9,16.1-15.3c0-8.5-7.2-15.3-16.1-15.3c-8.9,0-16.1,7-16.1,15.5
	S480.2,639.2,489.1,639.2z"/>
<path id="arrowbtm-2" class="st0" d="M112.4,652.9h47.8L297.1,501l135.8,153h45.6L296,452.6L112.4,652.9z"/>
<path id="arrowbtm-1" class="st0" d="M202.5,654l94.6-104.4L390.6,654H202.5z"/>
<path id="arrowleft-3" class="st0" d="M0,52.7v51.7l200.3,219.4L0,544.3v50.6l248.1-271.1L0,52.7z"/>
<path id="arrowleft-2" class="st0" d="M0,144.5v51.7l116.8,125.6L0,453.6v49.6l164.7-179.3L0,144.5z"/>
<path id="arrowleft-1" class="st0" d="M0,244.7l71.2,77L0,404V244.7z"/>
<path id="arrowright-3" class="st0" d="M592,594.9v-51.7L391.7,323.9L592,103.3V52.7L343.9,323.9L592,594.9z"/>
<path id="arrowright-2" class="st0" d="M592,503.2v-51.7L475.2,325.9L592,194.1v-49.6L427.3,323.9L592,503.2z"/>
<path id="arrowright-1" class="st0" d="M592,403l-71.2-77.1l71.2-82.3V403z"/>
</svg>
