<?xml version="1.0" encoding="utf-8"?>
<!-- Generator: Adobe Illustrator 21.0.2, SVG Export Plug-In . SVG Version: 6.00 Build 0)  -->
<svg version="1.1" id="face-tribal-vector" xmlns="http://www.w3.org/2000/svg" xmlns:xlink="http://www.w3.org/1999/xlink" x="0px"
	 y="0px" viewBox="0 0 521 573" style="enable-background:new 0 0 521 573;" xml:space="preserve">
<path id="eyeright" d="M329.8,249.9c7.4,0,13.4-6,13.4-13.4c0-7.4-6-13.4-13.4-13.4c-7.4,0-13.4,6-13.4,13.4
	C316.4,243.9,322.4,249.9,329.8,249.9z"/>
<path id="circle6" d="M369.8,508.4c9.5,0,17.3-7.8,17.3-17.3s-7.7-17.3-17.3-17.3s-17.3,7.8-17.3,17.3S360.2,508.4,369.8,508.4z"/>
<path id="circle5" d="M335.2,549.1c9.5,0,17.3-7.8,17.3-17.3s-7.7-17.3-17.3-17.3s-17.3,7.8-17.3,17.3S325.7,549.1,335.2,549.1z"/>
<path id="circle4" d="M286.2,573c9.5,0,17.3-7.8,17.3-17.3s-7.7-17.3-17.3-17.3c-9.5,0-17.3,7.8-17.3,17.3S276.7,573,286.2,573z"/>
<path id="eyeleft" d="M191.1,249.9c7.4,0,13.4-6,13.4-13.4c0-7.4-6-13.4-13.4-13.4c-7.4,0-13.4,6-13.4,13.4
	C177.7,243.9,183.7,249.9,191.1,249.9z"/>
<path id="neck" d="M260.5,456.8c0,0-52.8,2.8-81.3-15.5c0,0,4.2,73.2,81.3,76c77-2.8,81.3-76,81.3-76
	C313.3,459.5,260.5,456.8,260.5,456.8z"/>
<path id="headline5" d="M397.4,103.3H260.5H123.6c-5.4,0-9.8,4.4-9.8,9.8c0,3.6,2.9,6.5,6.5,6.5h140.1h140.1c3.6,0,6.5-2.9,6.5-6.5
	C407.2,107.7,402.7,103.3,397.4,103.3z"/>
<path id="headline4" d="M373.5,77.1H260.6h-0.3H147.4c-5.4,0-9.8,4.4-9.8,9.8c0,3.6,2.9,6.5,6.5,6.5h116.1h0.3h116.1
	c3.6,0,6.5-2.9,6.5-6.5C383.4,81.4,378.9,77.1,373.5,77.1z"/>
<path id="headline1" d="M280.8,0h-20.3h-20.3c-5.4,0-9.8,4.4-9.8,9.8c0,3.6,2.9,6.5,6.5,6.5h23.6h23.6c3.6,0,6.5-2.9,6.5-6.5
	C290.6,4.4,286.2,0,280.8,0z"/>
<path id="headline2" d="M315.6,22.5h-55h-0.3h-55c-5.4,0-9.8,4.4-9.8,9.8c0,3.6,2.9,6.5,6.5,6.5h58.2h0.3h58.2
	c3.6,0,6.5-2.9,6.5-6.5C325.4,26.8,321,22.5,315.6,22.5z"/>
<path id="headline3" d="M351.5,47.1h-90.9h-0.3h-90.9c-5.4,0-9.8,4.4-9.8,9.8c0,3.6,2.9,6.5,6.5,6.5h94.2h0.3h94.2
	c3.6,0,6.5-2.9,6.5-6.5C361.3,51.5,357,47.1,351.5,47.1z"/>
<path id="circle1" d="M151.2,508.4c9.5,0,17.3-7.8,17.3-17.3s-7.7-17.3-17.3-17.3s-17.3,7.8-17.3,17.3S141.7,508.4,151.2,508.4z"/>
<path id="circle2" d="M185.8,549.1c9.5,0,17.3-7.8,17.3-17.3s-7.7-17.3-17.3-17.3s-17.3,7.8-17.3,17.3S176.2,549.1,185.8,549.1z"/>
<path id="circle3" d="M234.6,573c9.5,0,17.3-7.8,17.3-17.3s-7.7-17.3-17.3-17.3c-9.5,0-17.3,7.8-17.3,17.3S225.1,573,234.6,573z"/>
<path id="mouth" d="M328.3,376.3v21.8h-7.6v-21.8h-15.1v21.8h-7.5v-21.8H283v21.8h-7.5v-21.8h-11.3v21.8h-3.8v0.2h-4v-22h-11v21.8
	h-7.5v-21.8h-15.1v21.8h-7.5v-21.8h-15.1v21.8h-7.5v-21.8c0,0-17.7,5.7-18.4,29.5v4.3c0.7,23.9,18.4,29.5,18.4,29.5v-21.8h7.5v20.4
	v1.4h15.1v-1.4v-20.4h7.5v20.4v1.4h15.1v-1.4v-20.4h7.5v20.4v1.4h11v-21.8h4.1v-0.2h3.7v21.8h11.3V438v-20.4h7.5V438v1.4h15.1V438
	v-20.4h7.5V438v1.4h15.1V438v-20.4h7.5v21.8c0,0,17.7-5.7,18.4-29.5v-4.3C346,382,328.3,376.3,328.3,376.3z"/>
<path id="face" d="M517.5,217.9c-5.5-15.3-19.8-29.7-33.9-37.4c-27.9-15.2-54.3-2.4-74,19.3v-68.2H260.5H111.2v68.2
	c-19.7-21.7-46.1-34.4-74-19.3c-14.1,7.6-28.4,22.1-33.9,37.4C-8,249.7,10,292.4,44.6,299.4c23.5,4.7,58.2-9.3,65.6-34
	c4.3-14.6-2.6-31.6-14.2-41c-10.6-8.5-32.9-11.3-44-2.2c-11.2,9.4-11,26.8-11,26.8c0.1,10.4,10.5,20.9,21,20.3
	c9.6-0.5,18.9-8.6,18.9-18.5c0-6.4-5.2-11.6-11.5-11.6c-6.4,0-11.5,5.2-11.5,11.6c0,5.1,3.3,9.4,7.8,11
	c-15.5-0.5-15.5-14.2-15.5-14.2c1.4-24.6,19.7-18.3,19.7-18.3c27.4-1.4,23.1,26.1,23.1,26.1c-2.8,31-34.3,28.5-34.3,28.5
	c-15.5,0-32.5-6.9-35.4-23.7c-2.2-12.8,2.3-27,9.2-37.6c11.4-17.3,29-18.6,29-18.6c65.2,0.7,65.8,54.2,65.8,54.2
	c-1.4,42.2-46.3,46.4-46.3,46.4s81.3,89.9,81.3,90c-1.3-1.4,7.5-10.8,8.6-11.8c3.9-3.7,8.5-6.5,13.1-9c10.9-5.6,22.2-8.1,34.1-9.8
	c26.8-3.9,54.2-5.7,81-1.1c22.8,3.9,44.1,13.7,59.2,31.7l81.3-90c0,0-44.9-4.3-46.3-46.4c0,0,0.7-53.4,65.8-54.2
	c0,0,17.6,1.3,29,18.6c7,10.5,11.4,24.9,9.2,37.6c-2.9,16.8-19.9,23.7-35.4,23.7c0,0-31.5,2.5-34.3-28.5c0,0-4.2-27.5,23.1-26.1
	c0,0,18.2-6.3,19.7,18.3c0,0,0,13.5-15.5,14.2c4.6-1.5,7.8-5.9,7.8-11c0-6.4-5.2-11.6-11.5-11.6c-6.4,0-11.5,5.2-11.5,11.6
	c0,9.9,9.5,18,18.9,18.5c10.4,0.5,20.9-9.9,21-20.3c0,0,0.3-17.4-11-26.8c-11.1-9.3-33.5-6.3-44,2.2c-11.6,9.3-18.6,26.3-14.2,41
	c7.4,24.6,42.3,38.7,65.6,34C511,292.5,529,249.7,517.5,217.9z M191.1,261.8c-13.9,0-25.2-11.3-25.2-25.3c0-14,11.3-25.3,25.2-25.3
	s25.2,11.3,25.2,25.3C216.3,250.4,205,261.8,191.1,261.8z M231.9,349l28.6-123.7l28,123.7H231.9z M329.8,261.8
	c-13.9,0-25.2-11.3-25.2-25.3c0-14,11.3-25.3,25.2-25.3s25.2,11.3,25.2,25.3C355,250.4,343.7,261.8,329.8,261.8z M393.6,202.7
	c-57.5-66.1-133.1,8.4-133.1,8.4s-75.7-74.6-133.1-8.4v-36.5c0,0,50.4-45.7,133.1,5.7c82.7-51.3,133.1-5.7,133.1-5.7V202.7z"/>
</svg>
