<svg xmlns="http://www.w3.org/2000/svg" fill="none" viewBox="0 0 521 573"><g clip-path="url(#a)" fill="#FEBB9F"><path d="M329.807 249.87c7.38 0 13.362-6.004 13.362-13.409 0-7.406-5.982-13.41-13.362-13.41-7.379 0-13.361 6.004-13.361 13.41 0 7.405 5.982 13.409 13.361 13.409zm39.977 258.482c9.539 0 17.272-7.761 17.272-17.334s-7.733-17.334-17.272-17.334c-9.539 0-17.273 7.761-17.273 17.334s7.734 17.334 17.273 17.334zm-34.545 40.773c9.539 0 17.272-7.761 17.272-17.334s-7.733-17.334-17.272-17.334c-9.539 0-17.273 7.761-17.273 17.334s7.734 17.334 17.273 17.334zM286.246 573c9.539 0 17.272-7.761 17.272-17.334s-7.733-17.334-17.272-17.334c-9.54 0-17.273 7.761-17.273 17.334S276.706 573 286.246 573zm-95.162-323.13c7.38 0 13.362-6.004 13.362-13.409 0-7.406-5.982-13.41-13.362-13.41-7.379 0-13.362 6.004-13.362 13.41 0 7.405 5.983 13.409 13.362 13.409zm65.288 126.461H245.4v21.804h-7.496v-21.804h-15.099v21.804h-7.496v-21.804h-15.1v21.804h-7.495v-21.804s-17.708 5.669-18.359 29.544v4.252c.651 23.875 18.359 29.544 18.359 29.544v-21.804h7.495v21.804h15.1v-21.804h7.496v21.804h15.099v-21.804h7.496v21.804h10.972v-21.804h4.128v-19.514h-4.128v-22.022zm4.128 80.456s-52.795 2.834-81.257-15.481c0 0 4.237 73.151 81.257 75.986 77.02-2.835 81.257-75.986 81.257-75.986-28.462 18.206-81.257 15.481-81.257 15.481zm136.877-353.438H123.623c-5.431 0-9.776 4.361-9.776 9.812 0 3.598 2.933 6.541 6.517 6.541h280.272c3.584 0 6.518-2.943 6.518-6.541 0-5.451-4.454-9.812-9.777-9.812zm-23.9-26.273H147.414c-5.432 0-9.777 4.36-9.777 9.812 0 3.597 2.933 6.54 6.518 6.54h232.581c3.585 0 6.518-2.943 6.518-6.54.109-5.451-4.345-9.812-9.777-9.812zM280.814 0h-40.628c-5.432 0-9.777 4.36-9.777 9.812 0 3.597 2.933 6.54 6.518 6.54h47.146c3.585 0 6.518-2.943 6.518-6.54 0-5.451-4.345-9.812-9.777-9.812zm34.763 22.458H205.315c-5.432 0-9.777 4.36-9.777 9.811 0 3.598 2.933 6.541 6.518 6.541h116.78c3.584 0 6.517-2.943 6.517-6.54 0-5.452-4.345-9.812-9.776-9.812zm35.957 24.638H169.358c-5.432 0-9.777 4.36-9.777 9.812 0 3.597 2.933 6.54 6.518 6.54h188.694c3.585 0 6.518-2.943 6.518-6.54 0-5.451-4.346-9.812-9.777-9.812zM151.216 508.352c9.539 0 17.273-7.761 17.273-17.334s-7.734-17.334-17.273-17.334-17.273 7.761-17.273 17.334 7.734 17.334 17.273 17.334zm34.545 40.773c9.539 0 17.273-7.761 17.273-17.334s-7.734-17.334-17.273-17.334-17.272 7.761-17.272 17.334 7.733 17.334 17.272 17.334zM234.646 573c9.539 0 17.272-7.761 17.272-17.334s-7.733-17.334-17.272-17.334c-9.54 0-17.273 7.761-17.273 17.334S225.106 573 234.646 573z"/><path d="M328.286 376.331v21.804h-7.604v-21.804h-15.1v21.804h-7.495v-21.804h-15.1v21.804h-7.496v-21.804h-11.298v21.804h-3.802v19.514h3.802v21.804h11.298v-21.804h7.496v21.804h15.1v-21.804h7.495v21.804h15.1v-21.804h7.496v21.804s17.707-5.669 18.359-29.544v-4.252c-.544-23.657-18.251-29.326-18.251-29.326z"/><path d="M517.524 217.928c-5.541-15.263-19.771-29.653-33.894-37.394-27.918-15.153-54.316-2.398-73.978 19.297v-68.246H111.239v68.246c-19.662-21.695-46.06-34.45-73.978-19.297-14.122 7.632-28.353 22.131-33.893 37.394-11.407 31.724 6.626 74.459 41.28 81.436 23.464 4.688 58.227-9.266 65.614-34.014 4.345-14.608-2.607-31.615-14.231-40.99-10.646-8.504-32.916-11.338-43.996-2.181-11.19 9.376-10.972 26.819-10.972 26.819.109 10.356 10.537 20.931 20.966 20.277 9.56-.545 18.902-8.612 18.902-18.533 0-6.432-5.214-11.556-11.515-11.556-6.41 0-11.515 5.233-11.515 11.556 0 5.124 3.259 9.376 7.821 11.011-15.534-.545-15.534-14.172-15.534-14.172 1.412-24.639 19.662-18.316 19.662-18.316 27.376-1.417 23.14 26.056 23.14 26.056-2.825 30.961-34.329 28.454-34.329 28.454-15.534 0-32.48-6.869-35.414-23.657-2.172-12.756 2.282-27.037 9.234-37.612 11.406-17.334 29.005-18.642 29.005-18.642 65.179.654 65.831 54.182 65.831 54.182-1.412 42.19-46.277 46.442-46.277 46.442s81.256 89.94 81.256 90.049c-1.303-1.417 7.496-10.793 8.582-11.774 3.911-3.706 8.474-6.541 13.145-9.048 10.863-5.56 22.161-8.068 34.11-9.812 26.833-3.925 54.208-5.669 81.04-1.09 22.813 3.924 44.105 13.736 59.205 31.724l81.256-90.049s-44.865-4.252-46.277-46.442c0 0 .652-53.419 65.831-54.182 0 0 17.599 1.308 29.005 18.642 6.953 10.466 11.406 24.856 9.234 37.612-2.933 16.788-19.88 23.657-35.414 23.657 0 0-31.504 2.507-34.328-28.454 0 0-4.237-27.473 23.139-26.056 0 0 18.25-6.323 19.662 18.316 0 0 0 13.518-15.534 14.172 4.562-1.526 7.821-5.887 7.821-11.011 0-6.432-5.214-11.556-11.515-11.556-6.409 0-11.515 5.233-11.515 11.556 0 9.921 9.451 17.988 18.902 18.533 10.429.545 20.857-9.921 20.966-20.277 0 0 .326-17.443-10.972-26.819-11.08-9.266-33.458-6.323-43.996 2.181-11.623 9.266-18.576 26.273-14.231 40.99 7.387 24.639 42.258 38.702 65.614 34.014 34.98-6.868 53.013-49.712 41.498-81.436zm-326.44 43.825c-13.905 0-25.203-11.338-25.203-25.292 0-13.955 11.298-25.293 25.203-25.293s25.203 11.338 25.203 25.293c0 13.954-11.298 25.292-25.203 25.292zm40.846 87.215 28.57-123.736 28.027 123.736H231.93zm97.877-87.215c-13.905 0-25.202-11.338-25.202-25.292 0-13.955 11.297-25.293 25.202-25.293 13.905 0 25.203 11.338 25.203 25.293 0 13.954-11.298 25.292-25.203 25.292zm63.767-59.088C336.108 136.6 260.5 211.059 260.5 211.059s-75.717-74.568-133.074-8.394v-36.521s50.405-45.679 133.074 5.669c82.669-51.348 133.074-5.669 133.074-5.669v36.521z"/></g><defs><clipPath id="a"><path fill="#fff" d="M0 0h521v573H0z"/></clipPath></defs></svg>