<svg viewBox="0 0 1976 1524" fill="none" xmlns="http://www.w3.org/2000/svg"><path d="M120.21 769.814c21.456-28.422 96.108-.832 142.209 14.65 50.253 16.831 99.012 18.482 144.234-13.095 8.979-6.549 16.976-16.596 21.148-26.826 3.334-8.737 3.968-23.51-1.166-28.358-6.954-6.853-20.698-12.805-31.395-8.794-10.697 4.012-6.463 2.068-10.063 3.582-43.912 21.899-59.886 16.07-79.643-27.446-10.042-22.341-18.019-23.874-34.238-5.478-23.91 26.847-58.475 20.202-71.79-13.801-2.699-6.035-5.399-12.071-10.901-23.609-5.113 12.256-8.242 19.929-11.801 26.968-3.027 7.141-2.23 14.466-10.247 21.751-33.297 6.838-54.037-11.491-55.714-51.532.287-18.701 1.003-36.767 4.377-54.322 1.33-6.916 11.045-14.426 18.878-17.885 38.534-16.865 80.298-27.592 116.357-48.794 33.727-20.547 66.022-47.989 90.647-78.56 48.514-60.18 112.225-90.409 184.996-101.796 64.815-10.157 130.858-12.356 196.021-18.585 10.717-1.25 21.966-2.397 31.926-5.447 45.242-14.472 60.439-41.891 52.953-91.874-7.261-48.285 5.359-65.167 54.814-70.002 85.534-8.933 169.408 2.226 252.488 20.404 109.57 23.82 216.23 57.012 316.86 107.248 57.35 28.677 106.17 67.299 140.77 122.496 8.92 13.85 9.74 23.937-1.86 35.499-12.43 13.055-23.48 27.481-36.77 39.268-44.63 39.965-56.68 91.159-47.02 147.075 2.55 15.386 18.83 33.962 33.44 41.182 62.26 31.827 139.08 22.323 179.06-42.255 7.35-12.38 17.57-22.55 26.94-33.989 23.99-30.141 52.5-37.9 89.03-24.258 65.29 24.686 108.73 97.028 103.88 173.877-4.44 74.721-33.81 138.582-80.65 195.775-25.15 30.469-50.31 60.938-76.43 90.667-30.86 34.34-22.82 72.85-14.99 112.41 10.61 56.66 24.62 112.86 9.02 171.09-27.82 101.67-144.34 185.74-251.26 159.67-46.39-11.13-62.26-31.83-67.4-79.71-1.57-11.88 2.87-43.58 6.94-53.28 20.08-70.05-18.06-115.45-66.05-155.57-102.26-84.75-259.66-115.01-352.5-116.85-11.58-.02-16.87 1.72-45.405 6.71-28.532 5-50.335 58.18-24.646 85.18 12.844 13.5 29.595 9.55 41.847.32 12.254-9.23 22.764-9.41 32.234-7.04 35.01 10.04 64.2 50.41 65.96 87.15 2.25 45.67-19.06 79.08-58.54 97.97-75.243 35.74-152.371 32.5-227.085-3.38-39.862-19.25-55.775-59.82-71.564-98.16-10.922-26.37-14.644-55.77-24.4-82.47-18.306-48.2-46.653-90.06-94.717-112.54-85.043-39.516-171.129-76.476-256.479-114.397-46.775-20.576-93.981-41.787-141.493-61.401-20.452-8.345-42.582-13.703-63.669-21.618-39.597-12.025-57.964-39.828-37.143-67.82zm657.601-159.336c56.123 20.718 108.237 45.079 162.498 58.268 136.501 32.861 274.351 61.567 412.311 89.742 52.01 10.55 74.61-6.62 88.35-58.038 11.27-41.413-4.17-75.825-21.33-112.774-45.98-99.308-120.69-163.869-223.63-196.346-123.27-38.591-248.869-47.841-376.372-27.117-46.674 7.577-54.957 21.982-37.429 65.621 19.798 49.04 21.966 98.001 4.704 147.64-3.109 10.436-5.686 20.973-9.102 33.004zm726.039 462.832c-1.64 37.2-12.66 83.07-3.44 124.01 11.41 49.63 20.17 98.76 16.61 148.82-1.91 29.98 14.11 41.33 36.67 47.32 14.25 3.3 30.49 2 45.34-.66 44.45-7.45 92.45-79.31 88.3-123.69-5.91-66.78-19.04-133.3-35.77-198.3-11.38-44.11 7.54-70.812 39.47-90.602 76-48.276 127.46-112.304 144.21-202.311 7.14-40.001 15.45-80.329-2.37-119.61-14.46-30.914-48.49-37.456-69.87-12.328-32 37.427-70.48 62.578-114.94 81.612-24.03 10.275-43.77 26.891-52.38 54.473-29.78 94.674-59.56 189.347-91.83 291.266zM358.2 854.179c20.678 10.043 33.481 18.02 47.962 23.01 48.882 18.224 96.435 43.362 147.362 50.946 91.547 14.289 124.783-29.521 108.217-115.452-4.52-22.383-26.119-41.981-41.131-61.416-7.077-9.083-16.689-16.448-25.239-23.608-18.489-15.69-13.805-28.58 3.518-41.248 20.494-14.816 39.597-31.003 60.95-44.55 90.381-57.097 88.643-162.795 49.394-228.262-20.432-34.268-62.258-46.17-87.968-32.908 10.165 38.914 25.628 76.088 28.246 114.103 2.863 42.475-24.299 74.765-58.966 97.338-76.944 50.302-152.067 30.896-235.065-62.289-31.497 20.424-81.811 52.676-93.101 62.642-10.268 4.646.368 6.691 3.456 7.836 34.79 8.343 70.01 17.32 104.801 25.663 56.92 13.7 94.573 35.833 111.672 93.18 2.393 7.631 8.57 24.265 10.022 33.922 2.045 18.045-2.68 25.412-12.681 37.28-31.354 39.759-67.372 52.143-121.449 63.813zm771.3 49.526 168.04 32.304c80.3 15.436 92.75 5.142 93.53-76.351.02-25.923-8.69-40.837-36.88-46.255-176.57-36.701-352.2-75.428-528.56-113.193-27.019-5.745-54.569-11.593-82.2-14.147-27.632-2.553-52.973 17.399-54.732 38.023-1.964 21.688 32.786 67.535 54.282 73.322 51.5 13.21 102.468 26.318 153.232 40.489 82.793 22.536 164.748 46.565 233.288 65.808zm-466.492 80.23c49.68 39.895 88.684 86.555 105.946 137.315 14.112 41.33 39.801 125.7 69.396 149.59 29.595 23.9 96.763 30.19 147.792 22.9 44.878-6.82 59.538-34.34 41.928-74.69-71.42 35.92-136.89.72-139.14-87.98-1.084-45.99-2.167-91.99-8.344-137.304-4.152-30.035-12.988-61.522-27.734-88.078-17.446-32.59-54.159-42.406-86.965-55.332-22.58-8.754-34.729-.057-44.67 20.098-13.805 28.79-30.27 57.068-45.037 85.121-4.5 9.065-8.365 17.699-13.172 28.36zm261.92-68.804c4.008 68.07 25.709 87.139 86.312 96.029 95.47 13.94 190.13 32.14 284.99 49.27 26.69 4.58 39.7-2.85 45.96-32.54 5.03-23.31-10.84-29.667-28.82-33.674-37.02-8.22-73.73-18.036-110.96-25.192-91.26-18.646-183.36-35.799-277.482-53.893zm582.412-172.686c-3.82-.183-7.11-.265-10.94-.448-9.12 15.899-21.96 31.082-27.47 48.228-27.26 90.193-53.03 181.224-78.27 272.355-7.14 25.66 4.66 56.06 21.45 57.64 25.41 2.67 34.92-18.12 42.96-36.98 36.91-91.648 55.95-187.834 63.3-286.27 1.25-17.964-6.75-36.602-11.03-54.525zM537.715 413.726c-32.847-4.108-64.283-4.083-92.365 18.652-23.541 19.195-32.07 57.825-18.142 88.636 16.301 35.681 43.156 48.015 79.501 51.14 36.344 3.125 104.964-38.296 88.008-119.337-9.428-25.533-33.276-33.427-57.002-39.091zm641.725-79.641c8.41-26.518 16-48.78 22.42-70.714 3.62-13.095-.8-21.667-16.22-24.632-25.52-4.907-50.74-11.409-76.27-16.316-57.86-11.675-74.2 4.491-64.63 63.702.68 5.094 5.4 12.071 9.55 13.42 40.34 11.064 81.2 22.229 125.15 34.54zm-179.2-63.135c1.31-9.678 2.33-14.998 2.29-20.522 2.82-34.763-8.981-50.822-44.038-52.045-25.811-.549-51.582 4.427-76.616 8.441-17.078 2.785-25.587 15.492-25.137 33.231.307 12.746.082 25.391 3.886 37.155 1.964 6.997 11.168 16.489 17.651 17.184 29.227 2.86 58.966 3.061 88.5 4.325 21.455.263 36.054-6.859 33.464-27.769zm336.1 124.739c11.74-20.912 24.44-41.088 34.69-62.839 2.82-6.077-.8-21.667-5.38-23.651-34.85-16.629-71.18-31.335-109.43-47.513-6.62 22.998-12.78 37.812-15.74 53.239-6.37 30.221.73 42.067 29.39 53.643 20.45 8.345 41.43 16.792 66.47 27.121zm106.27 95.452c17.59-19.787 37.31-39.166 53.18-61.49 20.29-28.095 15.38-45.588-15.24-64.162-15.79-9.655-33.36-15.79-49.45-23.849-60.5 76.632-58.34 111.251 11.51 149.501z" fill="#F8F5B0"/><path d="M1168.22 467.078c6.38 1.227 18.83 5.276 26.15 18.82 10.89 20.847 25.78 38.052 22.71 54.012-3.79 19.683-10.74 27.172-30.48 43.789-12.56 10.825-42.7 12.753-42.7 12.753s-35.88 3.033-43.1-25.385c-9.83-37.748 9.7-81.986 43.57-97.54 7.2-3.03 18-7.573 23.85-6.449zM932.843 535.47c-30.311-5.827-45.385-33.549-37.368-69.519 5.952-28.093 26.548-43.441 52.278-39.598 28.92 4.456 49.782 39.358 43.217 70.643-6.361 30.221-27.816 44.3-58.127 38.474zm420.987 41.761c27.97 6.482 45.36 30.786 40.23 54.623-6.69 29.054-36.68 53.079-59.77 46.985-23.09-6.094-38.2-39.34-31.41-68.926 6.05-28.625 22.97-39.164 50.95-32.682z" fill="#F8F5B0"/></svg>