<svg width="1976" height="1524" viewBox="0 0 1976 1524" fill="none" xmlns="http://www.w3.org/2000/svg">
<path d="M120.21 769.814C141.666 741.392 216.318 768.982 262.419 784.464C312.672 801.295 361.431 802.946 406.653 771.369C415.632 764.82 423.629 754.773 427.801 744.543C431.135 735.806 431.769 721.033 426.635 716.185C419.681 709.332 405.937 703.38 395.24 707.391C384.543 711.403 388.777 709.459 385.177 710.973C341.265 732.872 325.291 727.043 305.534 683.527C295.492 661.186 287.515 659.653 271.296 678.049C247.386 704.896 212.821 698.251 199.506 664.248C196.807 658.213 194.107 652.177 188.605 640.639C183.492 652.895 180.363 660.568 176.804 667.607C173.777 674.748 174.574 682.073 166.557 689.358C133.26 696.196 112.52 677.867 110.843 637.826C111.13 619.125 111.846 601.059 115.22 583.504C116.55 576.588 126.265 569.078 134.098 565.619C172.632 548.754 214.396 538.027 250.455 516.825C284.182 496.278 316.477 468.836 341.102 438.265C389.616 378.085 453.327 347.856 526.098 336.469C590.913 326.312 656.956 324.113 722.119 317.884C732.836 316.634 744.085 315.487 754.045 312.437C799.287 297.965 814.484 270.546 806.998 220.563C799.737 172.278 812.357 155.396 861.812 150.561C947.346 141.628 1031.22 152.787 1114.3 170.965C1223.87 194.785 1330.53 227.977 1431.16 278.213C1488.51 306.89 1537.33 345.512 1571.93 400.709C1580.85 414.559 1581.67 424.646 1570.07 436.208C1557.64 449.263 1546.59 463.689 1533.3 475.476C1488.67 515.441 1476.62 566.635 1486.28 622.551C1488.83 637.937 1505.11 656.513 1519.72 663.733C1581.98 695.56 1658.8 686.056 1698.78 621.478C1706.13 609.098 1716.35 598.928 1725.72 587.489C1749.71 557.348 1778.22 549.589 1814.75 563.231C1880.04 587.917 1923.48 660.259 1918.63 737.108C1914.19 811.829 1884.82 875.69 1837.98 932.883C1812.83 963.352 1787.67 993.821 1761.55 1023.55C1730.69 1057.89 1738.73 1096.4 1746.56 1135.96C1757.17 1192.62 1771.18 1248.82 1755.58 1307.05C1727.76 1408.72 1611.24 1492.79 1504.32 1466.72C1457.93 1455.59 1442.06 1434.89 1436.92 1387.01C1435.35 1375.13 1439.79 1343.43 1443.86 1333.73C1463.94 1263.68 1425.8 1218.28 1377.81 1178.16C1275.55 1093.41 1118.15 1063.15 1025.31 1061.31C1013.73 1061.29 1008.44 1063.03 979.905 1068.02C951.373 1073.02 929.57 1126.2 955.259 1153.2C968.103 1166.7 984.854 1162.75 997.106 1153.52C1009.36 1144.29 1019.87 1144.11 1029.34 1146.48C1064.35 1156.52 1093.54 1196.89 1095.3 1233.63C1097.55 1279.3 1076.24 1312.71 1036.76 1331.6C961.517 1367.34 884.389 1364.1 809.675 1328.22C769.813 1308.97 753.9 1268.4 738.111 1230.06C727.189 1203.69 723.467 1174.29 713.711 1147.59C695.405 1099.39 667.058 1057.53 618.994 1035.05C533.951 995.534 447.865 958.574 362.515 920.653C315.74 900.077 268.534 878.866 221.022 859.252C200.57 850.907 178.44 845.549 157.353 837.634C117.756 825.609 99.3894 797.806 120.21 769.814ZM777.811 610.478C833.934 631.196 886.048 655.557 940.309 668.746C1076.81 701.607 1214.66 730.313 1352.62 758.488C1404.63 769.038 1427.23 751.868 1440.97 700.45C1452.24 659.037 1436.8 624.625 1419.64 587.676C1373.66 488.368 1298.95 423.807 1196.01 391.33C1072.74 352.739 947.141 343.489 819.638 364.213C772.964 371.79 764.681 386.195 782.209 429.834C802.007 478.874 804.175 527.835 786.913 577.474C783.804 587.91 781.227 598.447 777.811 610.478ZM1503.85 1073.31C1502.21 1110.51 1491.19 1156.38 1500.41 1197.32C1511.82 1246.95 1520.58 1296.08 1517.02 1346.14C1515.11 1376.12 1531.13 1387.47 1553.69 1393.46C1567.94 1396.76 1584.18 1395.46 1599.03 1392.8C1643.48 1385.35 1691.48 1313.49 1687.33 1269.11C1681.42 1202.33 1668.29 1135.81 1651.56 1070.81C1640.18 1026.7 1659.1 999.998 1691.03 980.208C1767.03 931.932 1818.49 867.904 1835.24 777.897C1842.38 737.896 1850.69 697.568 1832.87 658.287C1818.41 627.373 1784.38 620.831 1763 645.959C1731 683.386 1692.52 708.537 1648.06 727.571C1624.03 737.846 1604.29 754.462 1595.68 782.044C1565.9 876.718 1536.12 971.391 1503.85 1073.31ZM358.2 854.179C378.878 864.222 391.681 872.199 406.162 877.189C455.044 895.413 502.597 920.551 553.524 928.135C645.071 942.424 678.307 898.614 661.741 812.683C657.221 790.3 635.622 770.702 620.61 751.267C613.533 742.184 603.921 734.819 595.371 727.659C576.882 711.969 581.566 699.079 598.889 686.411C619.383 671.595 638.486 655.408 659.839 641.861C750.22 584.764 748.482 479.066 709.233 413.599C688.801 379.331 646.975 367.429 621.265 380.691C631.43 419.605 646.893 456.779 649.511 494.794C652.374 537.269 625.212 569.559 590.545 592.132C513.601 642.434 438.478 623.028 355.48 529.843C323.983 550.267 273.669 582.519 262.379 592.485C252.111 597.131 262.747 599.176 265.835 600.321C300.625 608.664 335.845 617.641 370.636 625.984C427.556 639.684 465.209 661.817 482.308 719.164C484.701 726.795 490.878 743.429 492.33 753.086C494.375 771.131 489.65 778.498 479.649 790.366C448.295 830.125 412.277 842.509 358.2 854.179ZM1129.5 903.705C1194.91 916.279 1246.49 926.195 1297.54 936.009C1377.84 951.445 1390.29 941.151 1391.07 859.658C1391.09 833.735 1382.38 818.821 1354.19 813.403C1177.62 776.702 1001.99 737.975 825.63 700.21C798.611 694.465 771.061 688.617 743.43 686.063C715.798 683.51 690.457 703.462 688.698 724.086C686.734 745.774 721.484 791.621 742.98 797.408C794.48 810.618 845.448 823.726 896.212 837.897C979.005 860.433 1060.96 884.462 1129.5 903.705ZM663.008 983.935C712.688 1023.83 751.692 1070.49 768.954 1121.25C783.066 1162.58 808.755 1246.95 838.35 1270.84C867.945 1294.74 935.113 1301.03 986.142 1293.74C1031.02 1286.92 1045.68 1259.4 1028.07 1219.05C956.65 1254.97 891.18 1219.77 888.93 1131.07C887.846 1085.08 886.763 1039.08 880.586 993.766C876.434 963.731 867.598 932.244 852.852 905.688C835.406 873.098 798.693 863.282 765.887 850.356C743.307 841.602 731.158 850.299 721.217 870.454C707.412 899.244 690.947 927.522 676.18 955.575C671.68 964.64 667.815 973.274 663.008 983.935ZM924.928 915.131C928.936 983.201 950.637 1002.27 1011.24 1011.16C1106.71 1025.1 1201.37 1043.3 1296.23 1060.43C1322.92 1065.01 1335.93 1057.58 1342.19 1027.89C1347.22 1004.58 1331.35 998.223 1313.37 994.216C1276.35 985.996 1239.64 976.18 1202.41 969.024C1111.15 950.378 1019.05 933.225 924.928 915.131ZM1507.34 742.445C1503.52 742.262 1500.23 742.18 1496.4 741.997C1487.28 757.896 1474.44 773.079 1468.93 790.225C1441.67 880.418 1415.9 971.449 1390.66 1062.58C1383.52 1088.24 1395.32 1118.64 1412.11 1120.22C1437.52 1122.89 1447.03 1102.1 1455.07 1083.24C1491.98 991.592 1511.02 895.406 1518.37 796.97C1519.62 779.006 1511.62 760.368 1507.34 742.445ZM537.715 413.726C504.868 409.618 473.432 409.643 445.35 432.378C421.809 451.573 413.28 490.203 427.208 521.014C443.509 556.695 470.364 569.029 506.709 572.154C543.053 575.279 611.673 533.858 594.717 452.817C585.289 427.284 561.441 419.39 537.715 413.726ZM1179.44 334.085C1187.85 307.567 1195.44 285.305 1201.86 263.371C1205.48 250.276 1201.06 241.704 1185.64 238.739C1160.12 233.832 1134.9 227.33 1109.37 222.423C1051.51 210.748 1035.17 226.914 1044.74 286.125C1045.42 291.219 1050.14 298.196 1054.29 299.545C1094.63 310.609 1135.49 321.774 1179.44 334.085ZM1000.24 270.95C1001.55 261.272 1002.57 255.952 1002.53 250.428C1005.35 215.665 993.549 199.606 958.492 198.383C932.681 197.834 906.91 202.81 881.876 206.824C864.798 209.609 856.289 222.316 856.739 240.055C857.046 252.801 856.821 265.446 860.625 277.21C862.589 284.207 871.793 293.699 878.276 294.394C907.503 297.254 937.242 297.455 966.776 298.719C988.231 298.982 1002.83 291.86 1000.24 270.95ZM1336.34 395.689C1348.08 374.777 1360.78 354.601 1371.03 332.85C1373.85 326.773 1370.23 311.183 1365.65 309.199C1330.8 292.57 1294.47 277.864 1256.22 261.686C1249.6 284.684 1243.44 299.498 1240.48 314.925C1234.11 345.146 1241.21 356.992 1269.87 368.568C1290.32 376.913 1311.3 385.36 1336.34 395.689ZM1442.61 491.141C1460.2 471.354 1479.92 451.975 1495.79 429.651C1516.08 401.556 1511.17 384.063 1480.55 365.489C1464.76 355.834 1447.19 349.699 1431.1 341.64C1370.6 418.272 1372.76 452.891 1442.61 491.141Z" fill="#F8F5B0"/>
<path d="M1168.22 467.078C1174.6 468.305 1187.05 472.354 1194.37 485.898C1205.26 506.745 1220.15 523.95 1217.08 539.91C1213.29 559.593 1206.34 567.082 1186.6 583.699C1174.04 594.524 1143.9 596.452 1143.9 596.452C1143.9 596.452 1108.02 599.485 1100.8 571.067C1090.97 533.319 1110.5 489.081 1144.37 473.527C1151.57 470.497 1162.37 465.954 1168.22 467.078Z" fill="#F8F5B0"/>
<path d="M932.843 535.47C902.532 529.643 887.458 501.921 895.475 465.951C901.427 437.858 922.023 422.51 947.753 426.353C976.673 430.809 997.535 465.711 990.97 496.996C984.609 527.217 963.154 541.296 932.843 535.47Z" fill="#F8F5B0"/>
<path d="M1353.83 577.231C1381.8 583.713 1399.19 608.017 1394.06 631.854C1387.37 660.908 1357.38 684.933 1334.29 678.839C1311.2 672.745 1296.09 639.499 1302.88 609.913C1308.93 581.288 1325.85 570.749 1353.83 577.231Z" fill="#F8F5B0"/>
</svg>
