<svg xmlns="http://www.w3.org/2000/svg" xmlns:xlink="http://www.w3.org/1999/xlink" id="Layer_1" x="0" y="0" enable-background="new 0 0 1948.9 1429.2" version="1.1" viewBox="0 0 1948.9 1429.2" xml:space="preserve"><style type="text/css">.st0{fill:#e8edf5}</style><g><path d="M121.2,673.7c21.5-28.4,96.1-0.8,142.2,14.7c50.3,16.8,99,18.5,144.2-13.1c9-6.5,17-16.6,21.1-26.8 c3.3-8.7,4-23.5-1.2-28.4c-7-6.9-20.7-12.8-31.4-8.8c-10.7,4-6.5,2.1-10.1,3.6c-43.9,21.9-59.9,16.1-79.6-27.4 c-10-22.3-18-23.9-34.2-5.5c-23.9,26.8-58.5,20.2-71.8-13.8c-2.7-6-5.4-12.1-10.9-23.6c-5.1,12.3-8.2,19.9-11.8,27 c-3,7.1-2.2,14.5-10.2,21.8c-33.3,6.8-54-11.5-55.7-51.5c0.3-18.7,1-36.8,4.4-54.3c1.3-6.9,11-14.4,18.9-17.9 c38.5-16.9,80.3-27.6,116.4-48.8c33.7-20.5,66-48,90.6-78.6c48.5-60.2,112.2-90.4,185-101.8c64.8-10.2,130.9-12.4,196-18.6 c10.7-1.2,22-2.4,31.9-5.4c45.2-14.5,60.4-41.9,53-91.9c-7.3-48.3,5.4-65.2,54.8-70c85.5-8.9,169.4,2.2,252.5,20.4 c109.6,23.8,216.2,57,316.9,107.2c57.3,28.7,106.2,67.3,140.8,122.5c8.9,13.9,9.7,23.9-1.9,35.5c-12.4,13.1-23.5,27.5-36.8,39.3 c-44.6,40-56.7,91.2-47,147.1c2.6,15.4,18.8,34,33.4,41.2c62.3,31.8,139.1,22.3,179.1-42.3c7.3-12.4,17.6-22.5,26.9-34 c24-30.1,52.5-37.9,89-24.3c65.3,24.7,108.7,97,103.9,173.9c-4.4,74.7-33.8,138.6-80.7,195.8c-25.1,30.5-50.3,60.9-76.4,90.7 c-30.9,34.3-22.8,72.8-15,112.4c10.6,56.7,24.6,112.9,9,171.1c-27.8,101.7-144.3,185.7-251.3,159.7c-46.4-11.1-62.3-31.8-67.4-79.7 c-1.6-11.9,2.9-43.6,6.9-53.3c20.1-70.1-18.1-115.5-66-155.6c-102.3-84.8-259.7-115-352.5-116.9c-11.6,0-16.9,1.7-45.4,6.7 c-28.5,5-50.3,58.2-24.6,85.2c12.8,13.5,29.6,9.6,41.8,0.3c12.3-9.2,22.8-9.4,32.2-7c35,10,64.2,50.4,66,87.2 c2.3,45.7-19.1,79.1-58.5,98c-75.2,35.7-152.4,32.5-227.1-3.4c-39.9-19.2-55.8-59.8-71.6-98.2c-10.9-26.4-14.6-55.8-24.4-82.5 c-18.3-48.2-46.7-90.1-94.7-112.5c-85-39.5-171.1-76.5-256.5-114.4c-46.8-20.6-94-41.8-141.5-61.4c-20.5-8.3-42.6-13.7-63.7-21.6 C118.7,729.5,100.4,701.7,121.2,673.7z M778.8,514.3c56.1,20.7,108.2,45.1,162.5,58.3c136.5,32.9,274.4,61.6,412.3,89.7 c52,10.5,74.6-6.6,88.3-58c11.3-41.4-4.2-75.8-21.3-112.8c-46-99.3-120.7-163.9-223.6-196.3c-123.3-38.6-248.9-47.8-376.4-27.1 c-46.7,7.6-55,22-37.4,65.6c19.8,49,22,98,4.7,147.6C784.8,491.8,782.2,502.3,778.8,514.3z M1504.8,977.2 c-1.6,37.2-12.7,83.1-3.4,124c11.4,49.6,20.2,98.8,16.6,148.8c-1.9,30,14.1,41.3,36.7,47.3c14.3,3.3,30.5,2,45.3-0.7 c44.4-7.5,92.4-79.3,88.3-123.7c-5.9-66.8-19-133.3-35.8-198.3c-11.4-44.1,7.5-70.8,39.5-90.6c76-48.3,127.5-112.3,144.2-202.3 c7.1-40,15.4-80.3-2.4-119.6c-14.5-30.9-48.5-37.5-69.9-12.3c-32,37.4-70.5,62.6-114.9,81.6c-24,10.3-43.8,26.9-52.4,54.5 C1566.9,780.6,1537.1,875.3,1504.8,977.2z M359.2,758c20.7,10,33.5,18,48,23c48.9,18.2,96.4,43.4,147.4,50.9 c91.5,14.3,124.8-29.5,108.2-115.5c-4.5-22.4-26.1-42-41.1-61.4c-7.1-9.1-16.7-16.4-25.2-23.6c-18.5-15.7-13.8-28.6,3.5-41.2 c20.5-14.8,39.6-31,61-44.6c90.4-57.1,88.6-162.8,49.4-228.3c-20.4-34.3-62.3-46.2-88-32.9c10.2,38.9,25.6,76.1,28.2,114.1 c2.9,42.5-24.3,74.8-59,97.3c-76.9,50.3-152.1,30.9-235.1-62.3c-31.5,20.4-81.8,52.7-93.1,62.6c-10.3,4.6,0.4,6.7,3.5,7.8 c34.8,8.3,70,17.3,104.8,25.7c56.9,13.7,94.6,35.8,111.7,93.2c2.4,7.6,8.6,24.3,10,33.9c2,18-2.7,25.4-12.7,37.3 C449.3,734,413.2,746.4,359.2,758z M1130.5,807.6c65.4,12.6,117,22.5,168,32.3c80.3,15.4,92.8,5.1,93.5-76.4 c0-25.9-8.7-40.8-36.9-46.3c-176.6-36.7-352.2-75.4-528.6-113.2c-27-5.7-54.6-11.6-82.2-14.1c-27.6-2.6-53,17.4-54.7,38 c-2,21.7,32.8,67.5,54.3,73.3c51.5,13.2,102.5,26.3,153.2,40.5C980,764.3,1061.9,788.3,1130.5,807.6z M664,887.8 c49.7,39.9,88.7,86.6,105.9,137.3c14.1,41.3,39.8,125.7,69.4,149.6c29.6,23.9,96.8,30.2,147.8,22.9c44.9-6.8,59.5-34.3,41.9-74.7 c-71.4,35.9-136.9,0.7-139.1-88c-1.1-46-2.2-92-8.3-137.3c-4.2-30-13-61.5-27.7-88.1c-17.4-32.6-54.2-42.4-87-55.3 c-22.6-8.8-34.7-0.1-44.7,20.1c-13.8,28.8-30.3,57.1-45,85.1C672.6,868.5,668.8,877.1,664,887.8z M925.9,819 c4,68.1,25.7,87.1,86.3,96c95.5,13.9,190.1,32.1,285,49.3c26.7,4.6,39.7-2.9,46-32.5c5-23.3-10.8-29.7-28.8-33.7 c-37-8.2-73.7-18-111-25.2C1112.1,854.2,1020,837.1,925.9,819z M1508.3,646.3c-3.8-0.2-7.1-0.3-10.9-0.4 c-9.1,15.9-22,31.1-27.5,48.2c-27.3,90.2-53,181.2-78.3,272.4c-7.1,25.7,4.7,56.1,21.4,57.6c25.4,2.7,34.9-18.1,43-37 c36.9-91.6,56-187.8,63.3-286.3C1520.6,682.9,1512.6,664.2,1508.3,646.3z M538.7,317.6c-32.8-4.1-64.3-4.1-92.4,18.7 c-23.5,19.2-32.1,57.8-18.1,88.6c16.3,35.7,43.2,48,79.5,51.1s105-38.3,88-119.3C586.3,331.2,562.4,323.3,538.7,317.6z M1180.4,238 c8.4-26.5,16-48.8,22.4-70.7c3.6-13.1-0.8-21.7-16.2-24.6c-25.5-4.9-50.7-11.4-76.3-16.3c-57.9-11.7-74.2,4.5-64.6,63.7 c0.7,5.1,5.4,12.1,9.6,13.4C1095.6,214.5,1136.5,225.6,1180.4,238z M1001.2,174.8c1.3-9.7,2.3-15,2.3-20.5c2.8-34.8-9-50.8-44-52 c-25.8-0.5-51.6,4.4-76.6,8.4c-17.1,2.8-25.6,15.5-25.1,33.2c0.3,12.7,0.1,25.4,3.9,37.2c2,7,11.2,16.5,17.7,17.2 c29.2,2.9,59,3.1,88.5,4.3C989.2,202.9,1003.8,195.7,1001.2,174.8z M1337.3,299.6c11.7-20.9,24.4-41.1,34.7-62.8 c2.8-6.1-0.8-21.7-5.4-23.7c-34.9-16.6-71.2-31.3-109.4-47.5c-6.6,23-12.8,37.8-15.8,53.2c-6.4,30.2,0.7,42.1,29.4,53.6 C1291.3,280.8,1312.3,289.2,1337.3,299.6z M1443.6,395c17.6-19.8,37.3-39.2,53.2-61.5c20.3-28.1,15.4-45.6-15.2-64.2 c-15.8-9.7-33.4-15.8-49.5-23.8C1371.6,322.1,1373.7,356.8,1443.6,395z" class="st0"/><path d="M1169.2,370.9c6.4,1.2,18.8,5.3,26.2,18.8c10.9,20.8,25.8,38.1,22.7,54c-3.8,19.7-10.7,27.2-30.5,43.8 c-12.6,10.8-42.7,12.8-42.7,12.8s-35.9,3-43.1-25.4c-9.8-37.7,9.7-82,43.6-97.5C1152.5,374.4,1163.3,369.8,1169.2,370.9z" class="st0"/><path d="M933.8,439.3c-30.3-5.8-45.4-33.5-37.4-69.5c6-28.1,26.5-43.4,52.3-39.6c28.9,4.5,49.8,39.4,43.2,70.6 C985.6,431.1,964.1,445.2,933.8,439.3z" class="st0"/><path d="M1354.8,481.1c28,6.5,45.4,30.8,40.2,54.6c-6.7,29.1-36.7,53.1-59.8,47s-38.2-39.3-31.4-68.9 C1309.9,485.2,1326.8,474.6,1354.8,481.1z" class="st0"/><path d="M502.6,439.2c-18.5-4.1-47.9-14.7-40.7-52c7.1-36.7,40.6-41.8,63.1-38.6c23.5,4,38.9,30.1,33.2,56.6 C552,432.1,520.5,443.7,502.6,439.2z" class="st0"/></g></svg>