<svg xmlns="http://www.w3.org/2000/svg" fill="none" viewBox="0 0 408 397"><path fill="#8EA4CE" d="M188.562 277.448c1.068.067 2.136.134 3.271.134 2.002-.201-2.203-.201-3.271-.134z"/><path fill="#8EA4CE" d="M405.011 208.19c-2.069-13.678-5.607-27.09-9.077-40.434-2.67-10.409-3.204-25.555-8.076-34.963-7.008-13.545-21.492-5.405-33.105-4.07-13.816 1.535-27.698 2.869-41.581 3.002-16.085.134-51.125 1.535-52.66-21.084-.935-13.144 8.743-23.953 13.815-35.23 4.606-10.408 5.206-22.886 2.603-33.828-6.006-25.288-24.161-35.096-48.322-39.433-29.7-5.338-55.797-.067-84.163 8.473-13.082 3.937-26.23 7.674-39.846 9.142-9.077.934-7.141-.534-8.676 6.672-.868 3.936 1.535 6.072 5.206 6.472 15.017 1.401 29.968 3.07 44.918 4.67 12.881 1.335 13.682-8.14 22.759-15.746 14.951-12.677 43.45-14.746 61.004-7.14 49.39 21.352 15.618 101.286-33.973 93.613-12.08-1.868-24.027-9.408-29.834-20.284-3.003-5.605-9.344-16.68-16.819-16.948-12.615-.533-25.296-1-37.91-1.468-3.738-.133-10.479-1.801-13.683 1.068-3.737 3.27-.667 6.872 3.137 7.273 20.624 2.202 49.858 9.675 50.325 35.363.6 29.892-37.443 20.484-56.198 18.349-24.161-2.736-58.934-12.01-82.695-4.471-18.287 5.738-9.077 52.311-8.877 67.19.4 0 .668 48.641.668 53.245.066 7.94 14.483 8.607 14.616-2.202.067-9.007-1-17.882-1.668-26.822-1.402-17.682-3.47-40.368 2.603-57.382 5.34-15.079 25.83-13.678 39.111-14.679 11.747-.934 23.56-1.134 35.308-.667 4.872.2 19.021-1.201 22.826 2.135 3.537 3.203-5.273 18.082-6.274 21.952-2.002 7.873-2.47 15.946-2.47 24.02.067 18.882 2.203 40.834 11.146 57.782 6.341 12.01 21.225 18.882 23.961 32.627 2.737 14.012-6.874 35.097-12.013 47.841-2.47 6.071-21.559 43.503-.468 42.502 9.478-.4 16.82-43.236 19.089-51.176 1.602-5.605 6.874-39.033 14.817-38.299 13.348 1.201 2.002 33.028.467 41.902-3.137 18.415-7.942 36.43-11.28 54.779-1.735 9.608-.667 10.409 8.477 11.81 7.675 1.134 8.276-10.209 8.943-15.079 2.336-17.682 4.339-35.43 8.41-52.845.534-2.268 8.009-30.892 10.545-29.291 8.01 5.138 4.072 21.685 3.338 29.491-1.202 12.611-3.538 25.088-4.405 37.766-.401 6.205-3.538 23.82.133 29.024 3.137 4.404 13.482 3.603 17.42 1.735 2.87-1.335.668-11.543.601-13.812-.401-12.611-.067-25.355.2-37.965.267-13.678 1.068-27.357 2.002-41.035 1.001-13.745 10.145-17.615 12.882-2.068 4.872 27.49 4.939 55.847 7.475 83.604 1.135 12.343 14.75-6.539 15.685-9.875 3.003-11.477.066-25.155-.868-36.765-1.402-16.614-3.204-33.294-1.735-49.975 1.268-13.812 11.279 5.471 12.08 8.34 3.538 12.678 6.541 25.488 8.21 38.566 1.401 11.076.667 23.286 5.406 33.695 4.805 10.409 15.951 9.341 19.422-1.735 3.337-10.675-2.603-21.818-6.341-31.426-5.072-12.944-8.276-26.556-11.746-39.967-2.403-9.408-11.413-27.29-4.539-35.764 17.086-21.151 23.627-43.303 23.761-70.459.066-11.276-4.072-22.552-3.805-33.428.267-12.344 19.022-9.274 27.031-9.608 13.683-.601 64.808-8.474 68.145 9.475 5.006 27.489 3.871 55.78 4.338 83.603.134 9.141.401 13.879 11.013 12.611 3.871-.467 7.475-2.202 9.478-5.672 5.272-9.674 1.334-26.355-.267-36.697zm-133.02 4.337c-7.208 39.5-42.382 62.252-80.225 64.988-3.471-.067-3.871-.067-3.27-.134-45.052-2.535-69.213-43.436-66.61-86.272 2.536-42.169 36.308-66.59 78.29-67.324 54.796-.934 80.425 41.969 71.815 88.742z"/><path fill="#8EA4CE" d="M202.311 90.758c20.824-.4 42.316-16.48 37.377-39.3-3.805-17.481-19.756-30.693-37.71-30.359-47.054 1-41.114 70.46.333 69.659zm4.005-60.718c32.504 3.07 27.031 50.843-3.27 49.642-38.978-1.602-33.505-53.178 3.27-49.642zM50.604 208.523c0-6.939 2.336-47.239-3.203-46.706-16.553 1.735-13.483 32.628-13.282 46.039.133 10.809-1.669 50.91 14.616 49.308 7.81-.8 2.937-14.745 2.537-20.684-.601-9.274-.668-18.615-.668-27.957zm284.66-54.379c-12.815-2.402-11.013 6.472-10.011 15.08 1.201 10.342 2.135 20.75 2.269 31.159.2 14.079-.334 28.157-.668 42.303-.133 5.938 15.418 8.34 15.418 6.605.267-20.884-2.269-41.635-3.204-62.452-.2-8.408 5.073-31.027-3.804-32.695zm31.036 1.668c-1.135-5.671-10.946-5.938-10.813.134.334 12.21 1.268 24.487 1.869 36.697.334 7.807-2.069 58.316 8.476 58.316 13.883-.067 3.671-35.897 3.204-43.436-1.068-16.815.534-35.297-2.736-51.711zM76.7 193.978c-.4-10.809 0-21.819-1.134-32.561-.467-4.203-3.87-6.005-7.809-3.937-2.803 1.468-2.269 6.739-2.603 9.475-1.802 17.281-.734 34.763.734 52.044.668 8.14 1.135 16.28 2.27 24.42 1.335 9.542 7.942 8.674 8.41-.533.734-16.281.8-32.628.133-48.908 0-.801-.067-1.535 0 0z"/><path fill="#8EA4CE" d="M76.7 193.978c.067 1.668.067.801 0 0zm232.2-21.552v.801-1.601.734c0-5.872.935-16.014-7.341-13.879-6.341 1.602-4.806 8.541-4.539 13.612 1.001 18.549 2.002 37.031 3.004 55.58.266 5.204-1.536 14.412 5.406 14.212 9.744-.267 6.474-13.345 6.207-19.35-.868-16.68-2.737-33.428-2.737-50.109zM93.854 161.084c-8.41-2.669-7.676 83.67 1.001 84.471 9.811.867 9.678-81.069-1.001-84.471zm50.057-100.151c9.811-.6 11.814-1.001 10.612-10.076-.6-4.537-53.594-15.346-58.667-2.268-5.14 13.411 45.586 12.477 48.055 12.344zm13.816 89.942c-27.965 22.819-36.442 62.119-10.946 90.343 25.162 27.89 70.08 25.421 99.848-4.337 9.744-9.742 13.349-32.428 13.549-37.699.734-16.347-5.34-32.694-15.952-45.104-23.427-27.09-59.868-24.955-86.499-3.203zm74.218 83.737c-16.352 13.478-52.46 21.218-73.684-1.268-19.022-20.15-17.487-49.441 1.735-68.791 47.788-48.107 131.885 20.417 71.949 70.059zM206.983 69.14c20.557-3.937 14.017-30.026-5.606-29.425-23.227.734-16.886 33.695 5.606 29.424zm-3.07-20.952c10.079 0 9.077 13.545.067 14.88-9.811 1.4-4.805-14.88-.067-14.88z"/><path fill="#8EA4CE" d="M203.58 160.95c-51.126-2.535-63.073 64.521-14.951 76.398 51.326 12.744 73.017-69.392 14.951-76.398zm-13.349 67.924c-33.972-12.944-17.954-67.59 18.021-59.383 36.174 10.208 16.485 72.527-18.021 59.383z"/><path fill="#8EA4CE" d="M203.046 179.699c-21.358.4-28.433 33.562-7.542 37.565 23.894 4.604 33.505-37.832 7.542-37.565zm-10.145 20.484v.467-.467c.066-.867.066-1.735 0 0 .267-7.606 12.681-7.806 12.481-.534-.267 7.673-12.748 8.274-12.481.534z"/></svg>