<?xml version="1.0" encoding="utf-8"?>
<!-- Generator: Adobe Illustrator 21.0.2, SVG Export Plug-In . SVG Version: 6.00 Build 0)  -->
<svg version="1.1" id="hero-tribal-bird-vector" xmlns="http://www.w3.org/2000/svg" xmlns:xlink="http://www.w3.org/1999/xlink"
	 x="0px" y="0px" viewBox="0 0 408 397" style="enable-background:new 0 0 408 397;" xml:space="preserve">
<path d="M188.6,277.4c1.1,0.1,2.1,0.1,3.3,0.1C193.8,277.4,189.6,277.4,188.6,277.4z"/>
<path d="M405,208.2c-2.1-13.7-5.6-27.1-9.1-40.4c-2.7-10.4-3.2-25.6-8.1-35c-7-13.5-21.5-5.4-33.1-4.1c-13.8,1.5-27.7,2.9-41.6,3
	c-16.1,0.1-51.1,1.5-52.7-21.1c-0.9-13.1,8.7-24,13.8-35.2c4.6-10.4,5.2-22.9,2.6-33.8c-6-25.3-24.2-35.1-48.3-39.4
	c-29.7-5.3-55.8-0.1-84.2,8.5c-13.1,3.9-26.2,7.7-39.8,9.1c-9.1,0.9-7.1-0.5-8.7,6.7c-0.9,3.9,1.5,6.1,5.2,6.5
	c15,1.4,30,3.1,44.9,4.7c12.9,1.3,13.7-8.1,22.8-15.7c15-12.7,43.4-14.7,61-7.1c49.4,21.4,15.6,101.3-34,93.6
	c-12.1-1.9-24-9.4-29.8-20.3c-3-5.6-9.3-16.7-16.8-16.9c-12.6-0.5-25.3-1-37.9-1.5c-3.7-0.1-10.5-1.8-13.7,1.1
	c-3.7,3.3-0.7,6.9,3.1,7.3c20.6,2.2,49.9,9.7,50.3,35.4c0.6,29.9-37.4,20.5-56.2,18.3c-24.2-2.7-58.9-12-82.7-4.5
	c-18.3,5.7-9.1,52.3-8.9,67.2c0.4,0,0.7,48.6,0.7,53.2c0.1,7.9,14.5,8.6,14.6-2.2c0.1-9-1-17.9-1.7-26.8
	c-1.4-17.7-3.5-40.4,2.6-57.4c5.3-15.1,25.8-13.7,39.1-14.7c11.7-0.9,23.6-1.1,35.3-0.7c4.9,0.2,19-1.2,22.8,2.1
	c3.5,3.2-5.3,18.1-6.3,22c-2,7.9-2.5,15.9-2.5,24c0.1,18.9,2.2,40.8,11.1,57.8c6.3,12,21.2,18.9,24,32.6c2.7,14-6.9,35.1-12,47.8
	c-2.5,6.1-21.6,43.5-0.5,42.5c9.5-0.4,16.8-43.2,19.1-51.2c1.6-5.6,6.9-39,14.8-38.3c13.3,1.2,2,33,0.5,41.9
	c-3.1,18.4-7.9,36.4-11.3,54.8c-1.7,9.6-0.7,10.4,8.5,11.8c7.7,1.1,8.3-10.2,8.9-15.1c2.3-17.7,4.3-35.4,8.4-52.8
	c0.5-2.3,8-30.9,10.5-29.3c8,5.1,4.1,21.7,3.3,29.5c-1.2,12.6-3.5,25.1-4.4,37.8c-0.4,6.2-3.5,23.8,0.1,29
	c3.1,4.4,13.5,3.6,17.4,1.7c2.9-1.3,0.7-11.5,0.6-13.8c-0.4-12.6-0.1-25.4,0.2-38c0.3-13.7,1.1-27.4,2-41c1-13.7,10.1-17.6,12.9-2.1
	c4.9,27.5,4.9,55.8,7.5,83.6c1.1,12.3,14.8-6.5,15.7-9.9c3-11.5,0.1-25.2-0.9-36.8c-1.4-16.6-3.2-33.3-1.7-50
	c1.3-13.8,11.3,5.5,12.1,8.3c3.5,12.7,6.5,25.5,8.2,38.6c1.4,11.1,0.7,23.3,5.4,33.7c4.8,10.4,16,9.3,19.4-1.7
	c3.3-10.7-2.6-21.8-6.3-31.4c-5.1-12.9-8.3-26.6-11.7-40c-2.4-9.4-11.4-27.3-4.5-35.8c17.1-21.2,23.6-43.3,23.8-70.5
	c0.1-11.3-4.1-22.6-3.8-33.4c0.3-12.3,19-9.3,27-9.6c13.7-0.6,64.8-8.5,68.1,9.5c5,27.5,3.9,55.8,4.3,83.6c0.1,9.1,0.4,13.9,11,12.6
	c3.9-0.5,7.5-2.2,9.5-5.7C410.5,235.2,406.6,218.5,405,208.2z M272,212.5c-7.2,39.5-42.4,62.3-80.2,65c-3.5-0.1-3.9-0.1-3.3-0.1
	c-45.1-2.5-69.2-43.4-66.6-86.3c2.5-42.2,36.3-66.6,78.3-67.3C255,122.9,280.6,165.8,272,212.5z"/>
<path d="M202.3,90.8c20.8-0.4,42.3-16.5,37.4-39.3C235.9,34,219.9,20.8,202,21.1C154.9,22.1,160.9,91.6,202.3,90.8z M206.3,30
	c32.5,3.1,27,50.8-3.3,49.6C164.1,78.1,169.5,26.5,206.3,30z"/>
<path d="M50.6,208.5c0-6.9,2.3-47.2-3.2-46.7c-16.6,1.7-13.5,32.6-13.3,46c0.1,10.8-1.7,50.9,14.6,49.3c7.8-0.8,2.9-14.7,2.5-20.7
	C50.7,227.2,50.6,217.9,50.6,208.5z"/>
<path d="M335.3,154.1c-12.8-2.4-11,6.5-10,15.1c1.2,10.3,2.1,20.8,2.3,31.2c0.2,14.1-0.3,28.2-0.7,42.3c-0.1,5.9,15.4,8.3,15.4,6.6
	c0.3-20.9-2.3-41.6-3.2-62.5C338.9,178.4,344.1,155.8,335.3,154.1z"/>
<path d="M366.3,155.8c-1.1-5.7-10.9-5.9-10.8,0.1c0.3,12.2,1.3,24.5,1.9,36.7c0.3,7.8-2.1,58.3,8.5,58.3c13.9-0.1,3.7-35.9,3.2-43.4
	C368,190.7,369.6,172.2,366.3,155.8z"/>
<path d="M76.7,194c-0.4-10.8,0-21.8-1.1-32.6c-0.5-4.2-3.9-6-7.8-3.9c-2.8,1.5-2.3,6.7-2.6,9.5c-1.8,17.3-0.7,34.8,0.7,52
	c0.7,8.1,1.1,16.3,2.3,24.4c1.3,9.5,7.9,8.7,8.4-0.5C77.3,226.6,77.4,210.3,76.7,194C76.6,192.4,76.7,193.2,76.7,194z"/>
<path d="M76.7,194C76.8,195.6,76.8,194.8,76.7,194L76.7,194z"/>
<path d="M308.9,172.4c0,0.4,0,0.7,0,0.8C308.9,173.2,308.9,173,308.9,172.4c0-0.5,0-0.7,0-0.8C308.9,171.8,308.9,172,308.9,172.4
	c0-5.9,0.9-16.1-7.3-13.9c-6.3,1.6-4.8,8.5-4.5,13.6c1,18.5,2,37,3,55.6c0.3,5.2-1.5,14.4,5.4,14.2c9.7-0.3,6.5-13.3,6.2-19.3
	C310.8,205.9,308.9,189.1,308.9,172.4z"/>
<path d="M93.9,161.1c-8.4-2.7-7.7,83.7,1,84.5C104.7,246.4,104.5,164.5,93.9,161.1z"/>
<path d="M143.9,60.9c9.8-0.6,11.8-1,10.6-10.1c-0.6-4.5-53.6-15.3-58.7-2.3C90.7,62,141.4,61.1,143.9,60.9z"/>
<path d="M157.7,150.9c-28,22.8-36.4,62.1-10.9,90.3c25.2,27.9,70.1,25.4,99.8-4.3c9.7-9.7,13.3-32.4,13.5-37.7
	c0.7-16.3-5.3-32.7-16-45.1C220.8,127,184.4,129.1,157.7,150.9z M231.9,234.6c-16.4,13.5-52.5,21.2-73.7-1.3
	c-19-20.1-17.5-49.4,1.7-68.8C207.8,116.4,291.9,185,231.9,234.6z"/>
<path d="M207,69.1c20.6-3.9,14-30-5.6-29.4C178.1,40.4,184.5,73.4,207,69.1z M203.9,48.2c10.1,0,9.1,13.5,0.1,14.9
	C194.2,64.5,199.2,48.2,203.9,48.2z"/>
<path d="M203.6,160.9c-51.1-2.5-63.1,64.5-15,76.4C240,250.1,261.6,168,203.6,160.9z M190.2,228.9c-34-12.9-18-67.6,18-59.4
	C244.4,179.7,224.7,242,190.2,228.9z"/>
<path d="M203,179.7c-21.4,0.4-28.4,33.6-7.5,37.6C219.4,221.9,229,179.4,203,179.7z M192.9,200.2c0,0.2,0,0.3,0,0.5
	C192.9,200.5,192.9,200.4,192.9,200.2C193,198.4,193,199.3,192.9,200.2c0.3-7.6,12.7-7.8,12.5-0.5
	C205.1,207.3,192.6,207.9,192.9,200.2z"/>
</svg>
