<?xml version="1.0" encoding="utf-8"?>
<!-- Generator: Adobe Illustrator 21.0.2, SVG Export Plug-In . SVG Version: 6.00 Build 0)  -->
<svg version="1.1" id="iguana-tribal-vector" xmlns="http://www.w3.org/2000/svg" xmlns:xlink="http://www.w3.org/1999/xlink"
	 x="0px" y="0px" viewBox="0 0 345 706" style="enable-background:new 0 0 345 706;" xml:space="preserve">
<path d="M3.3,0.9c26,5.5,71.5,50.1,97.8,96.7c1.3,2.4,0.8,5.3-1.2,7.1c-32.4,29.5-32.5,63.6-27,103.2c2.3,13.2,25.9,23.9,36.6,24
	c18.2-0.3,33.9-10.7,36.5-25.6c3.7-21.8,6.3-43.8,9-65.7c1.5-12.3,5.9-18.5,23.6-19.2l56.2-1.2c14.3-0.7,20,6.9,19.3,16.3
	c-3.4,45.7-13.8,89.3-55.8,122.8c-24.5,19.6-39.2,26.4-78.6,31c-1.9,0.2-3,2.3-2.1,3.9c16.7,31.2,25.4,62.5,0.8,93.9
	c-1.6,2.1,0.4,5,3,4.2c16.4-5.3,31.2-10.2,46.2-14.4c7.2-2,15.2-3.1,22.8-2.9c41.9,0.7,63,25.7,53.3,61.2
	c-9.6,35.4-34.9,61.1-67.6,82.5c-4.3,2.8-8.2,5.5-12.3,8.5c-2.5,1.8-0.6,5.6,2.3,4.8c26.9-7.3,54.3-19.7,73.3-28.4
	c14.6-6.7,14.7-7.8,23.6,4.9c0.8,1.1,0.6,2.6-0.4,3.5c-5.7,5.2-11.6,10.4-17.4,15.7c-3.7,3.7-3.3,4.4,1.8,2c0.1,0,0.1-0.1,0.2-0.1
	c6.9-3.8,13.7-7.6,20.5-11.3c1-0.6,2.3-0.4,3.1,0.4c3,2.8,6.2,7.6,7.3,11.3c0.3,0.9,0.1,1.9-0.6,2.7c-4.7,4.9-24.1,25.5-20.3,21.3
	c0.3-0.3-1.4,1.4,0.7,0.8c8.4-4.2,14.3-7.2,21.6-10.9c1.4-0.7,3.1-0.1,3.7,1.3c4.8,11.2,2.3,21-7,28.7
	c-31.9,26.4-69.7,42.2-115,43.8c-33,1.1-63.1-5.2-79-31.8c-16.1-26.8-6.8-53.5,11-77.5c17.9-24,42.1-42.9,72.2-55.9
	c6-2.5,12-5.1,17.9-7.6c3.5-1.5,0.3-6.8-5.9-7.9s-14.6-1.5-21,0.3c-37.8,10.4-71,28.3-90.6,57.7c-18.2,27.2-15.8,57.8-1.8,86.7
	c17.8,36.7,59.6,57.3,107,55.1c53.2-2.5,96.9-22.9,137.1-50.6c1.7-1.2,4.5-3.1,6.2-4.3c1-0.7,2.1-1.1,3.3-1.2l23.8-2
	c1.9-0.2,3.5,1.3,3.5,3.2c0,5.3-0.5,15-3.5,19.4c-26.9,39.7-70.7,62.3-118.3,80.2c-29.4,11.1-123.4,21.5-220.1,24.7
	c-1.5,0.1-2.8-1.2-2.8-2.7l0-699.7C0.1,1.8,1.6,0.5,3.3,0.9z M45,104.8c2.6-2.6,2.4-3.4,0-5.9s-12.3-10-18-9.6
	c-4.5,0.3-11.9,6.8-15.1,9.9c-1,0.9-1.1,2.4-0.3,3.5c2.6,3.7,8.9,11.4,15.5,11.4C35.8,114.2,45,104.8,45,104.8z"/>
</svg>
