<?xml version="1.0" encoding="utf-8"?>
<!-- Generator: Adobe Illustrator 23.1.1, SVG Export Plug-In . SVG Version: 6.00 Build 0)  -->
<svg version="1.1" id="iguana-tribal-vector" xmlns="http://www.w3.org/2000/svg" xmlns:xlink="http://www.w3.org/1999/xlink"
	 x="0px" y="0px" viewBox="0 0 689.8 706" style="enable-background:new 0 0 689.8 706;" xml:space="preserve">
<style type="text/css">
	.st0{fill:#FCB64D;}
</style>
<path class="st0" d="M685.2,578.3l-23.8,2c-1.2,0.1-2.3,0.5-3.3,1.2c-1.7,1.2-4.5,3.1-6.2,4.3c-40.2,27.7-83.9,48.1-137.1,50.6
	c-47.4,2.2-89.2-18.4-107-55.1c-14-28.9-16.4-59.5,1.8-86.7c19.6-29.4,52.8-47.3,90.6-57.7c6.4-1.8,14.8-1.4,21-0.3s9.4,6.4,5.9,7.9
	c-5.9,2.5-11.9,5.1-17.9,7.6c-30.1,13-54.3,31.9-72.2,55.9c-17.8,24-27.1,50.7-11,77.5c15.9,26.6,46,32.9,79,31.8
	c45.3-1.6,83.1-17.4,115-43.8c9.3-7.7,11.8-17.5,7-28.7c-0.6-1.4-2.3-2-3.7-1.3c-7.3,3.7-13.2,6.7-21.6,10.9
	c-1.3,0.4-1.1-0.1-0.9-0.5c2.2-2.2,16.5-17.5,20.5-21.6c0.7-0.8,0.9-1.8,0.6-2.7c-1.1-3.7-4.3-8.5-7.3-11.3c-0.8-0.8-2.1-1-3.1-0.4
	c-6.8,3.7-13.6,7.5-20.5,11.3c-0.1,0-0.1,0.1-0.2,0.1c-5.1,2.4-5.5,1.7-1.8-2c5.8-5.3,11.7-10.5,17.4-15.7c1-0.9,1.2-2.4,0.4-3.5
	c-8.9-12.7-9-11.6-23.6-4.9c-19,8.7-46.4,21.1-73.3,28.4c-2.9,0.8-4.8-3-2.3-4.8c4.1-3,8-5.7,12.3-8.5c32.7-21.4,58-47.1,67.6-82.5
	c9.7-35.5-11.4-60.5-53.3-61.2c-7.6-0.2-15.6,0.9-22.8,2.9c-15,4.2-29.8,9.1-46.2,14.4c-2.6,0.8-4.6-2.1-3-4.2
	c24.6-31.4,15.9-62.7-0.8-93.9c-0.9-1.6,0.2-3.7,2.1-3.9c39.4-4.6,54.1-11.4,78.6-31c42-33.5,52.4-77.1,55.8-122.8
	c0.7-9.4-5-17-19.3-16.3l-56.2,1.2c-17.7,0.7-22.1,6.9-23.6,19.2c-2.7,21.9-5.3,43.9-9,65.7c-2.6,14.9-18.3,25.3-36.5,25.6
	c-10.7-0.1-34.3-10.8-36.6-24c-5.5-39.6-5.4-73.7,27-103.2c2-1.8,2.5-4.7,1.2-7.1C418.6,50.6,373.1,6,347.1,0.5
	c-0.5-0.1-1.5-0.3-2.3-0.4V0c0,0-0.2,0-0.5,0.1c-0.3,0-0.5-0.1-0.5-0.1v0.1c-0.8,0.1-1.8,0.3-2.3,0.4c-26,5.5-71.5,50.1-97.8,96.7
	c-1.3,2.4-0.8,5.3,1.2,7.1c32.4,29.5,32.5,63.6,27,103.2c-2.3,13.2-25.9,23.9-36.6,24c-18.2-0.3-33.9-10.7-36.5-25.6
	c-3.7-21.8-6.3-43.8-9-65.7c-1.5-12.3-5.9-18.5-23.6-19.2l-56.2-1.2c-14.3-0.7-20,6.9-19.3,16.3c3.4,45.7,13.8,89.3,55.8,122.8
	c24.5,19.6,39.2,26.4,78.6,31c1.9,0.2,3,2.3,2.1,3.9c-16.7,31.2-25.4,62.5-0.8,93.9c1.6,2.1-0.4,5-3,4.2
	c-16.4-5.3-31.2-10.2-46.2-14.4c-7.2-2-15.2-3.1-22.8-2.9c-41.9,0.7-63,25.7-53.3,61.2c9.6,35.4,34.9,61.1,67.6,82.5
	c4.3,2.8,8.2,5.5,12.3,8.5c2.5,1.8,0.6,5.6-2.3,4.8c-26.9-7.3-54.3-19.7-73.3-28.4c-14.6-6.7-14.7-7.8-23.6,4.9
	c-0.8,1.1-0.6,2.6,0.4,3.5c5.7,5.2,11.6,10.4,17.4,15.7c3.7,3.7,3.3,4.4-1.8,2c-0.1,0-0.1-0.1-0.2-0.1c-6.9-3.8-13.7-7.6-20.5-11.3
	c-1-0.6-2.3-0.4-3.1,0.4c-3,2.8-6.2,7.6-7.3,11.3c-0.3,0.9-0.1,1.9,0.6,2.7c4,4.1,18.3,19.3,20.5,21.6c0.2,0.4,0.4,0.9-0.9,0.5
	c-8.4-4.2-14.3-7.2-21.6-10.9c-1.4-0.7-3.1-0.1-3.7,1.3c-4.8,11.2-2.3,21,7,28.7c31.9,26.4,69.7,42.2,115,43.8
	c33,1.1,63.1-5.2,79-31.8c16.1-26.8,6.8-53.5-11-77.5c-17.9-24-42.1-42.9-72.2-55.9c-6-2.5-12-5.1-17.9-7.6
	c-3.5-1.5-0.3-6.8,5.9-7.9s14.6-1.5,21,0.3c37.8,10.4,71,28.3,90.6,57.7c18.2,27.2,15.8,57.8,1.8,86.7
	c-17.8,36.7-59.6,57.3-107,55.1c-53.2-2.5-96.9-22.9-137.1-50.6c-1.7-1.2-4.5-3.1-6.2-4.3c-1-0.7-2.1-1.1-3.3-1.2l-23.8-2
	c-1.9-0.2-3.5,1.3-3.5,3.2c0,5.3,0.5,15,3.5,19.4c26.9,39.7,70.7,62.3,118.3,80.2c29.4,11.1,123.4,21.3,220.1,24.5h2l0,0h0.5h0.5
	l0,0h2c96.7-3.2,190.7-13.4,220.1-24.5c47.6-17.9,91.4-40.5,118.3-80.2c3-4.4,3.5-14.1,3.5-19.4
	C688.7,579.6,687.1,578.1,685.2,578.3z M333.3,102.3c-2.6,3.7-8.9,11.4-15.5,11.4c-8.7,0.1-17.9-9.3-17.9-9.3
	c-2.6-2.6-2.4-3.4,0-5.9s12.3-10,18-9.6c4.5,0.3,11.9,6.8,15.1,9.9C334,99.7,334.1,101.2,333.3,102.3z M388.8,104.4
	c0,0-9.2,9.4-17.9,9.3c-6.6,0-12.9-7.7-15.5-11.4c-0.8-1.1-0.7-2.6,0.3-3.5c3.2-3.1,10.6-9.6,15.1-9.9c5.7-0.4,15.6,7.1,18,9.6
	S391.4,101.8,388.8,104.4z"/>
</svg>
