<svg xmlns="http://www.w3.org/2000/svg" fill="none" viewBox="0 0 1556 1540"><path fill="#173775" d="M293.793 1223.96c65.234-9.14 127.033-15.76 188.042-26.84 79.137-14.35 155.051-39.63 219.45-89.67 65.831-51.16 82.956-109.409 56.763-171.822-21.942-52.302-62.942-88.756-117.13-106.525-24.552-8.063-85.155-13.157-89.008-12.229-17.014 4.082-35.166 10.82-34.684 30.457.46 21.28 20.47 24.953 37.499 25.308 39.758.802 78.961 5.736 112.634 27.366 21.528 13.849 43.143 31.343 57.059 52.272 26.162 39.345 17.863 84.663-16.31 123.203-37.295 42.07-87.807 62.6-138.044 83.19-6.095 2.5-55.932 17.53-74.691 21.73-37.518 8.4-75.255 15.9-108.425-15.25-38.936-36.54-50.06-111.98-17.793-153.98 9.728-12.688 27.625-21.836 43.591-26.562 66.381-19.707 134.602-24.657 203.658-20.053 8.63.57 17.398-.747 26.042-5.953-20.203-2.224-40.79-2.677-60.543-7.055-44.548-9.852-84.099-28.805-110.694-68.504-29.243-43.648-16.004-97.227 30.284-122.824 37.559-20.77 78.326-24.824 122.333-22.998.981-26.496 1.892-51.485 3.01-82.422-11.672 13.392-19.242 22.857-27.545 31.565-32.833 34.182-72.436 53.952-120.239 56.76-32.157 1.874-57.623-10.149-76.947-35.463-46.896-61.343-75.248-131.455-93.74-205.524-2.569-10.257 5.577-26.21 13.439-35.575 27.624-32.767 99.27-49.621 139.801-35.464 17.638 6.161 25.1 15.117 24.94 36.517-.464 54.035 2.952 108.205 6.983 162.103.823 10.937 9.588 28.053 17.643 30.004 9.843 2.38 24.72-5.937 34.141-13.668 19.05-15.589 38.276-32.108 52.78-51.677 10.483-14.139 20.95-35.419 17.822-50.633-3.189-15.242-20.96-33.405-36.444-39.116-78.935-28.927-114.808-97.097-91.275-179.809 13.494-47.338 33.615-88.893 80.449-113.257 30.967-16.1 62.316-15.538 92.974-5.69 72.402 23.262 118.783 72.536 135.232 147.596 6.256 28.588 1.428 55.6-18.587 78.582-14.733 16.945-20.897 35.707-10.974 57.461 8.995 19.739 25.38 27.525 45.988 28.89 30.183 2.002 60.291 5.359 90.462 5.63 9.728.073 24.095-5.405 27.932-12.761 3.693-7.047-.42-22.161-6.343-29.68-35.341-45.129-71.595-89.675-108.949-133.161-11.159-12.986-14.06-23.174-5.208-38.156 27.27-46.375 89.327-74.125 141.856-60.253 10.844 2.888 24.053 12.634 28.24 22.565 31.333 74.143 47.793 152.06 48.883 232.545.51 37.858-27.72 57.464-57.756 72.463-41.046 20.442-84.536 19.911-133.457 9.54a30057.54 30057.54 0 0 0 39.179 53.806c38.31-15.986 72.023-35.524 108.355-43.956 58.099-13.508 110.479 19.667 104.679 82.157-2.58 28.296-13.95 56.847-26.52 82.768-8.33 17.142-25.95 29.763-39.26 44.562-5.95 6.585-17.17 11.441-17.28 20.364-.03 2.462 2.22 5.175 4.6 5.696 5.21 1.137 10.3-3.862 14.11-7.326 54.92-49.281 115.22-90.697 181.1-124.008 36.11-18.259 69.63-15.211 93.98 16.26 16.51 21.323 29.17 47.966 35.73 74.145 9.3 37.193-4.81 68.773-38.74 89.973-67.83 42.339-140.52 72.895-219.9 83.444-45.11 6.026-90.575.588-123.208-36.734-31.929-36.503-28.633-79.405-14.682-122.211 12.678-38.825 36.456-70.361 64.83-99.468 8.39-8.633 16.82-27.343 12.91-35.639-8.29-17.796-27.473-13.343-41.969-4.959-32.483 18.841-54.443 48.19-66.011 82.582-17.275 51.304-24.693 103.604-2.049 156.725 18.799 44.14 66.788 77.313 115.389 79.987 94.51 5.245 179.17-27.525 261.19-67.466 54.92-26.714 106.77-59.723 161.12-90.572 23.78 42.806 17.35 89.338 4.58 134.989-17.54 62.778-58.35 111.528-104.29 155.128-87.34 82.91-192.6 137.59-300.96 187.63-98.816 45.63-203.16 71.65-309.561 89.11-98.303 16.14-197.51 19.84-292.992-16.05-61.288-23.03-112.712-60.07-139.74-123.1-4.462-9.99-6.668-20.94-9.734-31.01zM732.78 405.838c22.777-7.79 36.604-35.335 29.196-58.045-7.194-21.971-33.252-33.934-56.62-26.084-24.272 8.175-35.993 32.92-27.248 57.498 7.146 19.996 34.759 33.442 54.672 26.631zm-175.311-30.845c-21.343 7.376-31.983 31.579-24.298 55.057 7.535 22.92 33.799 35.881 55.864 27.531 22.607-8.546 35.168-35.637 27.467-59.16-6.239-18.893-36.922-31.081-59.033-23.428z"/></svg>