<svg width="345" height="706" viewBox="0 0 345 706" fill="none" xmlns="http://www.w3.org/2000/svg">
<g clip-path="url(#clip0)">
<path d="M2.89778 498.108C3.45804 421.018 3.83155 343.928 3.6448 266.838C3.42069 180.338 2.63633 93.8063 2.03871 7.27478C2.03871 5.01771 1.32905 2.76064 0.918193 0.408203C26.9516 2.66527 76.3666 51.685 103.334 101.69C67.6266 131.668 66.0578 169.084 72.8557 207.868C75.1714 221.029 93.6227 232.123 109.459 231.837C127.612 231.519 143.374 221.156 145.914 206.215C149.611 184.407 152.263 162.44 154.915 140.505C156.409 128.171 161.227 120.541 178.483 121.273C197.159 122.067 215.946 120.987 234.659 120.033C248.927 119.302 254.642 126.899 253.932 136.373C250.496 182.118 240.112 225.702 198.167 259.176C172.844 279.395 157.978 286.007 115.622 290.616C134.895 325.331 145.316 360.109 112.223 395.109C132.393 388.719 149.798 382.775 167.54 377.752C174.748 375.717 182.741 374.7 190.361 374.827C232.231 375.527 253.334 400.513 243.66 436.054C234.024 471.404 208.775 497.122 176.056 518.517C168.249 523.635 159.92 528.117 152.45 535.047C158.725 533.903 165.485 533.712 171.163 531.487C194.096 522.522 217.104 513.557 239.29 503.385C254.567 496.391 254.007 495.501 264.203 510.283C257.928 515.942 251.467 521.759 245.005 527.608C245.64 528.244 246.275 528.912 246.91 529.548C254.417 525.447 261.888 521.314 269.283 517.277C292.777 536.255 263.942 541.882 256.621 555.107C265.959 550.402 273.242 546.746 281.796 542.454C288.182 554.661 285.979 565.438 276.006 573.703C244.109 600.121 206.31 615.952 161.041 617.478C128.06 618.591 97.9553 612.296 82.0066 585.72C65.9084 558.953 75.1714 532.25 93.025 508.249C110.916 484.216 135.082 465.301 165.261 452.362C171.237 449.819 177.214 447.276 183.19 444.733C181.21 442.094 179.23 439.424 177.288 436.785C170.266 436.785 162.647 435.291 156.297 437.04C118.498 447.467 85.3308 465.332 65.647 494.706C47.4198 521.918 49.885 552.468 63.8915 581.365C81.6704 618.114 123.541 638.682 170.901 636.425C224.089 633.881 267.826 613.536 307.978 585.815C310.556 584.035 312.759 580.888 315.523 580.506C325.16 579.203 334.946 578.822 344.657 578.09C343.648 585.784 345.404 594.844 341.221 600.979C314.291 640.684 270.516 663.319 222.968 681.184C193.274 692.343 98.3288 702.261 0.656738 705.408L2.89778 498.108ZM44.992 104.837C44.992 102.866 44.992 100.927 44.9547 98.9562C38.9412 95.4594 32.6663 88.9743 26.9516 89.324C21.0876 89.6737 15.7838 96.6992 10.2185 100.8C15.7464 105.537 20.5647 112.944 27.0263 114.152C31.9566 115.105 38.9412 108.239 44.992 104.837Z" fill="#FEFCB9"/>
<mask id="mask0" mask-type="alpha" maskUnits="userSpaceOnUse" x="0" y="0" width="345" height="706">
<path d="M2.89778 498.108C3.45804 421.018 3.83155 343.928 3.6448 266.838C3.42069 180.338 2.63633 93.8063 2.03871 7.27478C2.03871 5.01771 1.32905 2.76064 0.918193 0.408203C26.9516 2.66527 76.3666 51.685 103.334 101.69C67.6266 131.668 66.0578 169.084 72.8557 207.868C75.1714 221.029 93.6227 232.123 109.459 231.837C127.612 231.519 143.374 221.156 145.914 206.215C149.611 184.407 152.263 162.44 154.915 140.505C156.409 128.171 161.227 120.541 178.483 121.273C197.159 122.067 215.946 120.987 234.659 120.033C248.927 119.302 254.642 126.899 253.932 136.373C250.496 182.118 240.112 225.702 198.167 259.176C172.844 279.395 157.978 286.007 115.622 290.616C134.895 325.331 145.316 360.109 112.223 395.109C132.393 388.719 149.798 382.775 167.54 377.752C174.748 375.717 182.741 374.7 190.361 374.827C232.231 375.527 253.334 400.513 243.66 436.054C234.024 471.404 208.775 497.122 176.056 518.517C168.249 523.635 159.92 528.117 152.45 535.047C158.725 533.903 165.485 533.712 171.163 531.487C194.096 522.522 217.104 513.557 239.29 503.385C254.567 496.391 254.007 495.501 264.203 510.283C257.928 515.942 251.467 521.759 245.005 527.608C245.64 528.244 246.275 528.912 246.91 529.548C254.417 525.447 261.888 521.314 269.283 517.277C292.777 536.255 263.942 541.882 256.621 555.107C265.959 550.402 273.242 546.746 281.796 542.454C288.182 554.661 285.979 565.438 276.006 573.703C244.109 600.121 206.31 615.952 161.041 617.478C128.06 618.591 97.9553 612.296 82.0066 585.72C65.9084 558.953 75.1714 532.25 93.025 508.249C110.916 484.216 135.082 465.301 165.261 452.362C171.237 449.819 177.214 447.276 183.19 444.733C181.21 442.094 179.23 439.424 177.288 436.785C170.266 436.785 162.647 435.291 156.297 437.04C118.498 447.467 85.3308 465.332 65.647 494.706C47.4198 521.918 49.885 552.468 63.8915 581.365C81.6704 618.114 123.541 638.682 170.901 636.425C224.089 633.881 267.826 613.536 307.978 585.815C310.556 584.035 312.759 580.888 315.523 580.506C325.16 579.203 334.946 578.822 344.657 578.09C343.648 585.784 345.404 594.844 341.221 600.979C314.291 640.684 270.516 663.319 222.968 681.184C193.274 692.343 98.3288 702.261 0.656738 705.408L2.89778 498.108ZM44.992 104.837C44.992 102.866 44.992 100.927 44.9547 98.9562C38.9412 95.4594 32.6663 88.9743 26.9516 89.324C21.0876 89.6737 15.7838 96.6992 10.2185 100.8C15.7464 105.537 20.5647 112.944 27.0263 114.152C31.9566 115.105 38.9412 108.239 44.992 104.837Z" fill="#FEFCB9"/>
</mask>
<g mask="url(#mask0)">
</g>
</g>
<defs>
<clipPath id="clip0">
<rect width="344" height="705" fill="white" transform="translate(0.618042 0.408203)"/>
</clipPath>
</defs>
</svg>
