<svg width="344" height="705" viewBox="0 0 344 705" fill="none" xmlns="http://www.w3.org/2000/svg">
<g clip-path="url(#clip0)">
<path d="M341.72 497.699C341.16 420.609 340.786 343.519 340.973 266.429C341.197 179.93 341.982 93.3981 342.579 6.86657C342.579 4.60951 343.289 2.35244 343.7 0C317.666 2.25707 268.251 51.2768 241.284 101.282C276.991 131.26 278.56 168.676 271.762 207.46C269.447 220.62 250.995 231.715 235.159 231.429C217.006 231.111 201.244 220.748 198.704 205.806C195.007 183.999 192.355 162.032 189.703 140.097C188.209 127.763 183.391 120.133 166.135 120.864C147.459 121.659 128.672 120.578 109.959 119.625C95.6911 118.893 89.9765 126.491 90.6861 135.965C94.1224 181.71 104.506 225.294 146.451 258.768C171.775 278.986 186.64 285.599 228.996 290.208C209.723 324.922 199.302 359.7 232.395 394.701C212.225 388.311 194.82 382.366 177.078 377.344C169.87 375.309 161.877 374.292 154.257 374.419C112.387 375.118 91.2838 400.105 100.958 435.646C110.594 470.996 135.843 496.714 168.562 518.108C176.369 523.227 184.698 527.709 192.168 534.639C185.893 533.495 179.133 533.304 173.455 531.079C150.522 522.114 127.514 513.149 105.328 502.977C90.0511 495.983 90.6114 495.093 80.4147 509.875C86.6896 515.533 93.1513 521.351 99.613 527.2C98.978 527.836 98.343 528.504 97.7081 529.139C90.2006 525.039 82.7304 520.906 75.335 516.869C51.8414 535.847 80.6761 541.474 87.9969 554.698C78.6592 549.993 71.3758 546.338 62.8225 542.046C56.4355 554.253 58.6392 565.03 68.6118 573.295C100.509 599.713 138.308 615.544 183.577 617.07C216.558 618.182 246.663 611.888 262.611 585.312C278.71 558.545 269.447 531.842 251.593 507.84C233.702 483.807 209.536 464.892 179.357 451.954C173.381 449.411 167.404 446.868 161.428 444.325C163.408 441.686 165.388 439.016 167.33 436.377C174.352 436.377 181.971 434.883 188.321 436.631C226.12 447.058 259.287 464.924 278.971 494.298C297.198 521.51 294.733 552.06 280.727 580.957C262.948 617.706 221.077 638.273 173.717 636.016C120.529 633.473 76.7917 613.128 36.6396 585.407C34.0624 583.627 31.8588 580.48 29.0948 580.098C19.4583 578.795 9.67242 578.413 -0.0387573 577.682C0.969727 585.375 -0.785767 594.435 3.39752 600.571C30.3274 640.276 74.1024 662.91 121.65 680.776C151.344 691.934 246.289 701.853 343.961 705L341.72 497.699ZM299.626 104.429C299.626 102.458 299.626 100.519 299.663 98.548C305.677 95.0512 311.952 88.5661 317.666 88.9158C323.53 89.2654 328.834 96.291 334.4 100.392C328.872 105.129 324.053 112.536 317.592 113.744C312.661 114.697 305.677 107.831 299.626 104.429Z" fill="#FEFCB9"/>
<mask id="mask0" mask-type="alpha" maskUnits="userSpaceOnUse" x="-1" y="0" width="345" height="705">
<path d="M341.72 497.699C341.16 420.609 340.786 343.519 340.973 266.429C341.197 179.93 341.982 93.3981 342.579 6.86657C342.579 4.60951 343.289 2.35244 343.7 0C317.666 2.25707 268.251 51.2768 241.284 101.282C276.991 131.26 278.56 168.676 271.762 207.46C269.447 220.62 250.995 231.715 235.159 231.429C217.006 231.111 201.244 220.748 198.704 205.806C195.007 183.999 192.355 162.032 189.703 140.097C188.209 127.763 183.391 120.133 166.135 120.864C147.459 121.659 128.672 120.578 109.959 119.625C95.6911 118.893 89.9765 126.491 90.6861 135.965C94.1224 181.71 104.506 225.294 146.451 258.768C171.775 278.986 186.64 285.599 228.996 290.208C209.723 324.922 199.302 359.7 232.395 394.701C212.225 388.311 194.82 382.366 177.078 377.344C169.87 375.309 161.877 374.292 154.257 374.419C112.387 375.118 91.2838 400.105 100.958 435.646C110.594 470.996 135.843 496.714 168.562 518.108C176.369 523.227 184.698 527.709 192.168 534.639C185.893 533.495 179.133 533.304 173.455 531.079C150.522 522.114 127.514 513.149 105.328 502.977C90.0511 495.983 90.6114 495.093 80.4147 509.875C86.6896 515.533 93.1513 521.351 99.613 527.2C98.978 527.836 98.343 528.504 97.7081 529.139C90.2006 525.039 82.7304 520.906 75.335 516.869C51.8414 535.847 80.6761 541.474 87.9969 554.698C78.6592 549.993 71.3758 546.338 62.8225 542.046C56.4355 554.253 58.6392 565.03 68.6118 573.295C100.509 599.713 138.308 615.544 183.577 617.07C216.558 618.182 246.663 611.888 262.611 585.312C278.71 558.545 269.447 531.842 251.593 507.84C233.702 483.807 209.536 464.892 179.357 451.954C173.381 449.411 167.404 446.868 161.428 444.325C163.408 441.686 165.388 439.016 167.33 436.377C174.352 436.377 181.971 434.883 188.321 436.631C226.12 447.058 259.287 464.924 278.971 494.298C297.198 521.51 294.733 552.06 280.727 580.957C262.948 617.706 221.077 638.273 173.717 636.016C120.529 633.473 76.7917 613.128 36.6396 585.407C34.0624 583.627 31.8588 580.48 29.0948 580.098C19.4583 578.795 9.67242 578.413 -0.0387573 577.682C0.969727 585.375 -0.785767 594.435 3.39752 600.571C30.3274 640.276 74.1024 662.91 121.65 680.776C151.344 691.934 246.289 701.853 343.961 705L341.72 497.699ZM299.626 104.429C299.626 102.458 299.626 100.519 299.663 98.548C305.677 95.0512 311.952 88.5661 317.666 88.9158C323.53 89.2654 328.834 96.291 334.4 100.392C328.872 105.129 324.053 112.536 317.592 113.744C312.661 114.697 305.677 107.831 299.626 104.429Z" fill="#FEFCB9"/>
</mask>
<g mask="url(#mask0)">
</g>
</g>
<defs>
<clipPath id="clip0">
<rect width="344" height="705" fill="white" transform="matrix(-1 0 0 1 344 0)"/>
</clipPath>
</defs>
</svg>
