<svg width="1556" height="1540" viewBox="0 0 1556 1540" fill="none" xmlns="http://www.w3.org/2000/svg">
<path d="M293.793 1223.96C359.027 1214.82 420.826 1208.2 481.835 1197.12C560.972 1182.77 636.886 1157.49 701.285 1107.45C767.116 1056.29 784.241 998.041 758.048 935.628C736.106 883.326 695.106 846.872 640.918 829.103C616.366 821.04 555.763 815.946 551.91 816.874C534.896 820.956 516.744 827.694 517.226 847.331C517.686 868.611 537.696 872.284 554.725 872.639C594.483 873.441 633.686 878.375 667.359 900.005C688.887 913.854 710.502 931.348 724.418 952.277C750.58 991.622 742.281 1036.94 708.108 1075.48C670.813 1117.55 620.301 1138.08 570.064 1158.67C563.969 1161.17 514.132 1176.2 495.373 1180.4C457.855 1188.8 420.118 1196.3 386.948 1165.15C348.012 1128.61 336.888 1053.17 369.155 1011.17C378.883 998.482 396.78 989.334 412.746 984.608C479.127 964.901 547.348 959.951 616.404 964.555C625.034 965.125 633.802 963.808 642.446 958.602C622.243 956.378 601.656 955.925 581.903 951.547C537.355 941.695 497.804 922.742 471.209 883.043C441.966 839.395 455.205 785.816 501.493 760.219C539.052 739.449 579.819 735.395 623.826 737.221C624.807 710.725 625.718 685.736 626.836 654.799C615.164 668.191 607.594 677.656 599.291 686.364C566.458 720.546 526.855 740.316 479.052 743.124C446.895 744.998 421.429 732.975 402.105 707.661C355.209 646.318 326.857 576.206 308.365 502.137C305.796 491.88 313.942 475.927 321.804 466.562C349.428 433.795 421.074 416.941 461.605 431.098C479.243 437.259 486.705 446.215 486.545 467.615C486.081 521.65 489.497 575.82 493.528 629.718C494.351 640.655 503.116 657.771 511.171 659.722C521.014 662.102 535.891 653.785 545.312 646.054C564.362 630.465 583.588 613.946 598.092 594.377C608.575 580.238 619.042 558.958 615.914 543.744C612.725 528.502 594.954 510.339 579.47 504.628C500.535 475.701 464.662 407.531 488.195 324.819C501.689 277.481 521.81 235.926 568.644 211.562C599.611 195.462 630.96 196.024 661.618 205.872C734.02 229.134 780.401 278.408 796.85 353.468C803.106 382.056 798.278 409.068 778.263 432.05C763.53 448.995 757.366 467.757 767.289 489.511C776.284 509.25 792.669 517.036 813.277 518.401C843.46 520.403 873.568 523.76 903.739 524.031C913.467 524.104 927.834 518.626 931.671 511.27C935.364 504.223 931.251 489.109 925.328 481.59C889.987 436.461 853.733 391.915 816.379 348.429C805.22 335.443 802.319 325.255 811.171 310.273C838.441 263.898 900.498 236.148 953.027 250.02C963.871 252.908 977.08 262.654 981.267 272.585C1012.6 346.728 1029.06 424.645 1030.15 505.13C1030.66 542.988 1002.43 562.594 972.394 577.593C931.348 598.035 887.858 597.504 838.937 587.133C854.726 608.868 868.141 627.271 878.116 640.939C916.426 624.953 950.139 605.415 986.471 596.983C1044.57 583.475 1096.95 616.65 1091.15 679.14C1088.57 707.436 1077.2 735.987 1064.63 761.908C1056.3 779.05 1038.68 791.671 1025.37 806.47C1019.42 813.055 1008.2 817.911 1008.09 826.834C1008.06 829.296 1010.31 832.009 1012.69 832.53C1017.9 833.667 1022.99 828.668 1026.8 825.204C1081.72 775.923 1142.02 734.507 1207.9 701.196C1244.01 682.937 1277.53 685.985 1301.88 717.456C1318.39 738.779 1331.05 765.422 1337.61 791.601C1346.91 828.794 1332.8 860.374 1298.87 881.574C1231.04 923.913 1158.35 954.469 1078.97 965.018C1033.86 971.044 988.395 965.606 955.762 928.284C923.833 891.781 927.129 848.879 941.08 806.073C953.758 767.248 977.536 735.712 1005.91 706.605C1014.3 697.972 1022.73 679.262 1018.82 670.966C1010.53 653.17 991.347 657.623 976.851 666.007C944.368 684.848 922.408 714.197 910.84 748.589C893.565 799.893 886.147 852.193 908.791 905.314C927.59 949.454 975.579 982.627 1024.18 985.301C1118.69 990.546 1203.35 957.776 1285.37 917.835C1340.29 891.121 1392.14 858.112 1446.49 827.263C1470.27 870.069 1463.84 916.601 1451.07 962.252C1433.53 1025.03 1392.72 1073.78 1346.78 1117.38C1259.44 1200.29 1154.18 1254.97 1045.82 1305.01C947.004 1350.64 842.66 1376.66 736.259 1394.12C637.956 1410.26 538.749 1413.96 443.267 1378.07C381.979 1355.04 330.555 1318 303.527 1254.97C299.065 1244.98 296.859 1234.03 293.793 1223.96ZM732.78 405.838C755.557 398.048 769.384 370.503 761.976 347.793C754.782 325.822 728.724 313.859 705.356 321.709C681.084 329.884 669.363 354.629 678.108 379.207C685.254 399.203 712.867 412.649 732.78 405.838ZM557.469 374.993C536.126 382.369 525.486 406.572 533.171 430.05C540.706 452.97 566.97 465.931 589.035 457.581C611.642 449.035 624.203 421.944 616.502 398.421C610.263 379.528 579.58 367.34 557.469 374.993Z" fill="#173775"/>
</svg>
