<svg xmlns="http://www.w3.org/2000/svg" fill="none" viewBox="0 0 583 668"><g opacity=".7" fill="#FCDCD9"><path d="M174.532 128.992h-33.324v402.781h33.324V128.992zm52.048 0h-33.324v402.781h33.324V128.992zm53.608 0h-33.324v402.781h33.324V128.992zm52.493 0h-33.324v402.781h33.324V128.992zm55.503 0H354.86v402.781h33.324V128.992zm54.053 0h-33.323v402.781h33.323V128.992zM0 132.443v22.927h123.265v-22.927H0zm0 55.425v22.927h123.265v-22.927H0zm0-27.49v22.927h123.265v-22.927H0zm459.735-27.935v22.927H583v-22.927H459.735zm0 55.425v22.927H583v-22.927H459.735zm0-27.49v22.927H583v-22.927H459.735zM0 457.984v22.927h123.265v-22.927H0zm0 55.314v22.927h123.265v-22.927H0zm0-27.379v22.927h123.265v-22.927H0zm459.735-27.935v22.927H583v-22.927H459.735zm0 55.314v22.927H583v-22.927H459.735zm0-27.379v22.927H583v-22.927H459.735z" opacity=".6"/><g opacity=".6"><path d="M120.813 334.334c0 61.658-72.778 73.01-119.698 73.01v-146.02c47.032 0 119.698 14.691 119.698 73.01z" opacity=".6"/><path d="M140.54 403.671v-136.56c-11.703-13.356-27.529-24.708-47.144-33.611-31.318-14.246-66.09-20.034-93.285-22.148v27.935c30.872 2.671 59.627 9.46 81.694 19.588 36.89 16.806 55.614 42.181 55.614 75.459 0 35.726-18.166 60.99-55.503 77.351-16.048 7.011-42.462 15.136-81.805 18.03v27.824c29.312-2.004 63.416-7.457 93.062-20.367 19.727-8.682 35.553-19.922 47.367-33.501z" opacity=".6"/></g><g opacity=".6"><path d="M580.882 261.324v145.909c-46.92 0-119.698-11.352-119.698-73.01 0-58.208 72.666-72.899 119.698-72.899z" opacity=".6"/><path d="M441.457 403.671v-136.56c11.703-13.356 27.529-24.708 47.144-33.611 31.318-14.246 66.09-20.034 93.284-22.148v27.935c-30.871 2.671-59.626 9.46-81.693 19.588-36.89 16.806-55.614 42.181-55.614 75.459 0 35.726 18.166 60.99 55.503 77.351 16.048 7.011 42.462 15.136 81.804 18.03v27.824c-29.311-2.004-63.415-7.457-93.061-20.367-19.727-8.682-35.664-19.922-47.367-33.501z" opacity=".6"/></g><path d="m118.361 119.755 25.634-20.479L37.113 6.344H1.115v14.023l117.246 99.388zm67.762-54.647L118.472 6.344h-51.49l93.396 79.243 25.745-20.479zm44.246-33.834-28.643-24.93h-50.487l53.496 45.297 25.634-20.367zM30.092 107.29c8.916 0 16.16-6.901 16.16-15.36 0-8.458-7.244-15.247-16.16-15.247s-16.16 6.9-16.16 15.359c0 8.458 7.244 15.248 16.16 15.248zm519.807 0c8.916 0 16.16-6.901 16.16-15.36 0-8.458-7.244-15.358-16.16-15.358s-16.16 6.9-16.16 15.359c0 8.458 7.244 15.359 16.16 15.359zM295.234 27.713l84.257 69.003H205.293l89.941-69.003zM296.237 0 140.094 119.977h302.589L296.237 0z" opacity=".6"/><path d="M336.693 84.029h-90.721l46.921-35.949 43.8 35.949zm124.268 464.216-25.634 20.479 106.882 93.043h35.887v-14.134l-117.135-99.388zm-67.762 54.647 67.539 58.875h51.491l-93.396-79.243-25.634 20.368zm-44.357 33.945 28.642 24.93h50.599l-53.496-45.408-25.745 20.478zm-230.481-88.592 25.634 20.479-106.882 93.043H1.115v-14.134l117.246-99.388zm67.762 54.647-67.651 58.875h-51.49l93.396-79.243 25.745 20.368zm44.246 33.945-28.643 24.93h-50.487l53.496-45.408 25.634 20.478zM549.23 560.71c-8.916 0-16.16 6.901-16.16 15.359 0 8.459 7.244 15.359 16.16 15.359s16.161-6.9 16.161-15.359c0-8.57-7.245-15.359-16.161-15.359zm-519.918 0c-8.917 0-16.16 6.901-16.16 15.359 0 8.459 7.243 15.359 16.16 15.359 8.916 0 16.16-6.9 16.16-15.359 0-8.57-7.244-15.359-16.16-15.359zm254.777 79.577-84.257-69.004h174.197l-89.94 69.004zM283.085 668l156.143-119.977H136.527L283.085 668z" opacity=".6"/><path d="M242.629 583.971h90.721l-46.921 35.949-43.8-35.949zm218.332-464.216-25.634-20.479L542.209 6.344h35.887v14.023l-117.135 99.388zm-67.762-54.647 67.539-58.764h51.491l-93.396 79.243-25.634-20.479zm-44.357-33.834 28.642-24.93h50.599L374.587 51.64l-25.745-20.367z" opacity=".6"/></g></svg>