<?xml version="1.0" encoding="utf-8"?>
<!-- Generator: Adobe Illustrator 21.0.2, SVG Export Plug-In . SVG Version: 6.00 Build 0)  -->
<svg version="1.1" id="medellin-tribal-vector" xmlns="http://www.w3.org/2000/svg" xmlns:xlink="http://www.w3.org/1999/xlink"
	 x="0px" y="0px" viewBox="0 0 583 668" style="enable-background:new 0 0 583 668;" xml:space="preserve">
<style type="text/css">
	.st0{opacity:0.6;enable-background:new    ;}
</style>
<g>
	<path class="st0" d="M174.5,531.8V129h-33.3v136.3c-11.7-13-28.5-23-47.8-31.8c-31.3-14.2-66.1-20-93.3-22.1v27.9
		c30.9,2.7,59.6,9.5,81.7,19.6c36.9,16.8,55.6,42.2,55.6,75.5c0,35.7-18.2,61-55.5,77.4c-16,7-42.5,15.1-81.8,18v27.8
		c29.3-2,63.4-7.5,93.1-20.4c19.4-8.5,36.2-20.8,48-34.1v128.7H174.5z"/>
	<rect x="193.3" y="129" class="st0" width="33.3" height="402.8"/>
	<rect x="246.9" y="129" class="st0" width="33.3" height="402.8"/>
	<rect x="299.4" y="129" class="st0" width="33.3" height="402.8"/>
	<rect x="354.9" y="129" class="st0" width="33.3" height="402.8"/>
	<rect y="132.4" class="st0" width="123.3" height="22.9"/>
	<rect y="187.9" class="st0" width="123.3" height="22.9"/>
	<rect y="160.4" class="st0" width="123.3" height="22.9"/>
	<rect x="459.7" y="132.4" class="st0" width="123.3" height="22.9"/>
	<rect x="459.7" y="187.9" class="st0" width="123.3" height="22.9"/>
	<rect x="459.7" y="160.4" class="st0" width="123.3" height="22.9"/>
	<rect y="458" class="st0" width="123.3" height="22.9"/>
	<rect y="513.3" class="st0" width="123.3" height="22.9"/>
	<rect y="485.9" class="st0" width="123.3" height="22.9"/>
	<rect x="459.7" y="458" class="st0" width="123.3" height="22.9"/>
	<rect x="459.7" y="513.3" class="st0" width="123.3" height="22.9"/>
	<rect x="459.7" y="485.9" class="st0" width="123.3" height="22.9"/>
	<path class="st0" d="M120.8,334.3c0-58.3-72.7-73-119.7-73v146C48,407.3,120.8,396,120.8,334.3z"/>
	<path class="st0" d="M461.2,334.2c0,61.7,72.8,73,119.7,73V261.3C533.8,261.3,461.2,276,461.2,334.2z"/>
	<path class="st0" d="M581.9,211.4c-27.2,2.1-62,7.9-93.3,22.1c-19.2,8.7-34.7,19.8-46.4,32.7V129h-33.3v402.8h33.3V404.5
		c11.6,13.2,27.3,24.1,46.6,32.6c29.6,12.9,63.7,18.4,93.1,20.4v-27.8c-39.3-2.9-65.8-11-81.8-18c-37.3-16.4-55.5-41.6-55.5-77.4
		c0-33.3,18.7-58.7,55.6-75.5c22.1-10.1,50.8-16.9,81.7-19.6V211.4z"/>
	<polygon class="st0" points="144,99.3 37.1,6.3 1.1,6.3 1.1,20.4 118.4,119.8 	"/>
	<polygon class="st0" points="186.1,65.1 118.5,6.3 67,6.3 160.4,85.6 	"/>
	<polygon class="st0" points="230.4,31.3 201.7,6.3 151.2,6.3 204.7,51.6 	"/>
	<path class="st0" d="M13.9,92c0,8.5,7.2,15.2,16.2,15.2c8.9,0,16.2-6.9,16.2-15.4c0-8.5-7.2-15.2-16.2-15.2
		C21.2,76.7,13.9,83.6,13.9,92z"/>
	<path class="st0" d="M533.7,91.9c0,8.5,7.2,15.4,16.2,15.4s16.2-6.9,16.2-15.4c0-8.5-7.2-15.4-16.2-15.4S533.7,83.5,533.7,91.9z"/>
	<path class="st0" d="M442.7,120L296.2,0L140.1,120H442.7z M379.5,96.7H205.3l89.9-69L379.5,96.7z"/>
	<polygon class="st0" points="336.7,84 292.9,48.1 246,84 	"/>
	<polygon class="st0" points="435.3,568.7 542.2,661.8 578.1,661.8 578.1,647.6 461,548.2 	"/>
	<polygon class="st0" points="393.2,602.9 460.7,661.8 512.2,661.8 418.8,582.5 	"/>
	<polygon class="st0" points="348.8,636.8 377.5,661.8 428.1,661.8 374.6,616.4 	"/>
	<polygon class="st0" points="118.4,548.2 1.1,647.6 1.1,661.8 37.1,661.8 144,568.7 	"/>
	<polygon class="st0" points="160.4,582.5 67,661.8 118.5,661.8 186.1,602.9 	"/>
	<polygon class="st0" points="151.2,661.8 201.7,661.8 230.4,636.8 204.7,616.4 	"/>
	<path class="st0" d="M565.4,576.1c0-8.6-7.2-15.4-16.2-15.4c-8.9,0-16.2,6.9-16.2,15.4c0,8.5,7.2,15.4,16.2,15.4
		C558.1,591.4,565.4,584.5,565.4,576.1z"/>
	<path class="st0" d="M13.2,576.1c0,8.5,7.2,15.4,16.2,15.4c8.9,0,16.2-6.9,16.2-15.4c0-8.6-7.2-15.4-16.2-15.4
		C20.4,560.7,13.2,567.6,13.2,576.1z"/>
	<path class="st0" d="M136.5,548l146.6,120l156.1-120H136.5z M199.8,571.3H374l-89.9,69L199.8,571.3z"/>
	<polygon class="st0" points="242.6,584 286.4,619.9 333.4,584 	"/>
	<polygon class="st0" points="461,119.8 578.1,20.4 578.1,6.3 542.2,6.3 435.3,99.3 	"/>
	<polygon class="st0" points="418.8,85.6 512.2,6.3 460.7,6.3 393.2,65.1 	"/>
	<polygon class="st0" points="428.1,6.3 377.5,6.3 348.8,31.3 374.6,51.6 	"/>
</g>
</svg>
