<svg xmlns="http://www.w3.org/2000/svg" fill="none" viewBox="0 0 593 659"><g opacity=".5" fill="#FBF4A0" clip-path="url(#a)"><path d="M3.67 32.372v50.281l502.916 272.322 46.377-26.031L3.67 32.372zm0 81.318v50.17l428.958 232.385 46.376-25.919L3.67 113.69zm355.667 273.878L3.67 584.801v48.947l400.82-221.817-45.153-24.363zm-78.185-42.605L3.67 499.256v49.837l325.305-178.1-47.823-26.03zm-70.177 11.235 44.487-24.473-.334-.111.778-.445-43.485-23.584-.667.334L3.67 194.452v48.613l163.598 89.216L3.67 422.387v48.391l207.083-114.691.222.111z" opacity=".5"/><path d="M6.784 278.996v101.787l109.436-48.391L6.784 278.996zM0 0l593 325.273V0H0zm553.407 257.304L146.915 37.044h406.492v220.26zm-35.589-64.521L277.593 67.524h240.225v125.259zM593 659V333.727L0 659h593zm-39.593-37.044H146.915l406.492-220.26v220.26zm-35.589-30.48H277.593l240.225-125.259v125.259z" opacity=".5"/></g><defs><clipPath id="a"><path fill="#fff" d="M0 0h593v659H0z"/></clipPath></defs></svg>