<svg xmlns="http://www.w3.org/2000/svg" width="593" height="659" fill="none" viewBox="0 0 593 659"><g clip-path="url(#clip0)"><g opacity=".5"><path fill="#FBF4A0" d="M3.6701 32.3716V82.6532L506.586 354.975L552.963 328.944L3.6701 32.3716Z" opacity=".5"/><path fill="#FBF4A0" d="M3.6701 113.69V163.86L432.628 396.245L479.004 370.326L3.6701 113.69Z" opacity=".5"/><path fill="#FBF4A0" d="M359.337 387.568L3.6701 584.801V633.748L404.49 411.931L359.337 387.568Z" opacity=".5"/><path fill="#FBF4A0" d="M281.152 344.963L3.6701 499.256V549.093L328.975 370.993L281.152 344.963Z" opacity=".5"/><path fill="#FBF4A0" d="M210.975 356.198L255.462 331.725L255.128 331.614L255.906 331.169L212.421 307.585L211.754 307.919L3.6701 194.452V243.065L167.268 332.281L3.6701 422.387V470.778L210.753 356.087L210.975 356.198Z" opacity=".5"/><path fill="#FBF4A0" d="M6.78412 278.996V380.783L116.22 332.392L6.78412 278.996Z" opacity=".5"/><path fill="#FBF4A0" d="M0 0L593 325.273V0H0ZM553.407 257.304L146.915 37.0437H553.407V257.304ZM517.818 192.783L277.593 67.5241H517.818V192.783Z" opacity=".5"/><path fill="#FBF4A0" d="M593 659V333.727L0 659H593ZM553.407 621.956H146.915L553.407 401.696V621.956ZM517.818 591.476H277.593L517.818 466.217V591.476Z" opacity=".5"/></g></g><defs><clipPath id="clip0"><rect width="593" height="659" fill="#fff"/></clipPath></defs></svg>