<svg viewBox="0 0 5234 255" xmlns="http://www.w3.org/2000/svg" xml:space="preserve" style="fill-rule:evenodd;clip-rule:evenodd;stroke-linejoin:round;stroke-miterlimit:2"><path d="M5233.33-1.317v32.531a33.661 33.661 0 0 0-2.124.011c-50.059 0-100.119 0-150.178-.835-10.429 0-15.018 2.921-15.018 14.185.417 26.284.417 52.985 0 79.269-.417 11.264 3.755 16.688 15.435 16.27 26.281-.417 52.98-.417 79.261.835 16.269.834 17.521-8.344 17.521-20.86.417-12.934-3.338-19.609-17.521-19.192-13.766.418-27.95 1.669-41.716-.834-5.423-.834-11.264-9.596-12.932-15.854-2.92-9.595 2.503-15.436 13.766-15.019 24.195.417 48.808.834 73.003.834 12.515 0 15.018 6.258 15.018 17.106a1894.11 1894.11 0 0 0 0 68.838c.417 13.351-5.423 18.357-18.772 17.94-45.054-.835-90.524-1.669-135.578-.835-17.52.418-20.858-7.092-20.441-22.529.835-32.541-.417-65.5.418-98.042.417-16.688-5.423-21.277-21.693-21.277-69.666.417-138.915 0-208.581-1.252-13.349 0-18.772 3.338-18.772 17.105 0 49.23-.834 98.46-1.251 148.107 0 12.099 4.171 17.105 17.103 17.105 47.139-.417 94.696 0 141.835.835 11.681 0 18.355-2.503 17.938-15.854-.417-27.118 0-54.236.417-81.354.417-11.265-4.588-14.602-15.018-14.185-20.858.417-41.716 0-62.574 0-33.373 0-34.207 1.669-28.367 38.382 16.687 0 33.79.418 51.311 0 12.515-.417 17.104 6.676 14.184 16.689-1.669 5.84-8.761 14.602-13.767 14.602-22.109 1.251-44.219 0-66.746.417-12.514 0-17.52-5.007-17.52-17.523.417-21.694.834-42.972-.418-64.666-.834-17.94 6.258-22.529 22.944-22.112 41.717 1.252 83.433 1.669 125.149.417 19.189-.417 25.447 5.841 25.03 24.615-.835 38.383 0 77.183 0 117.234 5.423 1.252 8.343 2.503 10.846 2.503 75.089.835 150.178.835 225.267 2.086.9 0 1.745-.031 2.541-.094v38.06H3547.54v1.825H1757.08v-.001H-.01V.507h1790.46v.001h1755v-1.825h1687.87zM2386.58 123.582c.417-24.197-.417-48.812.834-73.01.417-12.933-2.086-20.026-16.686-19.191-12.515.417-23.361.417-22.944 18.357.417 49.229.417 98.876-.417 148.106-.418 14.602 5.006 19.192 19.189 19.609 15.852.417 20.858-5.424 20.441-20.443-1.251-24.615-.417-49.23-.417-73.428zm-1757.09 0c.417-24.198-.418-48.813.834-73.01.417-12.934-2.086-20.026-16.687-19.192-12.514.417-23.361.417-22.944 18.357.418 49.23.418 98.877-.417 148.107-.417 14.602 5.006 19.191 19.19 19.608 15.852.418 20.858-5.423 20.441-20.442-1.252-24.615-.417-49.23-.417-73.428zm2881.57-92.199c-12.575.079-20.256 2.748-20.256 18.355.417 49.229.417 98.459-.417 147.272-.417 15.436 5.423 20.443 20.441 20.026 14.6-.418 19.606-5.424 19.189-19.609-.391-22.685-.049-45.371-.004-68.056l.004-4.537c.417-25.032-.834-50.064.835-74.679 1.251-16.271-6.258-18.774-19.19-18.774l-.602.002zm-1753.98.034a78.202 78.202 0 0 0-2.503-.037c-12.932 0-20.858 2.503-20.858 18.357.417 49.23.417 98.46-.417 147.273-.418 15.436 5.423 20.442 20.44 20.025a54.056 54.056 0 0 0 3.338-.192V31.417zM2956.42 124h.834c0-25.033-.834-50.065.417-74.68.835-15.019-6.257-17.939-18.355-17.939-11.68 0-22.109.417-21.692 17.105.417 50.481 0 100.963-.417 151.444 0 14.602 7.509 16.688 19.606 16.688 11.681 0 20.441-.417 20.024-15.853-.834-25.45-.417-51.316-.417-76.765zM1869.57 31.8c-11.703.104-16.958 3.537-16.958 16.269 0 49.23-.835 98.459-1.252 147.689 0 11.265 3.338 17.523 17.104 17.523 47.974-.417 95.947 0 143.921.417 11.68 0 16.269-3.755 16.269-15.436-.417-27.119 0-54.237.417-81.355.417-12.516-5.84-15.019-16.686-15.019-7.822.156-15.644.195-23.466.205l-15.643.007c-7.822.009-15.644.049-23.466.205-30.869 0-35.458 6.675-25.029 38.8 16.686 0 34.207-1.252 51.311.834 5.006.417 11.263 10.43 12.097 16.271.418 4.589-7.091 13.768-11.263 14.185-23.361 1.252-47.139.417-70.917.417-11.681 0-15.435-6.258-15.018-17.522.417-22.112.417-44.641-.417-66.753-.835-14.185 4.171-20.025 18.772-19.608 40.464.834 80.512.834 120.977.834 32.955 0 32.955-.417 32.955 32.959v109.724c5.424 1.252 7.927 2.086 10.847 2.086 75.089.835 150.178.835 225.267 2.086 14.184 0 15.435-7.926 15.435-18.774 0-49.23 0-98.877.834-148.106 0-12.934-4.588-17.106-17.103-16.688-24.196.417-48.808 0-73.004 0h-89.689c-.835 36.296-.835 70.924-.835 109.306 33.79 0 65.078-.417 95.948 0 15.852 0 15.017-10.43 15.434-21.277 0-10.847-1.668-19.191-15.852-18.774-13.766.417-27.949 0-41.716.417-12.098.417-17.521-6.258-14.6-16.688 1.668-5.841 8.76-14.602 13.766-14.602 25.03-1.252 50.059-.834 75.089.417 4.172 0 11.68 6.258 12.098 10.013.834 30.456.417 60.494.417 92.202-53.397 0-103.456-.417-153.099.417-17.103.417-20.858-6.675-20.858-22.112.835-33.376-.417-66.752.418-100.128 0-13.768-4.172-19.609-19.19-19.609-70.917.418-141.835 0-212.752-.834l-.563.002zm-670.234 92.199h.835c0-25.032-.835-50.064.417-74.679.834-15.019-6.257-17.94-18.355-17.94-11.681 0-22.11.417-21.693 17.106.418 50.481 0 100.962-.417 151.444 0 14.602 7.509 16.688 19.607 16.688 11.68 0 20.441-.417 20.024-15.854-.835-25.449-.418-51.316-.418-76.765zM112.486 31.8c-11.703.104-16.958 3.537-16.958 16.268 0 49.23-.834 98.46-1.252 147.69 0 11.264 3.338 17.522 17.104 17.522 47.974-.417 95.947 0 143.921.418 11.68 0 16.269-3.755 16.269-15.437-.417-27.118 0-54.236.417-81.354.417-12.516-5.84-15.02-16.686-15.02-20.858.418-41.716 0-62.574.418-30.87 0-35.459 6.675-25.03 38.799 16.686 0 34.207-1.251 51.311.835 5.006.417 11.263 10.43 12.097 16.271.418 4.589-7.091 13.767-11.263 14.185-23.361 1.251-47.139.417-70.917.417-11.681 0-15.435-6.258-15.018-17.523.417-22.111.417-44.64-.417-66.752-.835-14.185 4.171-20.026 18.772-19.609 40.465.835 80.512.835 120.977.835 32.956 0 32.956-.417 32.956 32.959v109.724c5.423 1.252 7.926 2.086 10.846 2.086 75.089.834 150.178.834 225.267 2.086 14.183 0 15.435-7.927 15.435-18.774 0-49.23 0-98.877.834-148.107 0-12.933-4.589-17.105-17.104-16.688-24.195.417-48.808 0-73.003 0h-89.689c-.835 36.297-.835 70.924-.835 109.307 33.791 0 65.077-.417 95.947 0 15.852 0 15.018-10.43 15.435-21.277 0-10.848-1.668-19.192-15.852-18.774-13.766.417-27.95 0-41.716.417-12.098.417-17.521-6.258-14.601-16.688 1.669-5.841 8.761-14.602 13.767-14.602 25.029-1.252 50.059-.835 75.089.417 4.171 0 11.68 6.258 12.097 10.013.835 30.455.417 60.494.417 92.201-53.396 0-103.455-.417-153.097.418-17.104.417-20.859-6.676-20.859-22.112.365-14.602.331-29.204.247-43.806l-.076-12.516c-.084-14.603-.118-29.205.247-43.807 0-13.767-4.172-19.608-19.19-19.608-70.917.417-141.835 0-212.752-.835l-.563.003zm2326.07-.83c-10.253.134-16.503 2.471-16.099 14.596.417 17.939 0 36.296 0 54.236.417 37.131.417 73.845.417 113.479 56.734 0 110.131.417 163.527-.835 4.172 0 11.264-9.178 11.681-14.602 1.251-27.118.417-54.236.834-81.354.417-12.516-5.84-15.019-16.686-15.019-20.858.417-41.716 0-62.575.417-31.704 0-33.372 2.086-26.281 38.8 17.104 0 35.042-1.252 52.98.834 4.589.417 10.846 10.43 11.263 16.688.417 4.589-7.092 13.768-11.68 13.768-23.361 1.251-47.14 1.251-70.918-.835-5.006-.417-12.932-10.012-13.349-15.436-1.669-20.86.417-41.72-1.252-62.58-1.251-19.192 4.589-25.867 24.196-25.033 37.544 1.669 75.089 1.252 112.634 1.252 35.875 0 35.875-.417 35.458 36.297v107.221c10.846.417 18.773 1.251 27.116 1.668 67.58.418 134.743.418 202.323 1.669 15.852.417 22.527-3.337 22.11-20.443-.834-27.535.417-55.488.417-83.44V32.215c-58.403 0-114.719-.417-170.619.417-3.337 0-9.178 7.927-9.595 12.099-.834 27.118-1.251 54.236.417 81.355.417 5.423 8.344 14.184 13.349 14.602 27.116 1.668 54.231.834 81.347 1.668 14.601.418 17.104-7.092 17.104-19.608 0-12.933-2.503-21.695-18.355-20.86-13.35.834-26.282-.417-39.631 0-12.515.417-16.686-7.51-13.766-17.105 1.668-5.841 9.177-13.351 14.6-13.768 22.944-1.252 45.888.417 68.832-.417 14.184-.418 17.938 5.423 17.521 18.357a890.766 890.766 0 0 0 0 66.752c.417 15.019-5.423 18.774-19.607 18.774-43.802-.834-87.604-1.669-131.406-.834-19.189.417-23.778-6.676-23.361-24.198.47-18.774.279-37.548.022-56.322l-.174-12.516c-.143-10.431-.265-20.861-.265-31.291 0-12.098-4.171-17.522-16.686-17.522-71.752 0-143.087-.417-214.839-.834l-1.004.006zm-1652.52 70.712c-7.821.01-15.643.049-23.465.205-31.704 0-33.373 2.086-26.281 38.8 17.104 0 35.042-1.251 52.979.835 4.589.417 10.847 10.43 11.264 16.688.417 4.589-7.092 13.767-11.681 13.767-23.361 1.252-47.139 1.252-70.917-.834-5.006-.417-12.932-10.013-13.349-15.436-1.669-20.861.417-41.721-1.252-62.581-1.251-19.191 4.589-25.866 24.196-25.032 37.544 1.669 75.089 1.252 112.633 1.252 35.876 0 35.876-.418 35.459 36.296v107.221c10.846.417 18.772 1.252 27.115 1.669 67.581.417 134.744.417 202.324 1.669 15.852.417 22.527-3.338 22.11-20.443-.835-27.535.417-55.488.417-83.441V32.215c-58.403 0-114.72-.418-170.619.417-3.338 0-9.178 7.927-9.595 12.099-.835 27.118-1.252 54.236.417 81.354.417 5.424 8.343 14.185 13.349 14.602 27.116 1.669 54.231.835 81.347 1.669 14.6.417 17.103-7.092 17.103-19.608 0-12.934-2.503-21.695-18.355-20.861-13.349.835-26.281-.417-39.63 0-12.515.418-16.687-7.509-13.767-17.105 1.669-5.841 9.178-13.35 14.601-13.768 22.944-1.251 45.888.418 68.832-.417 14.183-.417 17.938 5.424 17.521 18.357a889.727 889.727 0 0 0 0 66.753c.417 15.019-5.423 18.774-19.607 18.774-43.802-.835-87.604-1.669-131.406-.835-19.189.417-23.778-6.675-23.361-24.198.834-33.376-.417-66.752-.417-100.128 0-12.099-4.172-17.523-16.687-17.523-71.751 0-143.086-.417-214.838-.834-10.846 0-17.521 2.086-17.104 14.602.418 17.94 0 36.297 0 54.236.418 37.131.418 73.845.418 113.479 56.734 0 110.13.418 163.527-.834 4.172 0 11.263-9.178 11.681-14.602.703-15.254.747-30.508.725-45.762l-.017-10.169c-.013-8.475-.005-16.949.126-25.424.417-12.516-5.84-15.019-16.687-15.019-7.821.157-15.643.196-23.465.206l-15.644.006zm2420.27 109.93c5.423 1.252 8.343 2.503 10.846 2.503 75.089.835 150.178.835 225.267 2.086 14.601 0 15.018-8.344 15.018-18.774 0-49.23 0-98.877.834-148.107 0-11.264-3.337-16.688-15.435-16.27-50.059 0-100.118 0-150.178-.835-10.429 0-15.018 2.921-15.018 14.185.418 26.284.418 52.985 0 79.268-.417 11.265 3.755 16.688 15.435 16.271 26.282-.417 52.98-.417 79.261.835 16.269.834 17.521-8.344 17.521-20.86.417-12.934-3.337-19.609-17.521-19.192-13.766.417-27.95 1.669-41.716-.834-5.423-.835-11.263-9.596-12.932-15.854-2.92-9.596 2.503-15.436 13.766-15.019 24.196.417 48.808.834 73.004.834 12.514 0 15.017 6.258 15.017 17.106a1894.11 1894.11 0 0 0 0 68.838c.418 13.35-5.423 18.357-18.772 17.94-45.053-.835-90.524-1.669-135.577-.835-17.521.417-20.859-7.092-20.441-22.529.834-32.541-.418-65.5.417-98.042.417-16.688-5.423-21.277-21.693-21.277-69.666.417-138.915 0-208.581-1.252-13.349 0-18.772 3.338-18.772 17.105 0 49.23-.834 98.46-1.251 148.107 0 12.099 4.171 17.105 17.103 17.105 47.14-.417 94.696 0 141.835.835 11.681 0 18.355-2.504 17.938-15.854-.417-27.118 0-54.236.417-81.354.418-11.265-4.588-14.603-15.017-14.185-20.858.417-41.717 0-62.575 0-33.373 0-34.207 1.668-28.367 38.382 16.687 0 33.79.417 51.311 0 12.515-.417 17.104 6.675 14.184 16.688-1.669 5.841-8.761 14.602-13.767 14.602-22.109 1.252-44.219 0-66.745.418-12.515 0-17.521-5.007-17.521-17.523.417-21.694.834-42.972-.417-64.666-.835-17.94 6.257-22.529 22.943-22.112 41.717 1.252 83.433 1.669 125.149.417 19.189-.417 25.447 5.841 25.03 24.615-.835 38.383 0 77.183 0 117.234zm-1757.09 0c5.423 1.251 8.344 2.503 10.847 2.503 75.089.834 150.178.834 225.267 2.086 14.601 0 15.018-8.344 15.018-18.774 0-49.23 0-98.877.834-148.107 0-11.265-3.337-16.688-15.435-16.271-50.059 0-100.119 0-150.178-.834-10.429 0-15.018 2.92-15.018 14.184.417 26.284.417 52.985 0 79.269-.417 11.264 3.754 16.688 15.435 16.271 26.281-.417 52.98-.417 79.261.834 16.269.835 17.521-8.344 17.521-20.86.417-12.933-3.338-19.608-17.521-19.191-13.767.417-27.95 1.669-41.716-.835-5.424-.834-11.264-9.595-12.932-15.853-2.921-9.596 2.503-15.437 13.766-15.02 24.195.418 48.808.835 73.003.835 12.515 0 15.018 6.258 15.018 17.105a1894.164 1894.164 0 0 0 0 68.839c.417 13.35-5.423 18.356-18.772 17.939-45.054-.834-90.524-1.669-135.578-.834-17.521.417-20.858-7.093-20.441-22.529.835-32.542-.417-65.501.417-98.043.418-16.688-5.423-21.277-21.692-21.277-69.666.417-138.915 0-208.581-1.252-13.349 0-18.772 3.338-18.772 17.106 0 49.23-.834 98.459-1.252 148.107 0 12.098 4.172 17.105 17.104 17.105 47.139-.417 94.696 0 141.835.834 11.681 0 18.355-2.503 17.938-15.853-.417-27.119 0-54.237.417-81.355.417-11.264-4.589-14.602-15.018-14.185-20.858.417-41.716 0-62.574 0-33.373 0-34.207 1.669-28.367 38.383 16.686 0 33.79.417 51.311 0 12.515-.417 17.104 6.675 14.183 16.688-1.668 5.841-8.76 14.602-13.766 14.602-22.109 1.252-44.219 0-66.746.417-12.515 0-17.521-5.006-17.521-17.522.418-21.695.835-42.972-.417-64.667-.834-17.939 6.258-22.529 22.944-22.111 41.716 1.251 83.432 1.668 125.149.417 19.189-.417 25.447 5.841 25.029 24.615-.834 38.382 0 77.182 0 117.234zm2725.74-89.854c.417-24.198-.417-48.813.834-73.011.417-12.933-2.086-20.026-16.686-19.191-12.515.417-23.361.417-22.944 18.357.417 49.23.417 98.877-.417 148.107-.418 14.602 5.005 19.191 19.189 19.608 15.852.417 20.858-5.424 20.441-20.443-1.252-24.615-.417-49.23-.417-73.427zm-517.008-91.783c-11.704.104-16.959 3.537-16.959 16.269 0 49.23-.834 98.46-1.251 147.69 0 11.264 3.337 17.522 17.103 17.522 47.974-.417 95.947 0 143.921.417 11.681 0 16.269-3.755 16.269-15.436-.417-27.118 0-54.237.418-81.355.417-12.516-5.841-15.019-16.687-15.019-20.858.417-41.716 0-62.574.417-30.87 0-35.459 6.675-25.03 38.8 16.687 0 34.207-1.252 51.311.834 5.006.418 11.263 10.43 12.098 16.271.417 4.59-7.092 13.768-11.264 14.185-23.361 1.252-47.139.417-70.917.417-11.681 0-15.435-6.258-15.018-17.522.417-22.112.417-44.641-.417-66.752-.835-14.185 4.171-20.026 18.772-19.609 40.465.834 80.512.834 120.977.834 32.956 0 32.956-.417 32.956 32.959v109.725c5.423 1.251 7.926 2.086 10.846 2.086 75.089.834 150.178.834 225.267 2.086 14.183 0 15.435-7.927 15.435-18.774 0-49.23 0-98.877.834-148.107 0-12.934-4.589-17.106-17.103-16.688-24.196.417-48.808 0-73.004 0h-89.689c-.834 36.296-.834 70.924-.834 109.307 33.79 0 65.076-.418 95.946 0 15.853 0 15.018-10.43 15.435-21.278 0-10.847-1.668-19.191-15.852-18.774-13.766.417-27.95 0-41.716.417-12.098.418-17.52-6.258-14.601-16.688 1.669-5.841 8.761-14.602 13.767-14.602 25.029-1.251 50.059-.834 75.089.417 4.171 0 11.68 6.258 12.098 10.013.834 30.456.417 60.495.417 92.202-53.397 0-103.456-.417-153.098.417-17.104.417-20.858-6.675-20.858-22.112.365-14.602.33-29.204.246-43.806l-.076-12.516c-.084-14.602-.118-29.204.247-43.806 0-13.768-4.172-19.609-19.19-19.609-70.917.418-141.835 0-212.752-.834l-.562.002zm1086.85 92.2h.834c0-25.032-.834-50.065.417-74.679.834-15.02-6.257-17.94-18.355-17.94-11.68 0-22.11.417-21.692 17.105.417 50.482 0 100.963-.418 151.445 0 14.602 7.509 16.688 19.607 16.688 11.681 0 20.441-.418 20.024-15.854-.834-25.449-.417-51.316-.417-76.765zm-285.074-43.389c-.143-10.43-.265-20.86-.265-31.29 0-12.099-4.172-17.523-16.686-17.523-71.752 0-143.087-.417-214.839-.834-10.846 0-17.521 2.086-17.103 14.602.417 17.939 0 36.296 0 54.236.417 37.131.417 73.845.417 113.479 56.734 0 110.13.417 163.527-.834 4.172 0 11.264-9.179 11.681-14.602.704-15.254.748-30.508.726-45.762l-.018-10.17c-.012-8.474-.004-16.949.126-25.423.417-12.516-5.84-15.019-16.686-15.019-7.822.156-15.644.195-23.466.205l-15.643.007c-7.822.009-15.644.049-23.466.205-31.704 0-33.373 2.086-26.281 38.8 17.104 0 35.042-1.252 52.98.834 4.588.417 10.846 10.43 11.263 16.688.417 4.59-7.092 13.768-11.68 13.768-23.362 1.252-47.14 1.252-70.918-.834-5.006-.418-12.932-10.013-13.349-15.437-1.669-20.86.417-41.72-1.252-62.58-1.251-19.192 4.589-25.867 24.196-25.032 37.544 1.668 75.089 1.251 112.633 1.251 35.876 0 35.876-.417 35.459 36.297v107.221c10.846.417 18.772 1.251 27.116 1.669 67.58.417 134.743.417 202.323 1.668 15.852.418 22.527-3.337 22.11-20.442-.835-27.536.417-55.488.417-83.441V30.39c-58.403 0-114.72-.417-170.619.417-3.338 0-9.178 7.927-9.595 12.099-.834 27.118-1.252 54.237.417 81.355.417 5.423 8.343 14.185 13.349 14.602 27.116 1.669 54.231.834 81.347 1.669 14.601.417 17.103-7.093 17.103-19.609 0-12.933-2.502-21.694-18.355-20.86-13.349.834-26.281-.417-39.63 0-12.515.417-16.686-7.51-13.766-17.105 1.668-5.841 9.177-13.351 14.6-13.768 22.944-1.252 45.888.417 68.832-.417 14.184-.417 17.938 5.423 17.521 18.357a889.7 889.7 0 0 0 0 66.752c.417 15.019-5.423 18.774-19.607 18.774-43.802-.834-87.604-1.669-131.406-.834-19.189.417-23.778-6.675-23.361-24.198.47-18.774.279-37.548.022-56.322l-.174-12.516zm-2669.27 133.942c1.506.049 3.172-.045 5.006-.282 11.263-1.251 24.612 2.921 23.778-16.688-1.252-24.615-.417-48.812-.417-73.01h1.668c0-25.032-.417-50.064 0-74.679.418-10.013 0-18.774-13.349-17.105-5.114.59-11.433-.675-16.686.055v181.709zm-1728.72-89.98h1.668c0-25.033-.417-50.065 0-74.68.418-10.013 0-18.774-13.349-17.105-10.846 1.252-27.115-5.841-27.115 15.436-.417 50.065-.834 99.712-1.669 149.776-.417 12.516 4.172 17.94 17.104 16.271 11.263-1.252 24.612 2.92 23.778-16.688-1.252-24.615-.417-48.813-.417-73.01zm3545.46-1.825h1.669c0-25.032-.418-50.064 0-74.679.417-10.013 0-18.774-13.35-17.105-10.846 1.251-27.115-5.841-27.115 15.436-.417 50.064-.834 99.711-1.669 149.776-.417 12.516 4.172 17.939 17.104 16.271 11.263-1.252 24.612 2.92 23.778-16.688-1.251-24.615-.417-48.813-.417-73.011z" style="fill:#f04c39;fill-rule:nonzero"/></svg>