<svg width="276" height="222" viewBox="0 0 276 222" fill="none" xmlns="http://www.w3.org/2000/svg">
<path d="M91.3433 145.837C91.3433 139.311 91.1062 132.897 91.4806 126.509C91.5929 124.488 92.1294 120.669 94.3379 120.607C96.4841 120.532 97.345 124.25 97.4698 126.16C97.8691 132.548 97.6195 138.986 97.6195 145.849C102.311 146.211 106.254 146.136 110.01 146.96C111.807 147.359 115.138 148.707 114.839 150.753C114.552 152.749 111.17 152.787 109.249 153.011C106.017 153.386 102.723 153.111 99.1668 153.111C99.1668 161.259 98.5304 168.933 99.3539 176.457C100.09 183.132 97.3326 184.517 91.7426 183.993C90.7444 183.893 89.7212 184.143 88.3986 184.268C88.3986 193.089 88.2614 201.749 88.5234 210.408C88.5733 212.005 89.322 215.162 91.1562 215.137C92.9654 215.112 93.5144 212.005 93.6517 210.358C94.0884 204.98 93.8139 199.553 94.3005 194.175C94.4502 192.515 95.2613 189.421 97.1204 189.421C99.0295 189.421 99.9404 192.603 100.028 194.262C100.365 200.863 100.165 207.488 100.165 215C117.933 215 135.626 215 152.833 215C152.833 203.358 153.12 192.603 152.708 181.884C152.496 176.432 154.642 174.847 159.596 175.171C163.227 175.409 166.883 175.221 172.36 175.221C165.46 169.195 159.82 164.453 154.43 159.437C153.182 158.264 150.974 155.993 152.034 154.484C153.17 152.862 156.589 154.034 157.861 155.058C165.647 161.284 173.196 167.797 180.658 174.41C181.831 175.446 183.029 177.792 182.604 178.952C182.155 180.175 179.822 181.323 178.262 181.398C172.086 181.672 165.897 181.51 160.12 181.51C160.12 193.389 159.895 204.332 160.232 215.249C160.369 219.816 159.209 221.538 154.405 221.526C129.313 221.476 104.22 221.738 79.1278 221.813C70.1938 221.838 69.021 220.602 68.7964 211.818C68.6716 206.627 68.2973 201.412 68.6965 196.271C68.8213 194.661 70.4309 191.48 72.4148 191.717C74.1742 191.929 74.5735 194.824 74.7357 196.471C75.3346 202.422 75.5218 208.412 75.8961 214.763C77.7802 215 79.5645 215.224 81.5235 215.474C81.5235 204.893 81.5235 194.649 81.5235 184.704C80.8746 184.317 80.7124 184.143 80.5502 184.13C67.3864 183.219 67.2491 183.232 66.7999 170.006C66.3008 155.27 65.9764 140.521 65.8766 125.773C65.8641 123.988 66.6876 120.432 68.7464 120.382C70.6306 120.333 71.3917 123.489 71.6163 125.199C72.4897 131.749 72.914 138.35 73.5378 145.338C75.135 145.437 76.7071 145.537 78.4789 145.65C78.6661 144.639 78.9406 143.865 78.9531 143.079C79.0529 137.052 78.8907 131.013 79.3399 125.024C79.4522 123.502 80.7124 120.557 82.5466 120.657C84.3808 120.757 85.1919 123.739 85.3042 125.373C85.7035 130.951 85.7035 136.578 85.5662 142.181C85.4165 146.56 87.5876 146.86 91.3433 145.837ZM80.4005 176.444C79.9014 168.371 79.4522 160.872 78.9905 153.373C78.5039 152.999 78.1545 152.2 77.5307 152.238C75.4594 152.362 73.4131 155.07 73.3008 156.63C72.8266 163.143 73.1011 169.706 73.1011 176.444C75.8337 176.444 77.643 176.444 80.4005 176.444ZM91.7177 176.594C91.7177 169.332 91.8923 162.382 91.518 155.482C91.4681 154.534 88.7355 153.722 86.6642 152.525C86.6642 160.336 86.6767 166.5 86.6642 172.663C86.6518 176.669 88.6856 177.542 91.7177 176.594Z" fill="black"/>
<path d="M197.165 70.21C200.696 70.21 203.154 70.21 206.124 70.21C206.124 65.4311 205.862 60.727 206.261 56.0729C206.411 54.2761 207.047 50.9072 209.031 50.8822C210.815 50.8573 211.439 53.8893 211.651 55.5239C212.275 60.2154 212.375 64.9819 212.712 70.1226C214.608 70.2724 216.38 70.3971 218.963 70.5968C218.963 65.3063 218.714 60.3901 219.1 55.5239C219.238 53.7396 219.899 50.3457 221.87 50.3582C223.879 50.3706 224.59 53.8394 224.653 55.6237C225.077 69.3116 225.077 83.012 225.377 96.7123C225.826 117.038 226.412 137.364 226.949 157.703C226.974 158.539 226.936 159.375 227.049 160.186C228.596 171.852 228.608 171.877 216.48 171.852C210.254 171.84 204.027 171.69 197.801 171.678C193.521 171.678 191.812 170.305 191.824 165.389C191.887 136.541 191.537 107.68 191.2 78.832C191.113 71.0335 190.402 63.2475 190.464 55.4615C190.477 53.5025 191.213 49.6469 193.421 49.6095C195.455 49.5846 196.054 53.0658 196.291 54.925C196.878 59.8162 196.89 64.7822 197.165 70.21ZM207.172 165.127C207.172 140.396 207.172 116.327 207.172 92.1331C203.453 92.1331 200.896 92.1331 198.575 92.1331C198.575 116.352 198.575 140.134 198.575 164.403C201.744 164.665 204.377 164.89 207.172 165.127ZM214.484 92.6821C214.484 116.177 214.384 138.924 214.696 161.671C214.721 163.205 217.765 164.69 219.4 166.212C219.4 142.006 219.387 119.234 219.412 96.4628C219.425 91.9709 216.854 91.9958 214.484 92.6821ZM206.223 84.7838C206.223 81.8266 206.223 79.6305 206.223 77.3347C203.216 77.3347 200.484 77.3347 197.414 77.3347C197.539 79.8177 197.639 81.8141 197.764 84.1599C200.659 84.372 203.241 84.5592 206.223 84.7838ZM218.813 86.0191C218.813 82.7499 218.813 80.1421 218.813 77.2473C216.642 77.2473 214.721 77.2473 212.837 77.2473C212.837 80.2045 212.837 82.7499 212.837 85.3952C214.92 85.6073 216.542 85.7695 218.813 86.0191Z" fill="black"/>
<path d="M145.16 75.6252C145.16 86.2686 144.997 96.4003 145.234 106.532C145.334 110.887 143.587 112.571 139.457 112.596C117.721 112.758 95.9854 112.971 74.2495 113.17C72.1782 113.183 69.9946 113.569 68.0481 113.058C66.5383 112.659 64.0179 111.823 63.968 110.138C63.918 108.329 66.6631 106.857 68.1105 106.769C78.0551 106.145 88.0247 105.783 97.9943 105.659C111.27 105.496 124.559 105.621 139.07 105.621C139.07 96.3504 139.07 87.4789 139.07 78.6073C139.058 68.5754 139.295 68.3383 149.052 68.1761C150.662 68.1511 152.259 68.0139 155.129 67.8517C149.364 60.6895 144.061 54.4133 139.17 47.8376C137.523 45.6291 134.591 42.5846 135.826 40.0267C137.074 37.4438 141.329 37.8306 144.099 37.7807C154.48 37.5811 164.874 37.8057 175.268 37.9055C181.494 37.9679 183.154 40.4884 180.072 46.0284C176.154 53.0657 171.724 59.8286 167.045 67.4524C171.075 67.6396 174.669 67.5397 178.175 68.0763C179.885 68.3383 182.917 68.8499 183.016 70.6966C183.116 72.5557 180.059 73.7286 178.475 73.8534C168.954 74.5896 159.396 74.914 149.851 75.3756C148.603 75.4256 147.368 75.5004 145.16 75.6252ZM160.831 63.0603C164.799 56.5345 168.355 50.6825 171.974 44.7307C163.252 44.7307 155.092 44.7307 145.933 44.7307C151.024 51.0194 155.541 56.5595 160.831 63.0603Z" fill="black"/>
<path d="M250.845 14.772C250.458 21.46 250.508 26.8004 249.722 32.016C249.298 34.7985 249.011 39.2031 246.203 40.0266C243.246 40.8876 240.414 37.1817 238.567 34.9108C233.089 28.1605 228.398 20.7862 223.232 13.7863C223.132 13.8237 223.132 13.8237 223.032 13.8487C222.945 20.6115 223.232 27.3993 222.92 34.1622C222.82 36.2085 222.945 39.3778 220.986 40.2388C218.865 41.1621 216.182 38.8537 214.772 37.2691C208.883 30.7059 203.368 23.7933 197.478 16.7185C197.478 23.5687 197.753 29.8948 197.316 36.1586C197.179 38.0677 196.093 41.6487 193.91 41.6737C191.838 41.7111 190.616 38.3172 190.528 36.5703C190.141 28.2728 190.129 19.9502 190.441 11.6526C190.516 9.69366 192.125 6.42454 193.436 6.21242C195.482 5.87552 198.489 7.03594 199.999 8.60811C204.004 12.7881 207.46 17.5046 211.066 22.0465C212.451 23.7933 213.674 25.6774 216.581 27.287C216.581 22.2461 216.332 17.1927 216.694 12.1767C216.856 9.95569 218.353 5.96287 219.114 6.0003C221.934 6.1126 225.503 6.78639 227.325 8.65802C232.054 13.5742 235.997 19.239 240.264 24.5919C240.738 25.1783 241.262 25.7273 242.697 27.3245C243.134 20.1748 243.271 14.2604 243.982 8.42095C244.219 6.48692 245.617 3.59213 247.064 3.18037C248.674 2.73117 251.531 4.10371 252.816 5.57606C257.994 11.5154 262.773 17.8041 269 25.5776C269 19.3139 268.638 14.7096 269.149 10.2052C269.424 7.78459 269.736 3.20532 272.306 3.2178C274.652 3.23028 274.951 7.42274 275.151 9.63127C275.763 16.6561 276.099 23.7309 275.975 30.7683C275.925 33.1265 275.563 36.9696 273.167 37.8056C271.021 38.5543 268.7 36.0338 267.278 34.4367C261.925 28.435 256.934 22.1338 250.845 14.772Z" fill="black"/>
<path d="M47.3718 0.69731C51.0152 0.759698 53.91 1.89516 54.0223 6.36213C54.2968 17.3673 54.8084 28.3726 54.9207 39.3778C54.9831 45.8287 52.7122 47.2137 46.411 47.2012C33.7962 47.1638 21.1689 47.8251 8.55408 47.7003C6.79474 47.6878 3.58801 44.818 3.57553 43.2458C3.38837 30.1693 3.58801 17.0804 4.29923 4.0413C4.37409 2.58142 8.31701 0.397849 10.6254 0.173252C16.39 -0.388238 40.9334 0.585012 47.3718 0.69731ZM10.538 27.3369C10.538 31.0677 10.538 34.4991 10.538 38.6666C23.0405 38.6666 35.281 38.6666 47.559 38.6666C47.559 34.8609 47.559 31.0802 47.559 27.3369C34.994 27.3369 22.8783 27.3369 10.538 27.3369ZM47.0349 8.63305C34.7819 8.63305 22.8908 8.63305 10.5505 8.63305C10.5505 11.9521 10.5505 14.9467 10.5505 19.2889C19.8338 19.2889 28.8676 19.1891 37.9013 19.3138C48.1704 19.4636 48.1704 19.5509 47.0349 8.63305Z" fill="black"/>
<path d="M212.725 198.455C217.554 193.015 221.247 188.523 225.327 184.43C226.675 183.07 229.532 181.647 230.83 182.221C232.327 182.883 233.325 185.628 233.7 187.624C234.174 190.157 233.812 192.852 233.812 196.521C237.256 191.692 239.851 187.524 243.045 183.881C244.281 182.471 246.963 181.51 248.785 181.76C249.783 181.897 250.894 184.929 251.068 186.738C251.418 190.407 251.168 194.138 251.168 198.767C255.386 194.075 259.304 189.433 263.571 185.154C264.906 183.806 267.664 182.384 268.999 182.933C270.446 183.519 271.744 186.327 271.794 188.198C271.968 194.824 271.744 201.487 271.257 208.1C271.157 209.373 269.735 211.793 268.1 211.718C266.478 211.656 265.368 209.21 265.255 207.85C264.894 203.321 265.118 198.742 265.118 193.002C260.476 198.243 256.546 203.034 252.191 207.414C250.707 208.898 248.061 210.134 246.14 209.897C245.067 209.759 243.906 206.428 243.669 204.431C243.332 201.599 243.806 198.679 244.006 193.988C240.126 199.653 237.331 204.107 234.111 208.237C233.026 209.635 231.004 211.706 229.183 211.119C227.373 210.533 227.024 207.713 226.874 205.929C226.525 201.811 226.762 197.656 226.762 192.466C222.345 197.469 218.402 202.26 214.06 206.665C212.588 208.15 209.593 209.834 208.208 209.248C206.636 208.587 205.538 205.567 205.263 203.433C204.901 200.626 205.538 197.694 205.85 193.239C202.181 198.542 199.474 202.922 196.254 206.902C195.131 208.287 192.686 210.546 191.001 209.522C189.167 208.412 189.953 204.706 190.889 203.196C195.044 196.508 199.548 190.02 204.352 183.781C205.613 182.147 208.333 179.851 210.479 180.712C212.425 181.498 212.4 184.605 212.6 186.626C212.974 190.045 212.725 193.539 212.725 198.455Z" fill="black"/>
<path d="M35.5928 120.507C41.2701 130.814 46.8226 140.721 52.2005 150.716C55.5445 156.942 53.7102 160.211 46.6978 160.311C33.6338 160.486 20.5573 160.535 7.49333 160.336C5.63417 160.311 2.48982 159.675 1.94081 157.691C1.49162 156.068 17.1385 128.955 21.0814 119.746C15.479 119.746 10.6127 120.021 5.80886 119.609C3.81245 119.434 0.193951 118.973 0.0067873 116.827C-0.180376 114.618 3.55042 113.108 5.37214 113.046C16.5645 112.709 27.7694 112.896 38.9742 112.909C42.9047 112.909 46.91 112.459 50.7531 113.046C52.6871 113.345 56.1808 114.618 56.1184 116.827C56.0436 119.085 52.4126 120.121 50.4037 120.358C45.7246 120.869 40.9582 120.507 35.5928 120.507ZM45.6622 153.211C39.5233 142.693 34.108 133.397 28.1437 123.165C23.2525 134.008 18.823 143.853 14.6055 153.211C24.4129 153.211 34.2827 153.211 45.6622 153.211Z" fill="black"/>
<path d="M12.0352 73.1797C22.3916 67.5024 32.1116 62.0747 41.9315 56.8216C48.7442 53.1782 51.6016 54.9001 51.664 62.4365C51.7638 74.8766 52.0259 87.3293 51.8761 99.7694C51.8512 102.09 51.7139 105.983 49.3557 106.719C47.4092 107.306 19.7214 91.3221 11.3739 87.8034C11.3739 93.3185 11.611 98.2222 11.2616 103.088C11.1244 104.985 10.8124 108.317 8.79107 108.641C6.64493 108.99 4.67347 105.584 4.51126 103.875C3.88738 97.2864 3.92482 90.6358 3.93729 84.0102C3.96225 75.3009 3.99968 66.5791 4.48631 57.8947C4.58613 56.1728 5.8838 52.9286 7.93012 52.8912C10.1511 52.8413 11.6235 56.2601 11.8481 58.1442C12.422 62.8358 12.0352 67.6397 12.0352 73.1797ZM44.7389 94.142C44.7389 84.3222 44.7389 74.4524 44.7389 63.1602C34.2328 69.2617 24.8996 74.6895 14.6555 80.6413C25.3613 85.4451 35.0938 89.8123 44.7389 94.142Z" fill="black"/>
<path d="M118.819 65.5186C113.204 60.3903 108.787 56.6221 104.707 52.5045C103.272 51.0446 101.413 48.1249 101.987 46.9894C102.898 45.1801 105.53 43.87 107.689 43.1837C110.184 42.3976 112.979 42.5224 116.997 42.1107C112.256 37.756 108.163 34.1999 104.295 30.4067C100.103 26.2766 100.726 23.7312 106.366 22.3088C109.96 21.4104 113.716 21.1858 118.944 20.4371C113.853 15.9577 109.423 12.4016 105.455 8.37131C104.108 6.99878 101.887 4.07902 103.247 2.44446C104.532 0.897244 107.751 2.38208 109.099 3.4801C115.063 8.29644 120.828 13.4122 126.405 18.6653C130.124 22.159 129.387 24.8043 124.471 26.1144C120.89 27.0627 117.159 27.462 112.318 28.3229C116.897 32.8273 121.027 36.6829 124.908 40.7631C129.038 45.0928 128.277 47.476 122.487 48.599C119.68 49.148 116.785 49.2728 112.53 49.7469C118.22 55.0624 123.286 59.5169 127.965 64.3457C129.624 66.0551 132.519 68.638 131.459 70.8839C130.498 72.9303 127.042 72.244 124.833 72.2814C106.391 72.5809 87.9369 72.8554 69.495 72.7431C67.3863 72.7306 63.144 71.4454 63.1814 68.9624C63.2188 66.679 67.1243 65.7182 69.1207 65.6808C85.0671 65.3938 101.001 65.5186 118.819 65.5186Z" fill="black"/>
<path d="M123.561 150.441C118.033 143.254 112.58 136.466 107.514 129.404C106.229 127.607 105.381 124.725 105.892 122.741C106.192 121.581 109.561 120.657 111.57 120.595C120.491 120.308 129.425 120.358 138.359 120.32C143.063 120.308 144.885 122.729 143.026 127.021C140.318 133.297 136.887 139.299 134.566 145.7C133.53 148.57 133.63 152.45 134.666 155.345C136.824 161.372 140.056 167.011 142.664 172.888C144.972 178.079 143.512 180.475 138.047 180.525C129.113 180.599 120.167 180.624 111.233 180.412C109.386 180.362 106.254 179.452 106.017 178.416C105.543 176.332 105.992 173.412 107.227 171.678C112.306 164.578 117.821 157.815 123.561 150.441ZM127.117 157.266C122.762 162.944 118.931 167.935 114.489 173.737C121.901 173.737 128.352 173.737 135.302 173.737C132.669 168.434 130.136 163.331 127.117 157.266ZM114.14 126.771C118.944 132.923 122.874 137.951 127.167 143.454C130.074 137.564 132.682 132.311 135.414 126.771C128.277 126.771 121.764 126.771 114.14 126.771Z" fill="black"/>
<path d="M67.6357 99.0455C65.7766 98.9332 62.2205 97.6979 62.2329 95.5143C62.2454 93.4555 65.5769 92.4324 67.3987 92.2327C72.3273 91.6837 77.3308 91.8085 82.2969 91.7711C96.7833 91.6588 111.27 91.4466 125.756 91.6463C127.865 91.6712 132.045 92.4448 132.032 94.8156C132.02 97.0865 128.027 97.7728 125.993 97.8227C113.803 98.1097 74.8602 99.4572 67.6357 99.0455Z" fill="black"/>
<path d="M70.1195 85.6697C68.8718 85.6697 67.4743 85.9442 66.4262 85.4701C64.9164 84.7838 62.321 84.2223 62.2836 82.5254C62.2462 80.816 64.8415 79.5932 66.2764 79.406C72.64 78.6074 79.0659 77.9586 85.4794 77.8837C98.9552 77.709 112.431 77.7964 125.907 78.1458C128.003 78.1957 132.071 79.0192 132.108 81.3775C132.158 83.7731 128.09 84.6591 125.919 84.8961C121.016 85.4327 83.7575 85.6822 70.1195 85.6697Z" fill="black"/>
<path d="M160.743 111.885C167.755 117.774 174.156 122.977 180.295 128.48C181.505 129.566 183.352 132.036 182.304 133.533C181.131 135.205 177.562 134.32 176.265 133.321C167.88 126.858 159.719 120.12 151.721 113.183C150.424 112.06 149.837 109.539 149.9 107.705C149.924 106.844 152.245 105.446 153.593 105.359C161.666 104.798 169.751 104.398 177.837 104.323C179.521 104.311 182.753 104.86 182.915 106.744C183.077 108.578 180.083 109.639 178.473 109.913C172.983 110.799 167.393 111.186 160.743 111.885Z" fill="black"/>
<path d="M26.9833 175.596C20.158 175.596 13.3328 175.72 6.50757 175.508C4.9354 175.458 2.27768 175.234 1.85344 173.612C1.37929 171.777 3.94967 169.644 5.37211 169.319C9.14034 168.471 13.1332 168.346 17.0262 168.296C27.969 168.171 38.9243 168.109 49.8547 168.383C51.639 168.433 54.9954 169.382 55.1327 171.44C55.2824 173.674 51.7263 175.358 49.9046 175.471C42.2808 175.932 34.6071 175.658 26.9583 175.658C26.9833 175.633 26.9833 175.62 26.9833 175.596Z" fill="black"/>
<path d="M63.0934 7.62264C63.1433 6.20019 63.9543 3.54247 65.6014 3.44265C67.2609 3.34283 68.6085 6.02551 68.6334 7.34813C68.883 23.3319 68.9329 39.3157 68.7582 55.2994C68.7457 56.5222 67.2359 59.0552 65.6014 58.9429C63.7547 58.8181 62.6816 55.9108 62.6192 54.3262C62.3073 46.4528 62.8438 15.2963 63.0934 7.62264Z" fill="black"/>
<path d="M82.6712 31.068C82.6712 38.5171 82.8958 45.9787 82.5089 53.4028C82.4091 55.2869 81.3735 59.0177 79.2024 58.9179C77.1935 58.8181 76.632 55.3493 76.6071 53.5401C76.37 38.4422 76.3201 23.3444 76.5322 8.2465C76.5571 6.62441 77.7425 3.35529 79.689 3.44263C81.7104 3.52998 82.484 6.92388 82.5713 8.73312C82.8957 16.1698 82.7086 23.6313 82.7086 31.068C82.6961 31.068 82.6836 31.068 82.6712 31.068Z" fill="black"/>
<path d="M88.9724 9.71912C89.0597 7.61041 89.1346 3.65502 91.3681 3.49281C93.7513 3.30565 94.712 7.54802 94.8368 9.68169C95.311 17.3429 95.3734 46.8648 95.0115 53.9147C94.9242 55.6491 93.8137 58.9806 91.8048 58.9556C89.8333 58.9307 88.8226 55.6615 88.7478 53.9521C88.4109 46.2784 88.6604 16.7689 88.9724 9.71912Z" fill="black"/>
<path d="M179.172 24.8414C180.458 24.9038 182.741 26.1142 182.928 27.1997C183.115 28.2728 181.481 30.0446 180.32 30.7059C178.973 31.4795 177.139 31.6292 175.504 31.6542C165.335 31.8414 155.166 32.1283 145.009 31.8663C143 31.8164 138.932 30.0321 139.057 28.2977C139.182 26.6382 142.975 25.7024 145.059 25.4528C150.611 24.7915 156.226 24.7291 161.816 24.4297C161.816 24.542 173.395 24.5919 179.172 24.8414Z" fill="black"/>
<path d="M178.287 1.28389C179.934 1.39619 182.841 2.1698 183.066 4.004C183.29 5.88811 180.408 7.7847 179.011 7.82214C166.982 8.24637 154.941 8.32124 142.901 8.22142C141.79 8.20894 139.569 6.72411 139.606 5.21432C139.644 3.51738 142.114 2.06998 143.45 1.99511C149.851 1.65822 173.121 0.934518 178.287 1.28389Z" fill="black"/>
<path d="M144.198 20.3C142.339 20.1378 138.845 18.2537 138.883 16.6441C138.92 15.1343 142.314 13.5247 144.061 13.4873C155.478 13.2627 166.895 13.3375 178.299 13.6495C179.909 13.6994 183.078 15.1468 183.066 16.5318C183.041 18.054 179.622 19.489 177.8 19.6262C172.235 20.0505 149.763 20.7991 144.198 20.3Z" fill="black"/>
<path d="M154.593 137.826C156.003 138.75 157.275 139.423 158.348 140.334C165.922 146.71 173.534 153.074 180.933 159.649C182.018 160.61 183.566 162.919 182.617 164.291C181.594 165.788 178.325 165.239 177.289 164.378C169.029 157.541 161.006 150.404 153.008 143.241C152.234 142.555 151.585 140.995 151.835 140.11C152.085 139.199 153.532 138.637 154.593 137.826Z" fill="black"/>
<path d="M154.767 122.716C156.501 122.716 157.449 124.425 158.535 125.336C165.947 131.612 173.408 137.826 180.633 144.314C181.83 145.388 183.665 147.958 182.542 149.418C181.319 151.002 177.925 149.855 176.665 148.819C168.717 142.231 161.03 135.318 153.369 128.381C152.483 127.582 151.859 125.935 151.984 124.787C152.059 124.026 153.481 122.716 154.767 122.716Z" fill="black"/>
<path d="M163.551 93.2556C168.742 93.006 173.92 92.5943 179.098 92.6192C180.396 92.6192 182.792 93.2556 182.979 94.7404C183.191 96.3625 180.72 97.9347 179.473 98.0345C171 98.7208 162.491 99.1201 153.981 99.2573C152.633 99.2823 149.963 98.2591 149.888 96.6121C149.813 94.7654 152.621 93.5426 154.218 93.2681C157.237 92.7315 160.432 93.1059 163.551 93.1059C163.551 93.1558 163.551 93.2057 163.551 93.2556Z" fill="black"/>
<path d="M166.084 87.0295C162.365 87.0295 158.622 87.304 154.966 86.9048C153.332 86.7301 150.399 86.0438 150.299 84.2346C150.187 82.3879 153.194 81.0777 154.717 80.9904C162.74 80.5537 170.788 80.4788 178.823 80.6285C180.233 80.6535 182.978 81.5394 183.003 83.1989C183.028 85.0331 180.071 85.9565 178.436 86.1935C174.369 86.78 170.214 86.6926 166.096 86.8673C166.071 86.9172 166.084 86.9796 166.084 87.0295Z" fill="black"/>
<path d="M125.232 0.123395C127.877 0.0610074 128.888 3.50482 128.826 4.7401C128.763 5.93794 126.642 7.89692 125.382 7.93435C124.147 7.97179 121.95 6.0752 121.851 4.88983C121.751 3.64207 122.587 0.185783 125.232 0.123395Z" fill="black"/>
</svg>
