<svg viewBox="0 0 276 222" fill="none" xmlns="http://www.w3.org/2000/svg"><path d="M91.343 145.837c0-6.526-.237-12.94.138-19.328.112-2.021.648-5.84 2.857-5.902 2.146-.075 3.007 3.643 3.132 5.553.4 6.388.15 12.826.15 19.689 4.691.362 8.634.287 12.39 1.111 1.797.399 5.128 1.747 4.829 3.793-.287 1.996-3.669 2.034-5.59 2.258-3.232.375-6.526.1-10.082.1 0 8.148-.637 15.822.187 23.346.736 6.675-2.021 8.06-7.611 7.536-.999-.1-2.022.15-3.344.275 0 8.821-.138 17.481.124 26.14.05 1.597.799 4.754 2.633 4.729 1.81-.025 2.358-3.132 2.496-4.779.436-5.378.162-10.805.648-16.183.15-1.66.961-4.754 2.82-4.754 1.91 0 2.82 3.182 2.908 4.841.337 6.601.137 13.226.137 20.738h52.668c0-11.642.287-22.397-.125-33.116-.212-5.452 1.934-7.037 6.888-6.713 3.631.238 7.287.05 12.764.05-6.9-6.026-12.54-10.768-17.93-15.784-1.248-1.173-3.456-3.444-2.396-4.953 1.136-1.622 4.555-.45 5.827.574 7.786 6.226 15.335 12.739 22.797 19.352 1.173 1.036 2.371 3.382 1.946 4.542-.449 1.223-2.782 2.371-4.342 2.446-6.176.274-12.365.112-18.142.112 0 11.879-.225 22.822.112 33.739.137 4.567-1.023 6.289-5.827 6.277-25.092-.05-50.185.212-75.277.287-8.934.025-10.107-1.211-10.332-9.995-.124-5.191-.499-10.406-.1-15.547.125-1.61 1.735-4.791 3.719-4.554 1.76.212 2.158 3.107 2.32 4.754.6 5.951.787 11.941 1.161 18.292 1.884.237 3.668.461 5.627.711v-30.77c-.648-.387-.81-.561-.973-.574-13.164-.911-13.3-.898-13.75-14.124-.5-14.736-.824-29.485-.923-44.233-.013-1.785.81-5.341 2.87-5.391 1.884-.049 2.645 3.107 2.87 4.817.873 6.55 1.297 13.151 1.92 20.139 1.598.099 3.17.199 4.942.312.187-1.011.462-1.785.474-2.571.1-6.027-.062-12.066.387-18.055.112-1.522 1.372-4.467 3.207-4.367 1.834.1 2.645 3.082 2.757 4.716.4 5.578.4 11.205.262 16.808-.15 4.379 2.022 4.679 5.777 3.656zM80.4 176.444c-.499-8.073-.948-15.572-1.41-23.071-.486-.374-.835-1.173-1.46-1.135-2.07.124-4.117 2.832-4.23 4.392-.473 6.513-.199 13.076-.199 19.814h7.3zm11.318.15c0-7.262.174-14.212-.2-21.112-.05-.948-2.782-1.76-4.854-2.957 0 7.811.013 13.975 0 20.138-.012 4.006 2.022 4.879 5.054 3.931zM197.165 70.21h8.959c0-4.779-.262-9.483.137-14.137.15-1.797.786-5.166 2.77-5.19 1.784-.026 2.408 3.006 2.62 4.64.624 4.692.724 9.459 1.061 14.6 1.896.15 3.668.274 6.251.474 0-5.29-.249-10.207.137-15.073.138-1.784.799-5.178 2.77-5.166 2.009.013 2.72 3.481 2.783 5.266.424 13.688.424 27.388.724 41.088.449 20.326 1.035 40.652 1.572 60.991.025.836-.013 1.672.1 2.483 1.547 11.666 1.559 11.691-10.569 11.666-6.226-.012-12.453-.162-18.679-.174-4.28 0-5.989-1.373-5.977-6.289.063-28.848-.287-57.709-.624-86.557-.087-7.798-.798-15.584-.736-23.37.013-1.96.749-5.815 2.957-5.853 2.034-.024 2.633 3.457 2.87 5.316.587 4.891.599 9.857.874 15.285zm10.007 94.917V92.133h-8.597v72.27c3.169.262 5.802.487 8.597.724zm7.312-72.445c0 23.495-.1 46.242.212 68.989.025 1.534 3.069 3.019 4.704 4.541 0-24.206-.013-46.978.012-69.75.013-4.491-2.558-4.466-4.928-3.78zm-8.261-7.898v-7.45h-8.809c.125 2.484.225 4.48.35 6.826 2.895.212 5.477.4 8.459.624zm12.59 1.235v-8.772h-5.976v8.148c2.083.212 3.705.374 5.976.624zM145.16 75.625c0 10.644-.163 20.775.074 30.907.1 4.355-1.647 6.039-5.777 6.064-21.736.162-43.472.375-65.207.574-2.072.013-4.255.399-6.202-.112-1.51-.399-4.03-1.235-4.08-2.92-.05-1.809 2.695-3.281 4.142-3.369a595.581 595.581 0 0 1 29.884-1.11c13.276-.163 26.565-.038 41.076-.038V78.607c-.012-10.032.225-10.269 9.982-10.43 1.61-.026 3.207-.163 6.077-.325-5.765-7.163-11.068-13.439-15.959-20.014-1.647-2.209-4.579-5.253-3.344-7.811 1.248-2.583 5.503-2.196 8.273-2.246 10.381-.2 20.775.025 31.169.125 6.226.062 7.886 2.582 4.804 8.122-3.918 7.038-8.348 13.8-13.027 21.424 4.03.188 7.624.088 11.13.624 1.71.262 4.742.774 4.841 2.62.1 1.86-2.957 3.033-4.541 3.157-9.521.737-19.079 1.061-28.624 1.523-1.248.05-2.483.124-4.691.25zm15.671-12.565 11.143-18.33h-26.041c5.091 6.29 9.608 11.83 14.898 18.33zm90.014-48.288c-.387 6.688-.337 12.028-1.123 17.244-.424 2.782-.711 7.187-3.519 8.01-2.957.862-5.789-2.844-7.636-5.115-5.478-6.75-10.169-14.125-15.335-21.125-.1.038-.1.038-.2.063-.087 6.762.2 13.55-.112 20.313-.1 2.047.025 5.216-1.934 6.077-2.121.923-4.804-1.385-6.214-2.97-5.889-6.563-11.404-13.476-17.294-20.55 0 6.85.275 13.176-.162 19.44-.137 1.909-1.223 5.49-3.406 5.515-2.072.037-3.294-3.357-3.382-5.104a296.222 296.222 0 0 1-.087-24.917c.075-1.96 1.684-5.228 2.995-5.44 2.046-.337 5.053.823 6.563 2.395 4.005 4.18 7.461 8.897 11.067 13.439 1.385 1.746 2.608 3.63 5.515 5.24 0-5.04-.249-10.094.113-15.11.162-2.221 1.659-6.214 2.42-6.177 2.82.113 6.389.786 8.211 2.658 4.729 4.916 8.672 10.581 12.939 15.934.474.586.998 1.135 2.433 2.733.437-7.15.574-13.065 1.285-18.904.237-1.934 1.635-4.829 3.082-5.24 1.61-.45 4.467.923 5.752 2.395 5.178 5.94 9.957 12.228 16.184 20.002 0-6.264-.362-10.868.149-15.373.275-2.42.587-7 3.157-6.987 2.346.012 2.645 4.205 2.845 6.413.612 7.025.948 14.1.824 21.137-.05 2.358-.412 6.202-2.808 7.038-2.146.748-4.467-1.772-5.889-3.37-5.353-6.001-10.344-12.302-16.433-19.664zM47.372.697c3.643.063 6.538 1.198 6.65 5.665.275 11.005.786 22.01.899 33.016.062 6.45-2.209 7.836-8.51 7.823-12.615-.037-25.242.624-37.857.5-1.76-.013-4.966-2.883-4.978-4.455-.188-13.077.012-26.166.723-39.205.075-1.46 4.018-3.643 6.326-3.868 5.765-.561 30.308.412 36.747.524zm-36.834 26.64v11.33h37.021v-11.33H10.538zM47.035 8.633H10.55V19.29c9.283 0 18.317-.1 27.35.025 10.27.15 10.27.237 9.134-10.68zm165.69 189.822c4.829-5.44 8.522-9.932 12.602-14.025 1.348-1.36 4.205-2.783 5.503-2.209 1.497.662 2.495 3.407 2.87 5.403.474 2.533.112 5.228.112 8.897 3.444-4.829 6.039-8.997 9.233-12.64 1.236-1.41 3.918-2.371 5.74-2.121.998.137 2.109 3.169 2.283 4.978.35 3.669.1 7.4.1 12.029 4.218-4.692 8.136-9.334 12.403-13.613 1.335-1.348 4.093-2.77 5.428-2.221 1.447.586 2.745 3.394 2.795 5.265.174 6.626-.05 13.289-.537 19.902-.1 1.273-1.522 3.693-3.157 3.618-1.622-.062-2.732-2.508-2.845-3.868-.361-4.529-.137-9.108-.137-14.848-4.642 5.241-8.572 10.032-12.927 14.412-1.484 1.484-4.13 2.72-6.051 2.483-1.073-.138-2.234-3.469-2.471-5.466-.337-2.832.137-5.752.337-10.443-3.88 5.665-6.675 10.119-9.895 14.249-1.085 1.398-3.107 3.469-4.928 2.882-1.81-.586-2.159-3.406-2.309-5.19-.349-4.118-.112-8.273-.112-13.463-4.417 5.003-8.36 9.794-12.702 14.199-1.472 1.485-4.467 3.169-5.852 2.583-1.572-.661-2.67-3.681-2.945-5.815-.362-2.807.275-5.739.587-10.194-3.669 5.303-6.376 9.683-9.596 13.663-1.123 1.385-3.568 3.644-5.253 2.62-1.834-1.11-1.048-4.816-.112-6.326a235.919 235.919 0 0 1 13.463-19.415c1.261-1.634 3.981-3.93 6.127-3.069 1.946.786 1.921 3.893 2.121 5.914.374 3.419.125 6.913.125 11.829zM35.593 120.507c5.677 10.307 11.23 20.214 16.607 30.209 3.344 6.226 1.51 9.495-5.502 9.595-13.064.175-26.14.224-39.205.025-1.859-.025-5.003-.661-5.552-2.645-.45-1.623 15.198-28.736 19.14-37.945-5.602 0-10.468.275-15.272-.137-1.997-.175-5.615-.636-5.802-2.782-.187-2.209 3.543-3.719 5.365-3.781 11.192-.337 22.397-.15 33.602-.137 3.93 0 7.936-.45 11.78.137 1.933.299 5.427 1.572 5.364 3.781-.074 2.258-3.705 3.294-5.714 3.531-4.68.511-9.446.149-14.811.149zm10.07 32.704c-6.14-10.518-11.555-19.814-17.52-30.046-4.89 10.843-9.32 20.688-13.538 30.046h31.057zM12.035 73.18c10.357-5.678 20.077-11.105 29.896-16.358 6.813-3.644 9.67-1.922 9.733 5.614.1 12.44.362 24.893.212 37.333-.025 2.321-.162 6.214-2.52 6.95-1.947.587-29.635-15.397-37.982-18.916 0 5.516.237 10.42-.112 15.285-.138 1.897-.45 5.229-2.47 5.553-2.147.349-4.119-3.057-4.28-4.766-.625-6.589-.587-13.24-.575-19.865.025-8.71.063-17.43.55-26.115.1-1.722 1.397-4.966 3.443-5.004 2.221-.05 3.694 3.37 3.918 5.253.574 4.692.187 9.496.187 15.036zM44.74 94.142V63.16C34.234 69.262 24.9 74.69 14.657 80.641c10.705 4.804 20.438 9.171 30.083 13.501z" fill="#000"/><path d="M118.819 65.519c-5.615-5.129-10.032-8.897-14.112-13.015-1.435-1.46-3.294-4.38-2.72-5.515.911-1.809 3.543-3.119 5.702-3.805 2.495-.786 5.29-.662 9.308-1.073-4.741-4.355-8.834-7.911-12.702-11.704-4.192-4.13-3.569-6.676 2.071-8.098 3.594-.899 7.35-1.123 12.578-1.872-5.091-4.48-9.521-8.035-13.489-12.066-1.347-1.372-3.568-4.292-2.208-5.927 1.285-1.547 4.504-.062 5.852 1.036 5.964 4.816 11.729 9.932 17.306 15.185 3.719 3.494 2.982 6.14-1.934 7.45-3.581.948-7.312 1.347-12.153 2.208 4.579 4.504 8.709 8.36 12.59 12.44 4.13 4.33 3.369 6.713-2.421 7.836-2.807.549-5.702.674-9.957 1.148 5.69 5.315 10.756 9.77 15.435 14.599 1.659 1.71 4.554 4.292 3.494 6.538-.961 2.046-4.417 1.36-6.626 1.397-18.442.3-36.896.574-55.338.462-2.109-.012-6.351-1.298-6.314-3.78.038-2.284 3.943-3.245 5.94-3.282 15.946-.287 31.88-.162 49.698-.162zm4.742 84.922c-5.528-7.187-10.981-13.975-16.047-21.037-1.285-1.797-2.133-4.679-1.622-6.663.3-1.16 3.669-2.084 5.678-2.146 8.921-.287 17.855-.237 26.789-.275 4.704-.012 6.526 2.409 4.667 6.701-2.708 6.276-6.139 12.278-8.46 18.679-1.036 2.87-.936 6.75.1 9.645 2.158 6.027 5.39 11.666 7.998 17.543 2.308 5.191.848 7.587-4.617 7.637-8.934.074-17.88.099-26.814-.113-1.847-.05-4.979-.96-5.216-1.996-.474-2.084-.025-5.004 1.21-6.738 5.079-7.1 10.594-13.863 16.334-21.237zm3.556 6.825c-4.355 5.678-8.186 10.669-12.628 16.471h20.813c-2.633-5.303-5.166-10.406-8.185-16.471zm-12.977-30.495c4.804 6.152 8.734 11.18 13.027 16.683 2.907-5.89 5.515-11.143 8.247-16.683H114.14zM67.636 99.046c-1.86-.113-5.415-1.348-5.403-3.532.012-2.058 3.344-3.082 5.166-3.281 4.928-.55 9.932-.425 14.898-.462 14.486-.112 28.973-.324 43.459-.125 2.109.025 6.289.799 6.276 3.17-.012 2.27-4.005 2.957-6.039 3.007-12.19.287-51.133 1.634-58.357 1.223zM70.12 85.67c-1.248 0-2.646.274-3.694-.2-1.51-.686-4.105-1.248-4.142-2.945-.038-1.709 2.557-2.932 3.992-3.119 6.364-.799 12.79-1.447 19.203-1.522 13.476-.175 26.952-.088 40.428.262 2.096.05 6.164.873 6.201 3.231.05 2.396-4.018 3.282-6.189 3.52-4.903.536-42.162.785-55.8.773zm90.623 26.215c7.012 5.889 13.413 11.092 19.552 16.595 1.21 1.086 3.057 3.556 2.009 5.053-1.173 1.672-4.742.787-6.039-.212-8.385-6.463-16.546-13.201-24.544-20.138-1.297-1.123-1.884-3.644-1.821-5.478.024-.861 2.345-2.259 3.693-2.346 8.073-.561 16.158-.961 24.244-1.036 1.684-.012 4.916.537 5.078 2.421.162 1.834-2.832 2.895-4.442 3.169-5.49.886-11.08 1.273-17.73 1.972zm-133.76 63.711c-6.825 0-13.65.124-20.475-.088-1.573-.05-4.23-.274-4.655-1.896-.474-1.835 2.097-3.968 3.52-4.293 3.767-.848 7.76-.973 11.653-1.023 10.943-.125 21.898-.187 32.829.087 1.784.05 5.14.999 5.278 3.057.15 2.234-3.407 3.918-5.228 4.031-7.624.461-15.298.187-22.947.187.025-.025.025-.038.025-.062zM63.093 7.623c.05-1.423.861-4.08 2.508-4.18 1.66-.1 3.008 2.583 3.032 3.905.25 15.984.3 31.968.125 47.951-.012 1.223-1.522 3.756-3.157 3.644-1.846-.125-2.92-3.032-2.982-4.617-.312-7.873.225-39.03.474-46.703z" fill="#000"/><path d="M82.671 31.068c0 7.45.225 14.91-.162 22.335-.1 1.884-1.135 5.615-3.307 5.515-2.008-.1-2.57-3.569-2.595-5.378-.237-15.098-.287-30.196-.075-45.294.025-1.622 1.21-4.89 3.157-4.803 2.021.087 2.795 3.48 2.882 5.29.325 7.437.138 14.898.138 22.335h-.038zM88.972 9.72c.088-2.11.163-6.065 2.396-6.227 2.383-.187 3.344 4.055 3.469 6.189.474 7.66.536 37.183.174 44.233-.087 1.734-1.197 5.066-3.206 5.04-1.972-.024-2.982-3.294-3.057-5.003-.337-7.674-.088-37.183.224-44.233zm90.2 15.121c1.286.063 3.569 1.273 3.756 2.359.187 1.073-1.447 2.845-2.608 3.506-1.347.774-3.181.923-4.816.948-10.169.187-20.338.474-30.495.212-2.009-.05-6.077-1.834-5.952-3.568.125-1.66 3.918-2.596 6.002-2.845 5.552-.662 11.167-.724 16.757-1.023 0 .112 11.579.162 17.356.411zm-.885-23.557c1.647.112 4.554.886 4.779 2.72.224 1.884-2.658 3.78-4.055 3.818-12.029.424-24.07.5-36.11.4-1.111-.013-3.332-1.498-3.295-3.008.038-1.697 2.508-3.144 3.844-3.219 6.401-.337 29.671-1.06 34.837-.711zM144.198 20.3c-1.859-.162-5.353-2.046-5.315-3.656.037-1.51 3.431-3.12 5.178-3.157 11.417-.224 22.834-.15 34.238.162 1.61.05 4.779 1.498 4.767 2.883-.025 1.522-3.444 2.957-5.266 3.094-5.565.424-28.037 1.173-33.602.674zm10.395 117.526c1.41.924 2.682 1.597 3.755 2.508 7.574 6.376 15.186 12.74 22.585 19.315 1.085.961 2.633 3.27 1.684 4.642-1.023 1.497-4.292.948-5.328.087-8.26-6.837-16.283-13.974-24.281-21.137-.774-.686-1.423-2.246-1.173-3.131.25-.911 1.697-1.473 2.758-2.284zm.174-15.11c1.734 0 2.682 1.709 3.768 2.62 7.412 6.276 14.873 12.49 22.098 18.978 1.197 1.074 3.032 3.644 1.909 5.104-1.223 1.584-4.617.437-5.877-.599-7.948-6.588-15.635-13.501-23.296-20.438-.886-.799-1.51-2.446-1.385-3.594.075-.761 1.497-2.071 2.783-2.071zm8.784-29.46c5.191-.25 10.369-.662 15.547-.637 1.298 0 3.694.637 3.881 2.121.212 1.623-2.259 3.195-3.506 3.294a394.68 394.68 0 0 1-25.492 1.223c-1.348.025-4.018-.998-4.093-2.645-.075-1.847 2.733-3.07 4.33-3.344 3.019-.537 6.214-.162 9.333-.162v.15zm2.533-6.226c-3.719 0-7.462.274-11.118-.125-1.634-.175-4.567-.861-4.667-2.67-.112-1.847 2.895-3.157 4.418-3.245 8.023-.436 16.071-.511 24.106-.361 1.41.024 4.155.91 4.18 2.57.025 1.834-2.932 2.758-4.567 2.995-4.067.586-8.222.499-12.34.673-.025.05-.012.113-.012.162zM125.232.123c2.645-.062 3.656 3.382 3.594 4.617-.063 1.198-2.184 3.157-3.444 3.194-1.235.038-3.432-1.859-3.531-3.044-.1-1.248.736-4.704 3.381-4.767z" fill="#000"/></svg>