<svg xmlns="http://www.w3.org/2000/svg" width="1078" height="104" fill="none" viewBox="0 0 1078 104"><path fill="#FBF4A0" d="M121.9 69.8609C114.8 76.5609 108.2 83.6609 103.1 92.0609V92.1609C102.5 92.2609 102.2 92.5609 102.1 93.1609H102C101.4 93.1609 101.1 93.5609 101 94.1609L100.9 94.2609C99.9 94.2609 98.9 94.3609 97.9 94.3609H97.7C97.3 93.4609 97 92.4609 95.9 92.1609C95.6 90.3609 94.4 89.4609 92.8 88.9609C88.8 85.9609 85.3 82.4609 82.4 78.3609C80.5 75.6609 78.4 73.1609 75.9 71.0609C75.4 70.3609 74.9 69.7609 74.4 69.0609C74.4 68.5609 74.1 68.3609 73.6 68.3609C73 67.1609 72.4 66.0609 71.9 64.7609C71.4 63.6609 70.8 62.7609 69.3 62.8609C69 62.6609 68.8 62.5609 68.4 62.6609C66.9 61.7609 65.5 61.2609 65.1 63.7609L65 63.8609C64.2 66.7609 62.5 69.1609 60.5 71.3609C58.1 73.9609 55.8 76.4609 53.4 78.9609C48.8 83.6609 44.3 88.5609 38.8 92.2609C38.5 92.5609 38.4 92.8609 38.5 93.2609C36.8 94.2609 36.1 95.861 35.4 97.561C34.9 98.861 35.2 99.8609 36.6 100.361C38.8 98.9609 40.9 97.561 41.2 94.561C42.9 93.161 44.7 91.7609 46.3 90.1609C53.2 83.3609 60.4 76.9609 66.2 69.1609C67.8 67.5609 69.5 67.7609 71.1 69.1609C71.5 69.4609 71.9 69.7609 72.4 70.1609C72.5 70.7609 72.8 71.0609 73.4 71.1609H73.5C73.6 71.7609 73.9 72.0609 74.5 72.2609V72.3609C74.6 75.4609 77.4 76.5609 79 78.5609C81.8 82.261 84.3 86.3609 88.2 89.0609H88.3C88.6 89.4609 88.9 89.7609 89.1 90.1609C89.3 90.9609 89.4 91.7609 90.3 92.1609C90.3 92.7609 90.6 93.1609 91.2 93.3609C91.4 94.7609 92.2 95.6609 93.6 96.1609C95 97.2609 96.5 98.1609 94.5 100.161C93.7 100.961 93.1 102.461 94.3 103.361C95.4 104.161 96.6 103.061 97.4 102.261C99 100.761 100.5 99.0609 102.1 97.4609C103.2 96.6609 103.9 95.6609 104.1 94.2609C104.7 94.1609 105.1 93.8609 105.1 93.2609L105.2 93.1609C111.1 86.1609 117.1 79.0609 123 72.0609C124.4 71.0609 125.7 69.9609 126.6 68.3609C127.6 66.7609 129.2 66.1609 131.1 66.9609C133 70.5609 136.5 72.8609 138.8 76.1609C142 80.5609 146.8 83.5609 149.4 88.5609C150.3 89.3609 151.3 90.261 152.2 91.0609C152.4 91.6609 152.5 92.1609 152.7 92.7609C153.1 93.0609 153.4 93.4609 153.8 93.7609C156.2 93.9609 158.4 97.4609 161 94.1609C162.8 92.3609 163.7 89.8609 166 88.5609C168.6 85.3609 172 83.1609 175.5 81.1609C175.9 80.8609 176.3 80.5609 176.6 80.1609C181.2 76.3609 185.9 72.6609 190.5 68.8609C192.7 68.8609 193.8 70.5609 194.9 71.9609C198.1 75.9609 201.2 80.1609 204.3 84.1609C204.6 84.5609 205 84.9609 205.3 85.2609C207.1 86.0609 208 87.761 209.3 89.0609C211.3 91.1609 212.9 93.5609 215.6 94.8609C216.5 96.7609 217.9 97.8609 220 97.6609C220.3 97.6609 220.9 97.061 220.9 96.561C221.3 94.1609 219.5 93.3609 217.8 92.4609C211.6 86.1609 205.2 79.861 199.6 73.0609C197.7 70.7609 196.4 68.0609 193.8 66.3609C193.7 65.1609 192.8 64.3609 192.2 63.4609C191.5 63.5609 190.7 63.5609 190.4 64.3609C184.2 69.8609 177.8 75.2609 171.1 80.1609C166.9 83.2609 161.5 85.4609 159 90.6609C157.1 90.8609 156.2 89.1609 154.8 88.5609C154.7 87.9609 154.3 87.6609 153.7 87.5609C147.5 79.1609 139.9 71.8609 132.8 64.2609C132.3 63.0609 131.5 62.4609 130 62.6609C125.7 63.4609 123.7 66.4609 121.9 69.8609ZM95.8 94.1609C95.7 94.1609 95.6 94.1609 95.5 94.061C95.6 94.061 95.7 94.061 95.8 94.061V94.1609Z"/><path fill="#FBF4A0" d="M20.1 84.661C21.1 86.761 22.8 88.261 24.3 89.961C24.7 90.861 25.3 91.461 26.3 91.261C26.4 91.761 26.7 92.061 27.2 92.261C28 93.161 28.7 94.161 29.6 94.961C30.6 95.961 31.8 96.861 33.1 95.361C34.4 93.761 33.7 92.561 32.1 91.661C31.7 91.461 31.2 91.161 30.8 90.861C30.3 89.961 29.5 89.361 28.6 88.961C28.6 88.861 28.7 88.661 28.7 88.561C27.4 85.761 25.2 83.661 23 81.661C21 79.861 18.7 78.261 17.7 75.661C14.9 70.961 10.6 67.561 7.40002 63.261C6.50002 62.061 5.10002 61.161 3.30002 61.861V61.761C2.80002 61.961 2.50002 62.361 2.20002 62.861C1.20002 67.361 5.80002 67.561 7.50002 70.061C7.70002 71.161 8.40002 71.861 9.50002 72.161C10.6 73.561 10.8 75.561 12.7 76.361C13 76.861 13.3 77.161 13.8 77.461C15.1 79.961 17.5 81.561 19.1 83.761H19C19.3 84.061 19.6 84.461 20.1 84.661Z"/><path fill="#FBF4A0" d="M633.1 62.9611C628.8 63.3611 626.8 66.4611 625 69.7611C617.9 76.4611 611.3 83.5611 606.2 91.9611V92.0611C605.6 92.1611 605.3 92.4611 605.2 93.0611H605.1C604.5 93.0611 604.2 93.4611 604.1 94.0611L604 94.1611C603 94.1611 602 94.2611 601 94.2611H600.8C600.4 93.3611 600.1 92.3611 599 92.0611C598.7 90.2611 597.5 89.3611 595.9 88.8611C591.9 85.8611 588.4 82.3611 585.5 78.2611C583.6 75.5611 581.5 73.0611 579 70.9611C578.5 70.2611 578 69.6611 577.5 68.9611C577.5 68.4611 577.2 68.2611 576.7 68.2611C576.1 67.0611 575.5 65.9611 575 64.6611C574.5 63.5611 573.9 62.6611 572.4 62.7611C572.1 62.5611 571.9 62.4611 571.5 62.5611C570 61.6611 568.6 61.1611 568.2 63.6611L568.1 63.7611C567.3 66.6611 565.6 69.0611 563.6 71.2611C561.2 73.8611 558.9 76.3611 556.5 78.8611C551.9 83.5611 547.4 88.4611 541.9 92.1611C541.6 92.4611 541.5 92.7611 541.6 93.1611C539.9 94.1611 539.2 95.7611 538.5 97.4611C538 98.7611 538.3 99.7611 539.7 100.261C541.9 98.8611 544 97.4611 544.3 94.4611C546 93.0611 547.8 91.6611 549.4 90.0611C556.3 83.2611 563.5 76.8611 569.3 69.0611C570.9 67.4611 572.6 67.6611 574.2 69.0611C574.6 69.3611 575 69.6611 575.5 70.0611C575.6 70.6611 575.9 70.9611 576.5 71.0611H576.6C576.7 71.6611 577 71.9611 577.6 72.1611V72.2611C577.7 75.3611 580.5 76.4611 582.1 78.4611C584.9 82.1611 587.4 86.2611 591.3 88.9611H591.4C591.7 89.3611 592 89.6611 592.2 90.0611C592.4 90.8611 592.5 91.6611 593.4 92.0611C593.4 92.6611 593.7 93.0611 594.3 93.2611C594.5 94.6611 595.3 95.5611 596.7 96.0611C598.1 97.1611 599.6 98.0611 597.6 100.061C596.8 100.861 596.2 102.361 597.4 103.261C598.5 104.061 599.7 102.961 600.5 102.161C602.1 100.661 603.6 98.9611 605.2 97.3611C606.3 96.5611 607 95.5611 607.2 94.1611C607.8 94.0611 608.2 93.7611 608.2 93.1611L608.3 93.0611C614.2 86.0611 620.2 78.9611 626.1 71.9611C627.5 70.9611 628.8 69.8611 629.7 68.2611C630.7 66.6611 632.3 66.0611 634.2 66.8611C636.1 70.4611 639.6 72.7611 641.9 76.0611C645.1 80.4611 649.9 83.4611 652.5 88.4611C653.4 89.2611 654.4 90.1611 655.3 90.9611C655.5 91.5611 655.6 92.0611 655.8 92.6611C656.2 92.9611 656.5 93.3611 656.9 93.6611C659.3 93.8611 661.5 97.3611 664.1 94.0611C665.9 92.2611 666.8 89.7611 669.1 88.4611C671.7 85.2611 675.1 83.0611 678.6 81.0611C679 80.7611 679.4 80.4611 679.7 80.0611C684.3 76.2611 689 72.5611 693.6 68.7611C695.8 68.7611 696.9 70.4611 698 71.8611C701.2 75.8611 704.3 80.0611 707.4 84.0611C707.7 84.4611 708.1 84.8611 708.4 85.1611C710.2 85.9611 711.1 87.6611 712.4 88.9611C714.4 91.0611 716 93.4611 718.7 94.7611C719.6 96.6611 721 97.7611 723.1 97.5611C723.4 97.5611 724 96.9611 724 96.4611C724.4 94.0611 722.6 93.2611 720.9 92.3611C714.7 86.0611 708.3 79.7611 702.7 72.9611C700.8 70.6611 699.5 67.9611 696.9 66.2611C696.8 65.0611 695.9 64.2611 695.3 63.3611C694.6 63.4611 693.8 63.4611 693.5 64.2611C687.3 69.7611 680.9 75.1611 674.2 80.0611C670 83.1611 664.6 85.3611 662.1 90.5611C660.2 90.7611 659.3 89.0611 657.9 88.4611C657.8 87.8611 657.4 87.5611 656.8 87.4611C650.6 79.0611 643 71.7611 635.9 64.1611C635.3 63.3611 634.5 62.8611 633.1 62.9611ZM598.9 94.1611C598.8 94.1611 598.7 94.1611 598.6 94.0611C598.7 94.0611 598.8 94.0611 598.9 94.0611V94.1611Z"/><path fill="#FBF4A0" d="M377 66.7609C376.5 67.4609 376.1 68.1609 375.7 68.8609C375.4 69.2609 375 69.5609 374.7 69.9609C371.6 72.4609 368.4 74.9609 365.4 77.5609C360.5 81.7609 355.7 86.0609 350.7 90.1609C349.2 91.3609 347.5 93.2609 345.3 90.9609C344.6 90.2609 343.9 89.5609 343.2 88.8609C343.1 88.3609 342.7 87.9609 342.2 87.8609V87.7609C339.5 84.1609 336.2 81.1609 332.7 78.3609C328.2 73.6609 324.3 68.4609 319.1 64.4609C318.5 63.6609 317.8 63.2609 316.9 63.6609C315.6 64.1609 314.1 64.4609 313.4 65.7609C311.6 69.0609 308.4 71.0609 306.3 74.0609C302.3 77.1609 298.6 80.6609 293.8 82.6609C293 83.7609 292.1 84.5609 290.7 84.8609C289.6 87.1609 287.1 87.5609 285.2 88.7609C285.2 88.7609 285.2 88.8609 285.3 88.8609C285 88.7609 284.8 88.6609 284.5 88.6609C284.5 88.6609 284.5 88.5609 284.4 88.5609C284.1 88.2609 283.7 87.9609 283.4 87.6609C280.2 83.5609 275.7 80.7609 272.4 76.7609C268.4 71.9609 264.1 67.5609 259 63.9609C257.4 62.5609 255.8 61.4609 254.6 64.4609C251.3 69.8609 247.3 74.5609 242.2 78.3609C240 80.7609 237.9 83.0609 235.7 85.4609L235.8 85.5609C235.2 85.6609 234.8 86.0609 234.6 86.6609C232.8 87.4609 231.9 89.6609 229.7 89.9609C229.6 90.5609 229.5 91.0609 229.5 91.6609L229.4 91.8609C228.8 91.9609 228.5 92.2609 228.4 92.8609L228.3 92.9609C227.3 93.3609 226.7 94.0609 226.3 95.0609C225.4 95.8609 224.5 96.6609 223.6 97.4609C222.4 98.4609 222.5 99.6609 223.4 100.661C224.3 101.661 225.4 101.161 226.2 100.461C227.4 99.4609 228.5 98.3609 229.6 97.3609C229.6 97.0609 229.6 96.6609 229.7 96.3609C230.5 95.8609 230.8 95.1609 230.8 94.2609C234 91.8609 236.8 89.0609 239.1 85.7609C241.2 83.2609 243.7 81.2609 246.3 79.3609C249.6 75.8609 253.2 72.7609 255.9 68.8609C257.4 67.7609 258.7 68.2609 260.1 69.3609C264.3 72.5609 268.1 75.8609 270.9 80.4609C271.2 80.8609 271.6 81.1609 271.9 81.5609C272.6 82.2609 273.4 82.8609 274.1 83.5609C276.7 84.5609 277.2 87.5609 279.2 89.0609C279.5 89.4609 279.9 89.7609 280.2 90.1609C280.5 90.1609 280.8 90.2609 281.1 90.2609C281.4 90.6609 281.8 90.9609 282.1 91.3609C283.4 92.3609 283.5 96.0609 286.5 93.3609C287.4 92.9609 288.2 92.3609 288.6 91.3609C293.5 87.7609 297.8 83.5609 303.1 80.5609C303.5 80.2609 303.9 79.9609 304.2 79.5609C304.9 78.4609 305.9 77.6609 307.2 77.3609C307.3 77.0609 307.3 76.7609 307.3 76.4609C308.2 75.5609 309.1 74.5609 310.5 74.2609C310.9 73.9609 311.3 73.6609 311.6 73.3609C313.3 71.3609 315 69.3609 316.7 67.2609C320.9 71.0609 325.2 74.8609 329.4 78.6609C329.8 79.0609 330.1 79.3609 330.5 79.7609V79.8609C330.6 80.4609 330.7 80.9609 330.9 81.5609C332.8 81.9609 333.8 83.5609 335 84.8609C335.3 85.2609 335.7 85.5609 336.1 85.9609C337.4 87.0609 338.7 88.2609 340 89.3609L340.1 89.4609C340 90.3609 340.3 91.0609 341.2 91.4609C342.1 93.3609 344.1 94.5609 344.5 96.7609C344.2 98.4609 344 100.361 346.6 98.9609C347.9 98.2609 349.3 97.2609 349.8 95.6609C351.4 94.4609 352.7 92.7609 354.8 92.2609C355.2 91.9609 355.5 91.5609 355.9 91.2609C356.2 90.8609 356.6 90.5609 356.9 90.1609C357.2 89.7609 357.6 89.4609 357.9 89.0609C358.6 88.3609 359.4 87.7609 360.1 87.0609C362.4 84.0609 365.6 82.0609 368.4 79.5609C369.9 77.8609 371.5 76.1609 373.6 75.2609C374.4 74.3609 375.2 73.3609 376 72.4609C376.6 72.3609 376.9 71.9609 377.1 71.3609C378.1 70.6609 379.1 69.8609 380.2 69.1609C384.9 71.2609 388.2 75.0609 391.9 78.4609C394.9 79.4609 396.9 81.7609 398.5 84.1609C400.4 86.9609 402.8 89.0609 405.1 91.3609C408.8 97.8609 410.3 98.0609 415.1 92.4609C417 91.2609 418.5 89.5609 420.1 88.0609C422.4 85.7609 424.2 82.9609 427.4 81.5609C427.7 81.1609 428.1 80.8609 428.4 80.4609C429.6 78.7609 431 77.4609 432.8 76.4609C434.4 73.8609 437.5 72.7609 439.1 70.1609C439.5 69.8609 439.8 69.5609 440.2 69.2609C443.5 69.6609 445.5 72.1609 447.6 74.2609C448 74.5609 448.3 74.9609 448.7 75.2609C449.7 75.6609 450.4 76.3609 450.8 77.3609C451.1 77.7609 451.5 78.0609 451.8 78.4609C452.2 78.7609 452.5 79.1609 452.9 79.4609C453.2 79.8609 453.6 80.1609 453.9 80.5609C455.1 81.0609 456.3 81.5609 457 82.7609C458.3 83.3609 459 84.4609 459.2 85.7609C460.9 86.4609 462.2 87.5609 463.3 89.0609C465.6 90.2609 466.7 92.6609 468.4 94.4609C470.2 96.5609 472 96.1609 473.9 94.4609C477.7 91.5609 481.5 88.6609 485.3 85.7609C485.6 85.3609 485.9 84.9609 486.3 84.6609C486.7 84.3609 487.1 84.0609 487.5 83.7609C488.6 82.3609 489.8 81.0609 491.6 80.4609C495.3 77.9609 498.1 74.2609 502.1 72.0609C502.4 71.6609 502.8 71.3609 503.1 70.9609C503.5 69.4609 504.9 68.4609 505.7 67.2609C505.9 66.9609 506.1 66.6609 506.3 66.2609C507.5 67.6609 509.8 68.3609 510.9 69.8609C511.1 70.9609 511.8 71.6609 512.9 71.9609C514 73.3609 514.2 75.3609 516.1 76.1609C516.4 76.6609 516.7 76.9609 517.2 77.2609C518.5 79.7609 520.9 81.3609 522.5 83.5609H522.4C522.7 84.0609 523 84.3609 523.5 84.6609V84.5609C524.4 86.6609 526.2 88.2609 527.7 89.8609C528.1 90.7609 528.7 91.3609 529.7 91.1609C529.8 91.6609 530.1 91.9609 530.6 92.1609C531.4 93.0609 532.1 94.0609 533 94.8609C534 95.8609 535.2 96.7609 536.5 95.2609C537.8 93.6609 537.1 92.4609 535.5 91.5609C535.1 91.3609 534.6 91.0609 534.2 90.7609C533.7 89.8609 532.9 89.2609 532 88.8609C532 88.7609 532.1 88.5609 532.1 88.4609C530.8 85.6609 528.6 83.5609 526.4 81.5609C524.4 79.7609 522.1 78.1609 521.1 75.5609C518.3 70.8609 514 67.4609 510.8 63.1609C509.9 61.9609 508.5 61.0609 506.7 61.7609V61.6609C506.2 61.8609 505.9 62.2609 505.6 62.7609C505.5 63.2609 505.5 63.6609 505.5 64.0609C504.6 63.8609 504.1 65.0609 503.4 65.5609C503.1 65.7609 502.9 65.9609 502.6 66.1609C501.9 68.3609 500.3 69.5609 498.2 70.2609C497.8 70.5609 497.5 70.9609 497.1 71.2609C495 73.4609 493.2 76.1609 489.9 76.6609C489.6 77.7609 488.7 78.2609 487.9 78.9609C482.8 82.9609 477.8 87.0609 472.7 91.0609C472.4 91.0609 472.1 91.1609 471.8 91.3609C471.4 91.3609 471.1 91.3609 470.7 91.2609C470.5 91.0609 470.2 90.9609 469.9 90.9609C462.9 82.8609 454.1 76.6609 446.6 69.0609H446.5C446.4 68.4609 446 68.1609 445.5 68.0609C445.4 67.4609 445.1 67.1609 444.5 66.9609C444.2 66.5609 443.9 66.0609 443.6 65.6609C443 64.1609 441.8 63.8609 440.3 64.0609C439.4 65.2609 438.1 66.1609 437.9 67.7609C429.2 75.5609 420.1 82.8609 411.8 91.1609C410.8 91.8609 409.7 91.7609 408.7 91.1609C405.9 87.6609 402 85.0609 400 80.8609C393.9 76.4609 388.8 70.9609 382.4 66.8609C379.1 63.8609 379.1 63.8609 377 66.7609Z"/><path fill="#FBF4A0" d="M92.5 3.66097C87.5 9.46097 82.7 15.361 77.2 20.761C75.2 22.661 72.8 24.261 71.4 26.761C69.7 28.761 67.9 29.161 65.8 27.361C65 26.661 64.1 26.261 63.2 25.661C63 25.061 62.6 24.761 62 24.761C54.9 19.161 47.9 13.361 41.5 6.96097C40.5 5.96097 39.6 4.86097 38.1 4.56097C37.7 4.26097 37.4 3.86097 37 3.56097L36.7 3.86097C36.8 3.76097 36.9 3.66097 37 3.56097C36.5 0.960967 34.5 1.46097 32.7 1.66097C32.6 1.96097 32.6 2.26097 32.6 2.56097C31.9 3.06097 31.6 3.86097 31.4 4.66097C30.8 4.76097 30.5 5.06097 30.3 5.66097C29.7 5.76097 29.4 6.16097 29.4 6.76097L29.3 6.86097C28.3 7.96097 27.3 9.06097 26.3 10.161C25.5 10.461 25.1 11.161 25.1 12.061H25C22.7 13.561 20.3 14.961 18.8 17.361C13.1 21.861 7.80001 26.761 2.90001 32.061C2.60001 32.061 2.30001 32.161 1.90001 32.161C1.90001 32.461 1.80001 32.761 1.80001 33.061C1.50001 33.161 1.20001 33.261 0.900009 33.261C0.400009 34.561 9.11951e-06 35.961 1.40001 36.861C2.80001 37.761 3.50001 36.161 4.40001 35.561C4.70001 35.361 4.90001 34.861 5.10001 34.461C6.20001 34.661 6.60001 33.761 7.10001 33.061C11.9 30.061 15.4 25.861 18.6 21.361C19.4 20.461 20.1 19.461 20.9 18.561C23 17.161 24.7 15.361 26.1 13.361C27.8 12.261 29.3 10.961 30.4 9.26097C30.8 8.86097 31.1 8.56097 31.5 8.16097V7.86097C31.5 7.86097 31.5 7.86097 31.5 7.76097C31.6 7.86097 31.6 7.96097 31.7 8.06097C32.5 7.86097 33.2 7.46097 33.6 6.76097C33.5 6.76097 33.4 6.66097 33.4 6.66097H33.5L33.6 6.86097C34 6.56097 34.4 6.26097 34.9 5.96097L34.5 5.76097C34.6 5.66097 34.7 5.56097 34.8 5.56097C34.9 5.66097 34.9 5.76097 35 5.96097C35.3 5.96097 35.5 6.06097 35.8 6.06097C43.9 12.961 51 21.161 60.2 26.861L60.3 26.961C60.6 27.761 61.3 28.061 62.1 28.261C63.2 29.361 64.1 30.561 65.3 31.661C68.4 34.461 69.6 34.261 72.1 30.561C72.4 30.161 72.6 29.661 72.9 29.261C80.8 22.761 86.9 14.561 93.7 6.96097C94.9 5.96097 95.5 4.66097 95.9 3.26097C96.6 3.86097 97.3 4.36097 98 4.96097C103.5 15.061 113 21.561 120.1 30.161C120.2 30.761 120.5 31.061 121.1 31.161L121.2 31.261C121.2 31.861 121.6 32.161 122.2 32.261L122.3 32.361C122.4 32.861 122.7 33.161 123.2 33.261C124.3 34.761 125.8 36.861 127.6 34.961C129.1 33.461 127.1 32.061 125.7 31.061C125.3 30.761 124.8 30.461 124.4 30.161C124 29.461 123.3 29.061 122.4 28.961V28.861C121.9 26.661 120.1 25.461 118.7 23.961C112 16.661 104.8 9.96097 99.2 1.76097C98.8 0.960972 98.2 0.160969 97.3 0.460969C96.2 0.760969 95.7 1.66097 96 2.86097C94.4 2.06097 93.1 1.56097 92.5 3.66097Z"/><path fill="#FBF4A0" d="M189.5 28.961C182.6 23.261 176.5 16.761 170.8 9.96099C169.3 8.26099 167.6 6.76099 165.5 5.66099H165.4C165.3 5.06099 164.9 4.76099 164.4 4.56099C164.3 3.76099 163.9 3.16099 163.1 2.76099C161.9 1.56099 160.6 1.26099 159 2.26099C157 3.56099 155.7 5.16099 155.5 7.56099C152.9 10.161 150.1 12.561 147.8 15.361C144.3 19.661 139.3 22.661 136.7 27.661V27.761C136.1 27.861 135.8 28.261 135.7 28.761C135.1 28.861 134.8 29.261 134.7 29.861C134.3 30.161 133.9 30.461 133.6 30.761C132.9 31.261 132.2 31.761 131.6 32.261C130.5 33.261 128.8 34.461 130.3 36.061C132.1 38.061 133.2 35.961 134.4 34.961C134.6 34.761 134.7 34.361 134.9 34.061C135.6 33.561 136 32.961 136 32.061C136.6 31.961 136.9 31.561 137 30.961C137.6 30.861 137.9 30.561 137.9 29.861L138 29.761C138.5 29.661 138.8 29.261 138.9 28.761L139 28.661C142.5 25.061 145.9 21.361 149.4 17.761C151.9 15.161 154.9 12.961 156.9 9.76099H157C157.6 9.66099 158 9.36099 158.1 8.86099C159.7 8.16099 160 5.76099 162 5.76099C162.4 6.06099 162.8 6.36099 163.2 6.66099V6.76099C166.3 9.86099 169.6 12.661 172.3 15.961C176.8 21.561 181.6 26.661 187.2 31.061C188 32.361 189.1 33.461 190.4 34.261C192 37.861 192.1 37.861 194.8 35.061C195.5 34.561 195.9 33.961 195.9 33.061H196C201 27.961 206 22.861 210.9 17.661C213.6 14.761 217 12.361 219.1 8.86099C220.7 8.16099 221 5.76099 223.2 5.76099C223.8 7.06099 224.8 7.96099 225.9 8.96099C231.2 13.961 237 18.561 242.1 23.761C244.5 26.161 246.3 29.361 249.6 30.861C252.9 34.261 252.9 34.261 256.9 30.761C259 28.361 261.6 26.361 264.2 24.461C268.7 21.361 273.5 18.561 276.8 13.961L276.9 13.861C277.2 13.561 277.6 13.261 277.9 12.961L278 12.861C278.6 12.761 278.9 12.461 279 11.961C279.3 11.561 279.6 11.261 280 10.961C280.6 10.861 280.9 10.461 281.1 9.96099C282.5 8.46099 283.9 6.96099 285.3 5.56099C286 5.66099 286.6 5.76099 287.3 5.76099C287.7 6.06099 288 6.36099 288.3 6.66099L288.5 6.86099C288.6 7.36099 288.9 7.66099 289.4 7.76099L289.5 7.86099C293.3 11.961 296.9 16.161 301 19.961C305.4 24.161 309.1 28.961 313.5 33.161C314.1 34.661 314.9 35.861 316.8 35.061C318.4 32.261 319.9 29.461 323.1 28.061C323.7 27.761 323.9 26.561 324.3 25.861C326.2 23.561 327.5 20.761 330.2 19.161C331 16.861 332.9 15.561 334.7 14.161C337 12.261 339.4 10.461 341.1 7.96099V7.86099C341.7 7.76099 342 7.36099 342.1 6.86099C342.7 6.76099 343.1 6.36099 343.3 5.86099C344.7 5.26099 345.2 3.26099 347 3.26099C349.4 5.26099 350.8 8.26099 353.5 10.061C353.6 10.661 354 10.961 354.5 11.061C354.6 11.661 354.9 12.061 355.5 12.161V12.261C356.3 13.961 357.5 15.461 358.9 16.661C362.1 19.261 364.6 22.561 367.2 25.661C367.6 25.961 368 26.361 368.3 26.661C369.9 28.161 371.6 29.761 373.2 31.261C373.2 31.561 373.4 31.861 373.7 32.061C373.9 32.461 374.1 32.761 374.4 32.961C375.1 33.661 375.9 34.361 376.6 35.061C378 34.961 378.9 34.461 378.9 32.961C378.9 30.761 377.3 30.161 375.6 29.561C374.1 27.561 371.9 26.261 371 23.861C370.1 23.361 369.4 22.661 368.9 21.761C368.6 21.361 368.2 21.061 367.9 20.661C365.6 18.661 363.6 16.561 361.7 14.261C361.3 13.961 360.9 13.561 360.6 13.261C360 13.061 359.7 12.761 359.6 12.161C358.6 11.461 357.6 10.661 356.6 9.96099V9.86099C356.5 9.26099 356.2 8.86099 355.6 8.76099C355.6 7.96099 355.3 7.26099 354.5 6.86099C352.6 2.06099 349.5 -0.739011 344 0.560989C342.5 2.56099 341 4.56099 339.5 6.56099C338.8 6.96099 337.9 7.36099 337.3 7.86099C333.4 11.461 329.9 15.461 325.1 18.061C323 19.161 320.9 21.061 320 23.661C318.7 26.261 317.5 28.861 314.5 29.961C311.6 26.961 308.8 23.861 305.7 21.061C300.7 16.561 296.9 10.761 291.4 6.66099C291.3 6.06099 290.9 5.76099 290.4 5.56099C290.3 4.96099 290 4.66099 289.4 4.46099C289.3 3.86099 289 3.46099 288.4 3.36099C288.3 2.76099 287.9 2.36099 287.4 2.06099C287.2 1.56099 286.9 1.26099 286.4 1.26099C286 0.760994 285.5 0.660992 285.2 1.36099C284.6 1.46099 284.3 1.86099 284.1 2.36099C282.2 3.66099 280.6 5.16099 279.8 7.46099C279.4 7.86099 279.1 8.26099 278.7 8.66099C278.4 8.96099 278 9.26099 277.7 9.46099C277.4 9.86099 277.1 10.261 276.7 10.761C276.1 10.861 275.8 11.261 275.7 11.761H275.6C272.9 15.061 269.4 17.361 266 19.761C262.9 21.861 259.4 23.661 256.8 26.461C256.4 26.461 256.1 26.561 255.8 26.761C255.2 26.661 254.8 26.861 254.6 27.461C252.9 28.761 251.3 29.061 249.6 27.561C242.2 19.961 234.6 12.561 227.4 4.76099C224.9 2.06099 222.9 1.46099 219.9 3.26099C219.3 3.76099 218.6 4.26099 218 4.76099C217.5 4.76099 217.2 4.96099 217.1 5.46099L217 5.56099C215.4 7.56099 214.3 9.86099 212.5 11.761C206.2 18.061 200.1 24.361 193.9 30.761C193.6 30.561 193.3 30.561 193 30.661C192.8 30.061 192.4 29.861 191.8 29.861C191.6 29.661 191.3 29.561 191 29.561C190.3 29.561 189.9 29.261 189.5 28.961Z"/><path fill="#FBF4A0" d="M422.9 10.261C422.5 9.96104 422.2 9.56104 421.8 9.26104C420.5 8.46104 419.4 7.46104 418.7 6.06104C418.4 5.66104 418 5.36104 417.7 4.96104C415.4 4.16104 414.1 2.26104 412.6 0.561035C409.6 1.26104 409.6 1.26103 410.7 4.66103C415.7 7.16103 418.7 12.061 423 15.461C423.2 15.961 423.5 16.361 424.1 16.461L424.2 16.561C425.6 18.661 427.2 20.561 429.5 21.761C430.8 24.961 433.7 26.661 435.8 29.061C436.1 30.061 436.8 30.761 437.7 31.361C438.4 33.261 439.5 34.961 441.6 35.061C443.7 35.161 444.2 33.161 444.5 31.361C449 27.161 452.5 22.061 457.3 18.261C460.7 15.561 464.1 12.761 467.4 10.061C470.2 9.36104 471.5 6.06104 474.6 5.86104C477.4 9.66104 481.5 12.361 484.2 16.361C489.7 20.961 494.4 26.361 499 31.961C499.8 32.961 500.5 34.061 501.3 35.061C503 35.061 504.4 38.561 506.1 36.361C506.3 36.561 506.4 36.761 506.7 36.961C508.1 37.861 508.8 36.261 509.7 35.661C510 35.461 510.2 34.961 510.4 34.561C511.5 34.761 511.9 33.861 512.4 33.161C517.2 30.161 520.7 25.961 523.9 21.461C524.7 20.561 525.4 19.561 526.2 18.661C528.3 17.261 530 15.461 531.4 13.461C533.1 12.361 534.6 11.061 535.7 9.36104C536.1 8.96104 536.4 8.66104 536.8 8.26104L536.5 7.96104C536.5 7.96104 536.5 7.96104 536.5 7.86104C536.6 7.96104 536.6 8.06103 536.7 8.16103C537.5 7.96103 538.2 7.56104 538.6 6.86104C538.5 6.86104 538.4 6.76104 538.4 6.76104H538.5L538.6 6.96104C539 6.66104 539.4 6.36104 539.9 6.06104L539.5 5.96104C539.6 5.86104 539.7 5.76104 539.8 5.76104C539.9 5.86104 539.9 5.96103 540 6.16103C540.3 6.16103 540.5 6.26104 540.8 6.26104C548.9 13.161 556 21.361 565.2 27.061L565.3 27.161C565.6 27.961 566.3 28.261 567.1 28.461C568.2 29.561 569.1 30.761 570.3 31.861C573.4 34.661 574.6 34.461 577.1 30.761C577.4 30.361 577.6 29.861 577.9 29.461C585.8 22.961 591.9 14.761 598.7 7.16103C599.9 6.16103 600.5 4.86104 600.9 3.46104C601.6 4.06104 602.3 4.56103 603 5.16103C608.5 15.261 618 21.761 625.1 30.361C625.2 30.961 625.5 31.261 626.1 31.361L626.2 31.461C626.2 32.061 626.6 32.361 627.2 32.461L627.3 32.561C627.4 33.061 627.7 33.361 628.2 33.461C629.3 34.961 630.8 37.061 632.6 35.161C634.1 33.661 632.1 32.261 630.7 31.261C630.3 30.961 629.8 30.661 629.4 30.361C629 29.661 628.3 29.261 627.4 29.161V29.061C626.9 26.861 625.1 25.661 623.7 24.161C617 16.861 609.8 10.161 604.2 1.96104C603.8 1.16104 603.2 0.361034 602.3 0.661034C601.2 0.961034 600.7 1.86104 601 3.06104C599.7 2.46104 598.4 1.96104 597.8 3.96104C592.8 9.76104 588 15.661 582.5 21.061C580.5 22.961 578.1 24.561 576.7 27.061C575 29.061 573.2 29.461 571.1 27.661C570.3 26.961 569.4 26.561 568.5 25.961C568.3 25.361 567.9 25.061 567.3 25.061C560.1 19.461 553.1 13.661 546.6 7.36104C545.6 6.36104 544.7 5.26104 543.2 4.96104C542.8 4.66104 542.5 4.26104 542.1 3.96104L541.8 4.26104C541.9 4.16104 542 4.06104 542.1 3.96104C541.6 1.36104 539.7 1.86104 537.9 2.06104C537.8 2.36104 537.8 2.66104 537.8 2.96104C537.1 3.46104 536.8 4.26104 536.6 5.06104C536 5.16104 535.7 5.46104 535.5 6.06104C534.9 6.16104 534.6 6.56103 534.6 7.16103L534.5 7.26104C533.5 8.36104 532.5 9.46103 531.5 10.561C530.7 10.861 530.3 11.561 530.3 12.461H530.2C527.9 13.961 525.5 15.361 524 17.761C518.3 22.261 513 27.161 508.1 32.461C507.8 32.461 507.5 32.561 507.1 32.561C507.1 32.861 507 33.161 507 33.461C506.7 33.561 506.4 33.661 506.1 33.661C505.4 32.861 504.3 32.361 503.6 31.561C503.5 31.461 503.3 31.461 503.1 31.361C502.6 30.761 502.2 30.161 501.7 29.561C498.9 27.061 496.1 24.561 494.2 21.161C491.4 19.061 488.6 16.961 487 13.761C486.7 13.361 486.3 13.061 486 12.661C485.6 12.361 485.3 11.961 484.9 11.661C484.5 11.361 484.2 10.961 483.8 10.661C483.4 10.361 483.1 9.96103 482.7 9.66103C482.4 9.26103 482 8.96103 481.7 8.56104C480.8 8.06104 480.1 7.36104 479.7 6.36104C479.4 5.96104 479 5.66104 478.7 5.26104C478.2 5.06104 477.8 4.76103 477.7 4.16103C477.1 3.76103 476.4 3.26104 475.8 2.86104C474.4 1.26104 473.2 2.16104 471.8 2.96104C469.2 4.66104 467.1 6.86103 465.1 9.16103C462.5 9.36103 461.4 12.161 459 12.561C458.6 12.861 458.2 13.161 457.8 13.461C457.1 14.661 456.1 15.361 454.7 15.661C454.4 16.061 454 16.361 453.7 16.761C453.3 17.061 453 17.461 452.6 17.761C449.4 21.161 446.2 24.661 443.1 28.061L443 28.161C442.5 28.461 442.1 28.661 441.6 28.961C441.3 28.961 441.1 29.061 440.9 29.261C438.1 28.361 437.3 25.061 434.7 23.861C434.3 23.161 433.9 22.461 433.6 21.861C432.3 21.061 431.2 20.061 430.4 18.661C429.1 17.561 427.7 16.361 426.4 15.261C425.2 13.461 424.1 11.861 422.9 10.261Z"/><path fill="#FBF4A0" d="M279.9 11.061C279.6 11.361 279.2 11.761 278.9 12.061C279.5 11.961 279.8 11.661 279.9 11.061Z"/><path fill="#FBF4A0" d="M406.9 2.26099C405.8 1.76099 405.3 3.06099 404.7 3.86099C403.9 4.96099 403.5 6.26099 402.3 7.06099C401.9 7.36099 401.6 7.76099 401.2 8.06099C399.4 9.86099 397.7 11.561 395.9 13.361C393.3 17.661 389.4 20.961 387.1 25.461C385.6 27.161 383.4 28.361 383.1 30.961L383 31.061C382.2 31.061 381.5 31.261 381.3 32.161C381.1 32.461 381 32.761 380.8 33.061C379.7 33.861 379.8 34.561 380.8 35.361C382.6 37.061 383.3 35.461 384.2 34.361C384.5 34.261 384.8 34.261 385 34.161C385 33.461 385 32.861 384.9 32.161C385.1 31.861 385.2 31.561 385.2 31.161C386.8 30.161 387.5 28.461 388.4 26.961C389 26.561 389.7 26.061 390.3 25.661C394.3 20.561 397.9 15.161 402.8 10.961C403.8 9.16099 405.5 8.16099 407 6.86099C407.2 6.36099 407.3 5.86099 407.5 5.46099C408.3 4.06099 408 2.76099 406.9 2.26099Z"/><path fill="#FBF4A0" d="M694.6 28.961C687.7 23.261 681.6 16.761 675.9 9.96099C674.4 8.26099 672.7 6.76099 670.6 5.66099H670.5C670.4 5.06099 670 4.76099 669.5 4.56099C669.4 3.76099 669 3.16099 668.2 2.76099C667 1.56099 665.7 1.26099 664.1 2.26099C662.1 3.56099 660.8 5.16099 660.6 7.56099C658 10.161 655.2 12.561 652.9 15.361C649.4 19.661 644.4 22.661 641.8 27.661V27.761C641.2 27.861 640.9 28.261 640.8 28.761C640.2 28.861 639.9 29.261 639.8 29.861C639.4 30.161 639 30.461 638.7 30.761C638 31.261 637.3 31.761 636.7 32.261C635.6 33.261 633.9 34.461 635.4 36.061C637.2 38.061 638.3 35.961 639.5 34.961C639.7 34.761 639.8 34.361 640 34.061C640.7 33.561 641.1 32.961 641.1 32.061C641.7 31.961 642 31.561 642.1 30.961C642.7 30.861 643 30.561 643 29.861L643.1 29.761C643.6 29.661 643.9 29.261 644 28.761L644.1 28.661C647.6 25.061 651 21.361 654.5 17.761C657 15.161 660 12.961 662 9.76099H662.1C662.7 9.66099 663.1 9.36099 663.2 8.86099C664.8 8.16099 665.1 5.76099 667.1 5.76099C667.5 6.06099 667.9 6.36099 668.3 6.66099V6.76099C671.4 9.86099 674.7 12.661 677.4 15.961C681.9 21.561 686.7 26.661 692.3 31.061C693.1 32.361 694.2 33.461 695.5 34.261C697.1 37.861 697.2 37.861 699.9 35.061C700.6 34.561 701 33.961 701 33.061H701.1C706.1 27.961 711.1 22.861 716 17.661C718.7 14.761 722.1 12.361 724.2 8.86099C725.8 8.16099 726.1 5.76099 728.3 5.76099C728.9 7.06099 729.9 7.96099 731 8.96099C736.3 13.961 742.1 18.561 747.2 23.761C749.6 26.161 751.4 29.361 754.7 30.861C758 34.261 758 34.261 762 30.761C764.1 28.361 766.7 26.361 769.3 24.461C773.8 21.361 778.6 18.561 781.9 13.961L782 13.861C782.3 13.561 782.7 13.261 783 12.961L783.1 12.861C783.7 12.761 784 12.461 784.1 11.961C784.4 11.561 784.7 11.261 785.1 10.961C785.7 10.861 786 10.461 786.2 9.96099C787.6 8.46099 789 6.96099 790.4 5.56099C791.1 5.66099 791.7 5.76099 792.4 5.76099C792.8 6.06099 793.1 6.36099 793.4 6.66099L793.6 6.86099C793.7 7.36099 794 7.66099 794.5 7.76099L794.6 7.86099C798.4 11.961 802 16.161 806.1 19.961C810.5 24.161 814.2 28.961 818.6 33.161C819.2 34.661 820 35.861 821.9 35.061C823.5 32.261 825 29.461 828.2 28.061C828.8 27.761 829 26.561 829.4 25.861C831.3 23.561 832.6 20.761 835.3 19.161C836.1 16.861 838 15.561 839.8 14.161C842.1 12.261 844.5 10.461 846.2 7.96099V7.86099C846.8 7.76099 847.1 7.36099 847.2 6.86099C847.8 6.76099 848.2 6.36099 848.4 5.86099C849.8 5.26099 850.3 3.26099 852.1 3.26099C854.5 5.26099 855.9 8.26099 858.6 10.061C858.7 10.661 859.1 10.961 859.6 11.061C859.7 11.661 860 12.061 860.6 12.161V12.261C861.4 13.961 862.6 15.461 864 16.661C867.2 19.261 869.7 22.561 872.3 25.661C872.7 25.961 873.1 26.361 873.4 26.661C875 28.161 876.7 29.761 878.3 31.261C878.3 31.561 878.5 31.861 878.8 32.061C879 32.461 879.2 32.761 879.5 32.961C880.2 33.661 881 34.361 881.7 35.061C883.1 34.961 884 34.461 884 32.961C884 30.761 882.4 30.161 880.7 29.561C879.2 27.561 877 26.261 876.1 23.861C875.2 23.361 874.5 22.661 874 21.761C873.7 21.361 873.3 21.061 873 20.661C870.7 18.661 868.7 16.561 866.8 14.261C866.4 13.961 866 13.561 865.7 13.261C865.1 13.061 864.8 12.761 864.7 12.161C863.7 11.461 862.7 10.661 861.7 9.96099V9.86099C861.6 9.26099 861.3 8.86099 860.7 8.76099C860.7 7.96099 860.4 7.26099 859.6 6.86099C857.7 2.06099 854.6 -0.739011 849.1 0.560989C847.6 2.56099 846.1 4.56099 844.6 6.56099C843.9 6.96099 843 7.36099 842.4 7.86099C838.5 11.461 835 15.461 830.2 18.061C828.1 19.161 826 21.061 825.1 23.661C823.8 26.261 822.6 28.861 819.6 29.961C816.7 26.961 813.9 23.861 810.8 21.061C805.8 16.561 802 10.761 796.5 6.66099C796.4 6.06099 796 5.76099 795.5 5.56099C795.4 4.96099 795.1 4.66099 794.5 4.46099C794.4 3.86099 794.1 3.46099 793.5 3.36099C793.4 2.76099 793 2.36099 792.5 2.06099C792.3 1.56099 792 1.26099 791.5 1.26099C791.1 0.760994 790.6 0.660992 790.3 1.36099C789.7 1.46099 789.4 1.86099 789.2 2.36099C787.3 3.66099 785.7 5.16099 784.9 7.46099C784.5 7.86099 784.2 8.26099 783.8 8.66099C783.5 8.96099 783.1 9.26099 782.8 9.46099C782.5 9.86099 782.2 10.261 781.8 10.761C781.2 10.861 780.9 11.261 780.8 11.761H780.7C778 15.061 774.5 17.361 771.1 19.761C768 21.861 764.5 23.661 761.9 26.461C761.5 26.461 761.2 26.561 760.9 26.761C760.3 26.661 759.9 26.861 759.7 27.461C758 28.761 756.4 29.061 754.7 27.561C747.3 19.961 739.7 12.561 732.5 4.76099C730 2.06099 728 1.46099 725 3.26099C724.4 3.76099 723.7 4.26099 723.1 4.76099C722.6 4.76099 722.3 4.96099 722.2 5.46099L722.1 5.56099C720.5 7.56099 719.4 9.86099 717.6 11.761C711.3 18.061 705.2 24.361 699 30.761C698.7 30.561 698.4 30.561 698.1 30.661C697.9 30.061 697.5 29.861 696.9 29.861C696.7 29.661 696.4 29.561 696.1 29.561C695.4 29.561 695 29.261 694.6 28.961Z"/><path fill="#FBF4A0" d="M785 11.061C784.7 11.361 784.3 11.761 784 12.061C784.6 11.961 784.9 11.661 785 11.061Z"/><path fill="#FBF4A0" d="M911.9 2.26099C910.8 1.76099 910.3 3.06099 909.7 3.86099C908.9 4.96099 908.5 6.26099 907.3 7.06099C906.9 7.36099 906.6 7.76099 906.2 8.06099C904.4 9.86099 902.7 11.561 900.9 13.361C898.3 17.661 894.4 20.961 892.1 25.461C890.6 27.161 888.4 28.361 888.1 30.961L888 31.061C887.2 31.061 886.5 31.261 886.3 32.161C886.1 32.461 886 32.761 885.8 33.061C884.7 33.861 884.8 34.561 885.8 35.361C887.6 37.061 888.3 35.461 889.2 34.361C889.5 34.261 889.8 34.261 890 34.161C890 33.461 890 32.861 889.9 32.161C890.1 31.861 890.2 31.561 890.2 31.161C891.8 30.161 892.5 28.461 893.4 26.961C894 26.561 894.7 26.061 895.3 25.661C899.3 20.561 902.9 15.161 907.8 10.961C908.8 9.16099 910.5 8.16099 912 6.86099C912.2 6.36099 912.3 5.86099 912.5 5.46099C913.3 4.06099 913.1 2.76099 911.9 2.26099Z"/><path fill="#FBF4A0" d="M227.4 48.161C227.5 45.461 225.3 43.061 222.6 42.961C219.8 42.861 218.3 44.461 218.1 47.461C218 50.361 220 53.261 222.2 53.261C224.5 53.261 227.4 50.461 227.4 48.161Z"/><path fill="#FBF4A0" d="M283.4 51.9611C285 51.9611 289.7 48.5611 289.8 47.2611C289.8 45.4611 286.9 43.5611 284.1 43.2611C281.3 42.7611 279.7 43.4611 279.2 45.4611C278.7 47.8611 281.4 51.8611 283.4 51.9611Z"/><path fill="#FBF4A0" d="M164.2 46.861C164.1 46.261 163.7 45.961 163.1 45.961C162.1 45.261 161 44.861 159.8 44.661C156.1 44.161 154.3 46.261 155.4 49.861C156.4 53.161 157.8 53.561 162.3 52.361C166.4 50.361 166.5 50.161 164.2 46.861Z"/><path fill="#FBF4A0" d="M91.6 50.061C93.6 53.361 94.5 53.861 96.9 52.861C99.6 51.761 100.1 50.161 99 46.761C98.4 45.361 97.2 44.761 95.7 44.761C93.6 44.861 91.4 44.761 91.5 47.861C91.3 48.661 91.3 49.361 91.6 50.061Z"/><path fill="#FBF4A0" d="M347.1 49.6611C349.3 49.5611 351.6 47.3611 351.7 45.4611C351.7 43.4611 348.6 40.8611 346.2 40.8611C343.9 40.8611 342.1 43.0611 342.2 45.3611C342.4 47.8611 344.6 49.7611 347.1 49.6611Z"/><path fill="#FBF4A0" d="M407.4 47.2609C407.5 50.1609 409.9 52.4609 412.8 52.3609C415.1 52.2609 417.7 50.2609 417.6 48.5609C417.5 46.2609 413.5 42.4609 411.2 42.6609C408.8 42.7609 407.3 44.6609 407.4 47.2609Z"/><path fill="#FBF4A0" d="M478 43.361C478.1 43.161 478 42.861 477.8 42.661C476.8 42.161 476 41.361 474.7 41.561C471.9 40.361 470 41.861 468.7 44.061C467.7 45.661 468.6 47.061 469.6 48.361C471 50.261 472.8 50.061 474.7 49.061C477.8 48.761 479.1 46.961 478.8 43.961H478.9C478.6 43.561 478.3 43.361 478 43.361Z"/><path fill="#FBF4A0" d="M37.1001 52.3611C40.5001 49.8611 40.6001 49.3611 39.0001 45.7611C38.7001 44.8611 37.9001 44.5611 37.0001 44.5611C35.1001 43.3611 33.1001 41.5611 31.0001 43.3611C29.0001 45.1611 29.5001 47.7611 30.4001 50.1611C30.6001 50.5611 31.1001 50.8611 31.4001 51.2611C32.9001 53.4611 34.8001 54.0611 37.1001 52.3611Z"/><path fill="#FBF4A0" d="M727 42.961C724.2 42.861 722.7 44.461 722.5 47.461C722.4 50.361 724.4 53.261 726.6 53.261C728.9 53.261 731.7 50.461 731.8 48.161C731.9 45.461 729.7 43.061 727 42.961Z"/><path fill="#FBF4A0" d="M788.5 43.2611C785.7 42.7611 784.1 43.4611 783.6 45.4611C783 47.8611 785.8 51.9611 787.8 51.9611C789.4 51.9611 794.1 48.5611 794.2 47.2611C794.2 45.4611 791.3 43.5611 788.5 43.2611Z"/><path fill="#FBF4A0" d="M668.6 46.861C668.5 46.261 668.1 45.961 667.5 45.961C666.5 45.261 665.4 44.861 664.2 44.661C660.5 44.161 658.7 46.261 659.8 49.861C660.8 53.161 662.2 53.561 666.7 52.361C670.8 50.361 670.8 50.161 668.6 46.861Z"/><path fill="#FBF4A0" d="M596 50.061C598 53.361 598.9 53.861 601.3 52.861C604 51.761 604.5 50.161 603.4 46.761C602.8 45.361 601.6 44.761 600.1 44.761C598 44.861 595.8 44.761 595.9 47.861C595.7 48.661 595.7 49.361 596 50.061Z"/><path fill="#FBF4A0" d="M846.6 45.3611C846.8 47.8611 849 49.7611 851.5 49.6611C853.7 49.5611 856 47.3611 856.1 45.4611C856.1 43.4611 853 40.8611 850.6 40.8611C848.3 40.8611 846.4 43.0611 846.6 45.3611Z"/><path fill="#FBF4A0" d="M915.5 42.6609C913.2 42.7609 911.6 44.6609 911.7 47.2609C911.8 50.1609 914.2 52.4609 917.1 52.3609C919.4 52.2609 922 50.2609 921.9 48.5609C921.9 46.2609 917.8 42.4609 915.5 42.6609Z"/><path fill="#FBF4A0" d="M982.2 42.6611C981.2 42.1611 980.3 41.2611 979.1 41.4611C976.3 40.2611 974.4 41.7611 973.1 43.9611C972.1 45.5611 973 46.9611 974 48.2611C975.4 50.1611 977.2 49.9611 979.1 48.9611C982.2 48.6611 983.5 46.8611 983.2 43.8611H983.3C983.1 43.5611 982.8 43.4611 982.5 43.3611C982.5 43.1611 982.4 42.8611 982.2 42.6611Z"/><path fill="#FBF4A0" d="M541.5 52.3611C544.9 49.8611 545 49.3611 543.4 45.7611C543.1 44.8611 542.3 44.5611 541.4 44.5611C539.5 43.3611 537.5 41.5611 535.4 43.3611C533.4 45.1611 533.9 47.7611 534.8 50.1611C535 50.5611 535.5 50.8611 535.8 51.2611C537.3 53.4611 539.2 54.0611 541.5 52.3611Z"/><path fill="#FBF4A0" d="M1076 62.7611C1075.8 62.7611 1075.6 62.7611 1075.3 62.7611C1075 62.5611 1074.8 62.4611 1074.4 62.5611C1072.9 61.6611 1071.5 61.1611 1071.1 63.6611L1071 63.7611C1070.2 66.6611 1068.5 69.0611 1066.5 71.2611C1064.1 73.8611 1061.8 76.3611 1059.4 78.8611C1054.8 83.5611 1050.3 88.4611 1044.8 92.1611C1044.5 92.4611 1044.4 92.7611 1044.5 93.1611C1042.8 94.1611 1042.1 95.7611 1041.4 97.4611C1040.9 98.7611 1041.2 99.7611 1042.6 100.261C1044.8 98.8611 1046.9 97.4611 1047.2 94.4611C1048.9 93.0611 1050.7 91.6611 1052.3 90.0611C1059.2 83.2611 1066.4 76.8611 1072.2 69.0611C1073.1 68.1611 1074 67.8611 1074.9 67.9611C1075.2 66.5611 1075.7 65.2611 1076.2 63.9611C1076.1 63.6611 1076 63.2611 1076 62.7611Z"/><path fill="#FBF4A0" d="M949.4 68.861C949.2 68.261 948.9 67.961 948.3 67.861C948.2 67.261 947.9 66.9611 947.3 66.7611C947 66.3611 946.7 65.861 946.4 65.461C945.8 63.961 944.6 63.661 943.1 63.861C942.2 65.061 940.9 65.9611 940.7 67.5611C932 75.3611 922.9 82.661 914.6 90.961C913.6 91.661 912.5 91.561 911.5 90.961C908.7 87.461 904.8 84.861 902.8 80.661C896.7 76.261 891.6 70.761 885.2 66.661C882.2 63.761 882.2 63.761 880.1 66.661C879.6 67.361 879.2 68.0611 878.8 68.7611C878.5 69.1611 878.1 69.461 877.8 69.861C874.7 72.361 871.5 74.861 868.5 77.461C863.6 81.661 858.8 85.9611 853.8 90.0611C852.3 91.2611 850.6 93.161 848.4 90.861C847.7 90.161 847 89.4611 846.3 88.7611C846.2 88.2611 845.8 87.8611 845.3 87.7611V87.661C842.6 84.061 839.3 81.0611 835.8 78.2611C831.3 73.5611 827.4 68.361 822.2 64.361C821.6 63.561 820.9 63.1611 820 63.5611C818.7 64.0611 817.2 64.361 816.5 65.661C814.7 68.961 811.5 70.961 809.4 73.961C805.4 77.061 801.7 80.5611 796.9 82.5611C796.1 83.6611 795.2 84.4611 793.8 84.7611C792.7 87.0611 790.2 87.461 788.3 88.661C788.3 88.661 788.3 88.7611 788.4 88.7611C788.1 88.6611 787.9 88.5611 787.6 88.5611C787.6 88.5611 787.6 88.461 787.5 88.461C787.2 88.161 786.8 87.8611 786.5 87.5611C783.3 83.4611 778.8 80.661 775.5 76.661C771.5 71.861 767.2 67.461 762.1 63.861C760.5 62.461 758.9 61.361 757.7 64.361C754.4 69.761 750.4 74.4611 745.3 78.2611C743.1 80.6611 741 82.961 738.8 85.361L738.9 85.461C738.3 85.561 737.9 85.9611 737.7 86.5611C735.9 87.3611 735 89.561 732.8 89.861C732.7 90.461 732.6 90.9611 732.6 91.5611L732.5 91.7611C731.9 91.8611 731.6 92.1611 731.5 92.7611L731.4 92.861C730.4 93.261 729.8 93.961 729.4 94.961C728.5 95.761 727.6 96.561 726.7 97.361C725.5 98.361 725.6 99.5611 726.5 100.561C727.4 101.561 728.5 101.061 729.3 100.361C730.5 99.361 731.6 98.2611 732.7 97.2611C732.7 96.9611 732.7 96.5611 732.8 96.2611C733.6 95.7611 733.9 95.061 733.9 94.161C737.1 91.761 739.9 88.961 742.2 85.661C744.3 83.161 746.8 81.1611 749.4 79.2611C752.7 75.7611 756.3 72.6611 759 68.7611C760.5 67.6611 761.8 68.1611 763.2 69.2611C767.4 72.4611 771.2 75.761 774 80.361C774.3 80.761 774.7 81.061 775 81.461C775.7 82.161 776.5 82.761 777.2 83.461C779.8 84.461 780.3 87.461 782.3 88.961C782.6 89.361 783 89.6611 783.3 90.0611C783.6 90.0611 783.9 90.161 784.2 90.161C784.5 90.561 784.9 90.8611 785.2 91.2611C786.5 92.2611 786.6 95.9611 789.6 93.2611C790.5 92.8611 791.3 92.2611 791.7 91.2611C796.6 87.6611 800.9 83.461 806.2 80.461C806.6 80.161 807 79.861 807.3 79.461C808 78.361 809 77.5611 810.3 77.2611C810.4 76.9611 810.4 76.661 810.4 76.361C811.3 75.461 812.2 74.461 813.6 74.161C814 73.861 814.4 73.5611 814.7 73.2611C816.4 71.2611 818.1 69.261 819.8 67.161C824 70.961 828.3 74.7611 832.5 78.5611C832.9 78.9611 833.2 79.261 833.6 79.661V79.7611C833.7 80.3611 833.8 80.861 834 81.461C835.9 81.861 836.9 83.4611 838.1 84.7611C838.4 85.1611 838.8 85.461 839.2 85.861C840.5 86.961 841.8 88.1611 843.1 89.2611L843.2 89.361C843.1 90.261 843.4 90.961 844.3 91.361C845.2 93.261 847.2 94.461 847.6 96.661C847.3 98.361 847.1 100.261 849.7 98.861C851 98.161 852.4 97.1611 852.9 95.5611C854.5 94.3611 855.8 92.661 857.9 92.161C858.3 91.861 858.6 91.461 859 91.161C859.3 90.761 859.7 90.4611 860 90.0611C860.3 89.6611 860.7 89.361 861 88.961C861.7 88.261 862.5 87.661 863.2 86.961C865.5 83.961 868.7 81.961 871.5 79.461C873 77.761 874.6 76.061 876.7 75.161C877.5 74.261 878.3 73.261 879.1 72.361C879.7 72.261 880 71.8611 880.2 71.2611C881.2 70.5611 882.2 69.7611 883.3 69.0611C888 71.1611 891.3 74.961 895 78.361C898 79.361 900 81.6611 901.6 84.0611C903.5 86.8611 905.9 88.9611 908.2 91.2611C911.9 97.7611 913.4 97.961 918.2 92.361C920.1 91.161 921.6 89.461 923.2 87.961C925.5 85.661 927.3 82.861 930.5 81.461C930.8 81.061 931.2 80.761 931.5 80.361C932.7 78.661 934.1 77.361 935.9 76.361C937.5 73.761 940.6 72.6611 942.2 70.0611C942.6 69.7611 942.9 69.461 943.3 69.161C946.6 69.561 948.6 72.061 950.7 74.161C951.1 74.461 951.4 74.861 951.8 75.161C952.8 75.561 953.5 76.2611 953.9 77.2611C954.2 77.6611 954.6 77.961 954.9 78.361C955.3 78.661 955.6 79.061 956 79.361C956.3 79.761 956.7 80.061 957 80.461C958.2 80.961 959.4 81.461 960.1 82.661C961.4 83.261 962.1 84.361 962.3 85.661C964 86.361 965.3 87.461 966.4 88.961C968.7 90.161 969.8 92.561 971.5 94.361C973.3 96.461 975.1 96.061 977 94.361C980.8 91.461 984.6 88.561 988.4 85.661C988.7 85.261 989 84.8611 989.4 84.5611C989.8 84.2611 990.2 83.961 990.6 83.661C991.7 82.261 992.9 80.961 994.7 80.361C998.4 77.861 1001.2 74.161 1005.2 71.961C1005.5 71.561 1005.9 71.261 1006.2 70.861C1006.6 69.361 1008 68.361 1008.8 67.161C1009 66.961 1009.1 66.661 1009.3 66.361C1010.6 67.661 1012.7 68.3611 1013.7 69.7611C1013.9 70.8611 1014.6 71.561 1015.7 71.861C1016.8 73.261 1017 75.2611 1018.9 76.0611C1019.2 76.5611 1019.5 76.861 1020 77.161C1021.3 79.661 1023.7 81.261 1025.3 83.461H1025.2C1025.5 83.961 1025.8 84.2611 1026.3 84.5611V84.461C1027.2 86.561 1029 88.1611 1030.5 89.7611C1030.9 90.6611 1031.5 91.2611 1032.5 91.0611C1032.6 91.5611 1032.9 91.8611 1033.4 92.0611C1034.2 92.9611 1034.9 93.9611 1035.8 94.7611C1036.8 95.7611 1038 96.661 1039.3 95.161C1040.6 93.561 1039.9 92.361 1038.3 91.461C1037.9 91.261 1037.4 90.961 1037 90.661C1036.5 89.761 1035.7 89.1611 1034.8 88.7611C1034.8 88.6611 1034.9 88.461 1034.9 88.361C1033.6 85.561 1031.4 83.461 1029.2 81.461C1027.2 79.661 1024.9 78.061 1023.9 75.461C1021.1 70.761 1016.8 67.3611 1013.6 63.0611C1012.7 61.8611 1011.3 60.961 1009.5 61.661V61.5611C1009 61.7611 1008.7 62.161 1008.4 62.661C1008.3 63.161 1008.3 63.561 1008.3 63.861C1007.6 63.961 1007.1 64.861 1006.5 65.361C1006.2 65.561 1006 65.761 1005.7 65.961C1005 68.161 1003.4 69.3611 1001.3 70.0611C1000.9 70.3611 1000.6 70.7611 1000.2 71.0611C998.1 73.2611 996.3 75.961 993 76.461C992.7 77.561 991.8 78.0611 991 78.7611C985.9 82.7611 980.9 86.861 975.8 90.861C975.5 90.861 975.2 90.961 974.9 91.161C974.5 91.161 974.2 91.1611 973.8 91.0611C973.6 90.8611 973.3 90.7611 973 90.7611C965.7 82.7611 956.9 76.461 949.4 68.861Z"/><path fill="#FBF4A0" d="M1078 32.661C1077.2 31.361 1076.4 29.961 1075.9 28.461C1075.2 28.361 1074.6 27.961 1073.9 27.361C1073.1 26.661 1072.2 26.261 1071.3 25.661C1071.1 25.061 1070.7 24.761 1070.1 24.761C1062.9 19.161 1055.9 13.361 1049.4 7.06104C1048.4 6.06104 1047.5 4.96103 1046 4.66103C1045.6 4.36103 1045.3 3.96103 1044.9 3.66103L1044.6 3.96104C1044.7 3.86104 1044.8 3.76103 1044.9 3.66103C1044.4 1.06103 1042.5 1.56104 1040.7 1.76104C1040.6 2.06104 1040.6 2.36103 1040.6 2.66103C1039.9 3.16103 1039.6 3.96104 1039.4 4.76104C1038.8 4.86104 1038.5 5.16104 1038.3 5.76104C1037.7 5.86104 1037.4 6.26104 1037.4 6.86104L1037.3 6.96104C1036.3 8.06104 1035.3 9.16104 1034.3 10.261C1033.5 10.561 1033.1 11.261 1033.1 12.161H1033C1030.7 13.661 1028.3 15.061 1026.8 17.461C1021.1 21.961 1015.8 26.861 1010.9 32.161C1010.6 32.161 1010.3 32.261 1009.9 32.261C1009.9 32.261 1009.9 32.261 1009.9 32.361C1009.4 32.061 1009 31.661 1008.6 31.361C1008.5 31.261 1008.3 31.261 1008.1 31.161C1007.6 30.561 1007.2 29.961 1006.7 29.361C1003.9 26.861 1001.1 24.361 999.2 20.961C996.4 18.861 993.6 16.761 992 13.561C991.7 13.161 991.3 12.861 991 12.461C990.6 12.161 990.3 11.761 989.9 11.461C989.5 11.161 989.2 10.761 988.8 10.461C988.4 10.161 988.1 9.76104 987.7 9.46104C987.4 9.06104 987 8.76104 986.7 8.36104C985.8 7.86104 985.1 7.16103 984.7 6.16103C984.4 5.76103 984 5.46104 983.7 5.06104C983.2 4.86104 982.8 4.56104 982.7 3.96104C982.1 3.56104 981.4 3.06103 980.8 2.66103C979.4 1.06103 978.2 1.96104 976.8 2.76104C974.2 4.46104 972.1 6.66104 970.1 8.96104C967.5 9.16104 966.4 11.961 964 12.361C963.6 12.661 963.2 12.961 962.8 13.261C962.1 14.461 961.1 15.161 959.7 15.461C959.4 15.861 959 16.161 958.7 16.561C958.3 16.861 958 17.261 957.6 17.561C954.4 20.961 951.2 24.461 948.1 27.861L948 27.961C947.5 28.261 947.1 28.461 946.6 28.761C946.3 28.761 946.1 28.861 945.9 29.061C943.1 28.161 942.3 24.861 939.7 23.661C939.3 22.961 938.9 22.261 938.6 21.661C937.3 20.861 936.2 19.861 935.4 18.461C934.1 17.361 932.7 16.161 931.4 15.061C930.2 13.461 929 11.861 927.9 10.261C927.5 9.96104 927.2 9.56104 926.8 9.26104C925.5 8.46104 924.4 7.46104 923.7 6.06104C923.4 5.66104 923 5.36104 922.7 4.96104C920.4 4.16104 919.1 2.26104 917.6 0.561035C914.6 1.26104 914.6 1.26103 915.7 4.66103C920.7 7.16103 923.7 12.061 928 15.461C928.2 15.961 928.5 16.361 929.1 16.461L929.2 16.561C930.6 18.661 932.2 20.561 934.5 21.761C935.8 24.961 938.7 26.661 940.8 29.061C941.1 30.061 941.8 30.761 942.7 31.361C943.4 33.261 944.5 34.961 946.6 35.061C948.7 35.161 949.2 33.161 949.5 31.361C954 27.161 957.5 22.061 962.3 18.261C965.7 15.561 969.1 12.761 972.4 10.061C975.2 9.36104 976.5 6.06104 979.6 5.86104C982.4 9.66104 986.5 12.361 989.2 16.361C994.7 20.961 999.4 26.361 1004 31.961C1004.8 32.961 1005.5 34.061 1006.3 35.061C1007.5 35.061 1008.6 36.861 1009.7 37.061C1010.9 37.661 1011.6 36.261 1012.4 35.661C1012.7 35.461 1012.9 34.961 1013.1 34.561C1014.2 34.761 1014.6 33.861 1015.1 33.161C1019.9 30.161 1023.4 25.961 1026.6 21.461C1027.4 20.561 1028.1 19.561 1028.9 18.661C1031 17.261 1032.7 15.461 1034.1 13.461C1035.8 12.361 1037.3 11.061 1038.4 9.36104C1038.8 8.96104 1039.1 8.66104 1039.5 8.26104L1039.2 7.96104C1039.2 7.96104 1039.2 7.96104 1039.2 7.86104C1039.3 7.96104 1039.3 8.06103 1039.4 8.16103C1040.2 7.96103 1040.9 7.56104 1041.3 6.86104C1041.7 6.56104 1042.1 6.26104 1042.6 5.96104L1042.2 5.86104C1042.3 5.76104 1042.4 5.66103 1042.5 5.66103C1042.6 5.76103 1042.6 5.86104 1042.7 6.06104C1043 6.06104 1043.2 6.16103 1043.5 6.16103C1051.6 13.061 1058.7 21.261 1067.9 26.961L1068 27.061C1068.3 27.861 1069 28.161 1069.8 28.361C1070.9 29.461 1071.8 30.661 1073 31.761C1075.2 33.561 1076.5 33.961 1078 32.661Z"/><path fill="#FBF4A0" d="M1038.5 51.2611C1040 53.4611 1041.9 54.0611 1044.2 52.3611C1047.6 49.8611 1047.7 49.3611 1046.1 45.7611C1045.8 44.8611 1045 44.5611 1044.1 44.5611C1042.2 43.3611 1040.2 41.5611 1038.1 43.3611C1036.1 45.1611 1036.6 47.7611 1037.5 50.1611C1037.7 50.5611 1038.2 50.8611 1038.5 51.2611Z"/></svg>