<svg xmlns="http://www.w3.org/2000/svg" fill="none" viewBox="0 0 1078 104"><path fill="#FBF4A0" d="M121.9 69.86c-7.1 6.7-13.7 13.8-18.8 22.2v.1c-.6.1-.9.4-1 1h-.1c-.6 0-.9.4-1 1l-.1.1c-1 0-2 .1-3 .1h-.2c-.4-.9-.7-1.9-1.8-2.2-.3-1.8-1.5-2.7-3.1-3.2-4-3-7.5-6.5-10.4-10.6-1.9-2.7-4-5.2-6.5-7.3-.5-.7-1-1.3-1.5-2 0-.5-.3-.7-.8-.7-.6-1.2-1.2-2.3-1.7-3.6-.5-1.1-1.1-2-2.6-1.9-.3-.2-.5-.3-.9-.2-1.5-.9-2.9-1.4-3.3 1.1l-.1.1c-.8 2.9-2.5 5.3-4.5 7.5-2.4 2.6-4.7 5.1-7.1 7.6-4.6 4.7-9.1 9.6-14.6 13.3-.3.3-.4.6-.3 1-1.7 1-2.4 2.601-3.1 4.301-.5 1.3-.2 2.3 1.2 2.8 2.2-1.4 4.3-2.8 4.6-5.8 1.7-1.4 3.5-2.8 5.1-4.4 6.9-6.8 14.1-13.2 19.9-21 1.6-1.6 3.3-1.4 4.9 0 .4.3.8.6 1.3 1 .1.6.4.9 1 1h.1c.1.6.4.9 1 1.1v.1c.1 3.1 2.9 4.2 4.5 6.2 2.8 3.7 5.3 7.8 9.2 10.5h.1c.3.4.6.7.8 1.1.2.8.3 1.6 1.2 2 0 .6.3 1 .9 1.2.2 1.4 1 2.3 2.4 2.8 1.4 1.1 2.9 2 .9 4-.8.8-1.4 2.3-.2 3.2 1.1.8 2.3-.3 3.1-1.1 1.6-1.5 3.1-3.2 4.7-4.8 1.1-.8 1.8-1.8 2-3.2.6-.1 1-.4 1-1l.1-.1c5.9-7 11.9-14.1 17.8-21.1 1.4-1 2.7-2.1 3.6-3.7 1-1.6 2.6-2.2 4.5-1.4 1.9 3.6 5.4 5.9 7.7 9.2 3.2 4.4 8 7.4 10.6 12.4.9.8 1.9 1.7 2.8 2.5.2.6.3 1.1.5 1.7.4.3.7.7 1.1 1 2.4.2 4.6 3.7 7.2.4 1.8-1.8 2.7-4.3 5-5.6 2.6-3.2 6-5.4 9.5-7.4.4-.3.8-.6 1.1-1 4.6-3.8 9.3-7.5 13.9-11.3 2.2 0 3.3 1.7 4.4 3.1 3.2 4 6.3 8.2 9.4 12.2.3.4.7.8 1 1.1 1.8.8 2.7 2.5 4 3.8 2 2.1 3.6 4.5 6.3 5.8.9 1.9 2.3 3 4.4 2.8.3 0 .9-.6.9-1.1.4-2.4-1.4-3.2-3.1-4.1-6.2-6.3-12.6-12.6-18.2-19.4-1.9-2.3-3.2-5-5.8-6.7-.1-1.2-1-2-1.6-2.9-.7.1-1.5.1-1.8.9-6.2 5.5-12.6 10.9-19.3 15.8-4.2 3.1-9.6 5.3-12.1 10.5-1.9.2-2.8-1.5-4.2-2.1-.1-.6-.5-.9-1.1-1-6.2-8.4-13.8-15.7-20.9-23.3-.5-1.2-1.3-1.8-2.8-1.6-4.3.8-6.3 3.8-8.1 7.2zm-26.1 24.3c-.1 0-.2 0-.3-.099h.3v.1zm-75.7-9.499c1 2.1 2.7 3.6 4.2 5.3.4.9 1 1.5 2 1.3.1.5.4.8.9 1 .8.9 1.5 1.9 2.4 2.7 1 1 2.2 1.9 3.5.4 1.3-1.6.6-2.8-1-3.7-.4-.2-.9-.5-1.3-.8-.5-.9-1.3-1.5-2.2-1.9 0-.1.1-.3.1-.4-1.3-2.8-3.5-4.9-5.7-6.9-2-1.8-4.3-3.4-5.3-6-2.8-4.7-7.1-8.1-10.3-12.4-.9-1.2-2.3-2.1-4.1-1.4v-.1c-.5.2-.8.6-1.1 1.1-1 4.5 3.6 4.7 5.3 7.2.2 1.1.9 1.8 2 2.1 1.1 1.4 1.3 3.4 3.2 4.2.3.5.6.8 1.1 1.1 1.3 2.5 3.7 4.1 5.3 6.3H19c.3.3.6.7 1.1.9zm613-21.7c-4.3.4-6.3 3.5-8.1 6.8-7.1 6.7-13.7 13.8-18.8 22.2v.1c-.6.1-.9.4-1 1h-.1c-.6 0-.9.4-1 1l-.1.1c-1 0-2 .1-3 .1h-.2c-.4-.9-.7-1.9-1.8-2.2-.3-1.8-1.5-2.7-3.1-3.2-4-3-7.5-6.5-10.4-10.6-1.9-2.7-4-5.2-6.5-7.3-.5-.7-1-1.3-1.5-2 0-.5-.3-.7-.8-.7-.6-1.2-1.2-2.3-1.7-3.6-.5-1.1-1.1-2-2.6-1.9-.3-.2-.5-.3-.9-.2-1.5-.9-2.9-1.4-3.3 1.1l-.1.1c-.8 2.9-2.5 5.3-4.5 7.5-2.4 2.6-4.7 5.1-7.1 7.6-4.6 4.7-9.1 9.6-14.6 13.3-.3.3-.4.6-.3 1-1.7 1-2.4 2.6-3.1 4.3-.5 1.3-.2 2.3 1.2 2.8 2.2-1.4 4.3-2.8 4.6-5.8 1.7-1.4 3.5-2.8 5.1-4.4 6.9-6.8 14.1-13.2 19.9-21 1.6-1.6 3.3-1.4 4.9 0 .4.3.8.6 1.3 1 .1.6.4.9 1 1h.1c.1.6.4.9 1 1.1v.1c.1 3.1 2.9 4.2 4.5 6.2 2.8 3.7 5.3 7.8 9.2 10.5h.1c.3.4.6.7.8 1.1.2.8.3 1.6 1.2 2 0 .6.3 1 .9 1.2.2 1.4 1 2.3 2.4 2.8 1.4 1.1 2.9 2 .9 4-.8.8-1.4 2.3-.2 3.2 1.1.8 2.3-.3 3.1-1.1 1.6-1.5 3.1-3.2 4.7-4.8 1.1-.8 1.8-1.8 2-3.2.6-.1 1-.4 1-1l.1-.1c5.9-7 11.9-14.1 17.8-21.1 1.4-1 2.7-2.1 3.6-3.7 1-1.6 2.6-2.2 4.5-1.4 1.9 3.6 5.4 5.9 7.7 9.2 3.2 4.4 8 7.4 10.6 12.4.9.8 1.9 1.7 2.8 2.5.2.6.3 1.1.5 1.7.4.3.7.7 1.1 1 2.4.2 4.6 3.7 7.2.4 1.8-1.8 2.7-4.3 5-5.6 2.6-3.2 6-5.4 9.5-7.4.4-.3.8-.6 1.1-1 4.6-3.8 9.3-7.5 13.9-11.3 2.2 0 3.3 1.7 4.4 3.1 3.2 4 6.3 8.2 9.4 12.2.3.4.7.8 1 1.1 1.8.8 2.7 2.5 4 3.8 2 2.1 3.6 4.5 6.3 5.8.9 1.9 2.3 3 4.4 2.8.3 0 .9-.6.9-1.1.4-2.4-1.4-3.2-3.1-4.1-6.2-6.3-12.6-12.6-18.2-19.4-1.9-2.3-3.2-5-5.8-6.7-.1-1.2-1-2-1.6-2.9-.7.1-1.5.1-1.8.9-6.2 5.5-12.6 10.9-19.3 15.8-4.2 3.1-9.6 5.3-12.1 10.5-1.9.2-2.8-1.5-4.2-2.1-.1-.6-.5-.9-1.1-1-6.2-8.4-13.8-15.7-20.9-23.3-.6-.8-1.4-1.3-2.8-1.2zm-34.2 31.2c-.1 0-.2 0-.3-.1h.3v.1zM377 66.76c-.5.7-.9 1.4-1.3 2.1-.3.4-.7.7-1 1.1-3.1 2.5-6.3 5-9.3 7.6-4.9 4.2-9.7 8.5-14.7 12.6-1.5 1.2-3.2 3.1-5.4.8l-2.1-2.1c-.1-.5-.5-.9-1-1v-.1c-2.7-3.6-6-6.6-9.5-9.4-4.5-4.7-8.4-9.9-13.6-13.9-.6-.8-1.3-1.2-2.2-.8-1.3.5-2.8.8-3.5 2.1-1.8 3.3-5 5.3-7.1 8.3-4 3.1-7.7 6.6-12.5 8.6-.8 1.1-1.7 1.9-3.1 2.2-1.1 2.3-3.6 2.7-5.5 3.9 0 0 0 .1.1.1-.3-.1-.5-.2-.8-.2 0 0 0-.1-.1-.1-.3-.3-.7-.6-1-.9-3.2-4.1-7.7-6.9-11-10.9-4-4.8-8.3-9.2-13.4-12.8-1.6-1.4-3.2-2.5-4.4.5-3.3 5.4-7.3 10.1-12.4 13.9-2.2 2.4-4.3 4.7-6.5 7.1l.1.1c-.6.1-1 .5-1.2 1.1-1.8.8-2.7 3-4.9 3.3-.1.6-.2 1.1-.2 1.7l-.1.2c-.6.1-.9.4-1 1l-.1.1c-1 .4-1.6 1.1-2 2.1l-2.7 2.4c-1.2 1-1.1 2.2-.2 3.201.9 1 2 .5 2.8-.2 1.2-1 2.3-2.1 3.4-3.1 0-.3 0-.7.1-1 .8-.5 1.1-1.2 1.1-2.1 3.2-2.4 6-5.2 8.3-8.5 2.1-2.5 4.6-4.5 7.2-6.4 3.3-3.5 6.9-6.6 9.6-10.5 1.5-1.1 2.8-.6 4.2.5 4.2 3.2 8 6.5 10.8 11.1.3.4.7.7 1 1.1.7.7 1.5 1.3 2.2 2 2.6 1 3.1 4 5.1 5.5.3.4.7.7 1 1.1.3 0 .6.1.9.1.3.4.7.7 1 1.1 1.3 1 1.4 4.7 4.4 2 .9-.4 1.7-1 2.1-2 4.9-3.6 9.2-7.8 14.5-10.8.4-.3.8-.6 1.1-1 .7-1.1 1.7-1.9 3-2.2.1-.3.1-.6.1-.9.9-.9 1.8-1.9 3.2-2.2.4-.3.8-.6 1.1-.9 1.7-2 3.4-4 5.1-6.1 4.2 3.8 8.5 7.6 12.7 11.4l1.1 1.1v.1c.1.6.2 1.1.4 1.7 1.9.4 2.9 2 4.1 3.3.3.4.7.7 1.1 1.1 1.3 1.1 2.6 2.3 3.9 3.4l.1.1c-.1.9.2 1.6 1.1 2 .9 1.9 2.9 3.1 3.3 5.3-.3 1.7-.5 3.6 2.1 2.2 1.3-.7 2.7-1.7 3.2-3.3 1.6-1.2 2.9-2.9 5-3.4.4-.3.7-.7 1.1-1 .3-.4.7-.7 1-1.1.3-.4.7-.7 1-1.1.7-.7 1.5-1.3 2.2-2 2.3-3 5.5-5 8.3-7.5 1.5-1.7 3.1-3.4 5.2-4.3.8-.9 1.6-1.9 2.4-2.8.6-.1.9-.5 1.1-1.1 1-.7 2-1.5 3.1-2.2 4.7 2.1 8 5.9 11.7 9.3 3 1 5 3.3 6.6 5.7 1.9 2.8 4.3 4.9 6.6 7.2 3.7 6.5 5.2 6.7 10 1.1 1.9-1.2 3.4-2.9 5-4.4 2.3-2.3 4.1-5.1 7.3-6.5.3-.4.7-.7 1-1.1 1.2-1.7 2.6-3 4.4-4 1.6-2.6 4.7-3.7 6.3-6.3.4-.3.7-.6 1.1-.9 3.3.4 5.3 2.9 7.4 5 .4.3.7.7 1.1 1 1 .4 1.7 1.1 2.1 2.1.3.4.7.7 1 1.1.4.3.7.7 1.1 1 .3.4.7.7 1 1.1 1.2.5 2.4 1 3.1 2.2 1.3.6 2 1.7 2.2 3 1.7.7 3 1.8 4.1 3.3 2.3 1.2 3.4 3.6 5.1 5.4 1.8 2.1 3.6 1.7 5.5 0l11.4-8.7c.3-.4.6-.8 1-1.1l1.2-.9c1.1-1.4 2.3-2.7 4.1-3.3 3.7-2.5 6.5-6.2 10.5-8.4.3-.4.7-.7 1-1.1.4-1.5 1.8-2.5 2.6-3.7.2-.3.4-.6.6-1 1.2 1.4 3.5 2.1 4.6 3.6.2 1.1.9 1.8 2 2.1 1.1 1.4 1.3 3.4 3.2 4.2.3.5.6.8 1.1 1.1 1.3 2.5 3.7 4.1 5.3 6.3h-.1c.3.5.6.8 1.1 1.1v-.1c.9 2.1 2.7 3.7 4.2 5.3.4.9 1 1.5 2 1.3.1.5.4.8.9 1 .8.9 1.5 1.9 2.4 2.7 1 1 2.2 1.9 3.5.4 1.3-1.6.6-2.8-1-3.7-.4-.2-.9-.5-1.3-.8-.5-.9-1.3-1.5-2.2-1.9 0-.1.1-.3.1-.4-1.3-2.8-3.5-4.9-5.7-6.9-2-1.8-4.3-3.4-5.3-6-2.8-4.7-7.1-8.1-10.3-12.4-.9-1.2-2.3-2.1-4.1-1.4v-.1c-.5.2-.8.6-1.1 1.1-.1.5-.1.9-.1 1.3-.9-.2-1.4 1-2.1 1.5-.3.2-.5.4-.8.6-.7 2.2-2.3 3.4-4.4 4.1-.4.3-.7.7-1.1 1-2.1 2.2-3.9 4.9-7.2 5.4-.3 1.1-1.2 1.6-2 2.3-5.1 4-10.1 8.1-15.2 12.1-.3 0-.6.1-.9.3-.4 0-.7 0-1.1-.1-.2-.2-.5-.3-.8-.3-7-8.1-15.8-14.3-23.3-21.9h-.1c-.1-.6-.5-.9-1-1-.1-.6-.4-.9-1-1.1-.3-.4-.6-.9-.9-1.3-.6-1.5-1.8-1.8-3.3-1.6-.9 1.2-2.2 2.1-2.4 3.7-8.7 7.8-17.8 15.1-26.1 23.4-1 .7-2.1.6-3.1 0-2.8-3.5-6.7-6.1-8.7-10.3-6.1-4.4-11.2-9.9-17.6-14-3.3-3-3.3-3-5.4-.1zM92.5 3.661c-5 5.8-9.8 11.7-15.3 17.1-2 1.9-4.4 3.5-5.8 6-1.7 2-3.5 2.4-5.6.6-.8-.7-1.7-1.1-2.6-1.7-.2-.6-.6-.9-1.2-.9-7.1-5.6-14.1-11.4-20.5-17.8-1-1-1.9-2.1-3.4-2.4-.4-.3-.7-.7-1.1-1l-.3.3.3-.3c-.5-2.6-2.5-2.1-4.3-1.9-.1.3-.1.6-.1.9-.7.5-1 1.3-1.2 2.1-.6.1-.9.4-1.1 1-.6.1-.9.5-.9 1.1l-.1.1-3 3.3c-.8.3-1.2 1-1.2 1.9H25c-2.3 1.5-4.7 2.9-6.2 5.3-5.7 4.5-11 9.4-15.9 14.7-.3 0-.6.1-1 .1 0 .3-.1.6-.1.9-.3.1-.6.2-.9.2-.5 1.3-.9 2.7.5 3.6 1.4.9 2.1-.7 3-1.3.3-.2.5-.7.7-1.1 1.1.2 1.5-.7 2-1.4 4.8-3 8.3-7.2 11.5-11.7.8-.9 1.5-1.9 2.3-2.8 2.1-1.4 3.8-3.2 5.2-5.2 1.7-1.1 3.2-2.4 4.3-4.1l1.1-1.1v-.4c.1.1.1.2.2.3.8-.2 1.5-.6 1.9-1.3-.1 0-.2-.1-.2-.1h.1l.1.2c.4-.3.8-.6 1.3-.9l-.4-.2c.1-.1.2-.2.3-.2.1.1.1.2.2.4.3 0 .5.1.8.1 8.1 6.9 15.2 15.1 24.4 20.8l.1.1c.3.8 1 1.1 1.8 1.3 1.1 1.1 2 2.3 3.2 3.4 3.1 2.8 4.3 2.6 6.8-1.1.3-.4.5-.9.8-1.3 7.9-6.5 14-14.7 20.8-22.3 1.2-1 1.8-2.3 2.2-3.7.7.6 1.4 1.1 2.1 1.7 5.5 10.1 15 16.6 22.1 25.2.1.6.4.9 1 1l.1.1c0 .6.4.9 1 1l.1.1c.1.5.4.8.9.9 1.1 1.5 2.6 3.6 4.4 1.7 1.5-1.5-.5-2.9-1.9-3.9-.4-.3-.9-.6-1.3-.9-.4-.7-1.1-1.1-2-1.2v-.1c-.5-2.2-2.3-3.4-3.7-4.9-6.7-7.3-13.9-14-19.5-22.2-.4-.8-1-1.6-1.9-1.3-1.1.3-1.6 1.2-1.3 2.4-1.6-.8-2.9-1.3-3.5.8zm97 25.3c-6.9-5.7-13-12.2-18.7-19-1.5-1.7-3.2-3.2-5.3-4.3h-.1c-.1-.6-.5-.9-1-1.1-.1-.8-.5-1.4-1.3-1.8-1.2-1.2-2.5-1.5-4.1-.5-2 1.3-3.3 2.9-3.5 5.3-2.6 2.6-5.4 5-7.7 7.8-3.5 4.3-8.5 7.3-11.1 12.3v.1c-.6.1-.9.5-1 1-.6.1-.9.5-1 1.1-.4.3-.8.6-1.1.9-.7.5-1.4 1-2 1.5-1.1 1-2.8 2.2-1.3 3.8 1.8 2 2.9-.1 4.1-1.1.2-.2.3-.6.5-.9.7-.5 1.1-1.1 1.1-2 .6-.1.9-.5 1-1.1.6-.1.9-.4.9-1.1l.1-.1c.5-.1.8-.5.9-1l.1-.1c3.5-3.6 6.9-7.3 10.4-10.9 2.5-2.6 5.5-4.8 7.5-8h.1c.6-.1 1-.4 1.1-.9 1.6-.7 1.9-3.1 3.9-3.1l1.2.9v.1c3.1 3.1 6.4 5.9 9.1 9.2 4.5 5.6 9.3 10.7 14.9 15.1.8 1.3 1.9 2.4 3.2 3.2 1.6 3.6 1.7 3.6 4.4.8.7-.5 1.1-1.1 1.1-2h.1c5-5.1 10-10.2 14.9-15.4 2.7-2.9 6.1-5.3 8.2-8.8 1.6-.7 1.9-3.1 4.1-3.1.6 1.3 1.6 2.2 2.7 3.2 5.3 5 11.1 9.6 16.2 14.8 2.4 2.4 4.2 5.6 7.5 7.1 3.3 3.4 3.3 3.4 7.3-.1 2.1-2.4 4.7-4.4 7.3-6.3 4.5-3.1 9.3-5.9 12.6-10.5l.1-.1c.3-.3.7-.6 1-.9l.1-.1c.6-.1.9-.4 1-.9.3-.4.6-.7 1-1 .6-.1.9-.5 1.1-1 1.4-1.5 2.8-3 4.2-4.4.7.1 1.3.2 2 .2.4.3.7.6 1 .9l.2.2c.1.5.4.8.9.9l.1.1c3.8 4.1 7.4 8.3 11.5 12.1 4.4 4.2 8.1 9 12.5 13.2.6 1.5 1.4 2.7 3.3 1.9 1.6-2.8 3.1-5.6 6.3-7 .6-.3.8-1.5 1.2-2.2 1.9-2.3 3.2-5.1 5.9-6.7.8-2.3 2.7-3.6 4.5-5 2.3-1.9 4.7-3.7 6.4-6.2v-.1c.6-.1.9-.5 1-1 .6-.1 1-.5 1.2-1 1.4-.6 1.9-2.6 3.7-2.6 2.4 2 3.8 5 6.5 6.8.1.6.5.9 1 1 .1.6.4 1 1 1.1v.1c.8 1.7 2 3.2 3.4 4.4 3.2 2.6 5.7 5.9 8.3 9 .4.3.8.7 1.1 1 1.6 1.5 3.3 3.1 4.9 4.6 0 .3.2.6.5.8.2.4.4.7.7.9.7.7 1.5 1.4 2.2 2.1 1.4-.1 2.3-.6 2.3-2.1 0-2.2-1.6-2.8-3.3-3.4-1.5-2-3.7-3.3-4.6-5.7-.9-.5-1.6-1.2-2.1-2.1-.3-.4-.7-.7-1-1.1-2.3-2-4.3-4.1-6.2-6.4-.4-.3-.8-.7-1.1-1-.6-.2-.9-.5-1-1.1-1-.7-2-1.5-3-2.2v-.1c-.1-.6-.4-1-1-1.1 0-.8-.3-1.5-1.1-1.9-1.9-4.8-5-7.6-10.5-6.3l-4.5 6c-.7.4-1.6.8-2.2 1.3-3.9 3.6-7.4 7.6-12.2 10.2-2.1 1.1-4.2 3-5.1 5.6-1.3 2.6-2.5 5.2-5.5 6.3-2.9-3-5.7-6.1-8.8-8.9-5-4.5-8.8-10.3-14.3-14.4-.1-.6-.5-.9-1-1.1-.1-.6-.4-.9-1-1.1-.1-.6-.4-1-1-1.1-.1-.6-.5-1-1-1.3-.2-.5-.5-.8-1-.8-.4-.5-.9-.6-1.2.1-.6.1-.9.5-1.1 1-1.9 1.3-3.5 2.8-4.3 5.1-.4.4-.7.8-1.1 1.2-.3.3-.7.6-1 .8-.3.4-.6.8-1 1.3-.6.1-.9.5-1 1h-.1c-2.7 3.3-6.2 5.6-9.6 8-3.1 2.1-6.6 3.9-9.2 6.7-.4 0-.7.1-1 .3-.6-.1-1 .1-1.2.7-1.7 1.3-3.3 1.6-5 .1-7.4-7.6-15-15-22.2-22.8-2.5-2.7-4.5-3.3-7.5-1.5-.6.5-1.3 1-1.9 1.5-.5 0-.8.2-.9.7l-.1.1c-1.6 2-2.7 4.3-4.5 6.2-6.3 6.3-12.4 12.6-18.6 19-.3-.2-.6-.2-.9-.1-.2-.6-.6-.8-1.2-.8-.2-.2-.5-.3-.8-.3-.7 0-1.1-.3-1.5-.6zm233.4-18.7c-.4-.3-.7-.7-1.1-1-1.3-.8-2.4-1.8-3.1-3.2-.3-.4-.7-.7-1-1.1-2.3-.8-3.6-2.7-5.1-4.4-3 .7-3 .7-1.9 4.1 5 2.5 8 7.4 12.3 10.8.2.5.5.9 1.1 1l.1.1c1.4 2.1 3 4 5.3 5.2 1.3 3.2 4.2 4.9 6.3 7.3.3 1 1 1.7 1.9 2.3.7 1.9 1.8 3.6 3.9 3.7 2.1.1 2.6-1.9 2.9-3.7 4.5-4.2 8-9.3 12.8-13.1 3.4-2.7 6.8-5.5 10.1-8.2 2.8-.7 4.1-4 7.2-4.2 2.8 3.8 6.9 6.5 9.6 10.5 5.5 4.6 10.2 10 14.8 15.6.8 1 1.5 2.1 2.3 3.1 1.7 0 3.1 3.5 4.8 1.3.2.2.3.4.6.6 1.4.9 2.1-.7 3-1.3.3-.2.5-.7.7-1.1 1.1.2 1.5-.7 2-1.4 4.8-3 8.3-7.2 11.5-11.7.8-.9 1.5-1.9 2.3-2.8 2.1-1.4 3.8-3.2 5.2-5.2 1.7-1.1 3.2-2.4 4.3-4.1l1.1-1.1-.3-.3v-.1c.1.1.1.2.2.3.8-.2 1.5-.6 1.9-1.3-.1 0-.2-.1-.2-.1h.1l.1.2c.4-.3.8-.6 1.3-.9l-.4-.1c.1-.1.2-.2.3-.2.1.1.1.2.2.4.3 0 .5.1.8.1 8.1 6.9 15.2 15.1 24.4 20.8l.1.1c.3.8 1 1.1 1.8 1.3 1.1 1.1 2 2.3 3.2 3.4 3.1 2.8 4.3 2.6 6.8-1.1.3-.4.5-.9.8-1.3 7.9-6.5 14-14.7 20.8-22.3 1.2-1 1.8-2.3 2.2-3.7.7.6 1.4 1.1 2.1 1.7 5.5 10.1 15 16.6 22.1 25.2.1.6.4.9 1 1l.1.1c0 .6.4.9 1 1l.1.1c.1.5.4.8.9.9 1.1 1.5 2.6 3.6 4.4 1.7 1.5-1.5-.5-2.9-1.9-3.9-.4-.3-.9-.6-1.3-.9-.4-.7-1.1-1.1-2-1.2v-.1c-.5-2.2-2.3-3.4-3.7-4.9-6.7-7.3-13.9-14-19.5-22.2-.4-.8-1-1.6-1.9-1.3-1.1.3-1.6 1.2-1.3 2.4-1.3-.6-2.6-1.1-3.2.9-5 5.8-9.8 11.7-15.3 17.1-2 1.9-4.4 3.5-5.8 6-1.7 2-3.5 2.4-5.6.6-.8-.7-1.7-1.1-2.6-1.7-.2-.6-.6-.9-1.2-.9-7.2-5.6-14.2-11.4-20.7-17.7-1-1-1.9-2.1-3.4-2.4-.4-.3-.7-.7-1.1-1l-.3.3.3-.3c-.5-2.6-2.4-2.1-4.2-1.9-.1.3-.1.6-.1.9-.7.5-1 1.3-1.2 2.1-.6.1-.9.4-1.1 1-.6.1-.9.5-.9 1.1l-.1.1-3 3.3c-.8.3-1.2 1-1.2 1.9h-.1c-2.3 1.5-4.7 2.9-6.2 5.3-5.7 4.5-11 9.4-15.9 14.7-.3 0-.6.1-1 .1 0 .3-.1.6-.1.9-.3.1-.6.2-.9.2-.7-.8-1.8-1.3-2.5-2.1-.1-.1-.3-.1-.5-.2-.5-.6-.9-1.2-1.4-1.8-2.8-2.5-5.6-5-7.5-8.4-2.8-2.1-5.6-4.2-7.2-7.4-.3-.4-.7-.7-1-1.1-.4-.3-.7-.7-1.1-1-.4-.3-.7-.7-1.1-1-.4-.3-.7-.7-1.1-1-.3-.4-.7-.7-1-1.1-.9-.5-1.6-1.2-2-2.2-.3-.4-.7-.7-1-1.1-.5-.2-.9-.5-1-1.1-.6-.4-1.3-.9-1.9-1.3-1.4-1.6-2.6-.7-4 .1-2.6 1.7-4.7 3.9-6.7 6.2-2.6.2-3.7 3-6.1 3.4l-1.2.9c-.7 1.2-1.7 1.9-3.1 2.2-.3.4-.7.7-1 1.1-.4.3-.7.7-1.1 1-3.2 3.4-6.4 6.9-9.5 10.3l-.1.1c-.5.3-.9.5-1.4.8-.3 0-.5.1-.7.3-2.8-.9-3.6-4.2-6.2-5.4-.4-.7-.8-1.4-1.1-2-1.3-.8-2.4-1.8-3.2-3.2-1.3-1.1-2.7-2.3-4-3.4-1.2-1.8-2.3-3.4-3.5-5z"/><path fill="#FBF4A0" d="m279.9 11.061-1 1c.6-.1.9-.4 1-1zm127-8.8c-1.1-.5-1.6.8-2.2 1.6-.8 1.1-1.2 2.4-2.4 3.2-.4.3-.7.7-1.1 1l-5.3 5.3c-2.6 4.3-6.5 7.6-8.8 12.1-1.5 1.7-3.7 2.9-4 5.5l-.1.1c-.8 0-1.5.2-1.7 1.1-.2.3-.3.6-.5.9-1.1.8-1 1.5 0 2.3 1.8 1.7 2.5.1 3.4-1 .3-.1.6-.1.8-.2 0-.7 0-1.3-.1-2 .2-.3.3-.6.3-1 1.6-1 2.3-2.7 3.2-4.2.6-.4 1.3-.9 1.9-1.3 4-5.1 7.6-10.5 12.5-14.7 1-1.8 2.7-2.8 4.2-4.1.2-.5.3-1 .5-1.4.8-1.4.5-2.7-.6-3.2zm287.7 26.7c-6.9-5.7-13-12.2-18.7-19-1.5-1.7-3.2-3.2-5.3-4.3h-.1c-.1-.6-.5-.9-1-1.1-.1-.8-.5-1.4-1.3-1.8-1.2-1.2-2.5-1.5-4.1-.5-2 1.3-3.3 2.9-3.5 5.3-2.6 2.6-5.4 5-7.7 7.8-3.5 4.3-8.5 7.3-11.1 12.3v.1c-.6.1-.9.5-1 1-.6.1-.9.5-1 1.1-.4.3-.8.6-1.1.9-.7.5-1.4 1-2 1.5-1.1 1-2.8 2.2-1.3 3.8 1.8 2 2.9-.1 4.1-1.1.2-.2.3-.6.5-.9.7-.5 1.1-1.1 1.1-2 .6-.1.9-.5 1-1.1.6-.1.9-.4.9-1.1l.1-.1c.5-.1.8-.5.9-1l.1-.1c3.5-3.6 6.9-7.3 10.4-10.9 2.5-2.6 5.5-4.8 7.5-8h.1c.6-.1 1-.4 1.1-.9 1.6-.7 1.9-3.1 3.9-3.1l1.2.9v.1c3.1 3.1 6.4 5.9 9.1 9.2 4.5 5.6 9.3 10.7 14.9 15.1.8 1.3 1.9 2.4 3.2 3.2 1.6 3.6 1.7 3.6 4.4.8.7-.5 1.1-1.1 1.1-2h.1c5-5.1 10-10.2 14.9-15.4 2.7-2.9 6.1-5.3 8.2-8.8 1.6-.7 1.9-3.1 4.1-3.1.6 1.3 1.6 2.2 2.7 3.2 5.3 5 11.1 9.6 16.2 14.8 2.4 2.4 4.2 5.6 7.5 7.1 3.3 3.4 3.3 3.4 7.3-.1 2.1-2.4 4.7-4.4 7.3-6.3 4.5-3.1 9.3-5.9 12.6-10.5l.1-.1c.3-.3.7-.6 1-.9l.1-.1c.6-.1.9-.4 1-.9.3-.4.6-.7 1-1 .6-.1.9-.5 1.1-1 1.4-1.5 2.8-3 4.2-4.4.7.1 1.3.2 2 .2.4.3.7.6 1 .9l.2.2c.1.5.4.8.9.9l.1.1c3.8 4.1 7.4 8.3 11.5 12.1 4.4 4.2 8.1 9 12.5 13.2.6 1.5 1.4 2.7 3.3 1.9 1.6-2.8 3.1-5.6 6.3-7 .6-.3.8-1.5 1.2-2.2 1.9-2.3 3.2-5.1 5.9-6.7.8-2.3 2.7-3.6 4.5-5 2.3-1.9 4.7-3.7 6.4-6.2v-.1c.6-.1.9-.5 1-1 .6-.1 1-.5 1.2-1 1.4-.6 1.9-2.6 3.7-2.6 2.4 2 3.8 5 6.5 6.8.1.6.5.9 1 1 .1.6.4 1 1 1.1v.1c.8 1.7 2 3.2 3.4 4.4 3.2 2.6 5.7 5.9 8.3 9 .4.3.8.7 1.1 1 1.6 1.5 3.3 3.1 4.9 4.6 0 .3.2.6.5.8.2.4.4.7.7.9.7.7 1.5 1.4 2.2 2.1 1.4-.1 2.3-.6 2.3-2.1 0-2.2-1.6-2.8-3.3-3.4-1.5-2-3.7-3.3-4.6-5.7-.9-.5-1.6-1.2-2.1-2.1-.3-.4-.7-.7-1-1.1-2.3-2-4.3-4.1-6.2-6.4-.4-.3-.8-.7-1.1-1-.6-.2-.9-.5-1-1.1-1-.7-2-1.5-3-2.2v-.1c-.1-.6-.4-1-1-1.1 0-.8-.3-1.5-1.1-1.9-1.9-4.8-5-7.6-10.5-6.3l-4.5 6c-.7.4-1.6.8-2.2 1.3-3.9 3.6-7.4 7.6-12.2 10.2-2.1 1.1-4.2 3-5.1 5.6-1.3 2.6-2.5 5.2-5.5 6.3-2.9-3-5.7-6.1-8.8-8.9-5-4.5-8.8-10.3-14.3-14.4-.1-.6-.5-.9-1-1.1-.1-.6-.4-.9-1-1.1-.1-.6-.4-1-1-1.1-.1-.6-.5-1-1-1.3-.2-.5-.5-.8-1-.8-.4-.5-.9-.6-1.2.1-.6.1-.9.5-1.1 1-1.9 1.3-3.5 2.8-4.3 5.1-.4.4-.7.8-1.1 1.2-.3.3-.7.6-1 .8-.3.4-.6.8-1 1.3-.6.1-.9.5-1 1h-.1c-2.7 3.3-6.2 5.6-9.6 8-3.1 2.1-6.6 3.9-9.2 6.7-.4 0-.7.1-1 .3-.6-.1-1 .1-1.2.7-1.7 1.3-3.3 1.6-5 .1-7.4-7.6-15-15-22.2-22.8-2.5-2.7-4.5-3.3-7.5-1.5-.6.5-1.3 1-1.9 1.5-.5 0-.8.2-.9.7l-.1.1c-1.6 2-2.7 4.3-4.5 6.2-6.3 6.3-12.4 12.6-18.6 19-.3-.2-.6-.2-.9-.1-.2-.6-.6-.8-1.2-.8-.2-.2-.5-.3-.8-.3-.7 0-1.1-.3-1.5-.6z"/><path fill="#FBF4A0" d="m785 11.061-1 1c.6-.1.9-.4 1-1zm126.9-8.8c-1.1-.5-1.6.8-2.2 1.6-.8 1.1-1.2 2.4-2.4 3.2-.4.3-.7.7-1.1 1l-5.3 5.3c-2.6 4.3-6.5 7.6-8.8 12.1-1.5 1.7-3.7 2.9-4 5.5l-.1.1c-.8 0-1.5.2-1.7 1.1-.2.3-.3.6-.5.9-1.1.8-1 1.5 0 2.3 1.8 1.7 2.5.1 3.4-1 .3-.1.6-.1.8-.2 0-.7 0-1.3-.1-2 .2-.3.3-.6.3-1 1.6-1 2.3-2.7 3.2-4.2.6-.4 1.3-.9 1.9-1.3 4-5.1 7.6-10.5 12.5-14.7 1-1.8 2.7-2.8 4.2-4.1.2-.5.3-1 .5-1.4.8-1.4.6-2.7-.6-3.2zm-684.5 45.9c.1-2.7-2.1-5.1-4.8-5.2-2.8-.1-4.3 1.5-4.5 4.5-.1 2.9 1.9 5.8 4.1 5.8 2.3 0 5.2-2.8 5.2-5.1zm56 3.8c1.6 0 6.3-3.4 6.4-4.7 0-1.8-2.9-3.7-5.7-4-2.8-.5-4.4.2-4.9 2.2-.5 2.4 2.2 6.4 4.2 6.5zm-119.2-5.1c-.1-.6-.5-.9-1.1-.9-1-.7-2.1-1.1-3.3-1.3-3.7-.5-5.5 1.6-4.4 5.2 1 3.3 2.4 3.7 6.9 2.5 4.1-2 4.2-2.2 1.9-5.5zm-72.6 3.2c2 3.3 2.9 3.8 5.3 2.8 2.7-1.1 3.2-2.7 2.1-6.1-.6-1.4-1.8-2-3.3-2-2.1.1-4.3 0-4.2 3.1-.2.8-.2 1.5.1 2.2zm255.5-.4c2.2-.1 4.5-2.3 4.6-4.2 0-2-3.1-4.6-5.5-4.6-2.3 0-4.1 2.2-4 4.5.2 2.5 2.4 4.4 4.9 4.3zm60.3-2.401c.1 2.9 2.5 5.2 5.4 5.1 2.3-.1 4.9-2.1 4.8-3.8-.1-2.3-4.1-6.1-6.4-5.9-2.4.1-3.9 2-3.8 4.6zm70.6-3.899c.1-.2 0-.5-.2-.7-1-.5-1.8-1.3-3.1-1.1-2.8-1.2-4.7.3-6 2.5-1 1.6-.1 3 .9 4.3 1.4 1.9 3.2 1.7 5.1.7 3.1-.3 4.4-2.1 4.1-5.1h.1c-.3-.4-.6-.6-.9-.6zm-440.9 9c3.4-2.5 3.5-3 1.9-6.6-.3-.9-1.1-1.2-2-1.2-1.9-1.2-3.9-3-6-1.2-2 1.8-1.5 4.4-.6 6.8.2.4.7.7 1 1.1 1.5 2.2 3.4 2.8 5.7 1.1zm689.9-9.4c-2.8-.1-4.3 1.5-4.5 4.5-.1 2.9 1.9 5.8 4.1 5.8 2.3 0 5.1-2.8 5.2-5.1.1-2.7-2.1-5.1-4.8-5.2zm61.5.3c-2.8-.5-4.4.2-4.9 2.2-.6 2.4 2.2 6.5 4.2 6.5 1.6 0 6.3-3.4 6.4-4.7 0-1.8-2.9-3.7-5.7-4zm-119.9 3.6c-.1-.6-.5-.9-1.1-.9-1-.7-2.1-1.1-3.3-1.3-3.7-.5-5.5 1.6-4.4 5.2 1 3.3 2.4 3.7 6.9 2.5 4.1-2 4.1-2.2 1.9-5.5zm-72.6 3.2c2 3.3 2.9 3.8 5.3 2.8 2.7-1.1 3.2-2.7 2.1-6.1-.6-1.4-1.8-2-3.3-2-2.1.1-4.3 0-4.2 3.1-.2.8-.2 1.5.1 2.2zm250.6-4.7c.2 2.5 2.4 4.4 4.9 4.3 2.2-.1 4.5-2.3 4.6-4.2 0-2-3.1-4.6-5.5-4.6-2.3 0-4.2 2.2-4 4.5zm68.9-2.701c-2.3.1-3.9 2-3.8 4.6.1 2.9 2.5 5.2 5.4 5.1 2.3-.1 4.9-2.1 4.8-3.8 0-2.3-4.1-6.1-6.4-5.9zm66.7.001c-1-.5-1.9-1.4-3.1-1.2-2.8-1.2-4.7.3-6 2.5-1 1.6-.1 3 .9 4.3 1.4 1.9 3.2 1.7 5.1.7 3.1-.3 4.4-2.1 4.1-5.1h.1c-.2-.3-.5-.4-.8-.5 0-.2-.1-.5-.3-.7zm-440.7 9.7c3.4-2.5 3.5-3 1.9-6.6-.3-.9-1.1-1.2-2-1.2-1.9-1.2-3.9-3-6-1.2-2 1.8-1.5 4.4-.6 6.8.2.4.7.7 1 1.1 1.5 2.2 3.4 2.8 5.7 1.1zm534.5 10.4h-.7c-.3-.2-.5-.3-.9-.2-1.5-.9-2.9-1.4-3.3 1.1l-.1.1c-.8 2.9-2.5 5.3-4.5 7.5-2.4 2.6-4.7 5.1-7.1 7.6-4.6 4.7-9.1 9.6-14.6 13.3-.3.3-.4.6-.3 1-1.7 1-2.4 2.6-3.1 4.3-.5 1.3-.2 2.3 1.2 2.8 2.2-1.4 4.3-2.8 4.6-5.8 1.7-1.4 3.5-2.8 5.1-4.4 6.9-6.8 14.1-13.2 19.9-21 .9-.9 1.8-1.2 2.7-1.1.3-1.4.8-2.7 1.3-4-.1-.3-.2-.7-.2-1.2zm-126.6 6.1c-.2-.6-.5-.9-1.1-1-.1-.6-.4-.9-1-1.1-.3-.4-.6-.9-.9-1.3-.6-1.5-1.8-1.8-3.3-1.6-.9 1.2-2.2 2.1-2.4 3.7-8.7 7.8-17.8 15.1-26.1 23.4-1 .7-2.1.6-3.1 0-2.8-3.5-6.7-6.1-8.7-10.3-6.1-4.4-11.2-9.9-17.6-14-3-2.9-3-2.9-5.1 0-.5.7-.9 1.4-1.3 2.1-.3.4-.7.7-1 1.1-3.1 2.5-6.3 5-9.3 7.6-4.9 4.2-9.7 8.5-14.7 12.6-1.5 1.2-3.2 3.1-5.4.8l-2.1-2.1c-.1-.5-.5-.9-1-1v-.1c-2.7-3.6-6-6.6-9.5-9.4-4.5-4.7-8.4-9.9-13.6-13.9-.6-.8-1.3-1.2-2.2-.8-1.3.5-2.8.8-3.5 2.1-1.8 3.3-5 5.3-7.1 8.3-4 3.1-7.7 6.6-12.5 8.6-.8 1.1-1.7 1.9-3.1 2.2-1.1 2.3-3.6 2.7-5.5 3.9 0 0 0 .1.1.1-.3-.1-.5-.2-.8-.2 0 0 0-.1-.1-.1-.3-.3-.7-.6-1-.9-3.2-4.1-7.7-6.9-11-10.9-4-4.8-8.3-9.2-13.4-12.8-1.6-1.4-3.2-2.5-4.4.5-3.3 5.4-7.3 10.1-12.4 13.9-2.2 2.4-4.3 4.7-6.5 7.1l.1.1c-.6.1-1 .5-1.2 1.1-1.8.8-2.7 3-4.9 3.3-.1.6-.2 1.1-.2 1.7l-.1.2c-.6.1-.9.4-1 1l-.1.1c-1 .4-1.6 1.1-2 2.1l-2.7 2.4c-1.2 1-1.1 2.2-.2 3.2.9 1 2 .5 2.8-.2 1.2-1 2.3-2.1 3.4-3.1 0-.3 0-.7.1-1 .8-.5 1.1-1.2 1.1-2.1 3.2-2.4 6-5.2 8.3-8.5 2.1-2.5 4.6-4.5 7.2-6.4 3.3-3.5 6.9-6.6 9.6-10.5 1.5-1.1 2.8-.6 4.2.5 4.2 3.2 8 6.5 10.8 11.1.3.4.7.7 1 1.1.7.7 1.5 1.3 2.2 2 2.6 1 3.1 4 5.1 5.5.3.4.7.7 1 1.1.3 0 .6.1.9.1.3.4.7.7 1 1.1 1.3 1 1.4 4.7 4.4 2 .9-.4 1.7-1 2.1-2 4.9-3.6 9.2-7.8 14.5-10.8.4-.3.8-.6 1.1-1 .7-1.1 1.7-1.9 3-2.2.1-.3.1-.6.1-.9.9-.9 1.8-1.9 3.2-2.2.4-.3.8-.6 1.1-.9 1.7-2 3.4-4 5.1-6.1 4.2 3.8 8.5 7.6 12.7 11.4l1.1 1.1v.1c.1.6.2 1.1.4 1.7 1.9.4 2.9 2 4.1 3.3.3.4.7.7 1.1 1.1 1.3 1.1 2.6 2.3 3.9 3.4l.1.1c-.1.9.2 1.6 1.1 2 .9 1.9 2.9 3.1 3.3 5.3-.3 1.7-.5 3.6 2.1 2.2 1.3-.7 2.7-1.7 3.2-3.3 1.6-1.2 2.9-2.9 5-3.4.4-.3.7-.7 1.1-1 .3-.4.7-.7 1-1.1.3-.4.7-.7 1-1.1.7-.7 1.5-1.3 2.2-2 2.3-3 5.5-5 8.3-7.5 1.5-1.7 3.1-3.4 5.2-4.3.8-.9 1.6-1.9 2.4-2.8.6-.1.9-.5 1.1-1.1 1-.7 2-1.5 3.1-2.2 4.7 2.1 8 5.9 11.7 9.3 3 1 5 3.3 6.6 5.7 1.9 2.8 4.3 4.9 6.6 7.2 3.7 6.5 5.2 6.7 10 1.1 1.9-1.2 3.4-2.9 5-4.4 2.3-2.3 4.1-5.1 7.3-6.5.3-.4.7-.7 1-1.1 1.2-1.7 2.6-3 4.4-4 1.6-2.6 4.7-3.7 6.3-6.3.4-.3.7-.6 1.1-.9 3.3.4 5.3 2.9 7.4 5 .4.3.7.7 1.1 1 1 .4 1.7 1.1 2.1 2.1.3.4.7.7 1 1.1.4.3.7.7 1.1 1 .3.4.7.7 1 1.1 1.2.5 2.4 1 3.1 2.2 1.3.6 2 1.7 2.2 3 1.7.7 3 1.8 4.1 3.3 2.3 1.2 3.4 3.6 5.1 5.4 1.8 2.1 3.6 1.7 5.5 0l11.4-8.7c.3-.4.6-.8 1-1.1l1.2-.9c1.1-1.4 2.3-2.7 4.1-3.3 3.7-2.5 6.5-6.2 10.5-8.4.3-.4.7-.7 1-1.1.4-1.5 1.8-2.5 2.6-3.7.2-.2.3-.5.5-.8 1.3 1.3 3.4 2 4.4 3.4.2 1.1.9 1.8 2 2.1 1.1 1.4 1.3 3.4 3.2 4.2.3.5.6.8 1.1 1.1 1.3 2.5 3.7 4.1 5.3 6.3h-.1c.3.5.6.8 1.1 1.1v-.1c.9 2.1 2.7 3.7 4.2 5.3.4.9 1 1.5 2 1.3.1.5.4.8.9 1 .8.9 1.5 1.9 2.4 2.7 1 1 2.2 1.9 3.5.4 1.3-1.6.6-2.8-1-3.7-.4-.2-.9-.5-1.3-.8-.5-.9-1.3-1.5-2.2-1.9 0-.1.1-.3.1-.4-1.3-2.8-3.5-4.9-5.7-6.9-2-1.8-4.3-3.4-5.3-6-2.8-4.7-7.1-8.1-10.3-12.4-.9-1.2-2.3-2.1-4.1-1.4v-.1c-.5.2-.8.6-1.1 1.1-.1.5-.1.9-.1 1.2-.7.1-1.2 1-1.8 1.5-.3.2-.5.4-.8.6-.7 2.2-2.3 3.4-4.4 4.1-.4.3-.7.7-1.1 1-2.1 2.2-3.9 4.9-7.2 5.4-.3 1.1-1.2 1.6-2 2.3-5.1 4-10.1 8.1-15.2 12.1-.3 0-.6.1-.9.3-.4 0-.7 0-1.1-.1-.2-.2-.5-.3-.8-.3-7.3-8-16.1-14.3-23.6-21.9zm128.6-36.2c-.8-1.3-1.6-2.7-2.1-4.2-.7-.1-1.3-.5-2-1.1-.8-.7-1.7-1.1-2.6-1.7-.2-.6-.6-.9-1.2-.9-7.2-5.6-14.2-11.4-20.7-17.7-1-1-1.9-2.1-3.4-2.4-.4-.3-.7-.7-1.1-1l-.3.3.3-.3c-.5-2.6-2.4-2.1-4.2-1.9-.1.3-.1.6-.1.9-.7.5-1 1.3-1.2 2.1-.6.1-.9.4-1.1 1-.6.1-.9.5-.9 1.1l-.1.1-3 3.3c-.8.3-1.2 1-1.2 1.9h-.1c-2.3 1.5-4.7 2.9-6.2 5.3-5.7 4.5-11 9.4-15.9 14.7-.3 0-.6.1-1 .1v.1c-.5-.3-.9-.7-1.3-1-.1-.1-.3-.1-.5-.2-.5-.6-.9-1.2-1.4-1.8-2.8-2.5-5.6-5-7.5-8.4-2.8-2.1-5.6-4.2-7.2-7.4-.3-.4-.7-.7-1-1.1-.4-.3-.7-.7-1.1-1-.4-.3-.7-.7-1.1-1-.4-.3-.7-.7-1.1-1-.3-.4-.7-.7-1-1.1-.9-.5-1.6-1.2-2-2.2-.3-.4-.7-.7-1-1.1-.5-.2-.9-.5-1-1.1-.6-.4-1.3-.9-1.9-1.3-1.4-1.6-2.6-.7-4 .1-2.6 1.7-4.7 3.9-6.7 6.2-2.6.2-3.7 3-6.1 3.4l-1.2.9c-.7 1.2-1.7 1.9-3.1 2.2-.3.4-.7.7-1 1.1-.4.3-.7.7-1.1 1-3.2 3.4-6.4 6.9-9.5 10.3l-.1.1c-.5.3-.9.5-1.4.8-.3 0-.5.1-.7.3-2.8-.9-3.6-4.2-6.2-5.4-.4-.7-.8-1.4-1.1-2-1.3-.8-2.4-1.8-3.2-3.2-1.3-1.1-2.7-2.3-4-3.4-1.2-1.6-2.4-3.2-3.5-4.8-.4-.3-.7-.7-1.1-1-1.3-.8-2.4-1.8-3.1-3.2-.3-.4-.7-.7-1-1.1-2.3-.8-3.6-2.7-5.1-4.4-3 .7-3 .7-1.9 4.1 5 2.5 8 7.4 12.3 10.8.2.5.5.9 1.1 1l.1.1c1.4 2.1 3 4 5.3 5.2 1.3 3.2 4.2 4.9 6.3 7.3.3 1 1 1.7 1.9 2.3.7 1.9 1.8 3.6 3.9 3.7 2.1.1 2.6-1.9 2.9-3.7 4.5-4.2 8-9.3 12.8-13.1 3.4-2.7 6.8-5.5 10.1-8.2 2.8-.7 4.1-4 7.2-4.2 2.8 3.8 6.9 6.5 9.6 10.5 5.5 4.6 10.2 10 14.8 15.6.8 1 1.5 2.1 2.3 3.1 1.2 0 2.3 1.8 3.4 2 1.2.6 1.9-.8 2.7-1.4.3-.2.5-.7.7-1.1 1.1.2 1.5-.7 2-1.4 4.8-3 8.3-7.2 11.5-11.7.8-.9 1.5-1.9 2.3-2.8 2.1-1.4 3.8-3.2 5.2-5.2 1.7-1.1 3.2-2.4 4.3-4.1l1.1-1.1-.3-.3v-.1c.1.1.1.2.2.3.8-.2 1.5-.6 1.9-1.3.4-.3.8-.6 1.3-.9l-.4-.1c.1-.1.2-.2.3-.2.1.1.1.2.2.4.3 0 .5.1.8.1 8.1 6.9 15.2 15.1 24.4 20.8l.1.1c.3.8 1 1.1 1.8 1.3 1.1 1.1 2 2.3 3.2 3.4 2.2 1.8 3.5 2.2 5 .9zm-39.5 18.6c1.5 2.2 3.4 2.8 5.7 1.1 3.4-2.5 3.5-3 1.9-6.6-.3-.9-1.1-1.2-2-1.2-1.9-1.2-3.9-3-6-1.2-2 1.8-1.5 4.4-.6 6.8.2.4.7.7 1 1.1z"/></svg>