<svg xmlns="http://www.w3.org/2000/svg" id="css-conf-colombia-logo" x="0" y="0" version="1.1" viewBox="0 0 215 217" xml:space="preserve"><style>.st2{fill:#204183}.st3{fill:#f04c39}.st4{fill:#204182}</style><path id="circle-yellow" d="m170 193.9-64.8-49.8-64.8 49.8C58 208.3 80.6 217 105.2 217c24.6 0 47.1-8.6 64.8-23.1z" style="fill:#fbf4a0"/><path id="circle-pink" d="M167 182.7c1.7-1.4 3.3-2.8 5-4.3 20-18.6 32.5-45.2 32.5-74.6 0-26.1-9.8-50-26.1-68.1-18.8-20.8-46-33.9-76.2-33.9C45.8 1.8 0 47.5 0 103.8c0 30.6 13.5 58 34.8 76.7.9.8 1.7 1.5 2.6 2.2l64.8-49.8 64.8 49.8z" style="fill:#fcdcd9"/><path id="circle-border" d="M188.7 34.2c-9.6-10.7-21-19.1-34-25C141.3 3.1 126.9 0 112 0 98.1 0 84.6 2.7 71.9 8.1c-12.3 5.2-23.3 12.6-32.8 22-9.5 9.5-16.9 20.5-22.1 32.7-5.4 12.7-8.1 26.1-8.1 40 0 15.1 3.2 29.5 9.5 43.1 6.1 13.1 14.7 24.6 25.6 34.2.8.7 1.7 1.4 2.7 2.2l.5.4c8.9 7.2 18.8 12.8 29.5 16.7 11.3 4.1 23.1 6.2 35.3 6.2 12.1 0 24-2.1 35.3-6.1 10.9-4 21-9.7 30-17.1l.8-.6c1.5-1.2 2.9-2.5 4.2-3.7 10.2-9.5 18.3-20.8 24-33.5 5.9-13.2 8.8-27.2 8.8-41.7-.1-25.5-9.4-49.8-26.4-68.7zm-42 163.7c-11.1 4.1-22.8 6.1-34.7 6.1-11.9 0-23.6-2.1-34.7-6.1-10.4-3.8-20.1-9.2-28.8-16.2L112 133l63.5 48.8c-8.7 6.9-18.4 12.4-28.8 16.1zm58-54.1c-5.6 12.5-13.5 23.6-23.6 33-1.4 1.3-2.9 2.6-4.4 3.9L112 131l-64.8 49.7c-.8-.7-1.4-1.2-2.1-1.8-10.8-9.4-19.3-20.7-25.2-33.6-6.2-13.3-9.3-27.6-9.3-42.5 0-13.7 2.7-26.9 8-39.4C23.7 51.3 31 40.5 40.3 31.2c9.3-9.3 20.2-16.6 32.3-21.7C85 4.3 98.3 1.6 112 1.6c14.7 0 28.8 3.1 42.1 9.1 12.8 5.8 24.1 14.1 33.5 24.6 16.7 18.6 25.9 42.6 25.9 67.5-.1 14.3-3 28.1-8.8 41z" class="st2"/><path id="circle" d="M117.4 154.6c0 3-2.4 5.4-5.4 5.4-3 0-5.4-2.4-5.4-5.4 0-3 2.4-5.4 5.4-5.4 3 0 5.4 2.5 5.4 5.4z" class="st3"/><path id="conf" d="M196.5 87.8c-.5-.4-1.3-.4-1.9-.1l-.2.1c-1.9 1.7-4.2 3.1-6.9 4.3-2.7 1.2-5.5 2-8.6 2.5-3 .5-6.1.7-9.2.5-2.8-.2-5.5-.7-8-1.6.4-1 .8-1.9 1.3-2.8.5-1.1 1.1-2.1 1.7-3.1 5.6-1.8 10.5-4.3 14.9-7.5 4.5-3.2 8-7 10.5-11.2.3-.5.7-1.1 1-1.8.3-.7.6-1.4.8-2.1.2-.8.3-1.5.3-2.2 0-.8-.3-1.6-.9-2.3-.6-.8-1.4-1.2-2.4-1.4-.9-.1-1.7 0-2.6.2-.8.3-1.6.6-2.3 1-.7.4-1.3.8-1.9 1.2-1.6 1.2-3.2 2.5-4.7 3.9s-2.9 2.8-4.3 4.1c-2.3 2.3-4.4 4.6-6.4 7.1-2 2.4-3.8 5-5.4 7.7-.6 1.1-1.3 2.4-2 3.7-2.1 1.6-4.2 3.1-6.3 4.6-2.3 1.6-4.9 3.1-7.5 4.4-1 .5-2.1.7-3.2.7-.6 0-1.2-.2-1.4-1.1-.1-.6-.1-1.2.1-1.9.2-.8.5-1.5.7-2.2.3-1.2.6-2.3.9-3.4.3-1.1.5-2.3.7-3.5.1-.7.1-1.4.1-2.1 0-.7-.4-1.6-1.9-2.2-1-.4-2-.4-3.1-.1-.8.3-1.6.6-2.4 1-1.8 1.1-3.6 2.5-5.2 4.1-.4.3-.7.7-1.1 1.1.3-.6.4-1.3.5-1.9.2-.7-.3-1.3-1.2-1.5-.8-.3-1.7-.1-2.2.3-.9.7-1.5 1.5-2 2.4-.3.6-.5 1.2-.6 1.8-1.7 1.1-3.6 1.9-5.7 2.4-2.5.5-5.1.9-7.8 1.1-1.2.1-2.6 0-4-.1-1-.1-1.9-.2-2.9-.4.1-.1.2-.3.3-.4l.7-1.2c.7-1.1 1.2-2.3 1.5-3.6.4-1.5.1-2.8-1-4-.8-1-1.9-1.7-3.3-2-1.3-.3-2.6-.3-3.9-.1-1.2.3-2.4.7-3.4 1.4-1.1.7-1.8 1.5-2.2 2.5-.4 1-.5 2-.4 2.8-.4.4-.8 1-1.1 1.5-1.1 1.1-2.4 2.2-3.8 3.2-1.6 1.2-3.4 2.2-5.3 3.1-1.9.9-3.9 1.5-6 2-2.1.4-4.2.6-6.3.4-1.2-.1-2.3-.4-3.2-.8-.9-.4-1.7-1-2.2-1.7-.6-.6-1-1.4-1.2-2.2-.2-.8-.2-1.6.1-2.5.5-1.5 1.6-2.9 3.3-4 .5-.3 1-.6 1.6-.8.1.1.2.2.4.5.2.2.3.6-.2 1.4-.5.8-1 1.3-1.4 1.6l-.2.1-.1.1c-.3.5-.1 1 .2 1.2.3.2.8.4 1.5.1l.2-.1c1-.7 2-1.6 2.8-2.6.9-1.1 1.2-2.3.9-3.5-.4-1.7-1.8-2.2-2.8-2.4-1.3-.2-2.6-.1-3.9.3-1.5.6-2.9 1.4-4 2.4s-2 2.2-2.6 3.5c-.3.6-.5 1.2-.6 1.8-1 1.8-2.2 3.3-3.7 4.5-2.8 2.3-10 5.8-27.4 3.2-.7-.1-1.3.3-1.4 1-.1.3 0 .6.2.8.2.3.5.4.8.5 4.1.6 7.9.9 11.4.9 8 0 15.5-1.9 19.5-4.9.4-.3.7-.6 1.1-.9.1.3.2.5.4.7.9 1.4 2 2.4 3.5 3.2 1.4.7 2.9 1.2 4.7 1.4 1.7.2 3.4.2 5.2 0 1.7-.2 3.4-.5 5-.9 3.5-.9 6.6-2.2 9.4-3.9 1.1-.6 2.2-1.4 3.2-2.2.2.4.4.7.7 1.1.8 1 1.8 1.7 3.1 2 1.3.3 2.6.3 4 0 .8-.3 1.5-.6 2.2-1 .5-.3 1-.6 1.4-1 .3.1.7.1 1.1.2.6.1 1.1.2 1.6.2 4.2.4 8.3.3 12.3-.5 2.6-.5 4.9-1.3 7.1-2.4 0 .8.4 1.7 1.1 2.4.4.4.8.6 1.2.6h.4c.2.1.4.1.6.1.5 0 .9-.2 1.2-.5 1.1-.8 2-1.8 2.9-2.7.8-.9 1.8-1.8 2.7-2.7.8-.9 1.9-1.8 3.2-2.7l.1-.1c.1-.1.3-.3.7-.6.3-.3.6-.5 1-.7.2-.1.3-.2.4-.2l.1.1c.1.1.1.3.1.5-.1.4-.1.7-.2 1.1-.1.4-.3.8-.4 1.2-.1.4-.2.7-.3 1-.2.6-.4 1.3-.6 1.9-.2.7-.4 1.4-.6 2-.3.9-.6 1.9-.8 2.8-.2 1.1 0 2.2.8 3.2.6 1.1 1.5 1.8 2.5 2.1 1 .3 2 .4 3.1.3 1-.1 2-.4 3-.8.9-.4 1.8-.8 2.6-1.2 2.5-1.3 4.9-2.7 7.2-4.3.3-.2.6-.4 1-.6 0 .1 0 .1.1.2-.8 2-1.4 4.1-1.7 6-.2.9-.3 2-.4 3.2-.1 1.3 0 2.5.3 3.8.3 1.3.9 2.5 1.6 3.6.8 1.2 2.1 2 3.8 2.5.8.3 1.7.4 2.4.4.9 0 1.8-.2 2.5-.7 1.2-.6 2.1-1.5 2.8-2.7.6-1.1 1.1-2.2 1.3-3.5.3-1.2.4-2.2.4-3.1-.2-1.3-.6-2.6-1.2-3.8-.3-.6-.6-1.2-1.1-1.7 1.3.1 2.5.2 3.8.3 2.2.1 4.2 0 6.1-.3 3.8-.7 7.3-1.7 10.5-3 3.3-1.3 6.2-3.2 8.8-5.4l.1-.1c.2-.3.3-.5.3-.8-.1-.2-.1-.5-.5-.8zm-30.7 16.3c0 .4 0 1-.1 1.7s-.3 1.4-.5 2c-.3.6-.6 1.2-1 1.7-.3.3-.6.5-1.1.5-.6 0-1.1-.1-1.5-.4-.4-.4-.8-.8-1-1.3-.3-.6-.4-1.2-.6-1.8l-.3-1.8c-.2-1.5-.1-3 .1-4.4.2-1.1.4-2.3.8-3.5 1.5.7 2.6 1.7 3.5 2.8 1.2 1.2 1.7 2.8 1.7 4.5zm22.4-41.8c.1.1.1.3.1.8.1 1.2-.2 2.4-.9 3.6-.7 1.3-1.4 2.5-2.1 3.6-2.2 3.4-5.3 6.5-9 9.2-3 2.2-6.3 4-9.9 5.5.2-.3.3-.5.5-.8.6-.9 1.2-1.8 1.9-2.7 2-2.9 4.2-5.7 6.6-8.3 2.4-2.6 5.1-5.2 8-7.7.4-.3.8-.7 1.5-1.3.6-.6 1.3-1 2-1.4.6-.3 1-.5 1.3-.5zM96.9 84.7c.4-.8 1.2-1.3 2.4-1.5.8-.1 1.4-.1 1.8.1.4.2.8.4 1 .8.2.4.4.9.4 1.4.1.5-.1 1-.3 1.6-.2.6-.5 1.3-.9 1.9-.3.4-.6.9-.9 1.3-.7-.3-1.4-.7-2-1.1-.8-.5-1.3-1.1-1.6-1.9-.3-.9-.3-1.7.1-2.6zm1 7.9c-.4.2-.8.4-1.2.5-.5.1-.9.1-1.3 0s-.8-.2-1.1-.5c-.3-.2-.4-.5-.5-.9-.1-.6 0-1 .2-1.5 0-.1.1-.2.1-.3.4.4.9.8 1.5 1.3.8.6 1.5 1.1 2.3 1.4z" class="st2"/><path d="M66.4 117.1c-1 0-1.8-.3-2.3-.8-.5-.5-.8-1.3-.8-2.4 0-1.2.2-2 .7-2.6.5-.6 1.3-.8 2.4-.8.9 0 1.8.2 2.6.5l.2.1v-1.7h-.1c-.9-.3-1.8-.4-2.8-.4-1.6 0-2.8.4-3.6 1.3-.8.9-1.2 2.2-1.2 3.8 0 1.5.4 2.7 1.3 3.6.8.9 2 1.3 3.6 1.3 1 0 2-.1 2.8-.5h.1v-1.7l-.2.1c-.9 0-1.8.2-2.7.2zm10.6-8.3c-1.5 0-2.7.4-3.5 1.2-.7.8-1.1 2.1-1.1 3.8 0 1.7.4 2.9 1.1 3.7.8.8 1.9 1.2 3.5 1.2 1.5 0 2.7-.4 3.4-1.2.8-.8 1.1-2 1.1-3.7 0-1.7-.4-3-1.1-3.8-.7-.8-1.9-1.2-3.4-1.2zm2.1 7.6c-.4.5-1.1.8-2.1.8-.9 0-1.6-.3-2-.8-.4-.5-.6-1.4-.6-2.5 0-1.2.2-2.1.6-2.6.4-.5 1.1-.8 2.1-.8s1.7.3 2 .8c.4.5.6 1.4.6 2.6 0 1.1-.2 2-.6 2.5zm8.6-7.4h-1.9v9.6h6.7v-1.5h-4.8zm12-.2c-1.5 0-2.7.4-3.5 1.2-.7.8-1.1 2.1-1.1 3.8 0 1.7.4 2.9 1.1 3.7.8.8 1.9 1.2 3.5 1.2 1.5 0 2.7-.4 3.4-1.2.8-.8 1.2-2 1.2-3.7 0-1.7-.4-3-1.1-3.8-.8-.8-1.9-1.2-3.5-1.2zm2.1 7.6c-.4.5-1.1.8-2.1.8-.9 0-1.6-.3-2-.8-.4-.5-.6-1.4-.6-2.5 0-1.2.2-2.1.6-2.6.4-.5 1.1-.8 2.1-.8s1.7.3 2 .8c.4.5.6 1.4.6 2.6 0 1.1-.2 2-.6 2.5zm11-1.5-2.9-5.9H108v9.6h1.9v-6.3l2.3 4.7h1.2l2.3-4.7v6.3h1.8V109h-1.8zm15.9-1.2c.3-.2.4-.4.6-.7.2-.4.3-.8.3-1.3 0-.8-.3-1.5-.7-2-.5-.5-1.2-.7-2.2-.7H122v9.7h4.9c1 0 1.7-.2 2.3-.7.5-.5.8-1.2.8-2.1 0-.6-.1-1.1-.4-1.5-.3-.4-.6-.6-.9-.7zm-4.8-3.3h2.4c.6 0 1 .1 1.2.3.2.2.3.5.3 1 0 .8-.4 1.2-1.3 1.2h-2.6v-2.5zm3.8 6.5c-.2.2-.6.3-1.1.3h-2.7v-2.8h2.5c.6 0 1 .1 1.3.3.3.2.4.5.4 1 0 .6-.1.9-.4 1.2zm6.5-7.9h1.9v9.7h-1.9zm11.6 0h-2l-3.7 9.7h2l.9-2.4h3.6l.9 2.4h1.9l-3.6-9.7zm-2.4 5.7 1.4-3.8 1.4 3.8h-2.8z" class="st3" id="colombia"/><path id="c" d="M89.6 65.7c-2.1.8-4.4 1.2-6.9 1.2-2.8 0-5-.7-6.3-2.2-1.4-1.4-2.1-3.6-2.1-6.5 0-3.1.6-5.5 1.9-7.1 1.3-1.5 3.4-2.3 6.4-2.3 2.4 0 4.8.4 7 1.3l.3.1v-4.1l-.1-.1c-2.3-.8-4.8-1.2-7.4-1.2-3.8 0-6.7 1-8.8 2.8-.2.2-.4.4-.6.5 0 .1-.1.1-.2.2l-.1.1c-2.1 2.3-3.1 5.6-3.1 9.8 0 3.9 1.1 7 3.3 9.2 1.1 1.1 2.5 2 4.1 2.5 1.6.6 3.4.9 5.5.9 2.7 0 5.2-.3 7.5-1.1l.1-.1v-4.1l-.5.2zm-13.5-.6c.4.4.8.7 1.2 1-.5-.4-.9-.7-1.2-1-1.5-1.6-2.2-3.8-2.2-6.7 0-3.2.7-5.7 2-7.2-1.3 1.6-1.9 4-1.9 7.2-.1 2.9.6 5.1 2.1 6.7z" class="st4"/><path id="s_1_" d="M109.7 58.9c-1.1-1.2-3.3-2.2-6.2-2.9-1.7-.4-2.9-.8-3.8-1.1-.8-.3-1.4-.7-1.7-1.1-.3-.4-.5-1-.5-1.7 0-1.2.4-2 1.4-2.5 1-.5 2.4-.8 4.3-.8 2.3 0 4.5.4 6.5 1.1l.3.1v-4.1l-.1-.1c-.8-.3-1.9-.5-3.2-.7-1.3-.2-2.6-.3-4-.3-3.2 0-5.6.6-7.3 1.9-1.7 1.3-2.5 3-2.5 5.3 0 .6.1 1.1.2 1.6.2 1.2.7 2.2 1.5 2.9 1.1 1.1 3.1 2 5.8 2.7 1.8.5 3.2.9 4.1 1.2.9.3 1.5.8 1.9 1.2.4.5.6 1.1.6 1.9 0 1.3-.4 2.1-1.3 2.6-.9.4-2.4.7-4.5.7-2.5 0-5-.4-7.3-1.4l-.3-.1v4.1l.1.1c2 .8 4.6 1.3 7.9 1.3 3.3 0 5.8-.6 7.5-1.9 1.7-1.3 2.6-3.1 2.6-5.3-.2-1.9-.8-3.5-2-4.7z" class="st4"/><path id="s" d="M129.9 58.9c-1.2-1.2-3.3-2.2-6.2-2.9-1.7-.4-2.9-.8-3.8-1.1-.8-.3-1.4-.7-1.7-1.1-.3-.4-.5-1-.5-1.7 0-1.2.4-2 1.4-2.5 1-.5 2.4-.8 4.3-.8 2.3 0 4.5.4 6.5 1.1l.3.1v-4.1l-.1-.1c-.8-.3-1.9-.5-3.2-.7-1.3-.2-2.6-.3-4-.3-3.2 0-5.6.6-7.3 1.9-1.7 1.3-2.5 3-2.5 5.3 0 1.9.6 3.5 1.7 4.6 1.1 1.1 3.1 2 5.8 2.7 1.8.5 3.2.9 4.1 1.2.9.3 1.5.8 1.9 1.2.4.5.6 1.1.6 1.9 0 1.3-.4 2.1-1.3 2.6-.9.4-2.4.7-4.5.7-2.5 0-5-.4-7.3-1.4l-.3-.1v4.1l.1.1c2 .8 4.6 1.3 7.9 1.3 3.3 0 5.8-.6 7.5-1.9 1.7-1.3 2.6-3.1 2.6-5.3-.2-2-.8-3.6-2-4.8z" class="st4"/></svg>