<svg xmlns="http://www.w3.org/2000/svg" xmlns:xlink="http://www.w3.org/1999/xlink" id="code-of-conduct-bird" x="0" y="0" enable-background="new 0 0 835 469" version="1.1" viewBox="0 0 835 469" xml:space="preserve"><style type="text/css">.st0{fill:#f04c39}</style><g><path d="M695,98.6c-9,1.3-18,2.8-27.4,4.2c-0.1-6.8,3.3-10.1,8-12.4c19.7-9.5,40.4-12.6,61.7-7.3 c27.7,6.9,52.1,20.6,74.7,37.6c7.6,5.7,14.8,11.9,23,18.5c-0.4-19.1-6.5-34.9-18.8-48c-27.5-29.3-63.1-40.9-101.8-43.5 c-24.5-1.6-46.3-7.9-65.5-23.3C629,8.4,606.4,3,581.3,6.9c-42.4,6.6-78.3,49.6-54.6,97.3c3.6,7.1,5.8,15,7.3,22.9 c1.6,8.7,1.7,17.8-1.6,27.9c-2.3-2.5-3.9-3.8-5-5.4c-23.4-33.9-54.3-59.5-89-80.9c-47-28.9-98.4-46.8-151.5-60.4 c-13.2-3.4-26.6-7.7-40-7.8C167.1-0.3,87.3,0.1,7.5,0C2.8,0,1.2,1.4,1.2,6.2C0.9,40,0.6,73.9,0,107.7c-0.1,8.6,2.5,16.3,7,23.3 c14.3,22.2,49,27.4,69.8,10.4c1.7-1.4,3.5-2.8,5.7-4.5c2.6,3.6,4.9,6.6,7.1,9.7c14.8,20.3,51.6,21.4,69.5,4.7 c3.2-3,4.8-2.5,7.7,0.7c5.1,5.6,10.4,12.2,17,15c19,8.1,37.8,7.9,54.4-6.7c5.8-5.2,6-5,10.7,0.8c5,6.1,10.8,10.9,18.3,13.6 c22.2,7.9,42.5,2.4,57.5-16.3c3.1-3.9,5-4,9.2-1c5.8,4.1,12.7,6.8,19.1,10.1c1.4,0.7,2.9,1.2,6,2.5c-3.5,1.5-5.3,2.4-7.2,3 c-23.9,7.1-44.7,19.4-61.2,38.3c-2.6,3-5.5,3.6-9.3,2.8c-30.4-6.7-60.8-13.3-91.2-19.9c-44.1-9.5-88.2-18.9-132.3-28.5 c-3.2-0.7-4.8-0.5-6,3C37,209.8,28.8,251.9,31,295.8c1.2,24.7,5.6,48.8,12.9,72.4c6.7,21.5,18,40.7,29.7,59.7 c2.3,3.8,5,2.6,7.9,1.4c18.2-7.3,36.4-14.7,54.5-22.1c47.4-19.5,94.8-39,142.2-58.7c4.4-1.8,7.3-1.4,10.5,2.3 c12.5,14.5,28.1,24.4,46,30.8c7.2,2.6,14.6,4.7,21.9,7.1c2.6,0.8,5.3,2.1,3.6,5.2c-5.4,9.6-6.7,22.9-22.9,24.8 c11.2,11.4,21.3,21.8,31.4,32.1c-0.2,0.6-0.5,1.3-0.7,1.9c-14,1.1-28.5,1-38,15.7c2.8,0.2,4.4,0.4,5.9,0.2c16,0,31.9,0,47.9,0 c16.2,0,32.4-0.5,48.5,0.1c15.8,0.6,31.5-1.9,47.3-0.1c4.6,0.5,6.3-1.1,5.2-6c-2.1-9.3-5.9-13.2-15.5-12.5 c-17.6,1.2-35.1,3.2-52.7,5.1c-8.3,0.9-16.2,1.1-22.6-5.5c-8.4-8.7-16.8-17.5-25.3-26.1c-3-3-3.2-5.8-0.6-9.1 c4.1-5.3,7.7-11.1,12.1-16.1c1.6-1.8,5.2-3,7.7-2.7c22.6,3.2,45.1,4.1,67.7,0.4c14.9-2.4,29-7,42.6-13.6c1.9-1,6.1-1.1,6.9,0 c8.2,11.4,19.2,22.1,12.8,39.6c15-2.3,29.3-4.4,45.3-6.8c-11,18.2-20.4,35.1-1.3,52.9c0.8-2.6,1.3-4.4,1.9-6.1 c3.1-9,5.9-18.2,9.5-27.1c3.9-9.6,10-17.6,19.4-22.8c4-2.2,7.8-5,11-8.3c15.3-15.6,28.3-32.4,29.1-55.8c0.2-7,4-9.3,10.9-8 c3.2,0.7,6.4,1.5,9.6,2.3c-3.2-4.8-6.7-8.9-11-12c-9.5-6.9-18.1-4.8-24.1,5.4c-9.8,16.5-19.6,33.1-29.3,49.7 c-3,5.1-7.1,8.4-13.2,9.2c-12.4,1.7-24.7,3.5-37,5.4c-3.5,0.6-5.5-0.6-6.5-3.9c-1.8-5.7-3.3-11.5-5.7-16.9 c-3.5-8-2.7-13.4,4.7-19.6c25.5-21.6,41.5-49.7,52.7-80.7c12.8-35.5,20.2-72,16.9-110.1c-1.5-17.9,4.6-25.4,21.3-31.3 c9-3.2,17.3-8.8,25.9-13.3c2.7-1.3,5.3-3.3,8.2-3.8c26.4-4.4,52.9-6,79.7-2.7c26.6,3.3,51.4,10.8,73.4,26.4 c0.8,0.6,1.6,1.1,2.4,1.6c0.8,0.4,1.7,0.8,2.5,1.2C783.5,108.4,744,91.6,695,98.6z M825,121.5c-2.1-1.1-3.8-1.6-5-2.7 c-16.9-15.2-36.1-25.8-58.2-31.4c-2.9-0.7-5.7-2.2-8.5-3.4c0.1-0.7,0.3-1.5,0.4-2.3c5.6,0,11.3,0.3,16.8-0.2 c2.2-0.2,4.3-1.8,6.4-2.7c-1.5-1.9-2.7-4-4.5-5.5c-3.6-3-7.6-5.6-11.8-8.6C776.6,61.4,821.9,101.1,825,121.5z M713.7,58.1 c9.9,0.4,19.8,0.8,29.6,2.4c3.4,0.6,6.8,3.9,9.4,6.7c2.5,2.7,0.9,5.4-2.5,6.5c-1.4,0.4-3.2,1-4.5,0.7c-13.3-3.5-26.5-7.1-39.7-10.9 c-1.2-0.3-2.1-1.7-4.3-3.7C706.7,59,710.2,57.9,713.7,58.1z M13.2,93.9c0.5-3.7-0.3-8.9,1.9-10.8c2.5-2.2,7.5-1.6,11.4-2.3 c0.2,0.6,0.4,1.3,0.6,1.9c-4,3.9-7.9,7.9-11.9,11.8C14.5,94.3,13.9,94.1,13.2,93.9z M17.3,121.2c-3.6-3.4-3.6-9.1-0.1-12.2 c8-6.9,16.7-13,24.1-20.5c10.4-10.6,23.1-6.8,35.2-6.9c1.1-0.1,3.3,3.2,3.2,4.8c-0.2,1.9-1.9,4.8-3.6,5.3c-2.8,0.8-6,0.2-9.1,0.2 c-8-1.2-14,2.2-19.5,7.6c-7.3,6.8-15,13.1-22.7,19.5C22.8,120.7,20.9,124.7,17.3,121.2z M75.2,115.1c-10.6-1.3-16.7,4.8-22.8,11.7 c-2,2.3-4.4,4.3-6.6,6.4c-5.4,5-8.8,5-14.5,0.4c7.6-8.2,15.4-15.9,22.2-24.2c5.8-7,13-8,21.2-7.3c3.5,0.3,5.3,1.7,5.2,5.4 C79.8,111,79.8,115.7,75.2,115.1z M80,49.3c-0.5,15.1,2.9,15.3-15.2,15.2c-6.2,0-12.3,0-18.5,0c-8.7,0-17.3,0-25.9,0.1 c-4.7,0-6.9-2-7.1-6.9C12.7,42,12.6,42,28.1,42c14.8,0,29.6,0.1,44.4-0.1C77.8,41.8,80.2,43.7,80,49.3z M106,68.3 c15-0.1,29.9-0.3,44.9-0.6c8.1-0.2,8.6,0.1,8.6,8c0,13.1,0,13.1-12.9,13.1c-6.9,0-13.8,0-20.7,0c-8.6,0-17.3-0.1-26,0.1 c-4.9,0.1-6.8-2.2-6.9-7C92.7,68.4,92.6,68.4,106,68.3z M93.4,123.9c0-5.8-0.2-11.6,0.1-17.3c0.1-1.1,1.8-2.9,2.9-3 c3.9-0.3,7.8-0.1,13.6-0.1c-5.2,8.1-9.4,14.6-13.6,21.1C95.4,124.3,94.4,124.1,93.4,123.9z M152.1,119.2c-2.5,0-5.5,1.8-7.4,3.6 c-7.1,6.9-13.9,14.2-20.9,21.4c-5.3,5.4-16.5,4-20.1-2.8c-0.7-1.2-0.1-3.9,0.9-5.1c8.3-10.1,16.7-20.2,25.3-30 c1.4-1.7,4.2-2.8,6.5-3c6-0.4,12-0.3,17.9-0.1c4.5,0.2,5.2,1.4,5.2,8.3C160.2,116.4,158.2,119,152.1,119.2z M174,134.2 c-0.5-4.2-1.2-7.2-1.2-10.1c-0.1-20.8-0.1-41.5-0.1-62.3c0-7.1,1.3-8.4,8.4-8.4c16.9,0,33.8,0,50.7,0c7.2,0,9.6,2.8,7.5,9.7 c-1.3,4.1-3.5,8.2-6.4,11.3c-17.5,18.6-35.3,36.9-53.1,55.3C178.4,131.1,176.6,132.2,174,134.2z M232.9,135.1 c-6.8-0.4-13.7-0.6-20.6-1.2c-4.6-0.4-8,1-11.1,4.5c-3.5,4-7.3,7.9-11.4,11.3c-1.4,1.2-4.7,1.7-6.2,0.9c-3.2-1.8-1.2-4.2,0.6-6.1 c5.8-5.9,11.4-12,17.4-17.6c1.9-1.8,4.9-2.8,7.6-3.1c4-0.5,8.1-0.1,12.1-0.1s8,0,12,0.1c3.4-0.1,6.1,0,6,4.7 C239.2,133.1,237.7,135.4,232.9,135.1z M238,107.4c-4.1,5.2-11.2,1.3-17,2.2c-0.3-0.7-0.7-1.3-1-2c5.8-6,11.5-12,18.5-19.4 C240.5,96,241.5,102.9,238,107.4z M279.8,164c-4.4-0.3-8.1-1.5-8.1-6.9c0-9.3-0.1-18.5-0.1-27.7c0-10.1,0-10.1-10.1-10.5 c-7.7-0.3-8.3-0.9-8.3-8.9c0-11,0-21.9,0-32.9c0-11.7-0.1-23.5,0.1-35.1c0-1.7,1.6-3.3,2.5-4.9c1.6,1.5,4.5,3,4.6,4.6 c0.5,6.3,0.2,12.7,0.1,19c-0.3,12.7-0.4,25.3-0.9,38c-0.2,4.7,1.7,6.2,6.1,6c3.6-0.2,7.3,0.1,10.9,0c5.1-0.1,7.3,2.1,7.2,7.3 c-0.2,15.1,0,30.3-0.1,45.5C283.7,160.2,285.1,164.3,279.8,164z M314.2,134.8c-6.6-0.8-7.7,2.7-7.3,8.2c0.3,3.4,0.4,6.9-0.1,10.3 c-0.3,2.3-1.4,4.8-2.8,6.6c-1.1,1.3-3.6,2.3-5,1.9c-1.2-0.3-2.4-2.9-2.5-4.5c-0.3-9.7-0.3-19.5-0.2-29.3c0-3.2,1.7-4.9,5.2-4.5 c1.8,0.2,3.8,0,5.7,0c0,0.1,0,0.2,0,0.3c2.3,0,4.6,0,6.9,0.1c3.7,0,5.1,2.2,5.2,5.5C319.4,132.9,317.7,135.2,314.2,134.8z M318.7,105.5c-5.4,5-12,2.1-18,2.3c-4.2,0.1-4.4-3.5-4.5-6.7c-0.4-11-0.4-11-11.7-11.1c-7.7-0.1-8.2-0.5-8.2-8.2 c0-5.3,0-10.7,0-16.1c0-5.4-0.1-10.7,0.1-16.3c0-2.8-1.2-7,3.5-7c4.3,0,8.1,1.8,8.3,7c0.2,6,0.2,12,0.2,17.9c0,9.1,0,9.1,9.2,9.1 c5.2,0,10.4,0.1,15.6,0c3.6,0,6,1,6,5.1c0,7.3,0.1,14.5,0.1,21.8C319.3,104.1,319.2,105.1,318.7,105.5z M412.4,102.3 c0.1-6.3,1.9-7.8,7.2-4.3c11.3,7.3,22.7,14.7,32.7,23.5c14.5,12.9,28,26.9,41.6,40.7c3.1,3.2,5,7.5,8.2,12.3 c-11.8,3.3-22.3,2.9-32.6,1.4c-17.5-2.5-34.8-6.2-52.2-8.9c-6.4-1-13-0.7-19.5-1c-2.1-0.1-4.1-0.2-7.9-0.4c2.5-2.6,3.6-4.2,5.1-5.4 c12.1-9.7,18.1-22.1,17.4-37.7C412.1,115.8,412.3,109,412.4,102.3z M332.8,123c0-9,0-18.1,0-27.1c0-10.2,0-20.4,0-30.6 c0.1-6.4,1.2-7.3,7.2-4.7c18.2,7.7,36.3,15.6,54.3,23.8c2.2,1,4.7,4.2,4.8,6.4c0.4,12.3,1.1,24.6-0.2,36.8 c-2.3,21.2-19.3,30.2-38.5,27.7C342.3,153,332.9,141.4,332.8,123z M57.2,331.3c-0.3-4,1.2-5.6,5.2-5.6c10.6,0.1,21.1,0.1,31.7,0 c6.1,0,6.6-0.7,5.2-6.8c-1.5-6.3-2.9-12.7-4.6-19c-1.3-4.6-0.2-6.8,5.1-6.6c13.2,0.6,26.5,0.7,39.7,1.2c7.8,0.3,8.4-0.2,6.4-7.8 c-1.7-6.5-3.3-13.1-4.8-19.6c-1.6-6.8-1-7.7,5.7-7c15.6,1.6,31.2,3.4,46.9,5.1c7.8,0.9,15.6,1.8,23.4,2.8c3.8,0.5,5.1-1,5.2-4.8 c0.4-12.7,0.6-12.8,12.8-10.1c8.8,1.9,17.6,4,26.4,5.9c3.7,0.8,5.8,2.5,5.4,6.7c-0.5,6.5-0.8,13-1.3,19.5c-0.3,3.4-2.2,4.7-5.5,4.3 c-21.6-2.5-43.1-5-64.7-7.4c-8.5-0.9-17.1-1.7-26.8-2.7c1.7,5,3,9,4.4,13c1.3,3.9,2.6,7.9,4.2,13c-20.2,0.6-39.6,1.2-60.1,1.8 c1.7,8.2,3.3,16,4.9,23.8c0.3,1.5,0.5,3,0.9,4.5c0.8,3.1,0,4.7-3.5,5c-15.3,1.4-30.5,3-45.8,4.5c-0.4,0-0.8,0-1.2,0 C59.7,345.8,58.3,344.4,57.2,331.3z M239.2,351.6c-7.4,0.9-14.2,1.8-20.9,2.4c-13.3,1.2-26.7,2.5-40.1,3.5 c-3.7,0.2-5.3,1.6-5.1,5.2c0,0.4,0,0.8,0,1.2c-0.3,17.6,2.7,14.2-15.1,17.5c-25,4.7-50.2,8.7-75.4,12.7c-2.2,0.3-6-1.4-6.9-3.2 c-3.3-6.2-5.6-12.9-9-21.1c8.2-1,15.4-2,22.6-2.7c19.2-1.9,38.5-3.8,57.8-5.4c4.7-0.4,5.2-2.6,4.3-6.5c-1.5-6.1-2.9-12.3-4.2-18.5 c-1-4.5,0.5-6.6,5.6-6.6c16.7-0.1,33.4-0.6,50.1-0.9c2.3,0,4.5-0.2,7.7-0.3c-2.4-7.5-4.4-13.9-6.5-21.6c5.8,0.4,10.3,0.5,14.8,1 c14.4,1.6,28.8,3.9,43.3,5.1c6.2,0.6,8.9,3.5,10.2,8.9c0.5,2.2,1.2,4.3,2.1,7.5c-13.9,1.2-27.1,2.4-41.2,3.6 C235.3,339.7,237.1,345.1,239.2,351.6z M274.6,234.2c-1.2,1.5-4.7,2.3-6.9,1.8c-20.4-4.4-40.7-9.1-61.1-13.7 c-2.2-0.5-4.4-0.8-7.8-1.5c0,5.4-0.2,10.3,0.1,15.2c0.3,4.3-1.5,5.9-5.7,5.4c-12.4-1.4-24.8-2.6-37.2-3.9 c-15.6-1.6-31.2-3.4-48-5.3c2,8.7,3.8,16.9,5.9,24.9c3.4,13.1,3.4,13-10.1,12.8c-13.2-0.1-26.4,0-40.3,0c0.3,1.7,0.5,3.7,0.9,5.7 c1.2,5.6,2.8,11.1,3.9,16.8c0.6,3,0.3,6.2,0.4,9.3c-4,0.1-8,0.5-11.9,0c-1.2-0.2-3-3-3-4.6c0.1-15.2,0.6-30.4,1-45.5 c0.1-4.4,3.1-5.2,6.7-5.4c7.4-0.4,14.9-0.9,22.4-1.2c4.6-0.1,7-1.7,6.7-6.9c-0.6-8.8-0.7-17.7-1-26.5c-0.1-4,0.8-5.9,5.7-5 c23.6,4.4,47.2,8.4,70.8,12.5c2.2,0.4,4.5,0.5,7.6,0.9c-0.4-6.4-0.8-12.2-1.1-18.1c-0.2-3.3,1.1-4.6,4.5-3.8 c33.5,7.9,67.1,15.8,100.7,23.8c0.5,0.1,1,0.5,2.5,1.3C278.3,227.1,277,231.1,274.6,234.2z M564.9,289.8 c-12.2,25.8-27.6,49.3-50.7,66.9c-26.2,20-56.3,28.2-91.4,28.8c-29.7-0.8-61-7-90.6-19.5c-28.6-12.2-47.6-33.7-52-65 c-7.1-50.8,11.3-87.7,61.6-110c31.5-14,64.3-14.6,97.7-6.9c14.2,3.2,29,6.8,43.2,5.9c19.5-1.2,34.1,7.6,48.9,17 c20.9,13.3,33.5,32.2,37.1,57C570,273,568.8,281.6,564.9,289.8z M587.9,194.6c-1.8,11.2-2.6,22.5-3.9,33.7c-0.3,2-1.1,4-1.6,6 c-0.6,0.2-1.2,0.3-1.8,0.5c-4.4-7.7-9.6-15.1-12.7-23.3c-1.5-3.9,0.3-9.5,1.7-13.9c3.6-11.8-6.5-24-18.8-21.9 c-2.4,0.5-4.9,3.5-6.1,6c-3.9,8.5-4.6,8.9-13.1,4.5c-1.8-0.9-3.4-2.1-5.8-3.5c8.6-8.6,15.6-17.2,29.3-14.3c9.6,2,18.5,4.6,26.1,11 C586,183.3,589,187.6,587.9,194.6z M589,151.2c-0.8,2.9-1.7,5.8-2.9,9.4c-3.3-2.1-5.9-3.5-8.4-5.2c-6.9-4.7-14.3-7.6-22.7-6.6 c-5.6,0.7-7.2-1.6-6.6-6.9c0.5-3.9,0.1-7.9,0.1-13.4c4,2.1,6.5,3.7,9,4.5c8.3,2.8,16.6,5.9,25.1,7.8 C591.5,142.8,591.6,142.2,589,151.2z M633.7,117.9c-25.6,16.9-61.9,13.7-84.5-7c-24.1-22.1-22.2-56.1,4.4-77.6 c25.2-20.3,72.9-20.5,96.3,12c6.4,8.9,9.4,17.6,9.5,29C659,93.7,649.2,107.7,633.7,117.9z" class="st0"/><path d="M628.8,318.6c5.3,1.1,10.9,2.2,15.9,3.2c3.5-2.6,7-5.3,10.9-8.2C649,304,634.8,306.8,628.8,318.6z" class="st0"/><path d="M486,448.2c1.4,2,2.9,3.8,3.9,5.8c1.1,2.2,1.4,4.8,2.5,7c0.7,1.3,2.2,2.5,3.6,3c3.3,1.2,6.7,2,10.5,3.1 C509.8,457.4,505.7,450.1,486,448.2z" class="st0"/><path d="M430.1,288.6c2-40.3-34.4-71-69.5-70.8c-33.8,0.2-70,26.6-70.5,70.4c-0.5,38.7,31.7,69.7,70.7,70.2 C395.4,358.8,431.7,328.4,430.1,288.6z M356.4,344.9c-8.7-2.2-17.1-5.1-25.5-8.3c-4.9-1.9-4.6-5.2-1.3-9 c11-12.8,21.8-25.8,32.9-38.9c-7.2-7.3-7.7-7.3-13.9-1.1c-9.5,9.6-18.9,19.2-28.4,28.7c-2,2.1-4.2,5.5-7.5,2.1 c-3-3.1-4.4-6.6-0.5-10.5c8.1-7.9,15.9-16.2,24.1-24c3.5-3.3,5-6.9,4.7-11.7c-0.6-10.2-0.7-20.3-1.3-30.5c-0.3-4.6,1.6-7.2,6.1-8.2 c22-4.8,41.5-0.2,56.6,16.8c15.1,17,18.8,36.8,10.9,58.5c-1.9,5.4-4.9,8.6-11,7.5c-11.8-2.1-20.3,1.8-25.3,13.1 c-1.3,2.9-3.9,5.2-5.4,8.1C368.3,343.8,363.1,346.6,356.4,344.9z" class="st0"/><path d="M492.9,231.9c-32.3,0-58.6,26-58.7,57.9c-0.1,32.2,26,58.1,58.4,58.1c32.7,0,58.4-25.4,58.4-57.8 C551,257.6,525.3,231.9,492.9,231.9z M448.7,295c-0.7-2.1-0.5-4.5-0.7-6.8c0.2-8.9,1.8-10.8,10.4-11.9c5.9-0.8,13.1,3.7,14.6,9 c0.9,3.3-4.1,9.1-9.9,11.3C457.3,298.9,449.9,298.2,448.7,295z M522.6,329.8c-3.4-1.6-6.7-3.2-10.9-5.2c0,3.1,0,5.9,0,8.6 c0,4.7-2,8.2-6.8,8.4c-8,0.2-16,0.1-23.9-0.7c-2-0.2-4.2-3.5-5.1-5.9c-1.1-2.9-0.9-6.3-1.4-10c-4.3,2.7-8.2,5.1-12.8,7.9 c1-5.5,15.6-17.1,21.3-17.5c15.1-0.9,30.3-1.6,40.4,12.8C523.1,328.8,522.9,329.3,522.6,329.8z M530.6,306.8 c-3.2-0.3-6.3-1.2-10.1-2c2.3,4.5,4.2,8.6,6.2,12.6c-0.3,0.3-0.6,0.7-0.9,1.1c-6.8-3.1-13.4-7.6-20.5-8.9 c-7.6-1.4-15.9-0.9-23.4,0.9c-7.4,1.8-14.1,6.2-21.1,9.4c-0.5-0.4-1-0.9-1.5-1.3c2.1-3.7,4.2-7.4,6.9-12.1c-3.5,1-6.2,2.3-8.9,2.4 c-1.8,0.1-3.7-1.4-5.6-2.2c1.3-1.4,2.5-3.2,4.1-4c2.5-1.2,5.5-1.5,8.2-2.5c11.6-4.6,13.4-7.4,13.1-19.7 c-0.4-13.8-0.4-13.8-14.4-14.2c-1.6,0-3.3-0.3-4.9-0.5c0.5-6.3,4.5-10.2,11-10.4c4.2-0.1,7.5-0.2,8.2-5.5c0.2-1.2,2.9-2.9,4.3-2.8 c1.2,0.1,3.2,2.4,3.2,3.7c0.2,12.3,0.5,24.6-0.2,36.9c-0.2,2.8-3.8,5.4-5.8,8.1c-1.2,1.6-2.2,3.2-3.3,4.8c1.9,0.1,3.8,0.3,5.7,0.4 c0.5,0,1.1-0.1,1.6-0.2c4.7,5.9,15.7,5.9,20,0.4c2.9,0.2,5.6,0.5,8.3,0.7c0.1-0.5,0.2-1.1,0.3-1.6c-0.6-0.7-1-1.7-1.7-2.1 c-8.2-4.7-9.5-12.2-9-20.8c0.5-8.3-0.1-16.5,0.2-24.8c0.1-1.9,1.6-3.8,2.5-5.7c1.6,1.5,4.3,2.9,4.6,4.6c0.8,4.9,4.2,3.7,7,3.8 c7.4,0.2,9.9,1.9,12.2,9.7c-4.7,0-9,0.2-13-0.1c-4.2-0.2-6,1.4-5.7,5.7c0.2,2.7,0,5.4,0,8.1c0,12.8,4,18,16.5,21.5 c2.2,0.6,4.6,0.6,6.7,1.4c1.2,0.5,2,1.9,3,2.9C533.2,305.3,531.8,306.9,530.6,306.8z M536.7,293c-0.8,1.6-3.2,2.8-5,3.2 c-6.4,1.4-15.5-2.7-18.7-8.6c-0.8-1.4-0.8-4.2,0.1-5.6c2.9-4.7,7.1-7.4,12.5-7.1C535.1,274.9,541.1,284.8,536.7,293z" class="st0"/><path d="M417.9,224.4c7.2,6.5,12.3,15.3,18.9,23.7c26.9-33.9,62.1-37.5,101.7-23.5c-3.7-4-7.5-7.9-11.9-10.6 c-14.3-8.6-28.6-17.4-46.7-14.4c-3.5,0.6-7.3-0.1-10.9-0.7c-14.3-2.6-28.8-4.9-43-8.1c-25-5.6-47.7,0.9-70.7,12.5 c9.3,1.6,17.8,2.9,26.2,4.7C394.7,210.9,407.8,215.3,417.9,224.4z M461.9,208.2c0.2,0.7,0.4,1.4,0.6,2.1 c-7.3,4.8-14.6,9.7-21.8,14.3c-0.8,0.5-2.9-0.5-4-1.3c-8.4-6.3-16.7-12.7-25-19.1c-1-0.7-1.7-1.7-3.7-3.9 C427.6,199,444.9,202.5,461.9,208.2z" class="st0"/><path d="M432.1,319.9c-1.3,4.8-2.4,8.3-3.2,11.8c-2.3,10.8-8.7,18.9-18.2,24c-6.1,3.2-12.6,6.2-19.2,7.6 c-11.1,2.3-22.5,3.2-33,4.6c63.4,24.2,119.2,7.2,145.9-13C469.8,364.2,447.8,349.2,432.1,319.9z M458.4,366.6 c-18.4,5.3-37,8.1-56.7,3.1c1.3-0.9,2.5-1.8,3.8-2.6c8.2-4.9,16.5-9.5,24.5-14.7c3.3-2.2,5.3-2.2,8.5,0.2 c4.8,3.8,10.2,6.7,15.4,9.9c1.6,1,3.2,1.7,4.8,2.6C458.6,365.6,458.5,366.1,458.4,366.6z" class="st0"/><path d="M628,35.8c-14.7-13.3-40.4-15.1-56.9-3.9C554.7,43.1,550,59.4,552,77.8c3.4,31,30.8,43.8,54.9,37.9 c21.3-5.2,32.8-22.5,32.8-46.8C640,56.4,637.7,44.8,628,35.8z M610.3,88.4c-9,0.1-18,0.1-27,0c-3.9-0.1-6-1.9-5.8-6.1 c0.1-4.4,0-8.8,0-13.2c0-4.4,0.1-8.8-0.1-13.3c-0.1-4,1.6-6,5.8-6c9,0,18,0.1,27-0.1c4,0,5.8,1.8,5.8,5.5 c0.1,9.2,0.1,18.4,0.1,27.6C616.1,86.7,613.9,88.4,610.3,88.4z" class="st0"/><path d="M344.4,74c0,17.8,0,34.8,0,52.8c14.7-11.6,28.8-22.7,43.8-34.4C373.2,86.1,359.1,80.2,344.4,74z" class="st0"/><path d="M381.6,136.4c3.7-8.8,5.7-18.4,8.5-27.6c-0.7-0.3-1.3-0.7-1.9-1c-12.8,8.9-25.6,17.7-39.3,27.2 c4,3,7.1,5.5,10.5,7.6C369.3,149.1,376.9,147.4,381.6,136.4z" class="st0"/><path d="M476.8,164c-11.8-21.4-39.7-47.1-53.1-49.8c0,6.6,0.6,13.4-0.2,19.9c-0.9,6.8-3.1,13.3-4.9,20.8 C437.2,158.8,456.2,164.4,476.8,164z" class="st0"/><path d="M191.2,69c-10.9,0-10.9,0-10.9,10.9c0,8.6,0,17.1,0,27.2c13.8-13,26.2-24.8,38.7-36.6c-0.2-0.5-0.5-1-0.8-1.5 C209.2,69,200.2,69,191.2,69z" class="st0"/><path d="M374.7,313.5c2.6-5,6.4-6.4,11.9-5.6c9.5,1.4,12-0.6,14.8-9.7c1.3-4.2-0.2-5.2-4-5.1 c-7.1,0.2-14.2-0.1-21.3,0.2c-2.3,0.1-5.2,1.1-6.6,2.7c-8.8,10-17.3,20.4-26.3,31.1c14,6.7,19.1,5.4,26.8-6.3 C371.6,318.4,373.4,316,374.7,313.5z" class="st0"/><path d="M367.4,272.4c10.3,0.4,20.6,0.2,31.5,0.2c-4.8-15.3-20.1-25.2-32.8-26.7c-3.4-0.5-5,0.8-4.7,4.4 c0.5,5.9,0.5,11.9,1.4,17.7C363.1,269.7,365.8,272.3,367.4,272.4z" class="st0"/><path d="M503.3,322.4c-3.3-2.3-5.8,1-7.3,4.2c-0.2,0.5-0.9,0.7-1.5,1.2c-2.4-2.1-4.2-4.7-6.6-5.5 c-4.3-1.5-7.8,1.8-8.6,6.9c-0.7,4.8,1.8,8.8,6.5,9c5.2,0.1,10.3-0.6,15.5-0.9c3.7-0.2,7-2.1,6.5-5.8 C507.5,328.2,505.8,324.1,503.3,322.4z" class="st0"/><path d="M527.8,289.5c1.3,0.1,2.8-2.1,5.4-4.3c-2.7-1.7-4.5-3.7-5.7-3.4c-1.4,0.3-3.3,2.6-3.3,4 C524.3,287.2,526.5,289.5,527.8,289.5z" class="st0"/><path d="M463.7,286.7c-2.7-1.8-4.6-4-5.8-3.7c-1.7,0.4-2.8,2.8-4.1,4.3c1.5,1.2,2.9,3.3,4.4,3.4 C459.7,290.8,461.2,288.7,463.7,286.7z" class="st0"/><path d="M591.3,57.9c-0.1-0.1-0.3,0.2-0.6,0.5c2.3,1.1,5.1,1.6,6.5,3.2c1.7,1.8,3.1,4.7,3,7.1c0,1.3-3.3,2.8-5.3,3.7 c-1.3,0.6-3.2-0.2-4.5,0.4c-1.2,0.6-2.6,2.1-2.8,3.4c-0.2,1.4,0.8,4.2,1.4,4.3c5.1,0.4,10.3,0.3,15.4,0.2c0.6,0,1.6-1.3,1.6-2 c-0.2-6.4-0.6-12.8-0.9-19.3C600.5,58.9,595.9,58.4,591.3,57.9z" class="st0"/></g></svg>