<?xml version="1.0" encoding="UTF-8" standalone="no"?><!DOCTYPE svg PUBLIC "-//W3C//DTD SVG 1.1//EN" "http://www.w3.org/Graphics/SVG/1.1/DTD/svg11.dtd"><svg width="100%" height="100%" viewBox="0 0 5234 255" version="1.1" xmlns="http://www.w3.org/2000/svg" xmlns:xlink="http://www.w3.org/1999/xlink" xml:space="preserve" xmlns:serif="http://www.serif.com/" style="fill-rule:evenodd;clip-rule:evenodd;stroke-linejoin:round;stroke-miterlimit:2;"><g><path d="M5233.33,-1.317l0,32.531c-0.676,-0.019 -1.383,-0.015 -2.124,0.011c-50.059,-0 -100.119,-0 -150.178,-0.835c-10.429,0 -15.018,2.921 -15.018,14.185c0.417,26.284 0.417,52.985 0,79.269c-0.417,11.264 3.755,16.688 15.435,16.27c26.281,-0.417 52.98,-0.417 79.261,0.835c16.269,0.834 17.521,-8.344 17.521,-20.86c0.417,-12.934 -3.338,-19.609 -17.521,-19.192c-13.766,0.418 -27.95,1.669 -41.716,-0.834c-5.423,-0.834 -11.264,-9.596 -12.932,-15.854c-2.92,-9.595 2.503,-15.436 13.766,-15.019c24.195,0.417 48.808,0.834 73.003,0.834c12.515,0 15.018,6.258 15.018,17.106c-0.417,22.946 -0.417,45.892 0,68.838c0.417,13.351 -5.423,18.357 -18.772,17.94c-45.054,-0.835 -90.524,-1.669 -135.578,-0.835c-17.52,0.418 -20.858,-7.092 -20.441,-22.529c0.835,-32.541 -0.417,-65.5 0.418,-98.042c0.417,-16.688 -5.423,-21.277 -21.693,-21.277c-69.666,0.417 -138.915,-0 -208.581,-1.252c-13.349,0 -18.772,3.338 -18.772,17.105c0,49.23 -0.834,98.46 -1.251,148.107c-0,12.099 4.171,17.105 17.103,17.105c47.139,-0.417 94.696,0 141.835,0.835c11.681,-0 18.355,-2.503 17.938,-15.854c-0.417,-27.118 0,-54.236 0.417,-81.354c0.417,-11.265 -4.588,-14.602 -15.018,-14.185c-20.858,0.417 -41.716,-0 -62.574,-0c-33.373,-0 -34.207,1.669 -28.367,38.382c16.687,0 33.79,0.418 51.311,0c12.515,-0.417 17.104,6.676 14.184,16.689c-1.669,5.84 -8.761,14.602 -13.767,14.602c-22.109,1.251 -44.219,-0 -66.746,0.417c-12.514,-0 -17.52,-5.007 -17.52,-17.523c0.417,-21.694 0.834,-42.972 -0.418,-64.666c-0.834,-17.94 6.258,-22.529 22.944,-22.112c41.717,1.252 83.433,1.669 125.149,0.417c19.189,-0.417 25.447,5.841 25.03,24.615c-0.835,38.383 -0,77.183 -0,117.234c5.423,1.252 8.343,2.503 10.846,2.503c75.089,0.835 150.178,0.835 225.267,2.086c0.9,0 1.745,-0.031 2.541,-0.094l0,38.06l-1685.79,-0l0,1.825l-1790.46,-0l-0,-0.001l-1757.09,0l-0,-253.659l1790.46,0l-0,0.001l1755,-0l0,-1.825l1687.87,-0Zm-2846.75,124.899c0.417,-24.197 -0.417,-48.812 0.834,-73.01c0.417,-12.933 -2.086,-20.026 -16.686,-19.191c-12.515,0.417 -23.361,0.417 -22.944,18.357c0.417,49.229 0.417,98.876 -0.417,148.106c-0.418,14.602 5.006,19.192 19.189,19.609c15.852,0.417 20.858,-5.424 20.441,-20.443c-1.251,-24.615 -0.417,-49.23 -0.417,-73.428Zm-1757.09,-0c0.417,-24.198 -0.418,-48.813 0.834,-73.01c0.417,-12.934 -2.086,-20.026 -16.687,-19.192c-12.514,0.417 -23.361,0.417 -22.944,18.357c0.418,49.23 0.418,98.877 -0.417,148.107c-0.417,14.602 5.006,19.191 19.19,19.608c15.852,0.418 20.858,-5.423 20.441,-20.442c-1.252,-24.615 -0.417,-49.23 -0.417,-73.428Zm2881.57,-92.199c-12.575,0.079 -20.256,2.748 -20.256,18.355c0.417,49.229 0.417,98.459 -0.417,147.272c-0.417,15.436 5.423,20.443 20.441,20.026c14.6,-0.418 19.606,-5.424 19.189,-19.609c-0.391,-22.685 -0.049,-45.371 -0.004,-68.056l0.004,-4.537c0.417,-25.032 -0.834,-50.064 0.835,-74.679c1.251,-16.271 -6.258,-18.774 -19.19,-18.774l-0.602,0.002Zm-1753.98,0.034c-0.81,-0.026 -1.645,-0.037 -2.503,-0.037c-12.932,0 -20.858,2.503 -20.858,18.357c0.417,49.23 0.417,98.46 -0.417,147.273c-0.418,15.436 5.423,20.442 20.44,20.025c1.174,-0.033 2.286,-0.097 3.338,-0.192l-0,-185.426Zm1199.34,92.583l0.834,-0c0,-25.033 -0.834,-50.065 0.417,-74.68c0.835,-15.019 -6.257,-17.939 -18.355,-17.939c-11.68,-0 -22.109,0.417 -21.692,17.105c0.417,50.481 -0,100.963 -0.417,151.444c-0,14.602 7.509,16.688 19.606,16.688c11.681,0 20.441,-0.417 20.024,-15.853c-0.834,-25.45 -0.417,-51.316 -0.417,-76.765Zm-1086.85,-92.2c-11.703,0.104 -16.958,3.537 -16.958,16.269c-0,49.23 -0.835,98.459 -1.252,147.689c0,11.265 3.338,17.523 17.104,17.523c47.974,-0.417 95.947,-0 143.921,0.417c11.68,0 16.269,-3.755 16.269,-15.436c-0.417,-27.119 0,-54.237 0.417,-81.355c0.417,-12.516 -5.84,-15.019 -16.686,-15.019c-7.822,0.156 -15.644,0.195 -23.466,0.205l-15.643,0.007c-7.822,0.009 -15.644,0.049 -23.466,0.205c-30.869,0 -35.458,6.675 -25.029,38.8c16.686,-0 34.207,-1.252 51.311,0.834c5.006,0.417 11.263,10.43 12.097,16.271c0.418,4.589 -7.091,13.768 -11.263,14.185c-23.361,1.252 -47.139,0.417 -70.917,0.417c-11.681,0 -15.435,-6.258 -15.018,-17.522c0.417,-22.112 0.417,-44.641 -0.417,-66.753c-0.835,-14.185 4.171,-20.025 18.772,-19.608c40.464,0.834 80.512,0.834 120.977,0.834c32.955,0 32.955,-0.417 32.955,32.959l0,109.724c5.424,1.252 7.927,2.086 10.847,2.086c75.089,0.835 150.178,0.835 225.267,2.086c14.184,0 15.435,-7.926 15.435,-18.774c0,-49.23 0,-98.877 0.834,-148.106c0,-12.934 -4.588,-17.106 -17.103,-16.688c-24.196,0.417 -48.808,-0 -73.004,-0l-89.689,-0c-0.835,36.296 -0.835,70.924 -0.835,109.306c33.79,0 65.078,-0.417 95.948,0c15.852,0 15.017,-10.43 15.434,-21.277c0,-10.847 -1.668,-19.191 -15.852,-18.774c-13.766,0.417 -27.949,0 -41.716,0.417c-12.098,0.417 -17.521,-6.258 -14.6,-16.688c1.668,-5.841 8.76,-14.602 13.766,-14.602c25.03,-1.252 50.059,-0.834 75.089,0.417c4.172,0 11.68,6.258 12.098,10.013c0.834,30.456 0.417,60.494 0.417,92.202c-53.397,-0 -103.456,-0.417 -153.099,0.417c-17.103,0.417 -20.858,-6.675 -20.858,-22.112c0.835,-33.376 -0.417,-66.752 0.418,-100.128c-0,-13.768 -4.172,-19.609 -19.19,-19.609c-70.917,0.418 -141.835,0 -212.752,-0.834l-0.563,0.002Zm-670.234,92.199l0.835,0c-0,-25.032 -0.835,-50.064 0.417,-74.679c0.834,-15.019 -6.257,-17.94 -18.355,-17.94c-11.681,0 -22.11,0.417 -21.693,17.106c0.418,50.481 0,100.962 -0.417,151.444c0,14.602 7.509,16.688 19.607,16.688c11.68,0 20.441,-0.417 20.024,-15.854c-0.835,-25.449 -0.418,-51.316 -0.418,-76.765Zm-1086.85,-92.199c-11.703,0.104 -16.958,3.537 -16.958,16.268c-0,49.23 -0.834,98.46 -1.252,147.69c0,11.264 3.338,17.522 17.104,17.522c47.974,-0.417 95.947,0 143.921,0.418c11.68,-0 16.269,-3.755 16.269,-15.437c-0.417,-27.118 0,-54.236 0.417,-81.354c0.417,-12.516 -5.84,-15.02 -16.686,-15.02c-20.858,0.418 -41.716,0 -62.574,0.418c-30.87,-0 -35.459,6.675 -25.03,38.799c16.686,0 34.207,-1.251 51.311,0.835c5.006,0.417 11.263,10.43 12.097,16.271c0.418,4.589 -7.091,13.767 -11.263,14.185c-23.361,1.251 -47.139,0.417 -70.917,0.417c-11.681,-0 -15.435,-6.258 -15.018,-17.523c0.417,-22.111 0.417,-44.64 -0.417,-66.752c-0.835,-14.185 4.171,-20.026 18.772,-19.609c40.465,0.835 80.512,0.835 120.977,0.835c32.956,-0 32.956,-0.417 32.956,32.959l-0,109.724c5.423,1.252 7.926,2.086 10.846,2.086c75.089,0.834 150.178,0.834 225.267,2.086c14.183,0 15.435,-7.927 15.435,-18.774c-0,-49.23 -0,-98.877 0.834,-148.107c0,-12.933 -4.589,-17.105 -17.104,-16.688c-24.195,0.417 -48.808,0 -73.003,0l-89.689,0c-0.835,36.297 -0.835,70.924 -0.835,109.307c33.791,0 65.077,-0.417 95.947,0c15.852,0 15.018,-10.43 15.435,-21.277c0,-10.848 -1.668,-19.192 -15.852,-18.774c-13.766,0.417 -27.95,-0 -41.716,0.417c-12.098,0.417 -17.521,-6.258 -14.601,-16.688c1.669,-5.841 8.761,-14.602 13.767,-14.602c25.029,-1.252 50.059,-0.835 75.089,0.417c4.171,-0 11.68,6.258 12.097,10.013c0.835,30.455 0.417,60.494 0.417,92.201c-53.396,0 -103.455,-0.417 -153.097,0.418c-17.104,0.417 -20.859,-6.676 -20.859,-22.112c0.365,-14.602 0.331,-29.204 0.247,-43.806l-0.076,-12.516c-0.084,-14.603 -0.118,-29.205 0.247,-43.807c-0,-13.767 -4.172,-19.608 -19.19,-19.608c-70.917,0.417 -141.835,-0 -212.752,-0.835l-0.563,0.003Zm2326.07,-0.83c-10.253,0.134 -16.503,2.471 -16.099,14.596c0.417,17.939 -0,36.296 -0,54.236c0.417,37.131 0.417,73.845 0.417,113.479c56.734,-0 110.131,0.417 163.527,-0.835c4.172,0 11.264,-9.178 11.681,-14.602c1.251,-27.118 0.417,-54.236 0.834,-81.354c0.417,-12.516 -5.84,-15.019 -16.686,-15.019c-20.858,0.417 -41.716,-0 -62.575,0.417c-31.704,-0 -33.372,2.086 -26.281,38.8c17.104,-0 35.042,-1.252 52.98,0.834c4.589,0.417 10.846,10.43 11.263,16.688c0.417,4.589 -7.092,13.768 -11.68,13.768c-23.361,1.251 -47.14,1.251 -70.918,-0.835c-5.006,-0.417 -12.932,-10.012 -13.349,-15.436c-1.669,-20.86 0.417,-41.72 -1.252,-62.58c-1.251,-19.192 4.589,-25.867 24.196,-25.033c37.544,1.669 75.089,1.252 112.634,1.252c35.875,0 35.875,-0.417 35.458,36.297l0,107.221c10.846,0.417 18.773,1.251 27.116,1.668c67.58,0.418 134.743,0.418 202.323,1.669c15.852,0.417 22.527,-3.337 22.11,-20.443c-0.834,-27.535 0.417,-55.488 0.417,-83.44l-0,-80.103c-58.403,0 -114.719,-0.417 -170.619,0.417c-3.337,0 -9.178,7.927 -9.595,12.099c-0.834,27.118 -1.251,54.236 0.417,81.355c0.417,5.423 8.344,14.184 13.349,14.602c27.116,1.668 54.231,0.834 81.347,1.668c14.601,0.418 17.104,-7.092 17.104,-19.608c-0,-12.933 -2.503,-21.695 -18.355,-20.86c-13.35,0.834 -26.282,-0.417 -39.631,-0c-12.515,0.417 -16.686,-7.51 -13.766,-17.105c1.668,-5.841 9.177,-13.351 14.6,-13.768c22.944,-1.252 45.888,0.417 68.832,-0.417c14.184,-0.418 17.938,5.423 17.521,18.357c-0.834,22.111 -0.834,44.64 -0,66.752c0.417,15.019 -5.423,18.774 -19.607,18.774c-43.802,-0.834 -87.604,-1.669 -131.406,-0.834c-19.189,0.417 -23.778,-6.676 -23.361,-24.198c0.47,-18.774 0.279,-37.548 0.022,-56.322l-0.174,-12.516c-0.143,-10.431 -0.265,-20.861 -0.265,-31.291c0,-12.098 -4.171,-17.522 -16.686,-17.522c-71.752,-0 -143.087,-0.417 -214.839,-0.834l-1.004,0.006Zm-1652.52,70.712c-7.821,0.01 -15.643,0.049 -23.465,0.205c-31.704,0 -33.373,2.086 -26.281,38.8c17.104,0 35.042,-1.251 52.979,0.835c4.589,0.417 10.847,10.43 11.264,16.688c0.417,4.589 -7.092,13.767 -11.681,13.767c-23.361,1.252 -47.139,1.252 -70.917,-0.834c-5.006,-0.417 -12.932,-10.013 -13.349,-15.436c-1.669,-20.861 0.417,-41.721 -1.252,-62.581c-1.251,-19.191 4.589,-25.866 24.196,-25.032c37.544,1.669 75.089,1.252 112.633,1.252c35.876,-0 35.876,-0.418 35.459,36.296l-0,107.221c10.846,0.417 18.772,1.252 27.115,1.669c67.581,0.417 134.744,0.417 202.324,1.669c15.852,0.417 22.527,-3.338 22.11,-20.443c-0.835,-27.535 0.417,-55.488 0.417,-83.441l-0,-80.102c-58.403,-0 -114.72,-0.418 -170.619,0.417c-3.338,-0 -9.178,7.927 -9.595,12.099c-0.835,27.118 -1.252,54.236 0.417,81.354c0.417,5.424 8.343,14.185 13.349,14.602c27.116,1.669 54.231,0.835 81.347,1.669c14.6,0.417 17.103,-7.092 17.103,-19.608c0,-12.934 -2.503,-21.695 -18.355,-20.861c-13.349,0.835 -26.281,-0.417 -39.63,0c-12.515,0.418 -16.687,-7.509 -13.767,-17.105c1.669,-5.841 9.178,-13.35 14.601,-13.768c22.944,-1.251 45.888,0.418 68.832,-0.417c14.183,-0.417 17.938,5.424 17.521,18.357c-0.835,22.112 -0.835,44.641 -0,66.753c0.417,15.019 -5.423,18.774 -19.607,18.774c-43.802,-0.835 -87.604,-1.669 -131.406,-0.835c-19.189,0.417 -23.778,-6.675 -23.361,-24.198c0.834,-33.376 -0.417,-66.752 -0.417,-100.128c-0,-12.099 -4.172,-17.523 -16.687,-17.523c-71.751,0 -143.086,-0.417 -214.838,-0.834c-10.846,0 -17.521,2.086 -17.104,14.602c0.418,17.94 0,36.297 0,54.236c0.418,37.131 0.418,73.845 0.418,113.479c56.734,0 110.13,0.418 163.527,-0.834c4.172,0 11.263,-9.178 11.681,-14.602c0.703,-15.254 0.747,-30.508 0.725,-45.762l-0.017,-10.169c-0.013,-8.475 -0.005,-16.949 0.126,-25.424c0.417,-12.516 -5.84,-15.019 -16.687,-15.019c-7.821,0.157 -15.643,0.196 -23.465,0.206l-15.644,0.006Zm2420.27,109.93c5.423,1.252 8.343,2.503 10.846,2.503c75.089,0.835 150.178,0.835 225.267,2.086c14.601,0 15.018,-8.344 15.018,-18.774c0,-49.23 0,-98.877 0.834,-148.107c0,-11.264 -3.337,-16.688 -15.435,-16.27c-50.059,-0 -100.118,-0 -150.178,-0.835c-10.429,0 -15.018,2.921 -15.018,14.185c0.418,26.284 0.418,52.985 0,79.268c-0.417,11.265 3.755,16.688 15.435,16.271c26.282,-0.417 52.98,-0.417 79.261,0.835c16.269,0.834 17.521,-8.344 17.521,-20.86c0.417,-12.934 -3.337,-19.609 -17.521,-19.192c-13.766,0.417 -27.95,1.669 -41.716,-0.834c-5.423,-0.835 -11.263,-9.596 -12.932,-15.854c-2.92,-9.596 2.503,-15.436 13.766,-15.019c24.196,0.417 48.808,0.834 73.004,0.834c12.514,0 15.017,6.258 15.017,17.106c-0.417,22.946 -0.417,45.892 0,68.838c0.418,13.35 -5.423,18.357 -18.772,17.94c-45.053,-0.835 -90.524,-1.669 -135.577,-0.835c-17.521,0.417 -20.859,-7.092 -20.441,-22.529c0.834,-32.541 -0.418,-65.5 0.417,-98.042c0.417,-16.688 -5.423,-21.277 -21.693,-21.277c-69.666,0.417 -138.915,-0 -208.581,-1.252c-13.349,-0 -18.772,3.338 -18.772,17.105c0,49.23 -0.834,98.46 -1.251,148.107c-0,12.099 4.171,17.105 17.103,17.105c47.14,-0.417 94.696,0 141.835,0.835c11.681,-0 18.355,-2.504 17.938,-15.854c-0.417,-27.118 0,-54.236 0.417,-81.354c0.418,-11.265 -4.588,-14.603 -15.017,-14.185c-20.858,0.417 -41.717,-0 -62.575,-0c-33.373,-0 -34.207,1.668 -28.367,38.382c16.687,0 33.79,0.417 51.311,0c12.515,-0.417 17.104,6.675 14.184,16.688c-1.669,5.841 -8.761,14.602 -13.767,14.602c-22.109,1.252 -44.219,0 -66.745,0.418c-12.515,-0 -17.521,-5.007 -17.521,-17.523c0.417,-21.694 0.834,-42.972 -0.417,-64.666c-0.835,-17.94 6.257,-22.529 22.943,-22.112c41.717,1.252 83.433,1.669 125.149,0.417c19.189,-0.417 25.447,5.841 25.03,24.615c-0.835,38.383 -0,77.183 -0,117.234Zm-1757.09,-0c5.423,1.251 8.344,2.503 10.847,2.503c75.089,0.834 150.178,0.834 225.267,2.086c14.601,-0 15.018,-8.344 15.018,-18.774c-0,-49.23 -0,-98.877 0.834,-148.107c0,-11.265 -3.337,-16.688 -15.435,-16.271c-50.059,0 -100.119,0 -150.178,-0.834c-10.429,-0 -15.018,2.92 -15.018,14.184c0.417,26.284 0.417,52.985 0,79.269c-0.417,11.264 3.754,16.688 15.435,16.271c26.281,-0.417 52.98,-0.417 79.261,0.834c16.269,0.835 17.521,-8.344 17.521,-20.86c0.417,-12.933 -3.338,-19.608 -17.521,-19.191c-13.767,0.417 -27.95,1.669 -41.716,-0.835c-5.424,-0.834 -11.264,-9.595 -12.932,-15.853c-2.921,-9.596 2.503,-15.437 13.766,-15.02c24.195,0.418 48.808,0.835 73.003,0.835c12.515,-0 15.018,6.258 15.018,17.105c-0.417,22.946 -0.417,45.892 0,68.839c0.417,13.35 -5.423,18.356 -18.772,17.939c-45.054,-0.834 -90.524,-1.669 -135.578,-0.834c-17.521,0.417 -20.858,-7.093 -20.441,-22.529c0.835,-32.542 -0.417,-65.501 0.417,-98.043c0.418,-16.688 -5.423,-21.277 -21.692,-21.277c-69.666,0.417 -138.915,0 -208.581,-1.252c-13.349,0 -18.772,3.338 -18.772,17.106c-0,49.23 -0.834,98.459 -1.252,148.107c0,12.098 4.172,17.105 17.104,17.105c47.139,-0.417 94.696,-0 141.835,0.834c11.681,0 18.355,-2.503 17.938,-15.853c-0.417,-27.119 -0,-54.237 0.417,-81.355c0.417,-11.264 -4.589,-14.602 -15.018,-14.185c-20.858,0.417 -41.716,0 -62.574,0c-33.373,0 -34.207,1.669 -28.367,38.383c16.686,-0 33.79,0.417 51.311,-0c12.515,-0.417 17.104,6.675 14.183,16.688c-1.668,5.841 -8.76,14.602 -13.766,14.602c-22.109,1.252 -44.219,0 -66.746,0.417c-12.515,0 -17.521,-5.006 -17.521,-17.522c0.418,-21.695 0.835,-42.972 -0.417,-64.667c-0.834,-17.939 6.258,-22.529 22.944,-22.111c41.716,1.251 83.432,1.668 125.149,0.417c19.189,-0.417 25.447,5.841 25.029,24.615c-0.834,38.382 0,77.182 0,117.234Zm2725.74,-89.854c0.417,-24.198 -0.417,-48.813 0.834,-73.011c0.417,-12.933 -2.086,-20.026 -16.686,-19.191c-12.515,0.417 -23.361,0.417 -22.944,18.357c0.417,49.23 0.417,98.877 -0.417,148.107c-0.418,14.602 5.005,19.191 19.189,19.608c15.852,0.417 20.858,-5.424 20.441,-20.443c-1.252,-24.615 -0.417,-49.23 -0.417,-73.427Zm-517.008,-91.783c-11.704,0.104 -16.959,3.537 -16.959,16.269c0,49.23 -0.834,98.46 -1.251,147.69c-0,11.264 3.337,17.522 17.103,17.522c47.974,-0.417 95.947,0 143.921,0.417c11.681,0 16.269,-3.755 16.269,-15.436c-0.417,-27.118 0,-54.237 0.418,-81.355c0.417,-12.516 -5.841,-15.019 -16.687,-15.019c-20.858,0.417 -41.716,-0 -62.574,0.417c-30.87,0 -35.459,6.675 -25.03,38.8c16.687,0 34.207,-1.252 51.311,0.834c5.006,0.418 11.263,10.43 12.098,16.271c0.417,4.59 -7.092,13.768 -11.264,14.185c-23.361,1.252 -47.139,0.417 -70.917,0.417c-11.681,0 -15.435,-6.258 -15.018,-17.522c0.417,-22.112 0.417,-44.641 -0.417,-66.752c-0.835,-14.185 4.171,-20.026 18.772,-19.609c40.465,0.834 80.512,0.834 120.977,0.834c32.956,0 32.956,-0.417 32.956,32.959l-0,109.725c5.423,1.251 7.926,2.086 10.846,2.086c75.089,0.834 150.178,0.834 225.267,2.086c14.183,-0 15.435,-7.927 15.435,-18.774c-0,-49.23 -0,-98.877 0.834,-148.107c0,-12.934 -4.589,-17.106 -17.103,-16.688c-24.196,0.417 -48.808,-0 -73.004,-0l-89.689,-0c-0.834,36.296 -0.834,70.924 -0.834,109.307c33.79,-0 65.076,-0.418 95.946,-0c15.853,-0 15.018,-10.43 15.435,-21.278c0,-10.847 -1.668,-19.191 -15.852,-18.774c-13.766,0.417 -27.95,0 -41.716,0.417c-12.098,0.418 -17.52,-6.258 -14.601,-16.688c1.669,-5.841 8.761,-14.602 13.767,-14.602c25.029,-1.251 50.059,-0.834 75.089,0.417c4.171,0 11.68,6.258 12.098,10.013c0.834,30.456 0.417,60.495 0.417,92.202c-53.397,-0 -103.456,-0.417 -153.098,0.417c-17.104,0.417 -20.858,-6.675 -20.858,-22.112c0.365,-14.602 0.33,-29.204 0.246,-43.806l-0.076,-12.516c-0.084,-14.602 -0.118,-29.204 0.247,-43.806c-0,-13.768 -4.172,-19.609 -19.19,-19.609c-70.917,0.418 -141.835,0 -212.752,-0.834l-0.562,0.002Zm1086.85,92.2l0.834,-0c0,-25.032 -0.834,-50.065 0.417,-74.679c0.834,-15.02 -6.257,-17.94 -18.355,-17.94c-11.68,-0 -22.11,0.417 -21.692,17.105c0.417,50.482 -0,100.963 -0.418,151.445c0,14.602 7.509,16.688 19.607,16.688c11.681,-0 20.441,-0.418 20.024,-15.854c-0.834,-25.449 -0.417,-51.316 -0.417,-76.765Zm-285.074,-43.389c-0.143,-10.43 -0.265,-20.86 -0.265,-31.29c0,-12.099 -4.172,-17.523 -16.686,-17.523c-71.752,0 -143.087,-0.417 -214.839,-0.834c-10.846,-0 -17.521,2.086 -17.103,14.602c0.417,17.939 -0,36.296 -0,54.236c0.417,37.131 0.417,73.845 0.417,113.479c56.734,0 110.13,0.417 163.527,-0.834c4.172,-0 11.264,-9.179 11.681,-14.602c0.704,-15.254 0.748,-30.508 0.726,-45.762l-0.018,-10.17c-0.012,-8.474 -0.004,-16.949 0.126,-25.423c0.417,-12.516 -5.84,-15.019 -16.686,-15.019c-7.822,0.156 -15.644,0.195 -23.466,0.205l-15.643,0.007c-7.822,0.009 -15.644,0.049 -23.466,0.205c-31.704,-0 -33.373,2.086 -26.281,38.8c17.104,-0 35.042,-1.252 52.98,0.834c4.588,0.417 10.846,10.43 11.263,16.688c0.417,4.59 -7.092,13.768 -11.68,13.768c-23.362,1.252 -47.14,1.252 -70.918,-0.834c-5.006,-0.418 -12.932,-10.013 -13.349,-15.437c-1.669,-20.86 0.417,-41.72 -1.252,-62.58c-1.251,-19.192 4.589,-25.867 24.196,-25.032c37.544,1.668 75.089,1.251 112.633,1.251c35.876,0 35.876,-0.417 35.459,36.297l0,107.221c10.846,0.417 18.772,1.251 27.116,1.669c67.58,0.417 134.743,0.417 202.323,1.668c15.852,0.418 22.527,-3.337 22.11,-20.442c-0.835,-27.536 0.417,-55.488 0.417,-83.441l-0,-80.103c-58.403,0 -114.72,-0.417 -170.619,0.417c-3.338,0 -9.178,7.927 -9.595,12.099c-0.834,27.118 -1.252,54.237 0.417,81.355c0.417,5.423 8.343,14.185 13.349,14.602c27.116,1.669 54.231,0.834 81.347,1.669c14.601,0.417 17.103,-7.093 17.103,-19.609c0,-12.933 -2.502,-21.694 -18.355,-20.86c-13.349,0.834 -26.281,-0.417 -39.63,-0c-12.515,0.417 -16.686,-7.51 -13.766,-17.105c1.668,-5.841 9.177,-13.351 14.6,-13.768c22.944,-1.252 45.888,0.417 68.832,-0.417c14.184,-0.417 17.938,5.423 17.521,18.357c-0.835,22.111 -0.835,44.64 -0,66.752c0.417,15.019 -5.423,18.774 -19.607,18.774c-43.802,-0.834 -87.604,-1.669 -131.406,-0.834c-19.189,0.417 -23.778,-6.675 -23.361,-24.198c0.47,-18.774 0.279,-37.548 0.022,-56.322l-0.174,-12.516Zm-2669.27,133.942c1.506,0.049 3.172,-0.045 5.006,-0.282c11.263,-1.251 24.612,2.921 23.778,-16.688c-1.252,-24.615 -0.417,-48.812 -0.417,-73.01l1.668,-0c0,-25.032 -0.417,-50.064 0,-74.679c0.418,-10.013 0,-18.774 -13.349,-17.105c-5.114,0.59 -11.433,-0.675 -16.686,0.055l-0,181.709Zm-1728.72,-89.98l1.668,-0c0,-25.033 -0.417,-50.065 0,-74.68c0.418,-10.013 0,-18.774 -13.349,-17.105c-10.846,1.252 -27.115,-5.841 -27.115,15.436c-0.417,50.065 -0.834,99.712 -1.669,149.776c-0.417,12.516 4.172,17.94 17.104,16.271c11.263,-1.252 24.612,2.92 23.778,-16.688c-1.252,-24.615 -0.417,-48.813 -0.417,-73.01Zm3545.46,-1.825l1.669,0c-0,-25.032 -0.418,-50.064 -0,-74.679c0.417,-10.013 -0,-18.774 -13.35,-17.105c-10.846,1.251 -27.115,-5.841 -27.115,15.436c-0.417,50.064 -0.834,99.711 -1.669,149.776c-0.417,12.516 4.172,17.939 17.104,16.271c11.263,-1.252 24.612,2.92 23.778,-16.688c-1.251,-24.615 -0.417,-48.813 -0.417,-73.011Z" style="fill:#f04c39;fill-rule:nonzero;"/></g></svg>