<svg xmlns="http://www.w3.org/2000/svg" fill="none" viewBox="0 0 161 136"><g clip-path="url(#a)" fill="#FCDCD9"><path d="M5.56 54.54h7.18c0-3.83-.21-7.6.11-11.33.12-1.44.63-4.14 2.22-4.16 1.43-.02 1.93 2.41 2.1 3.72.5 3.76.58 7.58.85 11.7 1.52.12 2.94.22 5.01.38 0-4.24-.2-8.18.11-12.08.11-1.43.64-4.15 2.22-4.14 1.61.01 2.18 2.79 2.23 4.22.34 10.97.34 21.95.58 32.93.36 16.29.83 32.58 1.26 48.88.02.67-.01 1.34.08 1.99 1.24 9.35 1.25 9.37-8.47 9.35-4.99-.01-9.98-.13-14.97-.14-3.43 0-4.8-1.1-4.79-5.04.05-23.12-.23-46.25-.5-69.37C.71 55.2.14 48.96.19 42.72c.01-1.57.6-4.66 2.37-4.69 1.63-.02 2.11 2.77 2.3 4.26.48 3.92.48 7.9.7 12.25zm8.03 76.07v-58.5H6.7v57.92c2.53.21 4.64.39 6.89.58zm5.86-58.06c0 18.83-.08 37.06.17 55.29.02 1.23 2.46 2.42 3.77 3.64 0-19.4-.01-37.65.01-55.9 0-3.59-2.06-3.57-3.95-3.03zm-6.63-6.33v-5.97H5.76c.1 1.99.18 3.59.28 5.47 2.33.17 4.4.33 6.78.5zm10.09.99v-7.03h-4.79v6.53c1.67.17 2.98.31 4.79.5zm25.67-57.1c-.31 5.36-.27 9.64-.9 13.82-.34 2.23-.57 5.76-2.82 6.42-2.37.69-4.64-2.28-6.12-4.1-4.39-5.41-8.15-11.32-12.29-16.93-.08.03-.08.03-.16.05-.07 5.42.16 10.86-.09 16.28-.08 1.64.02 4.18-1.55 4.87-1.7.74-3.85-1.11-4.98-2.38-4.72-5.26-9.14-10.8-13.86-16.47 0 5.49.22 10.56-.13 15.58-.11 1.53-.98 4.4-2.73 4.42-1.66.03-2.64-2.69-2.71-4.09-.31-6.65-.32-13.32-.07-19.97.06-1.57 1.35-4.19 2.4-4.36 1.64-.27 4.05.66 5.26 1.92 3.21 3.35 5.98 7.13 8.87 10.77 1.11 1.4 2.09 2.91 4.42 4.2 0-4.04-.2-8.09.09-12.11.13-1.78 1.33-4.98 1.94-4.95 2.26.09 5.12.63 6.58 2.13 3.79 3.94 6.95 8.48 10.37 12.77.38.47.8.91 1.95 2.19.35-5.73.46-10.47 1.03-15.15.19-1.55 1.31-3.87 2.47-4.2 1.29-.36 3.58.74 4.61 1.92 4.15 4.76 7.98 9.8 12.97 16.03 0-5.02-.29-8.71.12-12.32.22-1.94.47-5.61 2.53-5.6 1.88.01 2.12 3.37 2.28 5.14.49 5.63.76 11.3.66 16.94-.04 1.89-.33 4.97-2.25 5.64-1.72.6-3.58-1.42-4.72-2.7-4.29-4.81-8.29-9.86-13.17-15.76zm68.91 51.69c-.5-1.73-1.29-3.45-1.43-5.21-.28-3.64-.38-7.32-.24-10.97.12-3.17-1.13-4.68-4.28-4.67-21.8.04-43.6.08-65.4.14-.43 0-.86.26-.9.28 5.18 5.51 10.42 10.99 15.52 16.6.86.95 1.85 2.73 1.5 3.61-.52 1.3-2.18 3-3.38 3.02-6.97.13-13.96-.09-20.93-.47-.78-.04-2.03-1.75-2.12-2.76-.59-7.12-1.17-14.26-1.12-21.39.01-1.28 2.9-3.57 4.54-3.64 9.12-.4 18.27-.18 27.41-.33 13.28-.23 26.55-.99 39.82-.81 15.71.22 13.41.32 14.36 14.03.18 2.65.23 5.35-.05 7.98-.17 1.59-1.08 3.1-1.66 4.64a42.3 42.3 0 0 0-1.64-.05zm-64.14-2.67c.11-.38.22-.76.33-1.13L39.9 45.06c.5 5.31.86 9.19 1.26 13.52 4.13.19 8.16.37 12.19.55z"/><path d="M75.13 52.95c.13-1.52 2.2-3.97 3.57-4.11 6.76-.7 13.59-.75 20.39-1.05 4.07-.18 6.09 1.34 6.05 5.81-.09 10.61.32 21.23.14 31.83-.02 1.22-2.4 3.39-3.74 3.42-7.81.23-15.63 0-23.45-.16-3.1-.06-3.71-2.17-3.68-4.81.08-4.99.28-25.64.72-30.93zm17.04.71v29.66h7.31V53.66h-7.31zM86.5 83.74V54h-6.4v29.29c2 .15 3.74.27 6.4.45zM153.41.07c1.65 0 3.35.05 4.92.49.72.2 1.6 1.37 1.62 2.12.02.72-.85 1.92-1.55 2.12-1.74.49-3.6.72-5.42.73-24.65.06-49.29.07-73.94.08-1 0-2.16.24-2.96-.17-1.17-.6-3.09-1.23-3.12-2.59-.03-1.38 1.93-2.62 3.01-2.71 3.46-.31 6.98-.01 10.48 0 10.16.02 54.8-.11 66.96-.07zM77.6 29.25c-1.55-.02-4.6-.62-4.63-2.37-.03-1.81 3.14-2.58 4.72-2.6 25.81-.22 51.62-.28 77.43-.16 1.66.01 4.97.83 4.96 2.74-.01 1.92-3.34 2.65-5.03 2.68-12.99.23-64.63-.1-77.45-.29zm-.08-11.22c-1.52-.02-4.54-.72-4.53-2.45.01-1.8 3.15-2.48 4.73-2.49 26.09-.2 52.18-.24 78.27-.14 1.37.01 4.06.87 4.11 2.49.06 1.78-2.87 2.98-4.32 2.99-7.97.05-15.95-.43-23.92-.6-5.15-.11-41.38.4-54.34.2zM50.73 75.6c-4.15 0-8.31.21-12.43-.13-1.22-.1-3.44-1.16-3.46-2.64-.02-1.37 2.07-2.56 3.12-2.57 8.94-.06 17.88.11 26.82.43.91.03 2.7 1.09 2.65 2.28-.06 1.36-2.13 2.28-3.27 2.35-4.46.28-8.94.11-13.42.11-.01.06-.01.12-.01.17z"/></g><defs><clipPath id="a"><path fill="#fff" d="M0 0h160.1v136H0z"/></clipPath></defs></svg>