<svg xmlns="http://www.w3.org/2000/svg" xmlns:xlink="http://www.w3.org/1999/xlink" id="Capa_1" x="0" y="0" enable-background="new 0 0 33 27" version="1.1" viewBox="0 0 33 27" xml:space="preserve"><path d="M29.1,7.3c0,0.3,0,0.6,0,0.9c0,8.7-6.6,18.7-18.7,18.7c-3.7,0-7.2-1.1-10.1-2.9c0.5,0.1,1,0.1,1.6,0.1c3.1,0,5.9-1,8.1-2.8	c-2.9-0.1-5.3-1.9-6.1-4.5c0.4,0.1,0.8,0.1,1.2,0.1c0.6,0,1.2-0.1,1.7-0.2c-3-0.6-5.3-3.2-5.3-6.4V10c0.9,0.5,1.9,0.8,3,0.8	C2.9,9.6,1.7,7.6,1.7,5.3C1.7,4.1,2,3,2.6,2c3.2,4,8.1,6.6,13.5,6.9C16,8.4,16,7.9,16,7.4c0-3.6,2.9-6.6,6.6-6.6	c1.9,0,3.6,0.8,4.8,2.1c1.5-0.3,2.9-0.8,4.2-1.6c-0.5,1.5-1.5,2.8-2.9,3.6c1.3-0.1,2.6-0.5,3.8-1C31.5,5.2,30.4,6.4,29.1,7.3z"/></svg>