<svg xmlns="http://www.w3.org/2000/svg" width="165" height="145" fill="none"><g clip-path="url(#clip0)" fill="#FCDCD9"><path d="M156.28 69.43c-1.88-.16-3.33-.28-4.58-.39v25.54c1.55-.17 2.54-.27 3.52-.39 6.69-.79 8.11.41 8.25 7.05.27 13.15.62 26.3.69 39.45.01 1.55-.68 3.69-2.46 3.67-1.58-.03-1.89-1.76-2.08-3.23-.68-5.25-1.02-10.53-1.5-15.97h-4.36c0 5.18.22 10.17-.13 15.11-.11 1.61-.8 3.71-2.6 3.66-1.72-.05-2.08-2.02-2.24-3.62-.39-4.13-.03-8.33-.5-12.45-.17-1.44-1.9-2.7-2.91-4.04-.51.27-1.02.54-1.52.8 0 5.45.17 10.92-.12 16.35-.07 1.38-.89 3.07-2.48 3.03-1.59-.04-2.22-1.71-2.29-3.12-.28-5.26-.11-10.54-.11-15.67-4.28-.56-7.45-.73-10.46-1.49-1.29-.33-3.59-2.4-3.39-3.89.2-1.46 2.6-.71 3.98-.86 2.76-.29 5.57-.09 8.64-.09 0-6.53.61-12.87-.19-19.03-.65-4.96 1.41-5.85 5.31-5.89.99-.01 1.98 0 3.22 0 0-7.58.06-14.99-.09-22.39-.02-.8-1.22-1.57-1.87-2.36-.68.92-1.88 1.8-1.94 2.75-.29 4.48-.05 9-.46 13.47-.13 1.47-.83 3.26-2.47 3.21-1.6-.05-2.1-1.79-2.18-3.24-.27-5.14-.1-10.3-.1-16.07H94.52c0 9.16-.27 17.92.12 26.65.18 4.16-1.3 5.41-5.08 5.24-3.08-.14-6.17-.03-10.71-.03 5.61 4.91 10.15 8.74 14.49 12.79.97.91 2.65 2.73 1.8 3.91-.93 1.29-3.64.29-4.68-.54-6.36-5.1-12.53-10.44-18.65-15.84-.82-.72-1.63-2.46-1.3-3.23.41-.93 2-1.78 3.14-1.87 5.11-.43 10.25-.58 15.16-.82 0-8.92.21-17.69-.09-26.44-.14-4 1.12-5.15 5.05-5.15 19.8 0 39.6-.32 59.4-.38 7.42-.02 8.71 1.46 8.79 8.76.04 3.83.34 7.68.02 11.48-.12 1.44-.95 3.17-2.59 3.13-1.57-.03-2.18-1.63-2.32-3.05-.52-4.59-.56-9.25-.79-14.51zm-3.14 30.74c0 5.42-.14 10.36.1 15.28.06 1.25 1.34 2.44 2.06 3.66 1.03-1.32 2.85-2.6 2.93-3.98.26-4.61-.09-9.26-.26-13.89-.02-.44-.36-.87-.6-1.42-1.33.11-2.61.21-4.23.35zm-10.41.18c.26 5.4.35 10.87.92 16.29.1.95 2.2 1.69 3.97 2.94 0-6.52.02-11.5-.01-16.49-.02-3.18-1.58-4.05-4.88-2.74zm-40.34-49.07c0-13.99.01-27.41-.01-40.84 0-2.16-.53-4.4-.1-6.45.31-1.46 1.16-3.99 2.8-3.98 1.62.02 2.65 2.63 2.69 3.97.25 8.99.14 17.98.14 26.98v19.61h5.5c0-13.43.01-26.7-.01-39.97 0-2.32-.51-4.7-.15-6.95.21-1.28 1.12-3.59 2.61-3.53 1.36.05 2.09 2.24 2.16 3.42.53 8.95.9 17.92 1.13 26.89.17 6.62.03 13.26.03 20.11h5.84c0-7.74.02-15.32-.01-22.9-.02-7.66-.23-15.33-.02-22.98.04-1.57.69-4.55 2.46-4.66 1.78-.1 2.95 2.88 2.98 4.35.19 9.48-.14 18.96-.09 28.45.03 5.47.5 10.95.71 16.42.24 6.21-.18 6.46-6.13 6.68-14.29.51-28.58 1.22-42.87 1.78-2.97.12-5.96.12-8.92-.14-1.05-.09-2.85-.55-3.03-1.7-.19-1.19 1.52-2.52 2.4-2.6 6.92-.65 13.87-1.02 20.81-1.46 3.08-.2 6.19-.34 9.08-.5zM30.69 83.9c-3.04 4.21-5.09 7.45-7.58 10.3-1.02 1.17-2.96 2.84-4.55 2.23-1.43-.56-1.55-2.8-1.68-4.26-.27-2.9-.08-5.83-.08-10.01-3.88 4.28-6.84 7.78-10.08 10.99-1.11 1.1-3.62 2.46-4.27 1.99-1.3-.92-2.41-3.03-2.43-4.66-.08-5.14.27-10.3.73-15.42.1-1.15.8-3.27 2.11-3.28 1.48-.02 2.37 2.39 2.44 3.64.19 3.57-.2 7.16-.42 12.08 4-4.49 7.02-8.14 10.36-11.47 1.34-1.34 3.27-3.6 5.13-2.92 2 .73 1.75 3.92 2.22 5.97.36 1.56.07 3.28.07 6.56 2.99-4.36 5-7.66 7.43-10.63.98-1.2 2.75-3.05 4.33-2.48 1.44.52 1.48 2.83 1.59 4.29.24 3.25.08 6.52.08 10.69 3.74-4.23 6.84-8.04 10.3-11.5 1.19-1.19 3.33-2.16 4.88-1.98.86.1 1.81 2.77 1.98 4.37.25 2.27-.17 4.62-.39 8.33 3.08-4.38 5.23-7.83 7.82-10.92.9-1.08 3.04-2.75 4.36-1.85 1.34.91.59 3.63-.14 4.79A227.67 227.67 0 0 1 53.83 94.7c-.9 1.18-2.97 2.77-4.55 2.14-1.42-.57-1.55-2.8-1.69-4.25-.27-2.9-.08-5.85-.08-10-3.88 4.31-6.92 7.95-10.28 11.26-1.09 1.07-3.12 1.89-4.54 1.67-.84-.13-1.67-2.47-1.89-3.91-.35-2.08-.11-4.24-.11-7.71zm16.82-34.42c2.73-2.38 5.16-4.94 8.04-6.84 1.39-.92 4.21-2.25 5.44-.86 1.16 1.32-.42 3.82-1.45 5-2.16 2.46-4.89 4.42-7.48 6.67 3 3.16 5.94 6.01 8.55 9.13.75.9 1.77 2.91.84 3.87-1.02 1.06-3.26.02-4.31-.75-3.06-2.24-5.82-4.88-8.89-7.53-2.97 2.3-5.57 4.66-8.51 6.43-1.18.71-3.8 1.42-4.73.12-.87-1.2.57-3.17 1.49-4.15 2.12-2.28 4.65-4.18 7.36-6.54-2.49-2.36-4.99-4.33-6.93-6.74-1.12-1.39-3.22-3.89-1.95-5.3 1.35-1.51 4.27.4 5.86 1.44 2.42 1.57 4.38 3.91 6.67 6.05z"/><path d="M84.81 40.66c2.58 0 5.59-.22 8.55.11 1.17.13 3.22.89 3.3 2.23.07 1.23-1.8 2.34-2.76 2.38-7.13.31-14.26.4-21.4.35-.8-.01-2.37-.94-2.39-2-.01-1.07 1.5-1.98 2.36-2.09 3.96-.5 7.94-.67 12.34-.98zM70.12 88.83c.22-2.4 4.54-1.69 6.88-2.2 1.9-.41 3.98-.64 5.86-.3 1.1.2 2.97 1.28 2.94 2.61-.03 1.21-1.73 1.97-2.78 2.26-1.71.47-13.14.27-12.9-2.37zm.01-9.94c.04-2.87 5.31-2.2 8.07-2.96 1.55-.43 3.39-.49 4.92-.08 1.34.37 3.62 1.02 3.64 2.5.02 1.37-2.07 2.06-3.3 2.4-1.71.48-13.36.86-13.33-1.86zm7.38-6.05c-2.73-1.47-7.65-1.33-7.4-3.97.24-2.55 4.84-1.94 7.33-2.21 2.93-.32 6.98-2.5 7.98 2.33.14.66-4.77 2.36-7.91 3.85zM5.02 69c-2.37.19-3.09-2.88-3.02-3.83.08-1.06 1.18-2.95 2.53-3.01 1.33-.06 2.55 1.67 2.78 2.73.2.92-.02 3.93-2.29 4.11zm10.26-.44c-2.2.22-3.36-2.83-3.18-3.53.32-1.25 1.41-3.27 2.9-3.26 1.32.01 2.4 1.85 2.54 2.91.12.99-.25 3.68-2.26 3.88zm9.93-8.14c2.24.09 2.62 3.02 2.5 3.99-.12 1.01-1.77 2.64-2.61 2.55-1.08-.11-2.7-1.57-2.82-2.59-.1-.95.56-4.05 2.93-3.95zm-10.67-8.91c1.94-.08 2.95 2.79 2.79 3.05-.75 1.21-1.89 2.34-3.15 2.98-.32.16-2.32-1.63-2.27-2.44.07-1.06.66-3.5 2.63-3.59zM3.57 49.3c-2.22-.17-2.31-3.05-2.34-4.21-.01-.67 1.95-2.04 2.79-1.89.93.18 2.15 1.71 2.21 2.71.06.86-.61 3.55-2.66 3.39z"/></g><defs><clipPath id="clip0"><path fill="#fff" d="M0 0H164.15V144.35H0z"/></clipPath></defs></svg>