<svg xmlns="http://www.w3.org/2000/svg" fill="none" viewBox="0 0 147 145"><g clip-path="url(#a)" fill="#FCDCD9"><path d="M116.33 60.61c0 8.53-.13 16.65.06 24.77.08 3.49-1.32 4.84-4.63 4.86-17.42.13-34.84.3-52.26.46-1.66.01-3.41.32-4.97-.09-1.21-.32-3.23-.99-3.27-2.34-.04-1.45 2.16-2.63 3.32-2.7 7.97-.5 15.96-.79 23.95-.89 10.64-.13 21.29-.03 32.92-.03V63c-.01-8.04.18-8.23 8-8.36 1.29-.02 2.57-.13 4.87-.26-4.62-5.74-8.87-10.77-12.79-16.04-1.32-1.77-3.67-4.21-2.68-6.26 1-2.07 4.41-1.76 6.63-1.8 8.32-.16 16.65.02 24.98.1 4.99.05 6.32 2.07 3.85 6.51-3.14 5.64-6.69 11.06-10.44 17.17 3.23.15 6.11.07 8.92.5 1.37.21 3.8.62 3.88 2.1.08 1.49-2.37 2.43-3.64 2.53-7.63.59-15.29.85-22.94 1.22-1 .04-1.99.1-3.76.2zm12.56-10.07 8.93-14.69h-20.87c4.08 5.04 7.7 9.48 11.94 14.69zM37.96.56c2.92.05 5.24.96 5.33 4.54.22 8.82.63 17.64.72 26.46.05 5.17-1.77 6.28-6.82 6.27-10.11-.03-20.23.5-30.34.4-1.41-.01-3.98-2.31-3.99-3.57-.15-10.48.01-20.97.58-31.42C3.5 2.07 6.66.32 8.51.14c4.62-.45 24.29.33 29.45.42zM8.44 21.91v9.08h29.67v-9.08H8.44zM37.69 6.92H8.45v8.54c7.44 0 14.68-.08 21.92.02 8.23.12 8.23.19 7.32-8.56zm-9.17 89.66c4.55 8.26 9 16.2 13.31 24.21 2.68 4.99 1.21 7.61-4.41 7.69-10.47.14-20.95.18-31.42.02-1.49-.02-4.01-.53-4.45-2.12-.36-1.3 12.18-23.03 15.34-30.41-4.49 0-8.39.22-12.24-.11-1.6-.14-4.5-.51-4.65-2.23-.15-1.77 2.84-2.98 4.3-3.03 8.97-.27 17.95-.12 26.93-.11 3.15 0 6.36-.36 9.44.11 1.55.24 4.35 1.26 4.3 3.03-.06 1.81-2.97 2.64-4.58 2.83-3.75.41-7.57.12-11.87.12zm8.07 26.21c-4.92-8.43-9.26-15.88-14.04-24.08-3.92 8.69-7.47 16.58-10.85 24.08h24.89zM9.64 58.65c8.3-4.55 16.09-8.9 23.96-13.11 5.46-2.92 7.75-1.54 7.8 4.5.08 9.97.29 19.95.17 29.92-.02 1.86-.13 4.98-2.02 5.57C37.99 86 15.8 73.19 9.11 70.37c0 4.42.19 8.35-.09 12.25-.11 1.52-.36 4.19-1.98 4.45-1.72.28-3.3-2.45-3.43-3.82-.5-5.28-.47-10.61-.46-15.92.02-6.98.05-13.97.44-20.93.08-1.38 1.12-3.98 2.76-4.01 1.78-.04 2.96 2.7 3.14 4.21.46 3.76.15 7.61.15 12.05zm26.21 16.8V50.62c-8.42 4.89-15.9 9.24-24.11 14.01l24.11 10.82z"/><path d="M95.22 52.51c-4.5-4.11-8.04-7.13-11.31-10.43-1.15-1.17-2.64-3.51-2.18-4.42.73-1.45 2.84-2.5 4.57-3.05 2-.63 4.24-.53 7.46-.86-3.8-3.49-7.08-6.34-10.18-9.38-3.36-3.31-2.86-5.35 1.66-6.49 2.88-.72 5.89-.9 10.08-1.5-4.08-3.59-7.63-6.44-10.81-9.67-1.08-1.1-2.86-3.44-1.77-4.75 1.03-1.24 3.61-.05 4.69.83 4.78 3.86 9.4 7.96 13.87 12.17 2.98 2.8 2.39 4.92-1.55 5.97-2.87.76-5.86 1.08-9.74 1.77 3.67 3.61 6.98 6.7 10.09 9.97 3.31 3.47 2.7 5.38-1.94 6.28-2.25.44-4.57.54-7.98.92 4.56 4.26 8.62 7.83 12.37 11.7 1.33 1.37 3.65 3.44 2.8 5.24-.77 1.64-3.54 1.09-5.31 1.12-14.78.24-29.57.46-44.35.37-1.69-.01-5.09-1.04-5.06-3.03.03-1.83 3.16-2.6 4.76-2.63 12.78-.23 25.55-.13 39.83-.13zm3.8 68.06c-4.43-5.76-8.8-11.2-12.86-16.86-1.03-1.44-1.71-3.75-1.3-5.34.24-.93 2.94-1.67 4.55-1.72 7.15-.23 14.31-.19 21.47-.22 3.77-.01 5.23 1.93 3.74 5.37-2.17 5.03-4.92 9.84-6.78 14.97-.83 2.3-.75 5.41.08 7.73 1.73 4.83 4.32 9.35 6.41 14.06 1.85 4.16.68 6.08-3.7 6.12-7.16.06-14.33.08-21.49-.09-1.48-.04-3.99-.77-4.18-1.6-.38-1.67-.02-4.01.97-5.4 4.07-5.69 8.49-11.11 13.09-17.02zm2.85 5.47c-3.49 4.55-6.56 8.55-10.12 13.2h16.68c-2.11-4.25-4.14-8.34-6.56-13.2zm-10.4-24.44c3.85 4.93 7 8.96 10.44 13.37 2.33-4.72 4.42-8.93 6.61-13.37H91.47zM54.2 79.38c-1.49-.09-4.34-1.08-4.33-2.83.01-1.65 2.68-2.47 4.14-2.63 3.95-.44 7.96-.34 11.94-.37 11.61-.09 23.22-.26 34.83-.1 1.69.02 5.04.64 5.03 2.54-.01 1.82-3.21 2.37-4.84 2.41-9.77.23-40.98 1.31-46.77.98zm1.99-10.72c-1 0-2.12.22-2.96-.16-1.21-.55-3.29-1-3.32-2.36-.03-1.37 2.05-2.35 3.2-2.5 5.1-.64 10.25-1.16 15.39-1.22 10.8-.14 21.6-.07 32.4.21 1.68.04 4.94.7 4.97 2.59.04 1.92-3.22 2.63-4.96 2.82-3.93.43-33.79.63-44.72.62zm72.63 21.01c5.62 4.72 10.75 8.89 15.67 13.3.97.87 2.45 2.85 1.61 4.05-.94 1.34-3.8.63-4.84-.17-6.72-5.18-13.26-10.58-19.67-16.14-1.04-.9-1.51-2.92-1.46-4.39.02-.69 1.88-1.81 2.96-1.88 6.47-.45 12.95-.77 19.43-.83 1.35-.01 3.94.43 4.07 1.94.13 1.47-2.27 2.32-3.56 2.54-4.4.71-8.88 1.02-14.21 1.58zM50.56 6.11c.04-1.14.69-3.27 2.01-3.35 1.33-.08 2.41 2.07 2.43 3.13.2 12.81.24 25.62.1 38.43-.01.98-1.22 3.01-2.53 2.92-1.48-.1-2.34-2.43-2.39-3.7-.25-6.31.18-31.28.38-37.43z"/><path d="M66.25 24.9c0 5.97.18 11.95-.13 17.9-.08 1.51-.91 4.5-2.65 4.42-1.61-.08-2.06-2.86-2.08-4.31-.19-12.1-.23-24.2-.06-36.3.02-1.3.97-3.92 2.53-3.85 1.62.07 2.24 2.79 2.31 4.24.26 5.96.11 11.94.11 17.9h-.03zM71.3 7.79c.07-1.69.13-4.86 1.92-4.99 1.91-.15 2.68 3.25 2.78 4.96.38 6.14.43 29.8.14 35.45-.07 1.39-.96 4.06-2.57 4.04-1.58-.02-2.39-2.64-2.45-4.01-.27-6.15-.07-29.8.18-35.45zm72.29 12.12c1.03.05 2.86 1.02 3.01 1.89.15.86-1.16 2.28-2.09 2.81-1.08.62-2.55.74-3.86.76-8.15.15-16.3.38-24.44.17-1.61-.04-4.87-1.47-4.77-2.86.1-1.33 3.14-2.08 4.81-2.28 4.45-.53 8.95-.58 13.43-.82 0 .09 9.28.13 13.91.33zm-.71-18.88c1.32.09 3.65.71 3.83 2.18.18 1.51-2.13 3.03-3.25 3.06-9.64.34-19.29.4-28.94.32-.89-.01-2.67-1.2-2.64-2.41.03-1.36 2.01-2.52 3.08-2.58 5.13-.27 23.78-.85 27.92-.57zm-27.32 15.24c-1.49-.13-4.29-1.64-4.26-2.93.03-1.21 2.75-2.5 4.15-2.53 9.15-.18 18.3-.12 27.44.13 1.29.04 3.83 1.2 3.82 2.31-.02 1.22-2.76 2.37-4.22 2.48-4.46.34-22.47.94-26.93.54zm8.47 82.08c1.39 0 2.15 1.37 3.02 2.1 5.94 5.03 11.92 10.01 17.71 15.21.96.86 2.43 2.92 1.53 4.09-.98 1.27-3.7.35-4.71-.48-6.37-5.28-12.53-10.82-18.67-16.38-.71-.64-1.21-1.96-1.11-2.88.06-.61 1.2-1.66 2.23-1.66zm7.04-23.61c4.16-.2 8.31-.53 12.46-.51 1.04 0 2.96.51 3.11 1.7.17 1.3-1.81 2.56-2.81 2.64-6.79.55-13.61.87-20.43.98-1.08.02-3.22-.8-3.28-2.12-.06-1.48 2.19-2.46 3.47-2.68 2.42-.43 4.98-.13 7.48-.13v.12zm2.03-4.99c-2.98 0-5.98.22-8.91-.1-1.31-.14-3.66-.69-3.74-2.14-.09-1.48 2.32-2.53 3.54-2.6 6.43-.35 12.88-.41 19.32-.29 1.13.02 3.33.73 3.35 2.06.02 1.47-2.35 2.21-3.66 2.4-3.26.47-6.59.4-9.89.54-.02.04-.01.09-.01.13zM100.36.1c2.12-.05 2.93 2.71 2.88 3.7-.05.96-1.75 2.53-2.76 2.56-.99.03-2.75-1.49-2.83-2.44-.08-1 .59-3.77 2.71-3.82z"/></g><defs><clipPath id="a"><path fill="#fff" d="M0 0h146.72v144.71H0z"/></clipPath></defs></svg>