<svg xmlns="http://www.w3.org/2000/svg" width="146" height="93" fill="none"><g clip-path="url(#clip0)" fill="#FCDCD9"><path d="M18.24 45.14h6.74c0-6.7-.06-13.31.02-19.91.08-6.66.1-13.34.56-19.98.12-1.74.76-5.06 2.69-5.05 1.91 0 2.66 3.35 2.65 5.02-.07 12.16-.49 24.31-.78 36.47-.02.97.13 1.94.23 3.28l6.27-.31V10.11c0-1.67-.3-3.45.19-4.97.57-1.78.9-5.05 2.8-4.98C41.53.24 42 3.61 42 5.34c.05 10.66-.25 21.32-.42 31.99-.03 2.14 0 4.28 0 6.73h16.27c-2.11-2.45-3.98-4.09-5.12-6.14-.72-1.29-1.67-3.73-.46-4.82 1.23-1.1 3.71.08 4.78 1.02 2.7 2.35 4.95 5.22 7.72 8.25 2.55-3.18 4.59-5.99 6.94-8.5.81-.86 2.55-2.13 3.66-1.42 1.25.81.83 3.3.23 4.39-1.83 3.32-4.18 6.36-6.73 10.11 2.08 1.86 4.44 3.51 6.14 5.68.86 1.1 1.91 3.65.71 4.76-1.09 1.01-3.15-.24-4.31-1-2.2-1.44-4.09-3.34-6.39-5.29-2.5 2.7-4.67 5.41-7.25 7.66-.92.8-3.18 1.64-4.27.66-1.14-1.02-.49-3.37.18-4.52 1.22-2.06 3.14-3.71 4.88-5.65h-16.8c0 2.27-.01 4.02 0 5.78.07 10.83.08 21.66.28 32.49.06 3.39-1.26 4.92-4.61 4.97-10.48.15-20.96.45-31.44.51-3.49.02-5.56-1.91-5.64-5.59-.1-4.33-.28-8.66-.28-12.99C.06 51.77.04 29.12.1 6.46.11 4-.88.41 3.11.48c.94.02 2.58 3.84 2.6 5.92.15 25.48.05 50.97.02 76.46v4.57h7.03v-5.44c0-23.82.01-47.65.01-71.47 0-2.17-.25-4.38.14-6.48.26-1.37.74-3.76 2.23-3.84 1.47-.08 2.42 2.24 2.59 3.5.47 3.45.47 6.98.48 10.47.06 10.14.03 20.28.03 30.97zm.62 5.35v36.64h6.07V50.49h-6.07zm17.35 36.99V49.87c-2.33.2-3.88.34-5.08.45v37.17c2.07-.01 3.56-.01 5.08-.01zm76.96-81.93c0 15.49.13 29.57-.11 43.64-.05 2.83-.17 7.96-2.85 7.96-2.32 0-2.36-5.04-2.45-7.79-.42-13.12-.5-26.25-.72-39.37-.02-.96-.2-1.92-.32-2.98h-4.87c0 12.9-.01 25.51.01 38.12.01 2.83.39 5.68.12 8.47-.13 1.33-.68 3.75-2.16 3.83-1.51.08-2.5-2.36-2.6-3.63-.57-7.45-.94-14.91-1.1-22.38-.17-7.97-.04-15.94-.04-24.28H90.1c-.09.92-.27 1.86-.25 2.8.26 13.61.56 27.22.84 40.83.02.83.31 1.83-.05 2.46-.85 1.51-1.31 4.3-3.05 4.24-1.64-.06-2.47-2.75-2.52-4.18-.3-7.98-.21-15.97-.29-23.96-.07-6.81-.07-13.63-.34-20.43-.27-6.96.07-7.28 6.9-7.45 16.77-.41 33.53-1.03 50.3-1.44 1.14-.03 3.22.3 3.47 1.55.25 1.28-1.66 2.64-2.64 2.76-5.07.63-10.18.99-15.28 1.19-4.78.18-9.57.04-14.02.04z"/><path d="M68.2 14.87c2.93 2.77 5.62 5.02 7.9 7.62.88 1 2.15 3.07 1.24 4.25-.99 1.29-3.7.62-4.79-.15-2.82-1.98-5.21-4.58-8.05-7.18-2.7 2.41-5.21 5.05-8.13 7.09-1.28.89-3.95 2.08-5.16.8-1.18-1.25.09-3.87 1.07-4.97 2.27-2.57 5.12-4.62 7.77-6.9-3.09-3.25-6.02-6.12-8.66-9.25-.72-.85-1.65-2.8-.77-3.73.98-1.03 3.17-.12 4.17.62 3.06 2.25 5.82 4.91 9.03 7.7 2.81-2.2 5.36-4.54 8.27-6.31 1.23-.75 3.8-1.7 4.81-.42.98 1.24-.51 3.4-1.47 4.47-1.97 2.19-4.43 3.95-7.23 6.36zm-3.22 56.97c3.03-2.36 5.65-4.7 8.58-6.53 1.09-.68 3.46-1.38 4.4-.22.91 1.12-.25 3.2-1.1 4.13-2.11 2.31-4.65 4.23-7.54 6.77 2.81 2.65 5.57 4.96 7.93 7.63.87.99 2.06 3.11 1.13 4.28-1.01 1.27-3.69.58-4.78-.19-2.82-1.99-5.2-4.6-8.02-7.19-2.78 2.5-5.29 5.16-8.23 7.21-1.25.87-3.95 1.93-5.13.64-1.1-1.21.09-3.67 1.03-4.72 2.29-2.58 5.1-4.69 7.86-7.12-3.13-3.3-6.14-6.3-8.9-9.52-.63-.74-1.32-2.53-.54-3.39.86-.95 2.94-.42 3.78.21 3.3 2.46 6.34 5.28 9.53 8.01z"/></g><defs><clipPath id="clip0"><path fill="#fff" d="M0 0H145.13V93H0z"/></clipPath></defs></svg>