<svg version="1.1" id="Layer_1" xmlns="http://www.w3.org/2000/svg" x="0" y="0" viewBox="0 0 180 32" style="enable-background:new 0 0 180 32" xml:space="preserve"><style>.st2{fill:#fff}</style><g id="Page-1_1_"><g id="Artboard"><g id="Group"><g id="Page-1"><path id="Fill-1" style="fill:#50f" d="m63.6 10 5 12.7h-10l-3.5 9h3.2l2.4-6.1h9l2.4 6.1h3.2L65.1 6z"/><g id="Group-13" transform="translate(0 .18)"><g id="Group-4" transform="translate(25.536 6.224)"><defs><filter id="Adobe_OpacityMaskFilter" filterUnits="userSpaceOnUse" x=".1" y=".2" width="23.4" height="25.3"><feColorMatrix values="1 0 0 0 0 0 1 0 0 0 0 0 1 0 0 0 0 0 1 0"/></filter></defs><mask maskUnits="userSpaceOnUse" x=".1" y=".2" width="23.4" height="25.3" id="mask-2_1_"><g style="filter:url(#Adobe_OpacityMaskFilter)"><path id="path-1_1_" class="st2" d="M.1 25.5h23.3V.2H.1z"/></g></mask><path id="Fill-2" d="m21 18-.6.8c-1.8 2.4-4.6 3.8-7.7 3.8-5.4 0-9.6-4.2-9.6-9.7 0-5.5 4-9.7 9.4-9.7 2.9 0 5.5 1.2 7.3 3.4l.6.8 2.4-1.8-.7-.8C19.7 1.9 16.3.3 12.5.3 5.4.2.1 5.7.1 12.9c0 3.5 1.2 6.7 3.6 9 2.3 2.4 5.6 3.7 9.1 3.7 4 0 7.7-1.8 10.1-4.9l.6-.8L21 18z" style="mask:url(#mask-2_1_);fill:#50f"/></g><defs><filter id="Adobe_OpacityMaskFilter_1_" filterUnits="userSpaceOnUse" x="118.5" y="6.7" width="3.1" height="24.8"><feColorMatrix values="1 0 0 0 0 0 1 0 0 0 0 0 1 0 0 0 0 0 1 0"/></filter></defs><mask maskUnits="userSpaceOnUse" x="118.5" y="6.7" width="3.1" height="24.8" id="mask-4_1_"><g style="filter:url(#Adobe_OpacityMaskFilter_1_)"><path id="path-3_1_" class="st2" d="M0 31.7h179.8V.1H0z"/></g></mask><path id="Fill-5" style="mask:url(#mask-4_1_);fill:#50f" d="M118.5 31.5h3.1V6.7h-3.1z"/><defs><filter id="Adobe_OpacityMaskFilter_2_" filterUnits="userSpaceOnUse" x="130.7" y="6.4" width="23.4" height="25.3"><feColorMatrix values="1 0 0 0 0 0 1 0 0 0 0 0 1 0 0 0 0 0 1 0"/></filter></defs><mask maskUnits="userSpaceOnUse" x="130.7" y="6.4" width="23.4" height="25.3" id="mask-4_2_"><g style="filter:url(#Adobe_OpacityMaskFilter_2_)"><path id="path-3_2_" class="st2" d="M0 31.7h179.8V.1H0z"/></g></mask><path id="Fill-7" d="m151.7 24.2-.6.8c-1.8 2.4-4.6 3.8-7.7 3.8-5.4 0-9.6-4.2-9.6-9.7 0-5.5 4-9.7 9.4-9.7 2.9 0 5.5 1.2 7.3 3.4l.6.8 2.4-1.8-.7-.8c-2.4-2.9-5.8-4.5-9.6-4.5-7.1 0-12.4 5.4-12.5 12.6 0 3.5 1.2 6.7 3.6 9 2.3 2.4 5.6 3.7 9.1 3.7 4 0 7.7-1.8 10.1-4.9l.6-.8-2.4-1.9z" style="mask:url(#mask-4_2_);fill:#50f"/><defs><filter id="Adobe_OpacityMaskFilter_3_" filterUnits="userSpaceOnUse" x="83.1" y="5.8" width="25.2" height="25.7"><feColorMatrix values="1 0 0 0 0 0 1 0 0 0 0 0 1 0 0 0 0 0 1 0"/></filter></defs><mask maskUnits="userSpaceOnUse" x="83.1" y="5.8" width="25.2" height="25.7" id="mask-4_3_"><g style="filter:url(#Adobe_OpacityMaskFilter_3_)"><path id="path-3_3_" class="st2" d="M0 31.7h179.8V.1H0z"/></g></mask><path id="Fill-8" style="mask:url(#mask-4_3_);fill:#50f" d="M95.7 22.4 83.1 5.8v5l9.5 12.5 3.1 4 2.5-3.4 7-9.1v16.7h3.1V5.8z"/><defs><filter id="Adobe_OpacityMaskFilter_4_" filterUnits="userSpaceOnUse" x="83.1" y="19.3" width="3.1" height="12.2"><feColorMatrix values="1 0 0 0 0 0 1 0 0 0 0 0 1 0 0 0 0 0 1 0"/></filter></defs><mask maskUnits="userSpaceOnUse" x="83.1" y="19.3" width="3.1" height="12.2" id="mask-4_4_"><g style="filter:url(#Adobe_OpacityMaskFilter_4_)"><path id="path-3_4_" class="st2" d="M0 31.7h179.8V.1H0z"/></g></mask><path id="Fill-9" style="mask:url(#mask-4_4_);fill:#50f" d="M83.1 19.3v12.2h3.1v-8.2z"/><defs><filter id="Adobe_OpacityMaskFilter_5_" filterUnits="userSpaceOnUse" x="0" y="5.8" width="20.2" height="25.7"><feColorMatrix values="1 0 0 0 0 0 1 0 0 0 0 0 1 0 0 0 0 0 1 0"/></filter></defs><mask maskUnits="userSpaceOnUse" x="0" y="5.8" width="20.2" height="25.7" id="mask-4_5_"><g style="filter:url(#Adobe_OpacityMaskFilter_5_)"><path id="path-3_5_" class="st2" d="M0 31.7h179.8V.1H0z"/></g></mask><path id="Fill-10" style="mask:url(#mask-4_5_);fill:#50f" d="m10 5.8-1.6 4 5 12.8H3.5L0 31.5h3.2l2.4-6h9l2.4 6h3.2z"/><defs><filter id="Adobe_OpacityMaskFilter_6_" filterUnits="userSpaceOnUse" x="159.6" y="5.8" width="20.2" height="25.7"><feColorMatrix values="1 0 0 0 0 0 1 0 0 0 0 0 1 0 0 0 0 0 1 0"/></filter></defs><mask maskUnits="userSpaceOnUse" x="159.6" y="5.8" width="20.2" height="25.7" id="mask-4_6_"><g style="filter:url(#Adobe_OpacityMaskFilter_6_)"><path id="path-3_6_" class="st2" d="M0 31.7h179.8V.1H0z"/></g></mask><path id="Fill-11" style="mask:url(#mask-4_6_);fill:#50f" d="m169.6 5.8-1.6 4 5.1 12.8h-10l-3.5 8.9h3.2l2.4-6h9l2.4 6h3.2z"/><defs><filter id="Adobe_OpacityMaskFilter_7_" filterUnits="userSpaceOnUse" x="65.8" y=".1" width="4" height="3.8"><feColorMatrix values="1 0 0 0 0 0 1 0 0 0 0 0 1 0 0 0 0 0 1 0"/></filter></defs><mask maskUnits="userSpaceOnUse" x="65.8" y=".1" width="4" height="3.8" id="mask-4_7_"><g style="filter:url(#Adobe_OpacityMaskFilter_7_)"><path id="path-3_7_" class="st2" d="M0 31.7h179.8V.1H0z"/></g></mask><path id="Fill-12" style="mask:url(#mask-4_7_);fill:#50f" d="M69.9.1 67.6 4h-1.8L67.3.1z"/></g></g></g></g></g></svg>