<?xml version="1.0" encoding="utf-8"?>
<!-- Generator: Adobe Illustrator 22.1.0, SVG Export Plug-In . SVG Version: 6.00 Build 0)  -->
<svg version="1.1" id="Layer_1" xmlns="http://www.w3.org/2000/svg" xmlns:xlink="http://www.w3.org/1999/xlink" x="0px" y="0px"
	 viewBox="0 0 180 32" style="enable-background:new 0 0 180 32;" xml:space="preserve">
<style type="text/css">
	.st0{fill:#5500FF;}
	.st1{filter:url(#Adobe_OpacityMaskFilter);}
	.st2{fill:#FFFFFF;}
	.st3{mask:url(#mask-2_1_);fill:#5500FF;}
	.st4{filter:url(#Adobe_OpacityMaskFilter_1_);}
	.st5{mask:url(#mask-4_1_);fill:#5500FF;}
	.st6{filter:url(#Adobe_OpacityMaskFilter_2_);}
	.st7{mask:url(#mask-4_2_);fill:#5500FF;}
	.st8{filter:url(#Adobe_OpacityMaskFilter_3_);}
	.st9{mask:url(#mask-4_3_);fill:#5500FF;}
	.st10{filter:url(#Adobe_OpacityMaskFilter_4_);}
	.st11{mask:url(#mask-4_4_);fill:#5500FF;}
	.st12{filter:url(#Adobe_OpacityMaskFilter_5_);}
	.st13{mask:url(#mask-4_5_);fill:#5500FF;}
	.st14{filter:url(#Adobe_OpacityMaskFilter_6_);}
	.st15{mask:url(#mask-4_6_);fill:#5500FF;}
	.st16{filter:url(#Adobe_OpacityMaskFilter_7_);}
	.st17{mask:url(#mask-4_7_);fill:#5500FF;}
</style>
<title>Artboard</title>
<desc>Created with Sketch.</desc>
<g id="Page-1_1_">
	<g id="Artboard">
		<g id="Group">
			<g id="Page-1">
				<polygon id="Fill-1" class="st0" points="63.6,10 68.6,22.7 58.6,22.7 55.1,31.7 58.3,31.7 60.7,25.6 69.7,25.6 72.1,31.7 
					75.3,31.7 65.1,6 				"/>
				<g id="Group-13" transform="translate(0.000000, 0.180179)">
					<g id="Group-4" transform="translate(25.536332, 6.223805)">
						<g id="Clip-3">
						</g>
						<defs>
							<filter id="Adobe_OpacityMaskFilter" filterUnits="userSpaceOnUse" x="0.1" y="0.2" width="23.4" height="25.3">
								<feColorMatrix  type="matrix" values="1 0 0 0 0  0 1 0 0 0  0 0 1 0 0  0 0 0 1 0"/>
							</filter>
						</defs>
						<mask maskUnits="userSpaceOnUse" x="0.1" y="0.2" width="23.4" height="25.3" id="mask-2_1_">
							<g class="st1">
								<polygon id="path-1_1_" class="st2" points="0.1,25.5 23.4,25.5 23.4,0.2 0.1,0.2 								"/>
							</g>
						</mask>
						<path id="Fill-2" class="st3" d="M21,18l-0.6,0.8c-1.8,2.4-4.6,3.8-7.7,3.8c-5.4,0-9.6-4.2-9.6-9.7c0-5.5,4-9.7,9.4-9.7
							c2.9,0,5.5,1.2,7.3,3.4l0.6,0.8l2.4-1.8l-0.7-0.8c-2.4-2.9-5.8-4.5-9.6-4.5C5.4,0.2,0.1,5.7,0.1,12.9c0,3.5,1.2,6.7,3.6,9
							c2.3,2.4,5.6,3.7,9.1,3.7c4,0,7.7-1.8,10.1-4.9l0.6-0.8L21,18z"/>
					</g>
					<g id="Clip-6">
					</g>
					<defs>
						<filter id="Adobe_OpacityMaskFilter_1_" filterUnits="userSpaceOnUse" x="118.5" y="6.7" width="3.1" height="24.8">
							<feColorMatrix  type="matrix" values="1 0 0 0 0  0 1 0 0 0  0 0 1 0 0  0 0 0 1 0"/>
						</filter>
					</defs>
					<mask maskUnits="userSpaceOnUse" x="118.5" y="6.7" width="3.1" height="24.8" id="mask-4_1_">
						<g class="st4">
							<polygon id="path-3_1_" class="st2" points="0,31.7 179.8,31.7 179.8,0.1 0,0.1 							"/>
						</g>
					</mask>
					<polygon id="Fill-5" class="st5" points="118.5,31.5 121.6,31.5 121.6,6.7 118.5,6.7 					"/>
					<defs>
						<filter id="Adobe_OpacityMaskFilter_2_" filterUnits="userSpaceOnUse" x="130.7" y="6.4" width="23.4" height="25.3">
							<feColorMatrix  type="matrix" values="1 0 0 0 0  0 1 0 0 0  0 0 1 0 0  0 0 0 1 0"/>
						</filter>
					</defs>
					<mask maskUnits="userSpaceOnUse" x="130.7" y="6.4" width="23.4" height="25.3" id="mask-4_2_">
						<g class="st6">
							<polygon id="path-3_2_" class="st2" points="0,31.7 179.8,31.7 179.8,0.1 0,0.1 							"/>
						</g>
					</mask>
					<path id="Fill-7" class="st7" d="M151.7,24.2l-0.6,0.8c-1.8,2.4-4.6,3.8-7.7,3.8c-5.4,0-9.6-4.2-9.6-9.7c0-5.5,4-9.7,9.4-9.7
						c2.9,0,5.5,1.2,7.3,3.4l0.6,0.8l2.4-1.8l-0.7-0.8c-2.4-2.9-5.8-4.5-9.6-4.5c-7.1,0-12.4,5.4-12.5,12.6c0,3.5,1.2,6.7,3.6,9
						c2.3,2.4,5.6,3.7,9.1,3.7c4,0,7.7-1.8,10.1-4.9l0.6-0.8L151.7,24.2z"/>
					<defs>
						<filter id="Adobe_OpacityMaskFilter_3_" filterUnits="userSpaceOnUse" x="83.1" y="5.8" width="25.2" height="25.7">
							<feColorMatrix  type="matrix" values="1 0 0 0 0  0 1 0 0 0  0 0 1 0 0  0 0 0 1 0"/>
						</filter>
					</defs>
					<mask maskUnits="userSpaceOnUse" x="83.1" y="5.8" width="25.2" height="25.7" id="mask-4_3_">
						<g class="st8">
							<polygon id="path-3_3_" class="st2" points="0,31.7 179.8,31.7 179.8,0.1 0,0.1 							"/>
						</g>
					</mask>
					<polygon id="Fill-8" class="st9" points="95.7,22.4 83.1,5.8 83.1,10.8 92.6,23.3 95.7,27.3 98.2,23.9 105.2,14.8 105.2,31.5 
						108.3,31.5 108.3,5.8 					"/>
					<defs>
						<filter id="Adobe_OpacityMaskFilter_4_" filterUnits="userSpaceOnUse" x="83.1" y="19.3" width="3.1" height="12.2">
							<feColorMatrix  type="matrix" values="1 0 0 0 0  0 1 0 0 0  0 0 1 0 0  0 0 0 1 0"/>
						</filter>
					</defs>
					<mask maskUnits="userSpaceOnUse" x="83.1" y="19.3" width="3.1" height="12.2" id="mask-4_4_">
						<g class="st10">
							<polygon id="path-3_4_" class="st2" points="0,31.7 179.8,31.7 179.8,0.1 0,0.1 							"/>
						</g>
					</mask>
					<polygon id="Fill-9" class="st11" points="83.1,19.3 83.1,31.5 86.2,31.5 86.2,23.3 					"/>
					<defs>
						<filter id="Adobe_OpacityMaskFilter_5_" filterUnits="userSpaceOnUse" x="0" y="5.8" width="20.2" height="25.7">
							<feColorMatrix  type="matrix" values="1 0 0 0 0  0 1 0 0 0  0 0 1 0 0  0 0 0 1 0"/>
						</filter>
					</defs>
					<mask maskUnits="userSpaceOnUse" x="0" y="5.8" width="20.2" height="25.7" id="mask-4_5_">
						<g class="st12">
							<polygon id="path-3_5_" class="st2" points="0,31.7 179.8,31.7 179.8,0.1 0,0.1 							"/>
						</g>
					</mask>
					<polygon id="Fill-10" class="st13" points="10,5.8 8.4,9.8 13.4,22.6 3.5,22.6 0,31.5 3.2,31.5 5.6,25.5 14.6,25.5 17,31.5 
						20.2,31.5 					"/>
					<defs>
						<filter id="Adobe_OpacityMaskFilter_6_" filterUnits="userSpaceOnUse" x="159.6" y="5.8" width="20.2" height="25.7">
							<feColorMatrix  type="matrix" values="1 0 0 0 0  0 1 0 0 0  0 0 1 0 0  0 0 0 1 0"/>
						</filter>
					</defs>
					<mask maskUnits="userSpaceOnUse" x="159.6" y="5.8" width="20.2" height="25.7" id="mask-4_6_">
						<g class="st14">
							<polygon id="path-3_6_" class="st2" points="0,31.7 179.8,31.7 179.8,0.1 0,0.1 							"/>
						</g>
					</mask>
					<polygon id="Fill-11" class="st15" points="169.6,5.8 168,9.8 173.1,22.6 163.1,22.6 159.6,31.5 162.8,31.5 165.2,25.5 
						174.2,25.5 176.6,31.5 179.8,31.5 					"/>
					<defs>
						<filter id="Adobe_OpacityMaskFilter_7_" filterUnits="userSpaceOnUse" x="65.8" y="0.1" width="4" height="3.8">
							<feColorMatrix  type="matrix" values="1 0 0 0 0  0 1 0 0 0  0 0 1 0 0  0 0 0 1 0"/>
						</filter>
					</defs>
					<mask maskUnits="userSpaceOnUse" x="65.8" y="0.1" width="4" height="3.8" id="mask-4_7_">
						<g class="st16">
							<polygon id="path-3_7_" class="st2" points="0,31.7 179.8,31.7 179.8,0.1 0,0.1 							"/>
						</g>
					</mask>
					<polygon id="Fill-12" class="st17" points="69.9,0.1 67.6,4 65.8,4 67.3,0.1 					"/>
				</g>
			</g>
		</g>
	</g>
</g>
</svg>
