<svg xmlns="http://www.w3.org/2000/svg" xmlns:xlink="http://www.w3.org/1999/xlink" id="Layer_1" x="0" y="0" version="1.1" viewBox="0 0 180 32" xml:space="preserve" style="enable-background:new 0 0 180 32"><style type="text/css">.st0{fill:#50f}.st1{filter:url(#Adobe_OpacityMaskFilter)}.st2{fill:#fff}.st3{mask:url(#mask-2_1_);fill:#50f}.st4{filter:url(#Adobe_OpacityMaskFilter_1_)}.st5{mask:url(#mask-4_1_);fill:#50f}.st6{filter:url(#Adobe_OpacityMaskFilter_2_)}.st7{mask:url(#mask-4_2_);fill:#50f}.st8{filter:url(#Adobe_OpacityMaskFilter_3_)}.st9{mask:url(#mask-4_3_);fill:#50f}.st10{filter:url(#Adobe_OpacityMaskFilter_4_)}.st11{mask:url(#mask-4_4_);fill:#50f}.st12{filter:url(#Adobe_OpacityMaskFilter_5_)}.st13{mask:url(#mask-4_5_);fill:#50f}.st14{filter:url(#Adobe_OpacityMaskFilter_6_)}.st15{mask:url(#mask-4_6_);fill:#50f}.st16{filter:url(#Adobe_OpacityMaskFilter_7_)}.st17{mask:url(#mask-4_7_);fill:#50f}</style><title>Artboard</title><desc>Created with Sketch.</desc><g id="Page-1_1_"><g id="Artboard"><g id="Group"><g id="Page-1"><polygon id="Fill-1" points="63.6 10 68.6 22.7 58.6 22.7 55.1 31.7 58.3 31.7 60.7 25.6 69.7 25.6 72.1 31.7 75.3 31.7 65.1 6" class="st0"/><g id="Group-13" transform="translate(0.000000, 0.180179)"><g id="Group-4" transform="translate(25.536332, 6.223805)"><defs><filter id="Adobe_OpacityMaskFilter" width="23.4" height="25.3" x=".1" y=".2" filterUnits="userSpaceOnUse"><feColorMatrix type="matrix" values="1 0 0 0 0 0 1 0 0 0 0 0 1 0 0 0 0 0 1 0"/></filter></defs><mask id="mask-2_1_" width="23.4" height="25.3" x=".1" y=".2" maskUnits="userSpaceOnUse"><g class="st1"><polygon id="path-1_1_" points=".1 25.5 23.4 25.5 23.4 .2 .1 .2" class="st2"/></g></mask><path id="Fill-2" d="M21,18l-0.6,0.8c-1.8,2.4-4.6,3.8-7.7,3.8c-5.4,0-9.6-4.2-9.6-9.7c0-5.5,4-9.7,9.4-9.7 c2.9,0,5.5,1.2,7.3,3.4l0.6,0.8l2.4-1.8l-0.7-0.8c-2.4-2.9-5.8-4.5-9.6-4.5C5.4,0.2,0.1,5.7,0.1,12.9c0,3.5,1.2,6.7,3.6,9 c2.3,2.4,5.6,3.7,9.1,3.7c4,0,7.7-1.8,10.1-4.9l0.6-0.8L21,18z" class="st3"/></g><defs><filter id="Adobe_OpacityMaskFilter_1_" width="3.1" height="24.8" x="118.5" y="6.7" filterUnits="userSpaceOnUse"><feColorMatrix type="matrix" values="1 0 0 0 0 0 1 0 0 0 0 0 1 0 0 0 0 0 1 0"/></filter></defs><mask id="mask-4_1_" width="3.1" height="24.8" x="118.5" y="6.7" maskUnits="userSpaceOnUse"><g class="st4"><polygon id="path-3_1_" points="0 31.7 179.8 31.7 179.8 .1 0 .1" class="st2"/></g></mask><polygon id="Fill-5" points="118.5 31.5 121.6 31.5 121.6 6.7 118.5 6.7" class="st5"/><defs><filter id="Adobe_OpacityMaskFilter_2_" width="23.4" height="25.3" x="130.7" y="6.4" filterUnits="userSpaceOnUse"><feColorMatrix type="matrix" values="1 0 0 0 0 0 1 0 0 0 0 0 1 0 0 0 0 0 1 0"/></filter></defs><mask id="mask-4_2_" width="23.4" height="25.3" x="130.7" y="6.4" maskUnits="userSpaceOnUse"><g class="st6"><polygon id="path-3_2_" points="0 31.7 179.8 31.7 179.8 .1 0 .1" class="st2"/></g></mask><path id="Fill-7" d="M151.7,24.2l-0.6,0.8c-1.8,2.4-4.6,3.8-7.7,3.8c-5.4,0-9.6-4.2-9.6-9.7c0-5.5,4-9.7,9.4-9.7 c2.9,0,5.5,1.2,7.3,3.4l0.6,0.8l2.4-1.8l-0.7-0.8c-2.4-2.9-5.8-4.5-9.6-4.5c-7.1,0-12.4,5.4-12.5,12.6c0,3.5,1.2,6.7,3.6,9 c2.3,2.4,5.6,3.7,9.1,3.7c4,0,7.7-1.8,10.1-4.9l0.6-0.8L151.7,24.2z" class="st7"/><defs><filter id="Adobe_OpacityMaskFilter_3_" width="25.2" height="25.7" x="83.1" y="5.8" filterUnits="userSpaceOnUse"><feColorMatrix type="matrix" values="1 0 0 0 0 0 1 0 0 0 0 0 1 0 0 0 0 0 1 0"/></filter></defs><mask id="mask-4_3_" width="25.2" height="25.7" x="83.1" y="5.8" maskUnits="userSpaceOnUse"><g class="st8"><polygon id="path-3_3_" points="0 31.7 179.8 31.7 179.8 .1 0 .1" class="st2"/></g></mask><polygon id="Fill-8" points="95.7 22.4 83.1 5.8 83.1 10.8 92.6 23.3 95.7 27.3 98.2 23.9 105.2 14.8 105.2 31.5 108.3 31.5 108.3 5.8" class="st9"/><defs><filter id="Adobe_OpacityMaskFilter_4_" width="3.1" height="12.2" x="83.1" y="19.3" filterUnits="userSpaceOnUse"><feColorMatrix type="matrix" values="1 0 0 0 0 0 1 0 0 0 0 0 1 0 0 0 0 0 1 0"/></filter></defs><mask id="mask-4_4_" width="3.1" height="12.2" x="83.1" y="19.3" maskUnits="userSpaceOnUse"><g class="st10"><polygon id="path-3_4_" points="0 31.7 179.8 31.7 179.8 .1 0 .1" class="st2"/></g></mask><polygon id="Fill-9" points="83.1 19.3 83.1 31.5 86.2 31.5 86.2 23.3" class="st11"/><defs><filter id="Adobe_OpacityMaskFilter_5_" width="20.2" height="25.7" x="0" y="5.8" filterUnits="userSpaceOnUse"><feColorMatrix type="matrix" values="1 0 0 0 0 0 1 0 0 0 0 0 1 0 0 0 0 0 1 0"/></filter></defs><mask id="mask-4_5_" width="20.2" height="25.7" x="0" y="5.8" maskUnits="userSpaceOnUse"><g class="st12"><polygon id="path-3_5_" points="0 31.7 179.8 31.7 179.8 .1 0 .1" class="st2"/></g></mask><polygon id="Fill-10" points="10 5.8 8.4 9.8 13.4 22.6 3.5 22.6 0 31.5 3.2 31.5 5.6 25.5 14.6 25.5 17 31.5 20.2 31.5" class="st13"/><defs><filter id="Adobe_OpacityMaskFilter_6_" width="20.2" height="25.7" x="159.6" y="5.8" filterUnits="userSpaceOnUse"><feColorMatrix type="matrix" values="1 0 0 0 0 0 1 0 0 0 0 0 1 0 0 0 0 0 1 0"/></filter></defs><mask id="mask-4_6_" width="20.2" height="25.7" x="159.6" y="5.8" maskUnits="userSpaceOnUse"><g class="st14"><polygon id="path-3_6_" points="0 31.7 179.8 31.7 179.8 .1 0 .1" class="st2"/></g></mask><polygon id="Fill-11" points="169.6 5.8 168 9.8 173.1 22.6 163.1 22.6 159.6 31.5 162.8 31.5 165.2 25.5 174.2 25.5 176.6 31.5 179.8 31.5" class="st15"/><defs><filter id="Adobe_OpacityMaskFilter_7_" width="4" height="3.8" x="65.8" y=".1" filterUnits="userSpaceOnUse"><feColorMatrix type="matrix" values="1 0 0 0 0 0 1 0 0 0 0 0 1 0 0 0 0 0 1 0"/></filter></defs><mask id="mask-4_7_" width="4" height="3.8" x="65.8" y=".1" maskUnits="userSpaceOnUse"><g class="st16"><polygon id="path-3_7_" points="0 31.7 179.8 31.7 179.8 .1 0 .1" class="st2"/></g></mask><polygon id="Fill-12" points="69.9 .1 67.6 4 65.8 4 67.3 .1" class="st17"/></g></g></g></g></g></svg>