<?xml version="1.0" encoding="utf-8"?>
<!-- Generator: Adobe Illustrator 23.0.2, SVG Export Plug-In . SVG Version: 6.00 Build 0)  -->
<svg version="1.1" id="Capa_1" xmlns="http://www.w3.org/2000/svg" xmlns:xlink="http://www.w3.org/1999/xlink" x="0px" y="0px"
	 viewBox="0 0 429.97 96.83" style="enable-background:new 0 0 429.97 96.83;" xml:space="preserve">
<style type="text/css">
	.st0{fill:#2900D2;}
</style>
<g id="LOGO">
	<g>
		<path class="st0" d="M121.89,35.09C117.28,29.7,111.04,27,103.16,27c-7.93,0-14.33,3.14-19.23,9.43
			c-4.9,6.29-7.34,14.59-7.34,24.93v0.87c0,10.29,2.46,18.63,7.37,25.02c4.92,6.39,11.27,9.58,19.07,9.58
			c8.22,0,14.63-2.82,19.23-8.46l0.56,7.22h10.58V0h-11.51C121.89,0,121.89,35.09,121.89,35.09z M121.89,77.22
			c-3.36,6.56-8.69,9.83-15.99,9.83c-5.56,0-9.92-2.16-13.07-6.47S88.1,70.29,88.1,62.66c0-8.55,1.58-15,4.73-19.35
			c3.15-4.36,7.55-6.54,13.19-6.54c7.13,0,12.43,3.17,15.87,9.52C121.89,46.29,121.89,77.22,121.89,77.22z"/>
		<path class="st0" d="M168.41,27c-5.35,0-10.32,1.48-14.91,4.45s-8.15,7.07-10.71,12.32c-2.55,5.25-3.83,11.21-3.83,17.89v2.12
			c0,10.04,2.86,18.06,8.59,24.05c5.73,6,13.15,8.99,22.28,8.99c11.29,0,19.75-4.33,25.39-13.01l-7.03-5.48
			c-2.12,2.74-4.58,4.94-7.4,6.6s-6.27,2.49-10.33,2.49c-5.73,0-10.45-2.04-14.16-6.13s-5.65-9.45-5.82-16.09h45.62v-4.79
			c0-10.75-2.43-19-7.28-24.77C183.97,29.88,177.16,27,168.41,27z M184.59,55.75h-33.73c0.75-6.1,2.7-10.84,5.85-14.22
			s7.05-5.07,11.7-5.07c4.81,0,8.63,1.61,11.45,4.82c2.82,3.22,4.4,7.75,4.73,13.6V55.75L184.59,55.75z"/>
		<polygon class="st0" points="224.5,79.96 207.39,28.24 195.62,28.24 220.02,95.58 228.8,95.58 252.94,28.24 241.18,28.24 		"/>
		<rect x="258.64" y="28.24" class="st0" width="11.51" height="67.34"/>
		<path class="st0" d="M264.49,3.72c-2.24,0-3.93,0.64-5.07,1.93s-1.71,2.86-1.71,4.73s0.57,3.42,1.71,4.67
			c1.14,1.24,2.83,1.87,5.07,1.87c2.24,0,3.94-0.62,5.1-1.87c1.16-1.24,1.74-2.8,1.74-4.67s-0.58-3.44-1.74-4.73
			C268.43,4.37,266.74,3.72,264.49,3.72z"/>
		<path class="st0" d="M311.08,27c-8.3,0-15.02,3.24-20.16,9.71l-0.37-8.46h-10.89v67.34h11.51V47.61c1.58-3.24,3.78-5.85,6.6-7.84
			s6.1-2.99,9.83-2.99c4.61,0,8,1.16,10.17,3.49c2.18,2.32,3.29,5.91,3.33,10.77V95.6h11.51V51.1C332.49,35.03,325.32,27,311.08,27z
			"/>
		<path class="st0" d="M358.36,85.03c-1.12-1.35-1.68-3.38-1.68-6.07V37.15h12.57v-8.9h-12.57V11.94h-11.51v16.31h-12.26v8.9h12.26
			v41.76c0,5.73,1.31,10.14,3.92,13.26c2.61,3.11,6.49,4.67,11.64,4.67c2.86,0,5.81-0.41,8.84-1.24v-9.28
			c-2.32,0.5-4.15,0.75-5.48,0.75C361.39,87.06,359.48,86.38,358.36,85.03z"/>
		<path class="st0" d="M427.6,79.84V48.85c-0.17-6.8-2.45-12.15-6.84-16.03c-4.4-3.88-10.48-5.82-18.24-5.82
			c-4.9,0-9.39,0.91-13.47,2.74c-4.09,1.83-7.32,4.3-9.71,7.44c-2.39,3.13-3.58,6.38-3.58,9.74h11.58c0-2.95,1.39-5.46,4.17-7.53
			s6.22-3.11,10.33-3.11c4.69,0,8.24,1.19,10.64,3.58c2.41,2.39,3.61,5.59,3.61,9.62v5.29h-11.2c-9.67,0-17.17,1.94-22.5,5.82
			s-8,9.33-8,16.34c0,5.77,2.13,10.53,6.38,14.28c4.25,3.76,9.7,5.63,16.34,5.63c7.43,0,13.82-2.78,19.17-8.34
			c0.41,3.4,0.95,5.77,1.62,7.09h12.07v-1C428.39,90.94,427.6,86.02,427.6,79.84z M416.09,76.72c-1.45,2.99-3.8,5.41-7.03,7.28
			c-3.24,1.87-6.66,2.8-10.27,2.8c-3.77,0-6.87-1.02-9.27-3.05c-2.41-2.03-3.61-4.85-3.61-8.46c0-8.26,7.05-12.39,21.16-12.39h9.02
			L416.09,76.72L416.09,76.72z"/>
		<path class="st0" d="M44.8,4.97H34.34L9,71.83h61.58L44.8,4.97z M39.57,19.72L55.15,62.1h-30.8L39.57,19.72z"/>
		<polygon class="st0" points="61.41,79.12 67.46,95.59 79.72,95.59 73.38,79.12 		"/>
		<polygon class="st0" points="0,95.59 12.32,95.59 18.24,79.12 6.24,79.12 		"/>
	</g>
</g>
</svg>
