<svg xmlns="http://www.w3.org/2000/svg" viewBox="0 0 429.97 96.83" xml:space="preserve"><path d="M121.89 35.09C117.28 29.7 111.04 27 103.16 27c-7.93 0-14.33 3.14-19.23 9.43-4.9 6.29-7.34 14.59-7.34 24.93v.87c0 10.29 2.46 18.63 7.37 25.02 4.92 6.39 11.27 9.58 19.07 9.58 8.22 0 14.63-2.82 19.23-8.46l.56 7.22h10.58V0h-11.51v35.09zm0 42.13c-3.36 6.56-8.69 9.83-15.99 9.83-5.56 0-9.92-2.16-13.07-6.47S88.1 70.29 88.1 62.66c0-8.55 1.58-15 4.73-19.35 3.15-4.36 7.55-6.54 13.19-6.54 7.13 0 12.43 3.17 15.87 9.52v30.93zM168.41 27c-5.35 0-10.32 1.48-14.91 4.45s-8.15 7.07-10.71 12.32c-2.55 5.25-3.83 11.21-3.83 17.89v2.12c0 10.04 2.86 18.06 8.59 24.05 5.73 6 13.15 8.99 22.28 8.99 11.29 0 19.75-4.33 25.39-13.01l-7.03-5.48c-2.12 2.74-4.58 4.94-7.4 6.6s-6.27 2.49-10.33 2.49c-5.73 0-10.45-2.04-14.16-6.13s-5.65-9.45-5.82-16.09h45.62v-4.79c0-10.75-2.43-19-7.28-24.77-4.85-5.76-11.66-8.64-20.41-8.64zm16.18 28.75h-33.73c.75-6.1 2.7-10.84 5.85-14.22s7.05-5.07 11.7-5.07c4.81 0 8.63 1.61 11.45 4.82 2.82 3.22 4.4 7.75 4.73 13.6v.87zm39.91 24.21-17.11-51.72h-11.77l24.4 67.34h8.78l24.14-67.34h-11.76zm34.14-51.72h11.51v67.34h-11.51zm5.85-24.52c-2.24 0-3.93.64-5.07 1.93s-1.71 2.86-1.71 4.73.57 3.42 1.71 4.67c1.14 1.24 2.83 1.87 5.07 1.87s3.94-.62 5.1-1.87c1.16-1.24 1.74-2.8 1.74-4.67s-.58-3.44-1.74-4.73c-1.16-1.28-2.85-1.93-5.1-1.93zM311.08 27c-8.3 0-15.02 3.24-20.16 9.71l-.37-8.46h-10.89v67.34h11.51V47.61c1.58-3.24 3.78-5.85 6.6-7.84s6.1-2.99 9.83-2.99c4.61 0 8 1.16 10.17 3.49 2.18 2.32 3.29 5.91 3.33 10.77V95.6h11.51V51.1c-.12-16.07-7.29-24.1-21.53-24.1zm47.28 58.03c-1.12-1.35-1.68-3.38-1.68-6.07V37.15h12.57v-8.9h-12.57V11.94h-11.51v16.31h-12.26v8.9h12.26v41.76c0 5.73 1.31 10.14 3.92 13.26 2.61 3.11 6.49 4.67 11.64 4.67 2.86 0 5.81-.41 8.84-1.24v-9.28c-2.32.5-4.15.75-5.48.75-2.7-.01-4.61-.69-5.73-2.04zm69.24-5.19V48.85c-.17-6.8-2.45-12.15-6.84-16.03-4.4-3.88-10.48-5.82-18.24-5.82-4.9 0-9.39.91-13.47 2.74-4.09 1.83-7.32 4.3-9.71 7.44-2.39 3.13-3.58 6.38-3.58 9.74h11.58c0-2.95 1.39-5.46 4.17-7.53s6.22-3.11 10.33-3.11c4.69 0 8.24 1.19 10.64 3.58 2.41 2.39 3.61 5.59 3.61 9.62v5.29h-11.2c-9.67 0-17.17 1.94-22.5 5.82s-8 9.33-8 16.34c0 5.77 2.13 10.53 6.38 14.28 4.25 3.76 9.7 5.63 16.34 5.63 7.43 0 13.82-2.78 19.17-8.34.41 3.4.95 5.77 1.62 7.09h12.07v-1c-1.58-3.65-2.37-8.57-2.37-14.75zm-11.51-3.12c-1.45 2.99-3.8 5.41-7.03 7.28-3.24 1.87-6.66 2.8-10.27 2.8-3.77 0-6.87-1.02-9.27-3.05-2.41-2.03-3.61-4.85-3.61-8.46 0-8.26 7.05-12.39 21.16-12.39h9.02v13.82zM44.8 4.97H34.34L9 71.83h61.58L44.8 4.97zm-5.23 14.75L55.15 62.1h-30.8l15.22-42.38zm21.84 59.4 6.05 16.47h12.26l-6.34-16.47zM0 95.59h12.32l5.92-16.47h-12z" style="fill:#2900d2"/></svg>