<svg xmlns="http://www.w3.org/2000/svg" viewBox="0 0 792 612" xml:space="preserve"><path fill="#2057F5" d="M61.7 384.9c118.1-110.1 148.5-59.3 148.5-59.3L151 227.3 61.7 384.9zm236.7-66.1c1.2 2.7 3.2 4.6 5.8 5.9 2.6 1.2 6.2 1.9 10.8 1.9h3.6l.7-12.1c-2.2 0-3.6-.5-4.3-1.4-.7-.9-1.1-2.9-1.1-5.8v-25.9c0-7.1-2.1-12.6-6.3-16.4-4.2-3.8-10.9-5.7-20.2-5.7-9.2 0-16.1 1.8-20.6 5.5s-6.7 8.8-6.7 15.3v2h16v-2.5c0-2.8.8-5 2.2-6.4 1.5-1.5 4.2-2.2 8.2-2.2 7 0 10.6 2.5 10.6 7.5 0 2.4-1.1 4.4-3.4 5.7-2.3 1.4-6.2 2.9-11.9 4.7-9.3 2.8-15.5 5.8-18.8 8.9s-4.9 7.2-4.9 12.3c0 5.1 1.8 9.3 5.4 12.6 3.6 3.3 8 4.9 13.3 4.9 5.2 0 9.6-.8 13.3-2.5 3.5-1.8 6.3-3.8 8.3-6.3M276.9 303c1.3-1.5 4.4-3.2 9.5-5 5-1.8 8.6-3.5 10.6-5.1v16.3c-1.5 2.2-3.5 3.8-6 5s-5 1.8-7.3 1.8c-5.8 0-8.8-2.6-8.8-7.9.1-1.8.7-3.6 2-5.1m95 18.9c4.2-3.7 6.3-8.3 6.3-13.8s-1.1-9.8-3.4-12.9-6.2-5.5-11.7-7.2l-13.9-4.3c-3.1-.9-4.6-2.7-4.6-5.4s.7-4.6 2.2-5.7 3.8-1.7 7-1.7 4.6-.1 18.7.9l.1-10.6c-2.3-.6-10.1-1.9-18.5-1.9-17.1 0-25.7 6.1-25.8 18.3v.5c0 4.4 1 8.2 3.2 11.3 2.1 3.1 5.7 5.4 10.7 6.9l14.8 4.5c3.8 1.2 5.7 3.4 5.7 6.7 0 .5 0 1-.1 1.6-.7 4.6-3.7 6.9-9 6.9-6.9 0-14.3-.8-22.1-4.1l-3.4 11.3c6.9 3.4 15.6 4.3 26.2 4.3 7.5 0 13.4-1.9 17.6-5.6m49.4 4.9.6-12.3h-2c-5.6 0-9.5-.7-11.4-2.1-2-1.4-3-4.2-3-8.2v-32.9h16v-10.5h-16v-27.9l-16.6 6.9v65.6c0 8.3 1.8 13.9 6.2 17 4.4 3 11.7 4.5 22 4.5h4.2v-.1zm30.6-12.9c-2-1.4-3-3.7-3-6.9v-27.2c0-5.9 4-8.9 12.1-8.9 4 0 7 .7 9.1 2.1 2 1.4 3.1 3.7 3.1 6.9V307c0 6-4 8.9-12.1 8.9-4.1.1-7.2-.6-9.2-2m22.9 12.1c10.3-2.6 15.4-9.2 15.4-19.7v-25.7c0-6.6-2.6-11.8-7.7-15.6-5.1-3.7-12.3-5.6-21.5-5.6s-16.3 1.9-21.4 5.6-7.7 8.9-7.7 15.6v25.7c0 14.1 9.7 21.2 29.2 21.2 5.2 0 9.8-.5 13.7-1.5m70.8 0h16v-65.4h-17v44.1c0 3.4-1.4 5.9-4 7.6-2.7 1.7-5.7 2.6-9 2.6s-6.1-.8-8.4-2.3c-2.3-1.5-3.4-3.9-3.4-7v-45h-17v47.6c0 5.5 1.9 10.1 5.8 13.7 3.9 3.6 9.2 5.4 15.9 5.4 4.7 0 8.9-.8 12.8-2.3 3.8-1.5 6.4-3.6 7.8-6.3l.5 7.3zm71.6 0h17v-46.8c0-5.7-1.8-10.5-5.2-14.3-3.5-3.8-9.1-5.7-16.7-5.7s-14.3 2.4-20 7.3v-5.8h-17V326h17v-44.7c0-3 1.3-5.3 4-7.1 2.7-1.7 5.7-2.6 9.1-2.6 7.9 0 11.8 2.8 11.8 8.5V326zm74.9-3.8 1.8 3.8h11.5v-99.2l-17 6.9v27.8c-4.3-1.5-8.5-2.3-12.5-2.3-9.4 0-16.4 1.9-21 5.7-4.6 3.8-6.9 8.9-6.9 15.2v26.1c0 6.7 2.2 11.9 6.7 15.6 4.4 3.7 11.1 5.5 20 5.5 6.5.2 12.3-1.6 17.4-5.1M665 306.6v-26.7c0-3.2 1-5.5 3.1-6.9s5.2-2.1 9.3-2.1 7.8.8 11 2.3v40.1c-3 1.7-6.7 2.6-11 2.6s-7.5-.7-9.5-2.2c-1.9-1.5-2.9-3.9-2.9-7.1m-240.5 68.1c-.6 3.4-2 6-4.2 7.8-2.1 1.8-4.8 2.6-7.9 2.6-3.5 0-6.5-1.2-8.9-3.6-1.5-1.5-2.4-3.4-2.9-5.7-.3-1.4-.4-3.8-.4-7.5 0-3.6.1-6.1.4-7.5.4-2.3 1.4-4.2 2.9-5.7 2.4-2.4 5.4-3.6 8.9-3.6 3.2 0 5.9.9 8 2.7 2.2 1.8 3.5 4.4 4.1 7.7H418c-.8-3.1-2.6-4.7-5.6-4.7-2 0-3.4.7-4.5 2.2-.8 1.2-1.3 4.1-1.3 8.8 0 2.6 0 4.2.1 4.8.2 2.1.7 3.6 1.5 4.5 1 1.1 2.4 1.7 4.1 1.7 2.9 0 4.8-1.6 5.6-4.7h6.6v.2zm31.7-6.4c0-2.5 0-4.1-.1-4.8-.2-2-.7-3.5-1.5-4.4-1-1.2-2.4-1.8-4.1-1.8s-3.1.6-4.2 1.8c-.8.9-1.3 2.4-1.5 4.4-.1.6-.1 2.2-.1 4.8s0 4.3.1 4.8c.2 2 .7 3.5 1.5 4.4 1 1.2 2.4 1.8 4.2 1.8 1.9 0 3.4-.7 4.5-2.2.8-1.1 1.2-4 1.2-8.8m6.5 0c0 3.6-.1 6.1-.4 7.5-.4 2.3-1.4 4.2-2.9 5.7-2.4 2.4-5.4 3.6-8.9 3.6-3.6 0-6.5-1.2-8.9-3.6-1.5-1.5-2.4-3.4-2.9-5.7-.3-1.4-.4-3.8-.4-7.5 0-3.6.1-6.1.4-7.5.4-2.3 1.4-4.2 2.9-5.7 2.4-2.4 5.4-3.6 8.9-3.6s6.5 1.2 8.9 3.6c1.5 1.5 2.5 3.4 2.9 5.7.2 1.5.4 4 .4 7.5m38.7-16.4-8.6 17.8-8.5-17.8H478v32.9h6.4v-19.2l6.3 12.5h4.4l6.3-12.5v19.2h6.4v-32.9zm46.2 0-8.6 17.8-8.6-17.8h-6.3v32.9h6.5v-19.2l6.3 12.5h4.4l6.3-12.5v19.2h6.4v-32.9zm22.7 0v32.9H592v-5.7h-15.3v-8h13.1v-5.8h-13.1v-7.7H592v-5.7zm54 10c0-1.3-.4-2.3-1.3-3.1-.9-.8-2-1.2-3.4-1.2h-6.1v8.7h6.1c1.4 0 2.5-.4 3.4-1.2.9-.8 1.3-1.9 1.3-3.2m7.8 22.9h-7.5l-6.4-13.1h-4.6v13.1h-6.4v-33H620c3.3 0 5.9 1 7.9 3 1.9 1.9 2.8 4.3 2.8 7.1 0 2.2-.6 4.1-1.8 5.7a9.07 9.07 0 0 1-4.2 3l7.4 14.2zm37.2-10.1c-.6 3.4-2 6-4.2 7.8-2.1 1.8-4.8 2.6-7.9 2.6-3.5 0-6.5-1.2-8.9-3.6-1.5-1.5-2.4-3.4-2.9-5.7-.2-1.4-.4-3.8-.4-7.5 0-3.6.1-6.1.4-7.5.4-2.3 1.4-4.2 2.9-5.7 2.4-2.4 5.4-3.6 8.9-3.6 3.2 0 5.9.9 8 2.7 2.2 1.8 3.5 4.4 4.1 7.7h-6.5c-.8-3.1-2.6-4.7-5.6-4.7-2 0-3.4.7-4.5 2.2-.8 1.2-1.2 4.1-1.2 8.8 0 2.6 0 4.2.1 4.8.2 2.1.7 3.6 1.5 4.5 1 1.1 2.4 1.7 4.1 1.7 2.9 0 4.8-1.6 5.6-4.7h6.5v.2zm14.4-22.8v32.9h21.8v-5.7h-15.3v-8h13v-5.8h-13v-7.7h15.3v-5.7zm33.3-125v3.5h5.5v15.3h4v-15.3h5.5v-3.5zm32.3 0-4.5 11.3-4.6-11.3h-5.6v18.8h4v-13.2l5.3 13.2h1.7l5.4-13.2v13.2h4v-18.8z"/></svg>