<svg xmlns="http://www.w3.org/2000/svg" xmlns:xlink="http://www.w3.org/1999/xlink" id="Layer_1" x="0" y="0" enable-background="new 0 0 792 612" version="1.1" viewBox="0 0 792 612" xml:space="preserve"><path fill="#2057F5" d="M61.7,384.9c118.1-110.1,148.5-59.3,148.5-59.3L151,227.3L61.7,384.9z"/><path fill="#2057F5" d="M298.4,318.8c1.2,2.7,3.2,4.6,5.8,5.9c2.6,1.2,6.2,1.9,10.8,1.9h3.6l0.7-12.1c-2.2,0-3.6-0.5-4.3-1.4	c-0.7-0.9-1.1-2.9-1.1-5.8v-25.9c0-7.1-2.1-12.6-6.3-16.4c-4.2-3.8-10.9-5.7-20.2-5.7c-9.2,0-16.1,1.8-20.6,5.5s-6.7,8.8-6.7,15.3v2	h16v-2.5c0-2.8,0.8-5,2.2-6.4c1.5-1.5,4.2-2.2,8.2-2.2c7,0,10.6,2.5,10.6,7.5c0,2.4-1.1,4.4-3.4,5.7c-2.3,1.4-6.2,2.9-11.9,4.7	c-9.3,2.8-15.5,5.8-18.8,8.9s-4.9,7.2-4.9,12.3c0,5.1,1.8,9.3,5.4,12.6c3.6,3.3,8,4.9,13.3,4.9c5.2,0,9.6-0.8,13.3-2.5	C293.6,323.3,296.4,321.3,298.4,318.8 M276.9,303c1.3-1.5,4.4-3.2,9.5-5c5-1.8,8.6-3.5,10.6-5.1v16.3c-1.5,2.2-3.5,3.8-6,5	s-5,1.8-7.3,1.8c-5.8,0-8.8-2.6-8.8-7.9C275,306.3,275.6,304.5,276.9,303"/><path fill="#2057F5" d="M371.9,321.9c4.2-3.7,6.3-8.3,6.3-13.8s-1.1-9.8-3.4-12.9s-6.2-5.5-11.7-7.2l-13.9-4.3	c-3.1-0.9-4.6-2.7-4.6-5.4c0-2.7,0.7-4.6,2.2-5.7s3.8-1.7,7-1.7s4.6-0.1,18.7,0.9l0.1-10.6c-2.3-0.6-10.1-1.9-18.5-1.9	c-17.1,0-25.7,6.1-25.8,18.3v0.5c0,4.4,1,8.2,3.2,11.3c2.1,3.1,5.7,5.4,10.7,6.9l14.8,4.5c3.8,1.2,5.7,3.4,5.7,6.7	c0,0.5,0,1-0.1,1.6c-0.7,4.6-3.7,6.9-9,6.9c-6.9,0-14.3-0.8-22.1-4.1l-3.4,11.3c6.9,3.4,15.6,4.3,26.2,4.3	C361.8,327.5,367.7,325.6,371.9,321.9"/><path fill="#2057F5" d="M421.3,326.8l0.6-12.3h-2c-5.6,0-9.5-0.7-11.4-2.1c-2-1.4-3-4.2-3-8.2v-32.9h16v-10.5h-16v-27.9l-16.6,6.9	v65.6c0,8.3,1.8,13.9,6.2,17c4.4,3,11.7,4.5,22,4.5h4.2V326.8z"/><path fill="#2057F5" d="M451.9,313.9c-2-1.4-3-3.7-3-6.9v-27.2c0-5.9,4-8.9,12.1-8.9c4,0,7,0.7,9.1,2.1c2,1.4,3.1,3.7,3.1,6.9V307	c0,6-4,8.9-12.1,8.9C457,316,453.9,315.3,451.9,313.9 M474.8,326c10.3-2.6,15.4-9.2,15.4-19.7v-25.7c0-6.6-2.6-11.8-7.7-15.6	c-5.1-3.7-12.3-5.6-21.5-5.6s-16.3,1.9-21.4,5.6s-7.7,8.9-7.7,15.6v25.7c0,14.1,9.7,21.2,29.2,21.2C466.3,327.5,470.9,327,474.8,326"/><path fill="#2057F5" d="M545.6,326h16v-65.4h-17v44.1c0,3.4-1.4,5.9-4,7.6c-2.7,1.7-5.7,2.6-9,2.6s-6.1-0.8-8.4-2.3	c-2.3-1.5-3.4-3.9-3.4-7v-45h-17v47.6c0,5.5,1.9,10.1,5.8,13.7c3.9,3.6,9.2,5.4,15.9,5.4c4.7,0,8.9-0.8,12.8-2.3	c3.8-1.5,6.4-3.6,7.8-6.3L545.6,326z"/><path fill="#2057F5" d="M617.2,326h17v-46.8c0-5.7-1.8-10.5-5.2-14.3c-3.5-3.8-9.1-5.7-16.7-5.7c-7.6,0-14.3,2.4-20,7.3v-5.8h-17	V326h17v-44.7c0-3,1.3-5.3,4-7.1c2.7-1.7,5.7-2.6,9.1-2.6c7.9,0,11.8,2.8,11.8,8.5L617.2,326L617.2,326z"/><path fill="#2057F5" d="M692.1,322.2l1.8,3.8h11.5v-99.2l-17,6.9v27.8c-4.3-1.5-8.5-2.3-12.5-2.3c-9.4,0-16.4,1.9-21,5.7	c-4.6,3.8-6.9,8.9-6.9,15.2v26.1c0,6.7,2.2,11.9,6.7,15.6c4.4,3.7,11.1,5.5,20,5.5C681.2,327.5,687,325.7,692.1,322.2 M665,306.6	v-26.7c0-3.2,1-5.5,3.1-6.9s5.2-2.1,9.3-2.1s7.8,0.8,11,2.3v40.1c-3,1.7-6.7,2.6-11,2.6s-7.5-0.7-9.5-2.2	C666,312.2,665,309.8,665,306.6"/><path fill="#2057F5" d="M424.5,374.7c-0.6,3.4-2,6-4.2,7.8c-2.1,1.8-4.8,2.6-7.9,2.6c-3.5,0-6.5-1.2-8.9-3.6	c-1.5-1.5-2.4-3.4-2.9-5.7c-0.3-1.4-0.4-3.8-0.4-7.5c0-3.6,0.1-6.1,0.4-7.5c0.4-2.3,1.4-4.2,2.9-5.7c2.4-2.4,5.4-3.6,8.9-3.6	c3.2,0,5.9,0.9,8,2.7c2.2,1.8,3.5,4.4,4.1,7.7H418c-0.8-3.1-2.6-4.7-5.6-4.7c-2,0-3.4,0.7-4.5,2.2c-0.8,1.2-1.3,4.1-1.3,8.8	c0,2.6,0,4.2,0.1,4.8c0.2,2.1,0.7,3.6,1.5,4.5c1,1.1,2.4,1.7,4.1,1.7c2.9,0,4.8-1.6,5.6-4.7h6.6V374.7z"/><path fill="#2057F5" d="M456.2,368.3c0-2.5,0-4.1-0.1-4.8c-0.2-2-0.7-3.5-1.5-4.4c-1-1.2-2.4-1.8-4.1-1.8s-3.1,0.6-4.2,1.8	c-0.8,0.9-1.3,2.4-1.5,4.4c-0.1,0.6-0.1,2.2-0.1,4.8s0,4.3,0.1,4.8c0.2,2,0.7,3.5,1.5,4.4c1,1.2,2.4,1.8,4.2,1.8	c1.9,0,3.4-0.7,4.5-2.2C455.8,376,456.2,373.1,456.2,368.3 M462.7,368.3c0,3.6-0.1,6.1-0.4,7.5c-0.4,2.3-1.4,4.2-2.9,5.7	c-2.4,2.4-5.4,3.6-8.9,3.6c-3.6,0-6.5-1.2-8.9-3.6c-1.5-1.5-2.4-3.4-2.9-5.7c-0.3-1.4-0.4-3.8-0.4-7.5c0-3.6,0.1-6.1,0.4-7.5	c0.4-2.3,1.4-4.2,2.9-5.7c2.4-2.4,5.4-3.6,8.9-3.6s6.5,1.2,8.9,3.6c1.5,1.5,2.5,3.4,2.9,5.7C462.5,362.3,462.7,364.8,462.7,368.3"/><polygon fill="#2057F5" points="501.4 351.9 492.8 369.7 484.3 351.9 478 351.9 478 384.8 484.4 384.8 484.4 365.6 490.7 378.1 495.1 378.1 501.4 365.6 501.4 384.8 507.8 384.8 507.8 351.9"/><polygon fill="#2057F5" points="547.6 351.9 539 369.7 530.4 351.9 524.1 351.9 524.1 384.8 530.6 384.8 530.6 365.6 536.9 378.1 541.3 378.1 547.6 365.6 547.6 384.8 554 384.8 554 351.9"/><polygon fill="#2057F5" points="570.3 351.9 570.3 384.8 592 384.8 592 379.1 576.7 379.1 576.7 371.1 589.8 371.1 589.8 365.3 576.7 365.3 576.7 357.6 592 357.6 592 351.9"/><g><path fill="#2057F5" d="M624.3,361.9c0-1.3-0.4-2.3-1.3-3.1c-0.9-0.8-2-1.2-3.4-1.2h-6.1v8.7h6.1c1.4,0,2.5-0.4,3.4-1.2 C623.9,364.3,624.3,363.2,624.3,361.9 M632.1,384.8h-7.5l-6.4-13.1h-4.6v13.1h-6.4v-33H620c3.3,0,5.9,1,7.9,3 c1.9,1.9,2.8,4.3,2.8,7.1c0,2.2-0.6,4.1-1.8,5.7c-1.1,1.4-2.5,2.4-4.2,3L632.1,384.8z"/><path fill="#2057F5" d="M669.3,374.7c-0.6,3.4-2,6-4.2,7.8c-2.1,1.8-4.8,2.6-7.9,2.6c-3.5,0-6.5-1.2-8.9-3.6 c-1.5-1.5-2.4-3.4-2.9-5.7c-0.2-1.4-0.4-3.8-0.4-7.5c0-3.6,0.1-6.1,0.4-7.5c0.4-2.3,1.4-4.2,2.9-5.7c2.4-2.4,5.4-3.6,8.9-3.6 c3.2,0,5.9,0.9,8,2.7c2.2,1.8,3.5,4.4,4.1,7.7h-6.5c-0.8-3.1-2.6-4.7-5.6-4.7c-2,0-3.4,0.7-4.5,2.2c-0.8,1.2-1.2,4.1-1.2,8.8 c0,2.6,0,4.2,0.1,4.8c0.2,2.1,0.7,3.6,1.5,4.5c1,1.1,2.4,1.7,4.1,1.7c2.9,0,4.8-1.6,5.6-4.7h6.5V374.7z"/></g><polygon fill="#2057F5" points="683.7 351.9 683.7 384.8 705.5 384.8 705.5 379.1 690.2 379.1 690.2 371.1 703.2 371.1 703.2 365.3 690.2 365.3 690.2 357.6 705.5 357.6 705.5 351.9"/><polygon fill="#2057F5" points="717 226.9 717 230.4 722.5 230.4 722.5 245.7 726.5 245.7 726.5 230.4 732 230.4 732 226.9"/><polygon fill="#2057F5" points="749.3 226.9 744.8 238.2 740.2 226.9 734.6 226.9 734.6 245.7 738.6 245.7 738.6 232.5 743.9 245.7 745.6 245.7 751 232.5 751 245.7 755 245.7 755 226.9"/></svg>