<?xml version="1.0" encoding="utf-8"?>
<svg viewBox="0 0 399 64" version="1.1" xmlns="http://www.w3.org/2000/svg" xmlns:xlink="http://www.w3.org/1999/xlink">
      <g id="Page-1" stroke="none" stroke-width="1" fill="none" fill-rule="evenodd">
        <g id="logo-gob">
            <path d="M24.3857543,23.2130392 C30.4093379,16.5235478 41.357099,20.8671553 41.357099,29.9356672 L41.357099,54.0027662 C41.357099,59.4952577 36.9844403,63.9507577 31.5870461,63.9507577 L9.9157628,63.9507577 C1.4110256,63.9507577 -3.02858703,53.6580102 2.71424403,47.2801382 L24.3857543,23.2130392 Z M32.717773,29.9356672 C32.717773,28.8809727 31.4490529,28.3843788 30.7543208,29.1558242 L9.08303754,53.2229232 C8.41508703,53.9648635 8.93483106,55.1559625 9.9157628,55.1559625 L31.5870461,55.1559625 C32.210058,55.1559625 32.717773,54.6412116 32.717773,54.0027662 L32.717773,29.9356672 Z" id="Shape" fill="#00C4F5"></path>
            <path d="M20.7459573,15.2023993 C14.1649539,15.2023993 8.7743686,20.6835427 8.7743686,27.5151126 C8.7743686,34.3464556 14.1649539,39.8278259 20.7459573,39.8278259 C27.3271877,39.8278259 32.717773,34.3464556 32.717773,27.5151126 C32.717773,20.6835427 27.3271877,15.2023993 20.7459573,15.2023993 Z M0.135042662,27.5151126 C0.135042662,15.8891877 9.33224232,6.4076041 20.7459573,6.4076041 C32.1598993,6.4076041 41.357099,15.8891877 41.357099,27.5151126 C41.357099,39.1410375 32.1598993,48.6226212 20.7459573,48.6226212 C9.33224232,48.6226212 0.135042662,39.1410375 0.135042662,27.5151126 Z" id="Shape" fill="#FF7777"></path>
            <path d="M12.4865666,36.4277014 L6.64750341,42.9122457 C8.78639761,44.9680717 11.3547048,46.562256 14.2024027,47.5375137 L21.1510853,39.8207901 C21.0167235,39.8255563 20.8816809,39.8278259 20.7461843,39.8278259 C17.5525956,39.8278259 14.6395324,38.5370904 12.4865666,36.4277014 Z M32.5818225,29.3784744 C32.6714727,28.7711229 32.717773,28.1490188 32.717773,27.5151126 C32.717773,24.7010051 31.8031143,22.1159027 30.2672594,20.0487287 C35.4061433,19.369884 40.7645,22.997198 41.3114795,28.9313584 C40.8909181,35.4213498 37.6013242,41.1244625 32.717773,44.700029 L32.717773,29.9356672 C32.717773,29.7259539 32.6676143,29.5384829 32.5818225,29.3784744 Z" id="Shape" fill="#005267"></path>
        
          <path d="M96.0516468,45.9070154 C96.0516468,51.8139403 94.5743481,56.2871433 91.6199778,59.3261706 C88.7075956,62.4080939 84.2545922,63.948942 78.2611945,63.948942 C75.5176724,63.948942 72.8163652,63.6280171 70.157273,62.9859403 C67.4981809,62.3865324 65.0501638,61.1881706 62.8132218,59.390401 L68.0680836,51.428785 C69.5453823,52.6700427 71.0857765,53.6546058 72.6897201,54.3822474 C74.3358788,55.1098891 76.1297901,55.4737099 78.071227,55.4737099 C80.9836092,55.4737099 83.1150137,54.7460683 84.4656672,53.290785 C85.8585358,51.8781706 86.5550836,50.0590666 86.5550836,47.8332457 L86.5550836,44.8155529 L86.4284386,44.8155529 C85.3308481,46.3137321 83.959314,47.3838601 82.3131553,48.0259369 C80.7092116,48.6251177 79.189698,48.9247082 77.7546143,48.9247082 C75.4754573,48.9247082 73.4073754,48.5395529 71.5501416,47.7690154 C69.6931348,46.9558089 68.0891911,45.8430119 66.7385375,44.4303976 C65.430099,42.9751143 64.4171655,41.2629096 63.6995102,39.2940102 C62.9820819,37.324884 62.6232543,35.1632935 62.6232543,32.8092389 C62.6232543,30.7545478 62.9398669,28.7427526 63.5728652,26.7738532 C64.2483055,24.804727 65.1768089,23.0711877 66.3586024,21.5732355 C67.5826109,20.0750563 69.0599096,18.8764676 70.7904983,17.9776962 C72.5208601,17.036029 74.4836314,16.5650819 76.6783584,16.5650819 C78.0290119,16.5650819 79.2530205,16.7148771 80.350384,17.0144676 C81.4899625,17.314058 82.5031229,17.6994403 83.3894113,18.1701604 C84.2756997,18.6411075 85.03557,19.176058 85.6685683,19.7754659 C86.3017935,20.3317509 86.8081468,20.8882628 87.1880819,21.4447747 L87.314727,21.4447747 L87.314727,17.3356195 L96.0516468,17.3356195 L96.0516468,45.9070154 Z M72.1200444,32.7450085 C72.1200444,33.7722406 72.309785,34.7568038 72.6897201,35.698471 C73.0696553,36.5972423 73.597116,37.4104488 74.2725563,38.1383174 C74.9899846,38.8230631 75.79207,39.3795751 76.6783584,39.8076263 C77.6068618,40.2356775 78.6200222,40.4497031 79.7173857,40.4497031 C80.7725341,40.4497031 81.7643601,40.2356775 82.6928635,39.8076263 C83.6215939,39.3795751 84.4234522,38.8230631 85.0988925,38.1383174 C85.8163208,37.4104488 86.365116,36.5972423 86.7448242,35.698471 C87.1247594,34.7568038 87.314727,33.7722406 87.314727,32.7450085 C87.314727,31.7175495 87.1247594,30.7545478 86.7448242,29.8557765 C86.365116,28.9138823 85.8163208,28.1006758 85.0988925,27.41593 C84.4234522,26.6882884 83.6215939,26.110442 82.6928635,25.6823908 C81.7643601,25.2543396 80.7725341,25.040314 79.7173857,25.040314 C78.6200222,25.040314 77.6068618,25.2543396 76.6783584,25.6823908 C75.79207,26.110442 74.9899846,26.6882884 74.2725563,27.41593 C73.597116,28.1006758 73.0696553,28.9138823 72.6897201,29.8557765 C72.309785,30.7545478 72.1200444,31.7175495 72.1200444,32.7450085 Z" id="Shape" fill="#2B353B" fill-rule="nonzero"></path>
          <path d="M131.498643,43.146244 C129.97913,45.1151433 128.0588,46.634884 125.737428,47.704785 C123.415829,48.774913 121.010027,49.3100904 118.519795,49.3100904 C116.156208,49.3100904 113.919266,48.9247082 111.808742,48.1543976 C109.74066,47.3838601 107.925642,46.2923976 106.36414,44.8797833 C104.844626,43.4245 103.641725,41.6909608 102.75521,39.6791655 C101.868922,37.6673703 101.425664,35.420215 101.425664,32.9374727 C101.425664,30.4549573 101.868922,28.207802 102.75521,26.1960068 C103.641725,24.1842116 104.844626,22.4720068 106.36414,21.0593925 C107.925642,19.6041092 109.74066,18.4913123 111.808742,17.7207747 C113.919266,16.9502372 116.156208,16.5650819 118.519795,16.5650819 C120.714522,16.5650819 122.698401,16.9502372 124.471205,17.7207747 C126.285997,18.4913123 127.80551,19.6041092 129.029519,21.0593925 C130.295742,22.4720068 131.266461,24.1842116 131.941901,26.1960068 C132.617114,28.207802 132.954834,30.4549573 132.954834,32.9374727 L132.954834,35.9551655 L110.922454,35.9551655 C111.302389,37.7958311 112.125355,39.2724488 113.391578,40.3854727 C114.657802,41.4556007 116.219531,41.9905512 118.076765,41.9905512 C119.638266,41.9905512 120.946705,41.6480648 122.001853,40.9633191 C123.099444,40.2356775 124.049055,39.3153447 124.850913,38.2023208 L131.498643,43.146244 Z M123.458044,29.4061638 C123.500259,27.7797509 122.972799,26.388471 121.875435,25.2327782 C120.777845,24.0770853 119.364096,23.4992389 117.633507,23.4992389 C116.578358,23.4992389 115.649628,23.6705956 114.84777,24.0128549 C114.045911,24.3553413 113.349363,24.804727 112.75858,25.3612389 C112.209785,25.8748549 111.766527,26.4955973 111.429034,27.2232389 C111.133529,27.9082116 110.964669,28.6358532 110.922454,29.4061638 L123.458044,29.4061638 Z" id="Shape" fill="#2B353B" fill-rule="nonzero"></path>
          <path d="M158.419795,25.040314 L150.062811,25.040314 L150.062811,35.4415495 C150.062811,36.2976519 150.105026,37.0895239 150.189456,37.8171655 C150.273886,38.5021382 150.463853,39.1013191 150.759131,39.6149352 C151.054637,40.1285512 151.497894,40.5352679 152.088677,40.8348584 C152.721903,41.0917799 153.544869,41.2200137 154.557802,41.2200137 C155.064382,41.2200137 155.718715,41.1773447 156.520573,41.0917799 C157.364647,40.9633191 157.997872,40.7063976 158.419795,40.3212423 L158.419795,48.3468618 C157.364647,48.732244 156.267283,48.9889386 155.127705,49.1173993 C153.988126,49.2458601 152.869655,49.3100904 151.772292,49.3100904 C150.168348,49.3100904 148.691049,49.1387338 147.340396,48.7964744 C145.989742,48.4539881 144.807949,47.9188106 143.795015,47.1911689 C142.782082,46.4208584 141.979997,45.4362952 141.389213,44.2377065 C140.840418,43.0393447 140.56602,41.5838345 140.56602,39.8718567 L140.56602,25.040314 L134.488193,25.040314 L134.488193,17.3356195 L140.56602,17.3356195 L140.56602,8.08984983 L150.062811,8.08984983 L150.062811,17.3356195 L158.419795,17.3356195 L158.419795,25.040314 Z" id="Path" fill="#2B353B" fill-rule="nonzero"></path>
          <path d="M160.840123,32.9374727 C160.840123,30.4549573 161.283154,28.207802 162.169669,26.1960068 C163.055957,24.1842116 164.258858,22.4720068 165.778372,21.0593925 C167.340101,19.6041092 169.154892,18.4913123 171.223201,17.7207747 C173.333498,16.9502372 175.570667,16.5650819 177.934254,16.5650819 C180.297841,16.5650819 182.513676,16.9502372 184.581985,17.7207747 C186.692282,18.4913123 188.5073,19.6041092 190.026587,21.0593925 C191.588316,22.4720068 192.812324,24.1842116 193.69884,26.1960068 C194.585128,28.207802 195.028386,30.4549573 195.028386,32.9374727 C195.028386,35.420215 194.585128,37.6673703 193.69884,39.6791655 C192.812324,41.6909608 191.588316,43.4245 190.026587,44.8797833 C188.5073,46.2923976 186.692282,47.3838601 184.581985,48.1543976 C182.513676,48.9247082 180.297841,49.3100904 177.934254,49.3100904 C175.570667,49.3100904 173.333498,48.9247082 171.223201,48.1543976 C169.154892,47.3838601 167.340101,46.2923976 165.778372,44.8797833 C164.258858,43.4245 163.055957,41.6909608 162.169669,39.6791655 C161.283154,37.6673703 160.840123,35.420215 160.840123,32.9374727 Z M170.336913,32.9374727 C170.336913,35.2917543 170.991019,37.1964232 172.299457,38.6519334 C173.650111,40.1072167 175.528452,40.8348584 177.934254,40.8348584 C180.340056,40.8348584 182.197063,40.1072167 183.505502,38.6519334 C184.856155,37.1964232 185.531596,35.2917543 185.531596,32.9374727 C185.531596,30.5834181 184.856155,28.6785222 183.505502,27.2232389 C182.197063,25.7679556 180.340056,25.040314 177.934254,25.040314 C175.528452,25.040314 173.650111,25.7679556 172.299457,27.2232389 C170.991019,28.6785222 170.336913,30.5834181 170.336913,32.9374727 Z" id="Shape" fill="#2B353B" fill-rule="nonzero"></path>
          <path d="M199.354744,17.3356195 L208.471826,17.3356195 L208.471826,21.5732355 L208.598925,21.5732355 C208.893976,20.9738276 209.316126,20.3746468 209.865375,19.7754659 C210.414625,19.176058 211.068276,18.6411075 211.828601,18.1701604 C212.588925,17.6994403 213.453652,17.314058 214.422782,17.0144676 C215.394181,16.7148771 216.449556,16.5650819 217.588908,16.5650819 C219.99471,16.5650819 221.937509,16.9502372 223.415034,17.7207747 C224.89029,18.4484164 226.031911,19.4756485 226.833089,20.802698 C227.677389,22.1295205 228.247065,23.69193 228.542116,25.4896997 C228.837167,27.2874693 228.984693,29.2350341 228.984693,31.3323942 L228.984693,48.5395529 L219.488584,48.5395529 L219.488584,33.2586246 C219.488584,32.3596263 219.445461,31.4395205 219.361485,30.4976263 C219.320631,29.5132901 219.129983,28.6142918 218.791809,27.8010853 C218.496758,26.9878788 218.011058,26.3244676 217.33698,25.8106246 C216.703754,25.2970085 215.775478,25.040314 214.549881,25.040314 C213.326553,25.040314 212.334727,25.2756741 211.574403,25.7466212 C210.814078,26.1744454 210.223976,26.7738532 209.801826,27.5441638 C209.422799,28.2720324 209.168601,29.1065734 209.041502,30.0482406 C208.916672,30.9899078 208.853123,31.974471 208.853123,33.0017031 L208.853123,48.5395529 L199.354744,48.5395529 L199.354744,17.3356195 Z" id="Path" fill="#2B353B" fill-rule="nonzero"></path>
          <path d="M235.330563,0 L244.826672,0 L244.826672,20.6742372 L244.953771,20.6742372 C246.05227,19.176058 247.443549,18.1274915 249.13215,17.5280836 C250.863874,16.8860068 252.720427,16.5650819 254.704078,16.5650819 C256.898805,16.5650819 258.862031,17.036029 260.591485,17.9776962 C262.323208,18.8764676 263.778038,20.0963908 264.960512,21.6372389 C266.18384,23.178314 267.112116,24.9547491 267.745341,26.9663174 C268.421689,28.9354437 268.759863,31.0114693 268.759863,33.1943942 C268.759863,35.5486758 268.401263,37.7102662 267.681792,39.6791655 C266.96459,41.6480648 265.931911,43.3602696 264.581485,44.8155529 C263.271911,46.2281672 261.689983,47.3409642 259.83116,48.1543976 C257.974608,48.9247082 255.90698,49.3100904 253.628276,49.3100904 C252.529778,49.3100904 251.497099,49.1602952 250.5257,48.8604778 C249.5543,48.5608874 248.646451,48.1757321 247.80215,47.704785 C247.000973,47.2340648 246.283771,46.7204488 245.650546,46.1639369 C245.060444,45.564756 244.574744,44.9869096 244.193447,44.4303976 L244.066348,44.4303976 L244.066348,48.5395529 L235.330563,48.5395529 L235.330563,0 Z M244.066348,32.9374727 C244.066348,35.2917543 244.72227,37.1964232 246.029573,38.6519334 C247.38,40.1072167 249.259249,40.8348584 251.665051,40.8348584 C254.070853,40.8348584 255.927406,40.1072167 257.23698,38.6519334 C258.587406,37.1964232 259.261485,35.2917543 259.261485,32.9374727 C259.261485,30.5834181 258.587406,28.6785222 257.23698,27.2232389 C255.927406,25.7679556 254.070853,25.040314 251.665051,25.040314 C249.259249,25.040314 247.38,25.7679556 246.029573,27.2232389 C244.72227,28.6785222 244.066348,30.5834181 244.066348,32.9374727 Z" id="Shape" fill="#2B353B" fill-rule="nonzero"></path>
          <path d="M271.916911,32.9374727 C271.916911,30.4549573 272.359488,28.207802 273.246911,26.1960068 C274.132065,24.1842116 275.334966,22.4720068 276.855614,21.0593925 C278.417116,19.6041092 280.232816,18.4913123 282.300444,17.7207747 C284.411195,16.9502372 286.646775,16.5650819 289.011724,16.5650819 C291.374403,16.5650819 293.591826,16.9502372 295.659454,17.7207747 C297.770205,18.4913123 299.583635,19.6041092 301.104283,21.0593925 C302.665785,22.4720068 303.889113,24.1842116 304.776536,26.1960068 C305.661689,28.207802 306.104266,30.4549573 306.104266,32.9374727 C306.104266,35.420215 305.661689,37.6673703 304.776536,39.6791655 C303.889113,41.6909608 302.665785,43.4245 301.104283,44.8797833 C299.583635,46.2923976 297.770205,47.3838601 295.659454,48.1543976 C293.591826,48.9247082 291.374403,49.3100904 289.011724,49.3100904 C286.646775,49.3100904 284.411195,48.9247082 282.300444,48.1543976 C280.232816,47.3838601 278.417116,46.2923976 276.855614,44.8797833 C275.334966,43.4245 274.132065,41.6909608 273.246911,39.6791655 C272.359488,37.6673703 271.916911,35.420215 271.916911,32.9374727 Z M281.41302,32.9374727 C281.41302,35.2917543 282.068942,37.1964232 283.376246,38.6519334 C284.726672,40.1072167 286.605922,40.8348584 289.011724,40.8348584 C291.417526,40.8348584 293.274078,40.1072167 294.583652,38.6519334 C295.934078,37.1964232 296.608157,35.2917543 296.608157,32.9374727 C296.608157,30.5834181 295.934078,28.6785222 294.583652,27.2232389 C293.274078,25.7679556 291.417526,25.040314 289.011724,25.040314 C286.605922,25.040314 284.726672,25.7679556 283.376246,27.2232389 C282.068942,28.6785222 281.41302,30.5834181 281.41302,32.9374727 Z" id="Shape" fill="#2B353B" fill-rule="nonzero"></path>
          <path d="M329.742406,44.6230887 L329.615307,44.6230887 C328.559932,46.2923976 327.145956,47.4907594 325.373379,48.218628 C323.643925,48.9462696 321.807799,49.3100904 319.865,49.3100904 C318.430597,49.3100904 317.037048,49.0960648 315.686621,48.6680137 C314.379317,48.2826314 313.21727,47.6834505 312.205017,46.870244 C311.192765,46.0570375 310.391587,45.0511399 309.799215,43.8525512 C309.209113,42.6539625 308.914061,41.2629096 308.914061,39.6791655 C308.914061,37.8813959 309.229539,36.3618823 309.862765,35.1206246 C310.539113,33.8791399 311.424266,32.8519078 312.522765,32.0387014 C313.662116,31.2254949 314.948993,30.6047526 316.383396,30.1767014 C317.820068,29.7057543 319.295324,29.3634949 320.815973,29.1494693 C322.377474,28.9354437 323.918549,28.8069829 325.436928,28.764087 C326.99843,28.7214181 328.435102,28.7000836 329.742406,28.7000836 C329.742406,26.9878788 329.129608,25.6394949 327.90628,24.6549317 C326.723805,23.6276997 325.309829,23.1140836 323.664352,23.1140836 C322.10285,23.1140836 320.668447,23.45657 319.358874,24.1413157 C318.092423,24.7833925 316.953072,25.6823908 315.940819,26.8380836 L310.875017,21.5732355 C312.647594,19.9036997 314.717491,18.662442 317.080171,17.8492355 C319.445119,16.9931331 321.891775,16.5650819 324.424676,16.5650819 C327.209505,16.5650819 329.490478,16.9289027 331.263055,17.6565444 C333.076485,18.3415171 334.513157,19.3687491 335.566263,20.7384676 C336.664761,22.108186 337.425085,23.7988294 337.847235,25.8106246 C338.269386,27.7797509 338.480461,30.069802 338.480461,32.6807782 L338.480461,48.5395529 L329.742406,48.5395529 L329.742406,44.6230887 Z M327.400154,34.8637031 C326.682952,34.8637031 325.775102,34.906599 324.678874,34.9921638 C323.623498,35.0348328 322.588549,35.2061894 321.576297,35.5057799 C320.604898,35.8053703 319.760597,36.254756 319.043396,36.8541638 C318.367048,37.4533447 318.031143,38.2881126 318.031143,39.3582406 C318.031143,40.5139334 318.514573,41.3698089 319.485973,41.9263208 C320.457372,42.4828328 321.469625,42.7610887 322.525,42.7610887 C323.453276,42.7610887 324.3407,42.632628 325.185,42.3757065 C326.070154,42.1190119 326.850904,41.7551911 327.527253,41.284244 C328.201331,40.8135239 328.730154,40.214116 329.109181,39.4864744 C329.531331,38.7588328 329.742406,37.9027304 329.742406,36.9183942 L329.742406,34.8637031 L327.400154,34.8637031 Z" id="Shape" fill="#2B353B" fill-rule="nonzero"></path>
          <path d="M343.171775,17.3356195 L352.667884,17.3356195 L352.667884,22.3435461 L352.794983,22.3435461 C353.807235,20.4175427 355.010137,18.9835939 356.403686,18.0419266 C357.797235,17.0573635 359.547116,16.5650819 361.657867,16.5650819 C362.207116,16.5650819 362.756365,16.5864164 363.305614,16.6293123 C363.852594,16.6722082 364.36099,16.757773 364.823993,16.8860068 L364.823993,25.6823908 C364.149915,25.4683652 363.473567,25.31857 362.797218,25.2327782 C362.163993,25.1045444 361.489915,25.040314 360.772713,25.040314 C358.957014,25.040314 357.522611,25.2970085 356.467235,25.8106246 C355.41186,26.3244676 354.587986,27.0521092 353.997884,27.9937765 C353.448635,28.8925478 353.090034,29.9840102 352.922082,31.2681638 C352.75186,32.5523174 352.667884,33.9649317 352.667884,35.5057799 L352.667884,48.5395529 L343.171775,48.5395529 L343.171775,17.3356195 Z" id="Path" fill="#2B353B" fill-rule="nonzero"></path>
          <path d="M398.863823,48.5395529 L390.125768,48.5395529 L390.125768,44.4303976 L390.000939,44.4303976 C389.619642,44.9869096 389.113515,45.564756 388.48029,46.1639369 C387.890188,46.7204488 387.172986,47.2340648 386.328686,47.704785 C385.525239,48.1757321 384.617389,48.5608874 383.605137,48.8604778 C382.633737,49.1602952 381.621485,49.3100904 380.566109,49.3100904 C378.287406,49.3100904 376.219778,48.9247082 374.360956,48.1543976 C372.504403,47.3409642 370.899778,46.2281672 369.549352,44.8155529 C368.242048,43.3602696 367.229795,41.6480648 366.510324,39.6791655 C365.793123,37.7102662 365.434522,35.5486758 365.434522,33.1943942 C365.434522,31.0114693 365.75227,28.9354437 366.385495,26.9663174 C367.059573,24.9547491 367.98785,23.178314 369.170324,21.6372389 C370.393652,20.0963908 371.871177,18.8764676 373.602901,17.9776962 C375.332355,17.036029 377.29558,16.5650819 379.490307,16.5650819 C381.473959,16.5650819 383.310085,16.8860068 384.998686,17.5280836 C386.72814,18.1274915 388.142116,19.176058 389.240614,20.6742372 L389.367713,20.6742372 L389.367713,0 L398.863823,0 L398.863823,48.5395529 Z M390.125768,32.9374727 C390.125768,30.5834181 389.451689,28.6785222 388.101263,27.2232389 C386.791689,25.7679556 384.935137,25.040314 382.529334,25.040314 C380.123532,25.040314 378.244283,25.7679556 376.893857,27.2232389 C375.586553,28.6785222 374.930631,30.5834181 374.930631,32.9374727 C374.930631,35.2917543 375.586553,37.1964232 376.893857,38.6519334 C378.244283,40.1072167 380.123532,40.8348584 382.529334,40.8348584 C384.935137,40.8348584 386.791689,40.1072167 388.101263,38.6519334 C389.451689,37.1964232 390.125768,35.2917543 390.125768,32.9374727 Z" id="Shape" fill="#2B353B" fill-rule="nonzero"></path>
        </g>
      </g>
    </svg>