<svg xmlns="http://www.w3.org/2000/svg" viewBox="0 0 399 64"><g fill="none" fill-rule="evenodd"><path fill="#00C4F5" d="M24.386 23.213c6.023-6.69 16.971-2.346 16.971 6.723v24.067c0 5.492-4.373 9.948-9.77 9.948H9.916c-8.505 0-12.945-10.293-7.202-16.67l21.672-24.068zm8.332 6.723c0-1.055-1.269-1.552-1.964-.78L9.083 53.223c-.668.742-.148 1.933.833 1.933h21.671c.623 0 1.13-.515 1.13-1.153V29.936z"/><path fill="#F77" d="M20.746 15.202c-6.581 0-11.972 5.482-11.972 12.313s5.391 12.313 11.972 12.313c6.581 0 11.972-5.482 11.972-12.313s-5.39-12.313-11.972-12.313zM.135 27.515c0-11.626 9.197-21.107 20.611-21.107 11.414 0 20.611 9.481 20.611 21.107S32.16 48.623 20.746 48.623C9.332 48.623.135 39.14.135 27.515z"/><path fill="#005267" d="m12.487 36.428-5.84 6.484a20.492 20.492 0 0 0 7.555 4.626l6.95-7.717c-.135.005-.27.007-.406.007-3.193 0-6.106-1.29-8.26-3.4zm20.095-7.05c.09-.607.136-1.229.136-1.863 0-2.814-.915-5.4-2.45-7.466 5.138-.68 10.496 2.948 11.043 8.882-.42 6.49-3.71 12.193-8.593 15.769V29.936c0-.21-.05-.398-.136-.558z"/><path fill="#2B353B" fill-rule="nonzero" d="M96.052 45.907c0 5.907-1.478 10.38-4.432 13.42-2.912 3.081-7.365 4.622-13.359 4.622-2.743 0-5.445-.321-8.104-.963-2.659-.6-5.107-1.798-7.344-3.596l5.255-7.961c1.477 1.241 3.018 2.226 4.622 2.953 1.646.728 3.44 1.092 5.381 1.092 2.913 0 5.044-.728 6.395-2.183 1.393-1.413 2.09-3.232 2.09-5.458v-3.017h-.128c-1.097 1.498-2.469 2.568-4.115 3.21-1.604.6-3.123.899-4.558.899-2.28 0-4.348-.385-6.205-1.156-1.857-.813-3.46-1.926-4.811-3.339-1.309-1.455-2.322-3.167-3.04-5.136-.717-1.97-1.076-4.13-1.076-6.485 0-2.054.317-4.066.95-6.035.675-1.97 1.604-3.703 2.786-5.2a13.983 13.983 0 0 1 4.431-3.596c1.73-.942 3.694-1.413 5.888-1.413 1.351 0 2.575.15 3.672.45 1.14.3 2.153.684 3.04 1.155.886.471 1.646 1.006 2.279 1.605.633.557 1.14 1.113 1.52 1.67h.126v-4.11h8.737v28.572zM72.12 32.745c0 1.027.19 2.012.57 2.953.38.9.907 1.712 1.583 2.44a9.363 9.363 0 0 0 2.405 1.67c.929.428 1.942.642 3.04.642a7.022 7.022 0 0 0 2.975-.642 8.11 8.11 0 0 0 2.406-1.67 7.758 7.758 0 0 0 1.646-2.44 7.82 7.82 0 0 0 .57-2.953c0-1.027-.19-1.99-.57-2.89a6.892 6.892 0 0 0-1.646-2.44 7.567 7.567 0 0 0-2.406-1.733 7.022 7.022 0 0 0-2.976-.642c-1.097 0-2.11.214-3.039.642a8.639 8.639 0 0 0-2.405 1.734 7.34 7.34 0 0 0-1.583 2.44 7.343 7.343 0 0 0-.57 2.889zm59.379 10.401c-1.52 1.97-3.44 3.489-5.762 4.559-2.321 1.07-4.727 1.605-7.217 1.605-2.364 0-4.6-.385-6.711-1.156-2.068-.77-3.883-1.862-5.445-3.274-1.52-1.456-2.722-3.189-3.609-5.2-.886-2.013-1.33-4.26-1.33-6.743 0-2.482.444-4.73 1.33-6.741.887-2.012 2.09-3.724 3.61-5.137 1.56-1.455 3.376-2.568 5.444-3.338 2.11-.77 4.347-1.156 6.71-1.156 2.196 0 4.18.385 5.952 1.156 1.815.77 3.335 1.883 4.559 3.338 1.266 1.413 2.236 3.125 2.912 5.137.675 2.012 1.013 4.259 1.013 6.741v3.018h-22.033c.38 1.84 1.203 3.317 2.47 4.43 1.266 1.07 2.828 1.606 4.685 1.606 1.561 0 2.87-.343 3.925-1.028a10.962 10.962 0 0 0 2.849-2.76l6.648 4.943zm-8.041-13.74c.042-1.626-.485-3.018-1.583-4.173-1.097-1.156-2.51-1.734-4.241-1.734-1.056 0-1.984.172-2.786.514a7.056 7.056 0 0 0-2.09 1.348 5.942 5.942 0 0 0-1.329 1.862 6.342 6.342 0 0 0-.507 2.183h12.536zm34.962-4.366h-8.357v10.402c0 .856.042 1.648.126 2.375.085.685.275 1.284.57 1.798.296.514.739.92 1.33 1.22.633.257 1.456.385 2.469.385.506 0 1.16-.043 1.963-.128.844-.129 1.477-.386 1.899-.77v8.025a14.195 14.195 0 0 1-3.292.77c-1.14.129-2.258.193-3.356.193-1.604 0-3.081-.171-4.432-.514-1.35-.342-2.532-.877-3.545-1.605-1.013-.77-1.815-1.755-2.406-2.953-.549-1.199-.823-2.654-.823-4.366V25.04h-6.078v-7.704h6.078V8.09h9.497v9.246h8.357v7.704zm2.42 7.897c0-2.482.443-4.73 1.33-6.741.886-2.012 2.089-3.724 3.608-5.137 1.562-1.455 3.377-2.568 5.445-3.338 2.11-.77 4.348-1.156 6.711-1.156 2.364 0 4.58.385 6.648 1.156 2.11.77 3.925 1.883 5.445 3.338 1.561 1.413 2.785 3.125 3.672 5.137.886 2.012 1.33 4.259 1.33 6.741 0 2.483-.444 4.73-1.33 6.742-.887 2.012-2.11 3.745-3.672 5.2-1.52 1.413-3.335 2.505-5.445 3.275-2.068.77-4.284 1.156-6.648 1.156-2.363 0-4.6-.385-6.71-1.156-2.07-.77-3.884-1.862-5.446-3.274-1.52-1.456-2.722-3.189-3.608-5.2-.887-2.013-1.33-4.26-1.33-6.743zm9.497 0c0 2.355.654 4.26 1.962 5.715 1.351 1.455 3.23 2.183 5.635 2.183 2.406 0 4.263-.728 5.572-2.183 1.35-1.456 2.026-3.36 2.026-5.715 0-2.354-.676-4.258-2.026-5.714-1.309-1.455-3.166-2.183-5.572-2.183s-4.284.728-5.635 2.183c-1.308 1.456-1.962 3.36-1.962 5.714zm29.018-15.601h9.117v4.237h.127c.295-.6.717-1.198 1.266-1.798a9.237 9.237 0 0 1 1.964-1.605c.76-.47 1.625-.856 2.594-1.156.971-.3 2.027-.449 3.166-.449 2.406 0 4.349.385 5.826 1.156 1.475.727 2.617 1.755 3.418 3.082.844 1.327 1.414 2.889 1.71 4.687.294 1.797.442 3.745.442 5.842V48.54h-9.496V33.259c0-.9-.044-1.82-.128-2.761-.04-.985-.231-1.884-.57-2.697a4.288 4.288 0 0 0-1.454-1.99c-.633-.514-1.562-.77-2.787-.77-1.223 0-2.215.235-2.976.706a4.504 4.504 0 0 0-1.772 1.797c-.38.728-.633 1.563-.76 2.504a22.47 22.47 0 0 0-.189 2.954V48.54h-9.498V17.336zM235.33 0h9.497v20.674h.127c1.098-1.498 2.49-2.547 4.178-3.146 1.732-.642 3.588-.963 5.572-.963 2.195 0 4.158.471 5.887 1.413a12.973 12.973 0 0 1 4.37 3.66c1.223 1.54 2.151 3.317 2.784 5.328.677 1.97 1.015 4.045 1.015 6.228 0 2.355-.359 4.516-1.078 6.485-.717 1.97-1.75 3.681-3.1 5.137-1.31 1.412-2.892 2.525-4.75 3.338-1.857.77-3.925 1.156-6.204 1.156-1.098 0-2.13-.15-3.102-.45-.972-.3-1.88-.684-2.724-1.155a13.957 13.957 0 0 1-2.151-1.541c-.59-.6-1.076-1.177-1.458-1.734h-.127v4.11h-8.735V0zm8.736 32.937c0 2.355.656 4.26 1.964 5.715 1.35 1.455 3.23 2.183 5.635 2.183 2.406 0 4.262-.728 5.572-2.183 1.35-1.456 2.024-3.36 2.024-5.715 0-2.354-.674-4.258-2.024-5.714-1.31-1.455-3.166-2.183-5.572-2.183s-4.285.728-5.635 2.183c-1.308 1.456-1.964 3.36-1.964 5.714zm27.851 0c0-2.482.442-4.73 1.33-6.741.885-2.012 2.088-3.724 3.609-5.137 1.561-1.455 3.377-2.568 5.444-3.338 2.111-.77 4.347-1.156 6.712-1.156 2.362 0 4.58.385 6.647 1.156 2.111.77 3.925 1.883 5.445 3.338 1.562 1.413 2.785 3.125 3.673 5.137.885 2.012 1.327 4.259 1.327 6.741 0 2.483-.442 4.73-1.327 6.742-.888 2.012-2.111 3.745-3.673 5.2-1.52 1.413-3.334 2.505-5.445 3.275-2.067.77-4.285 1.156-6.647 1.156-2.365 0-4.6-.385-6.712-1.156-2.067-.77-3.883-1.862-5.444-3.274-1.521-1.456-2.724-3.189-3.61-5.2-.887-2.013-1.33-4.26-1.33-6.743zm9.496 0c0 2.355.656 4.26 1.963 5.715 1.35 1.455 3.23 2.183 5.636 2.183s4.262-.728 5.572-2.183c1.35-1.456 2.024-3.36 2.024-5.715 0-2.354-.674-4.258-2.024-5.714-1.31-1.455-3.166-2.183-5.572-2.183s-4.285.728-5.636 2.183c-1.307 1.456-1.963 3.36-1.963 5.714zm48.329 11.686h-.127c-1.055 1.67-2.469 2.868-4.242 3.596a14.058 14.058 0 0 1-5.508 1.091 13.75 13.75 0 0 1-4.178-.642 10.023 10.023 0 0 1-3.482-1.798 8.838 8.838 0 0 1-2.406-3.017c-.59-1.199-.885-2.59-.885-4.174 0-1.798.316-3.317.949-4.558a9.328 9.328 0 0 1 2.66-3.082c1.14-.814 2.426-1.434 3.86-1.862a25.68 25.68 0 0 1 4.433-1.028 42.957 42.957 0 0 1 4.62-.385c1.562-.043 3-.064 4.306-.064 0-1.712-.612-3.06-1.836-4.045-1.182-1.027-2.596-1.54-4.242-1.54-1.561 0-2.996.342-4.305 1.026-1.267.642-2.406 1.541-3.418 2.697l-5.066-5.265c1.773-1.67 3.842-2.91 6.205-3.724a21.408 21.408 0 0 1 7.345-1.284c2.785 0 5.065.364 6.838 1.092 1.813.685 3.25 1.712 4.303 3.081 1.099 1.37 1.86 3.06 2.281 5.073.422 1.969.633 4.259.633 6.87V48.54h-8.738v-3.917zm-2.342-9.76c-.717 0-1.625.044-2.721.13-1.056.042-2.09.213-3.103.513-.971.3-1.815.749-2.533 1.348-.676.6-1.012 1.434-1.012 2.504 0 1.156.484 2.012 1.455 2.568.971.557 1.984.835 3.039.835a9.09 9.09 0 0 0 2.66-.385 7.928 7.928 0 0 0 2.342-1.092 4.96 4.96 0 0 0 1.582-1.798c.422-.727.633-1.583.633-2.568v-2.054H327.4zm15.772-17.527h9.496v5.008h.127c1.012-1.926 2.215-3.36 3.609-4.302 1.393-.985 3.143-1.477 5.254-1.477.55 0 1.098.021 1.648.064a8.064 8.064 0 0 1 1.518.257v8.796a11.453 11.453 0 0 0-2.027-.45 10.184 10.184 0 0 0-2.024-.192c-1.816 0-3.25.257-4.306.77-1.055.514-1.879 1.242-2.47 2.184-.548.899-.907 1.99-1.075 3.274a32.395 32.395 0 0 0-.254 4.238V48.54h-9.496V17.336zm55.692 31.204h-8.738v-4.11H390c-.381.557-.887 1.135-1.52 1.734-.59.556-1.308 1.07-2.152 1.54a12.17 12.17 0 0 1-2.724 1.156c-.971.3-1.984.45-3.039.45-2.279 0-4.346-.385-6.205-1.156-1.857-.813-3.461-1.926-4.812-3.338-1.307-1.456-2.32-3.168-3.039-5.137-.717-1.969-1.075-4.13-1.075-6.485 0-2.183.317-4.259.95-6.228.675-2.011 1.603-3.788 2.785-5.329a13.637 13.637 0 0 1 4.433-3.66c1.73-.941 3.693-1.412 5.887-1.412 1.984 0 3.82.321 5.509.963 1.73.6 3.143 1.648 4.242 3.146h.127V0h9.496v48.54zm-8.738-15.603c0-2.354-.674-4.258-2.025-5.714-1.31-1.455-3.166-2.183-5.572-2.183-2.405 0-4.285.728-5.635 2.183-1.307 1.456-1.963 3.36-1.963 5.714 0 2.355.656 4.26 1.963 5.715 1.35 1.455 3.23 2.183 5.635 2.183 2.406 0 4.263-.728 5.572-2.183 1.35-1.456 2.025-3.36 2.025-5.715z"/></g></svg>