<svg xmlns="http://www.w3.org/2000/svg" viewBox="0 0 841.9 595.3" xml:space="preserve"><path d="M96.1 359.6c-38.2 0-61.7-32.1-61.7-66.8 0-36.7 21-66.2 61.3-66.2 29.6 0 52.5 17.7 54.4 42.6h-26.3c-1.3-11.6-13.9-21-28.1-21-20.8 0-34.7 16.1-34.7 45.7 0 20.4 10.3 43.7 34.5 43.7 22.6 0 30.4-11.1 30.4-28.5H98.3v-20.8h51.9v20.9c.1 29.6-12.5 50.4-54.1 50.4zm69.2-4.3v-126h24.4v126h-24.4zm36-53.3c2-20.6 20.2-39.2 40.8-41.1 32.5-2.9 53.2 16.8 53.2 48.3 0 29.3-18.2 48.6-46.9 48.5-32.3 0-50.3-23.2-47.1-55.7zm69.4 7.2c0-18.7-7.5-27.9-22.3-27.9s-22.3 9.2-22.3 27.9 7.5 28.1 22.3 28.1 22.3-9.4 22.3-28.1zm36.2 46.1v-126h24v45.8c6.9-9.8 16-14.4 27.4-14.4 23.8 0 37.9 19.7 37.8 47.6 0 31.1-16.7 49.5-39.9 49.5-11.3 0-19.9-4.4-25.7-13.7l-.2 11.2h-23.4zm64.5-45.3c0-18.9-6.7-28.5-21-28.5-13.5 0-20.4 9.9-20.4 30 0 15.6 9 26.4 20.6 26.4 12.2 0 20.8-11.4 20.8-27.9zm97 45.5c-.8-2.7-1.3-5.5-1.5-8.3-5.8 6.4-15.6 10.7-27.9 10.7-21 0-30.7-10.3-30.7-25.3 0-26.6 17.8-29.6 42.4-33 12.2-1.7 15.6-4.1 15.6-10.5 0-6-6-9.6-15.6-9.6-11.1 0-15.6 5.4-16.7 13.7h-22.7c.4-19.1 10.9-32.4 40.5-32.4 29.3 0 39.4 13.1 39.4 36.3v58.4h-22.8zm-1.7-45.3c-2.4 2.4-6.8 3.7-15.8 5.4-13.9 2.6-18.4 6.6-18.4 14.4 0 6.9 4.1 10.3 11.8 10.3 12.6 0 21.9-9.2 22.1-20.1l.3-10zm100.1 45.3v-55.9c0-14.3-4.1-18.2-15.8-18.2-12.7 0-18.9 7.1-18.9 21.2v52.9h-24.4v-92.3H531v13.5c5.6-10.3 15-16 29.8-16 17.6 0 30.5 10.7 30.5 30.8v63.9l-24.5.1zm94.6-34.7c-.5 10.2-5.1 15.9-14.2 15.9-9.9 0-14.1-6.8-14.1-18.4v-37.9h37.8v-19.7h-37.7v-22.5h-24.1v82.5c0 19.9 10.7 37.1 37.7 37.2 26.1 0 37.3-17.4 37.3-36.9v-.2h-22.7z"/><path fill="#BDD632" d="M713.5 222.5c-2.7-1.6-6.2-.6-7.8 2.1-.8 1.3-1 2.9-.5 4.4l10.9 16.2c21.2 31.7 21.2 73.1 0 104.8l-10.9 16.2c-.9 3 .9 6.2 3.9 7 1.5.4 3.1.2 4.4-.5l91.1-69.4c3.1-2.4 3.7-6.9 1.4-10-.4-.5-.9-1-1.4-1.4l-91.1-69.4z"/></svg>