<svg xmlns="http://www.w3.org/2000/svg" xmlns:xlink="http://www.w3.org/1999/xlink" id="Layer_1" x="0" y="0" enable-background="new 0 0 841.9 595.3" version="1.1" viewBox="0 0 841.9 595.3" xml:space="preserve"><g><path d="M96.1,359.6c-38.2,0-61.7-32.1-61.7-66.8c0-36.7,21-66.2,61.3-66.2c29.6,0,52.5,17.7,54.4,42.6h-26.3 c-1.3-11.6-13.9-21-28.1-21c-20.8,0-34.7,16.1-34.7,45.7c0,20.4,10.3,43.7,34.5,43.7c22.6,0,30.4-11.1,30.4-28.5H98.3v-20.8h51.9 v20.9C150.3,338.8,137.7,359.6,96.1,359.6z"/><path d="M165.3,355.3v-126h24.4v126H165.3z"/><path d="M201.3,302c2-20.6,20.2-39.2,40.8-41.1c32.5-2.9,53.2,16.8,53.2,48.3c0,29.3-18.2,48.6-46.9,48.5 C216.1,357.7,198.1,334.5,201.3,302z M270.7,309.2c0-18.7-7.5-27.9-22.3-27.9s-22.3,9.2-22.3,27.9c0,18.7,7.5,28.1,22.3,28.1 S270.7,327.9,270.7,309.2L270.7,309.2z"/><path d="M306.9,355.3v-126h24v45.8c6.9-9.8,16-14.4,27.4-14.4c23.8,0,37.9,19.7,37.8,47.6c0,31.1-16.7,49.5-39.9,49.5 c-11.3,0-19.9-4.4-25.7-13.7l-0.2,11.2H306.9z M371.4,310c0-18.9-6.7-28.5-21-28.5c-13.5,0-20.4,9.9-20.4,30 c0,15.6,9,26.4,20.6,26.4C362.8,337.9,371.4,326.5,371.4,310z"/><path d="M468.4,355.5c-0.8-2.7-1.3-5.5-1.5-8.3c-5.8,6.4-15.6,10.7-27.9,10.7c-21,0-30.7-10.3-30.7-25.3c0-26.6,17.8-29.6,42.4-33 c12.2-1.7,15.6-4.1,15.6-10.5c0-6-6-9.6-15.6-9.6c-11.1,0-15.6,5.4-16.7,13.7h-22.7c0.4-19.1,10.9-32.4,40.5-32.4 c29.3,0,39.4,13.1,39.4,36.3v58.4H468.4z M466.7,310.2c-2.4,2.4-6.8,3.7-15.8,5.4c-13.9,2.6-18.4,6.6-18.4,14.4 c0,6.9,4.1,10.3,11.8,10.3c12.6,0,21.9-9.2,22.1-20.1L466.7,310.2z"/><path d="M566.8,355.5v-55.9c0-14.3-4.1-18.2-15.8-18.2c-12.7,0-18.9,7.1-18.9,21.2v52.9h-24.4v-92.3H531v13.5 c5.6-10.3,15-16,29.8-16c17.6,0,30.5,10.7,30.5,30.8v63.9L566.8,355.5z"/><path d="M661.4,320.8c-0.5,10.2-5.1,15.9-14.2,15.9c-9.9,0-14.1-6.8-14.1-18.4v-37.9h37.8v-19.7h-37.7v-22.5h-24.1v82.5 c0,19.9,10.7,37.1,37.7,37.2c26.1,0,37.3-17.4,37.3-36.9v-0.2L661.4,320.8z"/><path fill="#BDD632" d="M713.5,222.5c-2.7-1.6-6.2-0.6-7.8,2.1c-0.8,1.3-1,2.9-0.5,4.4l10.9,16.2c21.2,31.7,21.2,73.1,0,104.8 l-10.9,16.2c-0.9,3,0.9,6.2,3.9,7c1.5,0.4,3.1,0.2,4.4-0.5l91.1-69.4c3.1-2.4,3.7-6.9,1.4-10c-0.4-0.5-0.9-1-1.4-1.4L713.5,222.5z"/></g></svg>