<?xml version="1.0" encoding="utf-8"?>
<!-- Generator: Adobe Illustrator 21.0.0, SVG Export Plug-In . SVG Version: 6.00 Build 0)  -->
<svg version="1.1" id="Layer_1" xmlns="http://www.w3.org/2000/svg" xmlns:xlink="http://www.w3.org/1999/xlink" x="0px" y="0px"
	 viewBox="0 0 303 306" style="enable-background:new 0 0 303 306;" xml:space="preserve">
<g>
	<path d="M48.7,231.2l5.6-15.1h4l5.6,15.1h-3.6l-1.1-3.1h-6.1l-1.1,3.1H48.7z M56.3,219.2l-2.1,6.2h4.3L56.3,219.2L56.3,219.2z"/>
	<path d="M68.5,232.5c0,0.4,0.3,0.8,0.7,1.1c0.4,0.3,1,0.4,1.6,0.4c1,0,1.6-0.3,2.1-0.8s0.7-1.4,0.7-2.6v-0.9h-0.1
		c-0.3,0.5-0.7,1-1.3,1.3s-1.3,0.5-2.2,0.5c-1.3,0-2.5-0.5-3.4-1.4s-1.5-2.3-1.5-4.1c0-1.8,0.5-3.2,1.5-4.2c1-1,2.2-1.5,3.6-1.5
		c0.8,0,1.5,0.2,2,0.5c0.6,0.3,1,0.8,1.3,1.3h0.1v-1.5h3.1v10.1c0,2-0.5,3.4-1.6,4.3c-1,0.9-2.5,1.3-4.3,1.3c-1.6,0-2.9-0.3-3.8-0.9
		s-1.5-1.5-1.5-2.8L68.5,232.5L68.5,232.5z M69.1,228.2c0.4,0.6,1,0.9,1.8,0.9c0.7,0,1.3-0.3,1.8-0.9c0.5-0.6,0.7-1.3,0.7-2.2v-0.3
		c0-0.9-0.3-1.7-0.7-2.2c-0.5-0.6-1-0.9-1.8-0.9c-0.8,0-1.3,0.3-1.8,0.9s-0.7,1.4-0.7,2.4S68.7,227.7,69.1,228.2z"/>
	<path d="M79.5,218v-2.9h3.4v2.9H79.5z M79.6,231.2v-10.7h3.3v10.7H79.6z"/>
	<path d="M85.8,231.2v-16.1H89v16.1H85.8z"/>
	<path d="M92.8,221.7c1.1-1,2.5-1.5,4.2-1.5c1.7,0,3,0.5,4,1.4s1.5,2.3,1.5,4.1v0.8h-8c0.1,0.9,0.4,1.6,0.8,2c0.4,0.5,1,0.7,1.8,0.7
		c0.7,0,1.2-0.1,1.5-0.4s0.5-0.6,0.6-0.8h3.1c-0.2,0.9-0.7,1.8-1.7,2.5c-0.9,0.7-2.2,1-3.7,1c-1.8,0-3.2-0.5-4.3-1.4
		s-1.5-2.3-1.5-4.2C91.2,224.1,91.7,222.8,92.8,221.7z M95.4,223c-0.4,0.4-0.7,0.9-0.8,1.6h4.5c-0.1-0.7-0.3-1.3-0.7-1.6
		s-0.9-0.5-1.5-0.5S95.8,222.6,95.4,223z"/>
	<path d="M104.7,231.2v-3.3h3.6v3.3H104.7z"/>
	<path d="M115.8,216.1h3.4v9c0,1.1,0.3,2,0.8,2.6s1.4,0.9,2.5,0.9c1.1,0,1.9-0.3,2.5-0.9s0.8-1.5,0.8-2.6v-9h3.4v9
		c0,2.4-0.6,4.1-1.9,5s-2.9,1.4-4.8,1.4c-2,0-3.6-0.5-4.9-1.4s-1.9-2.6-1.9-5L115.8,216.1L115.8,216.1z"/>
	<path d="M132.2,231.2v-10.7h3.1v1.5h0.1c0.3-0.6,0.8-1,1.3-1.3s1.2-0.4,2-0.4c1.1,0,2.1,0.3,2.9,1s1.3,1.8,1.3,3.5v6.5h-3.3v-6.1
		c0-0.9-0.2-1.5-0.5-1.9s-0.8-0.5-1.4-0.5c-0.6,0-1.2,0.3-1.6,0.8c-0.4,0.5-0.6,1.2-0.6,2.1v5.7H132.2z"/>
	<path d="M148,228.1c0,0.5,0.2,0.8,0.7,1c0.4,0.2,0.9,0.3,1.4,0.3c0.7,0,1.2-0.1,1.5-0.3s0.5-0.5,0.5-0.9s-0.1-0.6-0.4-0.8
		c-0.3-0.1-0.6-0.3-1.1-0.3l-1.9-0.3c-1-0.1-1.8-0.4-2.5-0.9s-1-1.2-1-2.2c0-1.2,0.5-2.1,1.4-2.7s2.1-0.9,3.6-0.9s2.6,0.3,3.5,0.8
		s1.4,1.4,1.4,2.4h-3c0-0.4-0.2-0.8-0.6-0.9c-0.4-0.2-0.8-0.3-1.3-0.3c-0.5,0-1,0.1-1.3,0.3s-0.5,0.4-0.5,0.8s0.1,0.5,0.3,0.7
		s0.6,0.3,1.3,0.4l1.9,0.3c0.9,0.1,1.7,0.4,2.4,0.9s1.1,1.2,1.1,2.2c0,1.3-0.5,2.2-1.5,2.8s-2.3,0.9-3.8,0.9c-1.5,0-2.7-0.3-3.7-0.8
		c-1-0.5-1.5-1.4-1.5-2.5L148,228.1L148,228.1z"/>
	<path d="M158.2,222.8h-2v-2.4h2v-3.3h3.3v3.3h2.6v2.4h-2.6v4.2c0,0.6,0.1,1,0.3,1.2s0.6,0.4,1.2,0.4h1.1v2.6h-1.8
		c-1.6,0-2.6-0.3-3.2-0.9c-0.6-0.6-0.9-1.6-0.9-3.1L158.2,222.8L158.2,222.8z"/>
	<path d="M167.2,221.7c1.1-1,2.5-1.5,4.2-1.5c1.8,0,3.2,0.5,4.3,1.5c1.1,1,1.6,2.4,1.6,4.2c0,1.8-0.6,3.2-1.7,4.1
		c-1.1,1-2.5,1.5-4.2,1.5c-1.8,0-3.2-0.5-4.3-1.5s-1.6-2.4-1.6-4.2C165.5,224.1,166.1,222.7,167.2,221.7z M169.6,228.2
		c0.5,0.6,1.1,0.9,1.8,0.9s1.4-0.3,1.8-0.9s0.7-1.4,0.7-2.4c0-1-0.2-1.8-0.7-2.4c-0.5-0.6-1.1-0.9-1.8-0.9s-1.4,0.3-1.8,0.9
		s-0.7,1.4-0.7,2.4C168.9,226.8,169.1,227.6,169.6,228.2z"/>
	<path d="M182.8,236h-3.3v-15.6h3.1v1.5h0.1c0.3-0.5,0.7-1,1.3-1.3c0.6-0.3,1.3-0.5,2.2-0.5c1.3,0,2.5,0.5,3.4,1.4s1.5,2.3,1.5,4.1
		s-0.5,3.2-1.5,4.2c-1,1-2.2,1.5-3.6,1.5c-0.8,0-1.5-0.2-2-0.5s-1-0.7-1.3-1.3h-0.1c0.1,0.7,0.1,1.4,0.1,2.1c0,0.7,0,1.2,0,1.6
		L182.8,236L182.8,236z M187.1,223.4c-0.4-0.6-1-0.9-1.8-0.9s-1.4,0.3-1.8,0.9c-0.5,0.6-0.7,1.3-0.7,2.2v0.1c0,1,0.2,1.8,0.7,2.3
		s1.1,0.9,1.8,0.9s1.3-0.3,1.8-0.9c0.4-0.6,0.7-1.4,0.7-2.4S187.5,224,187.1,223.4z"/>
	<path d="M196.6,236h-3.3v-15.6h3.1v1.5h0.1c0.3-0.5,0.7-1,1.3-1.3c0.6-0.3,1.3-0.5,2.2-0.5c1.3,0,2.5,0.5,3.4,1.4s1.5,2.3,1.5,4.1
		s-0.5,3.2-1.5,4.2c-1,1-2.2,1.5-3.6,1.5c-0.8,0-1.5-0.2-2-0.5s-1-0.7-1.3-1.3h-0.1c0.1,0.7,0.1,1.4,0.1,2.1c0,0.7,0,1.2,0,1.6
		L196.6,236L196.6,236z M200.9,223.4c-0.4-0.6-1-0.9-1.8-0.9s-1.4,0.3-1.8,0.9c-0.5,0.6-0.7,1.3-0.7,2.2v0.1c0,1,0.2,1.8,0.7,2.3
		s1.1,0.9,1.8,0.9s1.3-0.3,1.8-0.9c0.4-0.6,0.7-1.4,0.7-2.4S201.4,224,200.9,223.4z"/>
	<path d="M207.5,226.2c0.6-0.5,1.5-0.9,2.8-1.1l2-0.3c0.5-0.1,0.9-0.2,1.1-0.3c0.2-0.1,0.3-0.3,0.3-0.6c0-0.5-0.1-0.8-0.4-1.1
		s-0.7-0.4-1.3-0.4c-0.6,0-1,0.1-1.4,0.4c-0.3,0.3-0.5,0.7-0.5,1.2H207c0.1-1.3,0.6-2.2,1.6-2.9c1-0.6,2.1-0.9,3.4-0.9
		c1.7,0,2.9,0.3,3.8,1s1.3,1.6,1.3,2.9v7.1h-3.1v-1.3h-0.1c-0.3,0.5-0.8,0.9-1.4,1.2c-0.6,0.3-1.3,0.4-2.1,0.4
		c-1.2,0-2.1-0.3-2.8-0.9s-0.9-1.3-0.9-2.2C206.6,227.5,206.9,226.8,207.5,226.2z M213.7,226.1c-0.1,0.1-0.2,0.3-0.4,0.3
		s-0.4,0.1-0.6,0.2l-1.5,0.2c-0.5,0.1-0.9,0.2-1.1,0.4c-0.2,0.2-0.3,0.5-0.3,0.8c0,0.4,0.1,0.7,0.4,0.9c0.3,0.2,0.6,0.3,1.1,0.3
		c0.6,0,1.1-0.2,1.6-0.5c0.5-0.4,0.8-1,0.8-1.8L213.7,226.1L213.7,226.1z"/>
	<path d="M219.8,231.2v-16.1h3.3v3.3c0,0.4,0,0.9,0,1.6c0,0.7,0,1.4-0.1,2.1h0.1c0.3-0.5,0.7-1,1.3-1.3c0.6-0.3,1.3-0.5,2.2-0.5
		c1.3,0,2.5,0.5,3.4,1.4s1.5,2.3,1.5,4.1s-0.5,3.2-1.5,4.2c-1,1-2.2,1.5-3.6,1.5c-0.8,0-1.5-0.2-2-0.5s-1-0.7-1.3-1.3h-0.1v1.5
		L219.8,231.2L219.8,231.2z M223,225.8c0,1,0.2,1.8,0.7,2.3s1.1,0.9,1.8,0.9s1.3-0.3,1.8-0.9c0.4-0.6,0.7-1.4,0.7-2.4
		s-0.2-1.7-0.7-2.3s-1-0.9-1.8-0.9s-1.4,0.3-1.8,0.9c-0.5,0.6-0.7,1.3-0.7,2.2V225.8z"/>
	<path d="M233.6,231.2v-16.1h3.3v16.1H233.6z"/>
	<path d="M240.6,221.7c1.1-1,2.5-1.5,4.2-1.5c1.7,0,3,0.5,4,1.4s1.5,2.3,1.5,4.1v0.8h-8c0.1,0.9,0.4,1.6,0.8,2
		c0.4,0.5,1,0.7,1.8,0.7c0.7,0,1.2-0.1,1.5-0.4s0.5-0.6,0.6-0.8h3.1c-0.2,0.9-0.7,1.8-1.7,2.5c-0.9,0.7-2.2,1-3.7,1
		c-1.8,0-3.2-0.5-4.3-1.4s-1.5-2.3-1.5-4.2C239,224.1,239.5,222.8,240.6,221.7z M243.2,223c-0.4,0.4-0.7,0.9-0.8,1.6h4.5
		c-0.1-0.7-0.3-1.3-0.7-1.6s-0.9-0.5-1.5-0.5C244.2,222.4,243.6,222.6,243.2,223z"/>
	<path d="M252.5,231.2v-3.3h3.6v3.3H252.5z"/>
</g>
<g>
	<g>
		<polygon points="99.7,159.5 45.5,159.5 45.5,93.8 126.1,93.8 126.1,100.1 51.8,100.1 51.8,153.3 93.4,153.3 93.4,139.4 
			67.4,139.4 67.4,133.1 99.7,133.1 		"/>
		<polygon points="126.3,185.8 19.8,185.8 19.8,67.9 126.1,67.9 126.1,74.2 26.1,74.2 26.1,179.5 120,179.5 120,113.2 67.4,113.2 
			67.4,106.9 126.3,106.9 		"/>
		<polygon points="113.1,172.9 32.4,172.9 32.4,80.7 126.1,80.7 126.1,87 38.7,87 38.7,166.6 106.8,166.6 106.8,126.5 67.4,126.5 
			67.4,120.2 113.1,120.2 		"/>
	</g>
	<path d="M173,99.6c-0.8-2.9-3-6.9-9-6.9c-7.2,0-10.2,6.4-10.2,12.7c0,6.3,3,12.7,10.2,12.7c4.8,0,9.2-3.4,9.2-8.3h-8.9v-6h15.1
		v19.7h-5.9v-3.1c-2.4,2.7-6.3,4-9.5,4c-11.5,0-17.3-8.8-17.3-18.9s6.5-18.9,17.3-18.9c7.3,0,12.6,3.7,15.3,10.6L173,99.6z"/>
	<path d="M208.8,110.6c0,7.6-4.8,13.4-13.1,13.4s-13.1-5.8-13.1-13.4s4.8-13.4,13.1-13.4C204,97.2,208.8,102.9,208.8,110.6z
		 M189.1,110.6c0,4,2.2,7.7,6.6,7.7s6.6-3.8,6.6-7.7c0-4-2.2-7.7-6.6-7.7S189.1,106.6,189.1,110.6z"/>
	<path d="M212.3,97.8h6.2v3.5h0.1c1.5-2.9,4.3-4.2,7.9-4.2v6.3c-4.2,0-8,2-8,7.5v12.4h-6.2V97.8z"/>
	<path d="M230.1,87.3h6.2v6.3h-6.2V87.3z M230.1,97.8h6.2v25.6h-6.2V97.8z"/>
	<path d="M241.4,87.3h6.2v36h-6.2V87.3z"/>
	<path d="M252.6,87.3h6.2v36h-6.2V87.3z"/>
	<path d="M285.2,119.1c0,2.6,0.6,3.8,1,4.3h-6.5c-0.4-0.6-0.6-1.7-0.6-2.3c-2.4,1.9-5.2,2.9-8.3,2.9c-4.9,0-8.7-3.1-8.7-8.1
		c0-5,4-7.2,7.8-8l2.6-0.5c2.2-0.5,5.1-1,6.7-1.5v-0.8c0-2.5-2.2-3.2-4.9-3.2c-3.6,0-4.8,1.1-4.8,3.8l-6.2-0.3c0-6,5.3-8.3,10.9-8.3
		c5.5,0,11,1.1,11,8.4L285.2,119.1L285.2,119.1z M279.1,110.6c-0.8,0.4-1.8,0.7-2.9,0.9l-3.4,0.7c-2.3,0.5-4.3,1.1-4.3,3.5
		c0,1.9,1.8,3.2,4,3.2c2.9,0,6.6-1.4,6.6-4.7V110.6z"/>
	<path d="M148.3,132.1h6.8v28.6h14.6v6.3h-21.4V132.1z"/>
	<path d="M198.2,154.2c0,7.6-4.8,13.4-13.1,13.4s-13.1-5.8-13.1-13.4s4.8-13.4,13.1-13.4C193.4,140.7,198.2,146.5,198.2,154.2z
		 M178.5,154.2c0,4,2.2,7.7,6.6,7.7s6.6-3.8,6.6-7.7c0-4-2.2-7.8-6.6-7.8S178.5,150.2,178.5,154.2z"/>
	<path d="M225.4,166.4c0,7.3-5.5,9.1-13.3,9.1c-8.1,0-10.4-4.8-10.4-7.9h6.5c0.5,1.8,2.2,3.2,5.3,3.2c4,0,5.8-2,5.8-5.2v-2.7
		c-2,2.1-5.1,2.8-7.3,2.8c-6.4,0-11.1-4.8-11.1-12.4s4.8-12.4,11.1-12.4c3.7,0,5.7,1.3,7.2,3.1h0.1v-2.5h6.2L225.4,166.4
		L225.4,166.4z M213.3,146.4c-4.7,0-6,4.1-6.1,6.8c0,2.7,1.4,6.8,6.1,6.8c4.7,0,6-4.1,6.1-6.8C219.4,150.5,218,146.4,213.3,146.4z"
		/>
	<path d="M230.1,130.9h6.2v6.3h-6.2V130.9z M230.1,141.4h6.2V167h-6.2V141.4z"/>
	<path d="M258.4,150.5c-0.8-2.5-3-4.1-5.4-4.1c-4.4,0-6.6,3.8-6.6,7.8s2,7.7,6.3,7.7c3.7,0,5.3-2.6,6.2-5l5.3,2.8
		c-1.7,3.8-4.7,7.9-11.6,7.9c-7.9,0-12.6-5.8-12.6-13.4s4.8-13.4,13.1-13.4c6.2,0,9.3,3.4,10.8,7.3L258.4,150.5z"/>
</g>
</svg>
