<svg xmlns="http://www.w3.org/2000/svg" viewBox="0 0 303 306" xml:space="preserve"><path d="m48.7 231.2 5.6-15.1h4l5.6 15.1h-3.6l-1.1-3.1h-6.1l-1.1 3.1h-3.3zm7.6-12-2.1 6.2h4.3l-2.2-6.2zm12.2 13.3c0 .4.3.8.7 1.1.4.3 1 .4 1.6.4 1 0 1.6-.3 2.1-.8s.7-1.4.7-2.6v-.9h-.1c-.3.5-.7 1-1.3 1.3s-1.3.5-2.2.5c-1.3 0-2.5-.5-3.4-1.4s-1.5-2.3-1.5-4.1c0-1.8.5-3.2 1.5-4.2s2.2-1.5 3.6-1.5c.8 0 1.5.2 2 .5.6.3 1 .8 1.3 1.3h.1v-1.5h3.1v10.1c0 2-.5 3.4-1.6 4.3-1 .9-2.5 1.3-4.3 1.3-1.6 0-2.9-.3-3.8-.9s-1.5-1.5-1.5-2.8l3-.1zm.6-4.3c.4.6 1 .9 1.8.9.7 0 1.3-.3 1.8-.9.5-.6.7-1.3.7-2.2v-.3c0-.9-.3-1.7-.7-2.2-.5-.6-1-.9-1.8-.9s-1.3.3-1.8.9-.7 1.4-.7 2.4.3 1.8.7 2.3zM79.5 218v-2.9h3.4v2.9h-3.4zm.1 13.2v-10.7h3.3v10.7h-3.3zm6.2 0v-16.1H89v16.1h-3.2zm7-9.5c1.1-1 2.5-1.5 4.2-1.5 1.7 0 3 .5 4 1.4s1.5 2.3 1.5 4.1v.8h-8c.1.9.4 1.6.8 2 .4.5 1 .7 1.8.7.7 0 1.2-.1 1.5-.4s.5-.6.6-.8h3.1c-.2.9-.7 1.8-1.7 2.5-.9.7-2.2 1-3.7 1-1.8 0-3.2-.5-4.3-1.4s-1.5-2.3-1.5-4.2c.1-1.8.6-3.1 1.7-4.2zm2.6 1.3c-.4.4-.7.9-.8 1.6h4.5c-.1-.7-.3-1.3-.7-1.6s-.9-.5-1.5-.5-1.1.1-1.5.5zm9.3 8.2v-3.3h3.6v3.3h-3.6zm11.1-15.1h3.4v9c0 1.1.3 2 .8 2.6s1.4.9 2.5.9 1.9-.3 2.5-.9.8-1.5.8-2.6v-9h3.4v9c0 2.4-.6 4.1-1.9 5s-2.9 1.4-4.8 1.4c-2 0-3.6-.5-4.9-1.4s-1.9-2.6-1.9-5l.1-9zm16.4 15.1v-10.7h3.1v1.5h.1c.3-.6.8-1 1.3-1.3s1.2-.4 2-.4c1.1 0 2.1.3 2.9 1s1.3 1.8 1.3 3.5v6.5h-3.3v-6.1c0-.9-.2-1.5-.5-1.9s-.8-.5-1.4-.5c-.6 0-1.2.3-1.6.8-.4.5-.6 1.2-.6 2.1v5.7h-3.3zm15.8-3.1c0 .5.2.8.7 1 .4.2.9.3 1.4.3.7 0 1.2-.1 1.5-.3s.5-.5.5-.9-.1-.6-.4-.8c-.3-.1-.6-.3-1.1-.3l-1.9-.3c-1-.1-1.8-.4-2.5-.9s-1-1.2-1-2.2c0-1.2.5-2.1 1.4-2.7s2.1-.9 3.6-.9 2.6.3 3.5.8 1.4 1.4 1.4 2.4h-3c0-.4-.2-.8-.6-.9-.4-.2-.8-.3-1.3-.3s-1 .1-1.3.3-.5.4-.5.8.1.5.3.7.6.3 1.3.4l1.9.3c.9.1 1.7.4 2.4.9s1.1 1.2 1.1 2.2c0 1.3-.5 2.2-1.5 2.8s-2.3.9-3.8.9-2.7-.3-3.7-.8-1.5-1.4-1.5-2.5h3.1zm10.2-5.3h-2v-2.4h2v-3.3h3.3v3.3h2.6v2.4h-2.6v4.2c0 .6.1 1 .3 1.2s.6.4 1.2.4h1.1v2.6h-1.8c-1.6 0-2.6-.3-3.2-.9-.6-.6-.9-1.6-.9-3.1v-4.4zm9-1.1c1.1-1 2.5-1.5 4.2-1.5 1.8 0 3.2.5 4.3 1.5 1.1 1 1.6 2.4 1.6 4.2 0 1.8-.6 3.2-1.7 4.1-1.1 1-2.5 1.5-4.2 1.5-1.8 0-3.2-.5-4.3-1.5s-1.6-2.4-1.6-4.2c0-1.7.6-3.1 1.7-4.1zm2.4 6.5c.5.6 1.1.9 1.8.9s1.4-.3 1.8-.9.7-1.4.7-2.4-.2-1.8-.7-2.4c-.5-.6-1.1-.9-1.8-.9s-1.4.3-1.8.9-.7 1.4-.7 2.4.2 1.8.7 2.4zm13.2 7.8h-3.3v-15.6h3.1v1.5h.1c.3-.5.7-1 1.3-1.3.6-.3 1.3-.5 2.2-.5 1.3 0 2.5.5 3.4 1.4s1.5 2.3 1.5 4.1-.5 3.2-1.5 4.2-2.2 1.5-3.6 1.5c-.8 0-1.5-.2-2-.5s-1-.7-1.3-1.3h-.1c.1.7.1 1.4.1 2.1v1.6l.1 2.8zm4.3-12.6c-.4-.6-1-.9-1.8-.9s-1.4.3-1.8.9c-.5.6-.7 1.3-.7 2.2v.1c0 1 .2 1.8.7 2.3s1.1.9 1.8.9 1.3-.3 1.8-.9c.4-.6.7-1.4.7-2.4s-.3-1.6-.7-2.2zm9.5 12.6h-3.3v-15.6h3.1v1.5h.1c.3-.5.7-1 1.3-1.3.6-.3 1.3-.5 2.2-.5 1.3 0 2.5.5 3.4 1.4s1.5 2.3 1.5 4.1-.5 3.2-1.5 4.2-2.2 1.5-3.6 1.5c-.8 0-1.5-.2-2-.5s-1-.7-1.3-1.3h-.1c.1.7.1 1.4.1 2.1v1.6l.1 2.8zm4.3-12.6c-.4-.6-1-.9-1.8-.9s-1.4.3-1.8.9c-.5.6-.7 1.3-.7 2.2v.1c0 1 .2 1.8.7 2.3s1.1.9 1.8.9 1.3-.3 1.8-.9c.4-.6.7-1.4.7-2.4s-.2-1.6-.7-2.2zm6.6 2.8c.6-.5 1.5-.9 2.8-1.1l2-.3c.5-.1.9-.2 1.1-.3.2-.1.3-.3.3-.6 0-.5-.1-.8-.4-1.1s-.7-.4-1.3-.4c-.6 0-1 .1-1.4.4-.3.3-.5.7-.5 1.2H207c.1-1.3.6-2.2 1.6-2.9 1-.6 2.1-.9 3.4-.9 1.7 0 2.9.3 3.8 1s1.3 1.6 1.3 2.9v7.1H214v-1.3h-.1c-.3.5-.8.9-1.4 1.2-.6.3-1.3.4-2.1.4-1.2 0-2.1-.3-2.8-.9s-.9-1.3-.9-2.2c-.1-.9.2-1.6.8-2.2zm6.2-.1c-.1.1-.2.3-.4.3s-.4.1-.6.2l-1.5.2c-.5.1-.9.2-1.1.4-.2.2-.3.5-.3.8 0 .4.1.7.4.9.3.2.6.3 1.1.3.6 0 1.1-.2 1.6-.5.5-.4.8-1 .8-1.8v-.8zm6.1 5.1v-16.1h3.3v4.9c0 .7 0 1.4-.1 2.1h.1c.3-.5.7-1 1.3-1.3.6-.3 1.3-.5 2.2-.5 1.3 0 2.5.5 3.4 1.4s1.5 2.3 1.5 4.1-.5 3.2-1.5 4.2-2.2 1.5-3.6 1.5c-.8 0-1.5-.2-2-.5s-1-.7-1.3-1.3h-.1v1.5h-3.2zm3.2-5.4c0 1 .2 1.8.7 2.3s1.1.9 1.8.9 1.3-.3 1.8-.9c.4-.6.7-1.4.7-2.4s-.2-1.7-.7-2.3-1-.9-1.8-.9-1.4.3-1.8.9c-.5.6-.7 1.3-.7 2.2v.2zm10.6 5.4v-16.1h3.3v16.1h-3.3zm7-9.5c1.1-1 2.5-1.5 4.2-1.5 1.7 0 3 .5 4 1.4s1.5 2.3 1.5 4.1v.8h-8c.1.9.4 1.6.8 2 .4.5 1 .7 1.8.7.7 0 1.2-.1 1.5-.4s.5-.6.6-.8h3.1c-.2.9-.7 1.8-1.7 2.5-.9.7-2.2 1-3.7 1-1.8 0-3.2-.5-4.3-1.4s-1.5-2.3-1.5-4.2c.1-1.8.6-3.1 1.7-4.2zm2.6 1.3c-.4.4-.7.9-.8 1.6h4.5c-.1-.7-.3-1.3-.7-1.6s-.9-.5-1.5-.5c-.5-.1-1.1.1-1.5.5zm9.3 8.2v-3.3h3.6v3.3h-3.6zM99.7 159.5H45.5V93.8h80.6v6.3H51.8v53.2h41.6v-13.9h-26v-6.3h32.3z"/><path d="M126.3 185.8H19.8V67.9h106.3v6.3h-100v105.3H120v-66.3H67.4v-6.3h58.9z"/><path d="M113.1 172.9H32.4V80.7h93.7V87H38.7v79.6h68.1v-40.1H67.4v-6.3h45.7zM173 99.6c-.8-2.9-3-6.9-9-6.9-7.2 0-10.2 6.4-10.2 12.7 0 6.3 3 12.7 10.2 12.7 4.8 0 9.2-3.4 9.2-8.3h-8.9v-6h15.1v19.7h-5.9v-3.1c-2.4 2.7-6.3 4-9.5 4-11.5 0-17.3-8.8-17.3-18.9s6.5-18.9 17.3-18.9c7.3 0 12.6 3.7 15.3 10.6l-6.3 2.4zm35.8 11c0 7.6-4.8 13.4-13.1 13.4s-13.1-5.8-13.1-13.4 4.8-13.4 13.1-13.4 13.1 5.7 13.1 13.4zm-19.7 0c0 4 2.2 7.7 6.6 7.7s6.6-3.8 6.6-7.7c0-4-2.2-7.7-6.6-7.7s-6.6 3.7-6.6 7.7zm23.2-12.8h6.2v3.5h.1c1.5-2.9 4.3-4.2 7.9-4.2v6.3c-4.2 0-8 2-8 7.5v12.4h-6.2V97.8zm17.8-10.5h6.2v6.3h-6.2v-6.3zm0 10.5h6.2v25.6h-6.2V97.8zm11.3-10.5h6.2v36h-6.2v-36zm11.2 0h6.2v36h-6.2v-36zm32.6 31.8c0 2.6.6 3.8 1 4.3h-6.5c-.4-.6-.6-1.7-.6-2.3-2.4 1.9-5.2 2.9-8.3 2.9-4.9 0-8.7-3.1-8.7-8.1s4-7.2 7.8-8l2.6-.5c2.2-.5 5.1-1 6.7-1.5v-.8c0-2.5-2.2-3.2-4.9-3.2-3.6 0-4.8 1.1-4.8 3.8l-6.2-.3c0-6 5.3-8.3 10.9-8.3 5.5 0 11 1.1 11 8.4v13.6zm-6.1-8.5c-.8.4-1.8.7-2.9.9l-3.4.7c-2.3.5-4.3 1.1-4.3 3.5 0 1.9 1.8 3.2 4 3.2 2.9 0 6.6-1.4 6.6-4.7v-3.6zm-130.8 21.5h6.8v28.6h14.6v6.3h-21.4v-34.9zm49.9 22.1c0 7.6-4.8 13.4-13.1 13.4s-13.1-5.8-13.1-13.4 4.8-13.4 13.1-13.4c8.3-.1 13.1 5.7 13.1 13.4zm-19.7 0c0 4 2.2 7.7 6.6 7.7s6.6-3.8 6.6-7.7c0-4-2.2-7.8-6.6-7.8s-6.6 3.8-6.6 7.8zm46.9 12.2c0 7.3-5.5 9.1-13.3 9.1-8.1 0-10.4-4.8-10.4-7.9h6.5c.5 1.8 2.2 3.2 5.3 3.2 4 0 5.8-2 5.8-5.2v-2.7c-2 2.1-5.1 2.8-7.3 2.8-6.4 0-11.1-4.8-11.1-12.4s4.8-12.4 11.1-12.4c3.7 0 5.7 1.3 7.2 3.1h.1v-2.5h6.2l-.1 24.9zm-12.1-20c-4.7 0-6 4.1-6.1 6.8 0 2.7 1.4 6.8 6.1 6.8 4.7 0 6-4.1 6.1-6.8 0-2.7-1.4-6.8-6.1-6.8zm16.8-15.5h6.2v6.3h-6.2v-6.3zm0 10.5h6.2V167h-6.2v-25.6zm28.3 9.1c-.8-2.5-3-4.1-5.4-4.1-4.4 0-6.6 3.8-6.6 7.8s2 7.7 6.3 7.7c3.7 0 5.3-2.6 6.2-5l5.3 2.8c-1.7 3.8-4.7 7.9-11.6 7.9-7.9 0-12.6-5.8-12.6-13.4s4.8-13.4 13.1-13.4c6.2 0 9.3 3.4 10.8 7.3l-5.5 2.4z"/></svg>