<svg xmlns="http://www.w3.org/2000/svg" xmlns:xlink="http://www.w3.org/1999/xlink" id="Capa_1" x="0" y="0" enable-background="new 0 0 858.1 439.1" version="1.1" viewBox="0 0 858.1 439.1" xml:space="preserve"><style type="text/css">.st0{fill:#04b0e6}</style><g><polygon points="167.2 164.5 119.5 164.5 119.5 186.4 136.8 186.4 136.8 252.2 124.5 252.2 124.5 274.3 179.5 274.3 179.5 252.2 167.2 252.2" class="st0"/><polygon points="228.6 109.7 180.9 109.7 180.9 131.8 198.2 131.8 198.2 252.2 185.8 252.2 185.8 274.3 240.9 274.3 240.9 252.2 228.6 252.2" class="st0"/><path d="M300.6,158.3c-37.1,0-59.6,28-59.6,60.5c0,38.6,23.4,58.1,59.6,58.1c36.2,0,59.6-24.3,59.6-58.1 C360.2,179.3,338.7,158.3,300.6,158.3z M300.6,252.2c-18.7,0-26.7-12.4-26.7-32.7c0-20.6,8-36.4,26.7-36.4 c18.7,0,26.7,12.1,26.7,36.4C327.2,239.8,319.2,252.2,300.6,252.2z" class="st0"/><path d="M524.5,186.4v-5v-4v-5.1v-6.3v-1.6h-77.3l0,0c0,0,0,0,0,0h0c-1.5,0-2.9-0.3-4.2-0.8 c-6.7-3.2-14.6-5.1-23.5-5.5c-1.3-0.1-2.7-0.1-4.2-0.1c0,0,0,0,0,0l0,0c0,0,0,0,0,0c-31,0-51,16.7-51,42.9 c0,16.5,6.9,30.6,28.4,37.5v0.4c-11.1,2-21.9,7.6-21.9,18.9c0,10.4,5.6,14.7,15.4,16.9v0.4c-20.2,4.8-24.9,15.8-24.9,25.6 c0,13.9,11.3,30.4,57.3,30.4c46.6,0,59.9-26,59.9-42.5c0-19.5-10.8-27.8-30.4-29.9l-37.5-4.1c-5.6-0.7-8-2.2-8-6.1 c0-3.5,3.7-6.1,7.4-6.1h10.8c25.2,0,47.7-12.4,47.7-39c0-6.8-1.9-12.6-4.2-16.9h29.9v65.7h-12.4v22.1h55.1v-22.1h-12.3V186.4z M434.8,284.3c10.2,1.1,15,2.2,15,9.1c0,10.4-15.8,15.6-29.3,15.6c-18.4,0-30.6-4.3-30.6-15c0-6.5,6.9-11.3,12.6-13.2L434.8,284.3z M417,220.3c-15.2,0-24.1-7.4-24.1-19.3c0-15,11.9-20.8,25.2-20.8c13.7,0,24.3,7.8,24.3,19.7C442.4,209.9,435.9,220.3,417,220.3z" class="st0"/><path d="M536,217.7c0,32.7,20.4,59.2,59,59.2c15.2,0,25.4-2.1,36.4-6.2v-25c-8.9,4.1-18.9,6.5-29.1,6.5 c-26,0-36-18.4-36-37.7c0-15.6,8.5-34,28.6-34c3.7,0,6.3,0.4,10.4,1.3v15.7h26v-32.8c-9.7-3.3-18.7-6.3-35.8-6.3 C559.4,158.3,536,181,536,217.7z" class="st0"/><path d="M738.5,252.2v-50.3c0-33-19.3-43.6-49.7-43.6c-0.2,0-0.5,0-0.7,0c-16.9,0.1-35.2,3.1-44.7,6.3v32.3l0,0v0.5 h26.1v-13.8c5.2-1.9,14.5-3.3,18.9-3.3c14.3,0,21.5,4.6,21.5,21.7v5.4c-22.1,0-37.5,1.1-49,5.2c-11.9,4.3-22.8,15-22.8,31.2 c0,17.8,12.4,33,38,33c16.5,0,26.5-6,33.8-18.7v16.1h2.2h26.5h12.4v-22.1H738.5z M685.2,254.8c-11.9,0-16.7-6.9-16.7-13.7 c0-9.8,7.8-15,32.5-15h8.5C709.5,246.9,697.3,254.8,685.2,254.8z" class="st0"/><rect width="55.7" height="21.9" x="272.7" y="109.8" class="st0"/><ellipse cx="146.7" cy="120.7" class="st0" rx="20.4" ry="18.9"/><ellipse cx="504.2" cy="120.7" class="st0" rx="20.4" ry="18.9"/></g></svg>