<svg xmlns="http://www.w3.org/2000/svg" fill="none" viewBox="0 0 144 46"><path fill="#0D3451" fill-rule="evenodd" d="M136.969 27.64h.007l-.003-.023-.004.023zM9.61 11.251H0v5.66h2.704v16.841h6.883v-5.66h.023v-16.84zM21.516.854h-9.61V6.87h2.704v26.883h6.906V.854zm14.915 27.352c-3.213 0-5.383-2.318-5.383-5.797 0-3.436 2.17-5.755 5.383-5.755 3.214 0 5.384 2.319 5.384 5.755 0 3.479-2.17 5.797-5.384 5.797zm0-18.095c-7.47 0-12.478 4.928-12.478 12.298 0 7.413 5.008 12.34 12.478 12.34S48.91 29.821 48.91 22.41c0-7.37-5.008-12.298-12.478-12.298zM6.169 6.836c1.9 0 3.442-1.53 3.442-3.418C9.611 1.53 8.07 0 6.169 0 4.268 0 2.727 1.53 2.727 3.418c0 1.888 1.54 3.418 3.442 3.418zm79.171.142c1.902 0 3.443-1.53 3.443-3.417 0-1.888-1.541-3.418-3.442-3.418-1.902 0-3.443 1.53-3.443 3.418 0 1.887 1.541 3.417 3.443 3.417zM45.18.854 35.545.9 31.41 6.836l9.692-.125L45.178.854zm18.624 27.848c-3.209 0-5.375-2.326-5.375-5.815 0-3.447 2.166-5.773 5.375-5.773 3.208 0 5.375 2.326 5.375 5.773 0 3.489-2.167 5.815-5.375 5.815zm12.493-17.39h-5.442l.033 1.951c-1.75-1.93-4.493-2.724-7.126-2.724-7.459 0-12.459 4.943-12.459 12.336v.025c0 7.434 5 12.376 12.46 12.376 1.864 0 3.555-.237 5.072-1.068-.115 1.614-.638 2.932-1.57 3.957-1.064 1.167-2.706 1.751-4.925 1.751-1.295 0-2.613-.238-3.954-.714a11.14 11.14 0 0 1-3.676-2.19l-3.792 5.393c1.572 1.167 3.43 2.058 5.573 2.673 2.142.615 4.23.922 6.265.922 2.035 0 3.891-.27 5.572-.807 1.68-.537 3.105-1.352 4.277-2.442 1.171-1.091 2.08-2.466 2.729-4.126.501-1.286.806-2.75.92-4.387h.05V17.279l-.007-5.967zm39.647 14.198h-6.988c-.753 1.953-2.552 3.242-4.937 3.242-3.222 0-5.398-2.328-5.398-5.82 0-.097.003-.193.006-.288a9.224 9.224 0 0 1-.006-.29c0-3.49 2.176-5.818 5.398-5.818 2.385 0 4.184 1.288 4.937 3.242h7.365a13.074 13.074 0 0 0-.377-1.61c-.867-2.863-2.674-5.124-5.177-6.541-1.888-1.069-4.171-1.658-6.748-1.658-7.49 0-12.511 4.946-12.511 12.427 0 .084.004.165.006.248-.002.082-.006.164-.006.247 0 7.482 5.02 12.428 12.511 12.428 2.577 0 4.86-.59 6.748-1.659 2.503-1.417 4.31-3.678 5.177-6.54.157-.518.283-1.055.377-1.61h-.377z" clip-rule="evenodd"/><path fill="#0D3451" fill-rule="evenodd" d="M131.406 29.186c-3.216 0-5.389-2.31-5.396-5.777.004-3.428 2.178-5.74 5.396-5.74.107 0 .212.003.316.008 3.044.146 5.076 2.418 5.08 5.732-.006 3.467-2.179 5.777-5.396 5.777zm11.955-17.019h-4.802v1.655c-1.757-1.923-4.51-2.714-7.153-2.714-7.488 0-12.508 4.923-12.508 12.286v.025c0 7.404 5.02 12.327 12.508 12.327h.001c2.764 0 5.148-.511 7.152-2.689v1.655h5.439V12.167h-.637zm-54.581-.916-9.753.033v6.085h2.835l-.03 16.383h6.926v-5.66h.022v-16.84z" clip-rule="evenodd"/></svg>