<svg xmlns="http://www.w3.org/2000/svg" id="Layer_1" x="0" y="0" version="1.1" viewBox="0 0 1440 1024" xml:space="preserve"><style>.st0{fill:#ff004c}.st1{opacity:.3}</style><switch><g><path d="M384.5 409V297c0-2.7-2.2-4.9-4.9-4.9h-46.3c-2.3 0-4.3 1.6-4.8 3.9l-23.9 120.7c-.9 4.7 1.2 9.5 5.3 12s6.3 7.3 5.3 12l-5.2 25.8c-.2 1-1.6 1-1.8 0l-6-28c-.7-3.7-3.2-6.8-6.7-8.3L288 427c-3.5-1.5-6-4.6-6.7-8.3l-24-122.7c-.5-2.3-2.4-3.9-4.8-3.9h-45.3c-2.7 0-4.9 2.2-4.9 4.9v129.6c0 4.3 2.4 8.3 6.3 10.2l3.6 1.8c3.9 1.9 6.3 5.9 6.3 10.2v43c0 4.3-2.4 8.3-6.3 10.2l-3.6 1.8c-3.9 1.9-6.3 5.9-6.3 10.2v92.7c0 2.7 2.2 4.9 4.9 4.9h27.2c2.7 0 4.9-2.2 4.9-4.9v-91.1c0-4.3 2.4-8.3 6.3-10.2l3.6-1.8c3.9-1.9 6.3-5.9 6.3-10.2v-46.9c0-4.3-2.4-8.3-6.3-10.2l-3.6-1.8c-3.9-1.9-6.3-5.9-6.3-10.2l-1.8-60.3s-.1-.9.9-1.1c1.1-.2 1.3 1 1.3 1l7.9 56.9c.6 3.8 3.1 7 6.7 8.6l6.9 3c3.5 1.5 6 4.8 6.7 8.6l12.2 52.8c.8 4.7-1.4 9.4-5.5 11.7l-.5.3c-4.1 2.4-6.3 7.1-5.5 11.7l14.9 90c.4 2.3 2.4 4.1 4.8 4.1h9.3c2.4 0 4.4-1.7 4.8-4.1l14.8-89.6c.6-3.8 3.1-7 6.7-8.6l6.9-3c3.5-1.6 6-4.8 6.7-8.6l13-59.3c.8-4.7-1.4-9.3-5.5-11.7l-.6-.3c-4.1-2.4-6.3-7-5.5-11.7l7.4-50.9s.2-1 1.2-.9 1 1.1 1 1.1l-1.9 47.6c0 4.3 2.4 8.3 6.3 10.2l3.6 1.8c3.9 1.9 6.3 5.9 6.3 10.2V498c0 4.3-2.4 8.3-6.3 10.2l-3.6 1.8c-3.9 1.9-6.3 5.9-6.3 10.2v86.6c0 2.7 2.2 4.9 4.9 4.9h28.3c2.7 0 4.9-2.2 4.9-4.9v-85c0-4.3 2.4-8.3 6.3-10.2l3.6-1.8c3.9-1.9 6.3-5.9 6.3-10.2v-68.2c0-4.3-2.4-8.3-6.3-10.2l-3.6-1.8c-4.1-2.1-6.5-6.1-6.5-10.4zm506.7-54c-.8-21.4-3.3-29.4-10.4-40.8-11.3-16.9-33-27.4-56.6-27.4s-45.4 10.5-56.7 27.5c-7.6 12.3-10 20.6-10.5 46.3-.1 3.4-.1 14.6-.1 21.9 0 4 2.6 7.6 6.4 8.9l11.5 3.8c3.8 1.3 6.4 4.9 6.4 8.9v113.3c0 4-2.6 7.6-6.4 8.9l-11.4 3.8c-3.9 1.3-6.5 5-6.4 9.1.5 28.2 2.7 36.7 10.6 49.6 11.1 17.2 32.8 27.9 56.6 27.9 23.8 0 45.5-10.7 56.6-28 7.5-12.1 9.9-20 10.5-44.1.1-3.9 2.7-7.4 6.4-8.7l11.7-3.9c5.1-1.8 6.3-4.4 6.4-8.9V395.7c0-4-2.6-7.6-6.4-8.9l-11.5-3.8c-3.8-1.3-6.4-4.8-6.4-8.8-.1-6.3-.2-15.1-.3-19.2zM871 398.5v122.8c0 4-2.6 7.6-6.4 8.9l-11.5 3.8c-3.8 1.3-6.4 4.8-6.4 8.8 0 3.2-.1 6.6-.1 7.5-1.2 17.1-8.2 24.8-22.3 24.8-13.8 0-20.7-7-22.2-23-.1-1.3-.2-6.5-.3-11 0-4.1 2.5-7.7 6.4-9l11.4-3.8c3.8-1.3 6.4-4.9 6.4-8.9v-118c0-4-2.6-7.6-6.4-8.9l-11.5-3.8c-3.8-1.3-6.4-4.9-6.4-8.9V359c0-21 6.9-30.4 22.5-30.4 15.8 0 22.5 9.1 22.5 30.4v18c0 4 2.6 7.6 6.4 8.9l11.5 3.8c3.8 1.2 6.4 4.8 6.4 8.8zM724.5 292.1h-35.1c-2.7 0-4.9 2.2-4.9 4.9v91.7c0 3.8 2.3 7.3 5.9 8.7l8.5 3.4c3.6 1.4 5.9 4.9 5.9 8.7v75.2c0 1.2-1.7-3.3-2.1-4.4l-28-70.5c-.9-2.9-3.1-5.2-6-6.1l-14.8-4.9c-2.9-.9-5.1-3.2-6-6.1l-30.4-97.2c-.6-2-2.5-3.4-4.6-3.4h-30.1c-2.7 0-4.9 2.2-4.9 4.9v98.5c0 3.8 2.3 7.3 5.9 8.7l8.5 3.4c3.6 1.4 5.9 4.9 5.9 8.7v93.4c0 3.8-2.3 7.3-5.9 8.7l-8.5 3.4c-3.6 1.4-5.9 4.9-5.9 8.7v76.2c0 2.7 2.2 4.9 4.9 4.9h35.1c2.7 0 4.9-2.2 4.9-4.9v-74.3c0-3.8 2.3-7.3 5.9-8.7l8.5-3.4c3.6-1.4 5.9-4.9 5.9-8.7v-65.2c0-1.2 1.7-1.5 2.1-.3l26.6 65.6c1.4 4.4-.6 9.1-4.7 11.2l-2.2 1.1c-4.1 2.1-6.1 6.8-4.7 11.2l23 73.1c.6 2 2.5 3.4 4.6 3.4h36.9c2.7 0 4.9-2.2 4.9-4.9V537c0-3.8 2.3-7.3 5.9-8.7l8.5-3.4c3.6-1.4 5.9-4.9 5.9-8.7V406.7c0-3.8-2.3-7.3-5.9-8.7l-8.5-3.4c-3.6-1.4-5.9-4.9-5.9-8.7V297c-.2-2.7-2.4-4.9-5.1-4.9zm-178 86.8c0-40.7-1.5-49.8-10.7-64.6-11.3-16.9-33-27.4-56.6-27.4s-45.4 10.5-56.7 27.5c-9.2 14.8-10.7 23.9-10.7 64.6v28c0 3.8 2.3 7.3 5.9 8.7l8.5 3.4c3.6 1.4 5.9 4.9 5.9 8.7v74.4c0 3.8-2.3 7.3-5.9 8.7l-8.5 3.4c-3.6 1.4-5.9 4.9-5.9 8.7 0 6.2.1 15.3.1 18.5.5 26.6 2.8 35 10.6 47.5 11.1 17.2 32.8 27.9 56.6 27.9 23.8 0 45.5-10.7 56.6-28 7.7-12.4 10-20.4 10.6-46.2.1-3.1.1-9.3.1-14.1 0-3.8 2.3-7.2 5.9-8.6l8.5-3.4c3.6-1.4 5.9-4.9 5.9-8.7v-88.6c0-3.8-2.3-7.3-5.9-8.7l-8.5-3.4c-3.6-1.4-5.9-4.9-5.9-8.7v-19.6zM521.9 422v83.9c0 3.8-2.3 7.3-5.9 8.7l-8.5 3.4c-3.6 1.4-5.9 4.9-5.9 8.7v18.1c0 21-6.9 30.4-22.5 30.4-15.8 0-22.5-9.1-22.5-30.4v-20c0-3.8 2.3-7.3 5.9-8.7l8.5-3.4c3.6-1.4 5.9-4.9 5.9-8.7v-79.1c0-3.8-2.3-7.3-5.9-8.7l-8.5-3.4c-3.6-1.4-5.9-4.9-5.9-8.7V359c0-21 6.9-30.4 22.5-30.4 15.8 0 22.5 9.1 22.5 30.4v42.2c0 3.8 2.3 7.3 5.9 8.7l8.5 3.4c3.6 1.4 5.9 4.8 5.9 8.7zm539.6 106.2-37.9-65.8 28.7-74.8c1.7-4.7-.6-9.9-5.1-11.8l-3.4-1.4c-4.6-1.9-6.9-7.1-5.1-11.8l23.2-63.8c1.2-3.2-1.2-6.5-4.6-6.5h-34.8c-2 0-3.9 1.3-4.6 3.2l-25.5 70.1c-1.7 4.7.6 9.9 5.1 11.8l3.4 1.4c4.6 1.9 6.9 7.1 5.1 11.8L994.1 426c-.4 1.1-2.1.8-2.1-.4V390c0-4-2.6-7.6-6.4-8.9l-11.5-3.8c-3.8-1.3-6.4-4.9-6.4-8.9V297c0-2.7-2.2-4.9-4.9-4.9h-35.1c-2.7 0-4.9 2.2-4.9 4.9v74.2c0 4 2.6 7.6 6.4 8.9l11.5 3.8c3.8 1.3 6.4 4.9 6.4 8.9v132.3c0 4-2.6 7.6-6.4 8.9l-11.5 3.8c-3.8 1.3-6.4 4.9-6.4 8.9v59.9c0 2.7 2.2 4.9 4.9 4.9h35.1c2.7 0 4.9-2.2 4.9-4.9v-58.1c0-4 2.6-7.6 6.4-8.9l11.5-3.8c3.8-1.3 6.4-4.9 6.4-8.9v-28.1c0-1.1 1.5-1.5 2-.5l13.4 27.5c2.5 4.7.6 10.6-4.3 12.9-4.8 2.3-6.8 8.1-4.3 12.9l30.3 57.3c.8 1.6 2.5 2.6 4.3 2.6h41.7c3.7 0 6-3.9 4.3-7.1l-26.7-50.5c-2.5-4.7-.6-10.6 4.3-12.9 5.1-2.2 7-8.1 4.5-12.8z" class="st0"/><path d="M1210.2 350.5V297c0-2.7-2.2-4.9-4.9-4.9h-35.1c-2.7 0-4.9 2.2-4.9 4.9v56.3c0 4.2 2.8 7.9 6.8 9l14.8 4.2c4 1.1 6.8 4.8 6.8 9v160.9c0 4.2-2.8 7.9-6.8 9l-16 4.5c-3.4 1-5.9 3.8-6.6 7.3-2.4 12.4-9.2 17.8-21.5 17.8-12.8 0-21.7-9.6-21.7-20.2 0-3.1 2-5.9 5-6.7l14.3-4.1c5.6-1.6 8.3-5.3 8.3-9.5V378.4c0-4.2-2.8-7.9-6.8-9l-14.8-4.2c-4-1.1-6.8-4.8-6.8-9V297c0-2.7-2.2-4.9-4.9-4.9h-35.1c-2.7 0-4.9 2.2-4.9 4.9v62c0 4.2 2.8 7.9 6.8 9l14.8 4.2c4 1.1 6.8 4.8 6.8 9v151.5c0 4.2-2.8 7.8-6.8 9l-14.1 4.1c-4.3 1.2-7.1 5.2-6.8 9.7 1.1 16.4 3.8 23.8 10 33.9 11.3 16.9 33 27.4 56.6 27.4s45.4-10.5 56.7-27.5c5.6-9.1 8.4-16 9.6-29.3.4-3.9 3-7.2 6.8-8.2l15.7-4.4c4-1.1 6.8-4.7 6.8-8.9V372.7c0-4.2-2.8-7.9-6.8-9l-14.8-4.2c-3.7-1.2-6.5-4.9-6.5-9zM304.4 770.8l-16-95.6h7.9l13.1 81.8 12.3-81.8h10.7l11.3 81.8 13-81.8h7.8l-15.9 95.6h-9.7L327 686.3l-12.9 84.4h-9.7zm92.3 0v-95.6H430v6.8h-24.9v36.2h17.8v6.4h-17.8V764H430v6.8h-33.3zM507.1 744v-40.6c0-19.8 8.4-29.7 25.2-29.7 2.7 0 5.1.3 7.3.9 2.2.6 4 1.4 5.5 2.4s2.8 2.3 3.9 3.9 2 3.2 2.7 4.9c.7 1.7 1.2 3.7 1.6 6 .4 2.3.7 4.5.8 6.6.1 2.1.2 4.5.2 7.1v.7h-8.4v-1.4c0-2.7 0-4.7-.1-6.1-.1-1.4-.2-3.2-.4-5.5s-.6-4-1.2-5.2c-.6-1.2-1.4-2.5-2.3-3.8-1-1.3-2.3-2.3-3.9-2.8-1.6-.6-3.6-.9-5.8-.9-3.1 0-5.8.5-8 1.6s-3.9 2.5-5.2 4.4c-1.2 1.9-2.1 3.9-2.6 6.1-.5 2.2-.8 4.6-.8 7.2v47.8c0 2.4.2 4.6.7 6.6.4 1.9 1.2 3.8 2.3 5.6 1.1 1.8 2.7 3.2 4.9 4.1 2.2 1 4.9 1.5 8.1 1.5 2.9 0 5.4-.5 7.5-1.6 2.1-1 3.6-2.5 4.7-4.3 1-1.8 1.8-3.7 2.2-5.6.4-1.9.6-4.1.6-6.4v-16.2h-11.7v-6.4H555v45.6h-3.7l-2.5-9.3c-1.3 3.3-3.5 5.9-6.7 7.9s-6.8 2.9-10.6 2.9c-2.6 0-4.9-.2-7-.7-2.1-.5-4-1.1-5.5-1.8-1.6-.7-3-1.7-4.2-2.9-1.2-1.2-2.3-2.3-3.1-3.5-.8-1.1-1.5-2.5-2.1-4-.6-1.5-1-2.9-1.3-4.1-.3-1.2-.5-2.6-.7-4.2-.2-1.6-.3-2.8-.3-3.8-.2-.6-.2-1.7-.2-3zm83.2-1v-40c0-3.4.3-6.5.8-9.3.5-2.8 1.3-5.5 2.5-8s2.7-4.6 4.5-6.3c1.8-1.7 4.1-3.1 6.9-4.1 2.8-1 6-1.5 9.7-1.5 3.6 0 6.9.5 9.7 1.5 2.8 1 5.1 2.4 6.9 4.1 1.8 1.7 3.3 3.8 4.5 6.3 1.2 2.5 2 5.2 2.5 8s.7 5.9.7 9.3v40c0 19.5-8.1 29.2-24.4 29.2-16.1.1-24.3-9.7-24.3-29.2zm40.4 1.9v-43.8c0-13.7-5.3-20.5-15.9-20.5s-15.9 6.8-15.9 20.5v43.8c0 13.7 5.3 20.6 15.9 20.6s15.9-6.9 15.9-20.6zm90.9 25.9v-95.6h20.6c3.3 0 6.2.5 8.8 1.4 2.6.9 4.6 2.2 6.2 3.7 1.6 1.5 2.9 3.4 3.9 5.5 1 2.2 1.7 4.3 2.1 6.6.4 2.2.6 4.6.6 7.2 0 4-.9 7.8-2.8 11.6-1.8 3.8-4.4 6.4-7.6 7.9 2.3.9 4.2 2.3 5.9 4.1 1.7 1.8 2.9 3.8 3.8 6 .9 2.2 1.5 4.4 1.9 6.6s.6 4.4.6 6.6c0 3.3-.2 6.3-.5 8.8s-.9 5.1-1.9 7.7c-.9 2.6-2.2 4.7-3.7 6.4-1.6 1.7-3.7 3-6.3 4.1-2.7 1-5.8 1.6-9.4 1.6h-22.2zm8.5-54.6h13.6c2.1 0 3.8-.5 5.3-1.4 1.5-.9 2.6-2.2 3.4-3.8.8-1.6 1.4-3.4 1.8-5.2.4-1.9.6-4 .6-6.2 0-12-4.6-18-13.7-18h-11v34.6zm0 48.1h15.1c1.9 0 3.6-.4 5.1-1.2 1.4-.8 2.6-1.8 3.5-3.1.9-1.3 1.6-2.9 2.1-4.9.5-2 .9-4 1.1-6 .2-2 .3-4.3.3-6.8 0-2.3-.1-4.3-.3-6.1-.2-1.8-.5-3.5-1.1-5.3-.5-1.7-1.2-3.2-2.1-4.4-.9-1.2-2-2.1-3.5-2.8-1.5-.7-3.2-1.1-5.1-1.1h-15.1v41.7zm70.5 6.5v-95.6h33.3v6.8H809v36.2h17.8v6.4H809V764h24.9v6.8h-33.3zm79.6 0v-29.7l-20.9-65.9h8.6c.7 2.7 1.8 6.4 3.2 11.3 1.4 4.9 2.9 9.8 4.3 14.8 1.5 5 2.9 9.8 4.3 14.4s2.5 8.4 3.4 11.4l1.3 4.4c2.4-8.7 5.1-18.3 8.2-28.9 3.1-10.5 5.7-19.7 7.9-27.4h8.3l-20.2 65.9v29.7h-8.4zm57.6-27.8v-40c0-3.4.3-6.5.8-9.3.5-2.8 1.3-5.5 2.5-8s2.7-4.6 4.5-6.3c1.8-1.7 4.1-3.1 6.9-4.1 2.8-1 6-1.5 9.7-1.5 3.6 0 6.9.5 9.7 1.5 2.8 1 5.1 2.4 6.9 4.1 1.8 1.7 3.3 3.8 4.5 6.3 1.2 2.5 2 5.2 2.5 8s.7 5.9.7 9.3v40c0 19.5-8.1 29.2-24.4 29.2-16.1.1-24.3-9.7-24.3-29.2zm40.4 1.9v-43.8c0-13.7-5.3-20.5-15.9-20.5s-15.9 6.8-15.9 20.5v43.8c0 13.7 5.3 20.6 15.9 20.6s15.9-6.9 15.9-20.6zm45.6 25.9v-95.6h6.5l30.3 75.7v-75.7h7.2v95.6h-6.3l-30.3-74.1v74.1h-7.4zm83 0v-95.6h21.5c3.6 0 6.9.5 9.7 1.5 2.8 1 5.1 2.3 7 4 1.8 1.7 3.3 3.8 4.5 6.2 1.2 2.4 2 5 2.5 7.8.5 2.7.7 5.8.7 9.1v38.9c0 18.8-8.1 28.2-24.4 28.2h-21.5zm8.4-6.8h13.1c10.6 0 15.9-6.5 15.9-19.6v-42.7c0-13.2-5.3-19.8-15.9-19.8h-13.1V764z" class="st0"/><g class="st1"><linearGradient id="SVGID_1_" x1="1112.908" x2="1111.574" y1="379.811" y2="358.913" gradientUnits="userSpaceOnUse"><stop offset="0" stop-color="#FFF"/><stop offset=".502" stop-color="#353B38"/><stop offset="1" stop-color="#FFF"/></linearGradient><path d="m1082.3 368 14.8 4.2c4 1.1 6.8 4.8 6.8 9v1.5l44.8-3.3v-1c0-4.2-2.8-7.9-6.8-9l-14.8-4.2c-3.6-1-6.2-4.2-6.6-7.9l-44.7 3.4c.6 3.4 3 6.3 6.5 7.3z" style="fill:url(#SVGID_1_)"/><linearGradient id="SVGID_2_" x1="1202.723" x2="1201.389" y1="374.078" y2="353.18" gradientUnits="userSpaceOnUse"><stop offset="0" stop-color="#FFF"/><stop offset=".502" stop-color="#353B38"/><stop offset="1" stop-color="#FFF"/></linearGradient><path d="m1231.8 363.7-14.8-4.2c-4-1.1-6.8-4.8-6.8-9l-44.7 3.4c.2 3.9 2.9 7.4 6.7 8.5l14.8 4.2c4 1.1 6.8 4.8 6.8 9v.5l44.8-3.3c0-4.3-2.8-8-6.8-9.1z" style="fill:url(#SVGID_2_)"/></g><g class="st1"><linearGradient id="SVGID_3_" x1="958.59" x2="956.811" y1="392.623" y2="370.835" gradientUnits="userSpaceOnUse"><stop offset="0" stop-color="#FFF"/><stop offset=".502" stop-color="#353B38"/><stop offset="1" stop-color="#FFF"/></linearGradient><path d="M992.1 391.1V390c0-4-2.6-7.6-6.4-8.9l-11.5-3.8c-3.7-1.2-6.1-4.6-6.3-8.4l-44.7 3.4c.4 3.6 2.8 6.7 6.2 7.8l11.5 3.8c3.8 1.3 6.4 4.9 6.4 8.9v1.6l44.8-3.3z" style="fill:url(#SVGID_3_)"/><linearGradient id="SVGID_4_" x1="1023.229" x2="1021.45" y1="387.346" y2="365.558" gradientUnits="userSpaceOnUse"><stop offset="0" stop-color="#FFF"/><stop offset=".502" stop-color="#353B38"/><stop offset="1" stop-color="#FFF"/></linearGradient><path d="m1047.2 375.7-3.4-1.4c-4.2-1.8-6.5-6.4-5.4-10.8L992 367c-.7 4.2 1.5 8.5 5.6 10.2l3.4 1.4c4.4 1.9 6.7 6.8 5.3 11.4l46.3-3.5c1-4.3-1.2-9-5.4-10.8z" style="fill:url(#SVGID_4_)"/></g><g class="st1"><linearGradient id="SVGID_5_" x1="792.572" x2="790.793" y1="406.25" y2="382.683" gradientUnits="userSpaceOnUse"><stop offset="0" stop-color="#FFF"/><stop offset=".502" stop-color="#353B38"/><stop offset="1" stop-color="#FFF"/></linearGradient><path d="M826 403.5v-2.1c0-4-2.6-7.6-6.4-8.9l-11.5-3.8c-3.3-1.1-5.5-3.9-6.1-7.1l-44.7 3.4c.8 3 3 5.6 6 6.6l11.5 3.8c3.8 1.3 6.4 4.9 6.4 8.9v2.6l44.8-3.4z" style="fill:url(#SVGID_5_)"/><linearGradient id="SVGID_6_" x1="882.31" x2="880.531" y1="399.477" y2="375.911" gradientUnits="userSpaceOnUse"><stop offset="0" stop-color="#FFF"/><stop offset=".502" stop-color="#353B38"/><stop offset="1" stop-color="#FFF"/></linearGradient><path d="M915.8 396.8v-1.1c0-4-2.6-7.6-6.4-8.9l-11.5-3.8c-3.6-1.2-6.1-4.5-6.3-8.3l-44.7 3.4c.5 3.5 2.8 6.6 6.2 7.7l11.5 3.8c3.8 1.3 6.4 4.9 6.4 8.9v1.6l44.8-3.3z" style="fill:url(#SVGID_6_)"/></g><g class="st1"><linearGradient id="SVGID_7_" x1="628.361" x2="626.582" y1="415.85" y2="395.396" gradientUnits="userSpaceOnUse"><stop offset="0" stop-color="#FFF"/><stop offset=".502" stop-color="#353B38"/><stop offset="1" stop-color="#FFF"/></linearGradient><path d="M674.8 409.8c-.9-2.9-3.1-5.2-6-6.1l-14.8-4.9c-2.7-.9-4.8-3-5.8-5.6l-69.7 5.3c.9 2.6 2.8 4.7 5.4 5.7l8.5 3.4c3.6 1.4 5.9 4.9 5.9 8.7v4.2l78.5-5.9-2-4.8z" style="fill:url(#SVGID_7_)"/><linearGradient id="SVGID_8_" x1="718.091" x2="716.312" y1="408.047" y2="387.593" gradientUnits="userSpaceOnUse"><stop offset="0" stop-color="#FFF"/><stop offset=".502" stop-color="#353B38"/><stop offset="1" stop-color="#FFF"/></linearGradient><path d="M749.7 409.2v-2.5c0-3.8-2.3-7.3-5.9-8.7l-8.5-3.4c-3.2-1.3-5.3-4.2-5.7-7.6l-44.7 3.4c.6 3.1 2.6 5.8 5.6 7l8.5 3.4c3.6 1.4 5.9 4.9 5.9 8.7v3l44.8-3.3z" style="fill:url(#SVGID_8_)"/></g><g class="st1"><linearGradient id="SVGID_9_" x1="445.87" x2="444.121" y1="431.36" y2="408.048" gradientUnits="userSpaceOnUse"><stop offset="0" stop-color="#FFF"/><stop offset=".502" stop-color="#353B38"/><stop offset="1" stop-color="#FFF"/></linearGradient><path d="M476.8 429.5v-4.7c0-3.8-2.3-7.3-5.9-8.7l-8.5-3.4c-2.4-.9-4.1-2.8-5.1-5.1l-44.6 3.4c1 2 2.6 3.7 4.8 4.5l8.5 3.4c3.6 1.4 5.9 4.9 5.9 8.7v5.2l44.9-3.3z" style="fill:url(#SVGID_9_)"/><linearGradient id="SVGID_10_" x1="535.441" x2="533.693" y1="424.642" y2="401.337" gradientUnits="userSpaceOnUse"><stop offset="0" stop-color="#FFF"/><stop offset=".502" stop-color="#353B38"/><stop offset="1" stop-color="#FFF"/></linearGradient><path d="M566.7 422.8v-3.7c0-3.8-2.3-7.3-5.9-8.7l-8.5-3.4c-2.7-1.1-4.7-3.4-5.5-6.2l-44.6 3.4c.9 2.5 2.8 4.6 5.3 5.6l8.5 3.4c3.6 1.4 5.9 4.9 5.9 8.7v4.2l44.8-3.3z" style="fill:url(#SVGID_10_)"/></g><g class="st1"><linearGradient id="SVGID_11_" x1="230.032" x2="228.284" y1="447.588" y2="428.355" gradientUnits="userSpaceOnUse"><stop offset="0" stop-color="#FFF"/><stop offset=".502" stop-color="#353B38"/><stop offset="1" stop-color="#FFF"/></linearGradient><path d="m208.8 436.7 3.6 1.8c3.9 1.9 6.3 5.9 6.3 10.2l36.9-2.7c-.2-4.2-2.5-7.9-6.2-9.8l-3.6-1.8c-3.9-1.9-6.3-5.9-6.3-10.2l-36.9 2.3c-.1 4.4 2.3 8.3 6.2 10.2z" style="fill:url(#SVGID_11_)"/><linearGradient id="SVGID_12_" x1="328.508" x2="326.759" y1="438.636" y2="419.403" gradientUnits="userSpaceOnUse"><stop offset="0" stop-color="#FFF"/><stop offset=".502" stop-color="#353B38"/><stop offset="1" stop-color="#FFF"/></linearGradient><path d="m315.1 441.6 35.2-2.6.1-.5c.8-4.7-1.4-9.3-5.5-11.7l-.6-.3c-3.5-2-5.6-5.7-5.7-9.7l-34.2 2.6c.1 3.8 2.1 7.4 5.5 9.4 4.1 2.5 6.3 7.3 5.3 12l-.1.8z" style="fill:url(#SVGID_12_)"/><linearGradient id="SVGID_13_" x1="276.807" x2="275.059" y1="443.336" y2="424.103" gradientUnits="userSpaceOnUse"><stop offset="0" stop-color="#FFF"/><stop offset=".502" stop-color="#353B38"/><stop offset="1" stop-color="#FFF"/></linearGradient><path d="M302.3 438.5c-.7-3.7-3.2-6.8-6.7-8.3L288 427c-2.7-1.2-4.8-3.4-6-6l-33.5 2.5c1.2 2.5 3.2 4.6 5.8 5.7l6.9 3c3.5 1.5 6 4.8 6.7 8.6l1 4.2 34.2-2.6-.8-3.9z" style="fill:url(#SVGID_13_)"/><linearGradient id="SVGID_14_" x1="375.115" x2="373.367" y1="434.399" y2="415.166" gradientUnits="userSpaceOnUse"><stop offset="0" stop-color="#FFF"/><stop offset=".502" stop-color="#353B38"/><stop offset="1" stop-color="#FFF"/></linearGradient><path d="M400.7 435.2v-3.9c0-4.3-2.4-8.3-6.3-10.2l-3.6-1.8c-2.6-1.3-4.4-3.5-5.4-6.1l-37.8 2.9c1.1 2.4 2.8 4.4 5.2 5.6l3.6 1.8c3.9 1.9 6.3 5.9 6.3 10.2v4.4l38-2.9z" style="fill:url(#SVGID_14_)"/></g><g class="st1"><linearGradient id="SVGID_15_" x1="1112.07" x2="1112.877" y1="554.282" y2="534.095" gradientUnits="userSpaceOnUse"><stop offset="0" stop-color="#FFF"/><stop offset=".502" stop-color="#353B38"/><stop offset="1" stop-color="#FFF"/></linearGradient><path d="M1103.9 532.3v.5c0 4.2-2.8 7.8-6.8 9l-14.1 4.1c-3.7 1.1-6.4 4.3-6.8 8.1l45 2.1c0-.4-.1-.7-.1-1.1 0-3.1 2-5.9 5-6.7l14.3-4.1c5.6-1.6 8.3-5.3 8.3-9.5v-.3l-44.8-2.1z" style="fill:url(#SVGID_15_)"/><linearGradient id="SVGID_16_" x1="1200.961" x2="1201.768" y1="557.838" y2="537.65" gradientUnits="userSpaceOnUse"><stop offset="0" stop-color="#FFF"/><stop offset=".502" stop-color="#353B38"/><stop offset="1" stop-color="#FFF"/></linearGradient><path d="M1193.8 536.4c0 4.2-2.8 7.9-6.8 9l-16 4.5c-3.4 1-5.9 3.8-6.6 7.3 0 .2-.1.4-.2.6l45 2.1c.4-3.9 3-7.2 6.8-8.2l15.7-4.4c4-1.1 6.8-4.7 6.8-8.9l-44.7-2z" style="fill:url(#SVGID_16_)"/></g><g class="st1"><linearGradient id="SVGID_17_" x1="1029.598" x2="1030.809" y1="551.334" y2="530.339" gradientUnits="userSpaceOnUse"><stop offset="0" stop-color="#FFF"/><stop offset=".502" stop-color="#353B38"/><stop offset="1" stop-color="#FFF"/></linearGradient><path d="M1003.3 538.8c-4.4 2.1-6.4 7.1-4.8 11.6l54 2.5c-1.7-4.5.3-9.6 4.7-11.8 4.1-1.9 6.1-6.5 5.1-10.7l-54-2.5c1.2 4.3-.8 8.9-5 10.9z" style="fill:url(#SVGID_17_)"/><linearGradient id="SVGID_18_" x1="956.943" x2="958.154" y1="547.143" y2="526.148" gradientUnits="userSpaceOnUse"><stop offset="0" stop-color="#FFF"/><stop offset=".502" stop-color="#353B38"/><stop offset="1" stop-color="#FFF"/></linearGradient><path d="M967.8 548.9v-.3c0-4 2.6-7.6 6.4-8.9l11.5-3.8c3.8-1.3 6.3-4.8 6.4-8.7l-44.8-2c0 4-2.6 7.6-6.4 8.9l-11.5 3.8c-3.8 1.3-6.4 4.9-6.4 8.9v.2l44.8 1.9z" style="fill:url(#SVGID_18_)"/></g><g class="st1"><linearGradient id="SVGID_19_" x1="880.801" x2="881.609" y1="543.806" y2="522.811" gradientUnits="userSpaceOnUse"><stop offset="0" stop-color="#FFF"/><stop offset=".502" stop-color="#353B38"/><stop offset="1" stop-color="#FFF"/></linearGradient><path d="M870.9 521.6c-.1 3.9-2.6 7.4-6.4 8.6L853 534c-3.8 1.3-6.4 4.8-6.4 8.8v.5l44.6 2v-.8c.1-3.9 2.7-7.4 6.4-8.7l11.7-3.9c4.9-1.7 6.2-4.3 6.4-8.4l-44.8-1.9z" style="fill:url(#SVGID_19_)"/><linearGradient id="SVGID_20_" x1="790.994" x2="791.801" y1="540.352" y2="519.357" gradientUnits="userSpaceOnUse"><stop offset="0" stop-color="#FFF"/><stop offset=".502" stop-color="#353B38"/><stop offset="1" stop-color="#FFF"/></linearGradient><path d="M801.7 541.1c0-4.1 2.5-7.7 6.4-9l11.4-3.8c3.8-1.3 6.3-4.8 6.4-8.8l-44.8-2c0 4-2.6 7.6-6.4 8.9l-11.4 3.8c-3.9 1.3-6.5 5-6.4 9.1l44.8 2v-.2z" style="fill:url(#SVGID_20_)"/></g><g class="st1"><linearGradient id="SVGID_21_" x1="704.992" x2="704.185" y1="513.983" y2="535.786" gradientUnits="userSpaceOnUse"><stop offset="0" stop-color="#FFF"/><stop offset=".502" stop-color="#353B38"/><stop offset="1" stop-color="#FFF"/></linearGradient><path d="M671.8 512.5c.9 4.1-1.1 8.3-4.9 10.3l-2.2 1.1c-4 2-6 6.7-4.8 11l69.4 3.2v-1.2c0-3.8 2.3-7.3 5.9-8.7l8.5-3.4c3.5-1.4 5.9-4.8 5.9-8.7l-77.8-3.6z" style="fill:url(#SVGID_21_)"/><linearGradient id="SVGID_22_" x1="610.816" x2="610.008" y1="510.495" y2="532.298" gradientUnits="userSpaceOnUse"><stop offset="0" stop-color="#FFF"/><stop offset=".502" stop-color="#353B38"/><stop offset="1" stop-color="#FFF"/></linearGradient><path d="M622.7 533.2v-.9c0-3.8 2.3-7.3 5.9-8.7l8.5-3.4c3.6-1.4 5.9-4.9 5.9-8.7v-.3l-44.8-2v.5c0 3.8-2.3 7.3-5.9 8.7l-8.5 3.4c-3.6 1.4-5.9 4.9-5.9 8.7v.7l44.8 2z" style="fill:url(#SVGID_22_)"/></g><g class="st1"><linearGradient id="SVGID_23_" x1="534.948" x2="533.333" y1="506.887" y2="528.286" gradientUnits="userSpaceOnUse"><stop offset="0" stop-color="#FFF"/><stop offset=".502" stop-color="#353B38"/><stop offset="1" stop-color="#FFF"/></linearGradient><path d="M521.9 505.6v.2c0 3.8-2.3 7.3-5.9 8.7l-8.5 3.4c-3.6 1.4-5.9 4.9-5.9 8.7v1l44.8 2v-1.2c0-3.8 2.3-7.2 5.9-8.6l8.5-3.4c3.6-1.4 5.9-4.9 5.9-8.7l-44.8-2.1z" style="fill:url(#SVGID_23_)"/><linearGradient id="SVGID_24_" x1="445.31" x2="443.695" y1="500.122" y2="521.52" gradientUnits="userSpaceOnUse"><stop offset="0" stop-color="#FFF"/><stop offset=".502" stop-color="#353B38"/><stop offset="1" stop-color="#FFF"/></linearGradient><path d="M456.6 524.7c0-3.8 2.3-7.3 5.9-8.7l8.5-3.4c3.6-1.4 5.9-4.9 5.9-8.7v-.4l-44.8-2v.5c0 3.8-2.3 7.3-5.9 8.7l-8.5 3.4c-3.6 1.4-5.9 4.9-5.9 8.7v.7l44.8 2v-.8z" style="fill:url(#SVGID_24_)"/></g><g class="st1"><linearGradient id="SVGID_25_" x1="303.398" x2="302.59" y1="495.957" y2="517.356" gradientUnits="userSpaceOnUse"><stop offset="0" stop-color="#FFF"/><stop offset=".502" stop-color="#353B38"/><stop offset="1" stop-color="#FFF"/></linearGradient><path d="M317.2 517.9c.6-3.8 3.1-7 6.7-8.6l6.9-3c3.5-1.6 6-4.8 6.7-8.6l.1-.5-57.3-2.6c.4 4.4-1.8 8.6-5.6 10.8l-.5.3c-4 2.3-6.2 6.8-5.6 11.3l48.5 2.2.1-1.3z" style="fill:url(#SVGID_25_)"/><linearGradient id="SVGID_26_" x1="373.961" x2="373.153" y1="498.62" y2="520.018" gradientUnits="userSpaceOnUse"><stop offset="0" stop-color="#FFF"/><stop offset=".502" stop-color="#353B38"/><stop offset="1" stop-color="#FFF"/></linearGradient><path d="M362.6 498.4c-.2 4.1-2.5 7.8-6.2 9.7l-3.6 1.8c-3.9 1.9-6.3 5.9-6.3 10.2v.5l38 1.7v-.6c0-4.3 2.4-8.3 6.3-10.2l3.6-1.8c3.7-1.8 6-5.5 6.2-9.5l-38-1.8z" style="fill:url(#SVGID_26_)"/><linearGradient id="SVGID_27_" x1="229.434" x2="228.626" y1="493.166" y2="514.564" gradientUnits="userSpaceOnUse"><stop offset="0" stop-color="#FFF"/><stop offset=".502" stop-color="#353B38"/><stop offset="1" stop-color="#FFF"/></linearGradient><path d="M239.4 515.5c0-4.3 2.4-8.3 6.3-10.2l3.6-1.8c3.8-1.9 6.2-5.8 6.3-10.1l-36.9-1.7c0 4.3-2.4 8.3-6.3 10.2l-3.6 1.8c-3.9 1.9-6.3 5.9-6.3 10.2l36.9 1.7v-.1z" style="fill:url(#SVGID_27_)"/></g></g></switch></svg>