<?xml version="1.0" encoding="utf-8"?>
<!-- Generator: Adobe Illustrator 21.0.0, SVG Export Plug-In . SVG Version: 6.00 Build 0)  -->
<svg version="1.1" id="Capa_1" xmlns="http://www.w3.org/2000/svg" xmlns:xlink="http://www.w3.org/1999/xlink" x="0px" y="0px"
	 viewBox="0 0 858.1 439.1" enable-background="new 0 0 858.1 439.1" xml:space="preserve">
<g>
	<polygon fill="#444243" points="132.1,366.7 123.8,366.7 111,338.9 111,366.7 101.3,366.7 101.3,322.2 111.4,322.2 127.9,360.3 
		143.6,322.2 153.5,322.2 153.5,366.7 143.9,366.7 143.9,338.9 	"/>
	<polygon fill="#444243" points="227,328 205.5,328 205.5,340.1 222.6,340.1 222.6,345.8 205.5,345.8 205.5,360.9 227.9,360.9 
		227.9,366.7 195.9,366.7 195.9,322.2 227,322.2 	"/>
	<path fill="#444243" d="M282,322.2c5.1,0,9.4,0.6,12.9,1.7c3.5,1.2,6.4,2.7,8.6,4.7s3.9,4.3,4.9,6.9s1.5,5.4,1.5,8.4
		c0,2.1-0.2,4-0.6,5.9s-1.1,3.7-2,5.4c-0.9,1.7-2.1,3.2-3.6,4.6s-3.2,2.6-5.3,3.6c-2.1,1-4.5,1.8-7.3,2.4c-2.8,0.5-5.9,0.8-9.4,0.8
		h-13.4v-44.5L282,322.2L282,322.2z M277.8,327.9v33h2.9c2.8,0,5.2-0.3,7.5-1.1c2.3-0.7,4.3-1.7,6-3.1s3-3.2,3.9-5.4
		c1-2.2,1.4-4.7,1.4-7.6c0-2-0.4-4-1-5.9s-1.7-3.6-3.1-5.1s-3.3-2.6-5.6-3.5c-2.3-0.9-5.1-1.4-8.5-1.4L277.8,327.9L277.8,327.9z"/>
	<polygon fill="#444243" points="382.6,328 361.1,328 361.1,340.1 378.1,340.1 378.1,345.8 361.1,345.8 361.1,360.9 383.4,360.9 
		383.4,366.7 351.4,366.7 351.4,322.2 382.6,322.2 	"/>
	<polygon fill="#444243" points="457,366.7 423.6,366.7 423.6,322.2 433.3,322.2 433.3,360.9 457,360.9 	"/>
	<polygon fill="#444243" points="528.8,366.7 495.5,366.7 495.5,322.2 505.1,322.2 505.1,360.9 528.8,360.9 	"/>
	<path fill="#444243" d="M564.8,316.2l12-12.2l6.6,5.9l-14.8,9.3L564.8,316.2z M567.2,322.2h9.7v44.5h-9.7V322.2z"/>
	<polygon fill="#444243" points="628.3,334.8 628.3,366.7 618.7,366.7 618.7,322.2 627.8,322.2 651.1,354.1 651.1,322.2 
		660.8,322.2 660.9,366.7 651.8,366.7 	"/>
	<path fill="#444243" d="M113,403.9c-0.6,0.9-1.5,1.6-2.4,2.2c-1,0.6-2.3,0.9-3.9,0.9c-2.4,0-4.4-1-5.8-2.8
		c-1.4-1.9-2.2-4.4-2.2-7.4c0-2.8,0.7-5.2,2.1-7.2s3.4-2.9,6.2-2.9c1.1,0,2.1,0.2,2.9,0.5c0.9,0.3,1.7,0.9,2.5,1.7l-1.3,1.4
		c-0.6-0.6-1.2-1-1.9-1.4c-0.7-0.3-1.5-0.4-2.3-0.4c-1.9,0-3.3,0.8-4.3,2.4s-1.5,3.4-1.5,5.6c0,2.8,0.5,4.9,1.7,6.4s2.5,2.3,4,2.3
		c1.4,0,2.5-0.2,3.1-0.7s1.2-1,1.8-1.8L113,403.9z"/>
	<polygon fill="#444243" points="130.3,389 122,389 122,395.6 128.6,395.6 128.6,397.2 122,397.2 122,405 130.6,405 130.6,406.7 
		119.9,406.7 119.9,387.2 130.3,387.2 	"/>
	<polygon fill="#444243" points="139.8,390.7 139.8,406.7 137.8,406.7 137.8,387.2 139.8,387.2 149.5,403.3 149.5,387.2 
		151.6,387.2 151.6,406.7 149.6,406.7 	"/>
	<polygon fill="#444243" points="172.3,389 166.2,389 166.2,406.7 164.1,406.7 164.1,389 158.1,389 158.1,387.2 172.3,387.2 	"/>
	<path fill="#444243" d="M180.7,406.7h-2.1v-19.5h5.3c2.1,0,3.6,0.5,4.6,1.5c1.1,1,1.6,2.3,1.6,4.1c0,1.2-0.4,2.3-1.2,3.2
		c-0.8,1-1.7,1.6-2.8,1.9l5.4,8.8H189l-5-8.3c-0.1,0-1.2,0-3.3,0V406.7L180.7,406.7z M180.7,396.8h2.1c1.6,0,2.9-0.4,3.8-1.1
		c0.9-0.8,1.4-1.7,1.4-2.9c0-1.3-0.4-2.3-1.2-2.9c-0.7-0.6-2-0.9-3.8-0.9h-2.4L180.7,396.8L180.7,396.8z"/>
	<path fill="#444243" d="M206.1,407c-2.7,0-4.9-1-6.4-2.8c-1.5-1.9-2.2-4.5-2.2-7.6c0-2.8,0.8-5.1,2.5-7s3.8-2.8,6.2-2.8
		c2.7,0,4.8,0.9,6.3,2.8c1.4,1.9,2.2,4.4,2.2,7.4c0,2.9-0.8,5.3-2.5,7.2C210.7,406,208.6,407,206.1,407 M206.3,405.2
		c1.6,0,3-0.7,4.3-2.2s1.9-3.7,1.9-6.6c0-1.9-0.5-3.6-1.5-5.3c-1-1.7-2.6-2.5-4.6-2.5s-3.6,0.7-4.8,2.3c-1.2,1.5-1.7,3.5-1.7,5.8
		c0,2.8,0.6,4.9,1.9,6.4C202.9,404.5,204.4,405.2,206.3,405.2"/>
	<path fill="#444243" d="M235.3,387.2c3.1,0,5.4,0.9,6.9,2.5c1.5,1.7,2.3,4,2.3,6.8c0,3.3-0.8,5.8-2.4,7.5c-1.6,1.7-3.9,2.6-7,2.6
		h-4v-19.5h4.2V387.2z M233.3,388.9V405h1.6c2.3,0,4.1-0.7,5.4-2.1c1.3-1.4,2-3.6,2-6.4c0-2.4-0.6-4.3-1.9-5.7c-1.3-1.4-3.1-2-5.6-2
		L233.3,388.9L233.3,388.9z"/>
	<polygon fill="#444243" points="262.5,389 254.3,389 254.3,395.6 260.9,395.6 260.9,397.2 254.3,397.2 254.3,405 262.9,405 
		262.9,406.7 252.1,406.7 252.1,387.2 262.5,387.2 	"/>
	<rect x="278.8" y="387.2" fill="#444243" width="2.1" height="19.5"/>
	<polygon fill="#444243" points="290.9,390.7 290.9,406.7 288.8,406.7 288.8,387.2 290.9,387.2 300.5,403.3 300.5,387.2 
		302.7,387.2 302.7,406.7 300.6,406.7 	"/>
	<polygon fill="#444243" points="312.6,390.7 312.6,406.7 310.5,406.7 310.5,387.2 312.6,387.2 322.3,403.3 322.3,387.2 
		324.4,387.2 324.4,406.7 322.4,406.7 	"/>
	<path fill="#444243" d="M340.6,407c-2.7,0-4.9-1-6.4-2.8c-1.5-1.9-2.2-4.5-2.2-7.6c0-2.8,0.9-5.1,2.5-7c1.7-1.9,3.8-2.8,6.2-2.8
		c2.7,0,4.8,0.9,6.3,2.8c1.4,1.9,2.2,4.4,2.2,7.4c0,2.9-0.8,5.3-2.4,7.2C345.2,406,343.1,407,340.6,407 M340.7,405.2
		c1.6,0,3.1-0.7,4.4-2.2s1.9-3.7,1.9-6.6c0-1.9-0.5-3.6-1.5-5.3c-1-1.7-2.5-2.5-4.6-2.5c-2,0-3.7,0.7-4.8,2.3
		c-1.2,1.5-1.8,3.5-1.8,5.8c0,2.8,0.6,4.9,1.8,6.4C337.4,404.5,338.9,405.2,340.7,405.2"/>
	<polygon fill="#444243" points="367.7,387.2 369.9,387.2 363.6,406.7 361.5,406.7 355.4,387.2 357.6,387.2 362.6,403.7 	"/>
	<path fill="#444243" d="M381.5,387.2h2l6.4,19.5h-2.3l-2-6.6H379l-2.1,6.6h-2.1L381.5,387.2z M379.4,398.5h5.7l-2.8-8.9
		L379.4,398.5z"/>
	<path fill="#444243" d="M410.4,403.9c-0.7,0.9-1.5,1.6-2.4,2.2s-2.3,0.9-4,0.9c-2.4,0-4.4-1-5.8-2.8c-1.4-1.9-2.1-4.4-2.1-7.4
		c0-2.8,0.7-5.2,2.1-7.2s3.4-2.9,6.1-2.9c1.1,0,2.1,0.2,3,0.5s1.7,0.9,2.5,1.7l-1.3,1.4c-0.5-0.6-1.2-1-1.9-1.4
		c-0.7-0.3-1.5-0.4-2.3-0.4c-1.9,0-3.3,0.8-4.3,2.4s-1.6,3.4-1.6,5.6c0,2.8,0.6,4.9,1.8,6.4c1.2,1.5,2.5,2.3,3.9,2.3
		c1.5,0,2.5-0.2,3.1-0.7c0.6-0.4,1.2-1,1.8-1.8L410.4,403.9z"/>
	<rect x="417.3" y="387.2" fill="#444243" width="2.1" height="19.5"/>
	<path fill="#444243" d="M435.6,407c-2.7,0-4.8-1-6.3-2.8c-1.5-1.9-2.3-4.5-2.3-7.6c0-2.8,0.9-5.1,2.6-7s3.7-2.8,6.2-2.8
		c2.7,0,4.8,0.9,6.3,2.8s2.2,4.4,2.2,7.4c0,2.9-0.8,5.3-2.4,7.2C440.1,406,438.1,407,435.6,407 M435.7,405.2c1.6,0,3.1-0.7,4.3-2.2
		c1.3-1.5,1.9-3.7,1.9-6.6c0-1.9-0.4-3.6-1.5-5.3c-1-1.7-2.5-2.5-4.6-2.5c-2,0-3.7,0.7-4.8,2.3c-1.1,1.5-1.7,3.5-1.7,5.8
		c0,2.8,0.6,4.9,1.8,6.4C432.4,404.5,433.9,405.2,435.7,405.2 M434.1,385.2l3.8-4.3l1.4,1.6l-4.5,3.5L434.1,385.2z"/>
	<polygon fill="#444243" points="453.9,390.7 453.9,406.7 451.8,406.7 451.8,387.2 453.9,387.2 463.6,403.3 463.6,387.2 
		465.7,387.2 465.7,406.7 463.6,406.7 	"/>
	<polygon fill="#444243" points="486.8,406.7 486.8,397.8 481.1,387.2 483.4,387.2 487.9,396 492.4,387.2 494.7,387.2 488.9,397.6 
		488.9,406.7 	"/>
	<polygon fill="#444243" points="512.2,390.7 512.2,406.7 510.1,406.7 510.1,387.2 512.2,387.2 521.9,403.3 521.9,387.2 524,387.2 
		524,406.7 522,406.7 	"/>
	<polygon fill="#444243" points="542.3,389 534,389 534,395.6 540.6,395.6 540.6,397.2 534,397.2 534,405 542.6,405 542.6,406.7 
		531.8,406.7 531.8,387.2 542.3,387.2 	"/>
	<path fill="#444243" d="M563.9,405.9c-0.7,0.2-1.6,0.5-2.6,0.8c-1.1,0.3-2.4,0.4-3.8,0.4c-2.5,0-4.4-1-5.8-2.8
		c-1.4-1.9-2.1-4.4-2.1-7.4c0-2.8,0.7-5.2,2.1-7.2c1.4-1.9,3.3-2.9,5.8-2.9c1.4,0,2.5,0.2,3.3,0.5s1.6,0.9,2.5,1.8l-1.3,1.4
		c-0.6-0.6-1.3-1.1-1.9-1.4c-0.6-0.3-1.5-0.4-2.5-0.4c-1.7,0-3.1,0.8-4.1,2.4c-1.1,1.6-1.6,3.4-1.6,5.6c0,2.8,0.6,4.9,1.8,6.4
		s2.6,2.3,4.2,2.3c0.8,0,1.5-0.1,2.2-0.2s1.4-0.2,1.9-0.4v-7.3h2.1L563.9,405.9L563.9,405.9z"/>
	<path fill="#444243" d="M579,407c-2.7,0-4.8-1-6.3-2.8c-1.5-1.9-2.2-4.5-2.2-7.6c0-2.8,0.8-5.1,2.5-7s3.8-2.8,6.2-2.8
		c2.7,0,4.8,0.9,6.2,2.8s2.2,4.4,2.2,7.4c0,2.9-0.8,5.3-2.5,7.2C583.6,406,581.6,407,579,407 M579.2,405.2c1.6,0,3.1-0.7,4.3-2.2
		c1.3-1.5,1.9-3.7,1.9-6.6c0-1.9-0.5-3.6-1.5-5.3c-1-1.7-2.5-2.5-4.7-2.5c-2,0-3.6,0.7-4.8,2.3c-1.2,1.5-1.8,3.5-1.8,5.8
		c0,2.8,0.7,4.9,1.9,6.4C575.8,404.5,577.3,405.2,579.2,405.2"/>
	<path fill="#444243" d="M609.4,403.9c-0.7,0.9-1.5,1.6-2.4,2.2c-1,0.6-2.3,0.9-4,0.9c-2.4,0-4.4-1-5.8-2.8
		c-1.5-1.9-2.2-4.4-2.2-7.4c0-2.8,0.7-5.2,2.1-7.2c1.4-2,3.4-2.9,6.2-2.9c1.1,0,2.1,0.2,2.9,0.5c0.9,0.3,1.7,0.9,2.5,1.7l-1.3,1.4
		c-0.6-0.6-1.2-1-1.9-1.4c-0.7-0.3-1.5-0.4-2.3-0.4c-1.8,0-3.3,0.8-4.3,2.4s-1.5,3.4-1.5,5.6c0,2.8,0.6,4.9,1.8,6.4s2.5,2.3,4,2.3
		c1.4,0,2.5-0.2,3.2-0.7c0.6-0.4,1.2-1,1.7-1.8L609.4,403.9z"/>
	<rect x="616.3" y="387.2" fill="#444243" width="2.1" height="19.5"/>
	<path fill="#444243" d="M634.6,407c-2.8,0-4.8-1-6.4-2.8c-1.5-1.9-2.2-4.5-2.2-7.6c0-2.8,0.8-5.1,2.5-7s3.7-2.8,6.2-2.8
		c2.7,0,4.7,0.9,6.2,2.8s2.2,4.4,2.2,7.4c0,2.9-0.8,5.3-2.4,7.2C639.1,406,637.1,407,634.6,407 M634.7,405.2c1.6,0,3.1-0.7,4.3-2.2
		c1.3-1.5,1.9-3.7,1.9-6.6c0-1.9-0.5-3.6-1.5-5.3c-1-1.7-2.5-2.5-4.7-2.5c-2.1,0-3.6,0.7-4.8,2.3c-1.2,1.5-1.8,3.5-1.8,5.8
		c0,2.8,0.7,4.9,1.8,6.4C631.3,404.5,632.8,405.2,634.7,405.2"/>
	<path fill="#444243" d="M651.5,402.7c0.6,0.6,1.3,1.3,2.2,1.7c0.8,0.5,1.8,0.7,2.9,0.7c1.3,0,2.3-0.3,3-0.9
		c0.8-0.6,1.2-1.5,1.2-2.5c0-1.1-0.3-1.9-1.1-2.5c-0.7-0.5-1.7-1-3.2-1.5l-1-0.5c-1.5-0.5-2.8-1.3-3.7-2.2c-1-0.9-1.5-2.1-1.5-3.5
		c0-1.5,0.6-2.6,1.7-3.6c1.2-0.9,2.6-1.3,4.4-1.3c1.3,0,2.5,0.2,3.4,0.6s1.7,1,2.4,1.7l-1.2,1.4c-0.5-0.5-1.2-1-1.9-1.4
		s-1.6-0.6-2.6-0.6c-1.2,0-2.1,0.3-2.9,0.8c-0.8,0.5-1.1,1.2-1.1,2c0,1,0.4,1.8,1.2,2.4s1.7,1.1,2.6,1.4l1.9,0.8
		c1.9,0.7,3.2,1.5,3.8,2.3c0.7,0.8,1,1.9,1,3.2c0,1.8-0.7,3.1-1.9,4.1c-1.3,1-2.8,1.4-4.6,1.4c-0.7,0-1.4,0-2-0.1s-1.2-0.3-1.7-0.5
		s-1-0.5-1.5-0.9c-0.5-0.3-0.9-0.8-1.4-1.2L651.5,402.7z"/>
	<path fill="#444243" d="M100.7,146.7v140.4H136V146.7c0-15.8,7.4-23.2,23.2-23.2h38.4V88h-38.4C120.3,88,100.7,107.8,100.7,146.7
		 M665.2,169.7v-23c0-38.9-19.7-58.7-58.6-58.7H460.2V32.4L425,32.1V88h-65.5v141.1c0,15.3-7.4,22.4-23.2,22.4h-65.6
		c-15.8,0-23.2-7.3-23.2-23.1V88h-35.2v140.4c0,38.9,19.6,58.6,58.4,58.6h65.7c38.9,0,58.6-19.5,58.6-57.9V123.5h30v163.6h35.2
		V123.5h146.4c15.8,0,23.2,7.4,23.2,23.2v23h-88.6c-38.9,0-58.6,18.4-58.6,54.6v7.6c0,36.6,19.7,55.2,58.6,55.2h65.3
		c38.9,0,58.6-19.7,58.6-58.6v-23.3h58.1l36.2-35.5H665.2z M629.8,228.5c0,15.8-7.4,23.1-23.2,23.1h-65.3
		c-15.8,0-23.2-6.3-23.2-19.8v-7.6c0-13,7.4-19.1,23.2-19.1h88.6L629.8,228.5L629.8,228.5z"/>
	<path fill="#444243" d="M750.6,67.7l4.6,1.5c-2.8,6.9-6,12-9.8,15.2s-7.6,4.9-11.5,4.9c-3.3,0-5.8-0.9-7.6-2.7
		c-1.8-1.8-2.8-4.2-2.8-7.2c0-2.7,0.9-6.9,2.5-12.8c2.5-8.8,3.9-14.2,4.3-16.2c0.4-2,0.7-3.7,0.7-4.9c0-1.4-0.4-2.5-1-3.3
		c-0.7-0.8-1.5-1.2-2.6-1.2c-1.8,0-3.8,0.8-6,2.3c-3.5,2.5-6.8,6.3-9.9,11.3c-3.1,5.1-5.4,10.3-7,15.7l-5,17.7l-15.1,0.6l11.8-44.2
		c0.1-0.5,0.2-0.9,0.2-1.3c0-1.1-0.4-2-1.2-2.5c-0.8-0.6-2.3-0.9-4.6-0.9h-3l0.8-5.3l24.7-1.1l-4.4,18.5
		c8.4-12.8,16.6-19.1,24.7-19.1c3.6,0,6.6,1.1,8.9,3.3c2.3,2.3,3.4,5.1,3.4,8.5c0,2.7-0.5,6.1-1.6,10L739.2,74c-1,3.1-1.4,5-1.4,5.8
		c0,0.6,0.2,1,0.4,1.3c0.3,0.3,0.8,0.4,1.3,0.4c1.3,0,2.6-0.8,4.1-2.3C746,76.6,748.3,72.8,750.6,67.7"/>
</g>
</svg>
