<svg xmlns="http://www.w3.org/2000/svg" viewBox="0 0 858.1 439.1" xml:space="preserve"><path d="M132.1 366.7h-8.3L111 338.9v27.8h-9.7v-44.5h10.1l16.5 38.1 15.7-38.1h9.9v44.5h-9.6v-27.8zM227 328h-21.5v12.1h17.1v5.7h-17.1v15.1h22.4v5.8h-32v-44.5H227zm55-5.8c5.1 0 9.4.6 12.9 1.7 3.5 1.2 6.4 2.7 8.6 4.7s3.9 4.3 4.9 6.9 1.5 5.4 1.5 8.4c0 2.1-.2 4-.6 5.9s-1.1 3.7-2 5.4c-.9 1.7-2.1 3.2-3.6 4.6s-3.2 2.6-5.3 3.6c-2.1 1-4.5 1.8-7.3 2.4-2.8.5-5.9.8-9.4.8h-13.4v-44.5l13.7.1zm-4.2 5.7v33h2.9c2.8 0 5.2-.3 7.5-1.1 2.3-.7 4.3-1.7 6-3.1s3-3.2 3.9-5.4c1-2.2 1.4-4.7 1.4-7.6 0-2-.4-4-1-5.9s-1.7-3.6-3.1-5.1-3.3-2.6-5.6-3.5c-2.3-.9-5.1-1.4-8.5-1.4l-3.5.1zm104.8.1h-21.5v12.1h17v5.7h-17v15.1h22.3v5.8h-32v-44.5h31.2zm74.4 38.7h-33.4v-44.5h9.7v38.7H457zm71.8 0h-33.3v-44.5h9.6v38.7h23.7zm36-50.5 12-12.2 6.6 5.9-14.8 9.3-3.8-3zm2.4 6h9.7v44.5h-9.7v-44.5zm61.1 12.6v31.9h-9.6v-44.5h9.1l23.3 31.9v-31.9h9.7l.1 44.5h-9.1zM113 403.9c-.6.9-1.5 1.6-2.4 2.2-1 .6-2.3.9-3.9.9-2.4 0-4.4-1-5.8-2.8-1.4-1.9-2.2-4.4-2.2-7.4 0-2.8.7-5.2 2.1-7.2s3.4-2.9 6.2-2.9c1.1 0 2.1.2 2.9.5.9.3 1.7.9 2.5 1.7l-1.3 1.4c-.6-.6-1.2-1-1.9-1.4-.7-.3-1.5-.4-2.3-.4-1.9 0-3.3.8-4.3 2.4s-1.5 3.4-1.5 5.6c0 2.8.5 4.9 1.7 6.4s2.5 2.3 4 2.3c1.4 0 2.5-.2 3.1-.7s1.2-1 1.8-1.8l1.3 1.2zm17.3-14.9H122v6.6h6.6v1.6H122v7.8h8.6v1.7h-10.7v-19.5h10.4zm9.5 1.7v16h-2v-19.5h2l9.7 16.1v-16.1h2.1v19.5h-2zm32.5-1.7h-6.1v17.7h-2.1V389h-6v-1.8h14.2zm8.4 17.7h-2.1v-19.5h5.3c2.1 0 3.6.5 4.6 1.5 1.1 1 1.6 2.3 1.6 4.1 0 1.2-.4 2.3-1.2 3.2-.8 1-1.7 1.6-2.8 1.9l5.4 8.8H189l-5-8.3h-3.3v8.3zm0-9.9h2.1c1.6 0 2.9-.4 3.8-1.1.9-.8 1.4-1.7 1.4-2.9 0-1.3-.4-2.3-1.2-2.9-.7-.6-2-.9-3.8-.9h-2.4l.1 7.8zm25.4 10.2c-2.7 0-4.9-1-6.4-2.8-1.5-1.9-2.2-4.5-2.2-7.6 0-2.8.8-5.1 2.5-7s3.8-2.8 6.2-2.8c2.7 0 4.8.9 6.3 2.8 1.4 1.9 2.2 4.4 2.2 7.4 0 2.9-.8 5.3-2.5 7.2-1.5 1.8-3.6 2.8-6.1 2.8m.2-1.8c1.6 0 3-.7 4.3-2.2s1.9-3.7 1.9-6.6c0-1.9-.5-3.6-1.5-5.3-1-1.7-2.6-2.5-4.6-2.5s-3.6.7-4.8 2.3c-1.2 1.5-1.7 3.5-1.7 5.8 0 2.8.6 4.9 1.9 6.4 1.1 1.4 2.6 2.1 4.5 2.1m29-18c3.1 0 5.4.9 6.9 2.5 1.5 1.7 2.3 4 2.3 6.8 0 3.3-.8 5.8-2.4 7.5-1.6 1.7-3.9 2.6-7 2.6h-4v-19.5h4.2v.1zm-2 1.7V405h1.6c2.3 0 4.1-.7 5.4-2.1 1.3-1.4 2-3.6 2-6.4 0-2.4-.6-4.3-1.9-5.7-1.3-1.4-3.1-2-5.6-2l-1.5.1zm29.2.1h-8.2v6.6h6.6v1.6h-6.6v7.8h8.6v1.7h-10.8v-19.5h10.4zm16.3-1.8h2.1v19.5h-2.1zm12.1 3.5v16h-2.1v-19.5h2.1l9.6 16.1v-16.1h2.2v19.5h-2.1zm21.7 0v16h-2.1v-19.5h2.1l9.7 16.1v-16.1h2.1v19.5h-2zm28 16.3c-2.7 0-4.9-1-6.4-2.8-1.5-1.9-2.2-4.5-2.2-7.6 0-2.8.9-5.1 2.5-7 1.7-1.9 3.8-2.8 6.2-2.8 2.7 0 4.8.9 6.3 2.8 1.4 1.9 2.2 4.4 2.2 7.4 0 2.9-.8 5.3-2.4 7.2-1.6 1.8-3.7 2.8-6.2 2.8m.1-1.8c1.6 0 3.1-.7 4.4-2.2s1.9-3.7 1.9-6.6c0-1.9-.5-3.6-1.5-5.3-1-1.7-2.5-2.5-4.6-2.5-2 0-3.7.7-4.8 2.3-1.2 1.5-1.8 3.5-1.8 5.8 0 2.8.6 4.9 1.8 6.4 1.3 1.4 2.8 2.1 4.6 2.1m27-18h2.2l-6.3 19.5h-2.1l-6.1-19.5h2.2l5 16.5zm13.8 0h2l6.4 19.5h-2.3l-2-6.6H379l-2.1 6.6h-2.1l6.7-19.5zm-2.1 11.3h5.7l-2.8-8.9-2.9 8.9zm31 5.4c-.7.9-1.5 1.6-2.4 2.2s-2.3.9-4 .9c-2.4 0-4.4-1-5.8-2.8-1.4-1.9-2.1-4.4-2.1-7.4 0-2.8.7-5.2 2.1-7.2s3.4-2.9 6.1-2.9c1.1 0 2.1.2 3 .5s1.7.9 2.5 1.7l-1.3 1.4c-.5-.6-1.2-1-1.9-1.4-.7-.3-1.5-.4-2.3-.4-1.9 0-3.3.8-4.3 2.4s-1.6 3.4-1.6 5.6c0 2.8.6 4.9 1.8 6.4 1.2 1.5 2.5 2.3 3.9 2.3 1.5 0 2.5-.2 3.1-.7.6-.4 1.2-1 1.8-1.8l1.4 1.2zm6.9-16.7h2.1v19.5h-2.1zm18.3 19.8c-2.7 0-4.8-1-6.3-2.8-1.5-1.9-2.3-4.5-2.3-7.6 0-2.8.9-5.1 2.6-7s3.7-2.8 6.2-2.8c2.7 0 4.8.9 6.3 2.8s2.2 4.4 2.2 7.4c0 2.9-.8 5.3-2.4 7.2-1.8 1.8-3.8 2.8-6.3 2.8m.1-1.8c1.6 0 3.1-.7 4.3-2.2 1.3-1.5 1.9-3.7 1.9-6.6 0-1.9-.4-3.6-1.5-5.3-1-1.7-2.5-2.5-4.6-2.5-2 0-3.7.7-4.8 2.3-1.1 1.5-1.7 3.5-1.7 5.8 0 2.8.6 4.9 1.8 6.4 1.3 1.4 2.8 2.1 4.6 2.1m-1.6-20 3.8-4.3 1.4 1.6-4.5 3.5-.7-.8zm19.8 5.5v16h-2.1v-19.5h2.1l9.7 16.1v-16.1h2.1v19.5h-2.1zm32.9 16v-8.9l-5.7-10.6h2.3l4.5 8.8 4.5-8.8h2.3l-5.8 10.4v9.1zm25.4-16v16h-2.1v-19.5h2.1l9.7 16.1v-16.1h2.1v19.5h-2zm30.1-1.7H534v6.6h6.6v1.6H534v7.8h8.6v1.7h-10.8v-19.5h10.5zm21.6 16.9c-.7.2-1.6.5-2.6.8-1.1.3-2.4.4-3.8.4-2.5 0-4.4-1-5.8-2.8-1.4-1.9-2.1-4.4-2.1-7.4 0-2.8.7-5.2 2.1-7.2 1.4-1.9 3.3-2.9 5.8-2.9 1.4 0 2.5.2 3.3.5s1.6.9 2.5 1.8l-1.3 1.4c-.6-.6-1.3-1.1-1.9-1.4-.6-.3-1.5-.4-2.5-.4-1.7 0-3.1.8-4.1 2.4-1.1 1.6-1.6 3.4-1.6 5.6 0 2.8.6 4.9 1.8 6.4s2.6 2.3 4.2 2.3c.8 0 1.5-.1 2.2-.2s1.4-.2 1.9-.4v-7.3h2.1l-.2 8.4zM579 407c-2.7 0-4.8-1-6.3-2.8-1.5-1.9-2.2-4.5-2.2-7.6 0-2.8.8-5.1 2.5-7s3.8-2.8 6.2-2.8c2.7 0 4.8.9 6.2 2.8s2.2 4.4 2.2 7.4c0 2.9-.8 5.3-2.5 7.2-1.5 1.8-3.5 2.8-6.1 2.8m.2-1.8c1.6 0 3.1-.7 4.3-2.2 1.3-1.5 1.9-3.7 1.9-6.6 0-1.9-.5-3.6-1.5-5.3-1-1.7-2.5-2.5-4.7-2.5-2 0-3.6.7-4.8 2.3-1.2 1.5-1.8 3.5-1.8 5.8 0 2.8.7 4.9 1.9 6.4 1.3 1.4 2.8 2.1 4.7 2.1m30.2-1.3c-.7.9-1.5 1.6-2.4 2.2-1 .6-2.3.9-4 .9-2.4 0-4.4-1-5.8-2.8-1.5-1.9-2.2-4.4-2.2-7.4 0-2.8.7-5.2 2.1-7.2 1.4-2 3.4-2.9 6.2-2.9 1.1 0 2.1.2 2.9.5.9.3 1.7.9 2.5 1.7l-1.3 1.4c-.6-.6-1.2-1-1.9-1.4-.7-.3-1.5-.4-2.3-.4-1.8 0-3.3.8-4.3 2.4s-1.5 3.4-1.5 5.6c0 2.8.6 4.9 1.8 6.4s2.5 2.3 4 2.3c1.4 0 2.5-.2 3.2-.7.6-.4 1.2-1 1.7-1.8l1.3 1.2zm6.9-16.7h2.1v19.5h-2.1zm18.3 19.8c-2.8 0-4.8-1-6.4-2.8-1.5-1.9-2.2-4.5-2.2-7.6 0-2.8.8-5.1 2.5-7s3.7-2.8 6.2-2.8c2.7 0 4.7.9 6.2 2.8s2.2 4.4 2.2 7.4c0 2.9-.8 5.3-2.4 7.2-1.6 1.8-3.6 2.8-6.1 2.8m.1-1.8c1.6 0 3.1-.7 4.3-2.2 1.3-1.5 1.9-3.7 1.9-6.6 0-1.9-.5-3.6-1.5-5.3-1-1.7-2.5-2.5-4.7-2.5-2.1 0-3.6.7-4.8 2.3-1.2 1.5-1.8 3.5-1.8 5.8 0 2.8.7 4.9 1.8 6.4 1.4 1.4 2.9 2.1 4.8 2.1m16.8-2.5c.6.6 1.3 1.3 2.2 1.7.8.5 1.8.7 2.9.7 1.3 0 2.3-.3 3-.9.8-.6 1.2-1.5 1.2-2.5 0-1.1-.3-1.9-1.1-2.5-.7-.5-1.7-1-3.2-1.5l-1-.5c-1.5-.5-2.8-1.3-3.7-2.2-1-.9-1.5-2.1-1.5-3.5 0-1.5.6-2.6 1.7-3.6 1.2-.9 2.6-1.3 4.4-1.3 1.3 0 2.5.2 3.4.6s1.7 1 2.4 1.7l-1.2 1.4c-.5-.5-1.2-1-1.9-1.4s-1.6-.6-2.6-.6c-1.2 0-2.1.3-2.9.8-.8.5-1.1 1.2-1.1 2 0 1 .4 1.8 1.2 2.4s1.7 1.1 2.6 1.4l1.9.8c1.9.7 3.2 1.5 3.8 2.3.7.8 1 1.9 1 3.2 0 1.8-.7 3.1-1.9 4.1-1.3 1-2.8 1.4-4.6 1.4-.7 0-1.4 0-2-.1s-1.2-.3-1.7-.5-1-.5-1.5-.9c-.5-.3-.9-.8-1.4-1.2l1.6-1.3zm-550.8-256v140.4H136V146.7c0-15.8 7.4-23.2 23.2-23.2h38.4V88h-38.4c-38.9 0-58.5 19.8-58.5 58.7m564.5 23v-23c0-38.9-19.7-58.7-58.6-58.7H460.2V32.4l-35.2-.3V88h-65.5v141.1c0 15.3-7.4 22.4-23.2 22.4h-65.6c-15.8 0-23.2-7.3-23.2-23.1V88h-35.2v140.4c0 38.9 19.6 58.6 58.4 58.6h65.7c38.9 0 58.6-19.5 58.6-57.9V123.5h30v163.6h35.2V123.5h146.4c15.8 0 23.2 7.4 23.2 23.2v23h-88.6c-38.9 0-58.6 18.4-58.6 54.6v7.6c0 36.6 19.7 55.2 58.6 55.2h65.3c38.9 0 58.6-19.7 58.6-58.6v-23.3h58.1l36.2-35.5h-94.2zm-35.4 58.8c0 15.8-7.4 23.1-23.2 23.1h-65.3c-15.8 0-23.2-6.3-23.2-19.8v-7.6c0-13 7.4-19.1 23.2-19.1h88.6l-.1 23.4zM750.6 67.7l4.6 1.5c-2.8 6.9-6 12-9.8 15.2s-7.6 4.9-11.5 4.9c-3.3 0-5.8-.9-7.6-2.7-1.8-1.8-2.8-4.2-2.8-7.2 0-2.7.9-6.9 2.5-12.8 2.5-8.8 3.9-14.2 4.3-16.2.4-2 .7-3.7.7-4.9 0-1.4-.4-2.5-1-3.3-.7-.8-1.5-1.2-2.6-1.2-1.8 0-3.8.8-6 2.3-3.5 2.5-6.8 6.3-9.9 11.3-3.1 5.1-5.4 10.3-7 15.7l-5 17.7-15.1.6 11.8-44.2c.1-.5.2-.9.2-1.3 0-1.1-.4-2-1.2-2.5-.8-.6-2.3-.9-4.6-.9h-3l.8-5.3 24.7-1.1-4.4 18.5c8.4-12.8 16.6-19.1 24.7-19.1 3.6 0 6.6 1.1 8.9 3.3 2.3 2.3 3.4 5.1 3.4 8.5 0 2.7-.5 6.1-1.6 10L739.2 74c-1 3.1-1.4 5-1.4 5.8 0 .6.2 1 .4 1.3.3.3.8.4 1.3.4 1.3 0 2.6-.8 4.1-2.3 2.4-2.6 4.7-6.4 7-11.5" fill="#444243"/></svg>