<?xml version="1.0" encoding="utf-8"?>
<!-- Generator: Adobe Illustrator 21.0.0, SVG Export Plug-In . SVG Version: 6.00 Build 0)  -->
<svg version="1.1" id="Layer_1" xmlns="http://www.w3.org/2000/svg" xmlns:xlink="http://www.w3.org/1999/xlink" x="0px" y="0px"
	 viewBox="-326 300 226.8 226.8" enable-background="new -326 300 226.8 226.8" xml:space="preserve">
<title>Navbar</title>
<desc>Created with Sketch.</desc>
<g id="About">
	<g id="About---nav-ux" transform="translate(-220.000000, -28.000000)">
		<g id="Navbar" transform="translate(220.000000, 28.000000)">
			<g id="Logo">
				<path id="Fill-1" fill="#12100B" d="M-148.5,428.4h-9v-33.5h-13.2v-7.1h35.5v7.1h-13.3V428.4"/>
				<path id="Fill-2" fill="#12100B" d="M-184.2,387.8h9.1v40.6h-9.1V387.8z"/>
				<path id="Fill-3" fill="#12100B" d="M-200.2,398.6h8v29.8h-15c-2.7,0-5-0.3-6.8-1c-1.8-0.7-3.2-1.8-4.2-3.4
					c-1-1.6-1.5-3.7-1.5-6.4v-18.9h7.9v18.3c0,1.2,0.2,2.2,0.5,2.9c0.3,0.8,0.8,1.3,1.6,1.6c0.8,0.3,1.8,0.5,3.1,0.5h6.5V398.6"/>
				<path id="Fill-4" fill="#12100B" d="M-238.7,428.4h-7.9v-29.8h13.4c2.5,0,4.3,0.3,5.5,1c1.2,0.7,2,1.6,2.4,2.8
					c0.3,1.2,0.5,2.8,0.5,4.9v3.8h-7.6v-2.4c0-1.5-0.1-2.6-0.3-3.1c-0.2-0.5-0.6-0.9-1.1-1c-0.5-0.1-0.9-0.1-1.3-0.2
					c-0.4,0-1-0.1-1.9-0.1h-1.7V428.4"/>
				<path id="Fill-5" fill="#12100B" d="M-290.1,412.4v-24.6h8.7v24.4c0,0.8,0,1.5,0.1,2.3c0.1,0.8,0.2,1.7,0.4,2.7
					c0.2,1,0.6,1.9,1.3,2.7c0.7,0.8,1.6,1.4,2.8,1.9c1.2,0.4,2.8,0.7,4.6,0.7c2.4,0,4.3-0.4,5.7-1.1c1.3-0.8,2.2-1.8,2.8-3.3
					c0.5-1.4,0.8-3.3,0.8-5.8v-24.4h8.6v24.6c0,1.1,0,2.1-0.1,3.2c-0.1,1.1-0.2,2.1-0.3,3.1c-0.3,1.7-1.4,3.8-3.3,6.4
					c-1.9,2.5-6.6,3.8-14.1,3.8c-7.6,0-12.4-1.2-14.1-3.5c-1.8-2.4-2.8-4-3.1-4.9c-0.2-0.9-0.4-1.6-0.5-2.1
					c-0.1-0.5-0.2-1.1-0.2-1.8V412.4"/>
			</g>
		</g>
	</g>
</g>
</svg>
