<svg xmlns="http://www.w3.org/2000/svg" viewBox="-326 300 226.8 226.8" xml:space="preserve"><path d="M-148.5 428.4h-9v-33.5h-13.2v-7.1h35.5v7.1h-13.3v33.5m-35.7-40.6h9.1v40.6h-9.1v-40.6zm-16 10.8h8v29.8h-15c-2.7 0-5-.3-6.8-1-1.8-.7-3.2-1.8-4.2-3.4-1-1.6-1.5-3.7-1.5-6.4v-18.9h7.9V417c0 1.2.2 2.2.5 2.9.3.8.8 1.3 1.6 1.6.8.3 1.8.5 3.1.5h6.5v-23.4m-38.6 29.8h-7.9v-29.8h13.4c2.5 0 4.3.3 5.5 1 1.2.7 2 1.6 2.4 2.8.3 1.2.5 2.8.5 4.9v3.8h-7.6v-2.4c0-1.5-.1-2.6-.3-3.1-.2-.5-.6-.9-1.1-1-.5-.1-.9-.1-1.3-.2-.4 0-1-.1-1.9-.1h-1.7v24.1m-51.4-16v-24.6h8.7v24.4c0 .8 0 1.5.1 2.3.1.8.2 1.7.4 2.7.2 1 .6 1.9 1.3 2.7.7.8 1.6 1.4 2.8 1.9 1.2.4 2.8.7 4.6.7 2.4 0 4.3-.4 5.7-1.1 1.3-.8 2.2-1.8 2.8-3.3.5-1.4.8-3.3.8-5.8v-24.4h8.6v24.6c0 1.1 0 2.1-.1 3.2s-.2 2.1-.3 3.1c-.3 1.7-1.4 3.8-3.3 6.4-1.9 2.5-6.6 3.8-14.1 3.8-7.6 0-12.4-1.2-14.1-3.5-1.8-2.4-2.8-4-3.1-4.9-.2-.9-.4-1.6-.5-2.1-.1-.5-.2-1.1-.2-1.8v-4.3" fill="#12100B"/></svg>