<svg fill="none" height="122" width="128" xmlns="http://www.w3.org/2000/svg" xmlns:xlink="http://www.w3.org/1999/xlink"><clipPath id="a"><path d="m0 .773h127.8v120.57h-127.8z"/></clipPath><g clip-path="url(#a)" fill="#fcdcd9"><path d="m56.75 6.333c-17.16 0-33.93.06-50.7-.06-2.38-.02-6.14.99-5.97-3.03.04-.95 4.23-2.47 6.52-2.47 16.62.02 33.23.33 49.85.63 2.82.05 5.69.17 8.42.79 1.45.33 4.05 1.15 3.95 2.77s-2.79 1.67-4.25 2.35c-.52.24-1.25.04-2.2.04v23.73c7.61.34 15.05.66 22.49.99 1 .04 2.14-.19 2.96.22 1.33.66 3.7 1.15 3.65 2.66-.05 1.39-2.27 2.02-3.51 2.17-2.73.33-5.53.1-9.09.1 3.29 5.6 6.32 10.32 8.86 15.29 1.13 2.21 3.18 5.26 1.83 7.43-1.16 1.86-4.26 1.35-6.4 1.41-7.65.23-15.31.31-22.96.15-1.74-.04-4.3-.87-4.92-2.11-.6-1.2.4-3.71 1.42-5.12 4.07-5.57 8.43-10.93 13.1-16.91-1.65-.24-2.43-.42-3.22-.46-9.09-.42-8.92-.41-8.92-9.77-.02-6.46-.55-12.93-.91-20.8zm6.13 49.2h19.85c-2.92-4.96-5.59-9.48-8.5-14.42-3.89 4.94-7.45 9.47-11.35 14.42zm55.6 60.03c-6.08-6.13-11.48-11.46-16.71-16.97-.94-.99-1.87-3-1.47-4.01.48-1.2 2.39-2.54 3.7-2.56 6.65-.14 13.31-.01 19.94.4 1.01.06 2.61 2.04 2.71 3.24.59 6.79.86 13.6 1.13 20.42.11 2.8-1.23 4.25-4.23 4.25-6.8-.01-13.6.13-20.39.23-16.73.25-33.45.51-50.18.76-1.49.02-3.01.06-4.48-.12-4.22-.52-7.02-2.1-6.69-7.23.32-4.96-.29-9.98-.13-14.95.04-1.28.78-3.74 2.25-3.76 1.5-.02 2.25 2.44 2.39 3.76.4 3.79.53 7.65.3 11.46-.24 4.07 1.59 5.16 5.32 5.14 16.97-.11 33.93-.04 50.9-.04 4.92-.02 9.83-.02 15.64-.02zm3.83-4.11c-.35-5.38-.6-9.14-.87-13.4-4.28-.23-8.44-.45-13.9-.73 5.18 4.97 9.41 9.01 14.77 14.13z"/><path d="m43.62 75.183c-4.29-.65-7.26-.83-10.08-1.59-4-1.08-4.49-2.96-1.74-6.02 2.88-3.2 5.92-6.25 9.25-9.75-2.14-.21-4.27-.06-6.14-.7-1.73-.59-3.84-1.73-4.51-3.2-.45-1 1-3.26 2.11-4.5 2.96-3.34 6.2-6.43 9.9-10.2h-6.1c-10.49-.01-20.97.1-31.45-.14-1.44-.03-4.25-.97-4.27-2.68-.02-1.81 2.98-2.91 4.48-2.93 14.98-.2 29.96-.12 44.94-.02.99.01 2.61.61 2.81 1.28.31 1-.01 2.67-.72 3.41-4.24 4.42-8.67 8.65-13.68 13.57 3.19.34 5.62.38 7.95.89 3.82.83 4.5 2.96 1.9 5.92-3.05 3.48-6.28 6.8-9.77 10.56 3.11.47 6.01.73 8.82 1.38 3.81.89 4.61 3.34 1.85 6.07a243.19 243.19 0 0 1 -13.61 12.46c-.92.78-3.31 1.67-4.27.58s.22-3.27 1.09-4.16c3.26-3.3 6.82-6.26 11.24-10.23zm44.08 12.2c0 5 .11 10-.04 14.99-.11 3.75-1.35 6.1-6.05 5.87-6.3-.32-12.64.33-18.97.44-3.87.07-5.42-1.58-5.32-5.85.25-10.44-.27-20.89-.13-31.33.02-1.33 2.11-3.74 3.28-3.76 8.13-.15 16.28.04 24.39.58 1.1.07 2.8 2.61 2.92 4.1.37 4.97.14 9.98.14 14.98-.07-.02-.15-.02-.22-.02zm-24.63-13.88v29.34h7.34v-29.34zm19.31 28.84v-28.98h-6.52v29.34c2.38-.13 4.33-.24 6.52-.36zm-72.89 4.83c-2.88-3.14-5.71-5.94-8.16-9.05-.77-.97-1.77-3.23-.71-4.18 1.1-.98 3.16.37 4.23 1.21 2.87 2.23 5.45 4.83 8.26 7.38 2.9-2.38 5.45-4.78 8.34-6.68 1-.65 3.39-1.13 4.28.01.83 1.06-.18 3.01-.97 3.87-2.12 2.3-4.62 4.25-7.98 7.23 2.68 2.34 5.35 4.27 7.47 6.69 1.06 1.21 2.84 3.66 1.66 4.97-1.26 1.4-4.09-.2-5.45-1.22-2.33-1.74-4.11-4.22-6.25-6.54-2.9 2.6-5.07 4.92-7.62 6.69-1.48 1.03-4.34 2.22-5.25 1.55-2.78-2.08-.34-4.11 1.22-5.68 2.2-2.24 4.65-4.22 6.93-6.25z"/><path d="m24.71 66.424c0 6.32.1 12.64-.1 18.95-.04 1.09-.81 3.2-2.11 3.21-1.31.02-2.19-2.11-2.2-3.18-.2-12.64-.25-25.29-.13-37.93.01-1.06.98-3.17 2.31-3.16 1.31.01 2.19 2.08 2.23 3.15.21 6.32.1 12.64.1 18.96zm-24.6-17.96c.06-1.41.79-4.14 2.41-4.13 1.59.01 2.32 2.73 2.34 4.11.11 12.13.03 24.27-.2 36.41-.02 1.25-.68 3.71-2.13 3.72-1.44.01-2.12-2.43-2.17-3.69-.22-6.14-.52-30.44-.25-36.42zm15.4 36.38c-.06 1.29-1.18 3.84-2.74 3.74-1.45-.1-2.07-2.51-2.09-3.77-.11-12.1-.08-24.21.15-36.32.03-1.4.63-4.19 2.22-4.17 1.58.02 2.04 2.78 2.09 4.22.24 5.95.66 30.18.37 36.3zm84.21-32.49c-.31 1.24-.87 3.3-2.23 3.38-1.47.09-2.75-2.16-2.8-3.3-.45-10.3-.69-20.61-.73-30.92 0-1.27.85-3.83 2.36-3.81 1.65.03 2.41 2.8 2.45 4.24.24 8.48 1.34 28.85.95 30.41zm8.15-29.53c.04-1.6.44-4.67 2.2-4.76 1.75-.09 2.54 2.93 2.64 4.48.58 8.44.79 16.91 1.11 25.38.03.83.21 1.81-.15 2.46-.93 1.65-1.31 4.9-3.21 4.72-1.79-.17-1.49-3.28-2.16-4.95-.16-.43-.65-18.72-.43-27.33zm3.39 63.49c-4.14 0-8.31.23-12.42-.13-1.41-.12-4.1-1.02-4.04-2.65.06-1.48 2.54-2.08 3.86-2.14 7.78-.39 15.58-.68 23.36-.53 1.82.03 5.46.86 5.4 2.93-.06 1.94-3.41 2.27-5.22 2.47-3.61.39-7.28.12-10.93.12-.01-.03-.01-.05-.01-.07zm-.33-10.8c-4.14 0-8.29.19-12.4-.11-1.28-.09-3.64-.88-3.68-2.36-.04-1.49 2.35-2.53 3.57-2.57 7.93-.27 15.88-.35 23.82-.08 1.48.05 4.5 1.2 4.34 2.98-.15 1.75-3.12 2.06-4.76 2.21-3.6.34-7.26.1-10.89.1zm-.26-9.88c-4 0-8.01.15-11.99-.1-1.14-.07-3.13-.7-3.29-1.99-.17-1.35 1.84-2.82 2.8-2.85 8.82-.29 17.64-.34 26.46-.21.78.01 2.19 1.82 2.1 2.68-.09.87-1.63 2.22-2.59 2.27-4.48.24-8.99.11-13.49.11zm-74.12 42.849c0 2.99.24 6.01-.13 8.96-.13 1.03-1.37 2.9-2.69 2.81-1.17-.08-1.98-1.83-2.04-2.81-.39-5.97-.67-11.96-.57-17.93.02-1.3 1.11-3.98 2.7-3.86 1.46.1 1.8 2.52 2 3.88.43 2.95.4 5.96.56 8.95zm11.86-24.5c2.22.08 2.56 2.88 2.55 3.93 0 .81-1.76 2.39-2.5 2.26-1.14-.21-2.66-1.44-2.9-2.49-.17-.78.61-3.78 2.85-3.7z"/></g></svg>