<svg xmlns="http://www.w3.org/2000/svg" width="163" height="121" fill="none"><g clip-path="url(#clip0)" fill="#FCDCD9"><path d="M5.39 19.39h7.18c0-3.83-.21-7.6.11-11.33.12-1.44.63-4.14 2.22-4.16 1.43-.02 1.93 2.41 2.1 3.72.5 3.76.58 7.58.85 11.7 1.52.12 2.94.22 5.01.38 0-4.24-.2-8.18.11-12.08.11-1.43.64-4.15 2.22-4.14 1.61.01 2.18 2.79 2.23 4.22.34 10.97.34 21.95.58 32.93.36 16.29.83 32.58 1.26 48.88.02.67-.01 1.34.08 1.99 1.24 9.35 1.25 9.37-8.47 9.35-4.99-.01-9.98-.13-14.97-.14-3.43 0-4.8-1.1-4.79-5.04C1.15 72.55.86 49.42.6 26.3.53 20.05-.05 13.81 0 7.57.02 6 .61 2.9 2.38 2.88 4 2.86 4.49 5.65 4.67 7.14c.5 3.92.5 7.89.72 12.25zm8.03 76.06v-58.5H6.53v57.92c2.53.22 4.64.39 6.89.58zm5.86-58.05c0 18.83-.08 37.06.17 55.29.02 1.23 2.46 2.42 3.77 3.64 0-19.4-.01-37.65.01-55.9 0-3.6-2.05-3.58-3.95-3.03zm-6.63-6.33V25.1H5.59c.1 1.99.18 3.59.28 5.47 2.33.16 4.4.32 6.78.5zm10.09.98v-7.03h-4.79v6.53c1.67.17 2.98.31 4.79.5zm77.04 82.1V89.69c-5.96 0-11.74.08-17.52-.03-2.98-.06-5.98-.34-8.92-.83-.9-.15-2.42-.97-2.44-2.04-.02-1.19 1.64-2.19 2.61-2.35 2.93-.46 5.94-.45 9.51-.65-2.68-4.69-5.24-9.06-7.67-13.49-1.1-2.01-2.29-4.09-2.79-6.28-.56-2.45.53-4.08 3.5-4.08 9.15.01 18.31-.23 27.46-.09 1.33.02 3.13 1.31 3.78 2.51.47.87-.28 2.82-1.06 3.86-4.36 5.82-8.89 11.52-14.2 18.34 3.24 0 5.3.06 7.36-.01 3.81-.14 5.37 1.64 5.32 5.43-.12 8.09-.04 16.19-.04 24.73 15.75 0 30.38-.04 45.02.03 3.15.02 6.32.26 9.42.77 1.21.2 3.29.81 3.38 2.16.09 1.47-2.18 2.71-3.33 2.76-5.14.25-10.31 0-15.47-.05-12.96-.12-25.92-.19-38.88-.38-2.64-.04-5.34-.27-7.89-.89-1.32-.32-3.68-1.11-3.58-2.59.11-1.61 2.78-1.66 4.24-2.33.55-.24 1.3-.04 2.19-.04zM88.04 80.33c3.9-5.05 7.37-9.54 11.18-14.46H79.5c2.93 4.96 5.59 9.47 8.54 14.46zm29.28-53.68c-.5-1.73-1.29-3.45-1.43-5.21-.28-3.64-.38-7.32-.24-10.97.12-3.17-1.13-4.68-4.28-4.67-21.8.04-43.6.08-65.4.14-.43 0-.86.26-.9.28 5.18 5.51 10.42 10.99 15.52 16.6.86.95 1.85 2.73 1.5 3.61-.52 1.3-2.18 3-3.38 3.02-6.97.13-13.96-.09-20.93-.47-.78-.04-2.03-1.75-2.12-2.76-.59-7.12-1.17-14.26-1.12-21.39.01-1.28 2.9-3.57 4.54-3.64 9.12-.4 18.27-.18 27.41-.33C79.77.63 93.04-.13 106.31.05c15.71.22 13.41.32 14.36 14.03.18 2.65.23 5.35-.05 7.98-.17 1.59-1.08 3.1-1.66 4.64a42.3 42.3 0 0 0-1.64-.05zm-64.14-2.67c.11-.38.22-.76.33-1.13L39.73 9.91c.5 5.31.86 9.19 1.26 13.52 4.13.18 8.16.36 12.19.55z"/><path d="M120.36 63.53c3.08.33 5.29.25 7.28.88 1.58.5 3.7 1.62 4.09 2.91.38 1.25-.79 3.41-1.9 4.59-3.11 3.33-6.54 6.37-10.38 10.04 10.13 0 19.22-.02 28.31.01 3.48.01 6.98-.12 10.42.28 1.27.15 3.48 1.06 3.57 2.54.09 1.53-2.09 2.75-3.36 3.01-2.22.46-4.62-.01-6.95-.01-12.83.02-25.65.1-38.48.03-1.29-.01-3.3-.09-3.86-1.34-.55-1.24.7-2.83 1.58-3.72 4.1-4.11 8.4-8.02 13.63-12.95-3.73-.46-6.11-.6-8.41-1.07-3.94-.82-4.64-2.83-1.99-5.85 3.03-3.44 6.25-6.72 9.76-10.47-3.38-.6-6.33-.91-9.15-1.67-3.52-.95-4.19-3.25-1.56-5.81 4.51-4.41 9.2-8.65 14-12.75.82-.7 2.99-1.4 3.88-.42.95 1.05-.04 3.26-.87 4.11-3.29 3.38-6.9 6.45-11.06 10.24 3.85.64 6.62.93 9.3 1.58 4.55 1.11 5.16 3.16 1.91 6.51-2.98 3.04-6.14 5.88-9.76 9.33zM74.96 17.8c.13-1.52 2.2-3.97 3.57-4.11 6.76-.7 13.59-.75 20.39-1.05 4.07-.18 6.09 1.34 6.05 5.81-.09 10.61.32 21.23.14 31.83-.02 1.22-2.4 3.39-3.74 3.42-7.81.23-15.63 0-23.45-.16-3.1-.06-3.71-2.17-3.68-4.81.08-5 .28-25.65.72-30.93zm17.04.7v29.66h7.31V18.5H92zm-5.66 30.09V18.85h-6.4v29.29c1.99.14 3.74.26 6.4.45zm66.41-34.31c3.04 3.32 5.76 6.01 8.1 9.01.77.99 1.86 3.18.81 4.14-1.11 1.02-3.2-.38-4.3-1.22-2.87-2.19-5.46-4.75-8.28-7.26-2.93 2.39-5.35 4.68-8.11 6.46-1.06.68-3.42 1.38-4.34.24-.92-1.14.26-3.22 1.11-4.19 2.04-2.33 4.53-4.28 7.51-7.01-2.88-2.62-5.62-4.79-7.92-7.36-.86-.97-1.98-3.21-.98-4.33 1.08-1.22 3.82-.36 4.76.51 2.41 2.22 4.26 5.05 6.44 7.77 3.51-3.16 5.67-5.51 8.25-7.26 1.46-.99 4.09-2.77 5.41-1.43 1.34 1.36-.44 4.09-1.53 5.45-1.93 2.42-4.53 4.3-6.93 6.48zm5.79 79.34c1.35.1 3.85.68 3.9 2.19.05 1.63-2.71 2.61-4.06 2.61-15.42-.05-30.85-.29-46.26-.71-1.13-.03-3.35-1.27-3.31-2.72.04-1.47 2.3-2.49 3.5-2.54 5.97-.27 36.82.45 46.23 1.17z"/><path d="M146.72 54.76c0-6-.15-12.01.11-17.99.06-1.42.77-4.15 2.38-4.16 1.63-.01 2.44 2.77 2.46 4.17.16 11.83.12 23.66-.12 35.49-.03 1.59-.61 4.77-2.39 4.73-1.75-.04-2.08-3.14-2.16-4.75-.26-5.82-.22-17.49-.28-17.49zM162 73.16c-.05 1.3-.63 3.72-2.1 3.82-1.43.1-2.5-2.27-2.51-3.42-.11-12.13-.04-24.26.23-36.38.03-1.51.69-4.62 2.39-4.49 1.79.13 1.76 3.34 1.83 5.04.24 5.82.38 29.45.16 35.43zM60.6 69.57c.07-1.33.69-3.71 2.18-3.87 1.47-.16 2.83 2.13 2.88 3.26.45 10.13.7 20.26.71 30.4 0 1.43-.73 4.31-2.39 4.31-1.79 0-2.46-3.06-2.57-4.67-.34-4.97-1.07-24.63-.81-29.43zM42.62 84.55c0 6 .18 10.34-.1 14.65-.1 1.59-.29 4.5-1.98 4.65-1.79.16-2.81-2.91-2.92-4.46-.52-7.3-.6-14.63-.8-21.95-.07-2.5-.33-5.03.01-7.48.16-1.16.98-3.17 2.32-3.22 1.35-.06 2.5 1.94 2.6 3.03.54 5.45.68 10.95.87 14.78zm11.61 4.86c0 3.49.22 7.01-.12 10.47-.12 1.25-.99 3.52-2.44 3.54-1.38.01-2.27-2.14-2.37-3.31-.34-3.8-.9-20.73-1.21-25.36-.07-.99-.37-2.15.01-2.96.88-1.91 1.09-5.61 3.2-5.48 2.06.13 2.27 3.75 2.38 5.68.31 5.79.4 17.42.55 17.42zm87.89-34.2c0 5.82.14 11.64-.1 17.45-.06 1.47-.46 4.26-2.07 4.33-1.55.07-2.33-2.63-2.34-3.97-.15-12.12-.1-24.24.08-36.36.02-1.34.41-3.94 1.9-3.99 1.58-.05 2.23 2.7 2.28 4.09.25 6.14.11 12.29.11 18.44.05.01.09.01.14.01zM50.57 40.44c-4.15 0-8.31.21-12.43-.13-1.22-.1-3.44-1.16-3.46-2.64-.02-1.37 2.07-2.56 3.12-2.57 8.94-.06 17.88.11 26.82.43.91.03 2.7 1.09 2.65 2.28-.06 1.36-2.13 2.28-3.27 2.35-4.46.28-8.94.11-13.42.11-.01.07-.01.12-.01.17zm4.88 10.5c-5.45 0-10.91.19-16.33-.15-1.25-.08-3.78-1.46-3.58-3.04.19-1.49 2.66-1.97 4.01-1.99 7.81-.11 15.63-.05 23.43.26 1.4.06 4.13.77 4.12 2.38-.01 1.61-2.7 2.11-4.18 2.35-2.43.39-4.98.11-7.47.11-.01.02 0 .05 0 .08zm-3.78 4.81c3.81 0 7.63-.18 11.42.1 1.28.1 3.55.7 3.69 2.13.13 1.36-2 2.61-3.04 2.65-8.6.28-17.21.35-25.81.21-.99-.02-2.99-1.24-2.93-2.56.06-1.37 2.13-2.31 3.27-2.38 4.45-.28 8.93-.11 13.41-.11-.01-.02-.01-.03-.01-.04zm79.41-33.68c-.17 1.31-.84 3.65-2.31 3.69-1.42.04-2.34-2.25-2.42-3.45-.4-5.77-.59-11.58-.45-17.36.03-1.34.97-3.98 2.56-3.95 1.46.03 2.05 2.41 2.2 3.72.34 2.95.78 14.59.42 17.35zm-47.26 72.2c2.58.12 5.92.07 9.18.55 1.09.16 3.04 1.23 2.97 2.55-.07 1.33-2.16 2.23-3.23 2.22-6.28-.03-12.57-.3-18.83-.77-1.09-.08-3.14-1.06-3.12-2.38.02-1.2 1.88-1.97 2.89-2.06 3.13-.28 6.28-.11 10.14-.11zm34.36-60.54c-.01 2.46-3.2 2.57-4.32 2.57-.93-.01-2.72-1.09-2.78-2.34-.06-1.36 1.74-2.65 2.8-2.82.98-.16 4.31.12 4.3 2.59z"/></g><defs><clipPath id="clip0"><path fill="#fff" d="M0 0H162.52V120.54H0z"/></clipPath></defs></svg>